%TF.GenerationSoftware,KiCad,Pcbnew,(6.0.10)*%
%TF.CreationDate,2023-12-11T17:00:35-05:00*%
%TF.ProjectId,Ultrasonic Sound Steering - Control Rev. A,556c7472-6173-46f6-9e69-6320536f756e,rev?*%
%TF.SameCoordinates,Original*%
%TF.FileFunction,Soldermask,Bot*%
%TF.FilePolarity,Negative*%
%FSLAX46Y46*%
G04 Gerber Fmt 4.6, Leading zero omitted, Abs format (unit mm)*
G04 Created by KiCad (PCBNEW (6.0.10)) date 2023-12-11 17:00:35*
%MOMM*%
%LPD*%
G01*
G04 APERTURE LIST*
G04 Aperture macros list*
%AMRoundRect*
0 Rectangle with rounded corners*
0 $1 Rounding radius*
0 $2 $3 $4 $5 $6 $7 $8 $9 X,Y pos of 4 corners*
0 Add a 4 corners polygon primitive as box body*
4,1,4,$2,$3,$4,$5,$6,$7,$8,$9,$2,$3,0*
0 Add four circle primitives for the rounded corners*
1,1,$1+$1,$2,$3*
1,1,$1+$1,$4,$5*
1,1,$1+$1,$6,$7*
1,1,$1+$1,$8,$9*
0 Add four rect primitives between the rounded corners*
20,1,$1+$1,$2,$3,$4,$5,0*
20,1,$1+$1,$4,$5,$6,$7,0*
20,1,$1+$1,$6,$7,$8,$9,0*
20,1,$1+$1,$8,$9,$2,$3,0*%
G04 Aperture macros list end*
%TA.AperFunction,Profile*%
%ADD10C,0.100000*%
%TD*%
%TA.AperFunction,Profile*%
%ADD11C,0.010000*%
%TD*%
%ADD12C,0.504000*%
%ADD13C,4.800000*%
%ADD14RoundRect,0.102000X-0.754000X0.754000X-0.754000X-0.754000X0.754000X-0.754000X0.754000X0.754000X0*%
%ADD15C,1.712000*%
%ADD16C,6.204000*%
%ADD17RoundRect,0.275000X-0.225000X-0.250000X0.225000X-0.250000X0.225000X0.250000X-0.225000X0.250000X0*%
%ADD18RoundRect,0.050000X0.850000X-0.850000X0.850000X0.850000X-0.850000X0.850000X-0.850000X-0.850000X0*%
%ADD19O,1.800000X1.800000*%
%ADD20C,1.700000*%
%ADD21O,2.604000X1.404000*%
%ADD22RoundRect,0.102000X0.900000X0.900000X-0.900000X0.900000X-0.900000X-0.900000X0.900000X-0.900000X0*%
%ADD23RoundRect,0.050000X0.152400X-0.584200X0.152400X0.584200X-0.152400X0.584200X-0.152400X-0.584200X0*%
%ADD24RoundRect,0.300000X0.450000X0.425000X-0.450000X0.425000X-0.450000X-0.425000X0.450000X-0.425000X0*%
%ADD25RoundRect,0.250000X-0.275000X0.200000X-0.275000X-0.200000X0.275000X-0.200000X0.275000X0.200000X0*%
%ADD26RoundRect,0.050000X-0.350000X0.300000X-0.350000X-0.300000X0.350000X-0.300000X0.350000X0.300000X0*%
%ADD27RoundRect,0.185000X-0.135000X-0.185000X0.135000X-0.185000X0.135000X0.185000X-0.135000X0.185000X0*%
%ADD28RoundRect,0.050000X-0.152400X0.584200X-0.152400X-0.584200X0.152400X-0.584200X0.152400X0.584200X0*%
%ADD29RoundRect,0.275000X0.225000X0.250000X-0.225000X0.250000X-0.225000X-0.250000X0.225000X-0.250000X0*%
%ADD30RoundRect,0.250000X0.275000X-0.200000X0.275000X0.200000X-0.275000X0.200000X-0.275000X-0.200000X0*%
%ADD31RoundRect,0.050000X-0.488950X-0.279400X0.488950X-0.279400X0.488950X0.279400X-0.488950X0.279400X0*%
%ADD32RoundRect,0.275000X-0.250000X0.225000X-0.250000X-0.225000X0.250000X-0.225000X0.250000X0.225000X0*%
%ADD33RoundRect,0.250000X-0.200000X-0.275000X0.200000X-0.275000X0.200000X0.275000X-0.200000X0.275000X0*%
%ADD34RoundRect,0.050000X0.800100X-0.431800X0.800100X0.431800X-0.800100X0.431800X-0.800100X-0.431800X0*%
%ADD35RoundRect,0.050000X-0.450000X-0.600000X0.450000X-0.600000X0.450000X0.600000X-0.450000X0.600000X0*%
%ADD36RoundRect,0.275000X0.250000X-0.225000X0.250000X0.225000X-0.250000X0.225000X-0.250000X-0.225000X0*%
%ADD37RoundRect,0.300000X-0.425000X0.450000X-0.425000X-0.450000X0.425000X-0.450000X0.425000X0.450000X0*%
%ADD38RoundRect,0.050000X-0.850000X0.850000X-0.850000X-0.850000X0.850000X-0.850000X0.850000X0.850000X0*%
%ADD39RoundRect,0.300000X-0.450000X-0.425000X0.450000X-0.425000X0.450000X0.425000X-0.450000X0.425000X0*%
%ADD40RoundRect,0.050000X0.225000X0.725000X-0.225000X0.725000X-0.225000X-0.725000X0.225000X-0.725000X0*%
%ADD41RoundRect,0.050000X0.450000X0.600000X-0.450000X0.600000X-0.450000X-0.600000X0.450000X-0.600000X0*%
%ADD42RoundRect,0.050000X0.675000X-0.200000X0.675000X0.200000X-0.675000X0.200000X-0.675000X-0.200000X0*%
%ADD43C,1.550000*%
%ADD44O,2.000000X1.300000*%
%ADD45RoundRect,0.050000X0.950000X-0.750000X0.950000X0.750000X-0.950000X0.750000X-0.950000X-0.750000X0*%
%ADD46RoundRect,0.050000X0.950000X-0.600000X0.950000X0.600000X-0.950000X0.600000X-0.950000X-0.600000X0*%
%ADD47RoundRect,0.250000X0.200000X0.275000X-0.200000X0.275000X-0.200000X-0.275000X0.200000X-0.275000X0*%
%ADD48RoundRect,0.050000X0.350000X-0.300000X0.350000X0.300000X-0.350000X0.300000X-0.350000X-0.300000X0*%
%ADD49C,1.300000*%
%ADD50O,1.512000X2.820000*%
%ADD51O,2.820000X1.512000*%
%ADD52C,1.400000*%
%ADD53C,1.800000*%
G04 APERTURE END LIST*
D10*
X159706350Y-26997214D02*
X272697922Y-26997214D01*
X157702100Y-124143000D02*
G75*
G03*
X159702136Y-126143000I2000100J100D01*
G01*
X274697886Y-28997214D02*
G75*
G03*
X272697922Y-26997214I-1999886J114D01*
G01*
X274697922Y-28997214D02*
X274697922Y-124138787D01*
X157702136Y-124143000D02*
X157706350Y-28997214D01*
X272697922Y-126138787D02*
X159702136Y-126143000D01*
X159706350Y-26997150D02*
G75*
G03*
X157706350Y-28997214I50J-2000050D01*
G01*
X272697922Y-126138722D02*
G75*
G03*
X274697922Y-124138787I78J1999922D01*
G01*
D11*
%TO.C,P13*%
X271110000Y-113350000D02*
X269310000Y-113350000D01*
X269310000Y-115150000D02*
X271110000Y-115150000D01*
X269310000Y-113350000D02*
X269310000Y-115150000D01*
X271110000Y-115150000D02*
X271110000Y-113350000D01*
%TD*%
D12*
%TO.C,*%
X253960000Y-110600000D03*
%TD*%
%TO.C,*%
X252102500Y-110612500D03*
%TD*%
%TO.C,*%
X251850000Y-58225000D03*
%TD*%
%TO.C,*%
X255010000Y-107015000D03*
%TD*%
%TO.C,*%
X252910000Y-114760000D03*
%TD*%
D13*
%TO.C,H2*%
X162200177Y-31490000D03*
%TD*%
D12*
%TO.C,*%
X255600000Y-114930000D03*
%TD*%
%TO.C,*%
X257810000Y-111605000D03*
%TD*%
%TO.C,*%
X252102500Y-109407500D03*
%TD*%
%TO.C,*%
X252102500Y-111612500D03*
%TD*%
%TO.C,*%
X258750000Y-108210000D03*
%TD*%
%TO.C,*%
X171190000Y-75245000D03*
%TD*%
%TO.C,*%
X259720000Y-115185000D03*
%TD*%
%TO.C,*%
X259720000Y-110585000D03*
%TD*%
%TO.C,*%
X253030000Y-107005000D03*
%TD*%
%TO.C,*%
X258750000Y-111605000D03*
%TD*%
%TO.C,*%
X254675000Y-58225000D03*
%TD*%
%TO.C,*%
X253260000Y-58200000D03*
%TD*%
%TO.C,*%
X251180000Y-110610000D03*
%TD*%
%TO.C,*%
X171190000Y-73410000D03*
%TD*%
%TO.C,*%
X258750000Y-112810000D03*
%TD*%
%TO.C,*%
X250230000Y-107015000D03*
%TD*%
%TO.C,*%
X245100000Y-76300000D03*
%TD*%
%TO.C,*%
X256892500Y-112822500D03*
%TD*%
%TO.C,*%
X250220000Y-109405000D03*
%TD*%
%TO.C,*%
X259710000Y-106990000D03*
%TD*%
%TO.C,*%
X267150000Y-67850000D03*
%TD*%
%TO.C,*%
X252112500Y-107017500D03*
%TD*%
%TO.C,*%
X252112500Y-108222500D03*
%TD*%
%TO.C,*%
X244425000Y-75625000D03*
%TD*%
%TO.C,*%
X250230000Y-108220000D03*
%TD*%
%TO.C,*%
X258625000Y-75425000D03*
%TD*%
%TO.C,*%
X254290000Y-113410000D03*
%TD*%
%TO.C,*%
X257820000Y-109395000D03*
%TD*%
%TO.C,*%
X257810000Y-108210000D03*
%TD*%
%TO.C,*%
X257810000Y-112810000D03*
%TD*%
D13*
%TO.C,H1*%
X270200189Y-31490000D03*
%TD*%
D12*
%TO.C,*%
X254960000Y-114170000D03*
%TD*%
%TO.C,*%
X250220000Y-111610000D03*
%TD*%
%TO.C,*%
X259710000Y-108195000D03*
%TD*%
%TO.C,*%
X253020000Y-110600000D03*
%TD*%
%TO.C,*%
X259720000Y-109380000D03*
%TD*%
%TO.C,*%
X257820000Y-113995000D03*
%TD*%
%TO.C,*%
X257820000Y-110600000D03*
%TD*%
%TO.C,*%
X253030000Y-108210000D03*
%TD*%
%TO.C,*%
X255980000Y-110610000D03*
%TD*%
%TO.C,*%
X256892500Y-111617500D03*
%TD*%
%TO.C,*%
X255980000Y-111610000D03*
%TD*%
D14*
%TO.C,U14*%
X201260000Y-103190000D03*
X231740000Y-49840000D03*
D15*
X203800000Y-103190000D03*
X229200000Y-49840000D03*
X201260000Y-100650000D03*
X231740000Y-52380000D03*
X203800000Y-100650000D03*
X229200000Y-52380000D03*
X201260000Y-98110000D03*
X231740000Y-54920000D03*
X203800000Y-98110000D03*
X229200000Y-54920000D03*
X201260000Y-95570000D03*
X231740000Y-57460000D03*
X203800000Y-95570000D03*
X229200000Y-57460000D03*
X201260000Y-93030000D03*
X231740000Y-60000000D03*
X203800000Y-93030000D03*
X229200000Y-60000000D03*
X201260000Y-90490000D03*
X231740000Y-62540000D03*
X203800000Y-90490000D03*
X229200000Y-62540000D03*
X201260000Y-87950000D03*
X231740000Y-65080000D03*
X203800000Y-87950000D03*
X229200000Y-65080000D03*
X201260000Y-85410000D03*
X231740000Y-67620000D03*
X203800000Y-85410000D03*
X229200000Y-67620000D03*
X201260000Y-82870000D03*
X231740000Y-70160000D03*
X203800000Y-82870000D03*
X229200000Y-70160000D03*
X201260000Y-80330000D03*
X231740000Y-72700000D03*
X203800000Y-80330000D03*
X229200000Y-72700000D03*
X201260000Y-77790000D03*
X231740000Y-75240000D03*
X203800000Y-77790000D03*
X229200000Y-75240000D03*
X201260000Y-75250000D03*
X231740000Y-77780000D03*
X203800000Y-75250000D03*
X229200000Y-77780000D03*
X201260000Y-72710000D03*
X231740000Y-80320000D03*
X203800000Y-72710000D03*
X229200000Y-80320000D03*
X201260000Y-70170000D03*
X231740000Y-82860000D03*
X203800000Y-70170000D03*
X229200000Y-82860000D03*
X201260000Y-67630000D03*
X231740000Y-85400000D03*
X203800000Y-67630000D03*
X229200000Y-85400000D03*
X201260000Y-65090000D03*
X231740000Y-87940000D03*
X203800000Y-65090000D03*
X229200000Y-87940000D03*
X201260000Y-62550000D03*
X231740000Y-90480000D03*
X203800000Y-62550000D03*
X229200000Y-90480000D03*
X201260000Y-60010000D03*
X231740000Y-93020000D03*
X203800000Y-60010000D03*
X229200000Y-93020000D03*
X201260000Y-57470000D03*
X231740000Y-95560000D03*
X203800000Y-57470000D03*
X229200000Y-95560000D03*
X201260000Y-54930000D03*
X231740000Y-98100000D03*
X203800000Y-54930000D03*
X229200000Y-98100000D03*
X201260000Y-52390000D03*
X231740000Y-100640000D03*
X203800000Y-52390000D03*
X229200000Y-100640000D03*
X201260000Y-49850000D03*
X231740000Y-103180000D03*
X203800000Y-49850000D03*
X229200000Y-103180000D03*
X201260000Y-47310000D03*
X231740000Y-105720000D03*
X203800000Y-47310000D03*
X229200000Y-105720000D03*
X201260000Y-44770000D03*
X231740000Y-108260000D03*
X203800000Y-44770000D03*
X229200000Y-108260000D03*
X201260000Y-42230000D03*
X231740000Y-110800000D03*
X203800000Y-42230000D03*
X229200000Y-110800000D03*
D16*
X230470000Y-43490000D03*
X202530000Y-109540000D03*
%TD*%
D12*
%TO.C,*%
X257225000Y-76875000D03*
%TD*%
%TO.C,*%
X169355000Y-73410000D03*
%TD*%
%TO.C,*%
X260050000Y-76875000D03*
%TD*%
%TO.C,*%
X257810000Y-107005000D03*
%TD*%
%TO.C,*%
X267150000Y-66645000D03*
%TD*%
%TO.C,*%
X169355000Y-75245000D03*
%TD*%
%TO.C,*%
X259710000Y-111590000D03*
%TD*%
%TO.C,*%
X253970000Y-107005000D03*
%TD*%
%TO.C,U18*%
X164595000Y-94547500D03*
X164595000Y-92712500D03*
X165512500Y-95465000D03*
X165512500Y-93630000D03*
X165512500Y-91795000D03*
X166430000Y-94547500D03*
X166430000Y-92712500D03*
X167347500Y-95465000D03*
X167347500Y-93630000D03*
X167347500Y-91795000D03*
X168265000Y-94547500D03*
X168265000Y-92712500D03*
%TD*%
D13*
%TO.C,H3*%
X270200172Y-121640000D03*
%TD*%
D12*
%TO.C,*%
X251190000Y-108220000D03*
%TD*%
%TO.C,*%
X255970000Y-108220000D03*
%TD*%
%TO.C,*%
X253250000Y-59600000D03*
%TD*%
%TO.C,*%
X244425000Y-76300000D03*
%TD*%
%TO.C,*%
X258635000Y-76850000D03*
%TD*%
%TO.C,*%
X258760000Y-115200000D03*
%TD*%
%TO.C,*%
X253020000Y-109395000D03*
%TD*%
%TO.C,*%
X255020000Y-111610000D03*
%TD*%
%TO.C,*%
X259710000Y-112795000D03*
%TD*%
%TO.C,*%
X258750000Y-107005000D03*
%TD*%
%TO.C,*%
X266210000Y-67850000D03*
%TD*%
%TO.C,*%
X251180000Y-111610000D03*
%TD*%
%TO.C,*%
X258760000Y-109395000D03*
%TD*%
%TO.C,*%
X252340000Y-114040000D03*
%TD*%
%TO.C,*%
X255970000Y-107015000D03*
%TD*%
%TO.C,*%
X251180000Y-109405000D03*
%TD*%
%TO.C,*%
X258760000Y-113995000D03*
%TD*%
%TO.C,*%
X251190000Y-107015000D03*
%TD*%
%TO.C,*%
X253960000Y-111600000D03*
%TD*%
%TO.C,*%
X253020000Y-111600000D03*
%TD*%
%TO.C,*%
X245100000Y-75625000D03*
%TD*%
%TO.C,*%
X258760000Y-110600000D03*
%TD*%
D13*
%TO.C,H4*%
X162200214Y-121640000D03*
%TD*%
D12*
%TO.C,*%
X253960000Y-109395000D03*
%TD*%
%TO.C,*%
X256902500Y-109407500D03*
%TD*%
%TO.C,*%
X256892500Y-108222500D03*
%TD*%
%TO.C,*%
X258625000Y-78250000D03*
%TD*%
%TO.C,*%
X255020000Y-110610000D03*
%TD*%
%TO.C,*%
X256902500Y-110612500D03*
%TD*%
%TO.C,*%
X255980000Y-109405000D03*
%TD*%
%TO.C,*%
X255020000Y-109405000D03*
%TD*%
%TO.C,*%
X253970000Y-108210000D03*
%TD*%
%TO.C,*%
X255010000Y-108220000D03*
%TD*%
%TO.C,*%
X250590000Y-114930000D03*
%TD*%
%TO.C,*%
X250220000Y-110610000D03*
%TD*%
%TO.C,*%
X266210000Y-66645000D03*
%TD*%
%TO.C,*%
X170272500Y-74327500D03*
%TD*%
%TO.C,*%
X259720000Y-113980000D03*
%TD*%
%TO.C,*%
X253250000Y-56775000D03*
%TD*%
%TO.C,*%
X256892500Y-107017500D03*
%TD*%
D17*
%TO.C,C113*%
X234695000Y-110900000D03*
X236245000Y-110900000D03*
%TD*%
D18*
%TO.C,P5*%
X260855101Y-118700000D03*
D19*
X260855101Y-121240000D03*
X258315101Y-118700000D03*
X258315101Y-121240000D03*
X255775101Y-118700000D03*
X255775101Y-121240000D03*
X253235101Y-118700000D03*
X253235101Y-121240000D03*
X250695101Y-118700000D03*
X250695101Y-121240000D03*
X248155101Y-118700000D03*
X248155101Y-121240000D03*
X245615101Y-118700000D03*
X245615101Y-121240000D03*
X243075101Y-118700000D03*
X243075101Y-121240000D03*
%TD*%
D20*
%TO.C,P12*%
X271210000Y-55460000D03*
X266210000Y-55460000D03*
D21*
X272410000Y-60160000D03*
X266710000Y-59060000D03*
D22*
X266710000Y-51860000D03*
D21*
X271410000Y-51460000D03*
X270210000Y-59060000D03*
D22*
X268710000Y-51860000D03*
%TD*%
D23*
%TO.C,U22*%
X194925000Y-46370200D03*
X194274999Y-46370200D03*
X193625001Y-46370200D03*
X192974999Y-46370200D03*
X192325001Y-46370200D03*
X191675002Y-46370200D03*
X191025001Y-46370200D03*
X190375002Y-46370200D03*
X189725001Y-46370200D03*
X189075002Y-46370200D03*
X189075000Y-40629800D03*
X189724998Y-40629800D03*
X190374999Y-40629800D03*
X191024998Y-40629800D03*
X191674999Y-40629800D03*
X192324998Y-40629800D03*
X192974999Y-40629800D03*
X193624998Y-40629800D03*
X194274999Y-40629800D03*
X194924998Y-40629800D03*
%TD*%
D24*
%TO.C,C36*%
X256182500Y-71352500D03*
X253482500Y-71352500D03*
%TD*%
D25*
%TO.C,R70*%
X187271000Y-55252501D03*
X187271000Y-56902501D03*
%TD*%
D26*
%TO.C,D7*%
X164860000Y-72940000D03*
X164860000Y-71540000D03*
%TD*%
D27*
%TO.C,R55*%
X248600000Y-73140000D03*
X249620000Y-73140000D03*
%TD*%
D28*
%TO.C,U15*%
X220535000Y-106629800D03*
X221185001Y-106629800D03*
X221834999Y-106629800D03*
X222485001Y-106629800D03*
X223134999Y-106629800D03*
X223784998Y-106629800D03*
X224434999Y-106629800D03*
X225084998Y-106629800D03*
X225734999Y-106629800D03*
X226384998Y-106629800D03*
X226385000Y-112370200D03*
X225735002Y-112370200D03*
X225085001Y-112370200D03*
X224435002Y-112370200D03*
X223785001Y-112370200D03*
X223135002Y-112370200D03*
X222485001Y-112370200D03*
X221835002Y-112370200D03*
X221185001Y-112370200D03*
X220535002Y-112370200D03*
%TD*%
D29*
%TO.C,C133*%
X197865000Y-40630000D03*
X196315000Y-40630000D03*
%TD*%
D30*
%TO.C,R51*%
X174380000Y-53715000D03*
X174380000Y-52065000D03*
%TD*%
D31*
%TO.C,U6*%
X173774750Y-98215001D03*
X173774750Y-97265000D03*
X173774750Y-96314999D03*
X176505250Y-96314999D03*
X176505250Y-97265000D03*
X176505250Y-98215001D03*
%TD*%
D32*
%TO.C,C66*%
X165310000Y-97120000D03*
X165310000Y-98670000D03*
%TD*%
%TO.C,C63*%
X176570000Y-100110000D03*
X176570000Y-101660000D03*
%TD*%
D33*
%TO.C,R44*%
X269640000Y-96710000D03*
X271290000Y-96710000D03*
%TD*%
D29*
%TO.C,C41*%
X256415000Y-73232500D03*
X254865000Y-73232500D03*
%TD*%
%TO.C,C96*%
X225850000Y-42100000D03*
X224300000Y-42100000D03*
%TD*%
D30*
%TO.C,R40*%
X173590000Y-94510000D03*
X173590000Y-92860000D03*
%TD*%
D34*
%TO.C,Q4*%
X179650000Y-50430002D03*
X179650000Y-48530000D03*
X181661000Y-49480001D03*
%TD*%
D35*
%TO.C,D1*%
X254150000Y-90215000D03*
X257450000Y-90215000D03*
%TD*%
D24*
%TO.C,C1*%
X263830000Y-66260000D03*
X261130000Y-66260000D03*
%TD*%
D36*
%TO.C,C26*%
X259430000Y-79182500D03*
X259430000Y-77632500D03*
%TD*%
D37*
%TO.C,C62*%
X174720000Y-100352500D03*
X174720000Y-103052500D03*
%TD*%
D29*
%TO.C,C16*%
X254025000Y-49650000D03*
X252475000Y-49650000D03*
%TD*%
%TO.C,C6*%
X269905000Y-66740000D03*
X268355000Y-66740000D03*
%TD*%
D33*
%TO.C,R29*%
X250905231Y-57463291D03*
X252555231Y-57463291D03*
%TD*%
D36*
%TO.C,C60*%
X180480000Y-124755000D03*
X180480000Y-123205000D03*
%TD*%
D17*
%TO.C,C92*%
X251328631Y-67380000D03*
X252878631Y-67380000D03*
%TD*%
%TO.C,C110*%
X217605000Y-112390000D03*
X219155000Y-112390000D03*
%TD*%
%TO.C,C134*%
X189145000Y-110860000D03*
X190695000Y-110860000D03*
%TD*%
%TO.C,C132*%
X189145000Y-112390000D03*
X190695000Y-112390000D03*
%TD*%
%TO.C,C50*%
X260890000Y-73232500D03*
X262440000Y-73232500D03*
%TD*%
D38*
%TO.C,P4*%
X171575101Y-34380000D03*
D19*
X171575101Y-31840000D03*
X174115101Y-34380000D03*
X174115101Y-31840000D03*
X176655101Y-34380000D03*
X176655101Y-31840000D03*
X179195101Y-34380000D03*
X179195101Y-31840000D03*
X181735101Y-34380000D03*
X181735101Y-31840000D03*
X184275101Y-34380000D03*
X184275101Y-31840000D03*
X186815101Y-34380000D03*
X186815101Y-31840000D03*
X189355101Y-34380000D03*
X189355101Y-31840000D03*
%TD*%
D17*
%TO.C,C11*%
X268015000Y-70885000D03*
X269565000Y-70885000D03*
%TD*%
D39*
%TO.C,C93*%
X251570000Y-69160000D03*
X254270000Y-69160000D03*
%TD*%
D29*
%TO.C,C30*%
X255540231Y-57463291D03*
X253990231Y-57463291D03*
%TD*%
D17*
%TO.C,C10*%
X268020000Y-69375000D03*
X269570000Y-69375000D03*
%TD*%
D30*
%TO.C,R76*%
X182460000Y-53700000D03*
X182460000Y-52050000D03*
%TD*%
%TO.C,R71*%
X187270000Y-53695000D03*
X187270000Y-52045000D03*
%TD*%
D29*
%TO.C,C31*%
X255540231Y-58963291D03*
X253990231Y-58963291D03*
%TD*%
D25*
%TO.C,R75*%
X182461000Y-55255001D03*
X182461000Y-56905001D03*
%TD*%
D27*
%TO.C,R6*%
X261960000Y-67780000D03*
X262980000Y-67780000D03*
%TD*%
D29*
%TO.C,C135*%
X197865000Y-42150000D03*
X196315000Y-42150000D03*
%TD*%
D32*
%TO.C,C78*%
X220250000Y-84685000D03*
X220250000Y-86235000D03*
%TD*%
D24*
%TO.C,C51*%
X249250000Y-62310000D03*
X246550000Y-62310000D03*
%TD*%
D17*
%TO.C,C111*%
X234695000Y-112360000D03*
X236245000Y-112360000D03*
%TD*%
%TO.C,C91*%
X251328631Y-65860000D03*
X252878631Y-65860000D03*
%TD*%
D29*
%TO.C,C57*%
X247325000Y-73000000D03*
X245775000Y-73000000D03*
%TD*%
D18*
%TO.C,P7*%
X213247601Y-118700000D03*
D19*
X213247601Y-121240000D03*
X210707601Y-118700000D03*
X210707601Y-121240000D03*
X208167601Y-118700000D03*
X208167601Y-121240000D03*
X205627601Y-118700000D03*
X205627601Y-121240000D03*
X203087601Y-118700000D03*
X203087601Y-121240000D03*
X200547601Y-118700000D03*
X200547601Y-121240000D03*
X198007601Y-118700000D03*
X198007601Y-121240000D03*
X195467601Y-118700000D03*
X195467601Y-121240000D03*
%TD*%
D17*
%TO.C,C115*%
X206755000Y-110880000D03*
X208305000Y-110880000D03*
%TD*%
%TO.C,C112*%
X217605000Y-110930000D03*
X219155000Y-110930000D03*
%TD*%
D38*
%TO.C,P1*%
X243075101Y-34380000D03*
D19*
X243075101Y-31840000D03*
X245615101Y-34380000D03*
X245615101Y-31840000D03*
X248155101Y-34380000D03*
X248155101Y-31840000D03*
X250695101Y-34380000D03*
X250695101Y-31840000D03*
X253235101Y-34380000D03*
X253235101Y-31840000D03*
X255775101Y-34380000D03*
X255775101Y-31840000D03*
X258315101Y-34380000D03*
X258315101Y-31840000D03*
X260855101Y-34380000D03*
X260855101Y-31840000D03*
%TD*%
D34*
%TO.C,Q3*%
X184424700Y-50426302D03*
X184424700Y-48526300D03*
X186435700Y-49476301D03*
%TD*%
D32*
%TO.C,C61*%
X175080000Y-92910000D03*
X175080000Y-94460000D03*
%TD*%
D29*
%TO.C,C118*%
X215055000Y-40730000D03*
X213505000Y-40730000D03*
%TD*%
D38*
%TO.C,P2*%
X219290101Y-34380000D03*
D19*
X219290101Y-31840000D03*
X221830101Y-34380000D03*
X221830101Y-31840000D03*
X224370101Y-34380000D03*
X224370101Y-31840000D03*
X226910101Y-34380000D03*
X226910101Y-31840000D03*
X229450101Y-34380000D03*
X229450101Y-31840000D03*
X231990101Y-34380000D03*
X231990101Y-31840000D03*
X234530101Y-34380000D03*
X234530101Y-31840000D03*
X237070101Y-34380000D03*
X237070101Y-31840000D03*
%TD*%
D24*
%TO.C,C4*%
X269667500Y-64950000D03*
X266967500Y-64950000D03*
%TD*%
D40*
%TO.C,U11*%
X249793631Y-71390000D03*
X249143631Y-71390000D03*
X248493631Y-71390000D03*
X247843631Y-71390000D03*
X247843631Y-66990000D03*
X248493631Y-66990000D03*
X249143631Y-66990000D03*
X249793631Y-66990000D03*
%TD*%
D18*
%TO.C,P6*%
X237070101Y-118700000D03*
D19*
X237070101Y-121240000D03*
X234530101Y-118700000D03*
X234530101Y-121240000D03*
X231990101Y-118700000D03*
X231990101Y-121240000D03*
X229450101Y-118700000D03*
X229450101Y-121240000D03*
X226910101Y-118700000D03*
X226910101Y-121240000D03*
X224370101Y-118700000D03*
X224370101Y-121240000D03*
X221830101Y-118700000D03*
X221830101Y-121240000D03*
X219290101Y-118700000D03*
X219290101Y-121240000D03*
%TD*%
D36*
%TO.C,C18*%
X266200000Y-77625000D03*
X266200000Y-76075000D03*
%TD*%
D27*
%TO.C,R58*%
X247490000Y-65240000D03*
X248510000Y-65240000D03*
%TD*%
D23*
%TO.C,U13*%
X240825000Y-46470200D03*
X240174999Y-46470200D03*
X239525001Y-46470200D03*
X238874999Y-46470200D03*
X238225001Y-46470200D03*
X237575002Y-46470200D03*
X236925001Y-46470200D03*
X236275002Y-46470200D03*
X235625001Y-46470200D03*
X234975002Y-46470200D03*
X234975000Y-40729800D03*
X235624998Y-40729800D03*
X236274999Y-40729800D03*
X236924998Y-40729800D03*
X237574999Y-40729800D03*
X238224998Y-40729800D03*
X238874999Y-40729800D03*
X239524998Y-40729800D03*
X240174999Y-40729800D03*
X240824998Y-40729800D03*
%TD*%
D29*
%TO.C,C124*%
X175520000Y-69780000D03*
X173970000Y-69780000D03*
%TD*%
D17*
%TO.C,C117*%
X206755000Y-112390000D03*
X208305000Y-112390000D03*
%TD*%
D18*
%TO.C,P8*%
X189355101Y-118700000D03*
D19*
X189355101Y-121240000D03*
X186815101Y-118700000D03*
X186815101Y-121240000D03*
X184275101Y-118700000D03*
X184275101Y-121240000D03*
X181735101Y-118700000D03*
X181735101Y-121240000D03*
X179195101Y-118700000D03*
X179195101Y-121240000D03*
X176655101Y-118700000D03*
X176655101Y-121240000D03*
X174115101Y-118700000D03*
X174115101Y-121240000D03*
X171575101Y-118700000D03*
X171575101Y-121240000D03*
%TD*%
D29*
%TO.C,C104*%
X175515000Y-68240000D03*
X173965000Y-68240000D03*
%TD*%
D41*
%TO.C,D4*%
X256570000Y-98000000D03*
X253270000Y-98000000D03*
%TD*%
D30*
%TO.C,R69*%
X185671000Y-53702501D03*
X185671000Y-52052501D03*
%TD*%
D28*
%TO.C,U19*%
X209675000Y-106629800D03*
X210325001Y-106629800D03*
X210974999Y-106629800D03*
X211625001Y-106629800D03*
X212274999Y-106629800D03*
X212924998Y-106629800D03*
X213574999Y-106629800D03*
X214224998Y-106629800D03*
X214874999Y-106629800D03*
X215524998Y-106629800D03*
X215525000Y-112370200D03*
X214875002Y-112370200D03*
X214225001Y-112370200D03*
X213575002Y-112370200D03*
X212925001Y-112370200D03*
X212275002Y-112370200D03*
X211625001Y-112370200D03*
X210975002Y-112370200D03*
X210325001Y-112370200D03*
X209675002Y-112370200D03*
%TD*%
D29*
%TO.C,C116*%
X215050000Y-42250000D03*
X213500000Y-42250000D03*
%TD*%
D25*
%TO.C,R39*%
X176560000Y-92860000D03*
X176560000Y-94510000D03*
%TD*%
%TO.C,R27*%
X259430000Y-74582500D03*
X259430000Y-76232500D03*
%TD*%
D35*
%TO.C,D2*%
X216980000Y-89290000D03*
X220280000Y-89290000D03*
%TD*%
D28*
%TO.C,U21*%
X192075000Y-106629800D03*
X192725001Y-106629800D03*
X193374999Y-106629800D03*
X194025001Y-106629800D03*
X194674999Y-106629800D03*
X195324998Y-106629800D03*
X195974999Y-106629800D03*
X196624998Y-106629800D03*
X197274999Y-106629800D03*
X197924998Y-106629800D03*
X197925000Y-112370200D03*
X197275002Y-112370200D03*
X196625001Y-112370200D03*
X195975002Y-112370200D03*
X195325001Y-112370200D03*
X194675002Y-112370200D03*
X194025001Y-112370200D03*
X193375002Y-112370200D03*
X192725001Y-112370200D03*
X192075002Y-112370200D03*
%TD*%
D30*
%TO.C,R73*%
X179261000Y-53705001D03*
X179261000Y-52055001D03*
%TD*%
D42*
%TO.C,P9*%
X162780000Y-72040000D03*
X162780000Y-71390000D03*
X162780000Y-70740000D03*
X162780000Y-70090000D03*
X162780000Y-69440000D03*
D43*
X162780000Y-68240000D03*
X162780000Y-73240000D03*
D44*
X160080000Y-67240000D03*
D45*
X160080000Y-69740000D03*
D44*
X160080000Y-74240000D03*
D45*
X160080000Y-71740000D03*
D46*
X160080000Y-67840000D03*
X160080000Y-73640000D03*
%TD*%
D47*
%TO.C,R45*%
X271290000Y-98220000D03*
X269640000Y-98220000D03*
%TD*%
D48*
%TO.C,D6*%
X164860000Y-69200000D03*
X164860000Y-70600000D03*
%TD*%
D39*
%TO.C,C52*%
X261125000Y-71362500D03*
X263825000Y-71362500D03*
%TD*%
D30*
%TO.C,R68*%
X184071000Y-53702501D03*
X184071000Y-52052501D03*
%TD*%
D26*
%TO.C,D5*%
X164880000Y-76350000D03*
X164880000Y-74950000D03*
%TD*%
D28*
%TO.C,U12*%
X237635000Y-106629800D03*
X238285001Y-106629800D03*
X238934999Y-106629800D03*
X239585001Y-106629800D03*
X240234999Y-106629800D03*
X240884998Y-106629800D03*
X241534999Y-106629800D03*
X242184998Y-106629800D03*
X242834999Y-106629800D03*
X243484998Y-106629800D03*
X243485000Y-112370200D03*
X242835002Y-112370200D03*
X242185001Y-112370200D03*
X241535002Y-112370200D03*
X240885001Y-112370200D03*
X240235002Y-112370200D03*
X239585001Y-112370200D03*
X238935002Y-112370200D03*
X238285001Y-112370200D03*
X237635002Y-112370200D03*
%TD*%
D32*
%TO.C,C77*%
X259265000Y-86795000D03*
X259265000Y-88345000D03*
%TD*%
D38*
%TO.C,P3*%
X195467601Y-34380000D03*
D19*
X195467601Y-31840000D03*
X198007601Y-34380000D03*
X198007601Y-31840000D03*
X200547601Y-34380000D03*
X200547601Y-31840000D03*
X203087601Y-34380000D03*
X203087601Y-31840000D03*
X205627601Y-34380000D03*
X205627601Y-31840000D03*
X208167601Y-34380000D03*
X208167601Y-31840000D03*
X210707601Y-34380000D03*
X210707601Y-31840000D03*
X213247601Y-34380000D03*
X213247601Y-31840000D03*
%TD*%
D47*
%TO.C,R63*%
X162225000Y-76300000D03*
X160575000Y-76300000D03*
%TD*%
D49*
%TO.C,P11*%
X271260000Y-39360000D03*
X273760000Y-39360000D03*
X266260000Y-44360000D03*
X271260000Y-49360000D03*
X273760000Y-49360000D03*
D50*
X271260000Y-44360000D03*
D51*
X266260000Y-49360000D03*
X266260000Y-39360000D03*
X266260000Y-46860000D03*
X266260000Y-41860000D03*
%TD*%
D25*
%TO.C,R28*%
X257870000Y-74587500D03*
X257870000Y-76237500D03*
%TD*%
D23*
%TO.C,U20*%
X212125000Y-46470200D03*
X211474999Y-46470200D03*
X210825001Y-46470200D03*
X210174999Y-46470200D03*
X209525001Y-46470200D03*
X208875002Y-46470200D03*
X208225001Y-46470200D03*
X207575002Y-46470200D03*
X206925001Y-46470200D03*
X206275002Y-46470200D03*
X206275000Y-40729800D03*
X206924998Y-40729800D03*
X207574999Y-40729800D03*
X208224998Y-40729800D03*
X208874999Y-40729800D03*
X209524998Y-40729800D03*
X210174999Y-40729800D03*
X210824998Y-40729800D03*
X211474999Y-40729800D03*
X212124998Y-40729800D03*
%TD*%
D30*
%TO.C,R50*%
X175890000Y-53717500D03*
X175890000Y-52067500D03*
%TD*%
D29*
%TO.C,C97*%
X243785000Y-42250000D03*
X242235000Y-42250000D03*
%TD*%
D38*
%TO.C,P10*%
X264040000Y-105797500D03*
D19*
X264040000Y-103257500D03*
X266580000Y-105797500D03*
X266580000Y-103257500D03*
X269120000Y-105797500D03*
X269120000Y-103257500D03*
X271660000Y-105797500D03*
X271660000Y-103257500D03*
%TD*%
D23*
%TO.C,U16*%
X222925000Y-46370200D03*
X222274999Y-46370200D03*
X221625001Y-46370200D03*
X220974999Y-46370200D03*
X220325001Y-46370200D03*
X219675002Y-46370200D03*
X219025001Y-46370200D03*
X218375002Y-46370200D03*
X217725001Y-46370200D03*
X217075002Y-46370200D03*
X217075000Y-40629800D03*
X217724998Y-40629800D03*
X218374999Y-40629800D03*
X219024998Y-40629800D03*
X219674999Y-40629800D03*
X220324998Y-40629800D03*
X220974999Y-40629800D03*
X221624998Y-40629800D03*
X222274999Y-40629800D03*
X222924998Y-40629800D03*
%TD*%
D29*
%TO.C,C99*%
X243785000Y-40720000D03*
X242235000Y-40720000D03*
%TD*%
D36*
%TO.C,C27*%
X257870001Y-79187500D03*
X257870001Y-77637500D03*
%TD*%
D52*
%TO.C,P13*%
X270210000Y-114250000D03*
D51*
X263910000Y-117550000D03*
X263910000Y-108950000D03*
X263910000Y-114150000D03*
X271210000Y-108050000D03*
X271210000Y-117950000D03*
%TD*%
D47*
%TO.C,R12*%
X254085001Y-46640250D03*
X252435001Y-46640250D03*
%TD*%
D33*
%TO.C,R30*%
X250910231Y-58963291D03*
X252560231Y-58963291D03*
%TD*%
D29*
%TO.C,C40*%
X249495000Y-60450000D03*
X247945000Y-60450000D03*
%TD*%
D30*
%TO.C,R74*%
X180861000Y-53705001D03*
X180861000Y-52055001D03*
%TD*%
D47*
%TO.C,R43*%
X171770000Y-98080000D03*
X170120000Y-98080000D03*
%TD*%
D24*
%TO.C,C17*%
X253790000Y-51430000D03*
X251090000Y-51430000D03*
%TD*%
D18*
%TO.C,P14*%
X168560000Y-57044000D03*
D53*
X168560000Y-59544000D03*
X168560000Y-62044000D03*
%TD*%
D29*
%TO.C,C49*%
X249490000Y-55980000D03*
X247940000Y-55980000D03*
%TD*%
D24*
%TO.C,C35*%
X249240000Y-54120000D03*
X246540000Y-54120000D03*
%TD*%
D29*
%TO.C,C98*%
X225855000Y-40580000D03*
X224305000Y-40580000D03*
%TD*%
D17*
%TO.C,C13*%
X252485001Y-48140250D03*
X254035001Y-48140250D03*
%TD*%
M02*
