M48
; DRILL file {KiCad (6.0.10)} date Mon Dec 11 17:00:36 2023
; FORMAT={-:-/ absolute / inch / decimal}
; #@! TF.CreationDate,2023-12-11T17:00:36-05:00
; #@! TF.GenerationSoftware,Kicad,Pcbnew,(6.0.10)
; #@! TF.FileFunction,MixedPlating,1,4
FMAT,2
INCH
; #@! TA.AperFunction,Plated,PTH,ComponentDrill
T1C0.0079
; #@! TA.AperFunction,Plated,PTH,ViaDrill
T2C0.0118
; #@! TA.AperFunction,Plated,PTH,ViaDrill
T3C0.0157
; #@! TA.AperFunction,Plated,PTH,ComponentDrill
T4C0.0236
; #@! TA.AperFunction,Plated,PTH,ComponentDrill
T5C0.0315
; #@! TA.AperFunction,Plated,PTH,ComponentDrill
T6C0.0335
; #@! TA.AperFunction,Plated,PTH,ComponentDrill
T7C0.0394
; #@! TA.AperFunction,Plated,PTH,ComponentDrill
T8C0.0472
; #@! TA.AperFunction,Plated,PTH,ComponentDrill
T9C0.1063
; #@! TA.AperFunction,Plated,PTH,ComponentDrill
T10C0.1260
; #@! TA.AperFunction,NonPlated,NPTH,ComponentDrill
T11C0.0370
; #@! TA.AperFunction,NonPlated,NPTH,ComponentDrill
T12C0.0472
; #@! TA.AperFunction,NonPlated,NPTH,ComponentDrill
T13C0.0512
; #@! TA.AperFunction,NonPlated,NPTH,ComponentDrill
T14C0.0630
%
G90
G05
T1
X6.4801Y-3.6501
X6.4801Y-3.7223
X6.5162Y-3.614
X6.5162Y-3.6862
X6.5162Y-3.7585
X6.5524Y-3.6501
X6.5524Y-3.7223
X6.5885Y-3.614
X6.5885Y-3.6862
X6.5885Y-3.7585
X6.6246Y-3.6501
X6.6246Y-3.7223
X6.6675Y-2.8902
X6.6675Y-2.9624
X6.7036Y-2.9263
X6.7398Y-2.8902
X6.7398Y-2.9624
X8.5307Y-3.3654
X8.5445Y-3.3358
X8.5445Y-3.3949
X8.5583Y-3.3654
X9.623Y-2.9774
X9.623Y-3.0039
X9.6496Y-2.9774
X9.6496Y-3.0039
X9.8512Y-4.3073
X9.8512Y-4.3547
X9.8512Y-4.3941
X9.8516Y-4.2132
X9.8516Y-4.2606
X9.8657Y-4.5248
X9.889Y-4.3073
X9.889Y-4.3547
X9.889Y-4.3941
X9.8894Y-4.2132
X9.8894Y-4.2606
X9.9154Y-2.2923
X9.9253Y-4.3074
X9.9253Y-4.3548
X9.9253Y-4.3942
X9.9257Y-4.2133
X9.9257Y-4.2607
X9.9346Y-4.4898
X9.9571Y-4.5181
X9.9614Y-4.3069
X9.9614Y-4.3543
X9.9614Y-4.3937
X9.9618Y-4.2128
X9.9618Y-4.2602
X9.9705Y-2.2352
X9.9705Y-2.3465
X9.9709Y-2.2913
X9.9984Y-4.3069
X9.9984Y-4.3543
X9.9984Y-4.3937
X9.9988Y-4.2128
X9.9988Y-4.2602
X10.0114Y-4.465
X10.0266Y-2.2923
X10.0378Y-4.4949
X10.0398Y-4.2132
X10.0398Y-4.2606
X10.0402Y-4.3073
X10.0402Y-4.3547
X10.0402Y-4.3941
X10.063Y-4.5248
X10.0734Y-3.4484
X10.0776Y-4.2132
X10.0776Y-4.2606
X10.078Y-4.3073
X10.078Y-4.3547
X10.078Y-4.3941
X10.0872Y-3.4189
X10.0872Y-3.478
X10.101Y-3.4484
X10.1139Y-4.2133
X10.1139Y-4.2607
X10.1139Y-4.3944
X10.1139Y-4.4418
X10.1143Y-4.3074
X10.1143Y-4.3548
X10.127Y-3.0266
X10.15Y-4.2128
X10.15Y-4.2602
X10.15Y-4.3939
X10.15Y-4.4413
X10.1504Y-4.3069
X10.1504Y-4.3543
X10.1504Y-4.488
X10.1821Y-2.9695
X10.1821Y-3.0807
X10.1825Y-3.0256
X10.187Y-4.2128
X10.187Y-4.2602
X10.187Y-4.3939
X10.187Y-4.4413
X10.1874Y-4.3069
X10.1874Y-4.3543
X10.1874Y-4.488
X10.1874Y-4.5354
X10.2248Y-4.2122
X10.2248Y-4.2596
X10.2248Y-4.3933
X10.2248Y-4.4407
X10.2252Y-4.3063
X10.2252Y-4.3537
X10.2252Y-4.4874
X10.2252Y-4.5348
X10.2382Y-3.0266
X10.4807Y-2.6238
X10.4807Y-2.6713
X10.5177Y-2.6238
X10.5177Y-2.6713
T2
X6.3016Y-3.1098
X6.3614Y-2.7339
X6.3618Y-2.7614
X6.3764Y-3.4362
X6.3799Y-3.4031
X6.4067Y-3.2114
X6.4071Y-3.2445
X6.4484Y-3.1098
X6.4547Y-3.2102
X6.4563Y-3.2425
X6.4917Y-3.4193
X6.5228Y-3.3992
X6.584Y-3.0437
X6.584Y-3.0807
X6.6166Y-3.0939
X6.6465Y-3.0791
X6.6954Y-3.0664
X6.7268Y-3.0638
X6.7543Y-3.0888
X6.7626Y-3.0606
X6.8286Y-2.9085
X6.8415Y-2.9537
X6.8531Y-2.8627
X6.8565Y-2.9105
X6.878Y-2.8799
X6.8886Y-1.9898
X6.9102Y-3.0685
X6.9489Y-2.8374
X6.9677Y-2.9897
X6.9892Y-2.911
X6.9925Y-1.9965
X6.9992Y-1.9004
X7.0028Y-2.9886
X7.0138Y-2.837
X7.0524Y-2.7724
X7.0862Y-2.7575
X7.1169Y-2.7673
X7.1346Y-2.7961
X7.1965Y-1.874
X7.2268Y-2.1626
X7.3835Y-1.8933
X7.385Y-2.0106
X7.4205Y-2.1618
X8.3841Y-1.9465
X8.385Y-2.0606
X8.447Y-1.9465
X8.448Y-2.0606
X8.4535Y-2.8189
X8.4535Y-2.8819
X8.4535Y-2.9449
X8.4831Y-3.435
X8.4839Y-3.4744
X8.4969Y-3.2898
X8.4972Y-4.0035
X8.4972Y-4.0665
X8.4972Y-4.1295
X8.4976Y-3.6358
X8.4976Y-3.6988
X8.4976Y-3.7618
X8.4976Y-3.815
X8.4976Y-3.878
X8.4976Y-3.9409
X8.51Y-1.9465
X8.511Y-2.0606
X8.5157Y-3.4516
X8.5161Y-3.248
X8.5165Y-2.8189
X8.5165Y-2.8819
X8.5165Y-2.9449
X8.5504Y-3.248
X8.5547Y-3.4512
X8.5795Y-2.8189
X8.5795Y-2.8819
X8.5795Y-2.9449
X8.585Y-3.2472
X8.5929Y-3.4512
X8.6287Y-3.3094
X8.6307Y-3.4516
X8.635Y-3.3419
X8.7299Y-3.4835
X8.7902Y-3.4831
X8.8484Y-3.4835
X9.4909Y-1.385
X9.5008Y-4.2976
X9.5256Y-4.3815
X9.5906Y-3.2608
X9.6606Y-2.6827
X9.6614Y-1.7854
X9.6614Y-1.8455
X9.6614Y-1.9055
X9.6614Y-1.9596
X9.6614Y-2.7232
X9.6713Y-1.7293
X9.6742Y-2.5955
X9.6752Y-2.6368
X9.7057Y-1.6949
X9.7291Y-2.2906
X9.7324Y-2.9531
X9.7357Y-3.0126
X9.7362Y-3.0797
X9.7372Y-1.6634
X9.7386Y-1.7007
X9.7402Y-3.5563
X9.7677Y-1.6329
X9.77Y-1.7058
X9.7827Y-3.0394
X9.7835Y-1.9295
X9.7839Y-3.589
X9.7844Y-2.9589
X9.7854Y-3.0699
X9.7866Y-2.2878
X9.7882Y-2.3449
X9.7933Y-1.9813
X9.81Y-1.9094
X9.8258Y-1.9744
X9.84Y-3.589
X9.8488Y-2.2933
X9.8607Y-2.89
X9.8661Y-2.9433
X9.8704Y-2.9745
X9.8717Y-3.0644
X9.872Y-3.1033
X9.8827Y-1.8563
X9.8927Y-3.1486
X9.9Y-3.589
X9.9094Y-2.5472
X9.9173Y-2.8041
X9.9258Y-2.169
X9.9413Y-2.5427
X9.9565Y-2.1762
X9.9879Y-2.1742
X10.0008Y-2.5435
X10.0197Y-2.1732
X10.0325Y-2.5472
X10.035Y-3.3862
X10.0388Y-1.9008
X10.0412Y-1.9744
X10.0437Y-3.5091
X10.0522Y-3.5528
X10.0525Y-1.945
X10.0608Y-1.8467
X10.0754Y-1.9148
X10.0911Y-3.5524
X10.0929Y-3.3045
X10.0965Y-1.8425
X10.1102Y-2.2626
X10.1114Y-2.3197
X10.1152Y-1.9774
X10.1209Y-2.6201
X10.1209Y-2.6594
X10.1209Y-2.6988
X10.1319Y-3.3041
X10.1368Y-2.9051
X10.1382Y-2.2705
X10.1386Y-2.3094
X10.1457Y-1.9724
X10.1535Y-3.158
X10.1602Y-2.6201
X10.1602Y-2.6594
X10.1602Y-2.6988
X10.1667Y-3.1859
X10.1689Y-3.4024
X10.1703Y-1.7126
X10.1703Y-1.7746
X10.1706Y-3.4385
X10.1738Y-3.2455
X10.1738Y-3.3035
X10.1748Y-1.7433
X10.1817Y-2.9017
X10.185Y-2.1913
X10.185Y-2.2307
X10.185Y-2.2701
X10.1959Y-1.7195
X10.1996Y-2.6201
X10.1996Y-2.6594
X10.1996Y-2.6988
X10.2067Y-3.185
X10.2128Y-3.2451
X10.2128Y-3.3031
X10.2156Y-3.154
X10.2244Y-1.6093
X10.2244Y-2.1913
X10.2244Y-2.2307
X10.2244Y-2.2701
X10.2248Y-1.9839
X10.2248Y-2.0232
X10.2339Y-2.9046
X10.251Y-3.2451
X10.251Y-3.3031
X10.2638Y-2.1913
X10.2638Y-2.2307
X10.2638Y-2.2701
X10.2638Y-4.0488
X10.2642Y-1.9839
X10.2642Y-2.0232
X10.2661Y-1.5673
X10.2707Y-3.1328
X10.2843Y-2.5211
X10.2939Y-3.2455
X10.2939Y-3.3035
X10.3063Y-1.5272
X10.3071Y-3.0295
X10.3329Y-3.2451
X10.3329Y-3.3031
X10.3435Y-3.1535
X10.3449Y-1.4921
X10.3689Y-2.4344
X10.3701Y-3.1791
X10.3708Y-2.9672
X10.3711Y-3.2451
X10.3711Y-3.3031
X10.3758Y-3.1101
X10.377Y-3.1447
X10.378Y-3.0659
X10.3799Y-2.9973
X10.382Y-2.907
X10.3835Y-2.9384
X10.4035Y-1.4921
X10.4104Y-3.1565
X10.4242Y-2.8927
X10.4503Y-3.1433
X10.453Y-2.9075
X10.4537Y-2.876
X10.4557Y-3.1742
X10.4594Y-1.4921
X10.4793Y-2.8898
X10.4862Y-3.1545
X10.4863Y-2.7949
X10.4875Y-2.7634
X10.5004Y-3.7764
X10.501Y-3.5866
X10.5201Y-1.4921
X10.5571Y-3.5866
X10.5787Y-1.4921
X10.6171Y-3.5866
X10.6378Y-1.4921
X10.6477Y-2.7697
X10.6516Y-3.3228
X10.6535Y-2.8179
X10.6657Y-2.8996
X10.6673Y-3.5866
X10.6739Y-2.7523
X10.6752Y-2.7205
X10.6828Y-2.9669
X10.685Y-3.0896
X10.686Y-3.1201
X10.689Y-1.4921
X10.71Y-2.48
X10.7136Y-3.3317
X10.7136Y-3.5413
X10.7146Y-3.4045
X10.7146Y-3.4724
X10.7156Y-3.253
X10.7244Y-2.5138
X10.7244Y-2.5797
X10.7244Y-2.6319
X10.7244Y-2.6811
X10.7244Y-2.7323
X10.7724Y-2.0748
X10.7728Y-1.6122
X10.7728Y-1.6604
X10.7728Y-1.7264
X10.7728Y-1.7785
X10.7728Y-1.8278
X10.7728Y-1.8789
X10.7728Y-2.022
X10.7728Y-2.2376
X10.7732Y-2.1331
X10.7732Y-2.185
T3
X6.2531Y-4.1169
X6.2567Y-3.4118
X6.2567Y-3.4591
X6.2567Y-3.5063
X6.2567Y-3.5535
X6.2567Y-3.6008
X6.2567Y-3.648
X6.2567Y-3.6953
X6.2567Y-3.7425
X6.2567Y-3.7898
X6.2567Y-3.837
X6.2567Y-3.8843
X6.2567Y-4.0579
X6.2569Y-3.373
X6.2569Y-3.9222
X6.2571Y-3.2453
X6.3043Y-3.1504
X6.3071Y-4.2323
X6.3661Y-4.2339
X6.3878Y-3.0512
X6.4265Y-4.2356
X6.4409Y-3.3823
X6.4508Y-3.15
X6.461Y-3.9185
X6.463Y-3.822
X6.4867Y-4.2323
X6.49Y-3.3837
X6.4906Y-2.9126
X6.4913Y-3.0476
X6.5079Y-3.9201
X6.5138Y-4.5994
X6.5236Y-4.6417
X6.5327Y-4.5547
X6.5482Y-4.5138
X6.5531Y-2.7244
X6.5571Y-4.6043
X6.5606Y-4.2835
X6.565Y-4.4754
X6.576Y-4.5693
X6.5827Y-4.6427
X6.5929Y-4.5343
X6.5941Y-2.8409
X6.6038Y-4.4916
X6.6057Y-2.6758
X6.6157Y-4.7004
X6.6162Y-3.0585
X6.6248Y-4.061
X6.628Y-4.6579
X6.6332Y-4.2317
X6.6407Y-4.4779
X6.6713Y-4.0461
X6.6815Y-4.4681
X6.6909Y-4.2236
X6.7425Y-2.1858
X6.7591Y-3.1689
X6.7705Y-3.5465
X6.7768Y-3.6535
X6.7866Y-3.2
X6.7906Y-2.674
X6.7996Y-3.8293
X6.8031Y-2.0705
X6.8098Y-3.5441
X6.8165Y-3.2335
X6.8272Y-2.837
X6.8343Y-2.0193
X6.8366Y-3.9185
X6.8426Y-2.2858
X6.8449Y-3.5862
X6.8776Y-3.5524
X6.8803Y-3.615
X6.9031Y-2.1705
X6.9412Y-2.6509
X6.9426Y-2.3858
X6.9512Y-4.0469
X6.9516Y-3.2429
X6.9621Y-2.6936
X6.9621Y-2.7534
X6.9634Y-1.902
X6.9647Y-2.0196
X7.0032Y-2.2705
X7.0254Y-2.0254
X7.0297Y-3.8723
X7.0302Y-2.4717
X7.0508Y-1.8638
X7.0555Y-4.912
X7.0909Y-2.9079
X7.0909Y-2.9437
X7.0921Y-2.7941
X7.0925Y-3.0307
X7.0988Y-3.4213
X7.1244Y-2.3437
X7.1303Y-2.5717
X7.1663Y-2.0098
X7.1713Y-1.8988
X7.1796Y-2.2866
X7.2055Y-2.0057
X7.2244Y-2.4437
X7.2303Y-2.6717
X7.2419Y-1.8663
X7.2496Y-2.9091
X7.2496Y-2.9614
X7.2677Y-2.5949
X7.3406Y-2.6843
X7.3488Y-2.0138
X7.3509Y-1.9072
X7.3729Y-2.2865
X7.3874Y-2.7442
X7.3874Y-2.8442
X7.3878Y-2.9378
X7.3878Y-3.0378
X7.3878Y-3.1378
X7.3878Y-3.2378
X7.3941Y-4.3642
X7.3945Y-4.4256
X7.411Y-1.822
X7.413Y-2.5524
X7.5075Y-4.322
X7.513Y-2.5524
X7.5291Y-4.2051
X7.5453Y-3.9252
X7.5776Y-4.6709
X7.5776Y-4.7213
X7.5776Y-4.7724
X7.5815Y-1.2528
X7.5815Y-1.3031
X7.5827Y-1.3535
X7.5874Y-4.3571
X7.613Y-2.5524
X7.6488Y-1.6646
X7.7094Y-1.8173
X7.713Y-2.5524
X7.7295Y-1.7051
X7.789Y-1.7118
X7.7894Y-1.5492
X7.8256Y-4.2055
X7.8606Y-3.1752
X7.8606Y-3.272
X7.8606Y-3.3803
X7.861Y-2.7128
X7.861Y-2.8118
X7.861Y-2.9118
X7.861Y-3.0118
X7.861Y-3.1118
X7.8614Y-3.7772
X7.863Y-2.1079
X7.863Y-2.2047
X7.8634Y-2.3142
X7.8634Y-2.4091
X7.8634Y-2.5154
X7.8638Y-2.011
X7.865Y-1.9189
X7.8654Y-3.4764
X7.8681Y-3.9189
X7.972Y-3.8087
X7.972Y-3.9181
X7.9724Y-1.8035
X7.9744Y-1.9181
X8.0886Y-1.8016
X8.0886Y-4.4248
X8.0894Y-2.1465
X8.0894Y-2.25
X8.0898Y-2.3445
X8.0898Y-2.4524
X8.0898Y-2.5811
X8.0902Y-3.9169
X8.0902Y-4.0236
X8.1129Y-3.5071
X8.139Y-4.3134
X8.1528Y-2.0823
X8.1567Y-3.6413
X8.1912Y-1.7829
X8.2Y-4.3236
X8.2075Y-3.9012
X8.2185Y-2.0142
X8.222Y-4.2055
X8.2272Y-3.8146
X8.2313Y-4.1319
X8.2315Y-3.7252
X8.2803Y-4.3591
X8.2865Y-3.2213
X8.2929Y-3.985
X8.3224Y-3.9098
X8.3256Y-1.6673
X8.3474Y-3.6339
X8.3474Y-3.7362
X8.35Y-3.8429
X8.3543Y-3.2858
X8.3689Y-3.2374
X8.3846Y-1.8307
X8.4059Y-1.7087
X8.4138Y-3.2886
X8.4654Y-1.715
X8.4661Y-1.5492
X8.4665Y-4.8996
X8.4677Y-3.5154
X8.5126Y-1.8268
X8.5128Y-4.8986
X8.513Y-4.6685
X8.513Y-4.7189
X8.513Y-4.7701
X8.5181Y-4.2035
X8.5201Y-1.2504
X8.5201Y-1.3008
X8.5201Y-1.352
X8.5429Y-4.4858
X8.561Y-4.8986
X8.5661Y-4.3154
X8.6193Y-3.2622
X8.6272Y-4.3228
X8.6496Y-4.2047
X8.6713Y-3.4512
X8.6831Y-2.1709
X8.7083Y-4.3575
X8.7102Y-2.0996
X8.7299Y-3.4461
X8.7331Y-2.0244
X8.7508Y-1.6638
X8.7689Y-1.9402
X8.7898Y-3.2799
X8.7902Y-3.4465
X8.8094Y-1.8315
X8.8201Y-2.3043
X8.8205Y-4.0169
X8.828Y-2.2197
X8.8358Y-2.1276
X8.8488Y-3.2799
X8.8492Y-3.4465
X8.877Y-4.2443
X8.8917Y-1.7024
X8.9035Y-2.3894
X8.9071Y-3.9339
X8.9157Y-4.2618
X8.9429Y-1.598
X8.9543Y-2.6417
X8.9571Y-2.4461
X8.9575Y-2.5445
X8.9579Y-2.7425
X9.072Y-2.1055
X9.0732Y-2.2177
X9.0736Y-4.1059
X9.0736Y-4.2205
X9.1862Y-2.135
X9.1862Y-2.2398
X9.1862Y-2.3461
X9.1862Y-2.4457
X9.1866Y-2.5441
X9.187Y-2.7421
X9.1886Y-4.424
X9.1906Y-4.3661
X9.1933Y-2.6472
X9.2181Y-1.8248
X9.3008Y-4.3094
X9.3228Y-4.2059
X9.4213Y-4.3732
X9.4358Y-4.6472
X9.4358Y-4.6976
X9.4358Y-4.7488
X9.436Y-4.9006
X9.4551Y-1.2429
X9.4551Y-1.2933
X9.4559Y-1.6689
X9.4687Y-4.3302
X9.4774Y-4.874
X9.4974Y-3.1213
X9.4974Y-3.1803
X9.4976Y-4.3569
X9.5146Y-1.8232
X9.5148Y-4.8455
X9.5378Y-1.7071
X9.5642Y-4.2579
X9.5902Y-3.2222
X9.5972Y-1.7122
X9.6575Y-1.6024
X9.676Y-2.8299
X9.6949Y-2.5051
X9.7004Y-2.9291
X9.7008Y-3.0839
X9.7034Y-2.6134
X9.7079Y-2.5736
X9.7088Y-2.6633
X9.7109Y-2.722
X9.7136Y-2.3799
X9.7176Y-2.0852
X9.7189Y-2.2358
X9.7193Y-2.7976
X9.7224Y-2.8337
X9.7256Y-2.5331
X9.7409Y-2.9185
X9.7445Y-4.1559
X9.7496Y-3.3546
X9.7689Y-2.087
X9.7734Y-3.1807
X9.7738Y-3.1209
X9.778Y-3.2398
X9.7829Y-2.7622
X9.8169Y-2.5421
X9.8244Y-1.8398
X9.8259Y-3.7409
X9.8652Y-1.935
X9.8814Y-2.8142
X9.8815Y-2.3801
X9.8898Y-1.9016
X9.8948Y-2.7759
X9.8953Y-1.9691
X9.8967Y-1.7894
X9.9069Y-3.3646
X9.9134Y-2.1091
X9.9154Y-2.4006
X9.9224Y-3.3201
X9.9262Y-3.185
X9.9272Y-3.2421
X9.9365Y-2.8991
X9.9431Y-3.5398
X9.9663Y-3.3642
X10.001Y-2.5923
X10.001Y-2.6522
X10.0012Y-2.9046
X10.0079Y-3.8606
X10.0082Y-3.7327
X10.0295Y-2.1087
X10.0305Y-2.4026
X10.0386Y-1.7071
X10.0439Y-1.6732
X10.0463Y-1.7776
X10.0573Y-2.2033
X10.0579Y-2.6972
X10.0606Y-2.3801
X10.061Y-2.7594
X10.0638Y-3.8591
X10.0689Y-3.0896
X10.0795Y-3.2315
X10.0951Y-2.9385
X10.0955Y-3.1332
X10.1033Y-3.7384
X10.126Y-2.5512
X10.1594Y-2.4045
X10.1663Y-3.7392
X10.1768Y-3.5522
X10.1839Y-2.5512
X10.2077Y-3.5246
X10.2173Y-3.5778
X10.2441Y-2.5531
X10.2604Y-3.3508
X10.2671Y-3.5295
X10.275Y-3.9136
X10.2774Y-3.576
X10.2793Y-2.9316
X10.2823Y-2.7287
X10.2957Y-4.0461
X10.3268Y-3.5758
X10.327Y-3.365
X10.327Y-3.5287
X10.3343Y-2.5134
X10.3358Y-2.7248
X10.339Y-3.7323
X10.3674Y-2.8747
X10.3732Y-2.4817
X10.3852Y-3.528
X10.3856Y-2.7105
X10.3868Y-3.574
X10.387Y-3.3632
X10.3878Y-2.7498
X10.415Y-3.2047
X10.425Y-2.543
X10.4713Y-3.3591
X10.4887Y-3.4181
X10.5285Y-3.526
X10.5311Y-3.7953
X10.5856Y-3.5242
X10.5978Y-2.4551
X10.6091Y-2.2596
X10.6102Y-2.1071
X10.6114Y-1.5906
X10.6156Y-3.7559
X10.6159Y-3.929
X10.6173Y-2.6713
X10.6327Y-2.5039
X10.6453Y-2.9341
X10.6472Y-3.1171
X10.6489Y-3.259
X10.649Y-3.7181
X10.6516Y-3.3587
X10.6522Y-3.9701
X10.7179Y-3.8622
X10.7283Y-1.8772
X10.7585Y-3.8216
T6
X6.4087Y-2.6866
X6.4087Y-2.8835
T7
X6.7549Y-1.2535
X6.7549Y-1.3535
X6.7549Y-4.6732
X6.7549Y-4.7732
X6.8549Y-1.2535
X6.8549Y-1.3535
X6.8549Y-4.6732
X6.8549Y-4.7732
X6.9549Y-1.2535
X6.9549Y-1.3535
X6.9549Y-4.6732
X6.9549Y-4.7732
X7.0549Y-1.2535
X7.0549Y-1.3535
X7.0549Y-4.6732
X7.0549Y-4.7732
X7.1549Y-1.2535
X7.1549Y-1.3535
X7.1549Y-4.6732
X7.1549Y-4.7732
X7.2549Y-1.2535
X7.2549Y-1.3535
X7.2549Y-4.6732
X7.2549Y-4.7732
X7.3549Y-1.2535
X7.3549Y-1.3535
X7.3549Y-4.6732
X7.3549Y-4.7732
X7.4549Y-1.2535
X7.4549Y-1.3535
X7.4549Y-4.6732
X7.4549Y-4.7732
X7.6956Y-1.2535
X7.6956Y-1.3535
X7.6956Y-4.6732
X7.6956Y-4.7732
X7.7956Y-1.2535
X7.7956Y-1.3535
X7.7956Y-4.6732
X7.7956Y-4.7732
X7.8956Y-1.2535
X7.8956Y-1.3535
X7.8956Y-4.6732
X7.8956Y-4.7732
X7.9236Y-1.6626
X7.9236Y-1.7626
X7.9236Y-1.8626
X7.9236Y-1.9626
X7.9236Y-2.0626
X7.9236Y-2.1626
X7.9236Y-2.2626
X7.9236Y-2.3626
X7.9236Y-2.4626
X7.9236Y-2.5626
X7.9236Y-2.6626
X7.9236Y-2.7626
X7.9236Y-2.8626
X7.9236Y-2.9626
X7.9236Y-3.0626
X7.9236Y-3.1626
X7.9236Y-3.2626
X7.9236Y-3.3626
X7.9236Y-3.4626
X7.9236Y-3.5626
X7.9236Y-3.6626
X7.9236Y-3.7626
X7.9236Y-3.8626
X7.9236Y-3.9626
X7.9236Y-4.0626
X7.9956Y-1.2535
X7.9956Y-1.3535
X7.9956Y-4.6732
X7.9956Y-4.7732
X8.0236Y-1.6626
X8.0236Y-1.7626
X8.0236Y-1.8626
X8.0236Y-1.9626
X8.0236Y-2.0626
X8.0236Y-2.1626
X8.0236Y-2.2626
X8.0236Y-2.3626
X8.0236Y-2.4626
X8.0236Y-2.5626
X8.0236Y-2.6626
X8.0236Y-2.7626
X8.0236Y-2.8626
X8.0236Y-2.9626
X8.0236Y-3.0626
X8.0236Y-3.1626
X8.0236Y-3.2626
X8.0236Y-3.3626
X8.0236Y-3.4626
X8.0236Y-3.5626
X8.0236Y-3.6626
X8.0236Y-3.7626
X8.0236Y-3.8626
X8.0236Y-3.9626
X8.0236Y-4.0626
X8.0956Y-1.2535
X8.0956Y-1.3535
X8.0956Y-4.6732
X8.0956Y-4.7732
X8.1956Y-1.2535
X8.1956Y-1.3535
X8.1956Y-4.6732
X8.1956Y-4.7732
X8.2956Y-1.2535
X8.2956Y-1.3535
X8.2956Y-4.6732
X8.2956Y-4.7732
X8.3956Y-1.2535
X8.3956Y-1.3535
X8.3956Y-4.6732
X8.3956Y-4.7732
X8.6335Y-1.2535
X8.6335Y-1.3535
X8.6335Y-4.6732
X8.6335Y-4.7732
X8.7335Y-1.2535
X8.7335Y-1.3535
X8.7335Y-4.6732
X8.7335Y-4.7732
X8.8335Y-1.2535
X8.8335Y-1.3535
X8.8335Y-4.6732
X8.8335Y-4.7732
X8.9335Y-1.2535
X8.9335Y-1.3535
X8.9335Y-4.6732
X8.9335Y-4.7732
X9.0236Y-1.9622
X9.0236Y-2.0622
X9.0236Y-2.1622
X9.0236Y-2.2622
X9.0236Y-2.3622
X9.0236Y-2.4622
X9.0236Y-2.5622
X9.0236Y-2.6622
X9.0236Y-2.7622
X9.0236Y-2.8622
X9.0236Y-2.9622
X9.0236Y-3.0622
X9.0236Y-3.1622
X9.0236Y-3.2622
X9.0236Y-3.3622
X9.0236Y-3.4622
X9.0236Y-3.5622
X9.0236Y-3.6622
X9.0236Y-3.7622
X9.0236Y-3.8622
X9.0236Y-3.9622
X9.0236Y-4.0622
X9.0236Y-4.1622
X9.0236Y-4.2622
X9.0236Y-4.3622
X9.0335Y-1.2535
X9.0335Y-1.3535
X9.0335Y-4.6732
X9.0335Y-4.7732
X9.1236Y-1.9622
X9.1236Y-2.0622
X9.1236Y-2.1622
X9.1236Y-2.2622
X9.1236Y-2.3622
X9.1236Y-2.4622
X9.1236Y-2.5622
X9.1236Y-2.6622
X9.1236Y-2.7622
X9.1236Y-2.8622
X9.1236Y-2.9622
X9.1236Y-3.0622
X9.1236Y-3.1622
X9.1236Y-3.2622
X9.1236Y-3.3622
X9.1236Y-3.4622
X9.1236Y-3.5622
X9.1236Y-3.6622
X9.1236Y-3.7622
X9.1236Y-3.8622
X9.1236Y-3.9622
X9.1236Y-4.0622
X9.1236Y-4.1622
X9.1236Y-4.2622
X9.1236Y-4.3622
X9.1335Y-1.2535
X9.1335Y-1.3535
X9.1335Y-4.6732
X9.1335Y-4.7732
X9.2335Y-1.2535
X9.2335Y-1.3535
X9.2335Y-4.6732
X9.2335Y-4.7732
X9.3335Y-1.2535
X9.3335Y-1.3535
X9.3335Y-4.6732
X9.3335Y-4.7732
X9.5699Y-1.2535
X9.5699Y-1.3535
X9.5699Y-4.6732
X9.5699Y-4.7732
X9.6699Y-1.2535
X9.6699Y-1.3535
X9.6699Y-4.6732
X9.6699Y-4.7732
X9.7699Y-1.2535
X9.7699Y-1.3535
X9.7699Y-4.6732
X9.7699Y-4.7732
X9.8699Y-1.2535
X9.8699Y-1.3535
X9.8699Y-4.6732
X9.8699Y-4.7732
X9.9699Y-1.2535
X9.9699Y-1.3535
X9.9699Y-4.6732
X9.9699Y-4.7732
X10.0699Y-1.2535
X10.0699Y-1.3535
X10.0699Y-4.6732
X10.0699Y-4.7732
X10.1699Y-1.2535
X10.1699Y-1.3535
X10.1699Y-4.6732
X10.1699Y-4.7732
X10.2699Y-1.2535
X10.2699Y-1.3535
X10.2699Y-4.6732
X10.2699Y-4.7732
X10.3953Y-4.0653
X10.3953Y-4.1653
X10.4953Y-4.0653
X10.4953Y-4.1653
X10.5953Y-4.0653
X10.5953Y-4.1653
X10.6953Y-4.0653
X10.6953Y-4.1653
T8
X6.6362Y-2.2458
X6.6362Y-2.3443
X6.6362Y-2.4427
T9
X6.3858Y-1.2398
X6.3858Y-4.789
X10.6378Y-4.789
X10.6378Y-1.2398
T10
X7.9736Y-4.3126
X9.0736Y-1.7122
T11
X10.7332Y-3.7854
X10.7332Y-3.9035
T12
X10.4827Y-1.7465
X10.6795Y-1.5496
X10.6795Y-1.9433
X10.778Y-1.5496
X10.778Y-1.9433
T13
X10.6382Y-4.498
T14
X6.3535Y-2.2458
X6.3535Y-2.4427
X10.4807Y-2.1835
X10.6776Y-2.1835
T4
G00X6.2886Y-2.6472
M15
G01X6.3161Y-2.6472
M16
G05
G00X6.3161Y-2.9228
M15
G01X6.2886Y-2.9228
M16
G05
T5
G00X10.3665Y-4.2894
M15
G01X10.4138Y-4.2894
M16
G05
G00X10.3665Y-4.4941
M15
G01X10.4138Y-4.4941
M16
G05
G00X10.3665Y-4.628
M15
G01X10.4138Y-4.628
M16
G05
G00X10.4965Y-1.5496
M15
G01X10.4689Y-1.5496
M16
G05
G00X10.4965Y-1.648
M15
G01X10.4689Y-1.648
M16
G05
G00X10.4965Y-1.8449
M15
G01X10.4689Y-1.8449
M16
G05
G00X10.4965Y-1.9433
M15
G01X10.4689Y-1.9433
M16
G05
G00X10.5142Y-2.0417
M15
G01X10.4866Y-2.0417
M16
G05
G00X10.5142Y-2.3252
M15
G01X10.4866Y-2.3252
M16
G05
G00X10.5929Y-2.0417
M15
G01X10.5654Y-2.0417
M16
G05
G00X10.652Y-2.3252
M15
G01X10.6244Y-2.3252
M16
G05
G00X10.648Y-4.2539
M15
G01X10.7071Y-4.2539
M16
G05
G00X10.648Y-4.6437
M15
G01X10.7071Y-4.6437
M16
G05
G00X10.6795Y-1.7602
M15
G01X10.6795Y-1.7327
M16
G05
G00X10.6992Y-2.026
M15
G01X10.6717Y-2.026
M16
G05
G00X10.7386Y-2.3685
M15
G01X10.711Y-2.3685
M16
G05
T0
M30
