%TF.GenerationSoftware,KiCad,Pcbnew,(6.0.10)*%
%TF.CreationDate,2023-12-11T17:02:30-05:00*%
%TF.ProjectId,Ultrasonic Sound Steering - Remote Rev. A,556c7472-6173-46f6-9e69-6320536f756e,rev?*%
%TF.SameCoordinates,Original*%
%TF.FileFunction,Soldermask,Bot*%
%TF.FilePolarity,Negative*%
%FSLAX46Y46*%
G04 Gerber Fmt 4.6, Leading zero omitted, Abs format (unit mm)*
G04 Created by KiCad (PCBNEW (6.0.10)) date 2023-12-11 17:02:30*
%MOMM*%
%LPD*%
G01*
G04 APERTURE LIST*
G04 Aperture macros list*
%AMRoundRect*
0 Rectangle with rounded corners*
0 $1 Rounding radius*
0 $2 $3 $4 $5 $6 $7 $8 $9 X,Y pos of 4 corners*
0 Add a 4 corners polygon primitive as box body*
4,1,4,$2,$3,$4,$5,$6,$7,$8,$9,$2,$3,0*
0 Add four circle primitives for the rounded corners*
1,1,$1+$1,$2,$3*
1,1,$1+$1,$4,$5*
1,1,$1+$1,$6,$7*
1,1,$1+$1,$8,$9*
0 Add four rect primitives between the rounded corners*
20,1,$1+$1,$2,$3,$4,$5,0*
20,1,$1+$1,$4,$5,$6,$7,0*
20,1,$1+$1,$6,$7,$8,$9,0*
20,1,$1+$1,$8,$9,$2,$3,0*%
G04 Aperture macros list end*
%ADD10RoundRect,0.102000X-0.900000X-0.900000X0.900000X-0.900000X0.900000X0.900000X-0.900000X0.900000X0*%
%ADD11C,2.004000*%
%ADD12O,3.204000X6.204000*%
%ADD13C,5.600000*%
%ADD14C,3.600000*%
%ADD15C,3.200000*%
%ADD16R,1.700000X1.700000*%
%ADD17C,1.700000*%
%ADD18C,1.524000*%
%ADD19R,1.800000X1.800000*%
%ADD20C,1.800000*%
%ADD21O,2.720000X3.240000*%
%ADD22R,0.600000X0.700000*%
%ADD23RoundRect,0.200000X-0.275000X0.200000X-0.275000X-0.200000X0.275000X-0.200000X0.275000X0.200000X0*%
%ADD24RoundRect,0.200000X0.275000X-0.200000X0.275000X0.200000X-0.275000X0.200000X-0.275000X-0.200000X0*%
%ADD25R,1.600200X0.863600*%
%ADD26RoundRect,0.200000X0.200000X0.275000X-0.200000X0.275000X-0.200000X-0.275000X0.200000X-0.275000X0*%
%ADD27O,1.700000X1.700000*%
%ADD28C,3.301600*%
%ADD29C,3.001600*%
%ADD30RoundRect,0.225000X-0.250000X0.225000X-0.250000X-0.225000X0.250000X-0.225000X0.250000X0.225000X0*%
%ADD31RoundRect,0.200000X-0.200000X-0.275000X0.200000X-0.275000X0.200000X0.275000X-0.200000X0.275000X0*%
%ADD32RoundRect,0.102000X0.177800X-0.736600X0.177800X0.736600X-0.177800X0.736600X-0.177800X-0.736600X0*%
%ADD33R,0.558800X0.977900*%
%ADD34RoundRect,0.250000X-0.425000X0.450000X-0.425000X-0.450000X0.425000X-0.450000X0.425000X0.450000X0*%
%ADD35R,1.100000X1.100000*%
%ADD36R,0.400000X1.350000*%
%ADD37C,1.450000*%
%ADD38R,1.200000X1.900000*%
%ADD39R,1.500000X1.900000*%
%ADD40O,1.200000X1.900000*%
%ADD41RoundRect,0.225000X0.250000X-0.225000X0.250000X0.225000X-0.250000X0.225000X-0.250000X-0.225000X0*%
%ADD42RoundRect,0.102000X0.450000X-1.000000X0.450000X1.000000X-0.450000X1.000000X-0.450000X-1.000000X0*%
%ADD43RoundRect,0.102000X1.000000X-0.450000X1.000000X0.450000X-1.000000X0.450000X-1.000000X-0.450000X0*%
%ADD44RoundRect,0.102000X0.665000X-0.665000X0.665000X0.665000X-0.665000X0.665000X-0.665000X-0.665000X0*%
%ADD45C,0.504000*%
%ADD46RoundRect,0.225000X-0.225000X-0.250000X0.225000X-0.250000X0.225000X0.250000X-0.225000X0.250000X0*%
%ADD47RoundRect,0.062500X-0.337500X-0.062500X0.337500X-0.062500X0.337500X0.062500X-0.337500X0.062500X0*%
%ADD48RoundRect,0.062500X-0.062500X-0.337500X0.062500X-0.337500X0.062500X0.337500X-0.062500X0.337500X0*%
%ADD49R,3.350000X3.350000*%
%ADD50RoundRect,0.225000X0.225000X0.250000X-0.225000X0.250000X-0.225000X-0.250000X0.225000X-0.250000X0*%
G04 APERTURE END LIST*
D10*
%TO.C,SW1*%
X121490000Y-96582500D03*
D11*
X126490000Y-96582500D03*
X121490000Y-111082500D03*
X126490000Y-111082500D03*
X123990000Y-111082500D03*
D12*
X118390000Y-103582500D03*
X129590000Y-103582500D03*
%TD*%
D10*
%TO.C,SW2*%
X136730000Y-96580000D03*
D11*
X141730000Y-96580000D03*
X136730000Y-111080000D03*
X141730000Y-111080000D03*
X139230000Y-111080000D03*
D12*
X133630000Y-103580000D03*
X144830000Y-103580000D03*
%TD*%
D13*
%TO.C,H3*%
X188960999Y-108957999D03*
D14*
X188960999Y-108957999D03*
%TD*%
D15*
%TO.C,J4*%
X188960999Y-91572999D03*
X112933999Y-47572999D03*
X112933999Y-91572999D03*
X188960999Y-47572999D03*
D16*
X108011999Y-53062999D03*
D17*
X108008999Y-55601999D03*
X108008999Y-58141999D03*
X108008999Y-60681999D03*
X108008999Y-63221999D03*
X108008999Y-65761999D03*
X108008999Y-68301999D03*
X108008999Y-70838999D03*
X108008999Y-73378999D03*
X108008999Y-75918999D03*
X108008999Y-78458999D03*
X108008999Y-80998999D03*
X108008999Y-83538999D03*
X108008999Y-86078999D03*
%TD*%
D13*
%TO.C,H1*%
X105539000Y-47538999D03*
D14*
X105539000Y-47538999D03*
%TD*%
D13*
%TO.C,H2*%
X105538999Y-109060999D03*
D14*
X105538999Y-109060999D03*
%TD*%
D18*
%TO.C,S1*%
X101950000Y-98035400D03*
X101950000Y-100535400D03*
X101950000Y-103035400D03*
X105250000Y-98035400D03*
X105250000Y-100535400D03*
X105250000Y-103035400D03*
%TD*%
D19*
%TO.C,RV2*%
X180985400Y-96192800D03*
D20*
X178485400Y-96192800D03*
X175985400Y-96192800D03*
D21*
X173685400Y-103692800D03*
X183285400Y-103692800D03*
%TD*%
D19*
%TO.C,RV1*%
X164985400Y-96175000D03*
D20*
X162485400Y-96175000D03*
X159985400Y-96175000D03*
D21*
X157685400Y-103675000D03*
X167285400Y-103675000D03*
%TD*%
D22*
%TO.C,D11*%
X143420000Y-49550000D03*
X144820000Y-49550000D03*
%TD*%
D23*
%TO.C,R11*%
X161254500Y-100515000D03*
X161254500Y-102165000D03*
%TD*%
D24*
%TO.C,R35*%
X151605000Y-50225000D03*
X151605000Y-48575000D03*
%TD*%
D25*
%TO.C,Q4*%
X118886000Y-59874999D03*
X118886000Y-61775001D03*
X116875000Y-60825000D03*
%TD*%
D26*
%TO.C,R1*%
X118100000Y-88000000D03*
X116450000Y-88000000D03*
%TD*%
D16*
%TO.C,J1*%
X111837144Y-85792499D03*
D27*
X114377144Y-85792499D03*
X116917144Y-85792499D03*
X119457144Y-85792499D03*
X121997144Y-85792499D03*
X124537144Y-85792499D03*
X127077144Y-85792499D03*
X129617144Y-85792499D03*
D28*
X104217144Y-84523899D03*
X104217144Y-68013899D03*
D29*
X134951144Y-69698899D03*
X134951144Y-82838899D03*
%TD*%
D30*
%TO.C,C35*%
X140620000Y-55215000D03*
X140620000Y-56765000D03*
%TD*%
D25*
%TO.C,Q3*%
X179025000Y-102125002D03*
X179025000Y-100225000D03*
X181036000Y-101175001D03*
%TD*%
D26*
%TO.C,R33*%
X123440000Y-105605000D03*
X121790000Y-105605000D03*
%TD*%
D31*
%TO.C,R36*%
X121790000Y-104130000D03*
X123440000Y-104130000D03*
%TD*%
D32*
%TO.C,U5*%
X133455800Y-95921000D03*
X132795400Y-95921000D03*
X132160400Y-95921000D03*
X131500000Y-95921000D03*
X130839600Y-95921000D03*
X130204600Y-95921000D03*
X129544200Y-95921000D03*
X129544200Y-90079000D03*
X130204600Y-90079000D03*
X130839600Y-90079000D03*
X131500000Y-90079000D03*
X132160400Y-90079000D03*
X132795400Y-90079000D03*
X133455800Y-90079000D03*
%TD*%
D24*
%TO.C,R27*%
X139910000Y-47015000D03*
X139910000Y-45365000D03*
%TD*%
D25*
%TO.C,Q8*%
X112820500Y-67875000D03*
X112820500Y-69775002D03*
X110809500Y-68825001D03*
%TD*%
D23*
%TO.C,R31*%
X177165500Y-100525000D03*
X177165500Y-102175000D03*
%TD*%
D33*
%TO.C,U2*%
X164440000Y-78115250D03*
X163489999Y-78115250D03*
X162539998Y-78115250D03*
X162539998Y-75384750D03*
X163489999Y-75384750D03*
X164440000Y-75384750D03*
%TD*%
D23*
%TO.C,R56*%
X114820500Y-68050000D03*
X114820500Y-69700000D03*
%TD*%
D25*
%TO.C,Q6*%
X144615500Y-54939999D03*
X144615500Y-56840001D03*
X142604500Y-55890000D03*
%TD*%
D24*
%TO.C,R12*%
X159779500Y-102155000D03*
X159779500Y-100505000D03*
%TD*%
D23*
%TO.C,R17*%
X172950000Y-74390000D03*
X172950000Y-76040000D03*
%TD*%
D33*
%TO.C,U4*%
X180470001Y-84065250D03*
X179520000Y-84065250D03*
X178569999Y-84065250D03*
X178569999Y-81334750D03*
X179520000Y-81334750D03*
X180470001Y-81334750D03*
%TD*%
D30*
%TO.C,C6*%
X160999999Y-76630000D03*
X160999999Y-78180000D03*
%TD*%
D16*
%TO.C,J2*%
X164410000Y-53380001D03*
D17*
X161910000Y-53380001D03*
X159410000Y-53380001D03*
%TD*%
D25*
%TO.C,Q7*%
X118826000Y-67924999D03*
X118826000Y-69825001D03*
X116815000Y-68875000D03*
%TD*%
D23*
%TO.C,R5*%
X160995001Y-79554999D03*
X160995001Y-81204999D03*
%TD*%
%TO.C,R19*%
X180220000Y-74390000D03*
X180220000Y-76040000D03*
%TD*%
D22*
%TO.C,D9*%
X140920000Y-49550000D03*
X142320000Y-49550000D03*
%TD*%
D34*
%TO.C,C39*%
X185110000Y-74680000D03*
X185110000Y-77380000D03*
%TD*%
D26*
%TO.C,R49*%
X122445500Y-69675000D03*
X120795500Y-69675000D03*
%TD*%
D35*
%TO.C,D13*%
X125012500Y-102130000D03*
X122212500Y-102130000D03*
%TD*%
D24*
%TO.C,R44*%
X146590000Y-53775000D03*
X146590000Y-52125000D03*
%TD*%
D26*
%TO.C,R24*%
X139262500Y-105586250D03*
X137612500Y-105586250D03*
%TD*%
%TO.C,R43*%
X122505500Y-60025000D03*
X120855500Y-60025000D03*
%TD*%
D24*
%TO.C,R45*%
X146600000Y-56815000D03*
X146600000Y-55165000D03*
%TD*%
D23*
%TO.C,R47*%
X139090000Y-52135000D03*
X139090000Y-53785000D03*
%TD*%
D36*
%TO.C,J3*%
X144170000Y-47582500D03*
X144820000Y-47582500D03*
X145470000Y-47582500D03*
X146120000Y-47582500D03*
X146770000Y-47582500D03*
D37*
X147970000Y-47582500D03*
D38*
X148370000Y-44882500D03*
D39*
X144470000Y-44882500D03*
D38*
X142570000Y-44882500D03*
D40*
X148970000Y-44882500D03*
D37*
X142970000Y-47582500D03*
D40*
X141970000Y-44882500D03*
D39*
X146470000Y-44882500D03*
%TD*%
D41*
%TO.C,C37*%
X186970000Y-75985000D03*
X186970000Y-74435000D03*
%TD*%
D42*
%TO.C,U7*%
X192810000Y-70990000D03*
X191540000Y-70990000D03*
X190270000Y-70990000D03*
X189000000Y-70990000D03*
X187730000Y-70990000D03*
X186460000Y-70990000D03*
X185190000Y-70990000D03*
X183920000Y-70990000D03*
X182650000Y-70990000D03*
X181380000Y-70990000D03*
X180110000Y-70990000D03*
X178840000Y-70990000D03*
X177570000Y-70990000D03*
X176300000Y-70990000D03*
D43*
X175300000Y-68205000D03*
X175300000Y-66935000D03*
X175300000Y-65665000D03*
X175300000Y-64395000D03*
X175300000Y-63125000D03*
X175300000Y-61855000D03*
X175300000Y-60585000D03*
X175300000Y-59315000D03*
X175300000Y-58045000D03*
X175300000Y-56775000D03*
D42*
X176300000Y-53990000D03*
X177570000Y-53990000D03*
X178840000Y-53990000D03*
X180110000Y-53990000D03*
X181380000Y-53990000D03*
X182650000Y-53990000D03*
X183920000Y-53990000D03*
X185190000Y-53990000D03*
X186460000Y-53990000D03*
X187730000Y-53990000D03*
X189000000Y-53990000D03*
X190270000Y-53990000D03*
X191540000Y-53990000D03*
X192810000Y-53990000D03*
D44*
X187145000Y-65325000D03*
X187145000Y-63490000D03*
X187145000Y-61655000D03*
X185310000Y-65325000D03*
X185310000Y-63490000D03*
X185310000Y-61655000D03*
X183475000Y-65325000D03*
X183475000Y-63490000D03*
X183475000Y-61655000D03*
D45*
X187145000Y-64407500D03*
X187145000Y-62572500D03*
X186227500Y-65325000D03*
X186227500Y-63490000D03*
X186227500Y-61655000D03*
X185310000Y-64407500D03*
X185310000Y-62572500D03*
X184392500Y-65325000D03*
X184392500Y-63490000D03*
X184392500Y-61655000D03*
X183475000Y-64407500D03*
X183475000Y-62572500D03*
%TD*%
D26*
%TO.C,R50*%
X122445500Y-67875000D03*
X120795500Y-67875000D03*
%TD*%
%TO.C,R42*%
X122505500Y-61625000D03*
X120855500Y-61625000D03*
%TD*%
D46*
%TO.C,C10*%
X166204999Y-76780000D03*
X167754999Y-76780000D03*
%TD*%
D24*
%TO.C,R26*%
X183250000Y-76035000D03*
X183250000Y-74385000D03*
%TD*%
D46*
%TO.C,C1*%
X119475000Y-88000000D03*
X121025000Y-88000000D03*
%TD*%
D26*
%TO.C,R13*%
X187880000Y-96270000D03*
X186230000Y-96270000D03*
%TD*%
%TO.C,R8*%
X190930000Y-99220000D03*
X189280000Y-99220000D03*
%TD*%
%TO.C,R59*%
X187870000Y-101990000D03*
X186220000Y-101990000D03*
%TD*%
D47*
%TO.C,U6*%
X151540000Y-56000000D03*
X151540000Y-55500000D03*
X151540000Y-55000000D03*
X151540000Y-54500000D03*
X151540000Y-54000000D03*
X151540000Y-53500000D03*
X151540000Y-53000000D03*
D48*
X152490000Y-52050000D03*
X152990000Y-52050000D03*
X153490000Y-52050000D03*
X153990000Y-52050000D03*
X154490000Y-52050000D03*
X154990000Y-52050000D03*
X155490000Y-52050000D03*
D47*
X156440000Y-53000000D03*
X156440000Y-53500000D03*
X156440000Y-54000000D03*
X156440000Y-54500000D03*
X156440000Y-55000000D03*
X156440000Y-55500000D03*
X156440000Y-56000000D03*
D48*
X155490000Y-56950000D03*
X154990000Y-56950000D03*
X154490000Y-56950000D03*
X153990000Y-56950000D03*
X153490000Y-56950000D03*
X152990000Y-56950000D03*
X152490000Y-56950000D03*
D49*
X153990000Y-54500000D03*
%TD*%
D46*
%TO.C,C20*%
X182265000Y-81270000D03*
X183815000Y-81270000D03*
%TD*%
D31*
%TO.C,R6*%
X166115000Y-84190000D03*
X167765000Y-84190000D03*
%TD*%
D24*
%TO.C,R37*%
X150155000Y-50225000D03*
X150155000Y-48575000D03*
%TD*%
D46*
%TO.C,C19*%
X182265000Y-82730000D03*
X183815000Y-82730000D03*
%TD*%
D26*
%TO.C,R40*%
X190930000Y-101990000D03*
X189280000Y-101990000D03*
%TD*%
D24*
%TO.C,R46*%
X114850000Y-61675000D03*
X114850000Y-60025000D03*
%TD*%
D30*
%TO.C,C27*%
X140927500Y-104086250D03*
X140927500Y-105636250D03*
%TD*%
D24*
%TO.C,R41*%
X155400000Y-50245000D03*
X155400000Y-48595000D03*
%TD*%
D22*
%TO.C,D10*%
X147320000Y-49550000D03*
X145920000Y-49550000D03*
%TD*%
D25*
%TO.C,Q1*%
X162984500Y-102110001D03*
X162984500Y-100209999D03*
X164995500Y-101160000D03*
%TD*%
D26*
%TO.C,R57*%
X187875000Y-99220000D03*
X186225000Y-99220000D03*
%TD*%
D41*
%TO.C,C26*%
X181710000Y-75985000D03*
X181710000Y-74435000D03*
%TD*%
D31*
%TO.C,R16*%
X182215000Y-84190000D03*
X183865000Y-84190000D03*
%TD*%
D30*
%TO.C,C31*%
X150160000Y-51580000D03*
X150160000Y-53130000D03*
%TD*%
%TO.C,C38*%
X140620000Y-52185000D03*
X140620000Y-53735000D03*
%TD*%
D24*
%TO.C,R18*%
X178740000Y-76040000D03*
X178740000Y-74390000D03*
%TD*%
D46*
%TO.C,C11*%
X166209999Y-75320000D03*
X167759999Y-75320000D03*
%TD*%
D41*
%TO.C,C36*%
X188500000Y-75985000D03*
X188500000Y-74435000D03*
%TD*%
D26*
%TO.C,R58*%
X190931831Y-96270000D03*
X189281831Y-96270000D03*
%TD*%
D33*
%TO.C,U1*%
X164440001Y-84060001D03*
X163490000Y-84060001D03*
X162539999Y-84060001D03*
X162539999Y-81329501D03*
X163490000Y-81329501D03*
X164440001Y-81329501D03*
%TD*%
D30*
%TO.C,C29*%
X148700000Y-51580000D03*
X148700000Y-53130000D03*
%TD*%
D24*
%TO.C,R29*%
X175705500Y-102175000D03*
X175705500Y-100525000D03*
%TD*%
D30*
%TO.C,C32*%
X125090000Y-104080000D03*
X125090000Y-105630000D03*
%TD*%
D24*
%TO.C,R4*%
X159525001Y-81194999D03*
X159525001Y-79544999D03*
%TD*%
D41*
%TO.C,C33*%
X191557500Y-75980000D03*
X191557500Y-74430000D03*
%TD*%
D23*
%TO.C,R48*%
X139090000Y-55180000D03*
X139090000Y-56830000D03*
%TD*%
D31*
%TO.C,R7*%
X166155000Y-78240000D03*
X167805000Y-78240000D03*
%TD*%
D25*
%TO.C,Q2*%
X176836000Y-74464998D03*
X176836000Y-76365000D03*
X174825000Y-75414999D03*
%TD*%
D46*
%TO.C,C9*%
X166165001Y-81270001D03*
X167715001Y-81270001D03*
%TD*%
D25*
%TO.C,Q5*%
X144605500Y-51069999D03*
X144605500Y-52970001D03*
X142594500Y-52020000D03*
%TD*%
D30*
%TO.C,C18*%
X176920000Y-82625000D03*
X176920000Y-84175000D03*
%TD*%
D23*
%TO.C,R39*%
X153940000Y-48590000D03*
X153940000Y-50240000D03*
%TD*%
D41*
%TO.C,C34*%
X190027500Y-75990000D03*
X190027500Y-74440000D03*
%TD*%
D46*
%TO.C,C8*%
X166165001Y-82730001D03*
X167715001Y-82730001D03*
%TD*%
D30*
%TO.C,C3*%
X160970000Y-82589501D03*
X160970000Y-84139501D03*
%TD*%
D31*
%TO.C,R25*%
X137627500Y-104136250D03*
X139277500Y-104136250D03*
%TD*%
D35*
%TO.C,D7*%
X140850000Y-102121250D03*
X138050000Y-102121250D03*
%TD*%
D50*
%TO.C,C21*%
X136535000Y-91330000D03*
X134985000Y-91330000D03*
%TD*%
D46*
%TO.C,C22*%
X134985000Y-89850000D03*
X136535000Y-89850000D03*
%TD*%
M02*
