%TF.GenerationSoftware,KiCad,Pcbnew,(6.0.10)*%
%TF.CreationDate,2023-12-11T17:02:30-05:00*%
%TF.ProjectId,Ultrasonic Sound Steering - Remote Rev. A,556c7472-6173-46f6-9e69-6320536f756e,rev?*%
%TF.SameCoordinates,Original*%
%TF.FileFunction,Paste,Top*%
%TF.FilePolarity,Positive*%
%FSLAX46Y46*%
G04 Gerber Fmt 4.6, Leading zero omitted, Abs format (unit mm)*
G04 Created by KiCad (PCBNEW (6.0.10)) date 2023-12-11 17:02:30*
%MOMM*%
%LPD*%
G01*
G04 APERTURE LIST*
G04 Aperture macros list*
%AMRoundRect*
0 Rectangle with rounded corners*
0 $1 Rounding radius*
0 $2 $3 $4 $5 $6 $7 $8 $9 X,Y pos of 4 corners*
0 Add a 4 corners polygon primitive as box body*
4,1,4,$2,$3,$4,$5,$6,$7,$8,$9,$2,$3,0*
0 Add four circle primitives for the rounded corners*
1,1,$1+$1,$2,$3*
1,1,$1+$1,$4,$5*
1,1,$1+$1,$6,$7*
1,1,$1+$1,$8,$9*
0 Add four rect primitives between the rounded corners*
20,1,$1+$1,$2,$3,$4,$5,0*
20,1,$1+$1,$4,$5,$6,$7,0*
20,1,$1+$1,$6,$7,$8,$9,0*
20,1,$1+$1,$8,$9,$2,$3,0*%
G04 Aperture macros list end*
%ADD10C,0.010000*%
%ADD11RoundRect,0.225000X-0.250000X0.225000X-0.250000X-0.225000X0.250000X-0.225000X0.250000X0.225000X0*%
%ADD12RoundRect,0.200000X0.200000X0.275000X-0.200000X0.275000X-0.200000X-0.275000X0.200000X-0.275000X0*%
%ADD13R,2.210000X2.180400*%
%ADD14RoundRect,0.200000X-0.200000X-0.275000X0.200000X-0.275000X0.200000X0.275000X-0.200000X0.275000X0*%
%ADD15R,1.100000X1.100000*%
%ADD16RoundRect,0.200000X-0.053033X0.335876X-0.335876X0.053033X0.053033X-0.335876X0.335876X-0.053033X0*%
%ADD17RoundRect,0.200000X-0.275000X0.200000X-0.275000X-0.200000X0.275000X-0.200000X0.275000X0.200000X0*%
%ADD18RoundRect,0.225000X0.250000X-0.225000X0.250000X0.225000X-0.250000X0.225000X-0.250000X-0.225000X0*%
%ADD19RoundRect,0.250000X-0.375000X-0.625000X0.375000X-0.625000X0.375000X0.625000X-0.375000X0.625000X0*%
%ADD20RoundRect,0.008100X-0.411900X-0.126900X0.411900X-0.126900X0.411900X0.126900X-0.411900X0.126900X0*%
%ADD21RoundRect,0.200000X0.275000X-0.200000X0.275000X0.200000X-0.275000X0.200000X-0.275000X-0.200000X0*%
%ADD22R,0.900000X1.200000*%
G04 APERTURE END LIST*
%TO.C,U3*%
G36*
X120006182Y-79412500D02*
G01*
X119248182Y-79412500D01*
X119248182Y-78147500D01*
X120006182Y-78147500D01*
X120006182Y-79412500D01*
G37*
D10*
X120006182Y-79412500D02*
X119248182Y-79412500D01*
X119248182Y-78147500D01*
X120006182Y-78147500D01*
X120006182Y-79412500D01*
%TD*%
D11*
%TO.C,C4*%
X122717182Y-76405000D03*
X122717182Y-77955000D03*
%TD*%
%TO.C,C30*%
X110865000Y-101300000D03*
X110865000Y-102850000D03*
%TD*%
D12*
%TO.C,R2*%
X168835400Y-96247082D03*
X167185400Y-96247082D03*
%TD*%
D13*
%TO.C,D1*%
X129610000Y-78042800D03*
X129610000Y-81757200D03*
%TD*%
D11*
%TO.C,C25*%
X149335000Y-107680000D03*
X149335000Y-109230000D03*
%TD*%
D14*
%TO.C,R32*%
X112410000Y-109245000D03*
X114060000Y-109245000D03*
%TD*%
%TO.C,R21*%
X151115000Y-102780000D03*
X152765000Y-102780000D03*
%TD*%
D12*
%TO.C,R51*%
X177045000Y-54040000D03*
X175395000Y-54040000D03*
%TD*%
D11*
%TO.C,C23*%
X190300000Y-67510000D03*
X190300000Y-69060000D03*
%TD*%
D12*
%TO.C,R14*%
X184835400Y-96275000D03*
X183185400Y-96275000D03*
%TD*%
%TO.C,R54*%
X179935000Y-57770000D03*
X178285000Y-57770000D03*
%TD*%
%TO.C,R52*%
X171995000Y-57770000D03*
X170345000Y-57770000D03*
%TD*%
D11*
%TO.C,C16*%
X115130000Y-76420000D03*
X115130000Y-77970000D03*
%TD*%
D14*
%TO.C,R22*%
X151010000Y-107705000D03*
X152660000Y-107705000D03*
%TD*%
D15*
%TO.C,D12*%
X111230000Y-99350000D03*
X114030000Y-99350000D03*
%TD*%
D12*
%TO.C,R53*%
X186065000Y-54040000D03*
X184415000Y-54040000D03*
%TD*%
D16*
%TO.C,R55*%
X111586726Y-69813274D03*
X110420000Y-70980000D03*
%TD*%
D17*
%TO.C,R30*%
X183930000Y-67470000D03*
X183930000Y-69120000D03*
%TD*%
D15*
%TO.C,D6*%
X149710000Y-105730000D03*
X152510000Y-105730000D03*
%TD*%
D12*
%TO.C,R15*%
X173795400Y-96275000D03*
X172145400Y-96275000D03*
%TD*%
D18*
%TO.C,C7*%
X124197182Y-80910000D03*
X124197182Y-79360000D03*
%TD*%
D14*
%TO.C,R10*%
X113575000Y-82380000D03*
X115225000Y-82380000D03*
%TD*%
D15*
%TO.C,D5*%
X149815000Y-99330000D03*
X152615000Y-99330000D03*
%TD*%
D11*
%TO.C,C12*%
X181330000Y-67530000D03*
X181330000Y-69080000D03*
%TD*%
D14*
%TO.C,R23*%
X151012500Y-109180000D03*
X152662500Y-109180000D03*
%TD*%
D11*
%TO.C,C2*%
X125650000Y-76405000D03*
X125650000Y-77955000D03*
%TD*%
%TO.C,C5*%
X124187182Y-76405000D03*
X124187182Y-77955000D03*
%TD*%
D14*
%TO.C,R38*%
X112530000Y-102825000D03*
X114180000Y-102825000D03*
%TD*%
D19*
%TO.C,D3*%
X187430000Y-101040000D03*
X190230000Y-101040000D03*
%TD*%
D14*
%TO.C,R28*%
X112410000Y-107770000D03*
X114060000Y-107770000D03*
%TD*%
D15*
%TO.C,D8*%
X111117500Y-105770000D03*
X113917500Y-105770000D03*
%TD*%
D18*
%TO.C,C14*%
X113670000Y-80940000D03*
X113670000Y-79390000D03*
%TD*%
D11*
%TO.C,C17*%
X113670000Y-76420000D03*
X113670000Y-77970000D03*
%TD*%
%TO.C,C24*%
X149455000Y-101280000D03*
X149455000Y-102830000D03*
%TD*%
D20*
%TO.C,U3*%
X118432182Y-77780000D03*
X118432182Y-78280000D03*
X118432182Y-78780000D03*
X118432182Y-79280000D03*
X118432182Y-79780000D03*
X120822182Y-79780000D03*
X120822182Y-79280000D03*
X120822182Y-78780000D03*
X120822182Y-78280000D03*
X120822182Y-77780000D03*
%TD*%
D19*
%TO.C,D4*%
X187430000Y-98240000D03*
X190230000Y-98240000D03*
%TD*%
D11*
%TO.C,C28*%
X110770000Y-107745000D03*
X110770000Y-109295000D03*
%TD*%
D14*
%TO.C,R20*%
X151115000Y-101305000D03*
X152765000Y-101305000D03*
%TD*%
D11*
%TO.C,C15*%
X116590000Y-76420000D03*
X116590000Y-77970000D03*
%TD*%
D12*
%TO.C,R3*%
X157780400Y-96250000D03*
X156130400Y-96250000D03*
%TD*%
D14*
%TO.C,R34*%
X112530000Y-101350000D03*
X114180000Y-101350000D03*
%TD*%
D11*
%TO.C,C13*%
X187710000Y-67500000D03*
X187710000Y-69050000D03*
%TD*%
D19*
%TO.C,D14*%
X187430000Y-103840000D03*
X190230000Y-103840000D03*
%TD*%
D21*
%TO.C,R9*%
X115150000Y-80990000D03*
X115150000Y-79340000D03*
%TD*%
D22*
%TO.C,D2*%
X121127182Y-83010000D03*
X117827182Y-83010000D03*
%TD*%
M02*
