%TF.GenerationSoftware,KiCad,Pcbnew,(6.0.10)*%
%TF.CreationDate,2023-12-11T17:02:30-05:00*%
%TF.ProjectId,Ultrasonic Sound Steering - Remote Rev. A,556c7472-6173-46f6-9e69-6320536f756e,rev?*%
%TF.SameCoordinates,Original*%
%TF.FileFunction,Legend,Bot*%
%TF.FilePolarity,Positive*%
%FSLAX46Y46*%
G04 Gerber Fmt 4.6, Leading zero omitted, Abs format (unit mm)*
G04 Created by KiCad (PCBNEW (6.0.10)) date 2023-12-11 17:02:30*
%MOMM*%
%LPD*%
G01*
G04 APERTURE LIST*
%ADD10C,0.150000*%
%ADD11C,0.200000*%
%ADD12C,0.120000*%
%ADD13C,0.152400*%
%ADD14C,0.203200*%
%ADD15C,0.127000*%
G04 APERTURE END LIST*
D10*
X101000007Y-111580786D02*
G75*
G03*
X102990000Y-113575000I1988393J-5814D01*
G01*
X102990000Y-113575000D02*
X191502500Y-113575000D01*
X102994214Y-43004208D02*
G75*
G03*
X101000000Y-44994214I-5814J-1988392D01*
G01*
X191500000Y-43000000D02*
X102994214Y-43004214D01*
X126270000Y-52500000D02*
X133880000Y-52500000D01*
X133880000Y-52500000D02*
X133880000Y-58450000D01*
X133880000Y-58450000D02*
X126270000Y-58450000D01*
X126270000Y-58450000D02*
X126270000Y-52500000D01*
X193502500Y-111580786D02*
X193502500Y-77000000D01*
X191502500Y-113574940D02*
G75*
G03*
X193502500Y-111675000I-100J2002740D01*
G01*
X193504193Y-44994214D02*
G75*
G03*
X191514214Y-43000000I-1988393J5814D01*
G01*
X193502500Y-77000000D02*
X193504214Y-44994214D01*
X101000000Y-44990000D02*
X101000000Y-111580786D01*
X172154285Y-43942857D02*
X172154285Y-44914285D01*
X172097142Y-45028571D01*
X172040000Y-45085714D01*
X171925714Y-45142857D01*
X171697142Y-45142857D01*
X171582857Y-45085714D01*
X171525714Y-45028571D01*
X171468571Y-44914285D01*
X171468571Y-43942857D01*
X170954285Y-44800000D02*
X170382857Y-44800000D01*
X171068571Y-45142857D02*
X170668571Y-43942857D01*
X170268571Y-45142857D01*
X169182857Y-45142857D02*
X169582857Y-44571428D01*
X169868571Y-45142857D02*
X169868571Y-43942857D01*
X169411428Y-43942857D01*
X169297142Y-44000000D01*
X169240000Y-44057142D01*
X169182857Y-44171428D01*
X169182857Y-44342857D01*
X169240000Y-44457142D01*
X169297142Y-44514285D01*
X169411428Y-44571428D01*
X169868571Y-44571428D01*
X168840000Y-43942857D02*
X168154285Y-43942857D01*
X168497142Y-45142857D02*
X168497142Y-43942857D01*
X164450000Y-79072380D02*
X164450000Y-79310476D01*
X164688095Y-79215238D02*
X164450000Y-79310476D01*
X164211904Y-79215238D01*
X164592857Y-79500952D02*
X164450000Y-79310476D01*
X164307142Y-79500952D01*
X150600000Y-56322380D02*
X150600000Y-56560476D01*
X150838095Y-56465238D02*
X150600000Y-56560476D01*
X150361904Y-56465238D01*
X150742857Y-56750952D02*
X150600000Y-56560476D01*
X150457142Y-56750952D01*
X165948095Y-68242857D02*
X165833809Y-68280952D01*
X165795714Y-68319047D01*
X165757619Y-68395238D01*
X165757619Y-68509523D01*
X165795714Y-68585714D01*
X165833809Y-68623809D01*
X165910000Y-68661904D01*
X166214761Y-68661904D01*
X166214761Y-67861904D01*
X165948095Y-67861904D01*
X165871904Y-67900000D01*
X165833809Y-67938095D01*
X165795714Y-68014285D01*
X165795714Y-68090476D01*
X165833809Y-68166666D01*
X165871904Y-68204761D01*
X165948095Y-68242857D01*
X166214761Y-68242857D01*
X165490952Y-68128571D02*
X165300476Y-68661904D01*
X165110000Y-68128571D02*
X165300476Y-68661904D01*
X165376666Y-68852380D01*
X165414761Y-68890476D01*
X165490952Y-68928571D01*
X164195714Y-68661904D02*
X164195714Y-67861904D01*
X163738571Y-68661904D02*
X164081428Y-68204761D01*
X163738571Y-67861904D02*
X164195714Y-68319047D01*
X163090952Y-68623809D02*
X163167142Y-68661904D01*
X163319523Y-68661904D01*
X163395714Y-68623809D01*
X163433809Y-68547619D01*
X163433809Y-68242857D01*
X163395714Y-68166666D01*
X163319523Y-68128571D01*
X163167142Y-68128571D01*
X163090952Y-68166666D01*
X163052857Y-68242857D01*
X163052857Y-68319047D01*
X163433809Y-68395238D01*
X162786190Y-68128571D02*
X162595714Y-68661904D01*
X162405238Y-68128571D01*
X162100476Y-68661904D02*
X162100476Y-68128571D01*
X162100476Y-67861904D02*
X162138571Y-67900000D01*
X162100476Y-67938095D01*
X162062380Y-67900000D01*
X162100476Y-67861904D01*
X162100476Y-67938095D01*
X161719523Y-68128571D02*
X161719523Y-68661904D01*
X161719523Y-68204761D02*
X161681428Y-68166666D01*
X161605238Y-68128571D01*
X161490952Y-68128571D01*
X161414761Y-68166666D01*
X161376666Y-68242857D01*
X161376666Y-68661904D01*
X160386190Y-68661904D02*
X160386190Y-67861904D01*
X160386190Y-68242857D02*
X159929047Y-68242857D01*
X159929047Y-68661904D02*
X159929047Y-67861904D01*
X159205238Y-68661904D02*
X159205238Y-68242857D01*
X159243333Y-68166666D01*
X159319523Y-68128571D01*
X159471904Y-68128571D01*
X159548095Y-68166666D01*
X159205238Y-68623809D02*
X159281428Y-68661904D01*
X159471904Y-68661904D01*
X159548095Y-68623809D01*
X159586190Y-68547619D01*
X159586190Y-68471428D01*
X159548095Y-68395238D01*
X159471904Y-68357142D01*
X159281428Y-68357142D01*
X159205238Y-68319047D01*
X158824285Y-68661904D02*
X158824285Y-68128571D01*
X158824285Y-68280952D02*
X158786190Y-68204761D01*
X158748095Y-68166666D01*
X158671904Y-68128571D01*
X158595714Y-68128571D01*
X158329047Y-68128571D02*
X158329047Y-68928571D01*
X158329047Y-68166666D02*
X158252857Y-68128571D01*
X158100476Y-68128571D01*
X158024285Y-68166666D01*
X157986190Y-68204761D01*
X157948095Y-68280952D01*
X157948095Y-68509523D01*
X157986190Y-68585714D01*
X158024285Y-68623809D01*
X158100476Y-68661904D01*
X158252857Y-68661904D01*
X158329047Y-68623809D01*
X157300476Y-68623809D02*
X157376666Y-68661904D01*
X157529047Y-68661904D01*
X157605238Y-68623809D01*
X157643333Y-68547619D01*
X157643333Y-68242857D01*
X157605238Y-68166666D01*
X157529047Y-68128571D01*
X157376666Y-68128571D01*
X157300476Y-68166666D01*
X157262380Y-68242857D01*
X157262380Y-68319047D01*
X157643333Y-68395238D01*
X156919523Y-68661904D02*
X156919523Y-68128571D01*
X156919523Y-68280952D02*
X156881428Y-68204761D01*
X156843333Y-68166666D01*
X156767142Y-68128571D01*
X156690952Y-68128571D01*
D11*
X166151904Y-64437380D02*
X166151904Y-65246904D01*
X166104285Y-65342142D01*
X166056666Y-65389761D01*
X165961428Y-65437380D01*
X165770952Y-65437380D01*
X165675714Y-65389761D01*
X165628095Y-65342142D01*
X165580476Y-65246904D01*
X165580476Y-64437380D01*
X164961428Y-65437380D02*
X165056666Y-65389761D01*
X165104285Y-65294523D01*
X165104285Y-64437380D01*
X164723333Y-64770714D02*
X164342380Y-64770714D01*
X164580476Y-64437380D02*
X164580476Y-65294523D01*
X164532857Y-65389761D01*
X164437619Y-65437380D01*
X164342380Y-65437380D01*
X164009047Y-65437380D02*
X164009047Y-64770714D01*
X164009047Y-64961190D02*
X163961428Y-64865952D01*
X163913809Y-64818333D01*
X163818571Y-64770714D01*
X163723333Y-64770714D01*
X162961428Y-65437380D02*
X162961428Y-64913571D01*
X163009047Y-64818333D01*
X163104285Y-64770714D01*
X163294761Y-64770714D01*
X163390000Y-64818333D01*
X162961428Y-65389761D02*
X163056666Y-65437380D01*
X163294761Y-65437380D01*
X163390000Y-65389761D01*
X163437619Y-65294523D01*
X163437619Y-65199285D01*
X163390000Y-65104047D01*
X163294761Y-65056428D01*
X163056666Y-65056428D01*
X162961428Y-65008809D01*
X162532857Y-65389761D02*
X162437619Y-65437380D01*
X162247142Y-65437380D01*
X162151904Y-65389761D01*
X162104285Y-65294523D01*
X162104285Y-65246904D01*
X162151904Y-65151666D01*
X162247142Y-65104047D01*
X162390000Y-65104047D01*
X162485238Y-65056428D01*
X162532857Y-64961190D01*
X162532857Y-64913571D01*
X162485238Y-64818333D01*
X162390000Y-64770714D01*
X162247142Y-64770714D01*
X162151904Y-64818333D01*
X161532857Y-65437380D02*
X161628095Y-65389761D01*
X161675714Y-65342142D01*
X161723333Y-65246904D01*
X161723333Y-64961190D01*
X161675714Y-64865952D01*
X161628095Y-64818333D01*
X161532857Y-64770714D01*
X161390000Y-64770714D01*
X161294761Y-64818333D01*
X161247142Y-64865952D01*
X161199523Y-64961190D01*
X161199523Y-65246904D01*
X161247142Y-65342142D01*
X161294761Y-65389761D01*
X161390000Y-65437380D01*
X161532857Y-65437380D01*
X160770952Y-64770714D02*
X160770952Y-65437380D01*
X160770952Y-64865952D02*
X160723333Y-64818333D01*
X160628095Y-64770714D01*
X160485238Y-64770714D01*
X160390000Y-64818333D01*
X160342380Y-64913571D01*
X160342380Y-65437380D01*
X159866190Y-65437380D02*
X159866190Y-64770714D01*
X159866190Y-64437380D02*
X159913809Y-64485000D01*
X159866190Y-64532619D01*
X159818571Y-64485000D01*
X159866190Y-64437380D01*
X159866190Y-64532619D01*
X158961428Y-65389761D02*
X159056666Y-65437380D01*
X159247142Y-65437380D01*
X159342380Y-65389761D01*
X159390000Y-65342142D01*
X159437619Y-65246904D01*
X159437619Y-64961190D01*
X159390000Y-64865952D01*
X159342380Y-64818333D01*
X159247142Y-64770714D01*
X159056666Y-64770714D01*
X158961428Y-64818333D01*
X157818571Y-65389761D02*
X157675714Y-65437380D01*
X157437619Y-65437380D01*
X157342380Y-65389761D01*
X157294761Y-65342142D01*
X157247142Y-65246904D01*
X157247142Y-65151666D01*
X157294761Y-65056428D01*
X157342380Y-65008809D01*
X157437619Y-64961190D01*
X157628095Y-64913571D01*
X157723333Y-64865952D01*
X157770952Y-64818333D01*
X157818571Y-64723095D01*
X157818571Y-64627857D01*
X157770952Y-64532619D01*
X157723333Y-64485000D01*
X157628095Y-64437380D01*
X157390000Y-64437380D01*
X157247142Y-64485000D01*
X156675714Y-65437380D02*
X156770952Y-65389761D01*
X156818571Y-65342142D01*
X156866190Y-65246904D01*
X156866190Y-64961190D01*
X156818571Y-64865952D01*
X156770952Y-64818333D01*
X156675714Y-64770714D01*
X156532857Y-64770714D01*
X156437619Y-64818333D01*
X156390000Y-64865952D01*
X156342380Y-64961190D01*
X156342380Y-65246904D01*
X156390000Y-65342142D01*
X156437619Y-65389761D01*
X156532857Y-65437380D01*
X156675714Y-65437380D01*
X155485238Y-64770714D02*
X155485238Y-65437380D01*
X155913809Y-64770714D02*
X155913809Y-65294523D01*
X155866190Y-65389761D01*
X155770952Y-65437380D01*
X155628095Y-65437380D01*
X155532857Y-65389761D01*
X155485238Y-65342142D01*
X155009047Y-64770714D02*
X155009047Y-65437380D01*
X155009047Y-64865952D02*
X154961428Y-64818333D01*
X154866190Y-64770714D01*
X154723333Y-64770714D01*
X154628095Y-64818333D01*
X154580476Y-64913571D01*
X154580476Y-65437380D01*
X153675714Y-65437380D02*
X153675714Y-64437380D01*
X153675714Y-65389761D02*
X153770952Y-65437380D01*
X153961428Y-65437380D01*
X154056666Y-65389761D01*
X154104285Y-65342142D01*
X154151904Y-65246904D01*
X154151904Y-64961190D01*
X154104285Y-64865952D01*
X154056666Y-64818333D01*
X153961428Y-64770714D01*
X153770952Y-64770714D01*
X153675714Y-64818333D01*
X152485238Y-65389761D02*
X152342380Y-65437380D01*
X152104285Y-65437380D01*
X152009047Y-65389761D01*
X151961428Y-65342142D01*
X151913809Y-65246904D01*
X151913809Y-65151666D01*
X151961428Y-65056428D01*
X152009047Y-65008809D01*
X152104285Y-64961190D01*
X152294761Y-64913571D01*
X152390000Y-64865952D01*
X152437619Y-64818333D01*
X152485238Y-64723095D01*
X152485238Y-64627857D01*
X152437619Y-64532619D01*
X152390000Y-64485000D01*
X152294761Y-64437380D01*
X152056666Y-64437380D01*
X151913809Y-64485000D01*
X151628095Y-64770714D02*
X151247142Y-64770714D01*
X151485238Y-64437380D02*
X151485238Y-65294523D01*
X151437619Y-65389761D01*
X151342380Y-65437380D01*
X151247142Y-65437380D01*
X150532857Y-65389761D02*
X150628095Y-65437380D01*
X150818571Y-65437380D01*
X150913809Y-65389761D01*
X150961428Y-65294523D01*
X150961428Y-64913571D01*
X150913809Y-64818333D01*
X150818571Y-64770714D01*
X150628095Y-64770714D01*
X150532857Y-64818333D01*
X150485238Y-64913571D01*
X150485238Y-65008809D01*
X150961428Y-65104047D01*
X149675714Y-65389761D02*
X149770952Y-65437380D01*
X149961428Y-65437380D01*
X150056666Y-65389761D01*
X150104285Y-65294523D01*
X150104285Y-64913571D01*
X150056666Y-64818333D01*
X149961428Y-64770714D01*
X149770952Y-64770714D01*
X149675714Y-64818333D01*
X149628095Y-64913571D01*
X149628095Y-65008809D01*
X150104285Y-65104047D01*
X149199523Y-65437380D02*
X149199523Y-64770714D01*
X149199523Y-64961190D02*
X149151904Y-64865952D01*
X149104285Y-64818333D01*
X149009047Y-64770714D01*
X148913809Y-64770714D01*
X148580476Y-65437380D02*
X148580476Y-64770714D01*
X148580476Y-64437380D02*
X148628095Y-64485000D01*
X148580476Y-64532619D01*
X148532857Y-64485000D01*
X148580476Y-64437380D01*
X148580476Y-64532619D01*
X148104285Y-64770714D02*
X148104285Y-65437380D01*
X148104285Y-64865952D02*
X148056666Y-64818333D01*
X147961428Y-64770714D01*
X147818571Y-64770714D01*
X147723333Y-64818333D01*
X147675714Y-64913571D01*
X147675714Y-65437380D01*
X146770952Y-64770714D02*
X146770952Y-65580238D01*
X146818571Y-65675476D01*
X146866190Y-65723095D01*
X146961428Y-65770714D01*
X147104285Y-65770714D01*
X147199523Y-65723095D01*
X146770952Y-65389761D02*
X146866190Y-65437380D01*
X147056666Y-65437380D01*
X147151904Y-65389761D01*
X147199523Y-65342142D01*
X147247142Y-65246904D01*
X147247142Y-64961190D01*
X147199523Y-64865952D01*
X147151904Y-64818333D01*
X147056666Y-64770714D01*
X146866190Y-64770714D01*
X146770952Y-64818333D01*
X145532857Y-65056428D02*
X144770952Y-65056428D01*
X142961428Y-65437380D02*
X143294761Y-64961190D01*
X143532857Y-65437380D02*
X143532857Y-64437380D01*
X143151904Y-64437380D01*
X143056666Y-64485000D01*
X143009047Y-64532619D01*
X142961428Y-64627857D01*
X142961428Y-64770714D01*
X143009047Y-64865952D01*
X143056666Y-64913571D01*
X143151904Y-64961190D01*
X143532857Y-64961190D01*
X142151904Y-65389761D02*
X142247142Y-65437380D01*
X142437619Y-65437380D01*
X142532857Y-65389761D01*
X142580476Y-65294523D01*
X142580476Y-64913571D01*
X142532857Y-64818333D01*
X142437619Y-64770714D01*
X142247142Y-64770714D01*
X142151904Y-64818333D01*
X142104285Y-64913571D01*
X142104285Y-65008809D01*
X142580476Y-65104047D01*
X141675714Y-65437380D02*
X141675714Y-64770714D01*
X141675714Y-64865952D02*
X141628095Y-64818333D01*
X141532857Y-64770714D01*
X141390000Y-64770714D01*
X141294761Y-64818333D01*
X141247142Y-64913571D01*
X141247142Y-65437380D01*
X141247142Y-64913571D02*
X141199523Y-64818333D01*
X141104285Y-64770714D01*
X140961428Y-64770714D01*
X140866190Y-64818333D01*
X140818571Y-64913571D01*
X140818571Y-65437380D01*
X140199523Y-65437380D02*
X140294761Y-65389761D01*
X140342380Y-65342142D01*
X140390000Y-65246904D01*
X140390000Y-64961190D01*
X140342380Y-64865952D01*
X140294761Y-64818333D01*
X140199523Y-64770714D01*
X140056666Y-64770714D01*
X139961428Y-64818333D01*
X139913809Y-64865952D01*
X139866190Y-64961190D01*
X139866190Y-65246904D01*
X139913809Y-65342142D01*
X139961428Y-65389761D01*
X140056666Y-65437380D01*
X140199523Y-65437380D01*
X139580476Y-64770714D02*
X139199523Y-64770714D01*
X139437619Y-64437380D02*
X139437619Y-65294523D01*
X139390000Y-65389761D01*
X139294761Y-65437380D01*
X139199523Y-65437380D01*
X138485238Y-65389761D02*
X138580476Y-65437380D01*
X138770952Y-65437380D01*
X138866190Y-65389761D01*
X138913809Y-65294523D01*
X138913809Y-64913571D01*
X138866190Y-64818333D01*
X138770952Y-64770714D01*
X138580476Y-64770714D01*
X138485238Y-64818333D01*
X138437619Y-64913571D01*
X138437619Y-65008809D01*
X138913809Y-65104047D01*
X137247142Y-65437380D02*
X137247142Y-64437380D01*
X136913809Y-65151666D01*
X136580476Y-64437380D01*
X136580476Y-65437380D01*
X135961428Y-65437380D02*
X136056666Y-65389761D01*
X136104285Y-65342142D01*
X136151904Y-65246904D01*
X136151904Y-64961190D01*
X136104285Y-64865952D01*
X136056666Y-64818333D01*
X135961428Y-64770714D01*
X135818571Y-64770714D01*
X135723333Y-64818333D01*
X135675714Y-64865952D01*
X135628095Y-64961190D01*
X135628095Y-65246904D01*
X135675714Y-65342142D01*
X135723333Y-65389761D01*
X135818571Y-65437380D01*
X135961428Y-65437380D01*
X134770952Y-65437380D02*
X134770952Y-64437380D01*
X134770952Y-65389761D02*
X134866190Y-65437380D01*
X135056666Y-65437380D01*
X135151904Y-65389761D01*
X135199523Y-65342142D01*
X135247142Y-65246904D01*
X135247142Y-64961190D01*
X135199523Y-64865952D01*
X135151904Y-64818333D01*
X135056666Y-64770714D01*
X134866190Y-64770714D01*
X134770952Y-64818333D01*
X133866190Y-64770714D02*
X133866190Y-65437380D01*
X134294761Y-64770714D02*
X134294761Y-65294523D01*
X134247142Y-65389761D01*
X134151904Y-65437380D01*
X134009047Y-65437380D01*
X133913809Y-65389761D01*
X133866190Y-65342142D01*
X133247142Y-65437380D02*
X133342380Y-65389761D01*
X133390000Y-65294523D01*
X133390000Y-64437380D01*
X132485238Y-65389761D02*
X132580476Y-65437380D01*
X132770952Y-65437380D01*
X132866190Y-65389761D01*
X132913809Y-65294523D01*
X132913809Y-64913571D01*
X132866190Y-64818333D01*
X132770952Y-64770714D01*
X132580476Y-64770714D01*
X132485238Y-64818333D01*
X132437619Y-64913571D01*
X132437619Y-65008809D01*
X132913809Y-65104047D01*
X165580476Y-67047380D02*
X165913809Y-66571190D01*
X166151904Y-67047380D02*
X166151904Y-66047380D01*
X165770952Y-66047380D01*
X165675714Y-66095000D01*
X165628095Y-66142619D01*
X165580476Y-66237857D01*
X165580476Y-66380714D01*
X165628095Y-66475952D01*
X165675714Y-66523571D01*
X165770952Y-66571190D01*
X166151904Y-66571190D01*
X164770952Y-66999761D02*
X164866190Y-67047380D01*
X165056666Y-67047380D01*
X165151904Y-66999761D01*
X165199523Y-66904523D01*
X165199523Y-66523571D01*
X165151904Y-66428333D01*
X165056666Y-66380714D01*
X164866190Y-66380714D01*
X164770952Y-66428333D01*
X164723333Y-66523571D01*
X164723333Y-66618809D01*
X165199523Y-66714047D01*
X164390000Y-66380714D02*
X164151904Y-67047380D01*
X163913809Y-66380714D01*
X162818571Y-66761666D02*
X162342380Y-66761666D01*
X162913809Y-67047380D02*
X162580476Y-66047380D01*
X162247142Y-67047380D01*
X161913809Y-66952142D02*
X161866190Y-66999761D01*
X161913809Y-67047380D01*
X161961428Y-66999761D01*
X161913809Y-66952142D01*
X161913809Y-67047380D01*
D10*
X133690000Y-97002380D02*
X133690000Y-97240476D01*
X133928095Y-97145238D02*
X133690000Y-97240476D01*
X133451904Y-97145238D01*
X133832857Y-97430952D02*
X133690000Y-97240476D01*
X133547142Y-97430952D01*
X135071428Y-45122857D02*
X135071428Y-43922857D01*
X133814285Y-45008571D02*
X133871428Y-45065714D01*
X134042857Y-45122857D01*
X134157142Y-45122857D01*
X134328571Y-45065714D01*
X134442857Y-44951428D01*
X134500000Y-44837142D01*
X134557142Y-44608571D01*
X134557142Y-44437142D01*
X134500000Y-44208571D01*
X134442857Y-44094285D01*
X134328571Y-43980000D01*
X134157142Y-43922857D01*
X134042857Y-43922857D01*
X133871428Y-43980000D01*
X133814285Y-44037142D01*
X133357142Y-45065714D02*
X133185714Y-45122857D01*
X132900000Y-45122857D01*
X132785714Y-45065714D01*
X132728571Y-45008571D01*
X132671428Y-44894285D01*
X132671428Y-44780000D01*
X132728571Y-44665714D01*
X132785714Y-44608571D01*
X132900000Y-44551428D01*
X133128571Y-44494285D01*
X133242857Y-44437142D01*
X133300000Y-44380000D01*
X133357142Y-44265714D01*
X133357142Y-44151428D01*
X133300000Y-44037142D01*
X133242857Y-43980000D01*
X133128571Y-43922857D01*
X132842857Y-43922857D01*
X132671428Y-43980000D01*
X132157142Y-45122857D02*
X132157142Y-43922857D01*
X131700000Y-43922857D01*
X131585714Y-43980000D01*
X131528571Y-44037142D01*
X131471428Y-44151428D01*
X131471428Y-44322857D01*
X131528571Y-44437142D01*
X131585714Y-44494285D01*
X131700000Y-44551428D01*
X132157142Y-44551428D01*
%TO.C,D11*%
X137744285Y-50112380D02*
X137744285Y-49112380D01*
X137506190Y-49112380D01*
X137363333Y-49160000D01*
X137268095Y-49255238D01*
X137220476Y-49350476D01*
X137172857Y-49540952D01*
X137172857Y-49683809D01*
X137220476Y-49874285D01*
X137268095Y-49969523D01*
X137363333Y-50064761D01*
X137506190Y-50112380D01*
X137744285Y-50112380D01*
X136220476Y-50112380D02*
X136791904Y-50112380D01*
X136506190Y-50112380D02*
X136506190Y-49112380D01*
X136601428Y-49255238D01*
X136696666Y-49350476D01*
X136791904Y-49398095D01*
X135268095Y-50112380D02*
X135839523Y-50112380D01*
X135553809Y-50112380D02*
X135553809Y-49112380D01*
X135649047Y-49255238D01*
X135744285Y-49350476D01*
X135839523Y-49398095D01*
%TO.C,R11*%
X161852380Y-103667142D02*
X161376190Y-103333809D01*
X161852380Y-103095714D02*
X160852380Y-103095714D01*
X160852380Y-103476666D01*
X160900000Y-103571904D01*
X160947619Y-103619523D01*
X161042857Y-103667142D01*
X161185714Y-103667142D01*
X161280952Y-103619523D01*
X161328571Y-103571904D01*
X161376190Y-103476666D01*
X161376190Y-103095714D01*
X161852380Y-104619523D02*
X161852380Y-104048095D01*
X161852380Y-104333809D02*
X160852380Y-104333809D01*
X160995238Y-104238571D01*
X161090476Y-104143333D01*
X161138095Y-104048095D01*
X161852380Y-105571904D02*
X161852380Y-105000476D01*
X161852380Y-105286190D02*
X160852380Y-105286190D01*
X160995238Y-105190952D01*
X161090476Y-105095714D01*
X161138095Y-105000476D01*
%TO.C,R35*%
X152932380Y-44467142D02*
X152456190Y-44133809D01*
X152932380Y-43895714D02*
X151932380Y-43895714D01*
X151932380Y-44276666D01*
X151980000Y-44371904D01*
X152027619Y-44419523D01*
X152122857Y-44467142D01*
X152265714Y-44467142D01*
X152360952Y-44419523D01*
X152408571Y-44371904D01*
X152456190Y-44276666D01*
X152456190Y-43895714D01*
X151932380Y-44800476D02*
X151932380Y-45419523D01*
X152313333Y-45086190D01*
X152313333Y-45229047D01*
X152360952Y-45324285D01*
X152408571Y-45371904D01*
X152503809Y-45419523D01*
X152741904Y-45419523D01*
X152837142Y-45371904D01*
X152884761Y-45324285D01*
X152932380Y-45229047D01*
X152932380Y-44943333D01*
X152884761Y-44848095D01*
X152837142Y-44800476D01*
X151932380Y-46324285D02*
X151932380Y-45848095D01*
X152408571Y-45800476D01*
X152360952Y-45848095D01*
X152313333Y-45943333D01*
X152313333Y-46181428D01*
X152360952Y-46276666D01*
X152408571Y-46324285D01*
X152503809Y-46371904D01*
X152741904Y-46371904D01*
X152837142Y-46324285D01*
X152884761Y-46276666D01*
X152932380Y-46181428D01*
X152932380Y-45943333D01*
X152884761Y-45848095D01*
X152837142Y-45800476D01*
%TO.C,Q4*%
X117975238Y-64117619D02*
X118070476Y-64070000D01*
X118165714Y-63974761D01*
X118308571Y-63831904D01*
X118403809Y-63784285D01*
X118499047Y-63784285D01*
X118451428Y-64022380D02*
X118546666Y-63974761D01*
X118641904Y-63879523D01*
X118689523Y-63689047D01*
X118689523Y-63355714D01*
X118641904Y-63165238D01*
X118546666Y-63070000D01*
X118451428Y-63022380D01*
X118260952Y-63022380D01*
X118165714Y-63070000D01*
X118070476Y-63165238D01*
X118022857Y-63355714D01*
X118022857Y-63689047D01*
X118070476Y-63879523D01*
X118165714Y-63974761D01*
X118260952Y-64022380D01*
X118451428Y-64022380D01*
X117165714Y-63355714D02*
X117165714Y-64022380D01*
X117403809Y-62974761D02*
X117641904Y-63689047D01*
X117022857Y-63689047D01*
%TO.C,R1*%
X117426666Y-90102380D02*
X117760000Y-89626190D01*
X117998095Y-90102380D02*
X117998095Y-89102380D01*
X117617142Y-89102380D01*
X117521904Y-89150000D01*
X117474285Y-89197619D01*
X117426666Y-89292857D01*
X117426666Y-89435714D01*
X117474285Y-89530952D01*
X117521904Y-89578571D01*
X117617142Y-89626190D01*
X117998095Y-89626190D01*
X116474285Y-90102380D02*
X117045714Y-90102380D01*
X116760000Y-90102380D02*
X116760000Y-89102380D01*
X116855238Y-89245238D01*
X116950476Y-89340476D01*
X117045714Y-89388095D01*
%TO.C,J1*%
X132623333Y-85342380D02*
X132623333Y-86056666D01*
X132670952Y-86199523D01*
X132766190Y-86294761D01*
X132909047Y-86342380D01*
X133004285Y-86342380D01*
X131623333Y-86342380D02*
X132194761Y-86342380D01*
X131909047Y-86342380D02*
X131909047Y-85342380D01*
X132004285Y-85485238D01*
X132099523Y-85580476D01*
X132194761Y-85628095D01*
X130326190Y-83626666D02*
X129850000Y-83626666D01*
X130421428Y-83912380D02*
X130088095Y-82912380D01*
X129754761Y-83912380D01*
X128992857Y-83912380D02*
X128992857Y-82912380D01*
X128992857Y-83864761D02*
X129088095Y-83912380D01*
X129278571Y-83912380D01*
X129373809Y-83864761D01*
X129421428Y-83817142D01*
X129469047Y-83721904D01*
X129469047Y-83436190D01*
X129421428Y-83340952D01*
X129373809Y-83293333D01*
X129278571Y-83245714D01*
X129088095Y-83245714D01*
X128992857Y-83293333D01*
X128088095Y-83912380D02*
X128088095Y-83388571D01*
X128135714Y-83293333D01*
X128230952Y-83245714D01*
X128421428Y-83245714D01*
X128516666Y-83293333D01*
X128088095Y-83864761D02*
X128183333Y-83912380D01*
X128421428Y-83912380D01*
X128516666Y-83864761D01*
X128564285Y-83769523D01*
X128564285Y-83674285D01*
X128516666Y-83579047D01*
X128421428Y-83531428D01*
X128183333Y-83531428D01*
X128088095Y-83483809D01*
X127278571Y-83388571D02*
X127611904Y-83388571D01*
X127611904Y-83912380D02*
X127611904Y-82912380D01*
X127135714Y-82912380D01*
X126754761Y-83912380D02*
X126754761Y-83245714D01*
X126754761Y-83436190D02*
X126707142Y-83340952D01*
X126659523Y-83293333D01*
X126564285Y-83245714D01*
X126469047Y-83245714D01*
X125707142Y-83245714D02*
X125707142Y-83912380D01*
X126135714Y-83245714D02*
X126135714Y-83769523D01*
X126088095Y-83864761D01*
X125992857Y-83912380D01*
X125850000Y-83912380D01*
X125754761Y-83864761D01*
X125707142Y-83817142D01*
X125230952Y-83912380D02*
X125230952Y-83245714D01*
X125230952Y-82912380D02*
X125278571Y-82960000D01*
X125230952Y-83007619D01*
X125183333Y-82960000D01*
X125230952Y-82912380D01*
X125230952Y-83007619D01*
X124897619Y-83245714D02*
X124516666Y-83245714D01*
X124754761Y-82912380D02*
X124754761Y-83769523D01*
X124707142Y-83864761D01*
X124611904Y-83912380D01*
X124516666Y-83912380D01*
X123421428Y-83912380D02*
X123421428Y-82912380D01*
X123040476Y-82912380D01*
X122945238Y-82960000D01*
X122897619Y-83007619D01*
X122850000Y-83102857D01*
X122850000Y-83245714D01*
X122897619Y-83340952D01*
X122945238Y-83388571D01*
X123040476Y-83436190D01*
X123421428Y-83436190D01*
X122278571Y-83912380D02*
X122373809Y-83864761D01*
X122421428Y-83817142D01*
X122469047Y-83721904D01*
X122469047Y-83436190D01*
X122421428Y-83340952D01*
X122373809Y-83293333D01*
X122278571Y-83245714D01*
X122135714Y-83245714D01*
X122040476Y-83293333D01*
X121992857Y-83340952D01*
X121945238Y-83436190D01*
X121945238Y-83721904D01*
X121992857Y-83817142D01*
X122040476Y-83864761D01*
X122135714Y-83912380D01*
X122278571Y-83912380D01*
X121611904Y-83245714D02*
X121421428Y-83912380D01*
X121230952Y-83436190D01*
X121040476Y-83912380D01*
X120850000Y-83245714D01*
X120088095Y-83864761D02*
X120183333Y-83912380D01*
X120373809Y-83912380D01*
X120469047Y-83864761D01*
X120516666Y-83769523D01*
X120516666Y-83388571D01*
X120469047Y-83293333D01*
X120373809Y-83245714D01*
X120183333Y-83245714D01*
X120088095Y-83293333D01*
X120040476Y-83388571D01*
X120040476Y-83483809D01*
X120516666Y-83579047D01*
X119611904Y-83912380D02*
X119611904Y-83245714D01*
X119611904Y-83436190D02*
X119564285Y-83340952D01*
X119516666Y-83293333D01*
X119421428Y-83245714D01*
X119326190Y-83245714D01*
X118659523Y-83388571D02*
X118516666Y-83436190D01*
X118469047Y-83483809D01*
X118421428Y-83579047D01*
X118421428Y-83721904D01*
X118469047Y-83817142D01*
X118516666Y-83864761D01*
X118611904Y-83912380D01*
X118992857Y-83912380D01*
X118992857Y-82912380D01*
X118659523Y-82912380D01*
X118564285Y-82960000D01*
X118516666Y-83007619D01*
X118469047Y-83102857D01*
X118469047Y-83198095D01*
X118516666Y-83293333D01*
X118564285Y-83340952D01*
X118659523Y-83388571D01*
X118992857Y-83388571D01*
X117850000Y-83912380D02*
X117945238Y-83864761D01*
X117992857Y-83817142D01*
X118040476Y-83721904D01*
X118040476Y-83436190D01*
X117992857Y-83340952D01*
X117945238Y-83293333D01*
X117850000Y-83245714D01*
X117707142Y-83245714D01*
X117611904Y-83293333D01*
X117564285Y-83340952D01*
X117516666Y-83436190D01*
X117516666Y-83721904D01*
X117564285Y-83817142D01*
X117611904Y-83864761D01*
X117707142Y-83912380D01*
X117850000Y-83912380D01*
X116945238Y-83912380D02*
X117040476Y-83864761D01*
X117088095Y-83817142D01*
X117135714Y-83721904D01*
X117135714Y-83436190D01*
X117088095Y-83340952D01*
X117040476Y-83293333D01*
X116945238Y-83245714D01*
X116802380Y-83245714D01*
X116707142Y-83293333D01*
X116659523Y-83340952D01*
X116611904Y-83436190D01*
X116611904Y-83721904D01*
X116659523Y-83817142D01*
X116707142Y-83864761D01*
X116802380Y-83912380D01*
X116945238Y-83912380D01*
X116230952Y-83864761D02*
X116135714Y-83912380D01*
X115945238Y-83912380D01*
X115850000Y-83864761D01*
X115802380Y-83769523D01*
X115802380Y-83721904D01*
X115850000Y-83626666D01*
X115945238Y-83579047D01*
X116088095Y-83579047D01*
X116183333Y-83531428D01*
X116230952Y-83436190D01*
X116230952Y-83388571D01*
X116183333Y-83293333D01*
X116088095Y-83245714D01*
X115945238Y-83245714D01*
X115850000Y-83293333D01*
X115516666Y-83245714D02*
X115135714Y-83245714D01*
X115373809Y-82912380D02*
X115373809Y-83769523D01*
X115326190Y-83864761D01*
X115230952Y-83912380D01*
X115135714Y-83912380D01*
X114326190Y-82912380D02*
X114802380Y-82912380D01*
X114850000Y-83388571D01*
X114802380Y-83340952D01*
X114707142Y-83293333D01*
X114469047Y-83293333D01*
X114373809Y-83340952D01*
X114326190Y-83388571D01*
X114278571Y-83483809D01*
X114278571Y-83721904D01*
X114326190Y-83817142D01*
X114373809Y-83864761D01*
X114469047Y-83912380D01*
X114707142Y-83912380D01*
X114802380Y-83864761D01*
X114850000Y-83817142D01*
X113659523Y-82912380D02*
X113564285Y-82912380D01*
X113469047Y-82960000D01*
X113421428Y-83007619D01*
X113373809Y-83102857D01*
X113326190Y-83293333D01*
X113326190Y-83531428D01*
X113373809Y-83721904D01*
X113421428Y-83817142D01*
X113469047Y-83864761D01*
X113564285Y-83912380D01*
X113659523Y-83912380D01*
X113754761Y-83864761D01*
X113802380Y-83817142D01*
X113850000Y-83721904D01*
X113897619Y-83531428D01*
X113897619Y-83293333D01*
X113850000Y-83102857D01*
X113802380Y-83007619D01*
X113754761Y-82960000D01*
X113659523Y-82912380D01*
X112707142Y-82912380D02*
X112611904Y-82912380D01*
X112516666Y-82960000D01*
X112469047Y-83007619D01*
X112421428Y-83102857D01*
X112373809Y-83293333D01*
X112373809Y-83531428D01*
X112421428Y-83721904D01*
X112469047Y-83817142D01*
X112516666Y-83864761D01*
X112611904Y-83912380D01*
X112707142Y-83912380D01*
X112802380Y-83864761D01*
X112850000Y-83817142D01*
X112897619Y-83721904D01*
X112945238Y-83531428D01*
X112945238Y-83293333D01*
X112897619Y-83102857D01*
X112850000Y-83007619D01*
X112802380Y-82960000D01*
X112707142Y-82912380D01*
X111373809Y-83817142D02*
X111421428Y-83864761D01*
X111564285Y-83912380D01*
X111659523Y-83912380D01*
X111802380Y-83864761D01*
X111897619Y-83769523D01*
X111945238Y-83674285D01*
X111992857Y-83483809D01*
X111992857Y-83340952D01*
X111945238Y-83150476D01*
X111897619Y-83055238D01*
X111802380Y-82960000D01*
X111659523Y-82912380D01*
X111564285Y-82912380D01*
X111421428Y-82960000D01*
X111373809Y-83007619D01*
%TO.C,C35*%
X137312142Y-55312142D02*
X137359761Y-55264523D01*
X137407380Y-55121666D01*
X137407380Y-55026428D01*
X137359761Y-54883571D01*
X137264523Y-54788333D01*
X137169285Y-54740714D01*
X136978809Y-54693095D01*
X136835952Y-54693095D01*
X136645476Y-54740714D01*
X136550238Y-54788333D01*
X136455000Y-54883571D01*
X136407380Y-55026428D01*
X136407380Y-55121666D01*
X136455000Y-55264523D01*
X136502619Y-55312142D01*
X136407380Y-55645476D02*
X136407380Y-56264523D01*
X136788333Y-55931190D01*
X136788333Y-56074047D01*
X136835952Y-56169285D01*
X136883571Y-56216904D01*
X136978809Y-56264523D01*
X137216904Y-56264523D01*
X137312142Y-56216904D01*
X137359761Y-56169285D01*
X137407380Y-56074047D01*
X137407380Y-55788333D01*
X137359761Y-55693095D01*
X137312142Y-55645476D01*
X136407380Y-57169285D02*
X136407380Y-56693095D01*
X136883571Y-56645476D01*
X136835952Y-56693095D01*
X136788333Y-56788333D01*
X136788333Y-57026428D01*
X136835952Y-57121666D01*
X136883571Y-57169285D01*
X136978809Y-57216904D01*
X137216904Y-57216904D01*
X137312142Y-57169285D01*
X137359761Y-57121666D01*
X137407380Y-57026428D01*
X137407380Y-56788333D01*
X137359761Y-56693095D01*
X137312142Y-56645476D01*
%TO.C,Q3*%
X180215238Y-104347619D02*
X180310476Y-104300000D01*
X180405714Y-104204761D01*
X180548571Y-104061904D01*
X180643809Y-104014285D01*
X180739047Y-104014285D01*
X180691428Y-104252380D02*
X180786666Y-104204761D01*
X180881904Y-104109523D01*
X180929523Y-103919047D01*
X180929523Y-103585714D01*
X180881904Y-103395238D01*
X180786666Y-103300000D01*
X180691428Y-103252380D01*
X180500952Y-103252380D01*
X180405714Y-103300000D01*
X180310476Y-103395238D01*
X180262857Y-103585714D01*
X180262857Y-103919047D01*
X180310476Y-104109523D01*
X180405714Y-104204761D01*
X180500952Y-104252380D01*
X180691428Y-104252380D01*
X179929523Y-103252380D02*
X179310476Y-103252380D01*
X179643809Y-103633333D01*
X179500952Y-103633333D01*
X179405714Y-103680952D01*
X179358095Y-103728571D01*
X179310476Y-103823809D01*
X179310476Y-104061904D01*
X179358095Y-104157142D01*
X179405714Y-104204761D01*
X179500952Y-104252380D01*
X179786666Y-104252380D01*
X179881904Y-104204761D01*
X179929523Y-104157142D01*
%TO.C,R33*%
X121272857Y-107782380D02*
X121606190Y-107306190D01*
X121844285Y-107782380D02*
X121844285Y-106782380D01*
X121463333Y-106782380D01*
X121368095Y-106830000D01*
X121320476Y-106877619D01*
X121272857Y-106972857D01*
X121272857Y-107115714D01*
X121320476Y-107210952D01*
X121368095Y-107258571D01*
X121463333Y-107306190D01*
X121844285Y-107306190D01*
X120939523Y-106782380D02*
X120320476Y-106782380D01*
X120653809Y-107163333D01*
X120510952Y-107163333D01*
X120415714Y-107210952D01*
X120368095Y-107258571D01*
X120320476Y-107353809D01*
X120320476Y-107591904D01*
X120368095Y-107687142D01*
X120415714Y-107734761D01*
X120510952Y-107782380D01*
X120796666Y-107782380D01*
X120891904Y-107734761D01*
X120939523Y-107687142D01*
X119987142Y-106782380D02*
X119368095Y-106782380D01*
X119701428Y-107163333D01*
X119558571Y-107163333D01*
X119463333Y-107210952D01*
X119415714Y-107258571D01*
X119368095Y-107353809D01*
X119368095Y-107591904D01*
X119415714Y-107687142D01*
X119463333Y-107734761D01*
X119558571Y-107782380D01*
X119844285Y-107782380D01*
X119939523Y-107734761D01*
X119987142Y-107687142D01*
%TO.C,R36*%
X121257857Y-109112380D02*
X121591190Y-108636190D01*
X121829285Y-109112380D02*
X121829285Y-108112380D01*
X121448333Y-108112380D01*
X121353095Y-108160000D01*
X121305476Y-108207619D01*
X121257857Y-108302857D01*
X121257857Y-108445714D01*
X121305476Y-108540952D01*
X121353095Y-108588571D01*
X121448333Y-108636190D01*
X121829285Y-108636190D01*
X120924523Y-108112380D02*
X120305476Y-108112380D01*
X120638809Y-108493333D01*
X120495952Y-108493333D01*
X120400714Y-108540952D01*
X120353095Y-108588571D01*
X120305476Y-108683809D01*
X120305476Y-108921904D01*
X120353095Y-109017142D01*
X120400714Y-109064761D01*
X120495952Y-109112380D01*
X120781666Y-109112380D01*
X120876904Y-109064761D01*
X120924523Y-109017142D01*
X119448333Y-108112380D02*
X119638809Y-108112380D01*
X119734047Y-108160000D01*
X119781666Y-108207619D01*
X119876904Y-108350476D01*
X119924523Y-108540952D01*
X119924523Y-108921904D01*
X119876904Y-109017142D01*
X119829285Y-109064761D01*
X119734047Y-109112380D01*
X119543571Y-109112380D01*
X119448333Y-109064761D01*
X119400714Y-109017142D01*
X119353095Y-108921904D01*
X119353095Y-108683809D01*
X119400714Y-108588571D01*
X119448333Y-108540952D01*
X119543571Y-108493333D01*
X119734047Y-108493333D01*
X119829285Y-108540952D01*
X119876904Y-108588571D01*
X119924523Y-108683809D01*
%TO.C,U5*%
X128441904Y-90922380D02*
X128441904Y-91731904D01*
X128394285Y-91827142D01*
X128346666Y-91874761D01*
X128251428Y-91922380D01*
X128060952Y-91922380D01*
X127965714Y-91874761D01*
X127918095Y-91827142D01*
X127870476Y-91731904D01*
X127870476Y-90922380D01*
X126918095Y-90922380D02*
X127394285Y-90922380D01*
X127441904Y-91398571D01*
X127394285Y-91350952D01*
X127299047Y-91303333D01*
X127060952Y-91303333D01*
X126965714Y-91350952D01*
X126918095Y-91398571D01*
X126870476Y-91493809D01*
X126870476Y-91731904D01*
X126918095Y-91827142D01*
X126965714Y-91874761D01*
X127060952Y-91922380D01*
X127299047Y-91922380D01*
X127394285Y-91874761D01*
X127441904Y-91827142D01*
%TO.C,R27*%
X137222857Y-48092380D02*
X137556190Y-47616190D01*
X137794285Y-48092380D02*
X137794285Y-47092380D01*
X137413333Y-47092380D01*
X137318095Y-47140000D01*
X137270476Y-47187619D01*
X137222857Y-47282857D01*
X137222857Y-47425714D01*
X137270476Y-47520952D01*
X137318095Y-47568571D01*
X137413333Y-47616190D01*
X137794285Y-47616190D01*
X136841904Y-47187619D02*
X136794285Y-47140000D01*
X136699047Y-47092380D01*
X136460952Y-47092380D01*
X136365714Y-47140000D01*
X136318095Y-47187619D01*
X136270476Y-47282857D01*
X136270476Y-47378095D01*
X136318095Y-47520952D01*
X136889523Y-48092380D01*
X136270476Y-48092380D01*
X135937142Y-47092380D02*
X135270476Y-47092380D01*
X135699047Y-48092380D01*
%TO.C,Q8*%
X111905238Y-72487619D02*
X112000476Y-72440000D01*
X112095714Y-72344761D01*
X112238571Y-72201904D01*
X112333809Y-72154285D01*
X112429047Y-72154285D01*
X112381428Y-72392380D02*
X112476666Y-72344761D01*
X112571904Y-72249523D01*
X112619523Y-72059047D01*
X112619523Y-71725714D01*
X112571904Y-71535238D01*
X112476666Y-71440000D01*
X112381428Y-71392380D01*
X112190952Y-71392380D01*
X112095714Y-71440000D01*
X112000476Y-71535238D01*
X111952857Y-71725714D01*
X111952857Y-72059047D01*
X112000476Y-72249523D01*
X112095714Y-72344761D01*
X112190952Y-72392380D01*
X112381428Y-72392380D01*
X111381428Y-71820952D02*
X111476666Y-71773333D01*
X111524285Y-71725714D01*
X111571904Y-71630476D01*
X111571904Y-71582857D01*
X111524285Y-71487619D01*
X111476666Y-71440000D01*
X111381428Y-71392380D01*
X111190952Y-71392380D01*
X111095714Y-71440000D01*
X111048095Y-71487619D01*
X111000476Y-71582857D01*
X111000476Y-71630476D01*
X111048095Y-71725714D01*
X111095714Y-71773333D01*
X111190952Y-71820952D01*
X111381428Y-71820952D01*
X111476666Y-71868571D01*
X111524285Y-71916190D01*
X111571904Y-72011428D01*
X111571904Y-72201904D01*
X111524285Y-72297142D01*
X111476666Y-72344761D01*
X111381428Y-72392380D01*
X111190952Y-72392380D01*
X111095714Y-72344761D01*
X111048095Y-72297142D01*
X111000476Y-72201904D01*
X111000476Y-72011428D01*
X111048095Y-71916190D01*
X111095714Y-71868571D01*
X111190952Y-71820952D01*
%TO.C,R31*%
X177732380Y-103917142D02*
X177256190Y-103583809D01*
X177732380Y-103345714D02*
X176732380Y-103345714D01*
X176732380Y-103726666D01*
X176780000Y-103821904D01*
X176827619Y-103869523D01*
X176922857Y-103917142D01*
X177065714Y-103917142D01*
X177160952Y-103869523D01*
X177208571Y-103821904D01*
X177256190Y-103726666D01*
X177256190Y-103345714D01*
X176732380Y-104250476D02*
X176732380Y-104869523D01*
X177113333Y-104536190D01*
X177113333Y-104679047D01*
X177160952Y-104774285D01*
X177208571Y-104821904D01*
X177303809Y-104869523D01*
X177541904Y-104869523D01*
X177637142Y-104821904D01*
X177684761Y-104774285D01*
X177732380Y-104679047D01*
X177732380Y-104393333D01*
X177684761Y-104298095D01*
X177637142Y-104250476D01*
X177732380Y-105821904D02*
X177732380Y-105250476D01*
X177732380Y-105536190D02*
X176732380Y-105536190D01*
X176875238Y-105440952D01*
X176970476Y-105345714D01*
X177018095Y-105250476D01*
%TO.C,U2*%
X166891904Y-79322380D02*
X166891904Y-80131904D01*
X166844285Y-80227142D01*
X166796666Y-80274761D01*
X166701428Y-80322380D01*
X166510952Y-80322380D01*
X166415714Y-80274761D01*
X166368095Y-80227142D01*
X166320476Y-80131904D01*
X166320476Y-79322380D01*
X165891904Y-79417619D02*
X165844285Y-79370000D01*
X165749047Y-79322380D01*
X165510952Y-79322380D01*
X165415714Y-79370000D01*
X165368095Y-79417619D01*
X165320476Y-79512857D01*
X165320476Y-79608095D01*
X165368095Y-79750952D01*
X165939523Y-80322380D01*
X165320476Y-80322380D01*
%TO.C,R56*%
X115312380Y-71797142D02*
X114836190Y-71463809D01*
X115312380Y-71225714D02*
X114312380Y-71225714D01*
X114312380Y-71606666D01*
X114360000Y-71701904D01*
X114407619Y-71749523D01*
X114502857Y-71797142D01*
X114645714Y-71797142D01*
X114740952Y-71749523D01*
X114788571Y-71701904D01*
X114836190Y-71606666D01*
X114836190Y-71225714D01*
X114312380Y-72701904D02*
X114312380Y-72225714D01*
X114788571Y-72178095D01*
X114740952Y-72225714D01*
X114693333Y-72320952D01*
X114693333Y-72559047D01*
X114740952Y-72654285D01*
X114788571Y-72701904D01*
X114883809Y-72749523D01*
X115121904Y-72749523D01*
X115217142Y-72701904D01*
X115264761Y-72654285D01*
X115312380Y-72559047D01*
X115312380Y-72320952D01*
X115264761Y-72225714D01*
X115217142Y-72178095D01*
X114312380Y-73606666D02*
X114312380Y-73416190D01*
X114360000Y-73320952D01*
X114407619Y-73273333D01*
X114550476Y-73178095D01*
X114740952Y-73130476D01*
X115121904Y-73130476D01*
X115217142Y-73178095D01*
X115264761Y-73225714D01*
X115312380Y-73320952D01*
X115312380Y-73511428D01*
X115264761Y-73606666D01*
X115217142Y-73654285D01*
X115121904Y-73701904D01*
X114883809Y-73701904D01*
X114788571Y-73654285D01*
X114740952Y-73606666D01*
X114693333Y-73511428D01*
X114693333Y-73320952D01*
X114740952Y-73225714D01*
X114788571Y-73178095D01*
X114883809Y-73130476D01*
%TO.C,Q6*%
X142665238Y-60777619D02*
X142760476Y-60730000D01*
X142855714Y-60634761D01*
X142998571Y-60491904D01*
X143093809Y-60444285D01*
X143189047Y-60444285D01*
X143141428Y-60682380D02*
X143236666Y-60634761D01*
X143331904Y-60539523D01*
X143379523Y-60349047D01*
X143379523Y-60015714D01*
X143331904Y-59825238D01*
X143236666Y-59730000D01*
X143141428Y-59682380D01*
X142950952Y-59682380D01*
X142855714Y-59730000D01*
X142760476Y-59825238D01*
X142712857Y-60015714D01*
X142712857Y-60349047D01*
X142760476Y-60539523D01*
X142855714Y-60634761D01*
X142950952Y-60682380D01*
X143141428Y-60682380D01*
X141855714Y-59682380D02*
X142046190Y-59682380D01*
X142141428Y-59730000D01*
X142189047Y-59777619D01*
X142284285Y-59920476D01*
X142331904Y-60110952D01*
X142331904Y-60491904D01*
X142284285Y-60587142D01*
X142236666Y-60634761D01*
X142141428Y-60682380D01*
X141950952Y-60682380D01*
X141855714Y-60634761D01*
X141808095Y-60587142D01*
X141760476Y-60491904D01*
X141760476Y-60253809D01*
X141808095Y-60158571D01*
X141855714Y-60110952D01*
X141950952Y-60063333D01*
X142141428Y-60063333D01*
X142236666Y-60110952D01*
X142284285Y-60158571D01*
X142331904Y-60253809D01*
%TO.C,R12*%
X160362380Y-103667142D02*
X159886190Y-103333809D01*
X160362380Y-103095714D02*
X159362380Y-103095714D01*
X159362380Y-103476666D01*
X159410000Y-103571904D01*
X159457619Y-103619523D01*
X159552857Y-103667142D01*
X159695714Y-103667142D01*
X159790952Y-103619523D01*
X159838571Y-103571904D01*
X159886190Y-103476666D01*
X159886190Y-103095714D01*
X160362380Y-104619523D02*
X160362380Y-104048095D01*
X160362380Y-104333809D02*
X159362380Y-104333809D01*
X159505238Y-104238571D01*
X159600476Y-104143333D01*
X159648095Y-104048095D01*
X159457619Y-105000476D02*
X159410000Y-105048095D01*
X159362380Y-105143333D01*
X159362380Y-105381428D01*
X159410000Y-105476666D01*
X159457619Y-105524285D01*
X159552857Y-105571904D01*
X159648095Y-105571904D01*
X159790952Y-105524285D01*
X160362380Y-104952857D01*
X160362380Y-105571904D01*
%TO.C,R17*%
X173442380Y-77747142D02*
X172966190Y-77413809D01*
X173442380Y-77175714D02*
X172442380Y-77175714D01*
X172442380Y-77556666D01*
X172490000Y-77651904D01*
X172537619Y-77699523D01*
X172632857Y-77747142D01*
X172775714Y-77747142D01*
X172870952Y-77699523D01*
X172918571Y-77651904D01*
X172966190Y-77556666D01*
X172966190Y-77175714D01*
X173442380Y-78699523D02*
X173442380Y-78128095D01*
X173442380Y-78413809D02*
X172442380Y-78413809D01*
X172585238Y-78318571D01*
X172680476Y-78223333D01*
X172728095Y-78128095D01*
X172442380Y-79032857D02*
X172442380Y-79699523D01*
X173442380Y-79270952D01*
%TO.C,U4*%
X182751904Y-85372380D02*
X182751904Y-86181904D01*
X182704285Y-86277142D01*
X182656666Y-86324761D01*
X182561428Y-86372380D01*
X182370952Y-86372380D01*
X182275714Y-86324761D01*
X182228095Y-86277142D01*
X182180476Y-86181904D01*
X182180476Y-85372380D01*
X181275714Y-85705714D02*
X181275714Y-86372380D01*
X181513809Y-85324761D02*
X181751904Y-86039047D01*
X181132857Y-86039047D01*
X180742619Y-85280000D02*
X180504523Y-85280000D01*
X180599761Y-85518095D02*
X180504523Y-85280000D01*
X180599761Y-85041904D01*
X180314047Y-85422857D02*
X180504523Y-85280000D01*
X180314047Y-85137142D01*
%TO.C,C6*%
X161337142Y-73883333D02*
X161384761Y-73835714D01*
X161432380Y-73692857D01*
X161432380Y-73597619D01*
X161384761Y-73454761D01*
X161289523Y-73359523D01*
X161194285Y-73311904D01*
X161003809Y-73264285D01*
X160860952Y-73264285D01*
X160670476Y-73311904D01*
X160575238Y-73359523D01*
X160480000Y-73454761D01*
X160432380Y-73597619D01*
X160432380Y-73692857D01*
X160480000Y-73835714D01*
X160527619Y-73883333D01*
X160432380Y-74740476D02*
X160432380Y-74550000D01*
X160480000Y-74454761D01*
X160527619Y-74407142D01*
X160670476Y-74311904D01*
X160860952Y-74264285D01*
X161241904Y-74264285D01*
X161337142Y-74311904D01*
X161384761Y-74359523D01*
X161432380Y-74454761D01*
X161432380Y-74645238D01*
X161384761Y-74740476D01*
X161337142Y-74788095D01*
X161241904Y-74835714D01*
X161003809Y-74835714D01*
X160908571Y-74788095D01*
X160860952Y-74740476D01*
X160813333Y-74645238D01*
X160813333Y-74454761D01*
X160860952Y-74359523D01*
X160908571Y-74311904D01*
X161003809Y-74264285D01*
%TO.C,J2*%
X169493333Y-52862381D02*
X169493333Y-53576667D01*
X169540952Y-53719524D01*
X169636190Y-53814762D01*
X169779047Y-53862381D01*
X169874285Y-53862381D01*
X169064761Y-52957620D02*
X169017142Y-52910001D01*
X168921904Y-52862381D01*
X168683809Y-52862381D01*
X168588571Y-52910001D01*
X168540952Y-52957620D01*
X168493333Y-53052858D01*
X168493333Y-53148096D01*
X168540952Y-53290953D01*
X169112380Y-53862381D01*
X168493333Y-53862381D01*
%TO.C,Q7*%
X117965238Y-72417619D02*
X118060476Y-72370000D01*
X118155714Y-72274761D01*
X118298571Y-72131904D01*
X118393809Y-72084285D01*
X118489047Y-72084285D01*
X118441428Y-72322380D02*
X118536666Y-72274761D01*
X118631904Y-72179523D01*
X118679523Y-71989047D01*
X118679523Y-71655714D01*
X118631904Y-71465238D01*
X118536666Y-71370000D01*
X118441428Y-71322380D01*
X118250952Y-71322380D01*
X118155714Y-71370000D01*
X118060476Y-71465238D01*
X118012857Y-71655714D01*
X118012857Y-71989047D01*
X118060476Y-72179523D01*
X118155714Y-72274761D01*
X118250952Y-72322380D01*
X118441428Y-72322380D01*
X117679523Y-71322380D02*
X117012857Y-71322380D01*
X117441428Y-72322380D01*
%TO.C,R5*%
X158362380Y-80323333D02*
X157886190Y-79990000D01*
X158362380Y-79751904D02*
X157362380Y-79751904D01*
X157362380Y-80132857D01*
X157410000Y-80228095D01*
X157457619Y-80275714D01*
X157552857Y-80323333D01*
X157695714Y-80323333D01*
X157790952Y-80275714D01*
X157838571Y-80228095D01*
X157886190Y-80132857D01*
X157886190Y-79751904D01*
X157362380Y-81228095D02*
X157362380Y-80751904D01*
X157838571Y-80704285D01*
X157790952Y-80751904D01*
X157743333Y-80847142D01*
X157743333Y-81085238D01*
X157790952Y-81180476D01*
X157838571Y-81228095D01*
X157933809Y-81275714D01*
X158171904Y-81275714D01*
X158267142Y-81228095D01*
X158314761Y-81180476D01*
X158362380Y-81085238D01*
X158362380Y-80847142D01*
X158314761Y-80751904D01*
X158267142Y-80704285D01*
%TO.C,R19*%
X180762380Y-78247142D02*
X180286190Y-77913809D01*
X180762380Y-77675714D02*
X179762380Y-77675714D01*
X179762380Y-78056666D01*
X179810000Y-78151904D01*
X179857619Y-78199523D01*
X179952857Y-78247142D01*
X180095714Y-78247142D01*
X180190952Y-78199523D01*
X180238571Y-78151904D01*
X180286190Y-78056666D01*
X180286190Y-77675714D01*
X180762380Y-79199523D02*
X180762380Y-78628095D01*
X180762380Y-78913809D02*
X179762380Y-78913809D01*
X179905238Y-78818571D01*
X180000476Y-78723333D01*
X180048095Y-78628095D01*
X180762380Y-79675714D02*
X180762380Y-79866190D01*
X180714761Y-79961428D01*
X180667142Y-80009047D01*
X180524285Y-80104285D01*
X180333809Y-80151904D01*
X179952857Y-80151904D01*
X179857619Y-80104285D01*
X179810000Y-80056666D01*
X179762380Y-79961428D01*
X179762380Y-79770952D01*
X179810000Y-79675714D01*
X179857619Y-79628095D01*
X179952857Y-79580476D01*
X180190952Y-79580476D01*
X180286190Y-79628095D01*
X180333809Y-79675714D01*
X180381428Y-79770952D01*
X180381428Y-79961428D01*
X180333809Y-80056666D01*
X180286190Y-80104285D01*
X180190952Y-80151904D01*
%TO.C,D9*%
X131378095Y-50082380D02*
X131378095Y-49082380D01*
X131140000Y-49082380D01*
X130997142Y-49130000D01*
X130901904Y-49225238D01*
X130854285Y-49320476D01*
X130806666Y-49510952D01*
X130806666Y-49653809D01*
X130854285Y-49844285D01*
X130901904Y-49939523D01*
X130997142Y-50034761D01*
X131140000Y-50082380D01*
X131378095Y-50082380D01*
X130330476Y-50082380D02*
X130140000Y-50082380D01*
X130044761Y-50034761D01*
X129997142Y-49987142D01*
X129901904Y-49844285D01*
X129854285Y-49653809D01*
X129854285Y-49272857D01*
X129901904Y-49177619D01*
X129949523Y-49130000D01*
X130044761Y-49082380D01*
X130235238Y-49082380D01*
X130330476Y-49130000D01*
X130378095Y-49177619D01*
X130425714Y-49272857D01*
X130425714Y-49510952D01*
X130378095Y-49606190D01*
X130330476Y-49653809D01*
X130235238Y-49701428D01*
X130044761Y-49701428D01*
X129949523Y-49653809D01*
X129901904Y-49606190D01*
X129854285Y-49510952D01*
%TO.C,C39*%
X185917142Y-78987142D02*
X185964761Y-78939523D01*
X186012380Y-78796666D01*
X186012380Y-78701428D01*
X185964761Y-78558571D01*
X185869523Y-78463333D01*
X185774285Y-78415714D01*
X185583809Y-78368095D01*
X185440952Y-78368095D01*
X185250476Y-78415714D01*
X185155238Y-78463333D01*
X185060000Y-78558571D01*
X185012380Y-78701428D01*
X185012380Y-78796666D01*
X185060000Y-78939523D01*
X185107619Y-78987142D01*
X185012380Y-79320476D02*
X185012380Y-79939523D01*
X185393333Y-79606190D01*
X185393333Y-79749047D01*
X185440952Y-79844285D01*
X185488571Y-79891904D01*
X185583809Y-79939523D01*
X185821904Y-79939523D01*
X185917142Y-79891904D01*
X185964761Y-79844285D01*
X186012380Y-79749047D01*
X186012380Y-79463333D01*
X185964761Y-79368095D01*
X185917142Y-79320476D01*
X186012380Y-80415714D02*
X186012380Y-80606190D01*
X185964761Y-80701428D01*
X185917142Y-80749047D01*
X185774285Y-80844285D01*
X185583809Y-80891904D01*
X185202857Y-80891904D01*
X185107619Y-80844285D01*
X185060000Y-80796666D01*
X185012380Y-80701428D01*
X185012380Y-80510952D01*
X185060000Y-80415714D01*
X185107619Y-80368095D01*
X185202857Y-80320476D01*
X185440952Y-80320476D01*
X185536190Y-80368095D01*
X185583809Y-80415714D01*
X185631428Y-80510952D01*
X185631428Y-80701428D01*
X185583809Y-80796666D01*
X185536190Y-80844285D01*
X185440952Y-80891904D01*
%TO.C,R49*%
X125392857Y-70102380D02*
X125726190Y-69626190D01*
X125964285Y-70102380D02*
X125964285Y-69102380D01*
X125583333Y-69102380D01*
X125488095Y-69150000D01*
X125440476Y-69197619D01*
X125392857Y-69292857D01*
X125392857Y-69435714D01*
X125440476Y-69530952D01*
X125488095Y-69578571D01*
X125583333Y-69626190D01*
X125964285Y-69626190D01*
X124535714Y-69435714D02*
X124535714Y-70102380D01*
X124773809Y-69054761D02*
X125011904Y-69769047D01*
X124392857Y-69769047D01*
X123964285Y-70102380D02*
X123773809Y-70102380D01*
X123678571Y-70054761D01*
X123630952Y-70007142D01*
X123535714Y-69864285D01*
X123488095Y-69673809D01*
X123488095Y-69292857D01*
X123535714Y-69197619D01*
X123583333Y-69150000D01*
X123678571Y-69102380D01*
X123869047Y-69102380D01*
X123964285Y-69150000D01*
X124011904Y-69197619D01*
X124059523Y-69292857D01*
X124059523Y-69530952D01*
X124011904Y-69626190D01*
X123964285Y-69673809D01*
X123869047Y-69721428D01*
X123678571Y-69721428D01*
X123583333Y-69673809D01*
X123535714Y-69626190D01*
X123488095Y-69530952D01*
%TO.C,D13*%
X124953785Y-100677380D02*
X124953785Y-99677380D01*
X124715690Y-99677380D01*
X124572833Y-99725000D01*
X124477595Y-99820238D01*
X124429976Y-99915476D01*
X124382357Y-100105952D01*
X124382357Y-100248809D01*
X124429976Y-100439285D01*
X124477595Y-100534523D01*
X124572833Y-100629761D01*
X124715690Y-100677380D01*
X124953785Y-100677380D01*
X123429976Y-100677380D02*
X124001404Y-100677380D01*
X123715690Y-100677380D02*
X123715690Y-99677380D01*
X123810928Y-99820238D01*
X123906166Y-99915476D01*
X124001404Y-99963095D01*
X123096642Y-99677380D02*
X122477595Y-99677380D01*
X122810928Y-100058333D01*
X122668071Y-100058333D01*
X122572833Y-100105952D01*
X122525214Y-100153571D01*
X122477595Y-100248809D01*
X122477595Y-100486904D01*
X122525214Y-100582142D01*
X122572833Y-100629761D01*
X122668071Y-100677380D01*
X122953785Y-100677380D01*
X123049023Y-100629761D01*
X123096642Y-100582142D01*
%TO.C,R44*%
X147122380Y-58607142D02*
X146646190Y-58273809D01*
X147122380Y-58035714D02*
X146122380Y-58035714D01*
X146122380Y-58416666D01*
X146170000Y-58511904D01*
X146217619Y-58559523D01*
X146312857Y-58607142D01*
X146455714Y-58607142D01*
X146550952Y-58559523D01*
X146598571Y-58511904D01*
X146646190Y-58416666D01*
X146646190Y-58035714D01*
X146455714Y-59464285D02*
X147122380Y-59464285D01*
X146074761Y-59226190D02*
X146789047Y-58988095D01*
X146789047Y-59607142D01*
X146455714Y-60416666D02*
X147122380Y-60416666D01*
X146074761Y-60178571D02*
X146789047Y-59940476D01*
X146789047Y-60559523D01*
%TO.C,R24*%
X137092857Y-107752380D02*
X137426190Y-107276190D01*
X137664285Y-107752380D02*
X137664285Y-106752380D01*
X137283333Y-106752380D01*
X137188095Y-106800000D01*
X137140476Y-106847619D01*
X137092857Y-106942857D01*
X137092857Y-107085714D01*
X137140476Y-107180952D01*
X137188095Y-107228571D01*
X137283333Y-107276190D01*
X137664285Y-107276190D01*
X136711904Y-106847619D02*
X136664285Y-106800000D01*
X136569047Y-106752380D01*
X136330952Y-106752380D01*
X136235714Y-106800000D01*
X136188095Y-106847619D01*
X136140476Y-106942857D01*
X136140476Y-107038095D01*
X136188095Y-107180952D01*
X136759523Y-107752380D01*
X136140476Y-107752380D01*
X135283333Y-107085714D02*
X135283333Y-107752380D01*
X135521428Y-106704761D02*
X135759523Y-107419047D01*
X135140476Y-107419047D01*
%TO.C,R43*%
X125542857Y-60302380D02*
X125876190Y-59826190D01*
X126114285Y-60302380D02*
X126114285Y-59302380D01*
X125733333Y-59302380D01*
X125638095Y-59350000D01*
X125590476Y-59397619D01*
X125542857Y-59492857D01*
X125542857Y-59635714D01*
X125590476Y-59730952D01*
X125638095Y-59778571D01*
X125733333Y-59826190D01*
X126114285Y-59826190D01*
X124685714Y-59635714D02*
X124685714Y-60302380D01*
X124923809Y-59254761D02*
X125161904Y-59969047D01*
X124542857Y-59969047D01*
X124257142Y-59302380D02*
X123638095Y-59302380D01*
X123971428Y-59683333D01*
X123828571Y-59683333D01*
X123733333Y-59730952D01*
X123685714Y-59778571D01*
X123638095Y-59873809D01*
X123638095Y-60111904D01*
X123685714Y-60207142D01*
X123733333Y-60254761D01*
X123828571Y-60302380D01*
X124114285Y-60302380D01*
X124209523Y-60254761D01*
X124257142Y-60207142D01*
%TO.C,R45*%
X148832380Y-58617142D02*
X148356190Y-58283809D01*
X148832380Y-58045714D02*
X147832380Y-58045714D01*
X147832380Y-58426666D01*
X147880000Y-58521904D01*
X147927619Y-58569523D01*
X148022857Y-58617142D01*
X148165714Y-58617142D01*
X148260952Y-58569523D01*
X148308571Y-58521904D01*
X148356190Y-58426666D01*
X148356190Y-58045714D01*
X148165714Y-59474285D02*
X148832380Y-59474285D01*
X147784761Y-59236190D02*
X148499047Y-58998095D01*
X148499047Y-59617142D01*
X147832380Y-60474285D02*
X147832380Y-59998095D01*
X148308571Y-59950476D01*
X148260952Y-59998095D01*
X148213333Y-60093333D01*
X148213333Y-60331428D01*
X148260952Y-60426666D01*
X148308571Y-60474285D01*
X148403809Y-60521904D01*
X148641904Y-60521904D01*
X148737142Y-60474285D01*
X148784761Y-60426666D01*
X148832380Y-60331428D01*
X148832380Y-60093333D01*
X148784761Y-59998095D01*
X148737142Y-59950476D01*
%TO.C,R47*%
X135772380Y-52007142D02*
X135296190Y-51673809D01*
X135772380Y-51435714D02*
X134772380Y-51435714D01*
X134772380Y-51816666D01*
X134820000Y-51911904D01*
X134867619Y-51959523D01*
X134962857Y-52007142D01*
X135105714Y-52007142D01*
X135200952Y-51959523D01*
X135248571Y-51911904D01*
X135296190Y-51816666D01*
X135296190Y-51435714D01*
X135105714Y-52864285D02*
X135772380Y-52864285D01*
X134724761Y-52626190D02*
X135439047Y-52388095D01*
X135439047Y-53007142D01*
X134772380Y-53292857D02*
X134772380Y-53959523D01*
X135772380Y-53530952D01*
%TO.C,J3*%
X137403333Y-44132380D02*
X137403333Y-44846666D01*
X137450952Y-44989523D01*
X137546190Y-45084761D01*
X137689047Y-45132380D01*
X137784285Y-45132380D01*
X137022380Y-44132380D02*
X136403333Y-44132380D01*
X136736666Y-44513333D01*
X136593809Y-44513333D01*
X136498571Y-44560952D01*
X136450952Y-44608571D01*
X136403333Y-44703809D01*
X136403333Y-44941904D01*
X136450952Y-45037142D01*
X136498571Y-45084761D01*
X136593809Y-45132380D01*
X136879523Y-45132380D01*
X136974761Y-45084761D01*
X137022380Y-45037142D01*
%TO.C,C37*%
X187397142Y-78987142D02*
X187444761Y-78939523D01*
X187492380Y-78796666D01*
X187492380Y-78701428D01*
X187444761Y-78558571D01*
X187349523Y-78463333D01*
X187254285Y-78415714D01*
X187063809Y-78368095D01*
X186920952Y-78368095D01*
X186730476Y-78415714D01*
X186635238Y-78463333D01*
X186540000Y-78558571D01*
X186492380Y-78701428D01*
X186492380Y-78796666D01*
X186540000Y-78939523D01*
X186587619Y-78987142D01*
X186492380Y-79320476D02*
X186492380Y-79939523D01*
X186873333Y-79606190D01*
X186873333Y-79749047D01*
X186920952Y-79844285D01*
X186968571Y-79891904D01*
X187063809Y-79939523D01*
X187301904Y-79939523D01*
X187397142Y-79891904D01*
X187444761Y-79844285D01*
X187492380Y-79749047D01*
X187492380Y-79463333D01*
X187444761Y-79368095D01*
X187397142Y-79320476D01*
X186492380Y-80272857D02*
X186492380Y-80939523D01*
X187492380Y-80510952D01*
%TO.C,U7*%
X173581904Y-52952380D02*
X173581904Y-53761904D01*
X173534285Y-53857142D01*
X173486666Y-53904761D01*
X173391428Y-53952380D01*
X173200952Y-53952380D01*
X173105714Y-53904761D01*
X173058095Y-53857142D01*
X173010476Y-53761904D01*
X173010476Y-52952380D01*
X172629523Y-52952380D02*
X171962857Y-52952380D01*
X172391428Y-53952380D01*
X172478571Y-54926190D02*
X172478571Y-55259523D01*
X173002380Y-55402380D02*
X173002380Y-54926190D01*
X172002380Y-54926190D01*
X172002380Y-55402380D01*
X172954761Y-55783333D02*
X173002380Y-55926190D01*
X173002380Y-56164285D01*
X172954761Y-56259523D01*
X172907142Y-56307142D01*
X172811904Y-56354761D01*
X172716666Y-56354761D01*
X172621428Y-56307142D01*
X172573809Y-56259523D01*
X172526190Y-56164285D01*
X172478571Y-55973809D01*
X172430952Y-55878571D01*
X172383333Y-55830952D01*
X172288095Y-55783333D01*
X172192857Y-55783333D01*
X172097619Y-55830952D01*
X172050000Y-55878571D01*
X172002380Y-55973809D01*
X172002380Y-56211904D01*
X172050000Y-56354761D01*
X173002380Y-56783333D02*
X172002380Y-56783333D01*
X172002380Y-57164285D01*
X172050000Y-57259523D01*
X172097619Y-57307142D01*
X172192857Y-57354761D01*
X172335714Y-57354761D01*
X172430952Y-57307142D01*
X172478571Y-57259523D01*
X172526190Y-57164285D01*
X172526190Y-56783333D01*
X172002380Y-57688095D02*
X172002380Y-58307142D01*
X172383333Y-57973809D01*
X172383333Y-58116666D01*
X172430952Y-58211904D01*
X172478571Y-58259523D01*
X172573809Y-58307142D01*
X172811904Y-58307142D01*
X172907142Y-58259523D01*
X172954761Y-58211904D01*
X173002380Y-58116666D01*
X173002380Y-57830952D01*
X172954761Y-57735714D01*
X172907142Y-57688095D01*
X172097619Y-58688095D02*
X172050000Y-58735714D01*
X172002380Y-58830952D01*
X172002380Y-59069047D01*
X172050000Y-59164285D01*
X172097619Y-59211904D01*
X172192857Y-59259523D01*
X172288095Y-59259523D01*
X172430952Y-59211904D01*
X173002380Y-58640476D01*
X173002380Y-59259523D01*
X172621428Y-59688095D02*
X172621428Y-60450000D01*
X172002380Y-60830952D02*
X173002380Y-61069047D01*
X172288095Y-61259523D01*
X173002380Y-61450000D01*
X172002380Y-61688095D01*
X173002380Y-62640476D02*
X172526190Y-62307142D01*
X173002380Y-62069047D02*
X172002380Y-62069047D01*
X172002380Y-62450000D01*
X172050000Y-62545238D01*
X172097619Y-62592857D01*
X172192857Y-62640476D01*
X172335714Y-62640476D01*
X172430952Y-62592857D01*
X172478571Y-62545238D01*
X172526190Y-62450000D01*
X172526190Y-62069047D01*
X172002380Y-63259523D02*
X172002380Y-63450000D01*
X172050000Y-63545238D01*
X172145238Y-63640476D01*
X172335714Y-63688095D01*
X172669047Y-63688095D01*
X172859523Y-63640476D01*
X172954761Y-63545238D01*
X173002380Y-63450000D01*
X173002380Y-63259523D01*
X172954761Y-63164285D01*
X172859523Y-63069047D01*
X172669047Y-63021428D01*
X172335714Y-63021428D01*
X172145238Y-63069047D01*
X172050000Y-63164285D01*
X172002380Y-63259523D01*
X172002380Y-64307142D02*
X172002380Y-64497619D01*
X172050000Y-64592857D01*
X172145238Y-64688095D01*
X172335714Y-64735714D01*
X172669047Y-64735714D01*
X172859523Y-64688095D01*
X172954761Y-64592857D01*
X173002380Y-64497619D01*
X173002380Y-64307142D01*
X172954761Y-64211904D01*
X172859523Y-64116666D01*
X172669047Y-64069047D01*
X172335714Y-64069047D01*
X172145238Y-64116666D01*
X172050000Y-64211904D01*
X172002380Y-64307142D01*
X173002380Y-65164285D02*
X172002380Y-65164285D01*
X172716666Y-65497619D01*
X172002380Y-65830952D01*
X173002380Y-65830952D01*
X172621428Y-66307142D02*
X172621428Y-67069047D01*
X172002380Y-67450000D02*
X172002380Y-68069047D01*
X172383333Y-67735714D01*
X172383333Y-67878571D01*
X172430952Y-67973809D01*
X172478571Y-68021428D01*
X172573809Y-68069047D01*
X172811904Y-68069047D01*
X172907142Y-68021428D01*
X172954761Y-67973809D01*
X173002380Y-67878571D01*
X173002380Y-67592857D01*
X172954761Y-67497619D01*
X172907142Y-67450000D01*
X172097619Y-68450000D02*
X172050000Y-68497619D01*
X172002380Y-68592857D01*
X172002380Y-68830952D01*
X172050000Y-68926190D01*
X172097619Y-68973809D01*
X172192857Y-69021428D01*
X172288095Y-69021428D01*
X172430952Y-68973809D01*
X173002380Y-68402380D01*
X173002380Y-69021428D01*
X173002380Y-69450000D02*
X172002380Y-69450000D01*
X172002380Y-69688095D01*
X172050000Y-69830952D01*
X172145238Y-69926190D01*
X172240476Y-69973809D01*
X172430952Y-70021428D01*
X172573809Y-70021428D01*
X172764285Y-69973809D01*
X172859523Y-69926190D01*
X172954761Y-69830952D01*
X173002380Y-69688095D01*
X173002380Y-69450000D01*
%TO.C,R50*%
X125342857Y-68452380D02*
X125676190Y-67976190D01*
X125914285Y-68452380D02*
X125914285Y-67452380D01*
X125533333Y-67452380D01*
X125438095Y-67500000D01*
X125390476Y-67547619D01*
X125342857Y-67642857D01*
X125342857Y-67785714D01*
X125390476Y-67880952D01*
X125438095Y-67928571D01*
X125533333Y-67976190D01*
X125914285Y-67976190D01*
X124438095Y-67452380D02*
X124914285Y-67452380D01*
X124961904Y-67928571D01*
X124914285Y-67880952D01*
X124819047Y-67833333D01*
X124580952Y-67833333D01*
X124485714Y-67880952D01*
X124438095Y-67928571D01*
X124390476Y-68023809D01*
X124390476Y-68261904D01*
X124438095Y-68357142D01*
X124485714Y-68404761D01*
X124580952Y-68452380D01*
X124819047Y-68452380D01*
X124914285Y-68404761D01*
X124961904Y-68357142D01*
X123771428Y-67452380D02*
X123676190Y-67452380D01*
X123580952Y-67500000D01*
X123533333Y-67547619D01*
X123485714Y-67642857D01*
X123438095Y-67833333D01*
X123438095Y-68071428D01*
X123485714Y-68261904D01*
X123533333Y-68357142D01*
X123580952Y-68404761D01*
X123676190Y-68452380D01*
X123771428Y-68452380D01*
X123866666Y-68404761D01*
X123914285Y-68357142D01*
X123961904Y-68261904D01*
X124009523Y-68071428D01*
X124009523Y-67833333D01*
X123961904Y-67642857D01*
X123914285Y-67547619D01*
X123866666Y-67500000D01*
X123771428Y-67452380D01*
%TO.C,R42*%
X125542857Y-62052380D02*
X125876190Y-61576190D01*
X126114285Y-62052380D02*
X126114285Y-61052380D01*
X125733333Y-61052380D01*
X125638095Y-61100000D01*
X125590476Y-61147619D01*
X125542857Y-61242857D01*
X125542857Y-61385714D01*
X125590476Y-61480952D01*
X125638095Y-61528571D01*
X125733333Y-61576190D01*
X126114285Y-61576190D01*
X124685714Y-61385714D02*
X124685714Y-62052380D01*
X124923809Y-61004761D02*
X125161904Y-61719047D01*
X124542857Y-61719047D01*
X124209523Y-61147619D02*
X124161904Y-61100000D01*
X124066666Y-61052380D01*
X123828571Y-61052380D01*
X123733333Y-61100000D01*
X123685714Y-61147619D01*
X123638095Y-61242857D01*
X123638095Y-61338095D01*
X123685714Y-61480952D01*
X124257142Y-62052380D01*
X123638095Y-62052380D01*
%TO.C,C10*%
X171372857Y-77087142D02*
X171420476Y-77134761D01*
X171563333Y-77182380D01*
X171658571Y-77182380D01*
X171801428Y-77134761D01*
X171896666Y-77039523D01*
X171944285Y-76944285D01*
X171991904Y-76753809D01*
X171991904Y-76610952D01*
X171944285Y-76420476D01*
X171896666Y-76325238D01*
X171801428Y-76230000D01*
X171658571Y-76182380D01*
X171563333Y-76182380D01*
X171420476Y-76230000D01*
X171372857Y-76277619D01*
X170420476Y-77182380D02*
X170991904Y-77182380D01*
X170706190Y-77182380D02*
X170706190Y-76182380D01*
X170801428Y-76325238D01*
X170896666Y-76420476D01*
X170991904Y-76468095D01*
X169801428Y-76182380D02*
X169706190Y-76182380D01*
X169610952Y-76230000D01*
X169563333Y-76277619D01*
X169515714Y-76372857D01*
X169468095Y-76563333D01*
X169468095Y-76801428D01*
X169515714Y-76991904D01*
X169563333Y-77087142D01*
X169610952Y-77134761D01*
X169706190Y-77182380D01*
X169801428Y-77182380D01*
X169896666Y-77134761D01*
X169944285Y-77087142D01*
X169991904Y-76991904D01*
X170039523Y-76801428D01*
X170039523Y-76563333D01*
X169991904Y-76372857D01*
X169944285Y-76277619D01*
X169896666Y-76230000D01*
X169801428Y-76182380D01*
%TO.C,R26*%
X183832380Y-78247142D02*
X183356190Y-77913809D01*
X183832380Y-77675714D02*
X182832380Y-77675714D01*
X182832380Y-78056666D01*
X182880000Y-78151904D01*
X182927619Y-78199523D01*
X183022857Y-78247142D01*
X183165714Y-78247142D01*
X183260952Y-78199523D01*
X183308571Y-78151904D01*
X183356190Y-78056666D01*
X183356190Y-77675714D01*
X182927619Y-78628095D02*
X182880000Y-78675714D01*
X182832380Y-78770952D01*
X182832380Y-79009047D01*
X182880000Y-79104285D01*
X182927619Y-79151904D01*
X183022857Y-79199523D01*
X183118095Y-79199523D01*
X183260952Y-79151904D01*
X183832380Y-78580476D01*
X183832380Y-79199523D01*
X182832380Y-80056666D02*
X182832380Y-79866190D01*
X182880000Y-79770952D01*
X182927619Y-79723333D01*
X183070476Y-79628095D01*
X183260952Y-79580476D01*
X183641904Y-79580476D01*
X183737142Y-79628095D01*
X183784761Y-79675714D01*
X183832380Y-79770952D01*
X183832380Y-79961428D01*
X183784761Y-80056666D01*
X183737142Y-80104285D01*
X183641904Y-80151904D01*
X183403809Y-80151904D01*
X183308571Y-80104285D01*
X183260952Y-80056666D01*
X183213333Y-79961428D01*
X183213333Y-79770952D01*
X183260952Y-79675714D01*
X183308571Y-79628095D01*
X183403809Y-79580476D01*
%TO.C,C1*%
X120526666Y-90017142D02*
X120574285Y-90064761D01*
X120717142Y-90112380D01*
X120812380Y-90112380D01*
X120955238Y-90064761D01*
X121050476Y-89969523D01*
X121098095Y-89874285D01*
X121145714Y-89683809D01*
X121145714Y-89540952D01*
X121098095Y-89350476D01*
X121050476Y-89255238D01*
X120955238Y-89160000D01*
X120812380Y-89112380D01*
X120717142Y-89112380D01*
X120574285Y-89160000D01*
X120526666Y-89207619D01*
X119574285Y-90112380D02*
X120145714Y-90112380D01*
X119860000Y-90112380D02*
X119860000Y-89112380D01*
X119955238Y-89255238D01*
X120050476Y-89350476D01*
X120145714Y-89398095D01*
%TO.C,R13*%
X187522857Y-98202380D02*
X187856190Y-97726190D01*
X188094285Y-98202380D02*
X188094285Y-97202380D01*
X187713333Y-97202380D01*
X187618095Y-97250000D01*
X187570476Y-97297619D01*
X187522857Y-97392857D01*
X187522857Y-97535714D01*
X187570476Y-97630952D01*
X187618095Y-97678571D01*
X187713333Y-97726190D01*
X188094285Y-97726190D01*
X186570476Y-98202380D02*
X187141904Y-98202380D01*
X186856190Y-98202380D02*
X186856190Y-97202380D01*
X186951428Y-97345238D01*
X187046666Y-97440476D01*
X187141904Y-97488095D01*
X186237142Y-97202380D02*
X185618095Y-97202380D01*
X185951428Y-97583333D01*
X185808571Y-97583333D01*
X185713333Y-97630952D01*
X185665714Y-97678571D01*
X185618095Y-97773809D01*
X185618095Y-98011904D01*
X185665714Y-98107142D01*
X185713333Y-98154761D01*
X185808571Y-98202380D01*
X186094285Y-98202380D01*
X186189523Y-98154761D01*
X186237142Y-98107142D01*
%TO.C,R8*%
X190556666Y-101052380D02*
X190890000Y-100576190D01*
X191128095Y-101052380D02*
X191128095Y-100052380D01*
X190747142Y-100052380D01*
X190651904Y-100100000D01*
X190604285Y-100147619D01*
X190556666Y-100242857D01*
X190556666Y-100385714D01*
X190604285Y-100480952D01*
X190651904Y-100528571D01*
X190747142Y-100576190D01*
X191128095Y-100576190D01*
X189985238Y-100480952D02*
X190080476Y-100433333D01*
X190128095Y-100385714D01*
X190175714Y-100290476D01*
X190175714Y-100242857D01*
X190128095Y-100147619D01*
X190080476Y-100100000D01*
X189985238Y-100052380D01*
X189794761Y-100052380D01*
X189699523Y-100100000D01*
X189651904Y-100147619D01*
X189604285Y-100242857D01*
X189604285Y-100290476D01*
X189651904Y-100385714D01*
X189699523Y-100433333D01*
X189794761Y-100480952D01*
X189985238Y-100480952D01*
X190080476Y-100528571D01*
X190128095Y-100576190D01*
X190175714Y-100671428D01*
X190175714Y-100861904D01*
X190128095Y-100957142D01*
X190080476Y-101004761D01*
X189985238Y-101052380D01*
X189794761Y-101052380D01*
X189699523Y-101004761D01*
X189651904Y-100957142D01*
X189604285Y-100861904D01*
X189604285Y-100671428D01*
X189651904Y-100576190D01*
X189699523Y-100528571D01*
X189794761Y-100480952D01*
%TO.C,R59*%
X187522857Y-104402380D02*
X187856190Y-103926190D01*
X188094285Y-104402380D02*
X188094285Y-103402380D01*
X187713333Y-103402380D01*
X187618095Y-103450000D01*
X187570476Y-103497619D01*
X187522857Y-103592857D01*
X187522857Y-103735714D01*
X187570476Y-103830952D01*
X187618095Y-103878571D01*
X187713333Y-103926190D01*
X188094285Y-103926190D01*
X186618095Y-103402380D02*
X187094285Y-103402380D01*
X187141904Y-103878571D01*
X187094285Y-103830952D01*
X186999047Y-103783333D01*
X186760952Y-103783333D01*
X186665714Y-103830952D01*
X186618095Y-103878571D01*
X186570476Y-103973809D01*
X186570476Y-104211904D01*
X186618095Y-104307142D01*
X186665714Y-104354761D01*
X186760952Y-104402380D01*
X186999047Y-104402380D01*
X187094285Y-104354761D01*
X187141904Y-104307142D01*
X186094285Y-104402380D02*
X185903809Y-104402380D01*
X185808571Y-104354761D01*
X185760952Y-104307142D01*
X185665714Y-104164285D01*
X185618095Y-103973809D01*
X185618095Y-103592857D01*
X185665714Y-103497619D01*
X185713333Y-103450000D01*
X185808571Y-103402380D01*
X185999047Y-103402380D01*
X186094285Y-103450000D01*
X186141904Y-103497619D01*
X186189523Y-103592857D01*
X186189523Y-103830952D01*
X186141904Y-103926190D01*
X186094285Y-103973809D01*
X185999047Y-104021428D01*
X185808571Y-104021428D01*
X185713333Y-103973809D01*
X185665714Y-103926190D01*
X185618095Y-103830952D01*
%TO.C,U6*%
X158861904Y-57862380D02*
X158861904Y-58671904D01*
X158814285Y-58767142D01*
X158766666Y-58814761D01*
X158671428Y-58862380D01*
X158480952Y-58862380D01*
X158385714Y-58814761D01*
X158338095Y-58767142D01*
X158290476Y-58671904D01*
X158290476Y-57862380D01*
X157385714Y-57862380D02*
X157576190Y-57862380D01*
X157671428Y-57910000D01*
X157719047Y-57957619D01*
X157814285Y-58100476D01*
X157861904Y-58290952D01*
X157861904Y-58671904D01*
X157814285Y-58767142D01*
X157766666Y-58814761D01*
X157671428Y-58862380D01*
X157480952Y-58862380D01*
X157385714Y-58814761D01*
X157338095Y-58767142D01*
X157290476Y-58671904D01*
X157290476Y-58433809D01*
X157338095Y-58338571D01*
X157385714Y-58290952D01*
X157480952Y-58243333D01*
X157671428Y-58243333D01*
X157766666Y-58290952D01*
X157814285Y-58338571D01*
X157861904Y-58433809D01*
%TO.C,C20*%
X187322857Y-82957142D02*
X187370476Y-83004761D01*
X187513333Y-83052380D01*
X187608571Y-83052380D01*
X187751428Y-83004761D01*
X187846666Y-82909523D01*
X187894285Y-82814285D01*
X187941904Y-82623809D01*
X187941904Y-82480952D01*
X187894285Y-82290476D01*
X187846666Y-82195238D01*
X187751428Y-82100000D01*
X187608571Y-82052380D01*
X187513333Y-82052380D01*
X187370476Y-82100000D01*
X187322857Y-82147619D01*
X186941904Y-82147619D02*
X186894285Y-82100000D01*
X186799047Y-82052380D01*
X186560952Y-82052380D01*
X186465714Y-82100000D01*
X186418095Y-82147619D01*
X186370476Y-82242857D01*
X186370476Y-82338095D01*
X186418095Y-82480952D01*
X186989523Y-83052380D01*
X186370476Y-83052380D01*
X185751428Y-82052380D02*
X185656190Y-82052380D01*
X185560952Y-82100000D01*
X185513333Y-82147619D01*
X185465714Y-82242857D01*
X185418095Y-82433333D01*
X185418095Y-82671428D01*
X185465714Y-82861904D01*
X185513333Y-82957142D01*
X185560952Y-83004761D01*
X185656190Y-83052380D01*
X185751428Y-83052380D01*
X185846666Y-83004761D01*
X185894285Y-82957142D01*
X185941904Y-82861904D01*
X185989523Y-82671428D01*
X185989523Y-82433333D01*
X185941904Y-82242857D01*
X185894285Y-82147619D01*
X185846666Y-82100000D01*
X185751428Y-82052380D01*
%TO.C,R6*%
X170786666Y-84682380D02*
X171120000Y-84206190D01*
X171358095Y-84682380D02*
X171358095Y-83682380D01*
X170977142Y-83682380D01*
X170881904Y-83730000D01*
X170834285Y-83777619D01*
X170786666Y-83872857D01*
X170786666Y-84015714D01*
X170834285Y-84110952D01*
X170881904Y-84158571D01*
X170977142Y-84206190D01*
X171358095Y-84206190D01*
X169929523Y-83682380D02*
X170120000Y-83682380D01*
X170215238Y-83730000D01*
X170262857Y-83777619D01*
X170358095Y-83920476D01*
X170405714Y-84110952D01*
X170405714Y-84491904D01*
X170358095Y-84587142D01*
X170310476Y-84634761D01*
X170215238Y-84682380D01*
X170024761Y-84682380D01*
X169929523Y-84634761D01*
X169881904Y-84587142D01*
X169834285Y-84491904D01*
X169834285Y-84253809D01*
X169881904Y-84158571D01*
X169929523Y-84110952D01*
X170024761Y-84063333D01*
X170215238Y-84063333D01*
X170310476Y-84110952D01*
X170358095Y-84158571D01*
X170405714Y-84253809D01*
%TO.C,R37*%
X151402380Y-44487142D02*
X150926190Y-44153809D01*
X151402380Y-43915714D02*
X150402380Y-43915714D01*
X150402380Y-44296666D01*
X150450000Y-44391904D01*
X150497619Y-44439523D01*
X150592857Y-44487142D01*
X150735714Y-44487142D01*
X150830952Y-44439523D01*
X150878571Y-44391904D01*
X150926190Y-44296666D01*
X150926190Y-43915714D01*
X150402380Y-44820476D02*
X150402380Y-45439523D01*
X150783333Y-45106190D01*
X150783333Y-45249047D01*
X150830952Y-45344285D01*
X150878571Y-45391904D01*
X150973809Y-45439523D01*
X151211904Y-45439523D01*
X151307142Y-45391904D01*
X151354761Y-45344285D01*
X151402380Y-45249047D01*
X151402380Y-44963333D01*
X151354761Y-44868095D01*
X151307142Y-44820476D01*
X150402380Y-45772857D02*
X150402380Y-46439523D01*
X151402380Y-46010952D01*
%TO.C,C19*%
X187282857Y-84397142D02*
X187330476Y-84444761D01*
X187473333Y-84492380D01*
X187568571Y-84492380D01*
X187711428Y-84444761D01*
X187806666Y-84349523D01*
X187854285Y-84254285D01*
X187901904Y-84063809D01*
X187901904Y-83920952D01*
X187854285Y-83730476D01*
X187806666Y-83635238D01*
X187711428Y-83540000D01*
X187568571Y-83492380D01*
X187473333Y-83492380D01*
X187330476Y-83540000D01*
X187282857Y-83587619D01*
X186330476Y-84492380D02*
X186901904Y-84492380D01*
X186616190Y-84492380D02*
X186616190Y-83492380D01*
X186711428Y-83635238D01*
X186806666Y-83730476D01*
X186901904Y-83778095D01*
X185854285Y-84492380D02*
X185663809Y-84492380D01*
X185568571Y-84444761D01*
X185520952Y-84397142D01*
X185425714Y-84254285D01*
X185378095Y-84063809D01*
X185378095Y-83682857D01*
X185425714Y-83587619D01*
X185473333Y-83540000D01*
X185568571Y-83492380D01*
X185759047Y-83492380D01*
X185854285Y-83540000D01*
X185901904Y-83587619D01*
X185949523Y-83682857D01*
X185949523Y-83920952D01*
X185901904Y-84016190D01*
X185854285Y-84063809D01*
X185759047Y-84111428D01*
X185568571Y-84111428D01*
X185473333Y-84063809D01*
X185425714Y-84016190D01*
X185378095Y-83920952D01*
%TO.C,R40*%
X190552857Y-104422380D02*
X190886190Y-103946190D01*
X191124285Y-104422380D02*
X191124285Y-103422380D01*
X190743333Y-103422380D01*
X190648095Y-103470000D01*
X190600476Y-103517619D01*
X190552857Y-103612857D01*
X190552857Y-103755714D01*
X190600476Y-103850952D01*
X190648095Y-103898571D01*
X190743333Y-103946190D01*
X191124285Y-103946190D01*
X189695714Y-103755714D02*
X189695714Y-104422380D01*
X189933809Y-103374761D02*
X190171904Y-104089047D01*
X189552857Y-104089047D01*
X188981428Y-103422380D02*
X188886190Y-103422380D01*
X188790952Y-103470000D01*
X188743333Y-103517619D01*
X188695714Y-103612857D01*
X188648095Y-103803333D01*
X188648095Y-104041428D01*
X188695714Y-104231904D01*
X188743333Y-104327142D01*
X188790952Y-104374761D01*
X188886190Y-104422380D01*
X188981428Y-104422380D01*
X189076666Y-104374761D01*
X189124285Y-104327142D01*
X189171904Y-104231904D01*
X189219523Y-104041428D01*
X189219523Y-103803333D01*
X189171904Y-103612857D01*
X189124285Y-103517619D01*
X189076666Y-103470000D01*
X188981428Y-103422380D01*
%TO.C,R46*%
X115232380Y-56947142D02*
X114756190Y-56613809D01*
X115232380Y-56375714D02*
X114232380Y-56375714D01*
X114232380Y-56756666D01*
X114280000Y-56851904D01*
X114327619Y-56899523D01*
X114422857Y-56947142D01*
X114565714Y-56947142D01*
X114660952Y-56899523D01*
X114708571Y-56851904D01*
X114756190Y-56756666D01*
X114756190Y-56375714D01*
X114565714Y-57804285D02*
X115232380Y-57804285D01*
X114184761Y-57566190D02*
X114899047Y-57328095D01*
X114899047Y-57947142D01*
X114232380Y-58756666D02*
X114232380Y-58566190D01*
X114280000Y-58470952D01*
X114327619Y-58423333D01*
X114470476Y-58328095D01*
X114660952Y-58280476D01*
X115041904Y-58280476D01*
X115137142Y-58328095D01*
X115184761Y-58375714D01*
X115232380Y-58470952D01*
X115232380Y-58661428D01*
X115184761Y-58756666D01*
X115137142Y-58804285D01*
X115041904Y-58851904D01*
X114803809Y-58851904D01*
X114708571Y-58804285D01*
X114660952Y-58756666D01*
X114613333Y-58661428D01*
X114613333Y-58470952D01*
X114660952Y-58375714D01*
X114708571Y-58328095D01*
X114803809Y-58280476D01*
%TO.C,C27*%
X142892857Y-107637142D02*
X142940476Y-107684761D01*
X143083333Y-107732380D01*
X143178571Y-107732380D01*
X143321428Y-107684761D01*
X143416666Y-107589523D01*
X143464285Y-107494285D01*
X143511904Y-107303809D01*
X143511904Y-107160952D01*
X143464285Y-106970476D01*
X143416666Y-106875238D01*
X143321428Y-106780000D01*
X143178571Y-106732380D01*
X143083333Y-106732380D01*
X142940476Y-106780000D01*
X142892857Y-106827619D01*
X142511904Y-106827619D02*
X142464285Y-106780000D01*
X142369047Y-106732380D01*
X142130952Y-106732380D01*
X142035714Y-106780000D01*
X141988095Y-106827619D01*
X141940476Y-106922857D01*
X141940476Y-107018095D01*
X141988095Y-107160952D01*
X142559523Y-107732380D01*
X141940476Y-107732380D01*
X141607142Y-106732380D02*
X140940476Y-106732380D01*
X141369047Y-107732380D01*
%TO.C,R41*%
X156132380Y-44487142D02*
X155656190Y-44153809D01*
X156132380Y-43915714D02*
X155132380Y-43915714D01*
X155132380Y-44296666D01*
X155180000Y-44391904D01*
X155227619Y-44439523D01*
X155322857Y-44487142D01*
X155465714Y-44487142D01*
X155560952Y-44439523D01*
X155608571Y-44391904D01*
X155656190Y-44296666D01*
X155656190Y-43915714D01*
X155465714Y-45344285D02*
X156132380Y-45344285D01*
X155084761Y-45106190D02*
X155799047Y-44868095D01*
X155799047Y-45487142D01*
X156132380Y-46391904D02*
X156132380Y-45820476D01*
X156132380Y-46106190D02*
X155132380Y-46106190D01*
X155275238Y-46010952D01*
X155370476Y-45915714D01*
X155418095Y-45820476D01*
%TO.C,D10*%
X134604285Y-50102380D02*
X134604285Y-49102380D01*
X134366190Y-49102380D01*
X134223333Y-49150000D01*
X134128095Y-49245238D01*
X134080476Y-49340476D01*
X134032857Y-49530952D01*
X134032857Y-49673809D01*
X134080476Y-49864285D01*
X134128095Y-49959523D01*
X134223333Y-50054761D01*
X134366190Y-50102380D01*
X134604285Y-50102380D01*
X133080476Y-50102380D02*
X133651904Y-50102380D01*
X133366190Y-50102380D02*
X133366190Y-49102380D01*
X133461428Y-49245238D01*
X133556666Y-49340476D01*
X133651904Y-49388095D01*
X132461428Y-49102380D02*
X132366190Y-49102380D01*
X132270952Y-49150000D01*
X132223333Y-49197619D01*
X132175714Y-49292857D01*
X132128095Y-49483333D01*
X132128095Y-49721428D01*
X132175714Y-49911904D01*
X132223333Y-50007142D01*
X132270952Y-50054761D01*
X132366190Y-50102380D01*
X132461428Y-50102380D01*
X132556666Y-50054761D01*
X132604285Y-50007142D01*
X132651904Y-49911904D01*
X132699523Y-49721428D01*
X132699523Y-49483333D01*
X132651904Y-49292857D01*
X132604285Y-49197619D01*
X132556666Y-49150000D01*
X132461428Y-49102380D01*
%TO.C,Q1*%
X164175238Y-104327619D02*
X164270476Y-104280000D01*
X164365714Y-104184761D01*
X164508571Y-104041904D01*
X164603809Y-103994285D01*
X164699047Y-103994285D01*
X164651428Y-104232380D02*
X164746666Y-104184761D01*
X164841904Y-104089523D01*
X164889523Y-103899047D01*
X164889523Y-103565714D01*
X164841904Y-103375238D01*
X164746666Y-103280000D01*
X164651428Y-103232380D01*
X164460952Y-103232380D01*
X164365714Y-103280000D01*
X164270476Y-103375238D01*
X164222857Y-103565714D01*
X164222857Y-103899047D01*
X164270476Y-104089523D01*
X164365714Y-104184761D01*
X164460952Y-104232380D01*
X164651428Y-104232380D01*
X163270476Y-104232380D02*
X163841904Y-104232380D01*
X163556190Y-104232380D02*
X163556190Y-103232380D01*
X163651428Y-103375238D01*
X163746666Y-103470476D01*
X163841904Y-103518095D01*
%TO.C,R57*%
X187512857Y-101042380D02*
X187846190Y-100566190D01*
X188084285Y-101042380D02*
X188084285Y-100042380D01*
X187703333Y-100042380D01*
X187608095Y-100090000D01*
X187560476Y-100137619D01*
X187512857Y-100232857D01*
X187512857Y-100375714D01*
X187560476Y-100470952D01*
X187608095Y-100518571D01*
X187703333Y-100566190D01*
X188084285Y-100566190D01*
X186608095Y-100042380D02*
X187084285Y-100042380D01*
X187131904Y-100518571D01*
X187084285Y-100470952D01*
X186989047Y-100423333D01*
X186750952Y-100423333D01*
X186655714Y-100470952D01*
X186608095Y-100518571D01*
X186560476Y-100613809D01*
X186560476Y-100851904D01*
X186608095Y-100947142D01*
X186655714Y-100994761D01*
X186750952Y-101042380D01*
X186989047Y-101042380D01*
X187084285Y-100994761D01*
X187131904Y-100947142D01*
X186227142Y-100042380D02*
X185560476Y-100042380D01*
X185989047Y-101042380D01*
%TO.C,C26*%
X182117142Y-78227142D02*
X182164761Y-78179523D01*
X182212380Y-78036666D01*
X182212380Y-77941428D01*
X182164761Y-77798571D01*
X182069523Y-77703333D01*
X181974285Y-77655714D01*
X181783809Y-77608095D01*
X181640952Y-77608095D01*
X181450476Y-77655714D01*
X181355238Y-77703333D01*
X181260000Y-77798571D01*
X181212380Y-77941428D01*
X181212380Y-78036666D01*
X181260000Y-78179523D01*
X181307619Y-78227142D01*
X181307619Y-78608095D02*
X181260000Y-78655714D01*
X181212380Y-78750952D01*
X181212380Y-78989047D01*
X181260000Y-79084285D01*
X181307619Y-79131904D01*
X181402857Y-79179523D01*
X181498095Y-79179523D01*
X181640952Y-79131904D01*
X182212380Y-78560476D01*
X182212380Y-79179523D01*
X181212380Y-80036666D02*
X181212380Y-79846190D01*
X181260000Y-79750952D01*
X181307619Y-79703333D01*
X181450476Y-79608095D01*
X181640952Y-79560476D01*
X182021904Y-79560476D01*
X182117142Y-79608095D01*
X182164761Y-79655714D01*
X182212380Y-79750952D01*
X182212380Y-79941428D01*
X182164761Y-80036666D01*
X182117142Y-80084285D01*
X182021904Y-80131904D01*
X181783809Y-80131904D01*
X181688571Y-80084285D01*
X181640952Y-80036666D01*
X181593333Y-79941428D01*
X181593333Y-79750952D01*
X181640952Y-79655714D01*
X181688571Y-79608095D01*
X181783809Y-79560476D01*
%TO.C,R16*%
X187292857Y-85982380D02*
X187626190Y-85506190D01*
X187864285Y-85982380D02*
X187864285Y-84982380D01*
X187483333Y-84982380D01*
X187388095Y-85030000D01*
X187340476Y-85077619D01*
X187292857Y-85172857D01*
X187292857Y-85315714D01*
X187340476Y-85410952D01*
X187388095Y-85458571D01*
X187483333Y-85506190D01*
X187864285Y-85506190D01*
X186340476Y-85982380D02*
X186911904Y-85982380D01*
X186626190Y-85982380D02*
X186626190Y-84982380D01*
X186721428Y-85125238D01*
X186816666Y-85220476D01*
X186911904Y-85268095D01*
X185483333Y-84982380D02*
X185673809Y-84982380D01*
X185769047Y-85030000D01*
X185816666Y-85077619D01*
X185911904Y-85220476D01*
X185959523Y-85410952D01*
X185959523Y-85791904D01*
X185911904Y-85887142D01*
X185864285Y-85934761D01*
X185769047Y-85982380D01*
X185578571Y-85982380D01*
X185483333Y-85934761D01*
X185435714Y-85887142D01*
X185388095Y-85791904D01*
X185388095Y-85553809D01*
X185435714Y-85458571D01*
X185483333Y-85410952D01*
X185578571Y-85363333D01*
X185769047Y-85363333D01*
X185864285Y-85410952D01*
X185911904Y-85458571D01*
X185959523Y-85553809D01*
%TO.C,C31*%
X149947142Y-54837142D02*
X149994761Y-54789523D01*
X150042380Y-54646666D01*
X150042380Y-54551428D01*
X149994761Y-54408571D01*
X149899523Y-54313333D01*
X149804285Y-54265714D01*
X149613809Y-54218095D01*
X149470952Y-54218095D01*
X149280476Y-54265714D01*
X149185238Y-54313333D01*
X149090000Y-54408571D01*
X149042380Y-54551428D01*
X149042380Y-54646666D01*
X149090000Y-54789523D01*
X149137619Y-54837142D01*
X149042380Y-55170476D02*
X149042380Y-55789523D01*
X149423333Y-55456190D01*
X149423333Y-55599047D01*
X149470952Y-55694285D01*
X149518571Y-55741904D01*
X149613809Y-55789523D01*
X149851904Y-55789523D01*
X149947142Y-55741904D01*
X149994761Y-55694285D01*
X150042380Y-55599047D01*
X150042380Y-55313333D01*
X149994761Y-55218095D01*
X149947142Y-55170476D01*
X150042380Y-56741904D02*
X150042380Y-56170476D01*
X150042380Y-56456190D02*
X149042380Y-56456190D01*
X149185238Y-56360952D01*
X149280476Y-56265714D01*
X149328095Y-56170476D01*
%TO.C,C38*%
X137297142Y-51977142D02*
X137344761Y-51929523D01*
X137392380Y-51786666D01*
X137392380Y-51691428D01*
X137344761Y-51548571D01*
X137249523Y-51453333D01*
X137154285Y-51405714D01*
X136963809Y-51358095D01*
X136820952Y-51358095D01*
X136630476Y-51405714D01*
X136535238Y-51453333D01*
X136440000Y-51548571D01*
X136392380Y-51691428D01*
X136392380Y-51786666D01*
X136440000Y-51929523D01*
X136487619Y-51977142D01*
X136392380Y-52310476D02*
X136392380Y-52929523D01*
X136773333Y-52596190D01*
X136773333Y-52739047D01*
X136820952Y-52834285D01*
X136868571Y-52881904D01*
X136963809Y-52929523D01*
X137201904Y-52929523D01*
X137297142Y-52881904D01*
X137344761Y-52834285D01*
X137392380Y-52739047D01*
X137392380Y-52453333D01*
X137344761Y-52358095D01*
X137297142Y-52310476D01*
X136820952Y-53500952D02*
X136773333Y-53405714D01*
X136725714Y-53358095D01*
X136630476Y-53310476D01*
X136582857Y-53310476D01*
X136487619Y-53358095D01*
X136440000Y-53405714D01*
X136392380Y-53500952D01*
X136392380Y-53691428D01*
X136440000Y-53786666D01*
X136487619Y-53834285D01*
X136582857Y-53881904D01*
X136630476Y-53881904D01*
X136725714Y-53834285D01*
X136773333Y-53786666D01*
X136820952Y-53691428D01*
X136820952Y-53500952D01*
X136868571Y-53405714D01*
X136916190Y-53358095D01*
X137011428Y-53310476D01*
X137201904Y-53310476D01*
X137297142Y-53358095D01*
X137344761Y-53405714D01*
X137392380Y-53500952D01*
X137392380Y-53691428D01*
X137344761Y-53786666D01*
X137297142Y-53834285D01*
X137201904Y-53881904D01*
X137011428Y-53881904D01*
X136916190Y-53834285D01*
X136868571Y-53786666D01*
X136820952Y-53691428D01*
%TO.C,R18*%
X179272380Y-78247142D02*
X178796190Y-77913809D01*
X179272380Y-77675714D02*
X178272380Y-77675714D01*
X178272380Y-78056666D01*
X178320000Y-78151904D01*
X178367619Y-78199523D01*
X178462857Y-78247142D01*
X178605714Y-78247142D01*
X178700952Y-78199523D01*
X178748571Y-78151904D01*
X178796190Y-78056666D01*
X178796190Y-77675714D01*
X179272380Y-79199523D02*
X179272380Y-78628095D01*
X179272380Y-78913809D02*
X178272380Y-78913809D01*
X178415238Y-78818571D01*
X178510476Y-78723333D01*
X178558095Y-78628095D01*
X178700952Y-79770952D02*
X178653333Y-79675714D01*
X178605714Y-79628095D01*
X178510476Y-79580476D01*
X178462857Y-79580476D01*
X178367619Y-79628095D01*
X178320000Y-79675714D01*
X178272380Y-79770952D01*
X178272380Y-79961428D01*
X178320000Y-80056666D01*
X178367619Y-80104285D01*
X178462857Y-80151904D01*
X178510476Y-80151904D01*
X178605714Y-80104285D01*
X178653333Y-80056666D01*
X178700952Y-79961428D01*
X178700952Y-79770952D01*
X178748571Y-79675714D01*
X178796190Y-79628095D01*
X178891428Y-79580476D01*
X179081904Y-79580476D01*
X179177142Y-79628095D01*
X179224761Y-79675714D01*
X179272380Y-79770952D01*
X179272380Y-79961428D01*
X179224761Y-80056666D01*
X179177142Y-80104285D01*
X179081904Y-80151904D01*
X178891428Y-80151904D01*
X178796190Y-80104285D01*
X178748571Y-80056666D01*
X178700952Y-79961428D01*
%TO.C,C11*%
X171402857Y-75647142D02*
X171450476Y-75694761D01*
X171593333Y-75742380D01*
X171688571Y-75742380D01*
X171831428Y-75694761D01*
X171926666Y-75599523D01*
X171974285Y-75504285D01*
X172021904Y-75313809D01*
X172021904Y-75170952D01*
X171974285Y-74980476D01*
X171926666Y-74885238D01*
X171831428Y-74790000D01*
X171688571Y-74742380D01*
X171593333Y-74742380D01*
X171450476Y-74790000D01*
X171402857Y-74837619D01*
X170450476Y-75742380D02*
X171021904Y-75742380D01*
X170736190Y-75742380D02*
X170736190Y-74742380D01*
X170831428Y-74885238D01*
X170926666Y-74980476D01*
X171021904Y-75028095D01*
X169498095Y-75742380D02*
X170069523Y-75742380D01*
X169783809Y-75742380D02*
X169783809Y-74742380D01*
X169879047Y-74885238D01*
X169974285Y-74980476D01*
X170069523Y-75028095D01*
%TO.C,C36*%
X188937142Y-78977142D02*
X188984761Y-78929523D01*
X189032380Y-78786666D01*
X189032380Y-78691428D01*
X188984761Y-78548571D01*
X188889523Y-78453333D01*
X188794285Y-78405714D01*
X188603809Y-78358095D01*
X188460952Y-78358095D01*
X188270476Y-78405714D01*
X188175238Y-78453333D01*
X188080000Y-78548571D01*
X188032380Y-78691428D01*
X188032380Y-78786666D01*
X188080000Y-78929523D01*
X188127619Y-78977142D01*
X188032380Y-79310476D02*
X188032380Y-79929523D01*
X188413333Y-79596190D01*
X188413333Y-79739047D01*
X188460952Y-79834285D01*
X188508571Y-79881904D01*
X188603809Y-79929523D01*
X188841904Y-79929523D01*
X188937142Y-79881904D01*
X188984761Y-79834285D01*
X189032380Y-79739047D01*
X189032380Y-79453333D01*
X188984761Y-79358095D01*
X188937142Y-79310476D01*
X188032380Y-80786666D02*
X188032380Y-80596190D01*
X188080000Y-80500952D01*
X188127619Y-80453333D01*
X188270476Y-80358095D01*
X188460952Y-80310476D01*
X188841904Y-80310476D01*
X188937142Y-80358095D01*
X188984761Y-80405714D01*
X189032380Y-80500952D01*
X189032380Y-80691428D01*
X188984761Y-80786666D01*
X188937142Y-80834285D01*
X188841904Y-80881904D01*
X188603809Y-80881904D01*
X188508571Y-80834285D01*
X188460952Y-80786666D01*
X188413333Y-80691428D01*
X188413333Y-80500952D01*
X188460952Y-80405714D01*
X188508571Y-80358095D01*
X188603809Y-80310476D01*
%TO.C,R58*%
X190552857Y-98162380D02*
X190886190Y-97686190D01*
X191124285Y-98162380D02*
X191124285Y-97162380D01*
X190743333Y-97162380D01*
X190648095Y-97210000D01*
X190600476Y-97257619D01*
X190552857Y-97352857D01*
X190552857Y-97495714D01*
X190600476Y-97590952D01*
X190648095Y-97638571D01*
X190743333Y-97686190D01*
X191124285Y-97686190D01*
X189648095Y-97162380D02*
X190124285Y-97162380D01*
X190171904Y-97638571D01*
X190124285Y-97590952D01*
X190029047Y-97543333D01*
X189790952Y-97543333D01*
X189695714Y-97590952D01*
X189648095Y-97638571D01*
X189600476Y-97733809D01*
X189600476Y-97971904D01*
X189648095Y-98067142D01*
X189695714Y-98114761D01*
X189790952Y-98162380D01*
X190029047Y-98162380D01*
X190124285Y-98114761D01*
X190171904Y-98067142D01*
X189029047Y-97590952D02*
X189124285Y-97543333D01*
X189171904Y-97495714D01*
X189219523Y-97400476D01*
X189219523Y-97352857D01*
X189171904Y-97257619D01*
X189124285Y-97210000D01*
X189029047Y-97162380D01*
X188838571Y-97162380D01*
X188743333Y-97210000D01*
X188695714Y-97257619D01*
X188648095Y-97352857D01*
X188648095Y-97400476D01*
X188695714Y-97495714D01*
X188743333Y-97543333D01*
X188838571Y-97590952D01*
X189029047Y-97590952D01*
X189124285Y-97638571D01*
X189171904Y-97686190D01*
X189219523Y-97781428D01*
X189219523Y-97971904D01*
X189171904Y-98067142D01*
X189124285Y-98114761D01*
X189029047Y-98162380D01*
X188838571Y-98162380D01*
X188743333Y-98114761D01*
X188695714Y-98067142D01*
X188648095Y-97971904D01*
X188648095Y-97781428D01*
X188695714Y-97686190D01*
X188743333Y-97638571D01*
X188838571Y-97590952D01*
%TO.C,U1*%
X166901904Y-85312380D02*
X166901904Y-86121904D01*
X166854285Y-86217142D01*
X166806666Y-86264761D01*
X166711428Y-86312380D01*
X166520952Y-86312380D01*
X166425714Y-86264761D01*
X166378095Y-86217142D01*
X166330476Y-86121904D01*
X166330476Y-85312380D01*
X165330476Y-86312380D02*
X165901904Y-86312380D01*
X165616190Y-86312380D02*
X165616190Y-85312380D01*
X165711428Y-85455238D01*
X165806666Y-85550476D01*
X165901904Y-85598095D01*
X164302380Y-85290000D02*
X164540476Y-85290000D01*
X164445238Y-85051904D02*
X164540476Y-85290000D01*
X164445238Y-85528095D01*
X164730952Y-85147142D02*
X164540476Y-85290000D01*
X164730952Y-85432857D01*
%TO.C,C29*%
X148427142Y-54827142D02*
X148474761Y-54779523D01*
X148522380Y-54636666D01*
X148522380Y-54541428D01*
X148474761Y-54398571D01*
X148379523Y-54303333D01*
X148284285Y-54255714D01*
X148093809Y-54208095D01*
X147950952Y-54208095D01*
X147760476Y-54255714D01*
X147665238Y-54303333D01*
X147570000Y-54398571D01*
X147522380Y-54541428D01*
X147522380Y-54636666D01*
X147570000Y-54779523D01*
X147617619Y-54827142D01*
X147617619Y-55208095D02*
X147570000Y-55255714D01*
X147522380Y-55350952D01*
X147522380Y-55589047D01*
X147570000Y-55684285D01*
X147617619Y-55731904D01*
X147712857Y-55779523D01*
X147808095Y-55779523D01*
X147950952Y-55731904D01*
X148522380Y-55160476D01*
X148522380Y-55779523D01*
X148522380Y-56255714D02*
X148522380Y-56446190D01*
X148474761Y-56541428D01*
X148427142Y-56589047D01*
X148284285Y-56684285D01*
X148093809Y-56731904D01*
X147712857Y-56731904D01*
X147617619Y-56684285D01*
X147570000Y-56636666D01*
X147522380Y-56541428D01*
X147522380Y-56350952D01*
X147570000Y-56255714D01*
X147617619Y-56208095D01*
X147712857Y-56160476D01*
X147950952Y-56160476D01*
X148046190Y-56208095D01*
X148093809Y-56255714D01*
X148141428Y-56350952D01*
X148141428Y-56541428D01*
X148093809Y-56636666D01*
X148046190Y-56684285D01*
X147950952Y-56731904D01*
%TO.C,R29*%
X176272380Y-103927142D02*
X175796190Y-103593809D01*
X176272380Y-103355714D02*
X175272380Y-103355714D01*
X175272380Y-103736666D01*
X175320000Y-103831904D01*
X175367619Y-103879523D01*
X175462857Y-103927142D01*
X175605714Y-103927142D01*
X175700952Y-103879523D01*
X175748571Y-103831904D01*
X175796190Y-103736666D01*
X175796190Y-103355714D01*
X175367619Y-104308095D02*
X175320000Y-104355714D01*
X175272380Y-104450952D01*
X175272380Y-104689047D01*
X175320000Y-104784285D01*
X175367619Y-104831904D01*
X175462857Y-104879523D01*
X175558095Y-104879523D01*
X175700952Y-104831904D01*
X176272380Y-104260476D01*
X176272380Y-104879523D01*
X176272380Y-105355714D02*
X176272380Y-105546190D01*
X176224761Y-105641428D01*
X176177142Y-105689047D01*
X176034285Y-105784285D01*
X175843809Y-105831904D01*
X175462857Y-105831904D01*
X175367619Y-105784285D01*
X175320000Y-105736666D01*
X175272380Y-105641428D01*
X175272380Y-105450952D01*
X175320000Y-105355714D01*
X175367619Y-105308095D01*
X175462857Y-105260476D01*
X175700952Y-105260476D01*
X175796190Y-105308095D01*
X175843809Y-105355714D01*
X175891428Y-105450952D01*
X175891428Y-105641428D01*
X175843809Y-105736666D01*
X175796190Y-105784285D01*
X175700952Y-105831904D01*
%TO.C,C32*%
X127272857Y-107657142D02*
X127320476Y-107704761D01*
X127463333Y-107752380D01*
X127558571Y-107752380D01*
X127701428Y-107704761D01*
X127796666Y-107609523D01*
X127844285Y-107514285D01*
X127891904Y-107323809D01*
X127891904Y-107180952D01*
X127844285Y-106990476D01*
X127796666Y-106895238D01*
X127701428Y-106800000D01*
X127558571Y-106752380D01*
X127463333Y-106752380D01*
X127320476Y-106800000D01*
X127272857Y-106847619D01*
X126939523Y-106752380D02*
X126320476Y-106752380D01*
X126653809Y-107133333D01*
X126510952Y-107133333D01*
X126415714Y-107180952D01*
X126368095Y-107228571D01*
X126320476Y-107323809D01*
X126320476Y-107561904D01*
X126368095Y-107657142D01*
X126415714Y-107704761D01*
X126510952Y-107752380D01*
X126796666Y-107752380D01*
X126891904Y-107704761D01*
X126939523Y-107657142D01*
X125939523Y-106847619D02*
X125891904Y-106800000D01*
X125796666Y-106752380D01*
X125558571Y-106752380D01*
X125463333Y-106800000D01*
X125415714Y-106847619D01*
X125368095Y-106942857D01*
X125368095Y-107038095D01*
X125415714Y-107180952D01*
X125987142Y-107752380D01*
X125368095Y-107752380D01*
%TO.C,R4*%
X156822380Y-80353333D02*
X156346190Y-80020000D01*
X156822380Y-79781904D02*
X155822380Y-79781904D01*
X155822380Y-80162857D01*
X155870000Y-80258095D01*
X155917619Y-80305714D01*
X156012857Y-80353333D01*
X156155714Y-80353333D01*
X156250952Y-80305714D01*
X156298571Y-80258095D01*
X156346190Y-80162857D01*
X156346190Y-79781904D01*
X156155714Y-81210476D02*
X156822380Y-81210476D01*
X155774761Y-80972380D02*
X156489047Y-80734285D01*
X156489047Y-81353333D01*
%TO.C,C33*%
X192007142Y-78977142D02*
X192054761Y-78929523D01*
X192102380Y-78786666D01*
X192102380Y-78691428D01*
X192054761Y-78548571D01*
X191959523Y-78453333D01*
X191864285Y-78405714D01*
X191673809Y-78358095D01*
X191530952Y-78358095D01*
X191340476Y-78405714D01*
X191245238Y-78453333D01*
X191150000Y-78548571D01*
X191102380Y-78691428D01*
X191102380Y-78786666D01*
X191150000Y-78929523D01*
X191197619Y-78977142D01*
X191102380Y-79310476D02*
X191102380Y-79929523D01*
X191483333Y-79596190D01*
X191483333Y-79739047D01*
X191530952Y-79834285D01*
X191578571Y-79881904D01*
X191673809Y-79929523D01*
X191911904Y-79929523D01*
X192007142Y-79881904D01*
X192054761Y-79834285D01*
X192102380Y-79739047D01*
X192102380Y-79453333D01*
X192054761Y-79358095D01*
X192007142Y-79310476D01*
X191102380Y-80262857D02*
X191102380Y-80881904D01*
X191483333Y-80548571D01*
X191483333Y-80691428D01*
X191530952Y-80786666D01*
X191578571Y-80834285D01*
X191673809Y-80881904D01*
X191911904Y-80881904D01*
X192007142Y-80834285D01*
X192054761Y-80786666D01*
X192102380Y-80691428D01*
X192102380Y-80405714D01*
X192054761Y-80310476D01*
X192007142Y-80262857D01*
%TO.C,R48*%
X135802380Y-55282142D02*
X135326190Y-54948809D01*
X135802380Y-54710714D02*
X134802380Y-54710714D01*
X134802380Y-55091666D01*
X134850000Y-55186904D01*
X134897619Y-55234523D01*
X134992857Y-55282142D01*
X135135714Y-55282142D01*
X135230952Y-55234523D01*
X135278571Y-55186904D01*
X135326190Y-55091666D01*
X135326190Y-54710714D01*
X135135714Y-56139285D02*
X135802380Y-56139285D01*
X134754761Y-55901190D02*
X135469047Y-55663095D01*
X135469047Y-56282142D01*
X135230952Y-56805952D02*
X135183333Y-56710714D01*
X135135714Y-56663095D01*
X135040476Y-56615476D01*
X134992857Y-56615476D01*
X134897619Y-56663095D01*
X134850000Y-56710714D01*
X134802380Y-56805952D01*
X134802380Y-56996428D01*
X134850000Y-57091666D01*
X134897619Y-57139285D01*
X134992857Y-57186904D01*
X135040476Y-57186904D01*
X135135714Y-57139285D01*
X135183333Y-57091666D01*
X135230952Y-56996428D01*
X135230952Y-56805952D01*
X135278571Y-56710714D01*
X135326190Y-56663095D01*
X135421428Y-56615476D01*
X135611904Y-56615476D01*
X135707142Y-56663095D01*
X135754761Y-56710714D01*
X135802380Y-56805952D01*
X135802380Y-56996428D01*
X135754761Y-57091666D01*
X135707142Y-57139285D01*
X135611904Y-57186904D01*
X135421428Y-57186904D01*
X135326190Y-57139285D01*
X135278571Y-57091666D01*
X135230952Y-56996428D01*
%TO.C,R7*%
X171336666Y-78672380D02*
X171670000Y-78196190D01*
X171908095Y-78672380D02*
X171908095Y-77672380D01*
X171527142Y-77672380D01*
X171431904Y-77720000D01*
X171384285Y-77767619D01*
X171336666Y-77862857D01*
X171336666Y-78005714D01*
X171384285Y-78100952D01*
X171431904Y-78148571D01*
X171527142Y-78196190D01*
X171908095Y-78196190D01*
X171003333Y-77672380D02*
X170336666Y-77672380D01*
X170765238Y-78672380D01*
%TO.C,Q2*%
X175885238Y-78507619D02*
X175980476Y-78460000D01*
X176075714Y-78364761D01*
X176218571Y-78221904D01*
X176313809Y-78174285D01*
X176409047Y-78174285D01*
X176361428Y-78412380D02*
X176456666Y-78364761D01*
X176551904Y-78269523D01*
X176599523Y-78079047D01*
X176599523Y-77745714D01*
X176551904Y-77555238D01*
X176456666Y-77460000D01*
X176361428Y-77412380D01*
X176170952Y-77412380D01*
X176075714Y-77460000D01*
X175980476Y-77555238D01*
X175932857Y-77745714D01*
X175932857Y-78079047D01*
X175980476Y-78269523D01*
X176075714Y-78364761D01*
X176170952Y-78412380D01*
X176361428Y-78412380D01*
X175551904Y-77507619D02*
X175504285Y-77460000D01*
X175409047Y-77412380D01*
X175170952Y-77412380D01*
X175075714Y-77460000D01*
X175028095Y-77507619D01*
X174980476Y-77602857D01*
X174980476Y-77698095D01*
X175028095Y-77840952D01*
X175599523Y-78412380D01*
X174980476Y-78412380D01*
%TO.C,C9*%
X170806666Y-81687142D02*
X170854285Y-81734761D01*
X170997142Y-81782380D01*
X171092380Y-81782380D01*
X171235238Y-81734761D01*
X171330476Y-81639523D01*
X171378095Y-81544285D01*
X171425714Y-81353809D01*
X171425714Y-81210952D01*
X171378095Y-81020476D01*
X171330476Y-80925238D01*
X171235238Y-80830000D01*
X171092380Y-80782380D01*
X170997142Y-80782380D01*
X170854285Y-80830000D01*
X170806666Y-80877619D01*
X170330476Y-81782380D02*
X170140000Y-81782380D01*
X170044761Y-81734761D01*
X169997142Y-81687142D01*
X169901904Y-81544285D01*
X169854285Y-81353809D01*
X169854285Y-80972857D01*
X169901904Y-80877619D01*
X169949523Y-80830000D01*
X170044761Y-80782380D01*
X170235238Y-80782380D01*
X170330476Y-80830000D01*
X170378095Y-80877619D01*
X170425714Y-80972857D01*
X170425714Y-81210952D01*
X170378095Y-81306190D01*
X170330476Y-81353809D01*
X170235238Y-81401428D01*
X170044761Y-81401428D01*
X169949523Y-81353809D01*
X169901904Y-81306190D01*
X169854285Y-81210952D01*
%TO.C,Q5*%
X142635238Y-59207619D02*
X142730476Y-59160000D01*
X142825714Y-59064761D01*
X142968571Y-58921904D01*
X143063809Y-58874285D01*
X143159047Y-58874285D01*
X143111428Y-59112380D02*
X143206666Y-59064761D01*
X143301904Y-58969523D01*
X143349523Y-58779047D01*
X143349523Y-58445714D01*
X143301904Y-58255238D01*
X143206666Y-58160000D01*
X143111428Y-58112380D01*
X142920952Y-58112380D01*
X142825714Y-58160000D01*
X142730476Y-58255238D01*
X142682857Y-58445714D01*
X142682857Y-58779047D01*
X142730476Y-58969523D01*
X142825714Y-59064761D01*
X142920952Y-59112380D01*
X143111428Y-59112380D01*
X141778095Y-58112380D02*
X142254285Y-58112380D01*
X142301904Y-58588571D01*
X142254285Y-58540952D01*
X142159047Y-58493333D01*
X141920952Y-58493333D01*
X141825714Y-58540952D01*
X141778095Y-58588571D01*
X141730476Y-58683809D01*
X141730476Y-58921904D01*
X141778095Y-59017142D01*
X141825714Y-59064761D01*
X141920952Y-59112380D01*
X142159047Y-59112380D01*
X142254285Y-59064761D01*
X142301904Y-59017142D01*
%TO.C,C18*%
X175687142Y-82777142D02*
X175734761Y-82729523D01*
X175782380Y-82586666D01*
X175782380Y-82491428D01*
X175734761Y-82348571D01*
X175639523Y-82253333D01*
X175544285Y-82205714D01*
X175353809Y-82158095D01*
X175210952Y-82158095D01*
X175020476Y-82205714D01*
X174925238Y-82253333D01*
X174830000Y-82348571D01*
X174782380Y-82491428D01*
X174782380Y-82586666D01*
X174830000Y-82729523D01*
X174877619Y-82777142D01*
X175782380Y-83729523D02*
X175782380Y-83158095D01*
X175782380Y-83443809D02*
X174782380Y-83443809D01*
X174925238Y-83348571D01*
X175020476Y-83253333D01*
X175068095Y-83158095D01*
X175210952Y-84300952D02*
X175163333Y-84205714D01*
X175115714Y-84158095D01*
X175020476Y-84110476D01*
X174972857Y-84110476D01*
X174877619Y-84158095D01*
X174830000Y-84205714D01*
X174782380Y-84300952D01*
X174782380Y-84491428D01*
X174830000Y-84586666D01*
X174877619Y-84634285D01*
X174972857Y-84681904D01*
X175020476Y-84681904D01*
X175115714Y-84634285D01*
X175163333Y-84586666D01*
X175210952Y-84491428D01*
X175210952Y-84300952D01*
X175258571Y-84205714D01*
X175306190Y-84158095D01*
X175401428Y-84110476D01*
X175591904Y-84110476D01*
X175687142Y-84158095D01*
X175734761Y-84205714D01*
X175782380Y-84300952D01*
X175782380Y-84491428D01*
X175734761Y-84586666D01*
X175687142Y-84634285D01*
X175591904Y-84681904D01*
X175401428Y-84681904D01*
X175306190Y-84634285D01*
X175258571Y-84586666D01*
X175210952Y-84491428D01*
%TO.C,R39*%
X154572380Y-44487142D02*
X154096190Y-44153809D01*
X154572380Y-43915714D02*
X153572380Y-43915714D01*
X153572380Y-44296666D01*
X153620000Y-44391904D01*
X153667619Y-44439523D01*
X153762857Y-44487142D01*
X153905714Y-44487142D01*
X154000952Y-44439523D01*
X154048571Y-44391904D01*
X154096190Y-44296666D01*
X154096190Y-43915714D01*
X153572380Y-44820476D02*
X153572380Y-45439523D01*
X153953333Y-45106190D01*
X153953333Y-45249047D01*
X154000952Y-45344285D01*
X154048571Y-45391904D01*
X154143809Y-45439523D01*
X154381904Y-45439523D01*
X154477142Y-45391904D01*
X154524761Y-45344285D01*
X154572380Y-45249047D01*
X154572380Y-44963333D01*
X154524761Y-44868095D01*
X154477142Y-44820476D01*
X154572380Y-45915714D02*
X154572380Y-46106190D01*
X154524761Y-46201428D01*
X154477142Y-46249047D01*
X154334285Y-46344285D01*
X154143809Y-46391904D01*
X153762857Y-46391904D01*
X153667619Y-46344285D01*
X153620000Y-46296666D01*
X153572380Y-46201428D01*
X153572380Y-46010952D01*
X153620000Y-45915714D01*
X153667619Y-45868095D01*
X153762857Y-45820476D01*
X154000952Y-45820476D01*
X154096190Y-45868095D01*
X154143809Y-45915714D01*
X154191428Y-46010952D01*
X154191428Y-46201428D01*
X154143809Y-46296666D01*
X154096190Y-46344285D01*
X154000952Y-46391904D01*
%TO.C,C34*%
X190462142Y-78972142D02*
X190509761Y-78924523D01*
X190557380Y-78781666D01*
X190557380Y-78686428D01*
X190509761Y-78543571D01*
X190414523Y-78448333D01*
X190319285Y-78400714D01*
X190128809Y-78353095D01*
X189985952Y-78353095D01*
X189795476Y-78400714D01*
X189700238Y-78448333D01*
X189605000Y-78543571D01*
X189557380Y-78686428D01*
X189557380Y-78781666D01*
X189605000Y-78924523D01*
X189652619Y-78972142D01*
X189557380Y-79305476D02*
X189557380Y-79924523D01*
X189938333Y-79591190D01*
X189938333Y-79734047D01*
X189985952Y-79829285D01*
X190033571Y-79876904D01*
X190128809Y-79924523D01*
X190366904Y-79924523D01*
X190462142Y-79876904D01*
X190509761Y-79829285D01*
X190557380Y-79734047D01*
X190557380Y-79448333D01*
X190509761Y-79353095D01*
X190462142Y-79305476D01*
X189890714Y-80781666D02*
X190557380Y-80781666D01*
X189509761Y-80543571D02*
X190224047Y-80305476D01*
X190224047Y-80924523D01*
%TO.C,C8*%
X170826666Y-83107142D02*
X170874285Y-83154761D01*
X171017142Y-83202380D01*
X171112380Y-83202380D01*
X171255238Y-83154761D01*
X171350476Y-83059523D01*
X171398095Y-82964285D01*
X171445714Y-82773809D01*
X171445714Y-82630952D01*
X171398095Y-82440476D01*
X171350476Y-82345238D01*
X171255238Y-82250000D01*
X171112380Y-82202380D01*
X171017142Y-82202380D01*
X170874285Y-82250000D01*
X170826666Y-82297619D01*
X170255238Y-82630952D02*
X170350476Y-82583333D01*
X170398095Y-82535714D01*
X170445714Y-82440476D01*
X170445714Y-82392857D01*
X170398095Y-82297619D01*
X170350476Y-82250000D01*
X170255238Y-82202380D01*
X170064761Y-82202380D01*
X169969523Y-82250000D01*
X169921904Y-82297619D01*
X169874285Y-82392857D01*
X169874285Y-82440476D01*
X169921904Y-82535714D01*
X169969523Y-82583333D01*
X170064761Y-82630952D01*
X170255238Y-82630952D01*
X170350476Y-82678571D01*
X170398095Y-82726190D01*
X170445714Y-82821428D01*
X170445714Y-83011904D01*
X170398095Y-83107142D01*
X170350476Y-83154761D01*
X170255238Y-83202380D01*
X170064761Y-83202380D01*
X169969523Y-83154761D01*
X169921904Y-83107142D01*
X169874285Y-83011904D01*
X169874285Y-82821428D01*
X169921904Y-82726190D01*
X169969523Y-82678571D01*
X170064761Y-82630952D01*
%TO.C,C3*%
X159837142Y-83753333D02*
X159884761Y-83705714D01*
X159932380Y-83562857D01*
X159932380Y-83467619D01*
X159884761Y-83324761D01*
X159789523Y-83229523D01*
X159694285Y-83181904D01*
X159503809Y-83134285D01*
X159360952Y-83134285D01*
X159170476Y-83181904D01*
X159075238Y-83229523D01*
X158980000Y-83324761D01*
X158932380Y-83467619D01*
X158932380Y-83562857D01*
X158980000Y-83705714D01*
X159027619Y-83753333D01*
X158932380Y-84086666D02*
X158932380Y-84705714D01*
X159313333Y-84372380D01*
X159313333Y-84515238D01*
X159360952Y-84610476D01*
X159408571Y-84658095D01*
X159503809Y-84705714D01*
X159741904Y-84705714D01*
X159837142Y-84658095D01*
X159884761Y-84610476D01*
X159932380Y-84515238D01*
X159932380Y-84229523D01*
X159884761Y-84134285D01*
X159837142Y-84086666D01*
%TO.C,R25*%
X137082857Y-109112380D02*
X137416190Y-108636190D01*
X137654285Y-109112380D02*
X137654285Y-108112380D01*
X137273333Y-108112380D01*
X137178095Y-108160000D01*
X137130476Y-108207619D01*
X137082857Y-108302857D01*
X137082857Y-108445714D01*
X137130476Y-108540952D01*
X137178095Y-108588571D01*
X137273333Y-108636190D01*
X137654285Y-108636190D01*
X136701904Y-108207619D02*
X136654285Y-108160000D01*
X136559047Y-108112380D01*
X136320952Y-108112380D01*
X136225714Y-108160000D01*
X136178095Y-108207619D01*
X136130476Y-108302857D01*
X136130476Y-108398095D01*
X136178095Y-108540952D01*
X136749523Y-109112380D01*
X136130476Y-109112380D01*
X135225714Y-108112380D02*
X135701904Y-108112380D01*
X135749523Y-108588571D01*
X135701904Y-108540952D01*
X135606666Y-108493333D01*
X135368571Y-108493333D01*
X135273333Y-108540952D01*
X135225714Y-108588571D01*
X135178095Y-108683809D01*
X135178095Y-108921904D01*
X135225714Y-109017142D01*
X135273333Y-109064761D01*
X135368571Y-109112380D01*
X135606666Y-109112380D01*
X135701904Y-109064761D01*
X135749523Y-109017142D01*
%TO.C,D7*%
X140315095Y-100668630D02*
X140315095Y-99668630D01*
X140077000Y-99668630D01*
X139934142Y-99716250D01*
X139838904Y-99811488D01*
X139791285Y-99906726D01*
X139743666Y-100097202D01*
X139743666Y-100240059D01*
X139791285Y-100430535D01*
X139838904Y-100525773D01*
X139934142Y-100621011D01*
X140077000Y-100668630D01*
X140315095Y-100668630D01*
X139410333Y-99668630D02*
X138743666Y-99668630D01*
X139172238Y-100668630D01*
%TO.C,C21*%
X140322857Y-91737142D02*
X140370476Y-91784761D01*
X140513333Y-91832380D01*
X140608571Y-91832380D01*
X140751428Y-91784761D01*
X140846666Y-91689523D01*
X140894285Y-91594285D01*
X140941904Y-91403809D01*
X140941904Y-91260952D01*
X140894285Y-91070476D01*
X140846666Y-90975238D01*
X140751428Y-90880000D01*
X140608571Y-90832380D01*
X140513333Y-90832380D01*
X140370476Y-90880000D01*
X140322857Y-90927619D01*
X139941904Y-90927619D02*
X139894285Y-90880000D01*
X139799047Y-90832380D01*
X139560952Y-90832380D01*
X139465714Y-90880000D01*
X139418095Y-90927619D01*
X139370476Y-91022857D01*
X139370476Y-91118095D01*
X139418095Y-91260952D01*
X139989523Y-91832380D01*
X139370476Y-91832380D01*
X138418095Y-91832380D02*
X138989523Y-91832380D01*
X138703809Y-91832380D02*
X138703809Y-90832380D01*
X138799047Y-90975238D01*
X138894285Y-91070476D01*
X138989523Y-91118095D01*
%TO.C,C22*%
X140297857Y-90232142D02*
X140345476Y-90279761D01*
X140488333Y-90327380D01*
X140583571Y-90327380D01*
X140726428Y-90279761D01*
X140821666Y-90184523D01*
X140869285Y-90089285D01*
X140916904Y-89898809D01*
X140916904Y-89755952D01*
X140869285Y-89565476D01*
X140821666Y-89470238D01*
X140726428Y-89375000D01*
X140583571Y-89327380D01*
X140488333Y-89327380D01*
X140345476Y-89375000D01*
X140297857Y-89422619D01*
X139916904Y-89422619D02*
X139869285Y-89375000D01*
X139774047Y-89327380D01*
X139535952Y-89327380D01*
X139440714Y-89375000D01*
X139393095Y-89422619D01*
X139345476Y-89517857D01*
X139345476Y-89613095D01*
X139393095Y-89755952D01*
X139964523Y-90327380D01*
X139345476Y-90327380D01*
X138964523Y-89422619D02*
X138916904Y-89375000D01*
X138821666Y-89327380D01*
X138583571Y-89327380D01*
X138488333Y-89375000D01*
X138440714Y-89422619D01*
X138393095Y-89517857D01*
X138393095Y-89613095D01*
X138440714Y-89755952D01*
X139012142Y-90327380D01*
X138393095Y-90327380D01*
%TO.C,J4*%
X115295284Y-47594999D02*
G75*
G03*
X115295284Y-47594999I-2342236J0D01*
G01*
X191303235Y-91572999D02*
G75*
G03*
X191303235Y-91572999I-2342236J0D01*
G01*
X191303235Y-47572999D02*
G75*
G03*
X191303235Y-47572999I-2342236J0D01*
G01*
X115295471Y-91574999D02*
G75*
G03*
X115295471Y-91574999I-2342236J0D01*
G01*
D12*
%TO.C,D11*%
X142970000Y-50150000D02*
X142970000Y-48950000D01*
X144820000Y-50150000D02*
X142970000Y-50150000D01*
X144820000Y-48950000D02*
X142970000Y-48950000D01*
%TO.C,R11*%
X161777000Y-101102742D02*
X161777000Y-101577258D01*
X160732000Y-101102742D02*
X160732000Y-101577258D01*
%TO.C,R35*%
X151082500Y-49637258D02*
X151082500Y-49162742D01*
X152127500Y-49637258D02*
X152127500Y-49162742D01*
D13*
%TO.C,Q4*%
X117859454Y-62450600D02*
X117055000Y-62450600D01*
X117055000Y-62450600D02*
X117055000Y-61589540D01*
X117055000Y-60060460D02*
X117055000Y-59199400D01*
X118706000Y-60639539D02*
X118706000Y-61010461D01*
X117055000Y-59199400D02*
X117859454Y-59199400D01*
D12*
%TO.C,R1*%
X117512258Y-88522500D02*
X117037742Y-88522500D01*
X117512258Y-87477500D02*
X117037742Y-87477500D01*
D10*
%TO.C,J1*%
X104217144Y-87063899D02*
X135047144Y-87062499D01*
X101677144Y-67982499D02*
X101677144Y-84523899D01*
D12*
X110617144Y-84462499D02*
X110617144Y-87082499D01*
X130947144Y-84462499D02*
X130947144Y-87082499D01*
X110617144Y-87082499D02*
X130947144Y-87082499D01*
D10*
X137237144Y-68022499D02*
X137237144Y-84523899D01*
X104217144Y-65472499D02*
X134697144Y-65473899D01*
D12*
X110617144Y-84462499D02*
X130947144Y-84462499D01*
D10*
X135078144Y-87063899D02*
G75*
G03*
X137237144Y-84523899I-190500J2349500D01*
G01*
X104217144Y-65472499D02*
G75*
G03*
X101677144Y-68008550I-3943J-2536054D01*
G01*
X101677144Y-84523899D02*
G75*
G03*
X104217144Y-87063899I2540001J1D01*
G01*
X137237144Y-68013899D02*
G75*
G03*
X134697144Y-65473899I-2540000J0D01*
G01*
D14*
X106217144Y-68013899D02*
G75*
G03*
X106217144Y-68013899I-2000000J0D01*
G01*
X106217144Y-84523899D02*
G75*
G03*
X106217144Y-84523899I-2000000J0D01*
G01*
D12*
%TO.C,C35*%
X141130000Y-55849420D02*
X141130000Y-56130580D01*
X140110000Y-55849420D02*
X140110000Y-56130580D01*
D13*
%TO.C,Q3*%
X179205000Y-101360462D02*
X179205000Y-100989540D01*
X180856000Y-101939541D02*
X180856000Y-102800601D01*
X180856000Y-102800601D02*
X180051546Y-102800601D01*
X180856000Y-99549401D02*
X180856000Y-100410461D01*
X180051546Y-99549401D02*
X180856000Y-99549401D01*
D12*
%TO.C,R33*%
X122852258Y-106127500D02*
X122377742Y-106127500D01*
X122852258Y-105082500D02*
X122377742Y-105082500D01*
%TO.C,R36*%
X122377742Y-104652500D02*
X122852258Y-104652500D01*
X122377742Y-103607500D02*
X122852258Y-103607500D01*
D13*
%TO.C,U5*%
X134040000Y-92695200D02*
X134040000Y-93304800D01*
X134040000Y-93304800D02*
X134040000Y-95260600D01*
X128960000Y-95260600D02*
X128960000Y-90739400D01*
X134040000Y-90739400D02*
X134040000Y-92695200D01*
X134040000Y-92695200D02*
G75*
G03*
X134040000Y-93304800I0J-304800D01*
G01*
D12*
%TO.C,R27*%
X140432500Y-46427258D02*
X140432500Y-45952742D01*
X139387500Y-46427258D02*
X139387500Y-45952742D01*
D13*
%TO.C,Q8*%
X112640500Y-68639540D02*
X112640500Y-69010462D01*
X111793954Y-70450601D02*
X110989500Y-70450601D01*
X110989500Y-67199401D02*
X111793954Y-67199401D01*
X110989500Y-68060461D02*
X110989500Y-67199401D01*
X110989500Y-70450601D02*
X110989500Y-69589541D01*
D12*
%TO.C,R31*%
X176643000Y-101112742D02*
X176643000Y-101587258D01*
X177688000Y-101112742D02*
X177688000Y-101587258D01*
D13*
%TO.C,U2*%
X165140999Y-75746700D02*
X165140999Y-77753300D01*
X161838999Y-77753300D02*
X161838999Y-75746700D01*
D12*
%TO.C,R56*%
X114298000Y-68637742D02*
X114298000Y-69112258D01*
X115343000Y-68637742D02*
X115343000Y-69112258D01*
D13*
%TO.C,Q6*%
X144435500Y-55704539D02*
X144435500Y-56075461D01*
X142784500Y-57515600D02*
X142784500Y-56654540D01*
X142784500Y-54264400D02*
X143588954Y-54264400D01*
X142784500Y-55125460D02*
X142784500Y-54264400D01*
X143588954Y-57515600D02*
X142784500Y-57515600D01*
D12*
%TO.C,R12*%
X159257000Y-101567258D02*
X159257000Y-101092742D01*
X160302000Y-101567258D02*
X160302000Y-101092742D01*
%TO.C,R17*%
X172427500Y-74977742D02*
X172427500Y-75452258D01*
X173472500Y-74977742D02*
X173472500Y-75452258D01*
D13*
%TO.C,U4*%
X181171000Y-81696700D02*
X181171000Y-83703300D01*
X177869000Y-83703300D02*
X177869000Y-81696700D01*
D12*
%TO.C,C6*%
X161509999Y-77264420D02*
X161509999Y-77545580D01*
X160489999Y-77264420D02*
X160489999Y-77545580D01*
D15*
%TO.C,J2*%
X167907992Y-52745001D02*
X166383992Y-53380001D01*
X157690009Y-43000001D02*
X166129992Y-43000001D01*
X163239960Y-53690000D02*
X163038226Y-53690000D01*
X158281774Y-53690000D02*
X157690009Y-53690000D01*
X157690009Y-53690000D02*
X157690009Y-43000001D01*
X166129992Y-53690000D02*
X165580040Y-53690000D01*
X166383992Y-53380001D02*
X167907992Y-54015001D01*
X166129992Y-43000001D02*
X166129992Y-53690000D01*
X160781774Y-53690000D02*
X160538226Y-53690000D01*
X167907992Y-54015001D02*
X167907992Y-52745001D01*
D13*
%TO.C,Q7*%
X116995000Y-68110460D02*
X116995000Y-67249400D01*
X116995000Y-67249400D02*
X117799454Y-67249400D01*
X117799454Y-70500600D02*
X116995000Y-70500600D01*
X116995000Y-70500600D02*
X116995000Y-69639540D01*
X118646000Y-68689539D02*
X118646000Y-69060461D01*
D12*
%TO.C,R5*%
X161517501Y-80142741D02*
X161517501Y-80617257D01*
X160472501Y-80142741D02*
X160472501Y-80617257D01*
%TO.C,R19*%
X179697500Y-74977742D02*
X179697500Y-75452258D01*
X180742500Y-74977742D02*
X180742500Y-75452258D01*
%TO.C,D9*%
X140470000Y-50150000D02*
X140470000Y-48950000D01*
X142320000Y-50150000D02*
X140470000Y-50150000D01*
X142320000Y-48950000D02*
X140470000Y-48950000D01*
%TO.C,C39*%
X184175000Y-77630000D02*
X184175000Y-73720000D01*
X186045000Y-73720000D02*
X186045000Y-77630000D01*
X184175000Y-73720000D02*
X186045000Y-73720000D01*
%TO.C,R49*%
X121857758Y-69152500D02*
X121383242Y-69152500D01*
X121857758Y-70197500D02*
X121383242Y-70197500D01*
%TO.C,D13*%
X125812500Y-103130000D02*
X121962500Y-103130000D01*
X125812500Y-101130000D02*
X125812500Y-103130000D01*
X125812500Y-101130000D02*
X121962500Y-101130000D01*
%TO.C,R44*%
X147112500Y-53187258D02*
X147112500Y-52712742D01*
X146067500Y-53187258D02*
X146067500Y-52712742D01*
%TO.C,R24*%
X138674758Y-105063750D02*
X138200242Y-105063750D01*
X138674758Y-106108750D02*
X138200242Y-106108750D01*
%TO.C,R43*%
X121917758Y-60547500D02*
X121443242Y-60547500D01*
X121917758Y-59502500D02*
X121443242Y-59502500D01*
%TO.C,R45*%
X147122500Y-56227258D02*
X147122500Y-55752742D01*
X146077500Y-56227258D02*
X146077500Y-55752742D01*
%TO.C,R47*%
X138567500Y-52722742D02*
X138567500Y-53197258D01*
X139612500Y-52722742D02*
X139612500Y-53197258D01*
%TO.C,J3*%
X149370000Y-47882500D02*
X148920000Y-47882500D01*
X141570000Y-46032500D02*
X141570000Y-47882500D01*
X143770000Y-48432500D02*
X143770000Y-47982500D01*
X143770000Y-48432500D02*
X144220000Y-48432500D01*
X149370000Y-46032500D02*
X149370000Y-47882500D01*
X141570000Y-47882500D02*
X142020000Y-47882500D01*
%TO.C,C37*%
X187480000Y-75350580D02*
X187480000Y-75069420D01*
X186460000Y-75350580D02*
X186460000Y-75069420D01*
D15*
%TO.C,U7*%
X175450000Y-71490000D02*
X174800000Y-71490000D01*
X174800000Y-55940000D02*
X174800000Y-53490000D01*
D12*
X193950000Y-71490000D02*
X193550000Y-71490000D01*
D15*
X174800000Y-71490000D02*
X174800000Y-69040000D01*
D12*
X193950000Y-53490000D02*
X193550000Y-53490000D01*
D15*
X174800000Y-53490000D02*
X175450000Y-53490000D01*
D11*
X192900000Y-72490000D02*
G75*
G03*
X192900000Y-72490000I-100000J0D01*
G01*
D12*
%TO.C,R50*%
X121857758Y-67352500D02*
X121383242Y-67352500D01*
X121857758Y-68397500D02*
X121383242Y-68397500D01*
%TO.C,R42*%
X121917758Y-62147500D02*
X121443242Y-62147500D01*
X121917758Y-61102500D02*
X121443242Y-61102500D01*
%TO.C,C10*%
X166839419Y-77290000D02*
X167120579Y-77290000D01*
X166839419Y-76270000D02*
X167120579Y-76270000D01*
%TO.C,R26*%
X182727500Y-75447258D02*
X182727500Y-74972742D01*
X183772500Y-75447258D02*
X183772500Y-74972742D01*
%TO.C,C1*%
X120109420Y-88510000D02*
X120390580Y-88510000D01*
X120109420Y-87490000D02*
X120390580Y-87490000D01*
%TO.C,R13*%
X187292258Y-96792500D02*
X186817742Y-96792500D01*
X187292258Y-95747500D02*
X186817742Y-95747500D01*
%TO.C,R8*%
X190342258Y-99742500D02*
X189867742Y-99742500D01*
X190342258Y-98697500D02*
X189867742Y-98697500D01*
%TO.C,R59*%
X187282258Y-102512500D02*
X186807742Y-102512500D01*
X187282258Y-101467500D02*
X186807742Y-101467500D01*
%TO.C,U6*%
X151380000Y-51890000D02*
X151380000Y-52615000D01*
X155875000Y-51890000D02*
X156600000Y-51890000D01*
X152105000Y-57110000D02*
X151380000Y-57110000D01*
X156600000Y-57110000D02*
X156600000Y-56385000D01*
X156600000Y-51890000D02*
X156600000Y-52615000D01*
X152105000Y-51890000D02*
X151380000Y-51890000D01*
X155875000Y-57110000D02*
X156600000Y-57110000D01*
%TO.C,C20*%
X182899420Y-80760000D02*
X183180580Y-80760000D01*
X182899420Y-81780000D02*
X183180580Y-81780000D01*
%TO.C,R6*%
X166702742Y-84712500D02*
X167177258Y-84712500D01*
X166702742Y-83667500D02*
X167177258Y-83667500D01*
%TO.C,R37*%
X150677500Y-49637258D02*
X150677500Y-49162742D01*
X149632500Y-49637258D02*
X149632500Y-49162742D01*
%TO.C,C19*%
X182899420Y-83240000D02*
X183180580Y-83240000D01*
X182899420Y-82220000D02*
X183180580Y-82220000D01*
%TO.C,R40*%
X190342258Y-102512500D02*
X189867742Y-102512500D01*
X190342258Y-101467500D02*
X189867742Y-101467500D01*
%TO.C,R46*%
X115372500Y-61087258D02*
X115372500Y-60612742D01*
X114327500Y-61087258D02*
X114327500Y-60612742D01*
%TO.C,C27*%
X140417500Y-104720670D02*
X140417500Y-105001830D01*
X141437500Y-104720670D02*
X141437500Y-105001830D01*
%TO.C,R41*%
X155922500Y-49657258D02*
X155922500Y-49182742D01*
X154877500Y-49657258D02*
X154877500Y-49182742D01*
%TO.C,D10*%
X145920000Y-48950000D02*
X147770000Y-48950000D01*
X147770000Y-48950000D02*
X147770000Y-50150000D01*
X145920000Y-50150000D02*
X147770000Y-50150000D01*
D13*
%TO.C,Q1*%
X163164500Y-101345461D02*
X163164500Y-100974539D01*
X164815500Y-101924540D02*
X164815500Y-102785600D01*
X164011046Y-99534400D02*
X164815500Y-99534400D01*
X164815500Y-102785600D02*
X164011046Y-102785600D01*
X164815500Y-99534400D02*
X164815500Y-100395460D01*
D12*
%TO.C,R57*%
X187287258Y-98697500D02*
X186812742Y-98697500D01*
X187287258Y-99742500D02*
X186812742Y-99742500D01*
%TO.C,C26*%
X182220000Y-75350580D02*
X182220000Y-75069420D01*
X181200000Y-75350580D02*
X181200000Y-75069420D01*
%TO.C,R16*%
X182802742Y-83667500D02*
X183277258Y-83667500D01*
X182802742Y-84712500D02*
X183277258Y-84712500D01*
%TO.C,C31*%
X149650000Y-52214420D02*
X149650000Y-52495580D01*
X150670000Y-52214420D02*
X150670000Y-52495580D01*
%TO.C,C38*%
X141130000Y-52819420D02*
X141130000Y-53100580D01*
X140110000Y-52819420D02*
X140110000Y-53100580D01*
%TO.C,R18*%
X179262500Y-75452258D02*
X179262500Y-74977742D01*
X178217500Y-75452258D02*
X178217500Y-74977742D01*
%TO.C,C11*%
X166844419Y-75830000D02*
X167125579Y-75830000D01*
X166844419Y-74810000D02*
X167125579Y-74810000D01*
%TO.C,C36*%
X189010000Y-75350580D02*
X189010000Y-75069420D01*
X187990000Y-75350580D02*
X187990000Y-75069420D01*
%TO.C,R58*%
X190344089Y-96792500D02*
X189869573Y-96792500D01*
X190344089Y-95747500D02*
X189869573Y-95747500D01*
D13*
%TO.C,U1*%
X165141000Y-81691451D02*
X165141000Y-83698051D01*
X161839000Y-83698051D02*
X161839000Y-81691451D01*
D12*
%TO.C,C29*%
X148190000Y-52214420D02*
X148190000Y-52495580D01*
X149210000Y-52214420D02*
X149210000Y-52495580D01*
%TO.C,R29*%
X175183000Y-101587258D02*
X175183000Y-101112742D01*
X176228000Y-101587258D02*
X176228000Y-101112742D01*
%TO.C,C32*%
X124580000Y-104714420D02*
X124580000Y-104995580D01*
X125600000Y-104714420D02*
X125600000Y-104995580D01*
%TO.C,R4*%
X159002501Y-80607257D02*
X159002501Y-80132741D01*
X160047501Y-80607257D02*
X160047501Y-80132741D01*
%TO.C,C33*%
X192067500Y-75345580D02*
X192067500Y-75064420D01*
X191047500Y-75345580D02*
X191047500Y-75064420D01*
%TO.C,R48*%
X138567500Y-55767742D02*
X138567500Y-56242258D01*
X139612500Y-55767742D02*
X139612500Y-56242258D01*
%TO.C,R7*%
X166742742Y-77717500D02*
X167217258Y-77717500D01*
X166742742Y-78762500D02*
X167217258Y-78762500D01*
D13*
%TO.C,Q2*%
X175005000Y-77040599D02*
X175005000Y-76179539D01*
X175809454Y-77040599D02*
X175005000Y-77040599D01*
X175005000Y-73789399D02*
X175809454Y-73789399D01*
X176656000Y-75229538D02*
X176656000Y-75600460D01*
X175005000Y-74650459D02*
X175005000Y-73789399D01*
D12*
%TO.C,C9*%
X166799421Y-80760001D02*
X167080581Y-80760001D01*
X166799421Y-81780001D02*
X167080581Y-81780001D01*
D13*
%TO.C,Q5*%
X143578954Y-53645600D02*
X142774500Y-53645600D01*
X142774500Y-51255460D02*
X142774500Y-50394400D01*
X142774500Y-53645600D02*
X142774500Y-52784540D01*
X144425500Y-51834539D02*
X144425500Y-52205461D01*
X142774500Y-50394400D02*
X143578954Y-50394400D01*
D12*
%TO.C,C18*%
X177430000Y-83259420D02*
X177430000Y-83540580D01*
X176410000Y-83259420D02*
X176410000Y-83540580D01*
%TO.C,R39*%
X153417500Y-49177742D02*
X153417500Y-49652258D01*
X154462500Y-49177742D02*
X154462500Y-49652258D01*
%TO.C,C34*%
X190537500Y-75355580D02*
X190537500Y-75074420D01*
X189517500Y-75355580D02*
X189517500Y-75074420D01*
%TO.C,C8*%
X166799421Y-83240001D02*
X167080581Y-83240001D01*
X166799421Y-82220001D02*
X167080581Y-82220001D01*
%TO.C,C3*%
X160460000Y-83223921D02*
X160460000Y-83505081D01*
X161480000Y-83223921D02*
X161480000Y-83505081D01*
%TO.C,R25*%
X138215242Y-104658750D02*
X138689758Y-104658750D01*
X138215242Y-103613750D02*
X138689758Y-103613750D01*
%TO.C,D7*%
X141650000Y-101121250D02*
X137800000Y-101121250D01*
X141650000Y-103121250D02*
X137800000Y-103121250D01*
X141650000Y-101121250D02*
X141650000Y-103121250D01*
%TO.C,C21*%
X135900580Y-90820000D02*
X135619420Y-90820000D01*
X135900580Y-91840000D02*
X135619420Y-91840000D01*
%TO.C,C22*%
X135619420Y-89340000D02*
X135900580Y-89340000D01*
X135619420Y-90360000D02*
X135900580Y-90360000D01*
%TD*%
M02*
