%TF.GenerationSoftware,KiCad,Pcbnew,(6.0.11)*%
%TF.CreationDate,2024-03-19T14:29:21-04:00*%
%TF.ProjectId,Ultrasonic Sound Steering - Remote Rev. B,556c7472-6173-46f6-9e69-6320536f756e,rev?*%
%TF.SameCoordinates,Original*%
%TF.FileFunction,Soldermask,Top*%
%TF.FilePolarity,Negative*%
%FSLAX46Y46*%
G04 Gerber Fmt 4.6, Leading zero omitted, Abs format (unit mm)*
G04 Created by KiCad (PCBNEW (6.0.11)) date 2024-03-19 14:29:21*
%MOMM*%
%LPD*%
G01*
G04 APERTURE LIST*
G04 Aperture macros list*
%AMRoundRect*
0 Rectangle with rounded corners*
0 $1 Rounding radius*
0 $2 $3 $4 $5 $6 $7 $8 $9 X,Y pos of 4 corners*
0 Add a 4 corners polygon primitive as box body*
4,1,4,$2,$3,$4,$5,$6,$7,$8,$9,$2,$3,0*
0 Add four circle primitives for the rounded corners*
1,1,$1+$1,$2,$3*
1,1,$1+$1,$4,$5*
1,1,$1+$1,$6,$7*
1,1,$1+$1,$8,$9*
0 Add four rect primitives between the rounded corners*
20,1,$1+$1,$2,$3,$4,$5,0*
20,1,$1+$1,$4,$5,$6,$7,0*
20,1,$1+$1,$6,$7,$8,$9,0*
20,1,$1+$1,$8,$9,$2,$3,0*%
G04 Aperture macros list end*
%ADD10RoundRect,0.102000X0.654000X-0.654000X0.654000X0.654000X-0.654000X0.654000X-0.654000X-0.654000X0*%
%ADD11C,1.512000*%
%ADD12RoundRect,0.225000X-0.250000X0.225000X-0.250000X-0.225000X0.250000X-0.225000X0.250000X0.225000X0*%
%ADD13RoundRect,0.200000X0.200000X0.275000X-0.200000X0.275000X-0.200000X-0.275000X0.200000X-0.275000X0*%
%ADD14R,2.180400X2.210000*%
%ADD15RoundRect,0.200000X-0.200000X-0.275000X0.200000X-0.275000X0.200000X0.275000X-0.200000X0.275000X0*%
%ADD16R,0.600000X0.700000*%
%ADD17RoundRect,0.102000X-0.900000X-0.900000X0.900000X-0.900000X0.900000X0.900000X-0.900000X0.900000X0*%
%ADD18C,2.004000*%
%ADD19O,3.204000X6.204000*%
%ADD20R,3.048000X2.286000*%
%ADD21RoundRect,0.102000X-0.654000X0.654000X-0.654000X-0.654000X0.654000X-0.654000X0.654000X0.654000X0*%
%ADD22C,5.600000*%
%ADD23C,3.600000*%
%ADD24R,1.100000X1.100000*%
%ADD25RoundRect,0.200000X-0.275000X0.200000X-0.275000X-0.200000X0.275000X-0.200000X0.275000X0.200000X0*%
%ADD26C,3.200000*%
%ADD27R,1.700000X1.700000*%
%ADD28C,1.700000*%
%ADD29RoundRect,0.225000X0.250000X-0.225000X0.250000X0.225000X-0.250000X0.225000X-0.250000X-0.225000X0*%
%ADD30RoundRect,0.225000X0.225000X0.250000X-0.225000X0.250000X-0.225000X-0.250000X0.225000X-0.250000X0*%
%ADD31RoundRect,0.250000X-0.375000X-0.625000X0.375000X-0.625000X0.375000X0.625000X-0.375000X0.625000X0*%
%ADD32R,1.800000X1.800000*%
%ADD33C,1.800000*%
%ADD34O,2.720000X3.240000*%
%ADD35RoundRect,0.110100X-0.411900X-0.126900X0.411900X-0.126900X0.411900X0.126900X-0.411900X0.126900X0*%
%ADD36RoundRect,0.102000X-0.600000X-1.000000X0.600000X-1.000000X0.600000X1.000000X-0.600000X1.000000X0*%
%ADD37RoundRect,0.200000X0.275000X-0.200000X0.275000X0.200000X-0.275000X0.200000X-0.275000X-0.200000X0*%
%ADD38R,0.900000X1.200000*%
%ADD39O,1.700000X1.700000*%
%ADD40C,3.301600*%
%ADD41C,3.001600*%
%ADD42RoundRect,0.250000X-0.350000X-0.625000X0.350000X-0.625000X0.350000X0.625000X-0.350000X0.625000X0*%
%ADD43O,1.200000X1.750000*%
%ADD44C,1.450000*%
%ADD45O,1.200000X1.900000*%
G04 APERTURE END LIST*
D10*
%TO.C,P3*%
X104530000Y-102070000D03*
D11*
X104530000Y-100070000D03*
X104530000Y-98070000D03*
X106530000Y-102070000D03*
X106530000Y-100070000D03*
X106530000Y-98070000D03*
%TD*%
D12*
%TO.C,C3*%
X121052152Y-76398962D03*
X121052152Y-77948962D03*
%TD*%
%TO.C,C21*%
X110865000Y-101300000D03*
X110865000Y-102850000D03*
%TD*%
D13*
%TO.C,R64*%
X168835400Y-96247082D03*
X167185400Y-96247082D03*
%TD*%
D14*
%TO.C,D2*%
X125822800Y-68610000D03*
X129537200Y-68610000D03*
%TD*%
D12*
%TO.C,C17*%
X149335000Y-107680000D03*
X149335000Y-109230000D03*
%TD*%
D15*
%TO.C,R54*%
X112410000Y-109245000D03*
X114060000Y-109245000D03*
%TD*%
D16*
%TO.C,D7*%
X163700000Y-53150000D03*
X165100000Y-53150000D03*
%TD*%
D15*
%TO.C,R33*%
X151115000Y-102780000D03*
X152765000Y-102780000D03*
%TD*%
D17*
%TO.C,ENC1*%
X121490000Y-96582500D03*
D18*
X126490000Y-96582500D03*
X121490000Y-111082500D03*
X126490000Y-111082500D03*
X123990000Y-111082500D03*
D19*
X118390000Y-103582500D03*
X129590000Y-103582500D03*
%TD*%
D13*
%TO.C,R45*%
X177045000Y-54040000D03*
X175395000Y-54040000D03*
%TD*%
D12*
%TO.C,C42*%
X189730000Y-67510000D03*
X189730000Y-69060000D03*
%TD*%
D17*
%TO.C,ENC2*%
X136730000Y-96580000D03*
D18*
X141730000Y-96580000D03*
X136730000Y-111080000D03*
X141730000Y-111080000D03*
X139230000Y-111080000D03*
D19*
X133630000Y-103580000D03*
X144830000Y-103580000D03*
%TD*%
D13*
%TO.C,R74*%
X184835400Y-96275000D03*
X183185400Y-96275000D03*
%TD*%
D20*
%TO.C,F1*%
X126970000Y-72450000D03*
X126970000Y-77530000D03*
%TD*%
D13*
%TO.C,R47*%
X179935000Y-57770000D03*
X178285000Y-57770000D03*
%TD*%
D21*
%TO.C,SW1*%
X106530000Y-98070000D03*
D11*
X106530000Y-100070000D03*
X106530000Y-102070000D03*
X104530000Y-98070000D03*
X104530000Y-100070000D03*
X104530000Y-102070000D03*
D18*
X105530000Y-95270000D03*
X105530000Y-104870000D03*
%TD*%
D13*
%TO.C,R46*%
X171015000Y-57770000D03*
X169365000Y-57770000D03*
%TD*%
D22*
%TO.C,H3*%
X188960999Y-108957999D03*
D23*
X188960999Y-108957999D03*
%TD*%
D12*
%TO.C,C8*%
X113464970Y-76413962D03*
X113464970Y-77963962D03*
%TD*%
D16*
%TO.C,D9*%
X160610000Y-53140000D03*
X162010000Y-53140000D03*
%TD*%
D15*
%TO.C,R34*%
X151010000Y-107705000D03*
X152660000Y-107705000D03*
%TD*%
D24*
%TO.C,D16*%
X111230000Y-99350000D03*
X114030000Y-99350000D03*
%TD*%
D13*
%TO.C,R48*%
X186065000Y-54040000D03*
X184415000Y-54040000D03*
%TD*%
D17*
%TO.C,P1*%
X113620000Y-68650000D03*
D18*
X116160000Y-68650000D03*
%TD*%
D25*
%TO.C,R63*%
X110500000Y-69395000D03*
X110500000Y-71045000D03*
%TD*%
D15*
%TO.C,R42*%
X180980000Y-68985000D03*
X182630000Y-68985000D03*
X184280000Y-68985000D03*
%TD*%
D24*
%TO.C,D13*%
X149710000Y-105730000D03*
X152510000Y-105730000D03*
%TD*%
D26*
%TO.C,P9*%
X188960999Y-91572999D03*
X112933999Y-47572999D03*
X112933999Y-91572999D03*
D23*
X188960999Y-47572999D03*
D27*
X108011999Y-53062999D03*
D28*
X108008999Y-55601999D03*
X108008999Y-58141999D03*
X108008999Y-60681999D03*
X108008999Y-63221999D03*
X108008999Y-65761999D03*
X108008999Y-68301999D03*
X108008999Y-70838999D03*
X108008999Y-73378999D03*
X108008999Y-75918999D03*
X108008999Y-78458999D03*
X108008999Y-80998999D03*
X108008999Y-83538999D03*
X108008999Y-86078999D03*
%TD*%
D22*
%TO.C,H1*%
X105539000Y-47538999D03*
D23*
X105539000Y-47538999D03*
%TD*%
D13*
%TO.C,R75*%
X173795400Y-96275000D03*
X172145400Y-96275000D03*
%TD*%
D29*
%TO.C,C5*%
X122532152Y-80903962D03*
X122532152Y-79353962D03*
%TD*%
D15*
%TO.C,R8*%
X111909970Y-82373962D03*
X113559970Y-82373962D03*
%TD*%
D24*
%TO.C,D12*%
X149815000Y-99330000D03*
X152615000Y-99330000D03*
%TD*%
D30*
%TO.C,C37*%
X184225000Y-67525000D03*
X182675000Y-67525000D03*
%TD*%
D15*
%TO.C,R37*%
X151012500Y-109180000D03*
X152662500Y-109180000D03*
%TD*%
D12*
%TO.C,C2*%
X123984970Y-76398962D03*
X123984970Y-77948962D03*
%TD*%
%TO.C,C4*%
X122522152Y-76398962D03*
X122522152Y-77948962D03*
%TD*%
D15*
%TO.C,R59*%
X112530000Y-102825000D03*
X114180000Y-102825000D03*
%TD*%
D31*
%TO.C,D10*%
X187430000Y-101040000D03*
X190230000Y-101040000D03*
%TD*%
D15*
%TO.C,R52*%
X112410000Y-107770000D03*
X114060000Y-107770000D03*
%TD*%
D22*
%TO.C,H2*%
X105538999Y-109060999D03*
D23*
X105538999Y-109060999D03*
%TD*%
D24*
%TO.C,D15*%
X111117500Y-105770000D03*
X113917500Y-105770000D03*
%TD*%
D29*
%TO.C,C6*%
X112004970Y-80933962D03*
X112004970Y-79383962D03*
%TD*%
D32*
%TO.C,RV2*%
X180985400Y-96192800D03*
D33*
X178485400Y-96192800D03*
X175985400Y-96192800D03*
D34*
X173685400Y-103692800D03*
X183285400Y-103692800D03*
%TD*%
D13*
%TO.C,PTC2*%
X161925000Y-51640000D03*
X160275000Y-51640000D03*
%TD*%
D12*
%TO.C,C9*%
X112004970Y-76413962D03*
X112004970Y-77963962D03*
%TD*%
%TO.C,C15*%
X149455000Y-101280000D03*
X149455000Y-102830000D03*
%TD*%
D35*
%TO.C,U1*%
X116767152Y-77773962D03*
X116767152Y-78273962D03*
X116767152Y-78773962D03*
X116767152Y-79273962D03*
X116767152Y-79773962D03*
X119157152Y-79773962D03*
X119157152Y-79273962D03*
X119157152Y-78773962D03*
X119157152Y-78273962D03*
X119157152Y-77773962D03*
D36*
X117962152Y-78773962D03*
%TD*%
D14*
%TO.C,D1*%
X122950400Y-68610000D03*
X119236000Y-68610000D03*
%TD*%
D31*
%TO.C,D4*%
X187430000Y-98240000D03*
X190230000Y-98240000D03*
%TD*%
D32*
%TO.C,RV1*%
X164985400Y-96175000D03*
D33*
X162485400Y-96175000D03*
X159985400Y-96175000D03*
D34*
X157685400Y-103675000D03*
X167285400Y-103675000D03*
%TD*%
D12*
%TO.C,C20*%
X110770000Y-107745000D03*
X110770000Y-109295000D03*
%TD*%
D15*
%TO.C,R32*%
X151115000Y-101305000D03*
X152765000Y-101305000D03*
%TD*%
D12*
%TO.C,C7*%
X114924970Y-76413962D03*
X114924970Y-77963962D03*
%TD*%
D13*
%TO.C,R65*%
X157780400Y-96250000D03*
X156130400Y-96250000D03*
%TD*%
%TO.C,PTC1*%
X165005000Y-51650000D03*
X163355000Y-51650000D03*
%TD*%
D15*
%TO.C,R56*%
X112530000Y-101350000D03*
X114180000Y-101350000D03*
%TD*%
D12*
%TO.C,C36*%
X187140000Y-67500000D03*
X187140000Y-69050000D03*
%TD*%
D31*
%TO.C,D11*%
X187430000Y-103840000D03*
X190230000Y-103840000D03*
%TD*%
D37*
%TO.C,R7*%
X113484970Y-80983962D03*
X113484970Y-79333962D03*
%TD*%
D38*
%TO.C,D3*%
X119462152Y-83003962D03*
X116162152Y-83003962D03*
%TD*%
D27*
%TO.C,P2*%
X111172114Y-85786461D03*
D39*
X113712114Y-85786461D03*
X116252114Y-85786461D03*
X118792114Y-85786461D03*
X121332114Y-85786461D03*
X123872114Y-85786461D03*
X126412114Y-85786461D03*
X128952114Y-85786461D03*
D40*
X103552114Y-84517861D03*
X103552114Y-68007861D03*
D41*
X134286114Y-69692861D03*
X134286114Y-82832861D03*
%TD*%
D42*
%TO.C,P8*%
X169490000Y-108510000D03*
D43*
X171490000Y-108510000D03*
%TD*%
D42*
%TO.C,P4*%
X187970000Y-86480000D03*
D43*
X189970000Y-86480000D03*
%TD*%
D44*
%TO.C,P6*%
X150085000Y-47582500D03*
D45*
X151085000Y-44882500D03*
D44*
X145085000Y-47582500D03*
D45*
X144085000Y-44882500D03*
%TD*%
D42*
%TO.C,P7*%
X187970000Y-80980000D03*
D43*
X189970000Y-80980000D03*
%TD*%
D42*
%TO.C,P5*%
X160700000Y-49350000D03*
D43*
X162700000Y-49350000D03*
X164700000Y-49350000D03*
%TD*%
M02*
