%TF.GenerationSoftware,KiCad,Pcbnew,(6.0.11)*%
%TF.CreationDate,2024-03-19T14:29:21-04:00*%
%TF.ProjectId,Ultrasonic Sound Steering - Remote Rev. B,556c7472-6173-46f6-9e69-6320536f756e,rev?*%
%TF.SameCoordinates,Original*%
%TF.FileFunction,Legend,Top*%
%TF.FilePolarity,Positive*%
%FSLAX46Y46*%
G04 Gerber Fmt 4.6, Leading zero omitted, Abs format (unit mm)*
G04 Created by KiCad (PCBNEW (6.0.11)) date 2024-03-19 14:29:21*
%MOMM*%
%LPD*%
G01*
G04 APERTURE LIST*
%ADD10C,0.150000*%
%ADD11C,0.200000*%
%ADD12C,0.120000*%
%ADD13C,0.152400*%
%ADD14C,0.127000*%
%ADD15C,0.065000*%
%ADD16C,0.100000*%
G04 APERTURE END LIST*
D10*
X150980000Y-105760000D02*
X151240000Y-105940000D01*
X41450000Y-115610000D02*
X83500000Y-115610000D01*
X83500000Y-115610000D02*
X83500000Y-54510000D01*
X83500000Y-54510000D02*
X41450000Y-54510000D01*
X41450000Y-54510000D02*
X41450000Y-115610000D01*
X101000000Y-44994214D02*
X101000000Y-111675000D01*
X103000000Y-113575000D02*
X191512500Y-113575000D01*
X134761249Y-112100000D02*
G75*
G03*
X134761249Y-112100000I-1001249J0D01*
G01*
X177500000Y-111000000D02*
X179500000Y-111000000D01*
X179500000Y-111000000D02*
X179500000Y-112925000D01*
X179500000Y-112925000D02*
X177500000Y-112925000D01*
X177500000Y-112925000D02*
X177500000Y-111000000D01*
D11*
X44020000Y-58990000D02*
X78430000Y-58990000D01*
X78430000Y-58990000D02*
X78430000Y-110090000D01*
X78430000Y-110090000D02*
X44020000Y-110090000D01*
X44020000Y-110090000D02*
X44020000Y-58990000D01*
D10*
X101000030Y-111674998D02*
G75*
G03*
X103000000Y-113575000I1999970J102598D01*
G01*
D11*
X105020000Y-92500000D02*
X105300000Y-92880000D01*
D10*
X151240000Y-105940000D02*
X151240000Y-105580000D01*
X102990000Y-43004192D02*
G75*
G03*
X101000000Y-44998428I-1600J-1988408D01*
G01*
X193504214Y-44990000D02*
X193497500Y-55500000D01*
X125510000Y-47530000D02*
X116550000Y-47530000D01*
X116550000Y-47530000D02*
X116550000Y-52040000D01*
X116550000Y-52040000D02*
X125510000Y-52040000D01*
X125510000Y-52040000D02*
X125510000Y-47530000D01*
D11*
X46420000Y-60630000D02*
X80830000Y-60630000D01*
X80830000Y-60630000D02*
X80830000Y-111730000D01*
X80830000Y-111730000D02*
X46420000Y-111730000D01*
X46420000Y-111730000D02*
X46420000Y-60630000D01*
D10*
X161500000Y-111075000D02*
X163500000Y-111075000D01*
X163500000Y-111075000D02*
X163500000Y-112925000D01*
X163500000Y-112925000D02*
X161500000Y-112925000D01*
X161500000Y-112925000D02*
X161500000Y-111075000D01*
X142860000Y-47170000D02*
X116550000Y-47170000D01*
X116550000Y-47170000D02*
X116550000Y-44900000D01*
X116550000Y-44900000D02*
X142860000Y-44900000D01*
X142860000Y-44900000D02*
X142860000Y-47170000D01*
D11*
X105300000Y-92880000D02*
X105590000Y-92510000D01*
D10*
X193504207Y-44990000D02*
G75*
G03*
X191510000Y-43000000I-1988407J1600D01*
G01*
D11*
X105300000Y-89960000D02*
X105010000Y-90330000D01*
D10*
X133880000Y-52500000D02*
X126270000Y-52500000D01*
X126270000Y-52500000D02*
X126270000Y-58450000D01*
X126270000Y-58450000D02*
X133880000Y-58450000D01*
X133880000Y-58450000D02*
X133880000Y-52500000D01*
D11*
X105580000Y-90340000D02*
X105300000Y-89960000D01*
D10*
X119521249Y-112130000D02*
G75*
G03*
X119521249Y-112130000I-1001249J0D01*
G01*
X151040000Y-99560000D02*
X151040000Y-99160000D01*
X151410000Y-105770000D02*
X151240000Y-105770000D01*
X193497500Y-55500000D02*
X193502500Y-111580786D01*
X150940000Y-105960000D02*
X150940000Y-105560000D01*
D11*
X105300000Y-91630000D02*
X105300000Y-92880000D01*
D10*
X151240000Y-105580000D02*
X150980000Y-105760000D01*
X151080000Y-99360000D02*
X151340000Y-99540000D01*
X191500000Y-43000000D02*
X102990000Y-43004214D01*
X151340000Y-99180000D02*
X151080000Y-99360000D01*
X151340000Y-99540000D02*
X151340000Y-99180000D01*
X191512500Y-113575007D02*
G75*
G03*
X193502500Y-111580786I1600J1988407D01*
G01*
D11*
X105300000Y-91220000D02*
X105300000Y-89960000D01*
D10*
X151510000Y-99370000D02*
X151340000Y-99370000D01*
X102746071Y-90177380D02*
X102936547Y-90177380D01*
X103031785Y-90225000D01*
X103127023Y-90320238D01*
X103174642Y-90510714D01*
X103174642Y-90844047D01*
X103127023Y-91034523D01*
X103031785Y-91129761D01*
X102936547Y-91177380D01*
X102746071Y-91177380D01*
X102650833Y-91129761D01*
X102555595Y-91034523D01*
X102507976Y-90844047D01*
X102507976Y-90510714D01*
X102555595Y-90320238D01*
X102650833Y-90225000D01*
X102746071Y-90177380D01*
X103603214Y-90510714D02*
X103603214Y-91177380D01*
X103603214Y-90605952D02*
X103650833Y-90558333D01*
X103746071Y-90510714D01*
X103888928Y-90510714D01*
X103984166Y-90558333D01*
X104031785Y-90653571D01*
X104031785Y-91177380D01*
X102746071Y-91787380D02*
X102936547Y-91787380D01*
X103031785Y-91835000D01*
X103127023Y-91930238D01*
X103174642Y-92120714D01*
X103174642Y-92454047D01*
X103127023Y-92644523D01*
X103031785Y-92739761D01*
X102936547Y-92787380D01*
X102746071Y-92787380D01*
X102650833Y-92739761D01*
X102555595Y-92644523D01*
X102507976Y-92454047D01*
X102507976Y-92120714D01*
X102555595Y-91930238D01*
X102650833Y-91835000D01*
X102746071Y-91787380D01*
X103460357Y-92120714D02*
X103841309Y-92120714D01*
X103603214Y-92787380D02*
X103603214Y-91930238D01*
X103650833Y-91835000D01*
X103746071Y-91787380D01*
X103841309Y-91787380D01*
X104031785Y-92120714D02*
X104412738Y-92120714D01*
X104174642Y-92787380D02*
X104174642Y-91930238D01*
X104222261Y-91835000D01*
X104317500Y-91787380D01*
X104412738Y-91787380D01*
D11*
X150621517Y-112010543D02*
X151231040Y-112010543D01*
X150926279Y-112315305D02*
X150926279Y-111705781D01*
X162831428Y-112468571D02*
X162774285Y-112525714D01*
X162602857Y-112582857D01*
X162488571Y-112582857D01*
X162317142Y-112525714D01*
X162202857Y-112411428D01*
X162145714Y-112297142D01*
X162088571Y-112068571D01*
X162088571Y-111897142D01*
X162145714Y-111668571D01*
X162202857Y-111554285D01*
X162317142Y-111440000D01*
X162488571Y-111382857D01*
X162602857Y-111382857D01*
X162774285Y-111440000D01*
X162831428Y-111497142D01*
D10*
X117037976Y-48863904D02*
X117037976Y-48063904D01*
X117495119Y-48863904D02*
X117152261Y-48406761D01*
X117495119Y-48063904D02*
X117037976Y-48521047D01*
X118142738Y-48825809D02*
X118066547Y-48863904D01*
X117914166Y-48863904D01*
X117837976Y-48825809D01*
X117799880Y-48749619D01*
X117799880Y-48444857D01*
X117837976Y-48368666D01*
X117914166Y-48330571D01*
X118066547Y-48330571D01*
X118142738Y-48368666D01*
X118180833Y-48444857D01*
X118180833Y-48521047D01*
X117799880Y-48597238D01*
X118447500Y-48330571D02*
X118637976Y-48863904D01*
X118828452Y-48330571D01*
X119133214Y-48863904D02*
X119133214Y-48330571D01*
X119133214Y-48063904D02*
X119095119Y-48102000D01*
X119133214Y-48140095D01*
X119171309Y-48102000D01*
X119133214Y-48063904D01*
X119133214Y-48140095D01*
X119514166Y-48330571D02*
X119514166Y-48863904D01*
X119514166Y-48406761D02*
X119552261Y-48368666D01*
X119628452Y-48330571D01*
X119742738Y-48330571D01*
X119818928Y-48368666D01*
X119857023Y-48444857D01*
X119857023Y-48863904D01*
X120847500Y-48863904D02*
X120847500Y-48063904D01*
X120847500Y-48444857D02*
X121304642Y-48444857D01*
X121304642Y-48863904D02*
X121304642Y-48063904D01*
X122028452Y-48863904D02*
X122028452Y-48444857D01*
X121990357Y-48368666D01*
X121914166Y-48330571D01*
X121761785Y-48330571D01*
X121685595Y-48368666D01*
X122028452Y-48825809D02*
X121952261Y-48863904D01*
X121761785Y-48863904D01*
X121685595Y-48825809D01*
X121647500Y-48749619D01*
X121647500Y-48673428D01*
X121685595Y-48597238D01*
X121761785Y-48559142D01*
X121952261Y-48559142D01*
X122028452Y-48521047D01*
X122409404Y-48863904D02*
X122409404Y-48330571D01*
X122409404Y-48482952D02*
X122447500Y-48406761D01*
X122485595Y-48368666D01*
X122561785Y-48330571D01*
X122637976Y-48330571D01*
X122904642Y-48330571D02*
X122904642Y-49130571D01*
X122904642Y-48368666D02*
X122980833Y-48330571D01*
X123133214Y-48330571D01*
X123209404Y-48368666D01*
X123247500Y-48406761D01*
X123285595Y-48482952D01*
X123285595Y-48711523D01*
X123247500Y-48787714D01*
X123209404Y-48825809D01*
X123133214Y-48863904D01*
X122980833Y-48863904D01*
X122904642Y-48825809D01*
X123933214Y-48825809D02*
X123857023Y-48863904D01*
X123704642Y-48863904D01*
X123628452Y-48825809D01*
X123590357Y-48749619D01*
X123590357Y-48444857D01*
X123628452Y-48368666D01*
X123704642Y-48330571D01*
X123857023Y-48330571D01*
X123933214Y-48368666D01*
X123971309Y-48444857D01*
X123971309Y-48521047D01*
X123590357Y-48597238D01*
X124314166Y-48863904D02*
X124314166Y-48330571D01*
X124314166Y-48482952D02*
X124352261Y-48406761D01*
X124390357Y-48368666D01*
X124466547Y-48330571D01*
X124542738Y-48330571D01*
X117190357Y-49351904D02*
X117266547Y-49351904D01*
X117342738Y-49390000D01*
X117380833Y-49428095D01*
X117418928Y-49504285D01*
X117457023Y-49656666D01*
X117457023Y-49847142D01*
X117418928Y-49999523D01*
X117380833Y-50075714D01*
X117342738Y-50113809D01*
X117266547Y-50151904D01*
X117190357Y-50151904D01*
X117114166Y-50113809D01*
X117076071Y-50075714D01*
X117037976Y-49999523D01*
X116999880Y-49847142D01*
X116999880Y-49656666D01*
X117037976Y-49504285D01*
X117076071Y-49428095D01*
X117114166Y-49390000D01*
X117190357Y-49351904D01*
X117761785Y-49428095D02*
X117799880Y-49390000D01*
X117876071Y-49351904D01*
X118066547Y-49351904D01*
X118142738Y-49390000D01*
X118180833Y-49428095D01*
X118218928Y-49504285D01*
X118218928Y-49580476D01*
X118180833Y-49694761D01*
X117723690Y-50151904D01*
X118218928Y-50151904D01*
X119133214Y-49313809D02*
X118447500Y-50342380D01*
X119361785Y-49428095D02*
X119399880Y-49390000D01*
X119476071Y-49351904D01*
X119666547Y-49351904D01*
X119742738Y-49390000D01*
X119780833Y-49428095D01*
X119818928Y-49504285D01*
X119818928Y-49580476D01*
X119780833Y-49694761D01*
X119323690Y-50151904D01*
X119818928Y-50151904D01*
X120314166Y-49351904D02*
X120390357Y-49351904D01*
X120466547Y-49390000D01*
X120504642Y-49428095D01*
X120542738Y-49504285D01*
X120580833Y-49656666D01*
X120580833Y-49847142D01*
X120542738Y-49999523D01*
X120504642Y-50075714D01*
X120466547Y-50113809D01*
X120390357Y-50151904D01*
X120314166Y-50151904D01*
X120237976Y-50113809D01*
X120199880Y-50075714D01*
X120161785Y-49999523D01*
X120123690Y-49847142D01*
X120123690Y-49656666D01*
X120161785Y-49504285D01*
X120199880Y-49428095D01*
X120237976Y-49390000D01*
X120314166Y-49351904D01*
X120885595Y-49428095D02*
X120923690Y-49390000D01*
X120999880Y-49351904D01*
X121190357Y-49351904D01*
X121266547Y-49390000D01*
X121304642Y-49428095D01*
X121342738Y-49504285D01*
X121342738Y-49580476D01*
X121304642Y-49694761D01*
X120847500Y-50151904D01*
X121342738Y-50151904D01*
X122028452Y-49618571D02*
X122028452Y-50151904D01*
X121837976Y-49313809D02*
X121647500Y-49885238D01*
X122142738Y-49885238D01*
X117495119Y-51439904D02*
X117228452Y-51058952D01*
X117037976Y-51439904D02*
X117037976Y-50639904D01*
X117342738Y-50639904D01*
X117418928Y-50678000D01*
X117457023Y-50716095D01*
X117495119Y-50792285D01*
X117495119Y-50906571D01*
X117457023Y-50982761D01*
X117418928Y-51020857D01*
X117342738Y-51058952D01*
X117037976Y-51058952D01*
X118142738Y-51401809D02*
X118066547Y-51439904D01*
X117914166Y-51439904D01*
X117837976Y-51401809D01*
X117799880Y-51325619D01*
X117799880Y-51020857D01*
X117837976Y-50944666D01*
X117914166Y-50906571D01*
X118066547Y-50906571D01*
X118142738Y-50944666D01*
X118180833Y-51020857D01*
X118180833Y-51097047D01*
X117799880Y-51173238D01*
X118447500Y-50906571D02*
X118637976Y-51439904D01*
X118828452Y-50906571D01*
X119133214Y-51439904D02*
X119133214Y-50906571D01*
X119133214Y-50639904D02*
X119095119Y-50678000D01*
X119133214Y-50716095D01*
X119171309Y-50678000D01*
X119133214Y-50639904D01*
X119133214Y-50716095D01*
X119476071Y-51401809D02*
X119552261Y-51439904D01*
X119704642Y-51439904D01*
X119780833Y-51401809D01*
X119818928Y-51325619D01*
X119818928Y-51287523D01*
X119780833Y-51211333D01*
X119704642Y-51173238D01*
X119590357Y-51173238D01*
X119514166Y-51135142D01*
X119476071Y-51058952D01*
X119476071Y-51020857D01*
X119514166Y-50944666D01*
X119590357Y-50906571D01*
X119704642Y-50906571D01*
X119780833Y-50944666D01*
X120161785Y-51439904D02*
X120161785Y-50906571D01*
X120161785Y-50639904D02*
X120123690Y-50678000D01*
X120161785Y-50716095D01*
X120199880Y-50678000D01*
X120161785Y-50639904D01*
X120161785Y-50716095D01*
X120657023Y-51439904D02*
X120580833Y-51401809D01*
X120542738Y-51363714D01*
X120504642Y-51287523D01*
X120504642Y-51058952D01*
X120542738Y-50982761D01*
X120580833Y-50944666D01*
X120657023Y-50906571D01*
X120771309Y-50906571D01*
X120847500Y-50944666D01*
X120885595Y-50982761D01*
X120923690Y-51058952D01*
X120923690Y-51287523D01*
X120885595Y-51363714D01*
X120847500Y-51401809D01*
X120771309Y-51439904D01*
X120657023Y-51439904D01*
X121266547Y-50906571D02*
X121266547Y-51439904D01*
X121266547Y-50982761D02*
X121304642Y-50944666D01*
X121380833Y-50906571D01*
X121495119Y-50906571D01*
X121571309Y-50944666D01*
X121609404Y-51020857D01*
X121609404Y-51439904D01*
X122866547Y-51020857D02*
X122980833Y-51058952D01*
X123018928Y-51097047D01*
X123057023Y-51173238D01*
X123057023Y-51287523D01*
X123018928Y-51363714D01*
X122980833Y-51401809D01*
X122904642Y-51439904D01*
X122599880Y-51439904D01*
X122599880Y-50639904D01*
X122866547Y-50639904D01*
X122942738Y-50678000D01*
X122980833Y-50716095D01*
X123018928Y-50792285D01*
X123018928Y-50868476D01*
X122980833Y-50944666D01*
X122942738Y-50982761D01*
X122866547Y-51020857D01*
X122599880Y-51020857D01*
X123399880Y-51363714D02*
X123437976Y-51401809D01*
X123399880Y-51439904D01*
X123361785Y-51401809D01*
X123399880Y-51363714D01*
X123399880Y-51439904D01*
D11*
X118234285Y-112310000D02*
X118805714Y-112310000D01*
X118120000Y-112652857D02*
X118520000Y-111452857D01*
X118920000Y-112652857D01*
X178175714Y-112562857D02*
X178175714Y-111362857D01*
X178461428Y-111362857D01*
X178632857Y-111420000D01*
X178747142Y-111534285D01*
X178804285Y-111648571D01*
X178861428Y-111877142D01*
X178861428Y-112048571D01*
X178804285Y-112277142D01*
X178747142Y-112391428D01*
X178632857Y-112505714D01*
X178461428Y-112562857D01*
X178175714Y-112562857D01*
D10*
X107591428Y-90974761D02*
X108448571Y-92260476D01*
X104988571Y-78052857D02*
X105045714Y-78110000D01*
X105102857Y-78281428D01*
X105102857Y-78395714D01*
X105045714Y-78567142D01*
X104931428Y-78681428D01*
X104817142Y-78738571D01*
X104588571Y-78795714D01*
X104417142Y-78795714D01*
X104188571Y-78738571D01*
X104074285Y-78681428D01*
X103960000Y-78567142D01*
X103902857Y-78395714D01*
X103902857Y-78281428D01*
X103960000Y-78110000D01*
X104017142Y-78052857D01*
X105102857Y-77538571D02*
X103902857Y-77538571D01*
X105102857Y-77024285D02*
X104474285Y-77024285D01*
X104360000Y-77081428D01*
X104302857Y-77195714D01*
X104302857Y-77367142D01*
X104360000Y-77481428D01*
X104417142Y-77538571D01*
X105102857Y-75938571D02*
X104474285Y-75938571D01*
X104360000Y-75995714D01*
X104302857Y-76110000D01*
X104302857Y-76338571D01*
X104360000Y-76452857D01*
X105045714Y-75938571D02*
X105102857Y-76052857D01*
X105102857Y-76338571D01*
X105045714Y-76452857D01*
X104931428Y-76510000D01*
X104817142Y-76510000D01*
X104702857Y-76452857D01*
X104645714Y-76338571D01*
X104645714Y-76052857D01*
X104588571Y-75938571D01*
X105102857Y-75367142D02*
X104302857Y-75367142D01*
X104531428Y-75367142D02*
X104417142Y-75310000D01*
X104360000Y-75252857D01*
X104302857Y-75138571D01*
X104302857Y-75024285D01*
X104302857Y-74110000D02*
X105274285Y-74110000D01*
X105388571Y-74167142D01*
X105445714Y-74224285D01*
X105502857Y-74338571D01*
X105502857Y-74510000D01*
X105445714Y-74624285D01*
X105045714Y-74110000D02*
X105102857Y-74224285D01*
X105102857Y-74452857D01*
X105045714Y-74567142D01*
X104988571Y-74624285D01*
X104874285Y-74681428D01*
X104531428Y-74681428D01*
X104417142Y-74624285D01*
X104360000Y-74567142D01*
X104302857Y-74452857D01*
X104302857Y-74224285D01*
X104360000Y-74110000D01*
X105045714Y-73081428D02*
X105102857Y-73195714D01*
X105102857Y-73424285D01*
X105045714Y-73538571D01*
X104931428Y-73595714D01*
X104474285Y-73595714D01*
X104360000Y-73538571D01*
X104302857Y-73424285D01*
X104302857Y-73195714D01*
X104360000Y-73081428D01*
X104474285Y-73024285D01*
X104588571Y-73024285D01*
X104702857Y-73595714D01*
D11*
X117029523Y-46449761D02*
X117172380Y-46497380D01*
X117410476Y-46497380D01*
X117505714Y-46449761D01*
X117553333Y-46402142D01*
X117600952Y-46306904D01*
X117600952Y-46211666D01*
X117553333Y-46116428D01*
X117505714Y-46068809D01*
X117410476Y-46021190D01*
X117220000Y-45973571D01*
X117124761Y-45925952D01*
X117077142Y-45878333D01*
X117029523Y-45783095D01*
X117029523Y-45687857D01*
X117077142Y-45592619D01*
X117124761Y-45545000D01*
X117220000Y-45497380D01*
X117458095Y-45497380D01*
X117600952Y-45545000D01*
X118172380Y-46497380D02*
X118077142Y-46449761D01*
X118029523Y-46402142D01*
X117981904Y-46306904D01*
X117981904Y-46021190D01*
X118029523Y-45925952D01*
X118077142Y-45878333D01*
X118172380Y-45830714D01*
X118315238Y-45830714D01*
X118410476Y-45878333D01*
X118458095Y-45925952D01*
X118505714Y-46021190D01*
X118505714Y-46306904D01*
X118458095Y-46402142D01*
X118410476Y-46449761D01*
X118315238Y-46497380D01*
X118172380Y-46497380D01*
X119362857Y-45830714D02*
X119362857Y-46497380D01*
X118934285Y-45830714D02*
X118934285Y-46354523D01*
X118981904Y-46449761D01*
X119077142Y-46497380D01*
X119220000Y-46497380D01*
X119315238Y-46449761D01*
X119362857Y-46402142D01*
X119839047Y-45830714D02*
X119839047Y-46497380D01*
X119839047Y-45925952D02*
X119886666Y-45878333D01*
X119981904Y-45830714D01*
X120124761Y-45830714D01*
X120219999Y-45878333D01*
X120267619Y-45973571D01*
X120267619Y-46497380D01*
X121172380Y-46497380D02*
X121172380Y-45497380D01*
X121172380Y-46449761D02*
X121077142Y-46497380D01*
X120886666Y-46497380D01*
X120791428Y-46449761D01*
X120743809Y-46402142D01*
X120696190Y-46306904D01*
X120696190Y-46021190D01*
X120743809Y-45925952D01*
X120791428Y-45878333D01*
X120886666Y-45830714D01*
X121077142Y-45830714D01*
X121172380Y-45878333D01*
X122362857Y-46449761D02*
X122505714Y-46497380D01*
X122743809Y-46497380D01*
X122839047Y-46449761D01*
X122886666Y-46402142D01*
X122934285Y-46306904D01*
X122934285Y-46211666D01*
X122886666Y-46116428D01*
X122839047Y-46068809D01*
X122743809Y-46021190D01*
X122553333Y-45973571D01*
X122458095Y-45925952D01*
X122410476Y-45878333D01*
X122362857Y-45783095D01*
X122362857Y-45687857D01*
X122410476Y-45592619D01*
X122458095Y-45545000D01*
X122553333Y-45497380D01*
X122791428Y-45497380D01*
X122934285Y-45545000D01*
X123220000Y-45830714D02*
X123600952Y-45830714D01*
X123362857Y-45497380D02*
X123362857Y-46354523D01*
X123410476Y-46449761D01*
X123505714Y-46497380D01*
X123600952Y-46497380D01*
X124315238Y-46449761D02*
X124219999Y-46497380D01*
X124029523Y-46497380D01*
X123934285Y-46449761D01*
X123886666Y-46354523D01*
X123886666Y-45973571D01*
X123934285Y-45878333D01*
X124029523Y-45830714D01*
X124219999Y-45830714D01*
X124315238Y-45878333D01*
X124362857Y-45973571D01*
X124362857Y-46068809D01*
X123886666Y-46164047D01*
X125172380Y-46449761D02*
X125077142Y-46497380D01*
X124886666Y-46497380D01*
X124791428Y-46449761D01*
X124743809Y-46354523D01*
X124743809Y-45973571D01*
X124791428Y-45878333D01*
X124886666Y-45830714D01*
X125077142Y-45830714D01*
X125172380Y-45878333D01*
X125220000Y-45973571D01*
X125220000Y-46068809D01*
X124743809Y-46164047D01*
X125648571Y-46497380D02*
X125648571Y-45830714D01*
X125648571Y-46021190D02*
X125696190Y-45925952D01*
X125743809Y-45878333D01*
X125839047Y-45830714D01*
X125934285Y-45830714D01*
X126267619Y-46497380D02*
X126267619Y-45830714D01*
X126267619Y-45497380D02*
X126220000Y-45545000D01*
X126267619Y-45592619D01*
X126315238Y-45545000D01*
X126267619Y-45497380D01*
X126267619Y-45592619D01*
X126743809Y-45830714D02*
X126743809Y-46497380D01*
X126743809Y-45925952D02*
X126791428Y-45878333D01*
X126886666Y-45830714D01*
X127029523Y-45830714D01*
X127124761Y-45878333D01*
X127172380Y-45973571D01*
X127172380Y-46497380D01*
X128077142Y-45830714D02*
X128077142Y-46640238D01*
X128029523Y-46735476D01*
X127981904Y-46783095D01*
X127886666Y-46830714D01*
X127743809Y-46830714D01*
X127648571Y-46783095D01*
X128077142Y-46449761D02*
X127981904Y-46497380D01*
X127791428Y-46497380D01*
X127696190Y-46449761D01*
X127648571Y-46402142D01*
X127600952Y-46306904D01*
X127600952Y-46021190D01*
X127648571Y-45925952D01*
X127696190Y-45878333D01*
X127791428Y-45830714D01*
X127981904Y-45830714D01*
X128077142Y-45878333D01*
X129315238Y-46116428D02*
X130077142Y-46116428D01*
X131886666Y-46497380D02*
X131553333Y-46021190D01*
X131315238Y-46497380D02*
X131315238Y-45497380D01*
X131696190Y-45497380D01*
X131791428Y-45545000D01*
X131839047Y-45592619D01*
X131886666Y-45687857D01*
X131886666Y-45830714D01*
X131839047Y-45925952D01*
X131791428Y-45973571D01*
X131696190Y-46021190D01*
X131315238Y-46021190D01*
X132696190Y-46449761D02*
X132600952Y-46497380D01*
X132410476Y-46497380D01*
X132315238Y-46449761D01*
X132267619Y-46354523D01*
X132267619Y-45973571D01*
X132315238Y-45878333D01*
X132410476Y-45830714D01*
X132600952Y-45830714D01*
X132696190Y-45878333D01*
X132743809Y-45973571D01*
X132743809Y-46068809D01*
X132267619Y-46164047D01*
X133172380Y-46497380D02*
X133172380Y-45830714D01*
X133172380Y-45925952D02*
X133219999Y-45878333D01*
X133315238Y-45830714D01*
X133458095Y-45830714D01*
X133553333Y-45878333D01*
X133600952Y-45973571D01*
X133600952Y-46497380D01*
X133600952Y-45973571D02*
X133648571Y-45878333D01*
X133743809Y-45830714D01*
X133886666Y-45830714D01*
X133981904Y-45878333D01*
X134029523Y-45973571D01*
X134029523Y-46497380D01*
X134648571Y-46497380D02*
X134553333Y-46449761D01*
X134505714Y-46402142D01*
X134458095Y-46306904D01*
X134458095Y-46021190D01*
X134505714Y-45925952D01*
X134553333Y-45878333D01*
X134648571Y-45830714D01*
X134791428Y-45830714D01*
X134886666Y-45878333D01*
X134934285Y-45925952D01*
X134981904Y-46021190D01*
X134981904Y-46306904D01*
X134934285Y-46402142D01*
X134886666Y-46449761D01*
X134791428Y-46497380D01*
X134648571Y-46497380D01*
X135267619Y-45830714D02*
X135648571Y-45830714D01*
X135410476Y-45497380D02*
X135410476Y-46354523D01*
X135458095Y-46449761D01*
X135553333Y-46497380D01*
X135648571Y-46497380D01*
X136362857Y-46449761D02*
X136267619Y-46497380D01*
X136077142Y-46497380D01*
X135981904Y-46449761D01*
X135934285Y-46354523D01*
X135934285Y-45973571D01*
X135981904Y-45878333D01*
X136077142Y-45830714D01*
X136267619Y-45830714D01*
X136362857Y-45878333D01*
X136410476Y-45973571D01*
X136410476Y-46068809D01*
X135934285Y-46164047D01*
X137600952Y-46497380D02*
X137600952Y-45497380D01*
X137934285Y-46211666D01*
X138267619Y-45497380D01*
X138267619Y-46497380D01*
X138886666Y-46497380D02*
X138791428Y-46449761D01*
X138743809Y-46402142D01*
X138696190Y-46306904D01*
X138696190Y-46021190D01*
X138743809Y-45925952D01*
X138791428Y-45878333D01*
X138886666Y-45830714D01*
X139029523Y-45830714D01*
X139124761Y-45878333D01*
X139172380Y-45925952D01*
X139220000Y-46021190D01*
X139220000Y-46306904D01*
X139172380Y-46402142D01*
X139124761Y-46449761D01*
X139029523Y-46497380D01*
X138886666Y-46497380D01*
X140077142Y-46497380D02*
X140077142Y-45497380D01*
X140077142Y-46449761D02*
X139981904Y-46497380D01*
X139791428Y-46497380D01*
X139696190Y-46449761D01*
X139648571Y-46402142D01*
X139600952Y-46306904D01*
X139600952Y-46021190D01*
X139648571Y-45925952D01*
X139696190Y-45878333D01*
X139791428Y-45830714D01*
X139981904Y-45830714D01*
X140077142Y-45878333D01*
X140981904Y-45830714D02*
X140981904Y-46497380D01*
X140553333Y-45830714D02*
X140553333Y-46354523D01*
X140600952Y-46449761D01*
X140696190Y-46497380D01*
X140839047Y-46497380D01*
X140934285Y-46449761D01*
X140981904Y-46402142D01*
X141600952Y-46497380D02*
X141505714Y-46449761D01*
X141458095Y-46354523D01*
X141458095Y-45497380D01*
X142362857Y-46449761D02*
X142267619Y-46497380D01*
X142077142Y-46497380D01*
X141981904Y-46449761D01*
X141934285Y-46354523D01*
X141934285Y-45973571D01*
X141981904Y-45878333D01*
X142077142Y-45830714D01*
X142267619Y-45830714D01*
X142362857Y-45878333D01*
X142410476Y-45973571D01*
X142410476Y-46068809D01*
X141934285Y-46164047D01*
D10*
X163170000Y-45739404D02*
X163217619Y-45644166D01*
X163217619Y-45501309D01*
X163170000Y-45358452D01*
X163074761Y-45263214D01*
X162979523Y-45215595D01*
X162789047Y-45167976D01*
X162646190Y-45167976D01*
X162455714Y-45215595D01*
X162360476Y-45263214D01*
X162265238Y-45358452D01*
X162217619Y-45501309D01*
X162217619Y-45596547D01*
X162265238Y-45739404D01*
X162312857Y-45787023D01*
X162646190Y-45787023D01*
X162646190Y-45596547D01*
X162217619Y-46215595D02*
X163217619Y-46215595D01*
X162217619Y-46787023D01*
X163217619Y-46787023D01*
X162217619Y-47263214D02*
X163217619Y-47263214D01*
X163217619Y-47501309D01*
X163170000Y-47644166D01*
X163074761Y-47739404D01*
X162979523Y-47787023D01*
X162789047Y-47834642D01*
X162646190Y-47834642D01*
X162455714Y-47787023D01*
X162360476Y-47739404D01*
X162265238Y-47644166D01*
X162217619Y-47501309D01*
X162217619Y-47263214D01*
D11*
X133855714Y-112044285D02*
X134027142Y-112101428D01*
X134084285Y-112158571D01*
X134141428Y-112272857D01*
X134141428Y-112444285D01*
X134084285Y-112558571D01*
X134027142Y-112615714D01*
X133912857Y-112672857D01*
X133455714Y-112672857D01*
X133455714Y-111472857D01*
X133855714Y-111472857D01*
X133970000Y-111530000D01*
X134027142Y-111587142D01*
X134084285Y-111701428D01*
X134084285Y-111815714D01*
X134027142Y-111930000D01*
X133970000Y-111987142D01*
X133855714Y-112044285D01*
X133455714Y-112044285D01*
D10*
X164217619Y-45813333D02*
X164693809Y-45480000D01*
X164217619Y-45241904D02*
X165217619Y-45241904D01*
X165217619Y-45622857D01*
X165170000Y-45718095D01*
X165122380Y-45765714D01*
X165027142Y-45813333D01*
X164884285Y-45813333D01*
X164789047Y-45765714D01*
X164741428Y-45718095D01*
X164693809Y-45622857D01*
X164693809Y-45241904D01*
X165217619Y-46146666D02*
X164217619Y-46813333D01*
X165217619Y-46813333D02*
X164217619Y-46146666D01*
X161317619Y-45218095D02*
X161317619Y-45789523D01*
X160317619Y-45503809D02*
X161317619Y-45503809D01*
X161317619Y-46027619D02*
X160317619Y-46694285D01*
X161317619Y-46694285D02*
X160317619Y-46027619D01*
X103159761Y-64512023D02*
X103207380Y-64369166D01*
X103207380Y-64131071D01*
X103159761Y-64035833D01*
X103112142Y-63988214D01*
X103016904Y-63940595D01*
X102921666Y-63940595D01*
X102826428Y-63988214D01*
X102778809Y-64035833D01*
X102731190Y-64131071D01*
X102683571Y-64321547D01*
X102635952Y-64416785D01*
X102588333Y-64464404D01*
X102493095Y-64512023D01*
X102397857Y-64512023D01*
X102302619Y-64464404D01*
X102255000Y-64416785D01*
X102207380Y-64321547D01*
X102207380Y-64083452D01*
X102255000Y-63940595D01*
X103207380Y-63512023D02*
X102207380Y-63512023D01*
X102207380Y-63131071D01*
X102255000Y-63035833D01*
X102302619Y-62988214D01*
X102397857Y-62940595D01*
X102540714Y-62940595D01*
X102635952Y-62988214D01*
X102683571Y-63035833D01*
X102731190Y-63131071D01*
X102731190Y-63512023D01*
X103207380Y-62512023D02*
X102207380Y-62512023D01*
X102207380Y-61416785D02*
X102207380Y-60845357D01*
X103207380Y-61131071D02*
X102207380Y-61131071D01*
X102683571Y-60178690D02*
X102683571Y-60512023D01*
X103207380Y-60512023D02*
X102207380Y-60512023D01*
X102207380Y-60035833D01*
X102207380Y-59797738D02*
X102207380Y-59226309D01*
X103207380Y-59512023D02*
X102207380Y-59512023D01*
X103207380Y-58131071D02*
X102207380Y-58131071D01*
X102207380Y-57892976D01*
X102255000Y-57750119D01*
X102350238Y-57654880D01*
X102445476Y-57607261D01*
X102635952Y-57559642D01*
X102778809Y-57559642D01*
X102969285Y-57607261D01*
X103064523Y-57654880D01*
X103159761Y-57750119D01*
X103207380Y-57892976D01*
X103207380Y-58131071D01*
X103207380Y-57131071D02*
X102540714Y-57131071D01*
X102207380Y-57131071D02*
X102255000Y-57178690D01*
X102302619Y-57131071D01*
X102255000Y-57083452D01*
X102207380Y-57131071D01*
X102302619Y-57131071D01*
X103159761Y-56702500D02*
X103207380Y-56607261D01*
X103207380Y-56416785D01*
X103159761Y-56321547D01*
X103064523Y-56273928D01*
X103016904Y-56273928D01*
X102921666Y-56321547D01*
X102874047Y-56416785D01*
X102874047Y-56559642D01*
X102826428Y-56654880D01*
X102731190Y-56702500D01*
X102683571Y-56702500D01*
X102588333Y-56654880D01*
X102540714Y-56559642D01*
X102540714Y-56416785D01*
X102588333Y-56321547D01*
X102540714Y-55845357D02*
X103540714Y-55845357D01*
X102588333Y-55845357D02*
X102540714Y-55750119D01*
X102540714Y-55559642D01*
X102588333Y-55464404D01*
X102635952Y-55416785D01*
X102731190Y-55369166D01*
X103016904Y-55369166D01*
X103112142Y-55416785D01*
X103159761Y-55464404D01*
X103207380Y-55559642D01*
X103207380Y-55750119D01*
X103159761Y-55845357D01*
X103207380Y-54797738D02*
X103159761Y-54892976D01*
X103064523Y-54940595D01*
X102207380Y-54940595D01*
X103207380Y-53988214D02*
X102683571Y-53988214D01*
X102588333Y-54035833D01*
X102540714Y-54131071D01*
X102540714Y-54321547D01*
X102588333Y-54416785D01*
X103159761Y-53988214D02*
X103207380Y-54083452D01*
X103207380Y-54321547D01*
X103159761Y-54416785D01*
X103064523Y-54464404D01*
X102969285Y-54464404D01*
X102874047Y-54416785D01*
X102826428Y-54321547D01*
X102826428Y-54083452D01*
X102778809Y-53988214D01*
X102540714Y-53607261D02*
X103207380Y-53369166D01*
X102540714Y-53131071D02*
X103207380Y-53369166D01*
X103445476Y-53464404D01*
X103493095Y-53512023D01*
X103540714Y-53607261D01*
X104817380Y-64464404D02*
X103817380Y-64464404D01*
X104817380Y-63512023D02*
X104817380Y-63988214D01*
X103817380Y-63988214D01*
X104817380Y-63178690D02*
X103817380Y-63178690D01*
X104817380Y-62654880D02*
X104817380Y-62464404D01*
X104769761Y-62369166D01*
X104722142Y-62321547D01*
X104579285Y-62226309D01*
X104388809Y-62178690D01*
X104007857Y-62178690D01*
X103912619Y-62226309D01*
X103865000Y-62273928D01*
X103817380Y-62369166D01*
X103817380Y-62559642D01*
X103865000Y-62654880D01*
X103912619Y-62702500D01*
X104007857Y-62750119D01*
X104245952Y-62750119D01*
X104341190Y-62702500D01*
X104388809Y-62654880D01*
X104436428Y-62559642D01*
X104436428Y-62369166D01*
X104388809Y-62273928D01*
X104341190Y-62226309D01*
X104245952Y-62178690D01*
X103817380Y-61845357D02*
X103817380Y-61226309D01*
X104198333Y-61559642D01*
X104198333Y-61416785D01*
X104245952Y-61321547D01*
X104293571Y-61273928D01*
X104388809Y-61226309D01*
X104626904Y-61226309D01*
X104722142Y-61273928D01*
X104769761Y-61321547D01*
X104817380Y-61416785D01*
X104817380Y-61702500D01*
X104769761Y-61797738D01*
X104722142Y-61845357D01*
X104150714Y-60369166D02*
X104817380Y-60369166D01*
X103769761Y-60607261D02*
X104484047Y-60845357D01*
X104484047Y-60226309D01*
X104817380Y-59321547D02*
X104817380Y-59892976D01*
X104817380Y-59607261D02*
X103817380Y-59607261D01*
X103960238Y-59702500D01*
X104055476Y-59797738D01*
X104103095Y-59892976D01*
X103912619Y-58178690D02*
X103865000Y-58131071D01*
X103817380Y-58035833D01*
X103817380Y-57797738D01*
X103865000Y-57702500D01*
X103912619Y-57654880D01*
X104007857Y-57607261D01*
X104103095Y-57607261D01*
X104245952Y-57654880D01*
X104817380Y-58226309D01*
X104817380Y-57607261D01*
X104150714Y-56750119D02*
X104817380Y-56750119D01*
X103769761Y-56988214D02*
X104484047Y-57226309D01*
X104484047Y-56607261D01*
X103817380Y-56035833D02*
X103817380Y-55940595D01*
X103865000Y-55845357D01*
X103912619Y-55797738D01*
X104007857Y-55750119D01*
X104198333Y-55702500D01*
X104436428Y-55702500D01*
X104626904Y-55750119D01*
X104722142Y-55797738D01*
X104769761Y-55845357D01*
X104817380Y-55940595D01*
X104817380Y-56035833D01*
X104769761Y-56131071D01*
X104722142Y-56178690D01*
X104626904Y-56226309D01*
X104436428Y-56273928D01*
X104198333Y-56273928D01*
X104007857Y-56226309D01*
X103912619Y-56178690D01*
X103865000Y-56131071D01*
X103817380Y-56035833D01*
X104817380Y-55369166D02*
X104150714Y-54845357D01*
X104150714Y-55369166D02*
X104817380Y-54845357D01*
X103817380Y-54559642D02*
X103817380Y-53940595D01*
X104198333Y-54273928D01*
X104198333Y-54131071D01*
X104245952Y-54035833D01*
X104293571Y-53988214D01*
X104388809Y-53940595D01*
X104626904Y-53940595D01*
X104722142Y-53988214D01*
X104769761Y-54035833D01*
X104817380Y-54131071D01*
X104817380Y-54416785D01*
X104769761Y-54512023D01*
X104722142Y-54559642D01*
X103912619Y-53559642D02*
X103865000Y-53512023D01*
X103817380Y-53416785D01*
X103817380Y-53178690D01*
X103865000Y-53083452D01*
X103912619Y-53035833D01*
X104007857Y-52988214D01*
X104103095Y-52988214D01*
X104245952Y-53035833D01*
X104817380Y-53607261D01*
X104817380Y-52988214D01*
X103817380Y-52369166D02*
X103817380Y-52273928D01*
X103865000Y-52178690D01*
X103912619Y-52131071D01*
X104007857Y-52083452D01*
X104198333Y-52035833D01*
X104436428Y-52035833D01*
X104626904Y-52083452D01*
X104722142Y-52131071D01*
X104769761Y-52178690D01*
X104817380Y-52273928D01*
X104817380Y-52369166D01*
X104769761Y-52464404D01*
X104722142Y-52512023D01*
X104626904Y-52559642D01*
X104436428Y-52607261D01*
X104198333Y-52607261D01*
X104007857Y-52559642D01*
X103912619Y-52512023D01*
X103865000Y-52464404D01*
X103817380Y-52369166D01*
%TO.C,P3*%
X108472380Y-94018095D02*
X107472380Y-94018095D01*
X107472380Y-93637142D01*
X107520000Y-93541904D01*
X107567619Y-93494285D01*
X107662857Y-93446666D01*
X107805714Y-93446666D01*
X107900952Y-93494285D01*
X107948571Y-93541904D01*
X107996190Y-93637142D01*
X107996190Y-94018095D01*
X107472380Y-93113333D02*
X107472380Y-92494285D01*
X107853333Y-92827619D01*
X107853333Y-92684761D01*
X107900952Y-92589523D01*
X107948571Y-92541904D01*
X108043809Y-92494285D01*
X108281904Y-92494285D01*
X108377142Y-92541904D01*
X108424761Y-92589523D01*
X108472380Y-92684761D01*
X108472380Y-92970476D01*
X108424761Y-93065714D01*
X108377142Y-93113333D01*
%TO.C,C3*%
X121402112Y-74240628D02*
X121449731Y-74288247D01*
X121497350Y-74431104D01*
X121497350Y-74526342D01*
X121449731Y-74669200D01*
X121354493Y-74764438D01*
X121259255Y-74812057D01*
X121068779Y-74859676D01*
X120925922Y-74859676D01*
X120735446Y-74812057D01*
X120640208Y-74764438D01*
X120544970Y-74669200D01*
X120497350Y-74526342D01*
X120497350Y-74431104D01*
X120544970Y-74288247D01*
X120592589Y-74240628D01*
X120497350Y-73907295D02*
X120497350Y-73288247D01*
X120878303Y-73621581D01*
X120878303Y-73478723D01*
X120925922Y-73383485D01*
X120973541Y-73335866D01*
X121068779Y-73288247D01*
X121306874Y-73288247D01*
X121402112Y-73335866D01*
X121449731Y-73383485D01*
X121497350Y-73478723D01*
X121497350Y-73764438D01*
X121449731Y-73859676D01*
X121402112Y-73907295D01*
%TO.C,C21*%
X110947142Y-97747142D02*
X110899523Y-97794761D01*
X110756666Y-97842380D01*
X110661428Y-97842380D01*
X110518571Y-97794761D01*
X110423333Y-97699523D01*
X110375714Y-97604285D01*
X110328095Y-97413809D01*
X110328095Y-97270952D01*
X110375714Y-97080476D01*
X110423333Y-96985238D01*
X110518571Y-96890000D01*
X110661428Y-96842380D01*
X110756666Y-96842380D01*
X110899523Y-96890000D01*
X110947142Y-96937619D01*
X111328095Y-96937619D02*
X111375714Y-96890000D01*
X111470952Y-96842380D01*
X111709047Y-96842380D01*
X111804285Y-96890000D01*
X111851904Y-96937619D01*
X111899523Y-97032857D01*
X111899523Y-97128095D01*
X111851904Y-97270952D01*
X111280476Y-97842380D01*
X111899523Y-97842380D01*
X112851904Y-97842380D02*
X112280476Y-97842380D01*
X112566190Y-97842380D02*
X112566190Y-96842380D01*
X112470952Y-96985238D01*
X112375714Y-97080476D01*
X112280476Y-97128095D01*
%TO.C,R64*%
X171832380Y-100302857D02*
X171356190Y-100636190D01*
X171832380Y-100874285D02*
X170832380Y-100874285D01*
X170832380Y-100493333D01*
X170880000Y-100398095D01*
X170927619Y-100350476D01*
X171022857Y-100302857D01*
X171165714Y-100302857D01*
X171260952Y-100350476D01*
X171308571Y-100398095D01*
X171356190Y-100493333D01*
X171356190Y-100874285D01*
X170832380Y-99445714D02*
X170832380Y-99636190D01*
X170880000Y-99731428D01*
X170927619Y-99779047D01*
X171070476Y-99874285D01*
X171260952Y-99921904D01*
X171641904Y-99921904D01*
X171737142Y-99874285D01*
X171784761Y-99826666D01*
X171832380Y-99731428D01*
X171832380Y-99540952D01*
X171784761Y-99445714D01*
X171737142Y-99398095D01*
X171641904Y-99350476D01*
X171403809Y-99350476D01*
X171308571Y-99398095D01*
X171260952Y-99445714D01*
X171213333Y-99540952D01*
X171213333Y-99731428D01*
X171260952Y-99826666D01*
X171308571Y-99874285D01*
X171403809Y-99921904D01*
X171165714Y-98493333D02*
X171832380Y-98493333D01*
X170784761Y-98731428D02*
X171499047Y-98969523D01*
X171499047Y-98350476D01*
%TO.C,D2*%
X124761904Y-66072380D02*
X124761904Y-65072380D01*
X125000000Y-65072380D01*
X125142857Y-65120000D01*
X125238095Y-65215238D01*
X125285714Y-65310476D01*
X125333333Y-65500952D01*
X125333333Y-65643809D01*
X125285714Y-65834285D01*
X125238095Y-65929523D01*
X125142857Y-66024761D01*
X125000000Y-66072380D01*
X124761904Y-66072380D01*
X125714285Y-65167619D02*
X125761904Y-65120000D01*
X125857142Y-65072380D01*
X126095238Y-65072380D01*
X126190476Y-65120000D01*
X126238095Y-65167619D01*
X126285714Y-65262857D01*
X126285714Y-65358095D01*
X126238095Y-65500952D01*
X125666666Y-66072380D01*
X126285714Y-66072380D01*
%TO.C,C17*%
X148297142Y-110162857D02*
X148344761Y-110210476D01*
X148392380Y-110353333D01*
X148392380Y-110448571D01*
X148344761Y-110591428D01*
X148249523Y-110686666D01*
X148154285Y-110734285D01*
X147963809Y-110781904D01*
X147820952Y-110781904D01*
X147630476Y-110734285D01*
X147535238Y-110686666D01*
X147440000Y-110591428D01*
X147392380Y-110448571D01*
X147392380Y-110353333D01*
X147440000Y-110210476D01*
X147487619Y-110162857D01*
X148392380Y-109210476D02*
X148392380Y-109781904D01*
X148392380Y-109496190D02*
X147392380Y-109496190D01*
X147535238Y-109591428D01*
X147630476Y-109686666D01*
X147678095Y-109781904D01*
X147392380Y-108877142D02*
X147392380Y-108210476D01*
X148392380Y-108639047D01*
%TO.C,R54*%
X116202380Y-110282857D02*
X115726190Y-110616190D01*
X116202380Y-110854285D02*
X115202380Y-110854285D01*
X115202380Y-110473333D01*
X115250000Y-110378095D01*
X115297619Y-110330476D01*
X115392857Y-110282857D01*
X115535714Y-110282857D01*
X115630952Y-110330476D01*
X115678571Y-110378095D01*
X115726190Y-110473333D01*
X115726190Y-110854285D01*
X115202380Y-109378095D02*
X115202380Y-109854285D01*
X115678571Y-109901904D01*
X115630952Y-109854285D01*
X115583333Y-109759047D01*
X115583333Y-109520952D01*
X115630952Y-109425714D01*
X115678571Y-109378095D01*
X115773809Y-109330476D01*
X116011904Y-109330476D01*
X116107142Y-109378095D01*
X116154761Y-109425714D01*
X116202380Y-109520952D01*
X116202380Y-109759047D01*
X116154761Y-109854285D01*
X116107142Y-109901904D01*
X115535714Y-108473333D02*
X116202380Y-108473333D01*
X115154761Y-108711428D02*
X115869047Y-108949523D01*
X115869047Y-108330476D01*
%TO.C,D7*%
X163651904Y-56932380D02*
X163651904Y-55932380D01*
X163890000Y-55932380D01*
X164032857Y-55980000D01*
X164128095Y-56075238D01*
X164175714Y-56170476D01*
X164223333Y-56360952D01*
X164223333Y-56503809D01*
X164175714Y-56694285D01*
X164128095Y-56789523D01*
X164032857Y-56884761D01*
X163890000Y-56932380D01*
X163651904Y-56932380D01*
X164556666Y-55932380D02*
X165223333Y-55932380D01*
X164794761Y-56932380D01*
%TO.C,R33*%
X154952380Y-103512857D02*
X154476190Y-103846190D01*
X154952380Y-104084285D02*
X153952380Y-104084285D01*
X153952380Y-103703333D01*
X154000000Y-103608095D01*
X154047619Y-103560476D01*
X154142857Y-103512857D01*
X154285714Y-103512857D01*
X154380952Y-103560476D01*
X154428571Y-103608095D01*
X154476190Y-103703333D01*
X154476190Y-104084285D01*
X153952380Y-103179523D02*
X153952380Y-102560476D01*
X154333333Y-102893809D01*
X154333333Y-102750952D01*
X154380952Y-102655714D01*
X154428571Y-102608095D01*
X154523809Y-102560476D01*
X154761904Y-102560476D01*
X154857142Y-102608095D01*
X154904761Y-102655714D01*
X154952380Y-102750952D01*
X154952380Y-103036666D01*
X154904761Y-103131904D01*
X154857142Y-103179523D01*
X153952380Y-102227142D02*
X153952380Y-101608095D01*
X154333333Y-101941428D01*
X154333333Y-101798571D01*
X154380952Y-101703333D01*
X154428571Y-101655714D01*
X154523809Y-101608095D01*
X154761904Y-101608095D01*
X154857142Y-101655714D01*
X154904761Y-101703333D01*
X154952380Y-101798571D01*
X154952380Y-102084285D01*
X154904761Y-102179523D01*
X154857142Y-102227142D01*
%TO.C,ENC1*%
X128035714Y-111428571D02*
X128369047Y-111428571D01*
X128511904Y-111952380D02*
X128035714Y-111952380D01*
X128035714Y-110952380D01*
X128511904Y-110952380D01*
X128940476Y-111952380D02*
X128940476Y-110952380D01*
X129511904Y-111952380D01*
X129511904Y-110952380D01*
X130559523Y-111857142D02*
X130511904Y-111904761D01*
X130369047Y-111952380D01*
X130273809Y-111952380D01*
X130130952Y-111904761D01*
X130035714Y-111809523D01*
X129988095Y-111714285D01*
X129940476Y-111523809D01*
X129940476Y-111380952D01*
X129988095Y-111190476D01*
X130035714Y-111095238D01*
X130130952Y-111000000D01*
X130273809Y-110952380D01*
X130369047Y-110952380D01*
X130511904Y-111000000D01*
X130559523Y-111047619D01*
X131511904Y-111952380D02*
X130940476Y-111952380D01*
X131226190Y-111952380D02*
X131226190Y-110952380D01*
X131130952Y-111095238D01*
X131035714Y-111190476D01*
X130940476Y-111238095D01*
%TO.C,R45*%
X179027142Y-54542380D02*
X178693809Y-54066190D01*
X178455714Y-54542380D02*
X178455714Y-53542380D01*
X178836666Y-53542380D01*
X178931904Y-53590000D01*
X178979523Y-53637619D01*
X179027142Y-53732857D01*
X179027142Y-53875714D01*
X178979523Y-53970952D01*
X178931904Y-54018571D01*
X178836666Y-54066190D01*
X178455714Y-54066190D01*
X179884285Y-53875714D02*
X179884285Y-54542380D01*
X179646190Y-53494761D02*
X179408095Y-54209047D01*
X180027142Y-54209047D01*
X180884285Y-53542380D02*
X180408095Y-53542380D01*
X180360476Y-54018571D01*
X180408095Y-53970952D01*
X180503333Y-53923333D01*
X180741428Y-53923333D01*
X180836666Y-53970952D01*
X180884285Y-54018571D01*
X180931904Y-54113809D01*
X180931904Y-54351904D01*
X180884285Y-54447142D01*
X180836666Y-54494761D01*
X180741428Y-54542380D01*
X180503333Y-54542380D01*
X180408095Y-54494761D01*
X180360476Y-54447142D01*
%TO.C,C42*%
X190187142Y-71932857D02*
X190234761Y-71980476D01*
X190282380Y-72123333D01*
X190282380Y-72218571D01*
X190234761Y-72361428D01*
X190139523Y-72456666D01*
X190044285Y-72504285D01*
X189853809Y-72551904D01*
X189710952Y-72551904D01*
X189520476Y-72504285D01*
X189425238Y-72456666D01*
X189330000Y-72361428D01*
X189282380Y-72218571D01*
X189282380Y-72123333D01*
X189330000Y-71980476D01*
X189377619Y-71932857D01*
X189615714Y-71075714D02*
X190282380Y-71075714D01*
X189234761Y-71313809D02*
X189949047Y-71551904D01*
X189949047Y-70932857D01*
X189377619Y-70599523D02*
X189330000Y-70551904D01*
X189282380Y-70456666D01*
X189282380Y-70218571D01*
X189330000Y-70123333D01*
X189377619Y-70075714D01*
X189472857Y-70028095D01*
X189568095Y-70028095D01*
X189710952Y-70075714D01*
X190282380Y-70647142D01*
X190282380Y-70028095D01*
%TO.C,ENC2*%
X143285714Y-111428571D02*
X143619047Y-111428571D01*
X143761904Y-111952380D02*
X143285714Y-111952380D01*
X143285714Y-110952380D01*
X143761904Y-110952380D01*
X144190476Y-111952380D02*
X144190476Y-110952380D01*
X144761904Y-111952380D01*
X144761904Y-110952380D01*
X145809523Y-111857142D02*
X145761904Y-111904761D01*
X145619047Y-111952380D01*
X145523809Y-111952380D01*
X145380952Y-111904761D01*
X145285714Y-111809523D01*
X145238095Y-111714285D01*
X145190476Y-111523809D01*
X145190476Y-111380952D01*
X145238095Y-111190476D01*
X145285714Y-111095238D01*
X145380952Y-111000000D01*
X145523809Y-110952380D01*
X145619047Y-110952380D01*
X145761904Y-111000000D01*
X145809523Y-111047619D01*
X146190476Y-111047619D02*
X146238095Y-111000000D01*
X146333333Y-110952380D01*
X146571428Y-110952380D01*
X146666666Y-111000000D01*
X146714285Y-111047619D01*
X146761904Y-111142857D01*
X146761904Y-111238095D01*
X146714285Y-111380952D01*
X146142857Y-111952380D01*
X146761904Y-111952380D01*
%TO.C,R74*%
X187137142Y-96662380D02*
X186803809Y-96186190D01*
X186565714Y-96662380D02*
X186565714Y-95662380D01*
X186946666Y-95662380D01*
X187041904Y-95710000D01*
X187089523Y-95757619D01*
X187137142Y-95852857D01*
X187137142Y-95995714D01*
X187089523Y-96090952D01*
X187041904Y-96138571D01*
X186946666Y-96186190D01*
X186565714Y-96186190D01*
X187470476Y-95662380D02*
X188137142Y-95662380D01*
X187708571Y-96662380D01*
X188946666Y-95995714D02*
X188946666Y-96662380D01*
X188708571Y-95614761D02*
X188470476Y-96329047D01*
X189089523Y-96329047D01*
%TO.C,F1*%
X126666666Y-80158571D02*
X126333333Y-80158571D01*
X126333333Y-80682380D02*
X126333333Y-79682380D01*
X126809523Y-79682380D01*
X127714285Y-80682380D02*
X127142857Y-80682380D01*
X127428571Y-80682380D02*
X127428571Y-79682380D01*
X127333333Y-79825238D01*
X127238095Y-79920476D01*
X127142857Y-79968095D01*
%TO.C,R47*%
X179037142Y-56522380D02*
X178703809Y-56046190D01*
X178465714Y-56522380D02*
X178465714Y-55522380D01*
X178846666Y-55522380D01*
X178941904Y-55570000D01*
X178989523Y-55617619D01*
X179037142Y-55712857D01*
X179037142Y-55855714D01*
X178989523Y-55950952D01*
X178941904Y-55998571D01*
X178846666Y-56046190D01*
X178465714Y-56046190D01*
X179894285Y-55855714D02*
X179894285Y-56522380D01*
X179656190Y-55474761D02*
X179418095Y-56189047D01*
X180037142Y-56189047D01*
X180322857Y-55522380D02*
X180989523Y-55522380D01*
X180560952Y-56522380D01*
%TO.C,SW1*%
X108424761Y-90573333D02*
X108472380Y-90430476D01*
X108472380Y-90192380D01*
X108424761Y-90097142D01*
X108377142Y-90049523D01*
X108281904Y-90001904D01*
X108186666Y-90001904D01*
X108091428Y-90049523D01*
X108043809Y-90097142D01*
X107996190Y-90192380D01*
X107948571Y-90382857D01*
X107900952Y-90478095D01*
X107853333Y-90525714D01*
X107758095Y-90573333D01*
X107662857Y-90573333D01*
X107567619Y-90525714D01*
X107520000Y-90478095D01*
X107472380Y-90382857D01*
X107472380Y-90144761D01*
X107520000Y-90001904D01*
X107472380Y-89668571D02*
X108472380Y-89430476D01*
X107758095Y-89240000D01*
X108472380Y-89049523D01*
X107472380Y-88811428D01*
X108472380Y-87906666D02*
X108472380Y-88478095D01*
X108472380Y-88192380D02*
X107472380Y-88192380D01*
X107615238Y-88287619D01*
X107710476Y-88382857D01*
X107758095Y-88478095D01*
%TO.C,R46*%
X169637142Y-56522380D02*
X169303809Y-56046190D01*
X169065714Y-56522380D02*
X169065714Y-55522380D01*
X169446666Y-55522380D01*
X169541904Y-55570000D01*
X169589523Y-55617619D01*
X169637142Y-55712857D01*
X169637142Y-55855714D01*
X169589523Y-55950952D01*
X169541904Y-55998571D01*
X169446666Y-56046190D01*
X169065714Y-56046190D01*
X170494285Y-55855714D02*
X170494285Y-56522380D01*
X170256190Y-55474761D02*
X170018095Y-56189047D01*
X170637142Y-56189047D01*
X171446666Y-55522380D02*
X171256190Y-55522380D01*
X171160952Y-55570000D01*
X171113333Y-55617619D01*
X171018095Y-55760476D01*
X170970476Y-55950952D01*
X170970476Y-56331904D01*
X171018095Y-56427142D01*
X171065714Y-56474761D01*
X171160952Y-56522380D01*
X171351428Y-56522380D01*
X171446666Y-56474761D01*
X171494285Y-56427142D01*
X171541904Y-56331904D01*
X171541904Y-56093809D01*
X171494285Y-55998571D01*
X171446666Y-55950952D01*
X171351428Y-55903333D01*
X171160952Y-55903333D01*
X171065714Y-55950952D01*
X171018095Y-55998571D01*
X170970476Y-56093809D01*
%TO.C,C8*%
X113827142Y-74056666D02*
X113874761Y-74104285D01*
X113922380Y-74247142D01*
X113922380Y-74342380D01*
X113874761Y-74485238D01*
X113779523Y-74580476D01*
X113684285Y-74628095D01*
X113493809Y-74675714D01*
X113350952Y-74675714D01*
X113160476Y-74628095D01*
X113065238Y-74580476D01*
X112970000Y-74485238D01*
X112922380Y-74342380D01*
X112922380Y-74247142D01*
X112970000Y-74104285D01*
X113017619Y-74056666D01*
X113350952Y-73485238D02*
X113303333Y-73580476D01*
X113255714Y-73628095D01*
X113160476Y-73675714D01*
X113112857Y-73675714D01*
X113017619Y-73628095D01*
X112970000Y-73580476D01*
X112922380Y-73485238D01*
X112922380Y-73294761D01*
X112970000Y-73199523D01*
X113017619Y-73151904D01*
X113112857Y-73104285D01*
X113160476Y-73104285D01*
X113255714Y-73151904D01*
X113303333Y-73199523D01*
X113350952Y-73294761D01*
X113350952Y-73485238D01*
X113398571Y-73580476D01*
X113446190Y-73628095D01*
X113541428Y-73675714D01*
X113731904Y-73675714D01*
X113827142Y-73628095D01*
X113874761Y-73580476D01*
X113922380Y-73485238D01*
X113922380Y-73294761D01*
X113874761Y-73199523D01*
X113827142Y-73151904D01*
X113731904Y-73104285D01*
X113541428Y-73104285D01*
X113446190Y-73151904D01*
X113398571Y-73199523D01*
X113350952Y-73294761D01*
%TO.C,D9*%
X159161904Y-56932380D02*
X159161904Y-55932380D01*
X159400000Y-55932380D01*
X159542857Y-55980000D01*
X159638095Y-56075238D01*
X159685714Y-56170476D01*
X159733333Y-56360952D01*
X159733333Y-56503809D01*
X159685714Y-56694285D01*
X159638095Y-56789523D01*
X159542857Y-56884761D01*
X159400000Y-56932380D01*
X159161904Y-56932380D01*
X160209523Y-56932380D02*
X160400000Y-56932380D01*
X160495238Y-56884761D01*
X160542857Y-56837142D01*
X160638095Y-56694285D01*
X160685714Y-56503809D01*
X160685714Y-56122857D01*
X160638095Y-56027619D01*
X160590476Y-55980000D01*
X160495238Y-55932380D01*
X160304761Y-55932380D01*
X160209523Y-55980000D01*
X160161904Y-56027619D01*
X160114285Y-56122857D01*
X160114285Y-56360952D01*
X160161904Y-56456190D01*
X160209523Y-56503809D01*
X160304761Y-56551428D01*
X160495238Y-56551428D01*
X160590476Y-56503809D01*
X160638095Y-56456190D01*
X160685714Y-56360952D01*
%TO.C,R34*%
X154952380Y-106862857D02*
X154476190Y-107196190D01*
X154952380Y-107434285D02*
X153952380Y-107434285D01*
X153952380Y-107053333D01*
X154000000Y-106958095D01*
X154047619Y-106910476D01*
X154142857Y-106862857D01*
X154285714Y-106862857D01*
X154380952Y-106910476D01*
X154428571Y-106958095D01*
X154476190Y-107053333D01*
X154476190Y-107434285D01*
X153952380Y-106529523D02*
X153952380Y-105910476D01*
X154333333Y-106243809D01*
X154333333Y-106100952D01*
X154380952Y-106005714D01*
X154428571Y-105958095D01*
X154523809Y-105910476D01*
X154761904Y-105910476D01*
X154857142Y-105958095D01*
X154904761Y-106005714D01*
X154952380Y-106100952D01*
X154952380Y-106386666D01*
X154904761Y-106481904D01*
X154857142Y-106529523D01*
X154285714Y-105053333D02*
X154952380Y-105053333D01*
X153904761Y-105291428D02*
X154619047Y-105529523D01*
X154619047Y-104910476D01*
%TO.C,D16*%
X110345714Y-96162380D02*
X110345714Y-95162380D01*
X110583809Y-95162380D01*
X110726666Y-95210000D01*
X110821904Y-95305238D01*
X110869523Y-95400476D01*
X110917142Y-95590952D01*
X110917142Y-95733809D01*
X110869523Y-95924285D01*
X110821904Y-96019523D01*
X110726666Y-96114761D01*
X110583809Y-96162380D01*
X110345714Y-96162380D01*
X111869523Y-96162380D02*
X111298095Y-96162380D01*
X111583809Y-96162380D02*
X111583809Y-95162380D01*
X111488571Y-95305238D01*
X111393333Y-95400476D01*
X111298095Y-95448095D01*
X112726666Y-95162380D02*
X112536190Y-95162380D01*
X112440952Y-95210000D01*
X112393333Y-95257619D01*
X112298095Y-95400476D01*
X112250476Y-95590952D01*
X112250476Y-95971904D01*
X112298095Y-96067142D01*
X112345714Y-96114761D01*
X112440952Y-96162380D01*
X112631428Y-96162380D01*
X112726666Y-96114761D01*
X112774285Y-96067142D01*
X112821904Y-95971904D01*
X112821904Y-95733809D01*
X112774285Y-95638571D01*
X112726666Y-95590952D01*
X112631428Y-95543333D01*
X112440952Y-95543333D01*
X112345714Y-95590952D01*
X112298095Y-95638571D01*
X112250476Y-95733809D01*
%TO.C,R48*%
X188067142Y-54542380D02*
X187733809Y-54066190D01*
X187495714Y-54542380D02*
X187495714Y-53542380D01*
X187876666Y-53542380D01*
X187971904Y-53590000D01*
X188019523Y-53637619D01*
X188067142Y-53732857D01*
X188067142Y-53875714D01*
X188019523Y-53970952D01*
X187971904Y-54018571D01*
X187876666Y-54066190D01*
X187495714Y-54066190D01*
X188924285Y-53875714D02*
X188924285Y-54542380D01*
X188686190Y-53494761D02*
X188448095Y-54209047D01*
X189067142Y-54209047D01*
X189590952Y-53970952D02*
X189495714Y-53923333D01*
X189448095Y-53875714D01*
X189400476Y-53780476D01*
X189400476Y-53732857D01*
X189448095Y-53637619D01*
X189495714Y-53590000D01*
X189590952Y-53542380D01*
X189781428Y-53542380D01*
X189876666Y-53590000D01*
X189924285Y-53637619D01*
X189971904Y-53732857D01*
X189971904Y-53780476D01*
X189924285Y-53875714D01*
X189876666Y-53923333D01*
X189781428Y-53970952D01*
X189590952Y-53970952D01*
X189495714Y-54018571D01*
X189448095Y-54066190D01*
X189400476Y-54161428D01*
X189400476Y-54351904D01*
X189448095Y-54447142D01*
X189495714Y-54494761D01*
X189590952Y-54542380D01*
X189781428Y-54542380D01*
X189876666Y-54494761D01*
X189924285Y-54447142D01*
X189971904Y-54351904D01*
X189971904Y-54161428D01*
X189924285Y-54066190D01*
X189876666Y-54018571D01*
X189781428Y-53970952D01*
%TO.C,P1*%
X118211904Y-64542380D02*
X118211904Y-63542380D01*
X118592857Y-63542380D01*
X118688095Y-63590000D01*
X118735714Y-63637619D01*
X118783333Y-63732857D01*
X118783333Y-63875714D01*
X118735714Y-63970952D01*
X118688095Y-64018571D01*
X118592857Y-64066190D01*
X118211904Y-64066190D01*
X119735714Y-64542380D02*
X119164285Y-64542380D01*
X119450000Y-64542380D02*
X119450000Y-63542380D01*
X119354761Y-63685238D01*
X119259523Y-63780476D01*
X119164285Y-63828095D01*
%TO.C,R63*%
X110955743Y-67736220D02*
X110479553Y-68069553D01*
X110955743Y-68307648D02*
X109955743Y-68307648D01*
X109955743Y-67926696D01*
X110003363Y-67831458D01*
X110050982Y-67783839D01*
X110146220Y-67736220D01*
X110289077Y-67736220D01*
X110384315Y-67783839D01*
X110431934Y-67831458D01*
X110479553Y-67926696D01*
X110479553Y-68307648D01*
X109955743Y-66879077D02*
X109955743Y-67069553D01*
X110003363Y-67164791D01*
X110050982Y-67212410D01*
X110193839Y-67307648D01*
X110384315Y-67355267D01*
X110765267Y-67355267D01*
X110860505Y-67307648D01*
X110908124Y-67260029D01*
X110955743Y-67164791D01*
X110955743Y-66974315D01*
X110908124Y-66879077D01*
X110860505Y-66831458D01*
X110765267Y-66783839D01*
X110527172Y-66783839D01*
X110431934Y-66831458D01*
X110384315Y-66879077D01*
X110336696Y-66974315D01*
X110336696Y-67164791D01*
X110384315Y-67260029D01*
X110431934Y-67307648D01*
X110527172Y-67355267D01*
X109955743Y-66450505D02*
X109955743Y-65831458D01*
X110336696Y-66164791D01*
X110336696Y-66021934D01*
X110384315Y-65926696D01*
X110431934Y-65879077D01*
X110527172Y-65831458D01*
X110765267Y-65831458D01*
X110860505Y-65879077D01*
X110908124Y-65926696D01*
X110955743Y-66021934D01*
X110955743Y-66307648D01*
X110908124Y-66402886D01*
X110860505Y-66450505D01*
%TO.C,R42*%
X185372380Y-71972857D02*
X184896190Y-72306190D01*
X185372380Y-72544285D02*
X184372380Y-72544285D01*
X184372380Y-72163333D01*
X184420000Y-72068095D01*
X184467619Y-72020476D01*
X184562857Y-71972857D01*
X184705714Y-71972857D01*
X184800952Y-72020476D01*
X184848571Y-72068095D01*
X184896190Y-72163333D01*
X184896190Y-72544285D01*
X184705714Y-71115714D02*
X185372380Y-71115714D01*
X184324761Y-71353809D02*
X185039047Y-71591904D01*
X185039047Y-70972857D01*
X184467619Y-70639523D02*
X184420000Y-70591904D01*
X184372380Y-70496666D01*
X184372380Y-70258571D01*
X184420000Y-70163333D01*
X184467619Y-70115714D01*
X184562857Y-70068095D01*
X184658095Y-70068095D01*
X184800952Y-70115714D01*
X185372380Y-70687142D01*
X185372380Y-70068095D01*
%TO.C,D13*%
X148392380Y-107614285D02*
X147392380Y-107614285D01*
X147392380Y-107376190D01*
X147440000Y-107233333D01*
X147535238Y-107138095D01*
X147630476Y-107090476D01*
X147820952Y-107042857D01*
X147963809Y-107042857D01*
X148154285Y-107090476D01*
X148249523Y-107138095D01*
X148344761Y-107233333D01*
X148392380Y-107376190D01*
X148392380Y-107614285D01*
X148392380Y-106090476D02*
X148392380Y-106661904D01*
X148392380Y-106376190D02*
X147392380Y-106376190D01*
X147535238Y-106471428D01*
X147630476Y-106566666D01*
X147678095Y-106661904D01*
X147392380Y-105757142D02*
X147392380Y-105138095D01*
X147773333Y-105471428D01*
X147773333Y-105328571D01*
X147820952Y-105233333D01*
X147868571Y-105185714D01*
X147963809Y-105138095D01*
X148201904Y-105138095D01*
X148297142Y-105185714D01*
X148344761Y-105233333D01*
X148392380Y-105328571D01*
X148392380Y-105614285D01*
X148344761Y-105709523D01*
X148297142Y-105757142D01*
%TO.C,P9*%
X107261904Y-51452380D02*
X107261904Y-50452380D01*
X107642857Y-50452380D01*
X107738095Y-50500000D01*
X107785714Y-50547619D01*
X107833333Y-50642857D01*
X107833333Y-50785714D01*
X107785714Y-50880952D01*
X107738095Y-50928571D01*
X107642857Y-50976190D01*
X107261904Y-50976190D01*
X108309523Y-51452380D02*
X108500000Y-51452380D01*
X108595238Y-51404761D01*
X108642857Y-51357142D01*
X108738095Y-51214285D01*
X108785714Y-51023809D01*
X108785714Y-50642857D01*
X108738095Y-50547619D01*
X108690476Y-50500000D01*
X108595238Y-50452380D01*
X108404761Y-50452380D01*
X108309523Y-50500000D01*
X108261904Y-50547619D01*
X108214285Y-50642857D01*
X108214285Y-50880952D01*
X108261904Y-50976190D01*
X108309523Y-51023809D01*
X108404761Y-51071428D01*
X108595238Y-51071428D01*
X108690476Y-51023809D01*
X108738095Y-50976190D01*
X108785714Y-50880952D01*
%TO.C,R75*%
X170122380Y-100292857D02*
X169646190Y-100626190D01*
X170122380Y-100864285D02*
X169122380Y-100864285D01*
X169122380Y-100483333D01*
X169170000Y-100388095D01*
X169217619Y-100340476D01*
X169312857Y-100292857D01*
X169455714Y-100292857D01*
X169550952Y-100340476D01*
X169598571Y-100388095D01*
X169646190Y-100483333D01*
X169646190Y-100864285D01*
X169122380Y-99959523D02*
X169122380Y-99292857D01*
X170122380Y-99721428D01*
X169122380Y-98435714D02*
X169122380Y-98911904D01*
X169598571Y-98959523D01*
X169550952Y-98911904D01*
X169503333Y-98816666D01*
X169503333Y-98578571D01*
X169550952Y-98483333D01*
X169598571Y-98435714D01*
X169693809Y-98388095D01*
X169931904Y-98388095D01*
X170027142Y-98435714D01*
X170074761Y-98483333D01*
X170122380Y-98578571D01*
X170122380Y-98816666D01*
X170074761Y-98911904D01*
X170027142Y-98959523D01*
%TO.C,C5*%
X124397142Y-80886666D02*
X124444761Y-80934285D01*
X124492380Y-81077142D01*
X124492380Y-81172380D01*
X124444761Y-81315238D01*
X124349523Y-81410476D01*
X124254285Y-81458095D01*
X124063809Y-81505714D01*
X123920952Y-81505714D01*
X123730476Y-81458095D01*
X123635238Y-81410476D01*
X123540000Y-81315238D01*
X123492380Y-81172380D01*
X123492380Y-81077142D01*
X123540000Y-80934285D01*
X123587619Y-80886666D01*
X123492380Y-79981904D02*
X123492380Y-80458095D01*
X123968571Y-80505714D01*
X123920952Y-80458095D01*
X123873333Y-80362857D01*
X123873333Y-80124761D01*
X123920952Y-80029523D01*
X123968571Y-79981904D01*
X124063809Y-79934285D01*
X124301904Y-79934285D01*
X124397142Y-79981904D01*
X124444761Y-80029523D01*
X124492380Y-80124761D01*
X124492380Y-80362857D01*
X124444761Y-80458095D01*
X124397142Y-80505714D01*
%TO.C,R8*%
X110922380Y-81796666D02*
X110446190Y-82130000D01*
X110922380Y-82368095D02*
X109922380Y-82368095D01*
X109922380Y-81987142D01*
X109970000Y-81891904D01*
X110017619Y-81844285D01*
X110112857Y-81796666D01*
X110255714Y-81796666D01*
X110350952Y-81844285D01*
X110398571Y-81891904D01*
X110446190Y-81987142D01*
X110446190Y-82368095D01*
X110350952Y-81225238D02*
X110303333Y-81320476D01*
X110255714Y-81368095D01*
X110160476Y-81415714D01*
X110112857Y-81415714D01*
X110017619Y-81368095D01*
X109970000Y-81320476D01*
X109922380Y-81225238D01*
X109922380Y-81034761D01*
X109970000Y-80939523D01*
X110017619Y-80891904D01*
X110112857Y-80844285D01*
X110160476Y-80844285D01*
X110255714Y-80891904D01*
X110303333Y-80939523D01*
X110350952Y-81034761D01*
X110350952Y-81225238D01*
X110398571Y-81320476D01*
X110446190Y-81368095D01*
X110541428Y-81415714D01*
X110731904Y-81415714D01*
X110827142Y-81368095D01*
X110874761Y-81320476D01*
X110922380Y-81225238D01*
X110922380Y-81034761D01*
X110874761Y-80939523D01*
X110827142Y-80891904D01*
X110731904Y-80844285D01*
X110541428Y-80844285D01*
X110446190Y-80891904D01*
X110398571Y-80939523D01*
X110350952Y-81034761D01*
%TO.C,D12*%
X148925714Y-96162380D02*
X148925714Y-95162380D01*
X149163809Y-95162380D01*
X149306666Y-95210000D01*
X149401904Y-95305238D01*
X149449523Y-95400476D01*
X149497142Y-95590952D01*
X149497142Y-95733809D01*
X149449523Y-95924285D01*
X149401904Y-96019523D01*
X149306666Y-96114761D01*
X149163809Y-96162380D01*
X148925714Y-96162380D01*
X150449523Y-96162380D02*
X149878095Y-96162380D01*
X150163809Y-96162380D02*
X150163809Y-95162380D01*
X150068571Y-95305238D01*
X149973333Y-95400476D01*
X149878095Y-95448095D01*
X150830476Y-95257619D02*
X150878095Y-95210000D01*
X150973333Y-95162380D01*
X151211428Y-95162380D01*
X151306666Y-95210000D01*
X151354285Y-95257619D01*
X151401904Y-95352857D01*
X151401904Y-95448095D01*
X151354285Y-95590952D01*
X150782857Y-96162380D01*
X151401904Y-96162380D01*
%TO.C,C37*%
X186917142Y-71952857D02*
X186964761Y-72000476D01*
X187012380Y-72143333D01*
X187012380Y-72238571D01*
X186964761Y-72381428D01*
X186869523Y-72476666D01*
X186774285Y-72524285D01*
X186583809Y-72571904D01*
X186440952Y-72571904D01*
X186250476Y-72524285D01*
X186155238Y-72476666D01*
X186060000Y-72381428D01*
X186012380Y-72238571D01*
X186012380Y-72143333D01*
X186060000Y-72000476D01*
X186107619Y-71952857D01*
X186012380Y-71619523D02*
X186012380Y-71000476D01*
X186393333Y-71333809D01*
X186393333Y-71190952D01*
X186440952Y-71095714D01*
X186488571Y-71048095D01*
X186583809Y-71000476D01*
X186821904Y-71000476D01*
X186917142Y-71048095D01*
X186964761Y-71095714D01*
X187012380Y-71190952D01*
X187012380Y-71476666D01*
X186964761Y-71571904D01*
X186917142Y-71619523D01*
X186012380Y-70667142D02*
X186012380Y-70000476D01*
X187012380Y-70429047D01*
%TO.C,R37*%
X154932380Y-110192857D02*
X154456190Y-110526190D01*
X154932380Y-110764285D02*
X153932380Y-110764285D01*
X153932380Y-110383333D01*
X153980000Y-110288095D01*
X154027619Y-110240476D01*
X154122857Y-110192857D01*
X154265714Y-110192857D01*
X154360952Y-110240476D01*
X154408571Y-110288095D01*
X154456190Y-110383333D01*
X154456190Y-110764285D01*
X153932380Y-109859523D02*
X153932380Y-109240476D01*
X154313333Y-109573809D01*
X154313333Y-109430952D01*
X154360952Y-109335714D01*
X154408571Y-109288095D01*
X154503809Y-109240476D01*
X154741904Y-109240476D01*
X154837142Y-109288095D01*
X154884761Y-109335714D01*
X154932380Y-109430952D01*
X154932380Y-109716666D01*
X154884761Y-109811904D01*
X154837142Y-109859523D01*
X153932380Y-108907142D02*
X153932380Y-108240476D01*
X154932380Y-108669047D01*
%TO.C,C2*%
X124407142Y-74146666D02*
X124454761Y-74194285D01*
X124502380Y-74337142D01*
X124502380Y-74432380D01*
X124454761Y-74575238D01*
X124359523Y-74670476D01*
X124264285Y-74718095D01*
X124073809Y-74765714D01*
X123930952Y-74765714D01*
X123740476Y-74718095D01*
X123645238Y-74670476D01*
X123550000Y-74575238D01*
X123502380Y-74432380D01*
X123502380Y-74337142D01*
X123550000Y-74194285D01*
X123597619Y-74146666D01*
X123597619Y-73765714D02*
X123550000Y-73718095D01*
X123502380Y-73622857D01*
X123502380Y-73384761D01*
X123550000Y-73289523D01*
X123597619Y-73241904D01*
X123692857Y-73194285D01*
X123788095Y-73194285D01*
X123930952Y-73241904D01*
X124502380Y-73813333D01*
X124502380Y-73194285D01*
%TO.C,C4*%
X122879294Y-74176666D02*
X122926913Y-74224285D01*
X122974532Y-74367142D01*
X122974532Y-74462380D01*
X122926913Y-74605238D01*
X122831675Y-74700476D01*
X122736437Y-74748095D01*
X122545961Y-74795714D01*
X122403104Y-74795714D01*
X122212628Y-74748095D01*
X122117390Y-74700476D01*
X122022152Y-74605238D01*
X121974532Y-74462380D01*
X121974532Y-74367142D01*
X122022152Y-74224285D01*
X122069771Y-74176666D01*
X122307866Y-73319523D02*
X122974532Y-73319523D01*
X121926913Y-73557619D02*
X122641199Y-73795714D01*
X122641199Y-73176666D01*
%TO.C,R59*%
X116192380Y-100342857D02*
X115716190Y-100676190D01*
X116192380Y-100914285D02*
X115192380Y-100914285D01*
X115192380Y-100533333D01*
X115240000Y-100438095D01*
X115287619Y-100390476D01*
X115382857Y-100342857D01*
X115525714Y-100342857D01*
X115620952Y-100390476D01*
X115668571Y-100438095D01*
X115716190Y-100533333D01*
X115716190Y-100914285D01*
X115192380Y-99438095D02*
X115192380Y-99914285D01*
X115668571Y-99961904D01*
X115620952Y-99914285D01*
X115573333Y-99819047D01*
X115573333Y-99580952D01*
X115620952Y-99485714D01*
X115668571Y-99438095D01*
X115763809Y-99390476D01*
X116001904Y-99390476D01*
X116097142Y-99438095D01*
X116144761Y-99485714D01*
X116192380Y-99580952D01*
X116192380Y-99819047D01*
X116144761Y-99914285D01*
X116097142Y-99961904D01*
X116192380Y-98914285D02*
X116192380Y-98723809D01*
X116144761Y-98628571D01*
X116097142Y-98580952D01*
X115954285Y-98485714D01*
X115763809Y-98438095D01*
X115382857Y-98438095D01*
X115287619Y-98485714D01*
X115240000Y-98533333D01*
X115192380Y-98628571D01*
X115192380Y-98819047D01*
X115240000Y-98914285D01*
X115287619Y-98961904D01*
X115382857Y-99009523D01*
X115620952Y-99009523D01*
X115716190Y-98961904D01*
X115763809Y-98914285D01*
X115811428Y-98819047D01*
X115811428Y-98628571D01*
X115763809Y-98533333D01*
X115716190Y-98485714D01*
X115620952Y-98438095D01*
%TO.C,D10*%
X186082380Y-102014285D02*
X185082380Y-102014285D01*
X185082380Y-101776190D01*
X185130000Y-101633333D01*
X185225238Y-101538095D01*
X185320476Y-101490476D01*
X185510952Y-101442857D01*
X185653809Y-101442857D01*
X185844285Y-101490476D01*
X185939523Y-101538095D01*
X186034761Y-101633333D01*
X186082380Y-101776190D01*
X186082380Y-102014285D01*
X186082380Y-100490476D02*
X186082380Y-101061904D01*
X186082380Y-100776190D02*
X185082380Y-100776190D01*
X185225238Y-100871428D01*
X185320476Y-100966666D01*
X185368095Y-101061904D01*
X185082380Y-99871428D02*
X185082380Y-99776190D01*
X185130000Y-99680952D01*
X185177619Y-99633333D01*
X185272857Y-99585714D01*
X185463333Y-99538095D01*
X185701428Y-99538095D01*
X185891904Y-99585714D01*
X185987142Y-99633333D01*
X186034761Y-99680952D01*
X186082380Y-99776190D01*
X186082380Y-99871428D01*
X186034761Y-99966666D01*
X185987142Y-100014285D01*
X185891904Y-100061904D01*
X185701428Y-100109523D01*
X185463333Y-100109523D01*
X185272857Y-100061904D01*
X185177619Y-100014285D01*
X185130000Y-99966666D01*
X185082380Y-99871428D01*
%TO.C,R52*%
X116202380Y-106992857D02*
X115726190Y-107326190D01*
X116202380Y-107564285D02*
X115202380Y-107564285D01*
X115202380Y-107183333D01*
X115250000Y-107088095D01*
X115297619Y-107040476D01*
X115392857Y-106992857D01*
X115535714Y-106992857D01*
X115630952Y-107040476D01*
X115678571Y-107088095D01*
X115726190Y-107183333D01*
X115726190Y-107564285D01*
X115202380Y-106088095D02*
X115202380Y-106564285D01*
X115678571Y-106611904D01*
X115630952Y-106564285D01*
X115583333Y-106469047D01*
X115583333Y-106230952D01*
X115630952Y-106135714D01*
X115678571Y-106088095D01*
X115773809Y-106040476D01*
X116011904Y-106040476D01*
X116107142Y-106088095D01*
X116154761Y-106135714D01*
X116202380Y-106230952D01*
X116202380Y-106469047D01*
X116154761Y-106564285D01*
X116107142Y-106611904D01*
X115297619Y-105659523D02*
X115250000Y-105611904D01*
X115202380Y-105516666D01*
X115202380Y-105278571D01*
X115250000Y-105183333D01*
X115297619Y-105135714D01*
X115392857Y-105088095D01*
X115488095Y-105088095D01*
X115630952Y-105135714D01*
X116202380Y-105707142D01*
X116202380Y-105088095D01*
%TO.C,D15*%
X109802380Y-107664285D02*
X108802380Y-107664285D01*
X108802380Y-107426190D01*
X108850000Y-107283333D01*
X108945238Y-107188095D01*
X109040476Y-107140476D01*
X109230952Y-107092857D01*
X109373809Y-107092857D01*
X109564285Y-107140476D01*
X109659523Y-107188095D01*
X109754761Y-107283333D01*
X109802380Y-107426190D01*
X109802380Y-107664285D01*
X109802380Y-106140476D02*
X109802380Y-106711904D01*
X109802380Y-106426190D02*
X108802380Y-106426190D01*
X108945238Y-106521428D01*
X109040476Y-106616666D01*
X109088095Y-106711904D01*
X108802380Y-105235714D02*
X108802380Y-105711904D01*
X109278571Y-105759523D01*
X109230952Y-105711904D01*
X109183333Y-105616666D01*
X109183333Y-105378571D01*
X109230952Y-105283333D01*
X109278571Y-105235714D01*
X109373809Y-105188095D01*
X109611904Y-105188095D01*
X109707142Y-105235714D01*
X109754761Y-105283333D01*
X109802380Y-105378571D01*
X109802380Y-105616666D01*
X109754761Y-105711904D01*
X109707142Y-105759523D01*
%TO.C,C6*%
X110797142Y-78856666D02*
X110844761Y-78904285D01*
X110892380Y-79047142D01*
X110892380Y-79142380D01*
X110844761Y-79285238D01*
X110749523Y-79380476D01*
X110654285Y-79428095D01*
X110463809Y-79475714D01*
X110320952Y-79475714D01*
X110130476Y-79428095D01*
X110035238Y-79380476D01*
X109940000Y-79285238D01*
X109892380Y-79142380D01*
X109892380Y-79047142D01*
X109940000Y-78904285D01*
X109987619Y-78856666D01*
X109892380Y-77999523D02*
X109892380Y-78190000D01*
X109940000Y-78285238D01*
X109987619Y-78332857D01*
X110130476Y-78428095D01*
X110320952Y-78475714D01*
X110701904Y-78475714D01*
X110797142Y-78428095D01*
X110844761Y-78380476D01*
X110892380Y-78285238D01*
X110892380Y-78094761D01*
X110844761Y-77999523D01*
X110797142Y-77951904D01*
X110701904Y-77904285D01*
X110463809Y-77904285D01*
X110368571Y-77951904D01*
X110320952Y-77999523D01*
X110273333Y-78094761D01*
X110273333Y-78285238D01*
X110320952Y-78380476D01*
X110368571Y-78428095D01*
X110463809Y-78475714D01*
%TO.C,RV2*%
X177964761Y-110262380D02*
X177631428Y-109786190D01*
X177393333Y-110262380D02*
X177393333Y-109262380D01*
X177774285Y-109262380D01*
X177869523Y-109310000D01*
X177917142Y-109357619D01*
X177964761Y-109452857D01*
X177964761Y-109595714D01*
X177917142Y-109690952D01*
X177869523Y-109738571D01*
X177774285Y-109786190D01*
X177393333Y-109786190D01*
X178250476Y-109262380D02*
X178583809Y-110262380D01*
X178917142Y-109262380D01*
X179202857Y-109357619D02*
X179250476Y-109310000D01*
X179345714Y-109262380D01*
X179583809Y-109262380D01*
X179679047Y-109310000D01*
X179726666Y-109357619D01*
X179774285Y-109452857D01*
X179774285Y-109548095D01*
X179726666Y-109690952D01*
X179155238Y-110262380D01*
X179774285Y-110262380D01*
%TO.C,PTC2*%
X159170952Y-55332380D02*
X159170952Y-54332380D01*
X159551904Y-54332380D01*
X159647142Y-54380000D01*
X159694761Y-54427619D01*
X159742380Y-54522857D01*
X159742380Y-54665714D01*
X159694761Y-54760952D01*
X159647142Y-54808571D01*
X159551904Y-54856190D01*
X159170952Y-54856190D01*
X160028095Y-54332380D02*
X160599523Y-54332380D01*
X160313809Y-55332380D02*
X160313809Y-54332380D01*
X161504285Y-55237142D02*
X161456666Y-55284761D01*
X161313809Y-55332380D01*
X161218571Y-55332380D01*
X161075714Y-55284761D01*
X160980476Y-55189523D01*
X160932857Y-55094285D01*
X160885238Y-54903809D01*
X160885238Y-54760952D01*
X160932857Y-54570476D01*
X160980476Y-54475238D01*
X161075714Y-54380000D01*
X161218571Y-54332380D01*
X161313809Y-54332380D01*
X161456666Y-54380000D01*
X161504285Y-54427619D01*
X161885238Y-54427619D02*
X161932857Y-54380000D01*
X162028095Y-54332380D01*
X162266190Y-54332380D01*
X162361428Y-54380000D01*
X162409047Y-54427619D01*
X162456666Y-54522857D01*
X162456666Y-54618095D01*
X162409047Y-54760952D01*
X161837619Y-55332380D01*
X162456666Y-55332380D01*
%TO.C,C9*%
X112377142Y-74041666D02*
X112424761Y-74089285D01*
X112472380Y-74232142D01*
X112472380Y-74327380D01*
X112424761Y-74470238D01*
X112329523Y-74565476D01*
X112234285Y-74613095D01*
X112043809Y-74660714D01*
X111900952Y-74660714D01*
X111710476Y-74613095D01*
X111615238Y-74565476D01*
X111520000Y-74470238D01*
X111472380Y-74327380D01*
X111472380Y-74232142D01*
X111520000Y-74089285D01*
X111567619Y-74041666D01*
X112472380Y-73565476D02*
X112472380Y-73375000D01*
X112424761Y-73279761D01*
X112377142Y-73232142D01*
X112234285Y-73136904D01*
X112043809Y-73089285D01*
X111662857Y-73089285D01*
X111567619Y-73136904D01*
X111520000Y-73184523D01*
X111472380Y-73279761D01*
X111472380Y-73470238D01*
X111520000Y-73565476D01*
X111567619Y-73613095D01*
X111662857Y-73660714D01*
X111900952Y-73660714D01*
X111996190Y-73613095D01*
X112043809Y-73565476D01*
X112091428Y-73470238D01*
X112091428Y-73279761D01*
X112043809Y-73184523D01*
X111996190Y-73136904D01*
X111900952Y-73089285D01*
%TO.C,C15*%
X149487142Y-97687142D02*
X149439523Y-97734761D01*
X149296666Y-97782380D01*
X149201428Y-97782380D01*
X149058571Y-97734761D01*
X148963333Y-97639523D01*
X148915714Y-97544285D01*
X148868095Y-97353809D01*
X148868095Y-97210952D01*
X148915714Y-97020476D01*
X148963333Y-96925238D01*
X149058571Y-96830000D01*
X149201428Y-96782380D01*
X149296666Y-96782380D01*
X149439523Y-96830000D01*
X149487142Y-96877619D01*
X150439523Y-97782380D02*
X149868095Y-97782380D01*
X150153809Y-97782380D02*
X150153809Y-96782380D01*
X150058571Y-96925238D01*
X149963333Y-97020476D01*
X149868095Y-97068095D01*
X151344285Y-96782380D02*
X150868095Y-96782380D01*
X150820476Y-97258571D01*
X150868095Y-97210952D01*
X150963333Y-97163333D01*
X151201428Y-97163333D01*
X151296666Y-97210952D01*
X151344285Y-97258571D01*
X151391904Y-97353809D01*
X151391904Y-97591904D01*
X151344285Y-97687142D01*
X151296666Y-97734761D01*
X151201428Y-97782380D01*
X150963333Y-97782380D01*
X150868095Y-97734761D01*
X150820476Y-97687142D01*
%TO.C,U1*%
X116323065Y-75826342D02*
X116323065Y-76635866D01*
X116370684Y-76731104D01*
X116418303Y-76778723D01*
X116513541Y-76826342D01*
X116704017Y-76826342D01*
X116799255Y-76778723D01*
X116846874Y-76731104D01*
X116894493Y-76635866D01*
X116894493Y-75826342D01*
X117894493Y-76826342D02*
X117323065Y-76826342D01*
X117608779Y-76826342D02*
X117608779Y-75826342D01*
X117513541Y-75969200D01*
X117418303Y-76064438D01*
X117323065Y-76112057D01*
%TO.C,D1*%
X118181904Y-66072380D02*
X118181904Y-65072380D01*
X118420000Y-65072380D01*
X118562857Y-65120000D01*
X118658095Y-65215238D01*
X118705714Y-65310476D01*
X118753333Y-65500952D01*
X118753333Y-65643809D01*
X118705714Y-65834285D01*
X118658095Y-65929523D01*
X118562857Y-66024761D01*
X118420000Y-66072380D01*
X118181904Y-66072380D01*
X119705714Y-66072380D02*
X119134285Y-66072380D01*
X119420000Y-66072380D02*
X119420000Y-65072380D01*
X119324761Y-65215238D01*
X119229523Y-65310476D01*
X119134285Y-65358095D01*
%TO.C,D4*%
X186082380Y-98658095D02*
X185082380Y-98658095D01*
X185082380Y-98420000D01*
X185130000Y-98277142D01*
X185225238Y-98181904D01*
X185320476Y-98134285D01*
X185510952Y-98086666D01*
X185653809Y-98086666D01*
X185844285Y-98134285D01*
X185939523Y-98181904D01*
X186034761Y-98277142D01*
X186082380Y-98420000D01*
X186082380Y-98658095D01*
X185415714Y-97229523D02*
X186082380Y-97229523D01*
X185034761Y-97467619D02*
X185749047Y-97705714D01*
X185749047Y-97086666D01*
%TO.C,RV1*%
X161964761Y-110302380D02*
X161631428Y-109826190D01*
X161393333Y-110302380D02*
X161393333Y-109302380D01*
X161774285Y-109302380D01*
X161869523Y-109350000D01*
X161917142Y-109397619D01*
X161964761Y-109492857D01*
X161964761Y-109635714D01*
X161917142Y-109730952D01*
X161869523Y-109778571D01*
X161774285Y-109826190D01*
X161393333Y-109826190D01*
X162250476Y-109302380D02*
X162583809Y-110302380D01*
X162917142Y-109302380D01*
X163774285Y-110302380D02*
X163202857Y-110302380D01*
X163488571Y-110302380D02*
X163488571Y-109302380D01*
X163393333Y-109445238D01*
X163298095Y-109540476D01*
X163202857Y-109588095D01*
%TO.C,C20*%
X109677142Y-110222857D02*
X109724761Y-110270476D01*
X109772380Y-110413333D01*
X109772380Y-110508571D01*
X109724761Y-110651428D01*
X109629523Y-110746666D01*
X109534285Y-110794285D01*
X109343809Y-110841904D01*
X109200952Y-110841904D01*
X109010476Y-110794285D01*
X108915238Y-110746666D01*
X108820000Y-110651428D01*
X108772380Y-110508571D01*
X108772380Y-110413333D01*
X108820000Y-110270476D01*
X108867619Y-110222857D01*
X108867619Y-109841904D02*
X108820000Y-109794285D01*
X108772380Y-109699047D01*
X108772380Y-109460952D01*
X108820000Y-109365714D01*
X108867619Y-109318095D01*
X108962857Y-109270476D01*
X109058095Y-109270476D01*
X109200952Y-109318095D01*
X109772380Y-109889523D01*
X109772380Y-109270476D01*
X108772380Y-108651428D02*
X108772380Y-108556190D01*
X108820000Y-108460952D01*
X108867619Y-108413333D01*
X108962857Y-108365714D01*
X109153333Y-108318095D01*
X109391428Y-108318095D01*
X109581904Y-108365714D01*
X109677142Y-108413333D01*
X109724761Y-108460952D01*
X109772380Y-108556190D01*
X109772380Y-108651428D01*
X109724761Y-108746666D01*
X109677142Y-108794285D01*
X109581904Y-108841904D01*
X109391428Y-108889523D01*
X109153333Y-108889523D01*
X108962857Y-108841904D01*
X108867619Y-108794285D01*
X108820000Y-108746666D01*
X108772380Y-108651428D01*
%TO.C,R32*%
X154952380Y-100222857D02*
X154476190Y-100556190D01*
X154952380Y-100794285D02*
X153952380Y-100794285D01*
X153952380Y-100413333D01*
X154000000Y-100318095D01*
X154047619Y-100270476D01*
X154142857Y-100222857D01*
X154285714Y-100222857D01*
X154380952Y-100270476D01*
X154428571Y-100318095D01*
X154476190Y-100413333D01*
X154476190Y-100794285D01*
X153952380Y-99889523D02*
X153952380Y-99270476D01*
X154333333Y-99603809D01*
X154333333Y-99460952D01*
X154380952Y-99365714D01*
X154428571Y-99318095D01*
X154523809Y-99270476D01*
X154761904Y-99270476D01*
X154857142Y-99318095D01*
X154904761Y-99365714D01*
X154952380Y-99460952D01*
X154952380Y-99746666D01*
X154904761Y-99841904D01*
X154857142Y-99889523D01*
X154047619Y-98889523D02*
X154000000Y-98841904D01*
X153952380Y-98746666D01*
X153952380Y-98508571D01*
X154000000Y-98413333D01*
X154047619Y-98365714D01*
X154142857Y-98318095D01*
X154238095Y-98318095D01*
X154380952Y-98365714D01*
X154952380Y-98937142D01*
X154952380Y-98318095D01*
%TO.C,C7*%
X115297142Y-74056666D02*
X115344761Y-74104285D01*
X115392380Y-74247142D01*
X115392380Y-74342380D01*
X115344761Y-74485238D01*
X115249523Y-74580476D01*
X115154285Y-74628095D01*
X114963809Y-74675714D01*
X114820952Y-74675714D01*
X114630476Y-74628095D01*
X114535238Y-74580476D01*
X114440000Y-74485238D01*
X114392380Y-74342380D01*
X114392380Y-74247142D01*
X114440000Y-74104285D01*
X114487619Y-74056666D01*
X114392380Y-73723333D02*
X114392380Y-73056666D01*
X115392380Y-73485238D01*
%TO.C,*%
%TO.C,R65*%
X156682380Y-100242857D02*
X156206190Y-100576190D01*
X156682380Y-100814285D02*
X155682380Y-100814285D01*
X155682380Y-100433333D01*
X155730000Y-100338095D01*
X155777619Y-100290476D01*
X155872857Y-100242857D01*
X156015714Y-100242857D01*
X156110952Y-100290476D01*
X156158571Y-100338095D01*
X156206190Y-100433333D01*
X156206190Y-100814285D01*
X155682380Y-99385714D02*
X155682380Y-99576190D01*
X155730000Y-99671428D01*
X155777619Y-99719047D01*
X155920476Y-99814285D01*
X156110952Y-99861904D01*
X156491904Y-99861904D01*
X156587142Y-99814285D01*
X156634761Y-99766666D01*
X156682380Y-99671428D01*
X156682380Y-99480952D01*
X156634761Y-99385714D01*
X156587142Y-99338095D01*
X156491904Y-99290476D01*
X156253809Y-99290476D01*
X156158571Y-99338095D01*
X156110952Y-99385714D01*
X156063333Y-99480952D01*
X156063333Y-99671428D01*
X156110952Y-99766666D01*
X156158571Y-99814285D01*
X156253809Y-99861904D01*
X155682380Y-98385714D02*
X155682380Y-98861904D01*
X156158571Y-98909523D01*
X156110952Y-98861904D01*
X156063333Y-98766666D01*
X156063333Y-98528571D01*
X156110952Y-98433333D01*
X156158571Y-98385714D01*
X156253809Y-98338095D01*
X156491904Y-98338095D01*
X156587142Y-98385714D01*
X156634761Y-98433333D01*
X156682380Y-98528571D01*
X156682380Y-98766666D01*
X156634761Y-98861904D01*
X156587142Y-98909523D01*
%TO.C,PTC1*%
X163650952Y-55322380D02*
X163650952Y-54322380D01*
X164031904Y-54322380D01*
X164127142Y-54370000D01*
X164174761Y-54417619D01*
X164222380Y-54512857D01*
X164222380Y-54655714D01*
X164174761Y-54750952D01*
X164127142Y-54798571D01*
X164031904Y-54846190D01*
X163650952Y-54846190D01*
X164508095Y-54322380D02*
X165079523Y-54322380D01*
X164793809Y-55322380D02*
X164793809Y-54322380D01*
X165984285Y-55227142D02*
X165936666Y-55274761D01*
X165793809Y-55322380D01*
X165698571Y-55322380D01*
X165555714Y-55274761D01*
X165460476Y-55179523D01*
X165412857Y-55084285D01*
X165365238Y-54893809D01*
X165365238Y-54750952D01*
X165412857Y-54560476D01*
X165460476Y-54465238D01*
X165555714Y-54370000D01*
X165698571Y-54322380D01*
X165793809Y-54322380D01*
X165936666Y-54370000D01*
X165984285Y-54417619D01*
X166936666Y-55322380D02*
X166365238Y-55322380D01*
X166650952Y-55322380D02*
X166650952Y-54322380D01*
X166555714Y-54465238D01*
X166460476Y-54560476D01*
X166365238Y-54608095D01*
%TO.C,R56*%
X116202380Y-103632857D02*
X115726190Y-103966190D01*
X116202380Y-104204285D02*
X115202380Y-104204285D01*
X115202380Y-103823333D01*
X115250000Y-103728095D01*
X115297619Y-103680476D01*
X115392857Y-103632857D01*
X115535714Y-103632857D01*
X115630952Y-103680476D01*
X115678571Y-103728095D01*
X115726190Y-103823333D01*
X115726190Y-104204285D01*
X115202380Y-102728095D02*
X115202380Y-103204285D01*
X115678571Y-103251904D01*
X115630952Y-103204285D01*
X115583333Y-103109047D01*
X115583333Y-102870952D01*
X115630952Y-102775714D01*
X115678571Y-102728095D01*
X115773809Y-102680476D01*
X116011904Y-102680476D01*
X116107142Y-102728095D01*
X116154761Y-102775714D01*
X116202380Y-102870952D01*
X116202380Y-103109047D01*
X116154761Y-103204285D01*
X116107142Y-103251904D01*
X115202380Y-101823333D02*
X115202380Y-102013809D01*
X115250000Y-102109047D01*
X115297619Y-102156666D01*
X115440476Y-102251904D01*
X115630952Y-102299523D01*
X116011904Y-102299523D01*
X116107142Y-102251904D01*
X116154761Y-102204285D01*
X116202380Y-102109047D01*
X116202380Y-101918571D01*
X116154761Y-101823333D01*
X116107142Y-101775714D01*
X116011904Y-101728095D01*
X115773809Y-101728095D01*
X115678571Y-101775714D01*
X115630952Y-101823333D01*
X115583333Y-101918571D01*
X115583333Y-102109047D01*
X115630952Y-102204285D01*
X115678571Y-102251904D01*
X115773809Y-102299523D01*
%TO.C,C36*%
X188577142Y-71952857D02*
X188624761Y-72000476D01*
X188672380Y-72143333D01*
X188672380Y-72238571D01*
X188624761Y-72381428D01*
X188529523Y-72476666D01*
X188434285Y-72524285D01*
X188243809Y-72571904D01*
X188100952Y-72571904D01*
X187910476Y-72524285D01*
X187815238Y-72476666D01*
X187720000Y-72381428D01*
X187672380Y-72238571D01*
X187672380Y-72143333D01*
X187720000Y-72000476D01*
X187767619Y-71952857D01*
X187672380Y-71619523D02*
X187672380Y-71000476D01*
X188053333Y-71333809D01*
X188053333Y-71190952D01*
X188100952Y-71095714D01*
X188148571Y-71048095D01*
X188243809Y-71000476D01*
X188481904Y-71000476D01*
X188577142Y-71048095D01*
X188624761Y-71095714D01*
X188672380Y-71190952D01*
X188672380Y-71476666D01*
X188624761Y-71571904D01*
X188577142Y-71619523D01*
X187672380Y-70143333D02*
X187672380Y-70333809D01*
X187720000Y-70429047D01*
X187767619Y-70476666D01*
X187910476Y-70571904D01*
X188100952Y-70619523D01*
X188481904Y-70619523D01*
X188577142Y-70571904D01*
X188624761Y-70524285D01*
X188672380Y-70429047D01*
X188672380Y-70238571D01*
X188624761Y-70143333D01*
X188577142Y-70095714D01*
X188481904Y-70048095D01*
X188243809Y-70048095D01*
X188148571Y-70095714D01*
X188100952Y-70143333D01*
X188053333Y-70238571D01*
X188053333Y-70429047D01*
X188100952Y-70524285D01*
X188148571Y-70571904D01*
X188243809Y-70619523D01*
%TO.C,D11*%
X186092380Y-105284285D02*
X185092380Y-105284285D01*
X185092380Y-105046190D01*
X185140000Y-104903333D01*
X185235238Y-104808095D01*
X185330476Y-104760476D01*
X185520952Y-104712857D01*
X185663809Y-104712857D01*
X185854285Y-104760476D01*
X185949523Y-104808095D01*
X186044761Y-104903333D01*
X186092380Y-105046190D01*
X186092380Y-105284285D01*
X186092380Y-103760476D02*
X186092380Y-104331904D01*
X186092380Y-104046190D02*
X185092380Y-104046190D01*
X185235238Y-104141428D01*
X185330476Y-104236666D01*
X185378095Y-104331904D01*
X186092380Y-102808095D02*
X186092380Y-103379523D01*
X186092380Y-103093809D02*
X185092380Y-103093809D01*
X185235238Y-103189047D01*
X185330476Y-103284285D01*
X185378095Y-103379523D01*
%TO.C,R7*%
X115402380Y-80966666D02*
X114926190Y-81300000D01*
X115402380Y-81538095D02*
X114402380Y-81538095D01*
X114402380Y-81157142D01*
X114450000Y-81061904D01*
X114497619Y-81014285D01*
X114592857Y-80966666D01*
X114735714Y-80966666D01*
X114830952Y-81014285D01*
X114878571Y-81061904D01*
X114926190Y-81157142D01*
X114926190Y-81538095D01*
X114402380Y-80633333D02*
X114402380Y-79966666D01*
X115402380Y-80395238D01*
%TO.C,D3*%
X120576874Y-83496342D02*
X120576874Y-82496342D01*
X120814970Y-82496342D01*
X120957827Y-82543962D01*
X121053065Y-82639200D01*
X121100684Y-82734438D01*
X121148303Y-82924914D01*
X121148303Y-83067771D01*
X121100684Y-83258247D01*
X121053065Y-83353485D01*
X120957827Y-83448723D01*
X120814970Y-83496342D01*
X120576874Y-83496342D01*
X121481636Y-82496342D02*
X122100684Y-82496342D01*
X121767350Y-82877295D01*
X121910208Y-82877295D01*
X122005446Y-82924914D01*
X122053065Y-82972533D01*
X122100684Y-83067771D01*
X122100684Y-83305866D01*
X122053065Y-83401104D01*
X122005446Y-83448723D01*
X121910208Y-83496342D01*
X121624493Y-83496342D01*
X121529255Y-83448723D01*
X121481636Y-83401104D01*
D12*
%TO.C,P3*%
X107740000Y-101570000D02*
X107740000Y-98570000D01*
X108140000Y-101570000D02*
X107740000Y-101570000D01*
X107740000Y-98570000D02*
X108140000Y-98570000D01*
X102940000Y-104170000D02*
X108140000Y-104170000D01*
X108140000Y-104170000D02*
X108140000Y-95970000D01*
X108140000Y-95970000D02*
X102940000Y-95970000D01*
X102940000Y-95970000D02*
X102940000Y-104170000D01*
%TO.C,C3*%
X120542152Y-77033382D02*
X120542152Y-77314542D01*
X121562152Y-77033382D02*
X121562152Y-77314542D01*
%TO.C,C21*%
X111375000Y-101934420D02*
X111375000Y-102215580D01*
X110355000Y-101934420D02*
X110355000Y-102215580D01*
%TO.C,R64*%
X168247658Y-96769582D02*
X167773142Y-96769582D01*
X168247658Y-95724582D02*
X167773142Y-95724582D01*
D13*
%TO.C,D2*%
X130602001Y-66513000D02*
X124757999Y-66513000D01*
X124757999Y-70047740D02*
X124757999Y-70707000D01*
X130602001Y-67172260D02*
X130602001Y-66513000D01*
X124757999Y-66513000D02*
X124757999Y-67172260D01*
X130602001Y-70707000D02*
X130602001Y-70047740D01*
X124757999Y-70707000D02*
X130602001Y-70707000D01*
D12*
%TO.C,C17*%
X148825000Y-108314420D02*
X148825000Y-108595580D01*
X149845000Y-108314420D02*
X149845000Y-108595580D01*
%TO.C,R54*%
X112997742Y-108722500D02*
X113472258Y-108722500D01*
X112997742Y-109767500D02*
X113472258Y-109767500D01*
%TO.C,D7*%
X165100000Y-52550000D02*
X163250000Y-52550000D01*
X165100000Y-53750000D02*
X163250000Y-53750000D01*
X163250000Y-52550000D02*
X163250000Y-53750000D01*
%TO.C,G\u002A\u002A\u002A*%
G36*
X151115425Y-111088954D02*
G01*
X151217297Y-111116772D01*
X151327464Y-111162188D01*
X151360176Y-111177845D01*
X151479413Y-111250703D01*
X151590074Y-111345751D01*
X151683860Y-111455211D01*
X151726801Y-111521443D01*
X151753910Y-111566602D01*
X151775905Y-111599307D01*
X151788238Y-111612825D01*
X151788546Y-111612878D01*
X151795977Y-111599593D01*
X151806370Y-111564263D01*
X151817529Y-111514403D01*
X151817991Y-111512054D01*
X151840842Y-111433929D01*
X151873742Y-111374738D01*
X151913884Y-111338360D01*
X151950984Y-111328268D01*
X151988276Y-111340827D01*
X152024714Y-111371618D01*
X152050242Y-111410315D01*
X152056237Y-111436357D01*
X152052719Y-111460888D01*
X152043032Y-111509632D01*
X152028250Y-111577685D01*
X152009447Y-111660142D01*
X151987696Y-111752099D01*
X151981525Y-111777636D01*
X151953327Y-111891338D01*
X151929720Y-111978989D01*
X151909112Y-112043900D01*
X151889910Y-112089382D01*
X151870522Y-112118746D01*
X151849356Y-112135302D01*
X151824818Y-112142362D01*
X151805587Y-112143428D01*
X151773577Y-112134358D01*
X151717766Y-112107180D01*
X151638242Y-112061943D01*
X151535095Y-111998694D01*
X151508445Y-111981862D01*
X151402561Y-111913947D01*
X151320394Y-111858929D01*
X151259835Y-111814423D01*
X151218776Y-111778048D01*
X151195110Y-111747419D01*
X151186729Y-111720154D01*
X151191524Y-111693870D01*
X151207388Y-111666183D01*
X151217401Y-111652855D01*
X151249578Y-111623663D01*
X151288213Y-111613416D01*
X151337235Y-111622694D01*
X151400579Y-111652079D01*
X151461947Y-111689004D01*
X151514072Y-111720919D01*
X151556515Y-111744134D01*
X151583283Y-111755510D01*
X151589133Y-111755604D01*
X151588924Y-111736323D01*
X151573424Y-111699847D01*
X151546357Y-111652192D01*
X151511448Y-111599373D01*
X151472423Y-111547406D01*
X151433005Y-111502308D01*
X151431057Y-111500307D01*
X151344212Y-111427290D01*
X151239106Y-111364461D01*
X151236797Y-111363315D01*
X151186876Y-111339109D01*
X151147843Y-111322867D01*
X151111470Y-111313000D01*
X151069529Y-111307920D01*
X151013792Y-111306037D01*
X150938757Y-111305764D01*
X150861721Y-111306069D01*
X150806484Y-111308034D01*
X150764838Y-111313234D01*
X150728576Y-111323242D01*
X150689490Y-111339632D01*
X150641993Y-111362685D01*
X150514449Y-111440557D01*
X150411001Y-111536278D01*
X150331465Y-111650068D01*
X150275657Y-111782143D01*
X150268582Y-111806195D01*
X150244363Y-111946367D01*
X150248703Y-112083643D01*
X150280159Y-112214897D01*
X150337284Y-112337002D01*
X150418634Y-112446832D01*
X150522763Y-112541260D01*
X150641993Y-112614111D01*
X150691544Y-112638112D01*
X150730403Y-112654194D01*
X150766815Y-112663941D01*
X150809025Y-112668939D01*
X150865277Y-112670775D01*
X150937979Y-112671032D01*
X151118792Y-112671032D01*
X151246878Y-112607270D01*
X151319393Y-112572713D01*
X151371674Y-112552683D01*
X151409320Y-112546448D01*
X151437931Y-112553274D01*
X151463107Y-112572429D01*
X151468747Y-112578231D01*
X151496801Y-112627443D01*
X151496478Y-112681327D01*
X151477781Y-112720535D01*
X151437155Y-112758999D01*
X151372782Y-112796822D01*
X151290889Y-112831916D01*
X151197699Y-112862193D01*
X151099439Y-112885566D01*
X151002334Y-112899947D01*
X150932008Y-112903578D01*
X150775835Y-112889038D01*
X150625477Y-112847079D01*
X150484340Y-112780188D01*
X150355826Y-112690855D01*
X150243342Y-112581569D01*
X150150292Y-112454818D01*
X150080081Y-112313092D01*
X150064418Y-112269363D01*
X150039198Y-112165247D01*
X150025413Y-112048251D01*
X150023764Y-111930815D01*
X150034952Y-111825377D01*
X150038444Y-111808362D01*
X150064741Y-111706834D01*
X150095778Y-111622549D01*
X150136767Y-111542749D01*
X150167060Y-111493643D01*
X150269610Y-111360921D01*
X150389412Y-111252517D01*
X150525112Y-111169207D01*
X150675359Y-111111767D01*
X150838800Y-111080971D01*
X150893843Y-111076862D01*
X151011168Y-111076422D01*
X151115425Y-111088954D01*
G37*
%TO.C,R33*%
X151702742Y-103302500D02*
X152177258Y-103302500D01*
X151702742Y-102257500D02*
X152177258Y-102257500D01*
D14*
%TO.C,ENC1*%
X130190000Y-96882500D02*
X130190000Y-100262500D01*
X127710000Y-96882500D02*
X130190000Y-96882500D01*
X122710000Y-96882500D02*
X125270000Y-96882500D01*
X120270000Y-110282500D02*
X117790000Y-110282500D01*
X117790000Y-96882500D02*
X120270000Y-96882500D01*
X130190000Y-110282500D02*
X130190000Y-106902500D01*
X117790000Y-110282500D02*
X117790000Y-106902500D01*
X130190000Y-110282500D02*
X127710000Y-110282500D01*
X117790000Y-100262500D02*
X117790000Y-96882500D01*
D12*
%TO.C,R45*%
X176457258Y-54562500D02*
X175982742Y-54562500D01*
X176457258Y-53517500D02*
X175982742Y-53517500D01*
%TO.C,C42*%
X190240000Y-68144420D02*
X190240000Y-68425580D01*
X189220000Y-68144420D02*
X189220000Y-68425580D01*
D14*
%TO.C,ENC2*%
X133030000Y-96880000D02*
X135510000Y-96880000D01*
X145430000Y-96880000D02*
X145430000Y-100260000D01*
X145430000Y-110280000D02*
X142950000Y-110280000D01*
X142950000Y-96880000D02*
X145430000Y-96880000D01*
X133030000Y-100260000D02*
X133030000Y-96880000D01*
X135510000Y-110280000D02*
X133030000Y-110280000D01*
X145430000Y-110280000D02*
X145430000Y-106900000D01*
X133030000Y-110280000D02*
X133030000Y-106900000D01*
X137950000Y-96880000D02*
X140510000Y-96880000D01*
D12*
%TO.C,R74*%
X184247658Y-96797500D02*
X183773142Y-96797500D01*
X184247658Y-95752500D02*
X183773142Y-95752500D01*
D13*
%TO.C,F1*%
X124988800Y-71611800D02*
X124988800Y-78368200D01*
X128951200Y-78368200D02*
X128951200Y-71611800D01*
D12*
%TO.C,R47*%
X179347258Y-57247500D02*
X178872742Y-57247500D01*
X179347258Y-58292500D02*
X178872742Y-58292500D01*
D14*
%TO.C,SW1*%
X108530000Y-105070000D02*
X106750000Y-105070000D01*
X102530000Y-95070000D02*
X104310000Y-95070000D01*
X102530000Y-105070000D02*
X104310000Y-105070000D01*
X102530000Y-105070000D02*
X102530000Y-95070000D01*
X106750000Y-95070000D02*
X108530000Y-95070000D01*
X108530000Y-95070000D02*
X108530000Y-105070000D01*
D12*
%TO.C,R46*%
X170427258Y-58292500D02*
X169952742Y-58292500D01*
X170427258Y-57247500D02*
X169952742Y-57247500D01*
%TO.C,C8*%
X113974970Y-77048382D02*
X113974970Y-77329542D01*
X112954970Y-77048382D02*
X112954970Y-77329542D01*
%TO.C,D9*%
X160160000Y-52540000D02*
X160160000Y-53740000D01*
X162010000Y-52540000D02*
X160160000Y-52540000D01*
X162010000Y-53740000D02*
X160160000Y-53740000D01*
%TO.C,G\u002A\u002A\u002A*%
G36*
X192182867Y-103140539D02*
G01*
X192187035Y-103145694D01*
X192190018Y-103152208D01*
X192193286Y-103163392D01*
X192196918Y-103179838D01*
X192200996Y-103202137D01*
X192205599Y-103230884D01*
X192210808Y-103266669D01*
X192216704Y-103310086D01*
X192223365Y-103361727D01*
X192230873Y-103422183D01*
X192239309Y-103492048D01*
X192248751Y-103571913D01*
X192259282Y-103662371D01*
X192270980Y-103764015D01*
X192271566Y-103769126D01*
X192279341Y-103836742D01*
X192286759Y-103900733D01*
X192293705Y-103960147D01*
X192300067Y-104014034D01*
X192305730Y-104061445D01*
X192310580Y-104101428D01*
X192314503Y-104133034D01*
X192317385Y-104155312D01*
X192319112Y-104167311D01*
X192319545Y-104169183D01*
X192320959Y-104163018D01*
X192323869Y-104146778D01*
X192328000Y-104122127D01*
X192333076Y-104090731D01*
X192338823Y-104054252D01*
X192342368Y-104031338D01*
X192350134Y-103981518D01*
X192356597Y-103942085D01*
X192362073Y-103911665D01*
X192366878Y-103888884D01*
X192371328Y-103872367D01*
X192375741Y-103860740D01*
X192380433Y-103852631D01*
X192384663Y-103847688D01*
X192397946Y-103841785D01*
X192413664Y-103845524D01*
X192428575Y-103858118D01*
X192428781Y-103858377D01*
X192433330Y-103863313D01*
X192436744Y-103863445D01*
X192439775Y-103857093D01*
X192443174Y-103842581D01*
X192447691Y-103818231D01*
X192448319Y-103814709D01*
X192457974Y-103761193D01*
X192466134Y-103718275D01*
X192473188Y-103684833D01*
X192479526Y-103659746D01*
X192485539Y-103641891D01*
X192491615Y-103630145D01*
X192498145Y-103623387D01*
X192505518Y-103620493D01*
X192514125Y-103620342D01*
X192515778Y-103620513D01*
X192526095Y-103623803D01*
X192534885Y-103631951D01*
X192542644Y-103646256D01*
X192549872Y-103668020D01*
X192557066Y-103698545D01*
X192564723Y-103739131D01*
X192567602Y-103755936D01*
X192575808Y-103803568D01*
X192582633Y-103840383D01*
X192588293Y-103867327D01*
X192593007Y-103885346D01*
X192596992Y-103895387D01*
X192600363Y-103898400D01*
X192605759Y-103893707D01*
X192614491Y-103881693D01*
X192620524Y-103871961D01*
X192637346Y-103847322D01*
X192654152Y-103832937D01*
X192673087Y-103828289D01*
X192696297Y-103832864D01*
X192725927Y-103846145D01*
X192726530Y-103846460D01*
X192763461Y-103865752D01*
X193253178Y-103865752D01*
X193253178Y-103881334D01*
X193250866Y-103892964D01*
X193241632Y-103898913D01*
X193234628Y-103900626D01*
X193222169Y-103901857D01*
X193199576Y-103902832D01*
X193168585Y-103903560D01*
X193130931Y-103904049D01*
X193088350Y-103904307D01*
X193042577Y-103904344D01*
X192995348Y-103904168D01*
X192948398Y-103903789D01*
X192903462Y-103903214D01*
X192862276Y-103902454D01*
X192826576Y-103901515D01*
X192798096Y-103900408D01*
X192778573Y-103899141D01*
X192771769Y-103898287D01*
X192746666Y-103891597D01*
X192720739Y-103881817D01*
X192711709Y-103877511D01*
X192694913Y-103869228D01*
X192682246Y-103863886D01*
X192678065Y-103862784D01*
X192672536Y-103867567D01*
X192663513Y-103880050D01*
X192653922Y-103895856D01*
X192638780Y-103918779D01*
X192623547Y-103932813D01*
X192614210Y-103937722D01*
X192599216Y-103942379D01*
X192586589Y-103942034D01*
X192575805Y-103935707D01*
X192566344Y-103922419D01*
X192557682Y-103901189D01*
X192549297Y-103871039D01*
X192540666Y-103830988D01*
X192531824Y-103783216D01*
X192526470Y-103753460D01*
X192521723Y-103728195D01*
X192518003Y-103709571D01*
X192515730Y-103699737D01*
X192515352Y-103698768D01*
X192513743Y-103703461D01*
X192510808Y-103717651D01*
X192506976Y-103739094D01*
X192502996Y-103763495D01*
X192494727Y-103812683D01*
X192486969Y-103851002D01*
X192479456Y-103879429D01*
X192471923Y-103898943D01*
X192464106Y-103910520D01*
X192462900Y-103911627D01*
X192453582Y-103917947D01*
X192444187Y-103918283D01*
X192430287Y-103913305D01*
X192415850Y-103908382D01*
X192408920Y-103909448D01*
X192407512Y-103911949D01*
X192405534Y-103920281D01*
X192402565Y-103935955D01*
X192398476Y-103959747D01*
X192393140Y-103992432D01*
X192386429Y-104034785D01*
X192378216Y-104087583D01*
X192371700Y-104129902D01*
X192364207Y-104178364D01*
X192358117Y-104216449D01*
X192353102Y-104245525D01*
X192348835Y-104266960D01*
X192344987Y-104282122D01*
X192341230Y-104292380D01*
X192337237Y-104299100D01*
X192332678Y-104303652D01*
X192329481Y-104305946D01*
X192318145Y-104310848D01*
X192307964Y-104306889D01*
X192307227Y-104306358D01*
X192303878Y-104302954D01*
X192300679Y-104297263D01*
X192297508Y-104288467D01*
X192294243Y-104275751D01*
X192290766Y-104258299D01*
X192286953Y-104235293D01*
X192282685Y-104205917D01*
X192277841Y-104169355D01*
X192272299Y-104124790D01*
X192265938Y-104071406D01*
X192258638Y-104008387D01*
X192250278Y-103934915D01*
X192244153Y-103880592D01*
X192232405Y-103776476D01*
X192221846Y-103683678D01*
X192212414Y-103601713D01*
X192204045Y-103530092D01*
X192196677Y-103468330D01*
X192190246Y-103415938D01*
X192184691Y-103372430D01*
X192179948Y-103337319D01*
X192175954Y-103310118D01*
X192172647Y-103290341D01*
X192169963Y-103277499D01*
X192167841Y-103271107D01*
X192166217Y-103270676D01*
X192165668Y-103272155D01*
X192163830Y-103281845D01*
X192160571Y-103301919D01*
X192156098Y-103331001D01*
X192150615Y-103367715D01*
X192144326Y-103410685D01*
X192137437Y-103458536D01*
X192130153Y-103509890D01*
X192128109Y-103524434D01*
X192116226Y-103607830D01*
X192105531Y-103679972D01*
X192095924Y-103741409D01*
X192087308Y-103792689D01*
X192079581Y-103834360D01*
X192072644Y-103866971D01*
X192066398Y-103891069D01*
X192060743Y-103907203D01*
X192057452Y-103913506D01*
X192043862Y-103925519D01*
X192027473Y-103926845D01*
X192010784Y-103917422D01*
X192008074Y-103914723D01*
X192000676Y-103903106D01*
X191991637Y-103883539D01*
X191982500Y-103859512D01*
X191979162Y-103849428D01*
X191971580Y-103826705D01*
X191964925Y-103809030D01*
X191960182Y-103798920D01*
X191958815Y-103797488D01*
X191955641Y-103802813D01*
X191950467Y-103817058D01*
X191944190Y-103837631D01*
X191941219Y-103848357D01*
X191930224Y-103883708D01*
X191918949Y-103908135D01*
X191906798Y-103922581D01*
X191893178Y-103927989D01*
X191890971Y-103928079D01*
X191877883Y-103923239D01*
X191862458Y-103910547D01*
X191847711Y-103892748D01*
X191841861Y-103883381D01*
X191837732Y-103879664D01*
X191829721Y-103879390D01*
X191815447Y-103882904D01*
X191792770Y-103890465D01*
X191748411Y-103906005D01*
X191522844Y-103906654D01*
X191459222Y-103906839D01*
X191406458Y-103906941D01*
X191363536Y-103906883D01*
X191329442Y-103906587D01*
X191303162Y-103905975D01*
X191283681Y-103904969D01*
X191269985Y-103903491D01*
X191261058Y-103901463D01*
X191255886Y-103898807D01*
X191253455Y-103895446D01*
X191252751Y-103891300D01*
X191252758Y-103886293D01*
X191252758Y-103868720D01*
X191493312Y-103868720D01*
X191553357Y-103868694D01*
X191602767Y-103868581D01*
X191642780Y-103868323D01*
X191674635Y-103867866D01*
X191699568Y-103867153D01*
X191718817Y-103866128D01*
X191733620Y-103864735D01*
X191745215Y-103862919D01*
X191754838Y-103860623D01*
X191763728Y-103857792D01*
X191767851Y-103856317D01*
X191800347Y-103845060D01*
X191824153Y-103838756D01*
X191841403Y-103837488D01*
X191854234Y-103841338D01*
X191864781Y-103850391D01*
X191872290Y-103860367D01*
X191886166Y-103880787D01*
X191899663Y-103830562D01*
X191910851Y-103793686D01*
X191921994Y-103767402D01*
X191933801Y-103750453D01*
X191946979Y-103741584D01*
X191950378Y-103740530D01*
X191965766Y-103740759D01*
X191979560Y-103750206D01*
X191992400Y-103769659D01*
X192004928Y-103799908D01*
X192009333Y-103813113D01*
X192016714Y-103835100D01*
X192022984Y-103851611D01*
X192027208Y-103860280D01*
X192028246Y-103860949D01*
X192031080Y-103852995D01*
X192035308Y-103833592D01*
X192040876Y-103803075D01*
X192047732Y-103761779D01*
X192055821Y-103710037D01*
X192065089Y-103648185D01*
X192075483Y-103576558D01*
X192086949Y-103495489D01*
X192087005Y-103495086D01*
X192097094Y-103423350D01*
X192105799Y-103362440D01*
X192113277Y-103311410D01*
X192119689Y-103269314D01*
X192125191Y-103235207D01*
X192129944Y-103208143D01*
X192134105Y-103187177D01*
X192137834Y-103171363D01*
X192141289Y-103159756D01*
X192144628Y-103151410D01*
X192144698Y-103151263D01*
X192155845Y-103137653D01*
X192169606Y-103133942D01*
X192182867Y-103140539D01*
G37*
D15*
X192182867Y-103140539D02*
X192187035Y-103145694D01*
X192190018Y-103152208D01*
X192193286Y-103163392D01*
X192196918Y-103179838D01*
X192200996Y-103202137D01*
X192205599Y-103230884D01*
X192210808Y-103266669D01*
X192216704Y-103310086D01*
X192223365Y-103361727D01*
X192230873Y-103422183D01*
X192239309Y-103492048D01*
X192248751Y-103571913D01*
X192259282Y-103662371D01*
X192270980Y-103764015D01*
X192271566Y-103769126D01*
X192279341Y-103836742D01*
X192286759Y-103900733D01*
X192293705Y-103960147D01*
X192300067Y-104014034D01*
X192305730Y-104061445D01*
X192310580Y-104101428D01*
X192314503Y-104133034D01*
X192317385Y-104155312D01*
X192319112Y-104167311D01*
X192319545Y-104169183D01*
X192320959Y-104163018D01*
X192323869Y-104146778D01*
X192328000Y-104122127D01*
X192333076Y-104090731D01*
X192338823Y-104054252D01*
X192342368Y-104031338D01*
X192350134Y-103981518D01*
X192356597Y-103942085D01*
X192362073Y-103911665D01*
X192366878Y-103888884D01*
X192371328Y-103872367D01*
X192375741Y-103860740D01*
X192380433Y-103852631D01*
X192384663Y-103847688D01*
X192397946Y-103841785D01*
X192413664Y-103845524D01*
X192428575Y-103858118D01*
X192428781Y-103858377D01*
X192433330Y-103863313D01*
X192436744Y-103863445D01*
X192439775Y-103857093D01*
X192443174Y-103842581D01*
X192447691Y-103818231D01*
X192448319Y-103814709D01*
X192457974Y-103761193D01*
X192466134Y-103718275D01*
X192473188Y-103684833D01*
X192479526Y-103659746D01*
X192485539Y-103641891D01*
X192491615Y-103630145D01*
X192498145Y-103623387D01*
X192505518Y-103620493D01*
X192514125Y-103620342D01*
X192515778Y-103620513D01*
X192526095Y-103623803D01*
X192534885Y-103631951D01*
X192542644Y-103646256D01*
X192549872Y-103668020D01*
X192557066Y-103698545D01*
X192564723Y-103739131D01*
X192567602Y-103755936D01*
X192575808Y-103803568D01*
X192582633Y-103840383D01*
X192588293Y-103867327D01*
X192593007Y-103885346D01*
X192596992Y-103895387D01*
X192600363Y-103898400D01*
X192605759Y-103893707D01*
X192614491Y-103881693D01*
X192620524Y-103871961D01*
X192637346Y-103847322D01*
X192654152Y-103832937D01*
X192673087Y-103828289D01*
X192696297Y-103832864D01*
X192725927Y-103846145D01*
X192726530Y-103846460D01*
X192763461Y-103865752D01*
X193253178Y-103865752D01*
X193253178Y-103881334D01*
X193250866Y-103892964D01*
X193241632Y-103898913D01*
X193234628Y-103900626D01*
X193222169Y-103901857D01*
X193199576Y-103902832D01*
X193168585Y-103903560D01*
X193130931Y-103904049D01*
X193088350Y-103904307D01*
X193042577Y-103904344D01*
X192995348Y-103904168D01*
X192948398Y-103903789D01*
X192903462Y-103903214D01*
X192862276Y-103902454D01*
X192826576Y-103901515D01*
X192798096Y-103900408D01*
X192778573Y-103899141D01*
X192771769Y-103898287D01*
X192746666Y-103891597D01*
X192720739Y-103881817D01*
X192711709Y-103877511D01*
X192694913Y-103869228D01*
X192682246Y-103863886D01*
X192678065Y-103862784D01*
X192672536Y-103867567D01*
X192663513Y-103880050D01*
X192653922Y-103895856D01*
X192638780Y-103918779D01*
X192623547Y-103932813D01*
X192614210Y-103937722D01*
X192599216Y-103942379D01*
X192586589Y-103942034D01*
X192575805Y-103935707D01*
X192566344Y-103922419D01*
X192557682Y-103901189D01*
X192549297Y-103871039D01*
X192540666Y-103830988D01*
X192531824Y-103783216D01*
X192526470Y-103753460D01*
X192521723Y-103728195D01*
X192518003Y-103709571D01*
X192515730Y-103699737D01*
X192515352Y-103698768D01*
X192513743Y-103703461D01*
X192510808Y-103717651D01*
X192506976Y-103739094D01*
X192502996Y-103763495D01*
X192494727Y-103812683D01*
X192486969Y-103851002D01*
X192479456Y-103879429D01*
X192471923Y-103898943D01*
X192464106Y-103910520D01*
X192462900Y-103911627D01*
X192453582Y-103917947D01*
X192444187Y-103918283D01*
X192430287Y-103913305D01*
X192415850Y-103908382D01*
X192408920Y-103909448D01*
X192407512Y-103911949D01*
X192405534Y-103920281D01*
X192402565Y-103935955D01*
X192398476Y-103959747D01*
X192393140Y-103992432D01*
X192386429Y-104034785D01*
X192378216Y-104087583D01*
X192371700Y-104129902D01*
X192364207Y-104178364D01*
X192358117Y-104216449D01*
X192353102Y-104245525D01*
X192348835Y-104266960D01*
X192344987Y-104282122D01*
X192341230Y-104292380D01*
X192337237Y-104299100D01*
X192332678Y-104303652D01*
X192329481Y-104305946D01*
X192318145Y-104310848D01*
X192307964Y-104306889D01*
X192307227Y-104306358D01*
X192303878Y-104302954D01*
X192300679Y-104297263D01*
X192297508Y-104288467D01*
X192294243Y-104275751D01*
X192290766Y-104258299D01*
X192286953Y-104235293D01*
X192282685Y-104205917D01*
X192277841Y-104169355D01*
X192272299Y-104124790D01*
X192265938Y-104071406D01*
X192258638Y-104008387D01*
X192250278Y-103934915D01*
X192244153Y-103880592D01*
X192232405Y-103776476D01*
X192221846Y-103683678D01*
X192212414Y-103601713D01*
X192204045Y-103530092D01*
X192196677Y-103468330D01*
X192190246Y-103415938D01*
X192184691Y-103372430D01*
X192179948Y-103337319D01*
X192175954Y-103310118D01*
X192172647Y-103290341D01*
X192169963Y-103277499D01*
X192167841Y-103271107D01*
X192166217Y-103270676D01*
X192165668Y-103272155D01*
X192163830Y-103281845D01*
X192160571Y-103301919D01*
X192156098Y-103331001D01*
X192150615Y-103367715D01*
X192144326Y-103410685D01*
X192137437Y-103458536D01*
X192130153Y-103509890D01*
X192128109Y-103524434D01*
X192116226Y-103607830D01*
X192105531Y-103679972D01*
X192095924Y-103741409D01*
X192087308Y-103792689D01*
X192079581Y-103834360D01*
X192072644Y-103866971D01*
X192066398Y-103891069D01*
X192060743Y-103907203D01*
X192057452Y-103913506D01*
X192043862Y-103925519D01*
X192027473Y-103926845D01*
X192010784Y-103917422D01*
X192008074Y-103914723D01*
X192000676Y-103903106D01*
X191991637Y-103883539D01*
X191982500Y-103859512D01*
X191979162Y-103849428D01*
X191971580Y-103826705D01*
X191964925Y-103809030D01*
X191960182Y-103798920D01*
X191958815Y-103797488D01*
X191955641Y-103802813D01*
X191950467Y-103817058D01*
X191944190Y-103837631D01*
X191941219Y-103848357D01*
X191930224Y-103883708D01*
X191918949Y-103908135D01*
X191906798Y-103922581D01*
X191893178Y-103927989D01*
X191890971Y-103928079D01*
X191877883Y-103923239D01*
X191862458Y-103910547D01*
X191847711Y-103892748D01*
X191841861Y-103883381D01*
X191837732Y-103879664D01*
X191829721Y-103879390D01*
X191815447Y-103882904D01*
X191792770Y-103890465D01*
X191748411Y-103906005D01*
X191522844Y-103906654D01*
X191459222Y-103906839D01*
X191406458Y-103906941D01*
X191363536Y-103906883D01*
X191329442Y-103906587D01*
X191303162Y-103905975D01*
X191283681Y-103904969D01*
X191269985Y-103903491D01*
X191261058Y-103901463D01*
X191255886Y-103898807D01*
X191253455Y-103895446D01*
X191252751Y-103891300D01*
X191252758Y-103886293D01*
X191252758Y-103868720D01*
X191493312Y-103868720D01*
X191553357Y-103868694D01*
X191602767Y-103868581D01*
X191642780Y-103868323D01*
X191674635Y-103867866D01*
X191699568Y-103867153D01*
X191718817Y-103866128D01*
X191733620Y-103864735D01*
X191745215Y-103862919D01*
X191754838Y-103860623D01*
X191763728Y-103857792D01*
X191767851Y-103856317D01*
X191800347Y-103845060D01*
X191824153Y-103838756D01*
X191841403Y-103837488D01*
X191854234Y-103841338D01*
X191864781Y-103850391D01*
X191872290Y-103860367D01*
X191886166Y-103880787D01*
X191899663Y-103830562D01*
X191910851Y-103793686D01*
X191921994Y-103767402D01*
X191933801Y-103750453D01*
X191946979Y-103741584D01*
X191950378Y-103740530D01*
X191965766Y-103740759D01*
X191979560Y-103750206D01*
X191992400Y-103769659D01*
X192004928Y-103799908D01*
X192009333Y-103813113D01*
X192016714Y-103835100D01*
X192022984Y-103851611D01*
X192027208Y-103860280D01*
X192028246Y-103860949D01*
X192031080Y-103852995D01*
X192035308Y-103833592D01*
X192040876Y-103803075D01*
X192047732Y-103761779D01*
X192055821Y-103710037D01*
X192065089Y-103648185D01*
X192075483Y-103576558D01*
X192086949Y-103495489D01*
X192087005Y-103495086D01*
X192097094Y-103423350D01*
X192105799Y-103362440D01*
X192113277Y-103311410D01*
X192119689Y-103269314D01*
X192125191Y-103235207D01*
X192129944Y-103208143D01*
X192134105Y-103187177D01*
X192137834Y-103171363D01*
X192141289Y-103159756D01*
X192144628Y-103151410D01*
X192144698Y-103151263D01*
X192155845Y-103137653D01*
X192169606Y-103133942D01*
X192182867Y-103140539D01*
D12*
%TO.C,R34*%
X151597742Y-108227500D02*
X152072258Y-108227500D01*
X151597742Y-107182500D02*
X152072258Y-107182500D01*
%TO.C,D16*%
X110430000Y-100350000D02*
X114280000Y-100350000D01*
X110430000Y-98350000D02*
X110430000Y-100350000D01*
X110430000Y-98350000D02*
X114280000Y-98350000D01*
%TO.C,R48*%
X185477258Y-54562500D02*
X185002742Y-54562500D01*
X185477258Y-53517500D02*
X185002742Y-53517500D01*
D14*
%TO.C,P1*%
X117660000Y-71900000D02*
X112120000Y-71900000D01*
X117660000Y-65400000D02*
X117660000Y-71900000D01*
X112120000Y-65400000D02*
X117660000Y-65400000D01*
X112120000Y-71900000D02*
X112120000Y-65400000D01*
D11*
X111470000Y-68650000D02*
G75*
G03*
X111470000Y-68650000I-100000J0D01*
G01*
D12*
%TO.C,R63*%
X111022500Y-69982742D02*
X111022500Y-70457258D01*
X109977500Y-69982742D02*
X109977500Y-70457258D01*
%TO.C,R42*%
X183212742Y-68485000D02*
X183687258Y-68485000D01*
X181552742Y-69520000D02*
X182027258Y-69520000D01*
X183212742Y-69530000D02*
X183687258Y-69530000D01*
X181552742Y-68475000D02*
X182027258Y-68475000D01*
%TO.C,D13*%
X148910000Y-104730000D02*
X148910000Y-106730000D01*
X148910000Y-106730000D02*
X152760000Y-106730000D01*
X148910000Y-104730000D02*
X152760000Y-104730000D01*
D10*
%TO.C,P9*%
X192014999Y-94572999D02*
X192014999Y-44572999D01*
X106010999Y-86314999D02*
X106010999Y-94064999D01*
X145010999Y-44564999D02*
X150160999Y-44564999D01*
X192014999Y-44572999D02*
X152010999Y-44574999D01*
X106010999Y-50614999D02*
X106010999Y-66314999D01*
X106814999Y-87383999D02*
X109180999Y-87383999D01*
X109180999Y-87383999D02*
X109180999Y-51874999D01*
X109180999Y-51874999D02*
X106814999Y-51874999D01*
X106010999Y-66314999D02*
X106010999Y-86314999D01*
X143160999Y-44564999D02*
X106360999Y-44572999D01*
X106814999Y-51874999D02*
X106814999Y-87383999D01*
X106610999Y-94574999D02*
X192014999Y-94572999D01*
X115303235Y-91574999D02*
G75*
G03*
X115303235Y-91574999I-2342236J0D01*
G01*
X191303235Y-91572999D02*
G75*
G03*
X191303235Y-91572999I-2342236J0D01*
G01*
X191303235Y-47572999D02*
G75*
G03*
X191303235Y-47572999I-2342236J0D01*
G01*
X115295284Y-47594999D02*
G75*
G03*
X115295284Y-47594999I-2342236J0D01*
G01*
D12*
%TO.C,R75*%
X173207658Y-95752500D02*
X172733142Y-95752500D01*
X173207658Y-96797500D02*
X172733142Y-96797500D01*
%TO.C,C5*%
X122022152Y-80269542D02*
X122022152Y-79988382D01*
X123042152Y-80269542D02*
X123042152Y-79988382D01*
%TO.C,R8*%
X112497712Y-82896462D02*
X112972228Y-82896462D01*
X112497712Y-81851462D02*
X112972228Y-81851462D01*
%TO.C,D12*%
X149015000Y-98330000D02*
X149015000Y-100330000D01*
X149015000Y-98330000D02*
X152865000Y-98330000D01*
X149015000Y-100330000D02*
X152865000Y-100330000D01*
%TO.C,C37*%
X183590580Y-67015000D02*
X183309420Y-67015000D01*
X183590580Y-68035000D02*
X183309420Y-68035000D01*
%TO.C,R37*%
X151600242Y-108657500D02*
X152074758Y-108657500D01*
X151600242Y-109702500D02*
X152074758Y-109702500D01*
%TO.C,G\u002A\u002A\u002A*%
G36*
X192300603Y-97116568D02*
G01*
X192318571Y-97127632D01*
X192333210Y-97142541D01*
X192342748Y-97160153D01*
X192343717Y-97163270D01*
X192344314Y-97169179D01*
X192344869Y-97182096D01*
X192345380Y-97201496D01*
X192345848Y-97226853D01*
X192346272Y-97257641D01*
X192346654Y-97293336D01*
X192346992Y-97333411D01*
X192347287Y-97377341D01*
X192347539Y-97424601D01*
X192347748Y-97474665D01*
X192347914Y-97527007D01*
X192348036Y-97581103D01*
X192348116Y-97636426D01*
X192348152Y-97692451D01*
X192348145Y-97748652D01*
X192348094Y-97804505D01*
X192348001Y-97859483D01*
X192347864Y-97913061D01*
X192347684Y-97964714D01*
X192347461Y-98013915D01*
X192347195Y-98060141D01*
X192346886Y-98102864D01*
X192346533Y-98141559D01*
X192346138Y-98175702D01*
X192345699Y-98204766D01*
X192345217Y-98228226D01*
X192344692Y-98245557D01*
X192344123Y-98256232D01*
X192343717Y-98259404D01*
X192335351Y-98276771D01*
X192321437Y-98292335D01*
X192303945Y-98304628D01*
X192284846Y-98312180D01*
X192270718Y-98313850D01*
X192262418Y-98312523D01*
X192251160Y-98309405D01*
X192248116Y-98308376D01*
X192232601Y-98299820D01*
X192217969Y-98286523D01*
X192206525Y-98270923D01*
X192201360Y-98258952D01*
X192200795Y-98253165D01*
X192200270Y-98240369D01*
X192199785Y-98221089D01*
X192199340Y-98195851D01*
X192198935Y-98165179D01*
X192198571Y-98129599D01*
X192198247Y-98089634D01*
X192197964Y-98045811D01*
X192197721Y-97998654D01*
X192197518Y-97948688D01*
X192197356Y-97896437D01*
X192197235Y-97842428D01*
X192197154Y-97787185D01*
X192197114Y-97731232D01*
X192197115Y-97675095D01*
X192197157Y-97619299D01*
X192197239Y-97564369D01*
X192197363Y-97510829D01*
X192197527Y-97459205D01*
X192197732Y-97410021D01*
X192197979Y-97363802D01*
X192198266Y-97321074D01*
X192198595Y-97282362D01*
X192198964Y-97248190D01*
X192199375Y-97219083D01*
X192199828Y-97195566D01*
X192200321Y-97178164D01*
X192200857Y-97167402D01*
X192201257Y-97164097D01*
X192210406Y-97144512D01*
X192225331Y-97128020D01*
X192244471Y-97116003D01*
X192261773Y-97110538D01*
X192281080Y-97110490D01*
X192300603Y-97116568D01*
G37*
D16*
X192300603Y-97116568D02*
X192318571Y-97127632D01*
X192333210Y-97142541D01*
X192342748Y-97160153D01*
X192343717Y-97163270D01*
X192344314Y-97169179D01*
X192344869Y-97182096D01*
X192345380Y-97201496D01*
X192345848Y-97226853D01*
X192346272Y-97257641D01*
X192346654Y-97293336D01*
X192346992Y-97333411D01*
X192347287Y-97377341D01*
X192347539Y-97424601D01*
X192347748Y-97474665D01*
X192347914Y-97527007D01*
X192348036Y-97581103D01*
X192348116Y-97636426D01*
X192348152Y-97692451D01*
X192348145Y-97748652D01*
X192348094Y-97804505D01*
X192348001Y-97859483D01*
X192347864Y-97913061D01*
X192347684Y-97964714D01*
X192347461Y-98013915D01*
X192347195Y-98060141D01*
X192346886Y-98102864D01*
X192346533Y-98141559D01*
X192346138Y-98175702D01*
X192345699Y-98204766D01*
X192345217Y-98228226D01*
X192344692Y-98245557D01*
X192344123Y-98256232D01*
X192343717Y-98259404D01*
X192335351Y-98276771D01*
X192321437Y-98292335D01*
X192303945Y-98304628D01*
X192284846Y-98312180D01*
X192270718Y-98313850D01*
X192262418Y-98312523D01*
X192251160Y-98309405D01*
X192248116Y-98308376D01*
X192232601Y-98299820D01*
X192217969Y-98286523D01*
X192206525Y-98270923D01*
X192201360Y-98258952D01*
X192200795Y-98253165D01*
X192200270Y-98240369D01*
X192199785Y-98221089D01*
X192199340Y-98195851D01*
X192198935Y-98165179D01*
X192198571Y-98129599D01*
X192198247Y-98089634D01*
X192197964Y-98045811D01*
X192197721Y-97998654D01*
X192197518Y-97948688D01*
X192197356Y-97896437D01*
X192197235Y-97842428D01*
X192197154Y-97787185D01*
X192197114Y-97731232D01*
X192197115Y-97675095D01*
X192197157Y-97619299D01*
X192197239Y-97564369D01*
X192197363Y-97510829D01*
X192197527Y-97459205D01*
X192197732Y-97410021D01*
X192197979Y-97363802D01*
X192198266Y-97321074D01*
X192198595Y-97282362D01*
X192198964Y-97248190D01*
X192199375Y-97219083D01*
X192199828Y-97195566D01*
X192200321Y-97178164D01*
X192200857Y-97167402D01*
X192201257Y-97164097D01*
X192210406Y-97144512D01*
X192225331Y-97128020D01*
X192244471Y-97116003D01*
X192261773Y-97110538D01*
X192281080Y-97110490D01*
X192300603Y-97116568D01*
G36*
X192506127Y-97564504D02*
G01*
X192537965Y-97573216D01*
X192574144Y-97585865D01*
X192613082Y-97601731D01*
X192653195Y-97620095D01*
X192692903Y-97640239D01*
X192730621Y-97661443D01*
X192760411Y-97680076D01*
X192828908Y-97729689D01*
X192891441Y-97783893D01*
X192947968Y-97842624D01*
X192998448Y-97905818D01*
X193042840Y-97973411D01*
X193081103Y-98045338D01*
X193113194Y-98121535D01*
X193139073Y-98201939D01*
X193158699Y-98286484D01*
X193161998Y-98304619D01*
X193166159Y-98334812D01*
X193169303Y-98370365D01*
X193171386Y-98409221D01*
X193172364Y-98449326D01*
X193172194Y-98488625D01*
X193170831Y-98525063D01*
X193168233Y-98556585D01*
X193167491Y-98562650D01*
X193152779Y-98646810D01*
X193131096Y-98728141D01*
X193102474Y-98806566D01*
X193066945Y-98882006D01*
X193024539Y-98954384D01*
X192987394Y-99007747D01*
X192935524Y-99071016D01*
X192878637Y-99128781D01*
X192817062Y-99180849D01*
X192751129Y-99227025D01*
X192681166Y-99267113D01*
X192607504Y-99300920D01*
X192530470Y-99328250D01*
X192450394Y-99348909D01*
X192393141Y-99359232D01*
X192369268Y-99362068D01*
X192340572Y-99364328D01*
X192309112Y-99365953D01*
X192276945Y-99366883D01*
X192246131Y-99367057D01*
X192218728Y-99366415D01*
X192197264Y-99364948D01*
X192113205Y-99352609D01*
X192032185Y-99333496D01*
X191954397Y-99307699D01*
X191880031Y-99275306D01*
X191809281Y-99236407D01*
X191742338Y-99191091D01*
X191679393Y-99139448D01*
X191647017Y-99108846D01*
X191589481Y-99046596D01*
X191538440Y-98980554D01*
X191493962Y-98910855D01*
X191456113Y-98837634D01*
X191424960Y-98761027D01*
X191400569Y-98681168D01*
X191383008Y-98598194D01*
X191377711Y-98562650D01*
X191374835Y-98532483D01*
X191373204Y-98496949D01*
X191372775Y-98458103D01*
X191373505Y-98417999D01*
X191375349Y-98378692D01*
X191378263Y-98342237D01*
X191382204Y-98310690D01*
X191383204Y-98304619D01*
X191401488Y-98219190D01*
X191425956Y-98138058D01*
X191456627Y-98061190D01*
X191493518Y-97988555D01*
X191536648Y-97920120D01*
X191586034Y-97855854D01*
X191641696Y-97795725D01*
X191703651Y-97739701D01*
X191703804Y-97739574D01*
X191743168Y-97709176D01*
X191786462Y-97679698D01*
X191832333Y-97651846D01*
X191879428Y-97626328D01*
X191926391Y-97603850D01*
X191971870Y-97585119D01*
X192014510Y-97570842D01*
X192039076Y-97564504D01*
X192210000Y-97530000D01*
X192083759Y-97566880D01*
X192103166Y-97578661D01*
X192145966Y-97550674D01*
X192160117Y-97568252D01*
X192208822Y-97614034D01*
X192210578Y-97636217D01*
X192126147Y-97664394D01*
X192123499Y-97670284D01*
X192115019Y-97682748D01*
X192250000Y-97670000D01*
X192085067Y-97703319D01*
X192061522Y-97712736D01*
X192050121Y-97716565D01*
X191980047Y-97742464D01*
X191914857Y-97773527D01*
X191853508Y-97810264D01*
X191838517Y-97820487D01*
X191818928Y-97835482D01*
X191796050Y-97855105D01*
X191771209Y-97878031D01*
X191745732Y-97902931D01*
X191720944Y-97928480D01*
X191698171Y-97953350D01*
X191678739Y-97976215D01*
X191665294Y-97993853D01*
X191622950Y-98059476D01*
X191587999Y-98125827D01*
X191560307Y-98193318D01*
X191539741Y-98262359D01*
X191526167Y-98333360D01*
X191519450Y-98406734D01*
X191518621Y-98443993D01*
X191522069Y-98523125D01*
X191532442Y-98599407D01*
X191549696Y-98672735D01*
X191573791Y-98743006D01*
X191604684Y-98810116D01*
X191642334Y-98873963D01*
X191686699Y-98934442D01*
X191737736Y-98991451D01*
X191742413Y-98996166D01*
X191799308Y-99048037D01*
X191859413Y-99093124D01*
X191922558Y-99131361D01*
X191988574Y-99162681D01*
X192057292Y-99187018D01*
X192128543Y-99204304D01*
X192202157Y-99214474D01*
X192277966Y-99217461D01*
X192302736Y-99216886D01*
X192378177Y-99210431D01*
X192450933Y-99196940D01*
X192520964Y-99176430D01*
X192588229Y-99148919D01*
X192652689Y-99114426D01*
X192714302Y-99072967D01*
X192773027Y-99024560D01*
X192802736Y-98996325D01*
X192853515Y-98940832D01*
X192897710Y-98882016D01*
X192935427Y-98819659D01*
X192966770Y-98753546D01*
X192991841Y-98683462D01*
X193010746Y-98609190D01*
X193022355Y-98540253D01*
X193024299Y-98519712D01*
X193025618Y-98493807D01*
X193026312Y-98464600D01*
X193026382Y-98434154D01*
X193025828Y-98404530D01*
X193024650Y-98377791D01*
X193022850Y-98355999D01*
X193022321Y-98351705D01*
X193008467Y-98276267D01*
X192987581Y-98203160D01*
X192959920Y-98132816D01*
X192925740Y-98065662D01*
X192885299Y-98002129D01*
X192838854Y-97942646D01*
X192786662Y-97887643D01*
X192728979Y-97837548D01*
X192702670Y-97817708D01*
X192677876Y-97801341D01*
X192647734Y-97783894D01*
X192614153Y-97766309D01*
X192579043Y-97749527D01*
X192544312Y-97734491D01*
X192511871Y-97722142D01*
X192502647Y-97719030D01*
X192320000Y-97670000D01*
X192455972Y-97701217D01*
X192441100Y-97692451D01*
X192430462Y-97682740D01*
X192423001Y-97671309D01*
X192417661Y-97657378D01*
X192417328Y-97656252D01*
X192414069Y-97643456D01*
X192413399Y-97633713D01*
X192330000Y-97610000D01*
X192366610Y-97592533D01*
X192376374Y-97571202D01*
X192441962Y-97578041D01*
X192460896Y-97567221D01*
X192290000Y-97520000D01*
X192506127Y-97564504D01*
G37*
X192506127Y-97564504D02*
X192537965Y-97573216D01*
X192574144Y-97585865D01*
X192613082Y-97601731D01*
X192653195Y-97620095D01*
X192692903Y-97640239D01*
X192730621Y-97661443D01*
X192760411Y-97680076D01*
X192828908Y-97729689D01*
X192891441Y-97783893D01*
X192947968Y-97842624D01*
X192998448Y-97905818D01*
X193042840Y-97973411D01*
X193081103Y-98045338D01*
X193113194Y-98121535D01*
X193139073Y-98201939D01*
X193158699Y-98286484D01*
X193161998Y-98304619D01*
X193166159Y-98334812D01*
X193169303Y-98370365D01*
X193171386Y-98409221D01*
X193172364Y-98449326D01*
X193172194Y-98488625D01*
X193170831Y-98525063D01*
X193168233Y-98556585D01*
X193167491Y-98562650D01*
X193152779Y-98646810D01*
X193131096Y-98728141D01*
X193102474Y-98806566D01*
X193066945Y-98882006D01*
X193024539Y-98954384D01*
X192987394Y-99007747D01*
X192935524Y-99071016D01*
X192878637Y-99128781D01*
X192817062Y-99180849D01*
X192751129Y-99227025D01*
X192681166Y-99267113D01*
X192607504Y-99300920D01*
X192530470Y-99328250D01*
X192450394Y-99348909D01*
X192393141Y-99359232D01*
X192369268Y-99362068D01*
X192340572Y-99364328D01*
X192309112Y-99365953D01*
X192276945Y-99366883D01*
X192246131Y-99367057D01*
X192218728Y-99366415D01*
X192197264Y-99364948D01*
X192113205Y-99352609D01*
X192032185Y-99333496D01*
X191954397Y-99307699D01*
X191880031Y-99275306D01*
X191809281Y-99236407D01*
X191742338Y-99191091D01*
X191679393Y-99139448D01*
X191647017Y-99108846D01*
X191589481Y-99046596D01*
X191538440Y-98980554D01*
X191493962Y-98910855D01*
X191456113Y-98837634D01*
X191424960Y-98761027D01*
X191400569Y-98681168D01*
X191383008Y-98598194D01*
X191377711Y-98562650D01*
X191374835Y-98532483D01*
X191373204Y-98496949D01*
X191372775Y-98458103D01*
X191373505Y-98417999D01*
X191375349Y-98378692D01*
X191378263Y-98342237D01*
X191382204Y-98310690D01*
X191383204Y-98304619D01*
X191401488Y-98219190D01*
X191425956Y-98138058D01*
X191456627Y-98061190D01*
X191493518Y-97988555D01*
X191536648Y-97920120D01*
X191586034Y-97855854D01*
X191641696Y-97795725D01*
X191703651Y-97739701D01*
X191703804Y-97739574D01*
X191743168Y-97709176D01*
X191786462Y-97679698D01*
X191832333Y-97651846D01*
X191879428Y-97626328D01*
X191926391Y-97603850D01*
X191971870Y-97585119D01*
X192014510Y-97570842D01*
X192039076Y-97564504D01*
X192210000Y-97530000D01*
X192083759Y-97566880D01*
X192103166Y-97578661D01*
X192145966Y-97550674D01*
X192160117Y-97568252D01*
X192208822Y-97614034D01*
X192210578Y-97636217D01*
X192126147Y-97664394D01*
X192123499Y-97670284D01*
X192115019Y-97682748D01*
X192250000Y-97670000D01*
X192085067Y-97703319D01*
X192061522Y-97712736D01*
X192050121Y-97716565D01*
X191980047Y-97742464D01*
X191914857Y-97773527D01*
X191853508Y-97810264D01*
X191838517Y-97820487D01*
X191818928Y-97835482D01*
X191796050Y-97855105D01*
X191771209Y-97878031D01*
X191745732Y-97902931D01*
X191720944Y-97928480D01*
X191698171Y-97953350D01*
X191678739Y-97976215D01*
X191665294Y-97993853D01*
X191622950Y-98059476D01*
X191587999Y-98125827D01*
X191560307Y-98193318D01*
X191539741Y-98262359D01*
X191526167Y-98333360D01*
X191519450Y-98406734D01*
X191518621Y-98443993D01*
X191522069Y-98523125D01*
X191532442Y-98599407D01*
X191549696Y-98672735D01*
X191573791Y-98743006D01*
X191604684Y-98810116D01*
X191642334Y-98873963D01*
X191686699Y-98934442D01*
X191737736Y-98991451D01*
X191742413Y-98996166D01*
X191799308Y-99048037D01*
X191859413Y-99093124D01*
X191922558Y-99131361D01*
X191988574Y-99162681D01*
X192057292Y-99187018D01*
X192128543Y-99204304D01*
X192202157Y-99214474D01*
X192277966Y-99217461D01*
X192302736Y-99216886D01*
X192378177Y-99210431D01*
X192450933Y-99196940D01*
X192520964Y-99176430D01*
X192588229Y-99148919D01*
X192652689Y-99114426D01*
X192714302Y-99072967D01*
X192773027Y-99024560D01*
X192802736Y-98996325D01*
X192853515Y-98940832D01*
X192897710Y-98882016D01*
X192935427Y-98819659D01*
X192966770Y-98753546D01*
X192991841Y-98683462D01*
X193010746Y-98609190D01*
X193022355Y-98540253D01*
X193024299Y-98519712D01*
X193025618Y-98493807D01*
X193026312Y-98464600D01*
X193026382Y-98434154D01*
X193025828Y-98404530D01*
X193024650Y-98377791D01*
X193022850Y-98355999D01*
X193022321Y-98351705D01*
X193008467Y-98276267D01*
X192987581Y-98203160D01*
X192959920Y-98132816D01*
X192925740Y-98065662D01*
X192885299Y-98002129D01*
X192838854Y-97942646D01*
X192786662Y-97887643D01*
X192728979Y-97837548D01*
X192702670Y-97817708D01*
X192677876Y-97801341D01*
X192647734Y-97783894D01*
X192614153Y-97766309D01*
X192579043Y-97749527D01*
X192544312Y-97734491D01*
X192511871Y-97722142D01*
X192502647Y-97719030D01*
X192320000Y-97670000D01*
X192455972Y-97701217D01*
X192441100Y-97692451D01*
X192430462Y-97682740D01*
X192423001Y-97671309D01*
X192417661Y-97657378D01*
X192417328Y-97656252D01*
X192414069Y-97643456D01*
X192413399Y-97633713D01*
X192330000Y-97610000D01*
X192366610Y-97592533D01*
X192376374Y-97571202D01*
X192441962Y-97578041D01*
X192460896Y-97567221D01*
X192290000Y-97520000D01*
X192506127Y-97564504D01*
D12*
%TO.C,C2*%
X124494970Y-77033382D02*
X124494970Y-77314542D01*
X123474970Y-77033382D02*
X123474970Y-77314542D01*
%TO.C,C4*%
X122012152Y-77033382D02*
X122012152Y-77314542D01*
X123032152Y-77033382D02*
X123032152Y-77314542D01*
%TO.C,R59*%
X113117742Y-103347500D02*
X113592258Y-103347500D01*
X113117742Y-102302500D02*
X113592258Y-102302500D01*
%TO.C,D10*%
X190430000Y-99905000D02*
X186545000Y-99905000D01*
X186545000Y-99905000D02*
X186545000Y-102175000D01*
X186545000Y-102175000D02*
X190430000Y-102175000D01*
%TO.C,R52*%
X112997742Y-107247500D02*
X113472258Y-107247500D01*
X112997742Y-108292500D02*
X113472258Y-108292500D01*
%TO.C,D15*%
X110317500Y-106770000D02*
X114167500Y-106770000D01*
X110317500Y-104770000D02*
X114167500Y-104770000D01*
X110317500Y-104770000D02*
X110317500Y-106770000D01*
%TO.C,C6*%
X112514970Y-80299542D02*
X112514970Y-80018382D01*
X111494970Y-80299542D02*
X111494970Y-80018382D01*
%TO.C,RV2*%
X173615400Y-97072800D02*
X173615400Y-101792800D01*
X176825400Y-97072800D02*
X177655400Y-97072800D01*
X173615400Y-97072800D02*
X175105400Y-97072800D01*
X179275400Y-97072800D02*
X179805400Y-97072800D01*
X173615400Y-105602800D02*
X173615400Y-108662800D01*
X182175400Y-97072800D02*
X183355400Y-97072800D01*
X173615400Y-108662800D02*
X183355400Y-108662800D01*
X183365400Y-97072800D02*
X183365400Y-101792800D01*
X183355400Y-105602800D02*
X183355400Y-108662800D01*
%TO.C,PTC2*%
X161337258Y-52162500D02*
X160862742Y-52162500D01*
X161337258Y-51117500D02*
X160862742Y-51117500D01*
%TO.C,C9*%
X112514970Y-77048382D02*
X112514970Y-77329542D01*
X111494970Y-77048382D02*
X111494970Y-77329542D01*
%TO.C,C15*%
X148945000Y-101914420D02*
X148945000Y-102195580D01*
X149965000Y-101914420D02*
X149965000Y-102195580D01*
D14*
%TO.C,U1*%
X116712152Y-80228962D02*
X119212152Y-80228962D01*
X116712152Y-77318962D02*
X119212152Y-77318962D01*
D11*
X115842152Y-77773962D02*
G75*
G03*
X115842152Y-77773962I-100000J0D01*
G01*
D13*
%TO.C,D1*%
X124015201Y-67172260D02*
X124015201Y-66513000D01*
X118171199Y-66513000D02*
X118171199Y-67172260D01*
X124015201Y-66513000D02*
X118171199Y-66513000D01*
X124015201Y-70707000D02*
X124015201Y-70047740D01*
X118171199Y-70707000D02*
X124015201Y-70707000D01*
X118171199Y-70047740D02*
X118171199Y-70707000D01*
D12*
%TO.C,D4*%
X186545000Y-99375000D02*
X190430000Y-99375000D01*
X186545000Y-97105000D02*
X186545000Y-99375000D01*
X190430000Y-97105000D02*
X186545000Y-97105000D01*
%TO.C,RV1*%
X167355400Y-105585000D02*
X167355400Y-108645000D01*
X157615400Y-105585000D02*
X157615400Y-108645000D01*
X167365400Y-97055000D02*
X167365400Y-101775000D01*
X157615400Y-97055000D02*
X157615400Y-101775000D01*
X163275400Y-97055000D02*
X163805400Y-97055000D01*
X160825400Y-97055000D02*
X161655400Y-97055000D01*
X166175400Y-97055000D02*
X167355400Y-97055000D01*
X157615400Y-108645000D02*
X167355400Y-108645000D01*
X157615400Y-97055000D02*
X159105400Y-97055000D01*
%TO.C,C20*%
X111280000Y-108379420D02*
X111280000Y-108660580D01*
X110260000Y-108379420D02*
X110260000Y-108660580D01*
%TO.C,G\u002A\u002A\u002A*%
G36*
X191540366Y-100587665D02*
G01*
X191554521Y-100590600D01*
X191560490Y-100592777D01*
X191575594Y-100602890D01*
X191589754Y-100617377D01*
X191600606Y-100633513D01*
X191604838Y-100643860D01*
X191605754Y-100651116D01*
X191606560Y-100665296D01*
X191607255Y-100685509D01*
X191607839Y-100710866D01*
X191608313Y-100740479D01*
X191608676Y-100773459D01*
X191608929Y-100808915D01*
X191609071Y-100845959D01*
X191609103Y-100883701D01*
X191609024Y-100921253D01*
X191608834Y-100957725D01*
X191608534Y-100992229D01*
X191608123Y-101023873D01*
X191607602Y-101051771D01*
X191606970Y-101075032D01*
X191606228Y-101092767D01*
X191605375Y-101104087D01*
X191604838Y-101107332D01*
X191597941Y-101122235D01*
X191586439Y-101137699D01*
X191572682Y-101151033D01*
X191559344Y-101159414D01*
X191544804Y-101163095D01*
X191526826Y-101164354D01*
X191508687Y-101163250D01*
X191493660Y-101159840D01*
X191489878Y-101158185D01*
X191469044Y-101143451D01*
X191454036Y-101123962D01*
X191452386Y-101120884D01*
X191450829Y-101117530D01*
X191449506Y-101113606D01*
X191448397Y-101108487D01*
X191447484Y-101101549D01*
X191446748Y-101092167D01*
X191446169Y-101079719D01*
X191445730Y-101063578D01*
X191445411Y-101043123D01*
X191445193Y-101017727D01*
X191445057Y-100986767D01*
X191444985Y-100949619D01*
X191444957Y-100905658D01*
X191444954Y-100875596D01*
X191444964Y-100827226D01*
X191445007Y-100786045D01*
X191445102Y-100751428D01*
X191445268Y-100722752D01*
X191445524Y-100699392D01*
X191445889Y-100680724D01*
X191446381Y-100666124D01*
X191447020Y-100654968D01*
X191447824Y-100646631D01*
X191448813Y-100640490D01*
X191450005Y-100635920D01*
X191451419Y-100632297D01*
X191452386Y-100630308D01*
X191466876Y-100609679D01*
X191485766Y-100595475D01*
X191508788Y-100587859D01*
X191525229Y-100586516D01*
X191540366Y-100587665D01*
G37*
D16*
X191540366Y-100587665D02*
X191554521Y-100590600D01*
X191560490Y-100592777D01*
X191575594Y-100602890D01*
X191589754Y-100617377D01*
X191600606Y-100633513D01*
X191604838Y-100643860D01*
X191605754Y-100651116D01*
X191606560Y-100665296D01*
X191607255Y-100685509D01*
X191607839Y-100710866D01*
X191608313Y-100740479D01*
X191608676Y-100773459D01*
X191608929Y-100808915D01*
X191609071Y-100845959D01*
X191609103Y-100883701D01*
X191609024Y-100921253D01*
X191608834Y-100957725D01*
X191608534Y-100992229D01*
X191608123Y-101023873D01*
X191607602Y-101051771D01*
X191606970Y-101075032D01*
X191606228Y-101092767D01*
X191605375Y-101104087D01*
X191604838Y-101107332D01*
X191597941Y-101122235D01*
X191586439Y-101137699D01*
X191572682Y-101151033D01*
X191559344Y-101159414D01*
X191544804Y-101163095D01*
X191526826Y-101164354D01*
X191508687Y-101163250D01*
X191493660Y-101159840D01*
X191489878Y-101158185D01*
X191469044Y-101143451D01*
X191454036Y-101123962D01*
X191452386Y-101120884D01*
X191450829Y-101117530D01*
X191449506Y-101113606D01*
X191448397Y-101108487D01*
X191447484Y-101101549D01*
X191446748Y-101092167D01*
X191446169Y-101079719D01*
X191445730Y-101063578D01*
X191445411Y-101043123D01*
X191445193Y-101017727D01*
X191445057Y-100986767D01*
X191444985Y-100949619D01*
X191444957Y-100905658D01*
X191444954Y-100875596D01*
X191444964Y-100827226D01*
X191445007Y-100786045D01*
X191445102Y-100751428D01*
X191445268Y-100722752D01*
X191445524Y-100699392D01*
X191445889Y-100680724D01*
X191446381Y-100666124D01*
X191447020Y-100654968D01*
X191447824Y-100646631D01*
X191448813Y-100640490D01*
X191450005Y-100635920D01*
X191451419Y-100632297D01*
X191452386Y-100630308D01*
X191466876Y-100609679D01*
X191485766Y-100595475D01*
X191508788Y-100587859D01*
X191525229Y-100586516D01*
X191540366Y-100587665D01*
G36*
X191681309Y-100712069D02*
G01*
X191695464Y-100715004D01*
X191701433Y-100717181D01*
X191716537Y-100727294D01*
X191730697Y-100741781D01*
X191741549Y-100757917D01*
X191745781Y-100768264D01*
X191746697Y-100775520D01*
X191747503Y-100789700D01*
X191748198Y-100809913D01*
X191748782Y-100835270D01*
X191749256Y-100864883D01*
X191749619Y-100897863D01*
X191749872Y-100933319D01*
X191750014Y-100970363D01*
X191750046Y-101008105D01*
X191749967Y-101045657D01*
X191749777Y-101082129D01*
X191749477Y-101116633D01*
X191749066Y-101148277D01*
X191748545Y-101176175D01*
X191747913Y-101199436D01*
X191747171Y-101217171D01*
X191746318Y-101228491D01*
X191745781Y-101231736D01*
X191738884Y-101246639D01*
X191727382Y-101262103D01*
X191713625Y-101275437D01*
X191700287Y-101283818D01*
X191685747Y-101287499D01*
X191667769Y-101288758D01*
X191649630Y-101287654D01*
X191634603Y-101284244D01*
X191630821Y-101282589D01*
X191609987Y-101267855D01*
X191594979Y-101248366D01*
X191593329Y-101245288D01*
X191591772Y-101241934D01*
X191590449Y-101238010D01*
X191589340Y-101232891D01*
X191588427Y-101225953D01*
X191587691Y-101216571D01*
X191587112Y-101204123D01*
X191586673Y-101187982D01*
X191586354Y-101167527D01*
X191586136Y-101142131D01*
X191586000Y-101111171D01*
X191585928Y-101074023D01*
X191585900Y-101030062D01*
X191585897Y-101000000D01*
X191585907Y-100951630D01*
X191585950Y-100910449D01*
X191586045Y-100875832D01*
X191586211Y-100847156D01*
X191586467Y-100823796D01*
X191586832Y-100805128D01*
X191587324Y-100790528D01*
X191587963Y-100779372D01*
X191588767Y-100771035D01*
X191589756Y-100764894D01*
X191590948Y-100760324D01*
X191592362Y-100756701D01*
X191593329Y-100754712D01*
X191607819Y-100734083D01*
X191626709Y-100719879D01*
X191649731Y-100712263D01*
X191666172Y-100710920D01*
X191681309Y-100712069D01*
G37*
X191681309Y-100712069D02*
X191695464Y-100715004D01*
X191701433Y-100717181D01*
X191716537Y-100727294D01*
X191730697Y-100741781D01*
X191741549Y-100757917D01*
X191745781Y-100768264D01*
X191746697Y-100775520D01*
X191747503Y-100789700D01*
X191748198Y-100809913D01*
X191748782Y-100835270D01*
X191749256Y-100864883D01*
X191749619Y-100897863D01*
X191749872Y-100933319D01*
X191750014Y-100970363D01*
X191750046Y-101008105D01*
X191749967Y-101045657D01*
X191749777Y-101082129D01*
X191749477Y-101116633D01*
X191749066Y-101148277D01*
X191748545Y-101176175D01*
X191747913Y-101199436D01*
X191747171Y-101217171D01*
X191746318Y-101228491D01*
X191745781Y-101231736D01*
X191738884Y-101246639D01*
X191727382Y-101262103D01*
X191713625Y-101275437D01*
X191700287Y-101283818D01*
X191685747Y-101287499D01*
X191667769Y-101288758D01*
X191649630Y-101287654D01*
X191634603Y-101284244D01*
X191630821Y-101282589D01*
X191609987Y-101267855D01*
X191594979Y-101248366D01*
X191593329Y-101245288D01*
X191591772Y-101241934D01*
X191590449Y-101238010D01*
X191589340Y-101232891D01*
X191588427Y-101225953D01*
X191587691Y-101216571D01*
X191587112Y-101204123D01*
X191586673Y-101187982D01*
X191586354Y-101167527D01*
X191586136Y-101142131D01*
X191586000Y-101111171D01*
X191585928Y-101074023D01*
X191585900Y-101030062D01*
X191585897Y-101000000D01*
X191585907Y-100951630D01*
X191585950Y-100910449D01*
X191586045Y-100875832D01*
X191586211Y-100847156D01*
X191586467Y-100823796D01*
X191586832Y-100805128D01*
X191587324Y-100790528D01*
X191587963Y-100779372D01*
X191588767Y-100771035D01*
X191589756Y-100764894D01*
X191590948Y-100760324D01*
X191592362Y-100756701D01*
X191593329Y-100754712D01*
X191607819Y-100734083D01*
X191626709Y-100719879D01*
X191649731Y-100712263D01*
X191666172Y-100710920D01*
X191681309Y-100712069D01*
G36*
X191337572Y-101323916D02*
G01*
X191336996Y-101300263D01*
X191336580Y-101272204D01*
X191336299Y-101239236D01*
X191336128Y-101200852D01*
X191336041Y-101156549D01*
X191336011Y-101105822D01*
X191336015Y-101048166D01*
X191336023Y-101000000D01*
X191336077Y-100930342D01*
X191336218Y-100867270D01*
X191336445Y-100810923D01*
X191336757Y-100761444D01*
X191337151Y-100718971D01*
X191337626Y-100683646D01*
X191338182Y-100655608D01*
X191338815Y-100634999D01*
X191339526Y-100621958D01*
X191340098Y-100617273D01*
X191351613Y-100583872D01*
X191369762Y-100552261D01*
X191393389Y-100523595D01*
X191421341Y-100499028D01*
X191452464Y-100479713D01*
X191485605Y-100466804D01*
X191492250Y-100465121D01*
X191498866Y-100464520D01*
X191513284Y-100463966D01*
X191535493Y-100463459D01*
X191565483Y-100462999D01*
X191603242Y-100462586D01*
X191648760Y-100462221D01*
X191702025Y-100461904D01*
X191763027Y-100461634D01*
X191831756Y-100461411D01*
X191908199Y-100461236D01*
X191992347Y-100461109D01*
X192084188Y-100461030D01*
X192168231Y-100461000D01*
X192253499Y-100460980D01*
X192331315Y-100460956D01*
X192402040Y-100460940D01*
X192466036Y-100460943D01*
X192523665Y-100460978D01*
X192575288Y-100461057D01*
X192621265Y-100461192D01*
X192661958Y-100461397D01*
X192697730Y-100461682D01*
X192728939Y-100462060D01*
X192755950Y-100462544D01*
X192779121Y-100463145D01*
X192798816Y-100463877D01*
X192815394Y-100464750D01*
X192829219Y-100465778D01*
X192840649Y-100466972D01*
X192850048Y-100468345D01*
X192857777Y-100469910D01*
X192864196Y-100471677D01*
X192869667Y-100473661D01*
X192874551Y-100475872D01*
X192879210Y-100478323D01*
X192884005Y-100481026D01*
X192889298Y-100483994D01*
X192892137Y-100485525D01*
X192920352Y-100504531D01*
X192945884Y-100529604D01*
X192967553Y-100559140D01*
X192984177Y-100591539D01*
X192994317Y-100623972D01*
X192996652Y-100639283D01*
X192998502Y-100659737D01*
X192999669Y-100682668D01*
X192999978Y-100700177D01*
X193000046Y-100749985D01*
X193045947Y-100750006D01*
X193072398Y-100750470D01*
X193092635Y-100752083D01*
X193108219Y-100755220D01*
X193120709Y-100760256D01*
X193131667Y-100767568D01*
X193136648Y-100771822D01*
X193142722Y-100777292D01*
X193147828Y-100782267D01*
X193152051Y-100787444D01*
X193155473Y-100793519D01*
X193158180Y-100801189D01*
X193160254Y-100811150D01*
X193161781Y-100824098D01*
X193162842Y-100840731D01*
X193163523Y-100861744D01*
X193163908Y-100887834D01*
X193164079Y-100919698D01*
X193164122Y-100958033D01*
X193164119Y-101000000D01*
X193164121Y-101044961D01*
X193164072Y-101082806D01*
X193163888Y-101114230D01*
X193163485Y-101139932D01*
X193162780Y-101160606D01*
X193161687Y-101176950D01*
X193160124Y-101189660D01*
X193158007Y-101199432D01*
X193155252Y-101206964D01*
X193151774Y-101212951D01*
X193147491Y-101218090D01*
X193142318Y-101223077D01*
X193136648Y-101228178D01*
X193125871Y-101236668D01*
X193114284Y-101242710D01*
X193100324Y-101246679D01*
X193082433Y-101248950D01*
X193059049Y-101249898D01*
X193045947Y-101249994D01*
X193000046Y-101250015D01*
X192999978Y-101299823D01*
X192999465Y-101322852D01*
X192998118Y-101345437D01*
X192996135Y-101364912D01*
X192994317Y-101376028D01*
X192983674Y-101409670D01*
X192966847Y-101441993D01*
X192945017Y-101471395D01*
X192919366Y-101496275D01*
X192892137Y-101514475D01*
X192886483Y-101517572D01*
X192881501Y-101520399D01*
X192876831Y-101522969D01*
X192872113Y-101525292D01*
X192866985Y-101527383D01*
X192861086Y-101529252D01*
X192854057Y-101530911D01*
X192845537Y-101532373D01*
X192835164Y-101533650D01*
X192822578Y-101534754D01*
X192807418Y-101535696D01*
X192789323Y-101536490D01*
X192767934Y-101537146D01*
X192742888Y-101537677D01*
X192713826Y-101538096D01*
X192680387Y-101538414D01*
X192642209Y-101538643D01*
X192598933Y-101538795D01*
X192550197Y-101538882D01*
X192495641Y-101538917D01*
X192434904Y-101538912D01*
X192367625Y-101538878D01*
X192293443Y-101538828D01*
X192211999Y-101538773D01*
X192166278Y-101538746D01*
X192079210Y-101538690D01*
X191999637Y-101538617D01*
X191927241Y-101538524D01*
X191861704Y-101538408D01*
X191802707Y-101538267D01*
X191749933Y-101538098D01*
X191703064Y-101537899D01*
X191661781Y-101537668D01*
X191625767Y-101537400D01*
X191594703Y-101537095D01*
X191568271Y-101536749D01*
X191546154Y-101536360D01*
X191528033Y-101535925D01*
X191513590Y-101535442D01*
X191502507Y-101534907D01*
X191494466Y-101534320D01*
X191489149Y-101533676D01*
X191487029Y-101533233D01*
X191456425Y-101521564D01*
X191426619Y-101504206D01*
X191399323Y-101482539D01*
X191376247Y-101457940D01*
X191359105Y-101431788D01*
X191357813Y-101429202D01*
X191354220Y-101421841D01*
X191351045Y-101415121D01*
X191348260Y-101408539D01*
X191345841Y-101401590D01*
X191343762Y-101393768D01*
X191341998Y-101384570D01*
X191340522Y-101373491D01*
X191339310Y-101360025D01*
X191338621Y-101348459D01*
X191499954Y-101348459D01*
X191526518Y-101375023D01*
X192164643Y-101375008D01*
X192247312Y-101375005D01*
X192322527Y-101374995D01*
X192390648Y-101374976D01*
X192452037Y-101374941D01*
X192507051Y-101374888D01*
X192556052Y-101374813D01*
X192599398Y-101374710D01*
X192637450Y-101374576D01*
X192670568Y-101374407D01*
X192699111Y-101374197D01*
X192723439Y-101373944D01*
X192743912Y-101373643D01*
X192760890Y-101373290D01*
X192774732Y-101372880D01*
X192785799Y-101372409D01*
X192794449Y-101371874D01*
X192801044Y-101371269D01*
X192805943Y-101370591D01*
X192809505Y-101369836D01*
X192812090Y-101368998D01*
X192814059Y-101368075D01*
X192815225Y-101367399D01*
X192827038Y-101355924D01*
X192831806Y-101344951D01*
X192832550Y-101338354D01*
X192833224Y-101324655D01*
X192833826Y-101304567D01*
X192834358Y-101278800D01*
X192834818Y-101248066D01*
X192835208Y-101213076D01*
X192835526Y-101174542D01*
X192835774Y-101133175D01*
X192835950Y-101089687D01*
X192836055Y-101044788D01*
X192836090Y-100999190D01*
X192836053Y-100953605D01*
X192835945Y-100908744D01*
X192835766Y-100865319D01*
X192835516Y-100824040D01*
X192835195Y-100785619D01*
X192834803Y-100750768D01*
X192834340Y-100720198D01*
X192833806Y-100694620D01*
X192833201Y-100674746D01*
X192832525Y-100661287D01*
X192831806Y-100655049D01*
X192824054Y-100640036D01*
X192815225Y-100632601D01*
X192813469Y-100631617D01*
X192811341Y-100630722D01*
X192808480Y-100629912D01*
X192804525Y-100629182D01*
X192799119Y-100628528D01*
X192791900Y-100627946D01*
X192782509Y-100627432D01*
X192770586Y-100626981D01*
X192755771Y-100626590D01*
X192737705Y-100626254D01*
X192716027Y-100625969D01*
X192690378Y-100625730D01*
X192660398Y-100625535D01*
X192625728Y-100625377D01*
X192586006Y-100625254D01*
X192540875Y-100625160D01*
X192489973Y-100625092D01*
X192432941Y-100625046D01*
X192369419Y-100625017D01*
X192299048Y-100625001D01*
X192221467Y-100624994D01*
X192164643Y-100624992D01*
X191526518Y-100624977D01*
X191499954Y-100651541D01*
X191499954Y-101348459D01*
X191338621Y-101348459D01*
X191338335Y-101343668D01*
X191337572Y-101323916D01*
G37*
X191337572Y-101323916D02*
X191336996Y-101300263D01*
X191336580Y-101272204D01*
X191336299Y-101239236D01*
X191336128Y-101200852D01*
X191336041Y-101156549D01*
X191336011Y-101105822D01*
X191336015Y-101048166D01*
X191336023Y-101000000D01*
X191336077Y-100930342D01*
X191336218Y-100867270D01*
X191336445Y-100810923D01*
X191336757Y-100761444D01*
X191337151Y-100718971D01*
X191337626Y-100683646D01*
X191338182Y-100655608D01*
X191338815Y-100634999D01*
X191339526Y-100621958D01*
X191340098Y-100617273D01*
X191351613Y-100583872D01*
X191369762Y-100552261D01*
X191393389Y-100523595D01*
X191421341Y-100499028D01*
X191452464Y-100479713D01*
X191485605Y-100466804D01*
X191492250Y-100465121D01*
X191498866Y-100464520D01*
X191513284Y-100463966D01*
X191535493Y-100463459D01*
X191565483Y-100462999D01*
X191603242Y-100462586D01*
X191648760Y-100462221D01*
X191702025Y-100461904D01*
X191763027Y-100461634D01*
X191831756Y-100461411D01*
X191908199Y-100461236D01*
X191992347Y-100461109D01*
X192084188Y-100461030D01*
X192168231Y-100461000D01*
X192253499Y-100460980D01*
X192331315Y-100460956D01*
X192402040Y-100460940D01*
X192466036Y-100460943D01*
X192523665Y-100460978D01*
X192575288Y-100461057D01*
X192621265Y-100461192D01*
X192661958Y-100461397D01*
X192697730Y-100461682D01*
X192728939Y-100462060D01*
X192755950Y-100462544D01*
X192779121Y-100463145D01*
X192798816Y-100463877D01*
X192815394Y-100464750D01*
X192829219Y-100465778D01*
X192840649Y-100466972D01*
X192850048Y-100468345D01*
X192857777Y-100469910D01*
X192864196Y-100471677D01*
X192869667Y-100473661D01*
X192874551Y-100475872D01*
X192879210Y-100478323D01*
X192884005Y-100481026D01*
X192889298Y-100483994D01*
X192892137Y-100485525D01*
X192920352Y-100504531D01*
X192945884Y-100529604D01*
X192967553Y-100559140D01*
X192984177Y-100591539D01*
X192994317Y-100623972D01*
X192996652Y-100639283D01*
X192998502Y-100659737D01*
X192999669Y-100682668D01*
X192999978Y-100700177D01*
X193000046Y-100749985D01*
X193045947Y-100750006D01*
X193072398Y-100750470D01*
X193092635Y-100752083D01*
X193108219Y-100755220D01*
X193120709Y-100760256D01*
X193131667Y-100767568D01*
X193136648Y-100771822D01*
X193142722Y-100777292D01*
X193147828Y-100782267D01*
X193152051Y-100787444D01*
X193155473Y-100793519D01*
X193158180Y-100801189D01*
X193160254Y-100811150D01*
X193161781Y-100824098D01*
X193162842Y-100840731D01*
X193163523Y-100861744D01*
X193163908Y-100887834D01*
X193164079Y-100919698D01*
X193164122Y-100958033D01*
X193164119Y-101000000D01*
X193164121Y-101044961D01*
X193164072Y-101082806D01*
X193163888Y-101114230D01*
X193163485Y-101139932D01*
X193162780Y-101160606D01*
X193161687Y-101176950D01*
X193160124Y-101189660D01*
X193158007Y-101199432D01*
X193155252Y-101206964D01*
X193151774Y-101212951D01*
X193147491Y-101218090D01*
X193142318Y-101223077D01*
X193136648Y-101228178D01*
X193125871Y-101236668D01*
X193114284Y-101242710D01*
X193100324Y-101246679D01*
X193082433Y-101248950D01*
X193059049Y-101249898D01*
X193045947Y-101249994D01*
X193000046Y-101250015D01*
X192999978Y-101299823D01*
X192999465Y-101322852D01*
X192998118Y-101345437D01*
X192996135Y-101364912D01*
X192994317Y-101376028D01*
X192983674Y-101409670D01*
X192966847Y-101441993D01*
X192945017Y-101471395D01*
X192919366Y-101496275D01*
X192892137Y-101514475D01*
X192886483Y-101517572D01*
X192881501Y-101520399D01*
X192876831Y-101522969D01*
X192872113Y-101525292D01*
X192866985Y-101527383D01*
X192861086Y-101529252D01*
X192854057Y-101530911D01*
X192845537Y-101532373D01*
X192835164Y-101533650D01*
X192822578Y-101534754D01*
X192807418Y-101535696D01*
X192789323Y-101536490D01*
X192767934Y-101537146D01*
X192742888Y-101537677D01*
X192713826Y-101538096D01*
X192680387Y-101538414D01*
X192642209Y-101538643D01*
X192598933Y-101538795D01*
X192550197Y-101538882D01*
X192495641Y-101538917D01*
X192434904Y-101538912D01*
X192367625Y-101538878D01*
X192293443Y-101538828D01*
X192211999Y-101538773D01*
X192166278Y-101538746D01*
X192079210Y-101538690D01*
X191999637Y-101538617D01*
X191927241Y-101538524D01*
X191861704Y-101538408D01*
X191802707Y-101538267D01*
X191749933Y-101538098D01*
X191703064Y-101537899D01*
X191661781Y-101537668D01*
X191625767Y-101537400D01*
X191594703Y-101537095D01*
X191568271Y-101536749D01*
X191546154Y-101536360D01*
X191528033Y-101535925D01*
X191513590Y-101535442D01*
X191502507Y-101534907D01*
X191494466Y-101534320D01*
X191489149Y-101533676D01*
X191487029Y-101533233D01*
X191456425Y-101521564D01*
X191426619Y-101504206D01*
X191399323Y-101482539D01*
X191376247Y-101457940D01*
X191359105Y-101431788D01*
X191357813Y-101429202D01*
X191354220Y-101421841D01*
X191351045Y-101415121D01*
X191348260Y-101408539D01*
X191345841Y-101401590D01*
X191343762Y-101393768D01*
X191341998Y-101384570D01*
X191340522Y-101373491D01*
X191339310Y-101360025D01*
X191338621Y-101348459D01*
X191499954Y-101348459D01*
X191526518Y-101375023D01*
X192164643Y-101375008D01*
X192247312Y-101375005D01*
X192322527Y-101374995D01*
X192390648Y-101374976D01*
X192452037Y-101374941D01*
X192507051Y-101374888D01*
X192556052Y-101374813D01*
X192599398Y-101374710D01*
X192637450Y-101374576D01*
X192670568Y-101374407D01*
X192699111Y-101374197D01*
X192723439Y-101373944D01*
X192743912Y-101373643D01*
X192760890Y-101373290D01*
X192774732Y-101372880D01*
X192785799Y-101372409D01*
X192794449Y-101371874D01*
X192801044Y-101371269D01*
X192805943Y-101370591D01*
X192809505Y-101369836D01*
X192812090Y-101368998D01*
X192814059Y-101368075D01*
X192815225Y-101367399D01*
X192827038Y-101355924D01*
X192831806Y-101344951D01*
X192832550Y-101338354D01*
X192833224Y-101324655D01*
X192833826Y-101304567D01*
X192834358Y-101278800D01*
X192834818Y-101248066D01*
X192835208Y-101213076D01*
X192835526Y-101174542D01*
X192835774Y-101133175D01*
X192835950Y-101089687D01*
X192836055Y-101044788D01*
X192836090Y-100999190D01*
X192836053Y-100953605D01*
X192835945Y-100908744D01*
X192835766Y-100865319D01*
X192835516Y-100824040D01*
X192835195Y-100785619D01*
X192834803Y-100750768D01*
X192834340Y-100720198D01*
X192833806Y-100694620D01*
X192833201Y-100674746D01*
X192832525Y-100661287D01*
X192831806Y-100655049D01*
X192824054Y-100640036D01*
X192815225Y-100632601D01*
X192813469Y-100631617D01*
X192811341Y-100630722D01*
X192808480Y-100629912D01*
X192804525Y-100629182D01*
X192799119Y-100628528D01*
X192791900Y-100627946D01*
X192782509Y-100627432D01*
X192770586Y-100626981D01*
X192755771Y-100626590D01*
X192737705Y-100626254D01*
X192716027Y-100625969D01*
X192690378Y-100625730D01*
X192660398Y-100625535D01*
X192625728Y-100625377D01*
X192586006Y-100625254D01*
X192540875Y-100625160D01*
X192489973Y-100625092D01*
X192432941Y-100625046D01*
X192369419Y-100625017D01*
X192299048Y-100625001D01*
X192221467Y-100624994D01*
X192164643Y-100624992D01*
X191526518Y-100624977D01*
X191499954Y-100651541D01*
X191499954Y-101348459D01*
X191338621Y-101348459D01*
X191338335Y-101343668D01*
X191337572Y-101323916D01*
G36*
X191539517Y-100952697D02*
G01*
X191553672Y-100955632D01*
X191559641Y-100957809D01*
X191574745Y-100967922D01*
X191588905Y-100982409D01*
X191599757Y-100998545D01*
X191603989Y-101008892D01*
X191604905Y-101016148D01*
X191605711Y-101030328D01*
X191606406Y-101050541D01*
X191606990Y-101075898D01*
X191607464Y-101105511D01*
X191607827Y-101138491D01*
X191608080Y-101173947D01*
X191608222Y-101210991D01*
X191608254Y-101248733D01*
X191608175Y-101286285D01*
X191607985Y-101322757D01*
X191607685Y-101357261D01*
X191607274Y-101388905D01*
X191606753Y-101416803D01*
X191606121Y-101440064D01*
X191605379Y-101457799D01*
X191604526Y-101469119D01*
X191603989Y-101472364D01*
X191597092Y-101487267D01*
X191585590Y-101502731D01*
X191571833Y-101516065D01*
X191558495Y-101524446D01*
X191543955Y-101528127D01*
X191525977Y-101529386D01*
X191507838Y-101528282D01*
X191492811Y-101524872D01*
X191489029Y-101523217D01*
X191468195Y-101508483D01*
X191453187Y-101488994D01*
X191451537Y-101485916D01*
X191449980Y-101482562D01*
X191448657Y-101478638D01*
X191447548Y-101473519D01*
X191446635Y-101466581D01*
X191445899Y-101457199D01*
X191445320Y-101444751D01*
X191444881Y-101428610D01*
X191444562Y-101408155D01*
X191444344Y-101382759D01*
X191444208Y-101351799D01*
X191444136Y-101314651D01*
X191444108Y-101270690D01*
X191444105Y-101240628D01*
X191444115Y-101192258D01*
X191444158Y-101151077D01*
X191444253Y-101116460D01*
X191444419Y-101087784D01*
X191444675Y-101064424D01*
X191445040Y-101045756D01*
X191445532Y-101031156D01*
X191446171Y-101020000D01*
X191446975Y-101011663D01*
X191447964Y-101005522D01*
X191449156Y-101000952D01*
X191450570Y-100997329D01*
X191451537Y-100995340D01*
X191466027Y-100974711D01*
X191484917Y-100960507D01*
X191507939Y-100952891D01*
X191524380Y-100951548D01*
X191539517Y-100952697D01*
G37*
X191539517Y-100952697D02*
X191553672Y-100955632D01*
X191559641Y-100957809D01*
X191574745Y-100967922D01*
X191588905Y-100982409D01*
X191599757Y-100998545D01*
X191603989Y-101008892D01*
X191604905Y-101016148D01*
X191605711Y-101030328D01*
X191606406Y-101050541D01*
X191606990Y-101075898D01*
X191607464Y-101105511D01*
X191607827Y-101138491D01*
X191608080Y-101173947D01*
X191608222Y-101210991D01*
X191608254Y-101248733D01*
X191608175Y-101286285D01*
X191607985Y-101322757D01*
X191607685Y-101357261D01*
X191607274Y-101388905D01*
X191606753Y-101416803D01*
X191606121Y-101440064D01*
X191605379Y-101457799D01*
X191604526Y-101469119D01*
X191603989Y-101472364D01*
X191597092Y-101487267D01*
X191585590Y-101502731D01*
X191571833Y-101516065D01*
X191558495Y-101524446D01*
X191543955Y-101528127D01*
X191525977Y-101529386D01*
X191507838Y-101528282D01*
X191492811Y-101524872D01*
X191489029Y-101523217D01*
X191468195Y-101508483D01*
X191453187Y-101488994D01*
X191451537Y-101485916D01*
X191449980Y-101482562D01*
X191448657Y-101478638D01*
X191447548Y-101473519D01*
X191446635Y-101466581D01*
X191445899Y-101457199D01*
X191445320Y-101444751D01*
X191444881Y-101428610D01*
X191444562Y-101408155D01*
X191444344Y-101382759D01*
X191444208Y-101351799D01*
X191444136Y-101314651D01*
X191444108Y-101270690D01*
X191444105Y-101240628D01*
X191444115Y-101192258D01*
X191444158Y-101151077D01*
X191444253Y-101116460D01*
X191444419Y-101087784D01*
X191444675Y-101064424D01*
X191445040Y-101045756D01*
X191445532Y-101031156D01*
X191446171Y-101020000D01*
X191446975Y-101011663D01*
X191447964Y-101005522D01*
X191449156Y-101000952D01*
X191450570Y-100997329D01*
X191451537Y-100995340D01*
X191466027Y-100974711D01*
X191484917Y-100960507D01*
X191507939Y-100952891D01*
X191524380Y-100951548D01*
X191539517Y-100952697D01*
D12*
%TO.C,R32*%
X151702742Y-101827500D02*
X152177258Y-101827500D01*
X151702742Y-100782500D02*
X152177258Y-100782500D01*
%TO.C,G\u002A\u002A\u002A*%
G36*
X101569957Y-77952544D02*
G01*
X101540122Y-77932159D01*
X101519238Y-77903434D01*
X101517517Y-77900104D01*
X101499938Y-77865244D01*
X101499938Y-77720108D01*
X101749953Y-77720108D01*
X103250046Y-77720108D01*
X103250046Y-74219893D01*
X101749953Y-74219893D01*
X101749953Y-77720108D01*
X101499938Y-77720108D01*
X101499938Y-74074757D01*
X101517517Y-74039896D01*
X101537903Y-74010061D01*
X101566628Y-73989177D01*
X101569957Y-73987457D01*
X101604818Y-73969877D01*
X103395181Y-73969877D01*
X103430042Y-73987457D01*
X103459877Y-74007842D01*
X103480761Y-74036567D01*
X103482482Y-74039896D01*
X103500061Y-74074757D01*
X103500061Y-77865244D01*
X103482482Y-77900104D01*
X103462096Y-77929940D01*
X103433371Y-77950824D01*
X103430042Y-77952544D01*
X103395181Y-77970123D01*
X101604818Y-77970123D01*
X101569957Y-77952544D01*
G37*
D16*
X101569957Y-77952544D02*
X101540122Y-77932159D01*
X101519238Y-77903434D01*
X101517517Y-77900104D01*
X101499938Y-77865244D01*
X101499938Y-77720108D01*
X101749953Y-77720108D01*
X103250046Y-77720108D01*
X103250046Y-74219893D01*
X101749953Y-74219893D01*
X101749953Y-77720108D01*
X101499938Y-77720108D01*
X101499938Y-74074757D01*
X101517517Y-74039896D01*
X101537903Y-74010061D01*
X101566628Y-73989177D01*
X101569957Y-73987457D01*
X101604818Y-73969877D01*
X103395181Y-73969877D01*
X103430042Y-73987457D01*
X103459877Y-74007842D01*
X103480761Y-74036567D01*
X103482482Y-74039896D01*
X103500061Y-74074757D01*
X103500061Y-77865244D01*
X103482482Y-77900104D01*
X103462096Y-77929940D01*
X103433371Y-77950824D01*
X103430042Y-77952544D01*
X103395181Y-77970123D01*
X101604818Y-77970123D01*
X101569957Y-77952544D01*
G36*
X102421951Y-77469483D02*
G01*
X102368709Y-77469972D01*
X102310488Y-77470093D01*
X102248227Y-77470039D01*
X102199518Y-77469778D01*
X102162288Y-77469158D01*
X102134465Y-77468027D01*
X102113974Y-77466234D01*
X102098742Y-77463626D01*
X102086696Y-77460054D01*
X102075763Y-77455364D01*
X102069988Y-77452514D01*
X102040153Y-77432128D01*
X102019269Y-77403403D01*
X102017548Y-77400074D01*
X101999969Y-77365213D01*
X101999969Y-77220077D01*
X102249984Y-77220077D01*
X102449069Y-77220077D01*
X102599542Y-77069753D01*
X102750015Y-76919428D01*
X102750015Y-75020870D01*
X102449365Y-74719924D01*
X102249984Y-74719924D01*
X102249984Y-75094947D01*
X102322552Y-75094947D01*
X102375973Y-75097601D01*
X102416935Y-75106252D01*
X102447794Y-75121932D01*
X102470909Y-75145673D01*
X102482420Y-75164966D01*
X102492916Y-75189787D01*
X102499202Y-75212391D01*
X102500000Y-75219954D01*
X102496499Y-75238913D01*
X102487645Y-75263669D01*
X102482420Y-75274943D01*
X102462935Y-75304220D01*
X102437171Y-75324794D01*
X102402771Y-75337696D01*
X102357378Y-75343960D01*
X102322552Y-75344962D01*
X102249984Y-75344962D01*
X102249984Y-75594977D01*
X102322552Y-75594977D01*
X102375973Y-75597632D01*
X102416935Y-75606282D01*
X102447794Y-75621962D01*
X102470909Y-75645703D01*
X102482420Y-75664996D01*
X102492916Y-75689818D01*
X102499202Y-75712421D01*
X102500000Y-75719985D01*
X102496499Y-75738944D01*
X102487645Y-75763700D01*
X102482420Y-75774974D01*
X102462935Y-75804251D01*
X102437171Y-75824825D01*
X102402771Y-75837727D01*
X102357378Y-75843991D01*
X102322552Y-75844993D01*
X102249984Y-75844993D01*
X102249984Y-76095008D01*
X102322552Y-76095008D01*
X102375973Y-76097662D01*
X102416935Y-76106313D01*
X102447794Y-76121993D01*
X102470909Y-76145734D01*
X102482420Y-76165027D01*
X102492916Y-76189849D01*
X102499202Y-76212452D01*
X102500000Y-76220016D01*
X102496499Y-76238975D01*
X102487645Y-76263731D01*
X102482420Y-76275004D01*
X102462935Y-76304282D01*
X102437171Y-76324855D01*
X102402771Y-76337758D01*
X102357378Y-76344021D01*
X102322552Y-76345024D01*
X102249984Y-76345024D01*
X102249984Y-76595039D01*
X102322552Y-76595039D01*
X102375973Y-76597693D01*
X102416935Y-76606344D01*
X102447794Y-76622024D01*
X102470909Y-76645765D01*
X102482420Y-76665058D01*
X102492916Y-76689880D01*
X102499202Y-76712483D01*
X102500000Y-76720047D01*
X102496499Y-76739006D01*
X102487645Y-76763761D01*
X102482420Y-76775035D01*
X102462935Y-76804313D01*
X102437171Y-76824886D01*
X102402771Y-76837789D01*
X102357378Y-76844052D01*
X102322552Y-76845054D01*
X102249984Y-76845054D01*
X102249984Y-77220077D01*
X101999969Y-77220077D01*
X101999969Y-74574788D01*
X102017548Y-74539927D01*
X102037933Y-74510092D01*
X102066659Y-74489208D01*
X102069988Y-74487487D01*
X102081093Y-74482195D01*
X102092244Y-74478089D01*
X102105503Y-74475020D01*
X102122931Y-74472842D01*
X102146591Y-74471405D01*
X102178543Y-74470561D01*
X102220850Y-74470163D01*
X102275573Y-74470062D01*
X102312190Y-74470080D01*
X102375570Y-74470225D01*
X102425351Y-74470627D01*
X102463563Y-74471413D01*
X102492232Y-74472707D01*
X102513386Y-74474636D01*
X102529053Y-74477326D01*
X102541260Y-74480903D01*
X102550784Y-74484899D01*
X102565122Y-74494670D01*
X102588410Y-74514171D01*
X102619060Y-74541805D01*
X102655486Y-74575976D01*
X102696104Y-74615090D01*
X102739325Y-74657549D01*
X102783564Y-74701758D01*
X102827234Y-74746122D01*
X102868750Y-74789045D01*
X102906525Y-74828930D01*
X102938973Y-74864183D01*
X102964508Y-74893208D01*
X102981543Y-74914408D01*
X102988027Y-74924763D01*
X102989778Y-74930339D01*
X102991352Y-74938678D01*
X102992759Y-74950573D01*
X102994006Y-74966815D01*
X102995105Y-74988197D01*
X102996062Y-75015508D01*
X102996888Y-75049543D01*
X102997591Y-75091091D01*
X102998180Y-75140946D01*
X102998664Y-75199898D01*
X102999052Y-75268739D01*
X102999353Y-75348261D01*
X102999575Y-75439257D01*
X102999729Y-75542516D01*
X102999822Y-75658832D01*
X102999864Y-75788996D01*
X102999864Y-75933800D01*
X102999859Y-75971703D01*
X102999827Y-76118710D01*
X102999778Y-76250905D01*
X102999698Y-76369103D01*
X102999578Y-76474117D01*
X102999404Y-76566762D01*
X102999167Y-76647851D01*
X102998853Y-76718200D01*
X102998453Y-76778621D01*
X102997953Y-76829930D01*
X102997344Y-76872941D01*
X102996612Y-76908467D01*
X102995748Y-76937323D01*
X102994738Y-76960322D01*
X102993573Y-76978280D01*
X102992239Y-76992010D01*
X102990727Y-77002326D01*
X102989023Y-77010043D01*
X102987118Y-77015975D01*
X102985040Y-77020846D01*
X102975268Y-77035185D01*
X102955767Y-77058472D01*
X102928133Y-77089122D01*
X102893962Y-77125549D01*
X102854849Y-77166166D01*
X102812390Y-77209387D01*
X102768180Y-77253626D01*
X102723816Y-77297297D01*
X102680894Y-77338813D01*
X102641008Y-77376588D01*
X102605755Y-77409035D01*
X102576731Y-77434570D01*
X102555531Y-77451605D01*
X102545175Y-77458089D01*
X102533273Y-77461885D01*
X102516896Y-77464824D01*
X102494147Y-77467006D01*
X102463131Y-77468527D01*
X102449069Y-77468853D01*
X102421951Y-77469483D01*
G37*
X102421951Y-77469483D02*
X102368709Y-77469972D01*
X102310488Y-77470093D01*
X102248227Y-77470039D01*
X102199518Y-77469778D01*
X102162288Y-77469158D01*
X102134465Y-77468027D01*
X102113974Y-77466234D01*
X102098742Y-77463626D01*
X102086696Y-77460054D01*
X102075763Y-77455364D01*
X102069988Y-77452514D01*
X102040153Y-77432128D01*
X102019269Y-77403403D01*
X102017548Y-77400074D01*
X101999969Y-77365213D01*
X101999969Y-77220077D01*
X102249984Y-77220077D01*
X102449069Y-77220077D01*
X102599542Y-77069753D01*
X102750015Y-76919428D01*
X102750015Y-75020870D01*
X102449365Y-74719924D01*
X102249984Y-74719924D01*
X102249984Y-75094947D01*
X102322552Y-75094947D01*
X102375973Y-75097601D01*
X102416935Y-75106252D01*
X102447794Y-75121932D01*
X102470909Y-75145673D01*
X102482420Y-75164966D01*
X102492916Y-75189787D01*
X102499202Y-75212391D01*
X102500000Y-75219954D01*
X102496499Y-75238913D01*
X102487645Y-75263669D01*
X102482420Y-75274943D01*
X102462935Y-75304220D01*
X102437171Y-75324794D01*
X102402771Y-75337696D01*
X102357378Y-75343960D01*
X102322552Y-75344962D01*
X102249984Y-75344962D01*
X102249984Y-75594977D01*
X102322552Y-75594977D01*
X102375973Y-75597632D01*
X102416935Y-75606282D01*
X102447794Y-75621962D01*
X102470909Y-75645703D01*
X102482420Y-75664996D01*
X102492916Y-75689818D01*
X102499202Y-75712421D01*
X102500000Y-75719985D01*
X102496499Y-75738944D01*
X102487645Y-75763700D01*
X102482420Y-75774974D01*
X102462935Y-75804251D01*
X102437171Y-75824825D01*
X102402771Y-75837727D01*
X102357378Y-75843991D01*
X102322552Y-75844993D01*
X102249984Y-75844993D01*
X102249984Y-76095008D01*
X102322552Y-76095008D01*
X102375973Y-76097662D01*
X102416935Y-76106313D01*
X102447794Y-76121993D01*
X102470909Y-76145734D01*
X102482420Y-76165027D01*
X102492916Y-76189849D01*
X102499202Y-76212452D01*
X102500000Y-76220016D01*
X102496499Y-76238975D01*
X102487645Y-76263731D01*
X102482420Y-76275004D01*
X102462935Y-76304282D01*
X102437171Y-76324855D01*
X102402771Y-76337758D01*
X102357378Y-76344021D01*
X102322552Y-76345024D01*
X102249984Y-76345024D01*
X102249984Y-76595039D01*
X102322552Y-76595039D01*
X102375973Y-76597693D01*
X102416935Y-76606344D01*
X102447794Y-76622024D01*
X102470909Y-76645765D01*
X102482420Y-76665058D01*
X102492916Y-76689880D01*
X102499202Y-76712483D01*
X102500000Y-76720047D01*
X102496499Y-76739006D01*
X102487645Y-76763761D01*
X102482420Y-76775035D01*
X102462935Y-76804313D01*
X102437171Y-76824886D01*
X102402771Y-76837789D01*
X102357378Y-76844052D01*
X102322552Y-76845054D01*
X102249984Y-76845054D01*
X102249984Y-77220077D01*
X101999969Y-77220077D01*
X101999969Y-74574788D01*
X102017548Y-74539927D01*
X102037933Y-74510092D01*
X102066659Y-74489208D01*
X102069988Y-74487487D01*
X102081093Y-74482195D01*
X102092244Y-74478089D01*
X102105503Y-74475020D01*
X102122931Y-74472842D01*
X102146591Y-74471405D01*
X102178543Y-74470561D01*
X102220850Y-74470163D01*
X102275573Y-74470062D01*
X102312190Y-74470080D01*
X102375570Y-74470225D01*
X102425351Y-74470627D01*
X102463563Y-74471413D01*
X102492232Y-74472707D01*
X102513386Y-74474636D01*
X102529053Y-74477326D01*
X102541260Y-74480903D01*
X102550784Y-74484899D01*
X102565122Y-74494670D01*
X102588410Y-74514171D01*
X102619060Y-74541805D01*
X102655486Y-74575976D01*
X102696104Y-74615090D01*
X102739325Y-74657549D01*
X102783564Y-74701758D01*
X102827234Y-74746122D01*
X102868750Y-74789045D01*
X102906525Y-74828930D01*
X102938973Y-74864183D01*
X102964508Y-74893208D01*
X102981543Y-74914408D01*
X102988027Y-74924763D01*
X102989778Y-74930339D01*
X102991352Y-74938678D01*
X102992759Y-74950573D01*
X102994006Y-74966815D01*
X102995105Y-74988197D01*
X102996062Y-75015508D01*
X102996888Y-75049543D01*
X102997591Y-75091091D01*
X102998180Y-75140946D01*
X102998664Y-75199898D01*
X102999052Y-75268739D01*
X102999353Y-75348261D01*
X102999575Y-75439257D01*
X102999729Y-75542516D01*
X102999822Y-75658832D01*
X102999864Y-75788996D01*
X102999864Y-75933800D01*
X102999859Y-75971703D01*
X102999827Y-76118710D01*
X102999778Y-76250905D01*
X102999698Y-76369103D01*
X102999578Y-76474117D01*
X102999404Y-76566762D01*
X102999167Y-76647851D01*
X102998853Y-76718200D01*
X102998453Y-76778621D01*
X102997953Y-76829930D01*
X102997344Y-76872941D01*
X102996612Y-76908467D01*
X102995748Y-76937323D01*
X102994738Y-76960322D01*
X102993573Y-76978280D01*
X102992239Y-76992010D01*
X102990727Y-77002326D01*
X102989023Y-77010043D01*
X102987118Y-77015975D01*
X102985040Y-77020846D01*
X102975268Y-77035185D01*
X102955767Y-77058472D01*
X102928133Y-77089122D01*
X102893962Y-77125549D01*
X102854849Y-77166166D01*
X102812390Y-77209387D01*
X102768180Y-77253626D01*
X102723816Y-77297297D01*
X102680894Y-77338813D01*
X102641008Y-77376588D01*
X102605755Y-77409035D01*
X102576731Y-77434570D01*
X102555531Y-77451605D01*
X102545175Y-77458089D01*
X102533273Y-77461885D01*
X102516896Y-77464824D01*
X102494147Y-77467006D01*
X102463131Y-77468527D01*
X102449069Y-77468853D01*
X102421951Y-77469483D01*
D12*
%TO.C,C7*%
X115434970Y-77048382D02*
X115434970Y-77329542D01*
X114414970Y-77048382D02*
X114414970Y-77329542D01*
%TO.C,R65*%
X157192658Y-96772500D02*
X156718142Y-96772500D01*
X157192658Y-95727500D02*
X156718142Y-95727500D01*
%TO.C,PTC1*%
X164417258Y-52172500D02*
X163942742Y-52172500D01*
X164417258Y-51127500D02*
X163942742Y-51127500D01*
%TO.C,R56*%
X113117742Y-100827500D02*
X113592258Y-100827500D01*
X113117742Y-101872500D02*
X113592258Y-101872500D01*
%TO.C,C36*%
X186630000Y-68134420D02*
X186630000Y-68415580D01*
X187650000Y-68134420D02*
X187650000Y-68415580D01*
%TO.C,D11*%
X186545000Y-102705000D02*
X186545000Y-104975000D01*
X186545000Y-104975000D02*
X190430000Y-104975000D01*
X190430000Y-102705000D02*
X186545000Y-102705000D01*
%TO.C,R7*%
X112962470Y-80396220D02*
X112962470Y-79921704D01*
X114007470Y-80396220D02*
X114007470Y-79921704D01*
%TO.C,D3*%
X120062152Y-84003962D02*
X120062152Y-82003962D01*
X120062152Y-82003962D02*
X116162152Y-82003962D01*
X120062152Y-84003962D02*
X116162152Y-84003962D01*
%TD*%
M02*
