%TF.GenerationSoftware,KiCad,Pcbnew,(6.0.11)*%
%TF.CreationDate,2024-03-19T14:29:23-04:00*%
%TF.ProjectId,Ultrasonic Sound Steering - Remote Rev. B,556c7472-6173-46f6-9e69-6320536f756e,rev?*%
%TF.SameCoordinates,Original*%
%TF.FileFunction,Drillmap*%
%TF.FilePolarity,Positive*%
%FSLAX45Y45*%
G04 Gerber Fmt 4.5, Leading zero omitted, Abs format (unit mm)*
G04 Created by KiCad (PCBNEW (6.0.11)) date 2024-03-19 14:29:23*
%MOMM*%
%LPD*%
G01*
G04 APERTURE LIST*
%ADD10C,0.100000*%
%ADD11C,0.200000*%
%ADD12C,0.020000*%
%ADD13C,0.025000*%
%ADD14C,0.030000*%
%ADD15C,0.040000*%
%ADD16C,0.060000*%
%ADD17C,0.075000*%
%ADD18C,0.080000*%
%ADD19C,0.085000*%
%ADD20C,0.110000*%
%ADD21C,0.120000*%
%ADD22C,0.230000*%
%ADD23C,0.250000*%
%ADD24C,0.320000*%
G04 APERTURE END LIST*
D10*
X19201250Y-11407500D02*
X10250000Y-11407500D01*
D11*
X12675000Y-5297500D02*
X13340000Y-5297500D01*
X13340000Y-5297500D02*
X13340000Y-5797500D01*
X13340000Y-5797500D02*
X12675000Y-5797500D01*
X12675000Y-5797500D02*
X12675000Y-5297500D01*
D10*
X10049994Y-11217500D02*
G75*
G03*
X10250000Y-11407500I200007J10270D01*
G01*
X10249000Y-4250419D02*
G75*
G03*
X10050000Y-4449843I-160J-198841D01*
G01*
X19400421Y-4449000D02*
G75*
G03*
X19201000Y-4250000I-198841J160D01*
G01*
X19201250Y-11407501D02*
G75*
G03*
X19400250Y-11208079I160J198841D01*
G01*
X10249000Y-4250421D02*
X19201000Y-4250000D01*
X10050000Y-11217500D02*
X10050000Y-4449843D01*
X19400421Y-4449000D02*
X19399750Y-7650000D01*
X19399750Y-7650000D02*
X19400250Y-11208079D01*
D11*
D12*
X11751215Y-7867396D02*
X11771215Y-7887396D01*
X11771215Y-7867396D02*
X11751215Y-7887396D01*
X11786215Y-7792396D02*
X11806215Y-7812396D01*
X11806215Y-7792396D02*
X11786215Y-7812396D01*
X11786215Y-7942396D02*
X11806215Y-7962396D01*
X11806215Y-7942396D02*
X11786215Y-7962396D01*
X11821215Y-7867396D02*
X11841215Y-7887396D01*
X11841215Y-7867396D02*
X11821215Y-7887396D01*
D13*
X18324500Y-6329500D02*
G75*
G03*
X18324500Y-6329500I-12500J0D01*
G01*
X18324500Y-6469500D02*
G75*
G03*
X18324500Y-6469500I-12500J0D01*
G01*
X18394500Y-6259500D02*
G75*
G03*
X18394500Y-6259500I-12500J0D01*
G01*
X18394500Y-6399500D02*
G75*
G03*
X18394500Y-6399500I-12500J0D01*
G01*
X18394500Y-6539500D02*
G75*
G03*
X18394500Y-6539500I-12500J0D01*
G01*
X18464500Y-6329500D02*
G75*
G03*
X18464500Y-6329500I-12500J0D01*
G01*
X18464500Y-6469500D02*
G75*
G03*
X18464500Y-6469500I-12500J0D01*
G01*
X18534500Y-6259500D02*
G75*
G03*
X18534500Y-6259500I-12500J0D01*
G01*
X18534500Y-6399500D02*
G75*
G03*
X18534500Y-6399500I-12500J0D01*
G01*
X18534500Y-6539500D02*
G75*
G03*
X18534500Y-6539500I-12500J0D01*
G01*
X18604500Y-6329500D02*
G75*
G03*
X18604500Y-6329500I-12500J0D01*
G01*
X18604500Y-6469500D02*
G75*
G03*
X18604500Y-6469500I-12500J0D01*
G01*
D14*
X10939652Y-6579474D02*
X10939652Y-6609474D01*
X10924652Y-6594474D02*
X10954652Y-6594474D01*
X10977000Y-7344000D02*
X10977000Y-7374000D01*
X10962000Y-7359000D02*
X10992000Y-7359000D01*
X10978000Y-7442000D02*
X10978000Y-7472000D01*
X10963000Y-7457000D02*
X10993000Y-7457000D01*
X10978000Y-7542000D02*
X10978000Y-7572000D01*
X10963000Y-7557000D02*
X10993000Y-7557000D01*
X10978000Y-7651000D02*
X10978000Y-7681000D01*
X10963000Y-7666000D02*
X10993000Y-7666000D01*
X10979000Y-7749000D02*
X10979000Y-7779000D01*
X10964000Y-7764000D02*
X10994000Y-7764000D01*
X10979000Y-7849000D02*
X10979000Y-7879000D01*
X10964000Y-7864000D02*
X10994000Y-7864000D01*
X10979000Y-7949000D02*
X10979000Y-7979000D01*
X10964000Y-7964000D02*
X10994000Y-7964000D01*
X10979000Y-8044000D02*
X10979000Y-8074000D01*
X10964000Y-8059000D02*
X10994000Y-8059000D01*
X10979000Y-8151000D02*
X10979000Y-8181000D01*
X10964000Y-8166000D02*
X10994000Y-8166000D01*
X10979000Y-8251000D02*
X10979000Y-8281000D01*
X10964000Y-8266000D02*
X10994000Y-8266000D01*
X10979000Y-8346000D02*
X10979000Y-8376000D01*
X10964000Y-8361000D02*
X10994000Y-8361000D01*
X11077000Y-7344000D02*
X11077000Y-7374000D01*
X11062000Y-7359000D02*
X11092000Y-7359000D01*
X11078000Y-7442000D02*
X11078000Y-7472000D01*
X11063000Y-7457000D02*
X11093000Y-7457000D01*
X11078000Y-7542000D02*
X11078000Y-7572000D01*
X11063000Y-7557000D02*
X11093000Y-7557000D01*
X11078000Y-7651000D02*
X11078000Y-7681000D01*
X11063000Y-7666000D02*
X11093000Y-7666000D01*
X11079000Y-7749000D02*
X11079000Y-7779000D01*
X11064000Y-7764000D02*
X11094000Y-7764000D01*
X11079000Y-7849000D02*
X11079000Y-7879000D01*
X11064000Y-7864000D02*
X11094000Y-7864000D01*
X11079000Y-7949000D02*
X11079000Y-7979000D01*
X11064000Y-7964000D02*
X11094000Y-7964000D01*
X11079000Y-8044000D02*
X11079000Y-8074000D01*
X11064000Y-8059000D02*
X11094000Y-8059000D01*
X11079000Y-8151000D02*
X11079000Y-8181000D01*
X11064000Y-8166000D02*
X11094000Y-8166000D01*
X11079000Y-8251000D02*
X11079000Y-8281000D01*
X11064000Y-8266000D02*
X11094000Y-8266000D01*
X11079000Y-8346000D02*
X11079000Y-8376000D01*
X11064000Y-8361000D02*
X11094000Y-8361000D01*
X11229621Y-6353827D02*
X11229621Y-6383827D01*
X11214621Y-6368827D02*
X11244621Y-6368827D01*
X11335948Y-11017042D02*
X11335948Y-11047042D01*
X11320948Y-11032042D02*
X11350948Y-11032042D01*
X11344000Y-10385000D02*
X11344000Y-10415000D01*
X11329000Y-10400000D02*
X11359000Y-10400000D01*
X11387078Y-5859315D02*
X11387078Y-5889315D01*
X11372078Y-5874315D02*
X11402078Y-5874315D01*
X11576950Y-6272450D02*
X11576950Y-6302450D01*
X11561950Y-6287450D02*
X11591950Y-6287450D01*
X11651000Y-7270000D02*
X11651000Y-7300000D01*
X11636000Y-7285000D02*
X11666000Y-7285000D01*
X11651000Y-7370000D02*
X11651000Y-7400000D01*
X11636000Y-7385000D02*
X11666000Y-7385000D01*
X11668497Y-8088396D02*
X11668497Y-8118396D01*
X11653497Y-8103396D02*
X11683497Y-8103396D01*
X11726497Y-7504396D02*
X11726497Y-7534396D01*
X11711497Y-7519396D02*
X11741497Y-7519396D01*
X11727497Y-7620396D02*
X11727497Y-7650396D01*
X11712497Y-7635396D02*
X11742497Y-7635396D01*
X11749000Y-7269000D02*
X11749000Y-7299000D01*
X11734000Y-7284000D02*
X11764000Y-7284000D01*
X11749000Y-7369000D02*
X11749000Y-7399000D01*
X11734000Y-7384000D02*
X11764000Y-7384000D01*
X11791215Y-8088396D02*
X11791215Y-8118396D01*
X11776215Y-8103396D02*
X11806215Y-8103396D01*
X11792215Y-8215396D02*
X11792215Y-8245396D01*
X11777215Y-8230396D02*
X11807215Y-8230396D01*
X11849000Y-7269000D02*
X11849000Y-7299000D01*
X11834000Y-7284000D02*
X11864000Y-7284000D01*
X11849000Y-7369000D02*
X11849000Y-7399000D01*
X11834000Y-7384000D02*
X11864000Y-7384000D01*
X11869497Y-7621396D02*
X11869497Y-7651396D01*
X11854497Y-7636396D02*
X11884497Y-7636396D01*
X11870497Y-7502396D02*
X11870497Y-7532396D01*
X11855497Y-7517396D02*
X11885497Y-7517396D01*
X11911497Y-8088396D02*
X11911497Y-8118396D01*
X11896497Y-8103396D02*
X11926497Y-8103396D01*
X11958000Y-7269000D02*
X11958000Y-7299000D01*
X11943000Y-7284000D02*
X11973000Y-7284000D01*
X11958000Y-7369000D02*
X11958000Y-7399000D01*
X11943000Y-7384000D02*
X11973000Y-7384000D01*
X12076857Y-6601357D02*
X12076857Y-6631357D01*
X12061857Y-6616357D02*
X12091857Y-6616357D01*
X12249299Y-10681374D02*
X12249299Y-10711374D01*
X12234299Y-10696374D02*
X12264299Y-10696374D01*
X12372940Y-6605449D02*
X12372940Y-6635449D01*
X12357940Y-6620449D02*
X12387940Y-6620449D01*
X12661000Y-5955000D02*
X12661000Y-5985000D01*
X12646000Y-5970000D02*
X12676000Y-5970000D01*
X12802400Y-5955000D02*
X12802400Y-5985000D01*
X12787400Y-5970000D02*
X12817400Y-5970000D01*
X12943800Y-5955000D02*
X12943800Y-5985000D01*
X12928800Y-5970000D02*
X12958800Y-5970000D01*
X13033200Y-6635000D02*
X13033200Y-6665000D01*
X13018200Y-6650000D02*
X13048200Y-6650000D01*
X13078308Y-9810682D02*
X13078308Y-9840682D01*
X13063308Y-9825682D02*
X13093308Y-9825682D01*
X13085200Y-5955000D02*
X13085200Y-5985000D01*
X13070200Y-5970000D02*
X13100200Y-5970000D01*
X13109393Y-8708218D02*
X13109393Y-8738218D01*
X13094393Y-8723218D02*
X13124393Y-8723218D01*
X13115129Y-9330371D02*
X13115129Y-9360371D01*
X13100129Y-9345371D02*
X13130129Y-9345371D01*
X13174600Y-6635000D02*
X13174600Y-6665000D01*
X13159600Y-6650000D02*
X13189600Y-6650000D01*
X13226600Y-5955000D02*
X13226600Y-5985000D01*
X13211600Y-5970000D02*
X13241600Y-5970000D01*
X13288538Y-9323275D02*
X13288538Y-9353275D01*
X13273538Y-9338275D02*
X13303538Y-9338275D01*
X13316000Y-6635000D02*
X13316000Y-6665000D01*
X13301000Y-6650000D02*
X13331000Y-6650000D01*
X13357000Y-7262000D02*
X13357000Y-7292000D01*
X13342000Y-7277000D02*
X13372000Y-7277000D01*
X13357000Y-7362000D02*
X13357000Y-7392000D01*
X13342000Y-7377000D02*
X13372000Y-7377000D01*
X13357000Y-7471000D02*
X13357000Y-7501000D01*
X13342000Y-7486000D02*
X13372000Y-7486000D01*
X13358000Y-7569000D02*
X13358000Y-7599000D01*
X13343000Y-7584000D02*
X13373000Y-7584000D01*
X13358000Y-7669000D02*
X13358000Y-7699000D01*
X13343000Y-7684000D02*
X13373000Y-7684000D01*
X13358000Y-7769000D02*
X13358000Y-7799000D01*
X13343000Y-7784000D02*
X13373000Y-7784000D01*
X13358000Y-7864000D02*
X13358000Y-7894000D01*
X13343000Y-7879000D02*
X13373000Y-7879000D01*
X13358000Y-7971000D02*
X13358000Y-8001000D01*
X13343000Y-7986000D02*
X13373000Y-7986000D01*
X13368000Y-5955000D02*
X13368000Y-5985000D01*
X13353000Y-5970000D02*
X13383000Y-5970000D01*
X13413450Y-9642860D02*
X13413450Y-9672860D01*
X13398450Y-9657860D02*
X13428450Y-9657860D01*
X13457000Y-7262000D02*
X13457000Y-7292000D01*
X13442000Y-7277000D02*
X13472000Y-7277000D01*
X13457000Y-7362000D02*
X13457000Y-7392000D01*
X13442000Y-7377000D02*
X13472000Y-7377000D01*
X13457000Y-7471000D02*
X13457000Y-7501000D01*
X13442000Y-7486000D02*
X13472000Y-7486000D01*
X13457400Y-6635000D02*
X13457400Y-6665000D01*
X13442400Y-6650000D02*
X13472400Y-6650000D01*
X13458000Y-7569000D02*
X13458000Y-7599000D01*
X13443000Y-7584000D02*
X13473000Y-7584000D01*
X13458000Y-7669000D02*
X13458000Y-7699000D01*
X13443000Y-7684000D02*
X13473000Y-7684000D01*
X13458000Y-7769000D02*
X13458000Y-7799000D01*
X13443000Y-7784000D02*
X13473000Y-7784000D01*
X13458000Y-7864000D02*
X13458000Y-7894000D01*
X13443000Y-7879000D02*
X13473000Y-7879000D01*
X13458000Y-7971000D02*
X13458000Y-8001000D01*
X13443000Y-7986000D02*
X13473000Y-7986000D01*
X13509400Y-5955000D02*
X13509400Y-5985000D01*
X13494400Y-5970000D02*
X13524400Y-5970000D01*
X13598800Y-6635000D02*
X13598800Y-6665000D01*
X13583800Y-6650000D02*
X13613800Y-6650000D01*
X13650800Y-5955000D02*
X13650800Y-5985000D01*
X13635800Y-5970000D02*
X13665800Y-5970000D01*
X13740200Y-6635000D02*
X13740200Y-6665000D01*
X13725200Y-6650000D02*
X13755200Y-6650000D01*
X13792200Y-5955000D02*
X13792200Y-5985000D01*
X13777200Y-5970000D02*
X13807200Y-5970000D01*
X13831300Y-10675986D02*
X13831300Y-10705986D01*
X13816300Y-10690986D02*
X13846300Y-10690986D01*
X13881600Y-6635000D02*
X13881600Y-6665000D01*
X13866600Y-6650000D02*
X13896600Y-6650000D01*
X13933600Y-5955000D02*
X13933600Y-5985000D01*
X13918600Y-5970000D02*
X13948600Y-5970000D01*
X14023000Y-6635000D02*
X14023000Y-6665000D01*
X14008000Y-6650000D02*
X14038000Y-6650000D01*
X14075000Y-5955000D02*
X14075000Y-5985000D01*
X14060000Y-5970000D02*
X14090000Y-5970000D01*
X14164400Y-6635000D02*
X14164400Y-6665000D01*
X14149400Y-6650000D02*
X14179400Y-6650000D01*
X14212500Y-5035000D02*
X14212500Y-5065000D01*
X14197500Y-5050000D02*
X14227500Y-5050000D01*
X14305800Y-6635000D02*
X14305800Y-6665000D01*
X14290800Y-6650000D02*
X14320800Y-6650000D01*
X14372000Y-8358000D02*
X14372000Y-8388000D01*
X14357000Y-8373000D02*
X14387000Y-8373000D01*
X14420000Y-7211000D02*
X14420000Y-7241000D01*
X14405000Y-7226000D02*
X14435000Y-7226000D01*
X14428200Y-7301287D02*
X14428200Y-7331287D01*
X14413200Y-7316287D02*
X14443200Y-7316287D01*
X14435447Y-7121667D02*
X14435447Y-7151667D01*
X14420447Y-7136667D02*
X14450447Y-7136667D01*
X14447200Y-6635000D02*
X14447200Y-6665000D01*
X14432200Y-6650000D02*
X14462200Y-6650000D01*
X14459489Y-7386376D02*
X14459489Y-7416376D01*
X14444489Y-7401376D02*
X14474489Y-7401376D01*
X14472000Y-8258000D02*
X14472000Y-8288000D01*
X14457000Y-8273000D02*
X14487000Y-8273000D01*
X14473489Y-7039376D02*
X14473489Y-7069376D01*
X14458489Y-7054376D02*
X14488489Y-7054376D01*
X14511734Y-7460467D02*
X14511734Y-7490467D01*
X14496734Y-7475467D02*
X14526734Y-7475467D01*
X14531533Y-6969734D02*
X14531533Y-6999734D01*
X14516533Y-6984734D02*
X14546533Y-6984734D01*
X14572000Y-8158000D02*
X14572000Y-8188000D01*
X14557000Y-8173000D02*
X14587000Y-8173000D01*
X14581376Y-7518511D02*
X14581376Y-7548511D01*
X14566376Y-7533511D02*
X14596376Y-7533511D01*
X14588600Y-6635000D02*
X14588600Y-6665000D01*
X14573600Y-6650000D02*
X14603600Y-6650000D01*
X14603194Y-5783306D02*
X14603194Y-5813306D01*
X14588194Y-5798306D02*
X14618194Y-5798306D01*
X14605624Y-6917489D02*
X14605624Y-6947489D01*
X14590624Y-6932489D02*
X14620624Y-6932489D01*
X14663667Y-7556553D02*
X14663667Y-7586553D01*
X14648667Y-7571553D02*
X14678667Y-7571553D01*
X14672000Y-8058000D02*
X14672000Y-8088000D01*
X14657000Y-8073000D02*
X14687000Y-8073000D01*
X14690713Y-6886200D02*
X14690713Y-6916200D01*
X14675713Y-6901200D02*
X14705713Y-6901200D01*
X14730000Y-6635000D02*
X14730000Y-6665000D01*
X14715000Y-6650000D02*
X14745000Y-6650000D01*
X14753000Y-7572000D02*
X14753000Y-7602000D01*
X14738000Y-7587000D02*
X14768000Y-7587000D01*
X14772000Y-7958000D02*
X14772000Y-7988000D01*
X14757000Y-7973000D02*
X14787000Y-7973000D01*
X14781000Y-6878000D02*
X14781000Y-6908000D01*
X14766000Y-6893000D02*
X14796000Y-6893000D01*
X14792588Y-5769906D02*
X14792588Y-5799906D01*
X14777588Y-5784906D02*
X14807588Y-5784906D01*
X14807500Y-5057000D02*
X14807500Y-5087000D01*
X14792500Y-5072000D02*
X14822500Y-5072000D01*
X14812000Y-8879000D02*
X14812000Y-8909000D01*
X14797000Y-8894000D02*
X14827000Y-8894000D01*
X14843287Y-7563800D02*
X14843287Y-7593800D01*
X14828287Y-7578800D02*
X14858287Y-7578800D01*
X14855500Y-5008000D02*
X14855500Y-5038000D01*
X14840500Y-5023000D02*
X14870500Y-5023000D01*
X14870333Y-6893447D02*
X14870333Y-6923447D01*
X14855333Y-6908447D02*
X14885333Y-6908447D01*
X14872000Y-7858000D02*
X14872000Y-7888000D01*
X14857000Y-7873000D02*
X14887000Y-7873000D01*
X14911500Y-4623250D02*
X14911500Y-4653250D01*
X14896500Y-4638250D02*
X14926500Y-4638250D01*
X14912000Y-8779000D02*
X14912000Y-8809000D01*
X14897000Y-8794000D02*
X14927000Y-8794000D01*
X14928376Y-7532511D02*
X14928376Y-7562511D01*
X14913376Y-7547511D02*
X14943376Y-7547511D01*
X14952624Y-6931489D02*
X14952624Y-6961489D01*
X14937624Y-6946489D02*
X14967624Y-6946489D01*
X14960500Y-5011450D02*
X14960500Y-5041450D01*
X14945500Y-5026450D02*
X14975500Y-5026450D01*
X14972000Y-7758000D02*
X14972000Y-7788000D01*
X14957000Y-7773000D02*
X14987000Y-7773000D01*
X15002467Y-7480265D02*
X15002467Y-7510265D01*
X14987467Y-7495265D02*
X15017467Y-7495265D01*
X15012000Y-8679000D02*
X15012000Y-8709000D01*
X14997000Y-8694000D02*
X15027000Y-8694000D01*
X15022265Y-6989533D02*
X15022265Y-7019533D01*
X15007265Y-7004533D02*
X15037265Y-7004533D01*
X15025000Y-11085000D02*
X15025000Y-11115000D01*
X15010000Y-11100000D02*
X15040000Y-11100000D01*
X15052882Y-5643030D02*
X15052882Y-5673030D01*
X15037882Y-5658030D02*
X15067882Y-5658030D01*
X15060511Y-7410624D02*
X15060511Y-7440624D01*
X15045511Y-7425624D02*
X15075511Y-7425624D01*
X15072000Y-7658000D02*
X15072000Y-7688000D01*
X15057000Y-7673000D02*
X15087000Y-7673000D01*
X15074511Y-7063624D02*
X15074511Y-7093624D01*
X15059511Y-7078624D02*
X15089511Y-7078624D01*
X15098553Y-7328333D02*
X15098553Y-7358333D01*
X15083553Y-7343333D02*
X15113553Y-7343333D01*
X15105800Y-7148713D02*
X15105800Y-7178713D01*
X15090800Y-7163713D02*
X15120800Y-7163713D01*
X15112000Y-8579000D02*
X15112000Y-8609000D01*
X15097000Y-8594000D02*
X15127000Y-8594000D01*
X15114000Y-7239000D02*
X15114000Y-7269000D01*
X15099000Y-7254000D02*
X15129000Y-7254000D01*
X15172000Y-7558000D02*
X15172000Y-7588000D01*
X15157000Y-7573000D02*
X15187000Y-7573000D01*
X15186500Y-5437000D02*
X15186500Y-5467000D01*
X15171500Y-5452000D02*
X15201500Y-5452000D01*
X15206161Y-10379404D02*
X15206161Y-10409404D01*
X15191161Y-10394404D02*
X15221161Y-10394404D01*
X15212000Y-8479000D02*
X15212000Y-8509000D01*
X15197000Y-8494000D02*
X15227000Y-8494000D01*
X15256500Y-5435000D02*
X15256500Y-5465000D01*
X15241500Y-5450000D02*
X15271500Y-5450000D01*
X15272000Y-7458000D02*
X15272000Y-7488000D01*
X15257000Y-7473000D02*
X15287000Y-7473000D01*
X15312000Y-8379000D02*
X15312000Y-8409000D01*
X15297000Y-8394000D02*
X15327000Y-8394000D01*
X15342500Y-5768000D02*
X15342500Y-5798000D01*
X15327500Y-5783000D02*
X15357500Y-5783000D01*
X15372000Y-7358000D02*
X15372000Y-7388000D01*
X15357000Y-7373000D02*
X15387000Y-7373000D01*
X15378000Y-8730000D02*
X15378000Y-8760000D01*
X15363000Y-8745000D02*
X15393000Y-8745000D01*
X15379000Y-8838000D02*
X15379000Y-8868000D01*
X15364000Y-8853000D02*
X15394000Y-8853000D01*
X15379000Y-8935000D02*
X15379000Y-8965000D01*
X15364000Y-8950000D02*
X15394000Y-8950000D01*
X15379000Y-9038000D02*
X15379000Y-9068000D01*
X15364000Y-9053000D02*
X15394000Y-9053000D01*
X15380000Y-9144000D02*
X15380000Y-9174000D01*
X15365000Y-9159000D02*
X15395000Y-9159000D01*
X15396500Y-5840550D02*
X15396500Y-5870550D01*
X15381500Y-5855550D02*
X15411500Y-5855550D01*
X15412000Y-8279000D02*
X15412000Y-8309000D01*
X15397000Y-8294000D02*
X15427000Y-8294000D01*
X15412197Y-5770947D02*
X15412197Y-5800947D01*
X15397197Y-5785947D02*
X15427197Y-5785947D01*
X15470053Y-6669422D02*
X15470053Y-6699422D01*
X15455053Y-6684422D02*
X15485053Y-6684422D01*
X15472000Y-7258000D02*
X15472000Y-7288000D01*
X15457000Y-7273000D02*
X15487000Y-7273000D01*
X15495998Y-4860502D02*
X15495998Y-4890502D01*
X15480998Y-4875502D02*
X15510998Y-4875502D01*
X15512000Y-8179000D02*
X15512000Y-8209000D01*
X15497000Y-8194000D02*
X15527000Y-8194000D01*
X15572000Y-7158000D02*
X15572000Y-7188000D01*
X15557000Y-7173000D02*
X15587000Y-7173000D01*
X15584000Y-8729000D02*
X15584000Y-8759000D01*
X15569000Y-8744000D02*
X15599000Y-8744000D01*
X15584000Y-9036000D02*
X15584000Y-9066000D01*
X15569000Y-9051000D02*
X15599000Y-9051000D01*
X15585000Y-8836000D02*
X15585000Y-8866000D01*
X15570000Y-8851000D02*
X15600000Y-8851000D01*
X15585000Y-8935000D02*
X15585000Y-8965000D01*
X15570000Y-8950000D02*
X15600000Y-8950000D01*
X15587000Y-9142000D02*
X15587000Y-9172000D01*
X15572000Y-9157000D02*
X15602000Y-9157000D01*
X15612000Y-8080000D02*
X15612000Y-8110000D01*
X15597000Y-8095000D02*
X15627000Y-8095000D01*
X15672000Y-7058000D02*
X15672000Y-7088000D01*
X15657000Y-7073000D02*
X15687000Y-7073000D01*
X15712000Y-7980000D02*
X15712000Y-8010000D01*
X15697000Y-7995000D02*
X15727000Y-7995000D01*
X15772000Y-6958000D02*
X15772000Y-6988000D01*
X15757000Y-6973000D02*
X15787000Y-6973000D01*
X15829435Y-8209084D02*
X15829435Y-8239084D01*
X15814435Y-8224084D02*
X15844435Y-8224084D01*
X16245262Y-8910646D02*
X16245262Y-8940646D01*
X16230262Y-8925646D02*
X16260262Y-8925646D01*
X16784000Y-9495000D02*
X16784000Y-9525000D01*
X16769000Y-9510000D02*
X16799000Y-9510000D01*
X16903163Y-8896898D02*
X16903163Y-8926898D01*
X16888163Y-8911898D02*
X16918163Y-8911898D01*
X16938000Y-7919000D02*
X16938000Y-7949000D01*
X16923000Y-7934000D02*
X16953000Y-7934000D01*
X17230529Y-5358000D02*
X17230529Y-5388000D01*
X17215529Y-5373000D02*
X17245529Y-5373000D01*
X17263897Y-6999550D02*
X17263897Y-7029550D01*
X17248897Y-7014550D02*
X17278897Y-7014550D01*
X17296000Y-5698450D02*
X17296000Y-5728450D01*
X17281000Y-5713450D02*
X17311000Y-5713450D01*
X17468197Y-9306173D02*
X17468197Y-9336173D01*
X17453197Y-9321173D02*
X17483197Y-9321173D01*
X17512234Y-6933948D02*
X17512234Y-6963948D01*
X17497234Y-6948948D02*
X17527234Y-6948948D01*
X17670000Y-6817000D02*
X17670000Y-6847000D01*
X17655000Y-6832000D02*
X17685000Y-6832000D01*
X17703000Y-5556000D02*
X17703000Y-5586000D01*
X17688000Y-5571000D02*
X17718000Y-5571000D01*
X17718000Y-6715000D02*
X17718000Y-6745000D01*
X17703000Y-6730000D02*
X17733000Y-6730000D01*
X17745000Y-9154000D02*
X17745000Y-9184000D01*
X17730000Y-9169000D02*
X17760000Y-9169000D01*
X17745000Y-9251000D02*
X17745000Y-9281000D01*
X17730000Y-9266000D02*
X17760000Y-9266000D01*
X17745000Y-9354000D02*
X17745000Y-9384000D01*
X17730000Y-9369000D02*
X17760000Y-9369000D01*
X17783000Y-4712000D02*
X17783000Y-4742000D01*
X17768000Y-4727000D02*
X17798000Y-4727000D01*
X17838137Y-8909174D02*
X17838137Y-8939174D01*
X17823137Y-8924174D02*
X17853137Y-8924174D01*
X17885000Y-4710000D02*
X17885000Y-4740000D01*
X17870000Y-4725000D02*
X17900000Y-4725000D01*
X17937821Y-8999037D02*
X17937821Y-9029037D01*
X17922821Y-9014037D02*
X17952821Y-9014037D01*
X17950000Y-9352000D02*
X17950000Y-9382000D01*
X17935000Y-9367000D02*
X17965000Y-9367000D01*
X17951000Y-9152000D02*
X17951000Y-9182000D01*
X17936000Y-9167000D02*
X17966000Y-9167000D01*
X17951000Y-9251000D02*
X17951000Y-9281000D01*
X17936000Y-9266000D02*
X17966000Y-9266000D01*
X17987728Y-6708550D02*
X17987728Y-6738550D01*
X17972728Y-6723550D02*
X18002728Y-6723550D01*
X17998000Y-4712000D02*
X17998000Y-4742000D01*
X17983000Y-4727000D02*
X18013000Y-4727000D01*
X18030000Y-4886000D02*
X18030000Y-4916000D01*
X18015000Y-4901000D02*
X18045000Y-4901000D01*
X18033000Y-8898950D02*
X18033000Y-8928950D01*
X18018000Y-8913950D02*
X18048000Y-8913950D01*
X18054000Y-4795000D02*
X18054000Y-4825000D01*
X18039000Y-4810000D02*
X18069000Y-4810000D01*
X18124502Y-5594206D02*
X18124502Y-5624206D01*
X18109502Y-5609206D02*
X18139502Y-5609206D01*
X18138000Y-6683000D02*
X18138000Y-6713000D01*
X18123000Y-6698000D02*
X18153000Y-6698000D01*
X18191997Y-7642669D02*
X18191997Y-7672669D01*
X18176997Y-7657669D02*
X18206997Y-7657669D01*
X18429950Y-5544000D02*
X18429950Y-5574000D01*
X18414950Y-5559000D02*
X18444950Y-5559000D01*
X18487285Y-9396266D02*
X18487285Y-9426266D01*
X18472285Y-9411266D02*
X18502285Y-9411266D01*
X18489554Y-5117550D02*
X18489554Y-5147550D01*
X18474554Y-5132550D02*
X18504554Y-5132550D01*
X18683226Y-5553681D02*
X18683226Y-5583681D01*
X18668226Y-5568681D02*
X18698226Y-5568681D01*
X18752000Y-5007000D02*
X18752000Y-5037000D01*
X18737000Y-5022000D02*
X18767000Y-5022000D01*
X18856000Y-10266000D02*
X18856000Y-10296000D01*
X18841000Y-10281000D02*
X18871000Y-10281000D01*
X18857000Y-9990000D02*
X18857000Y-10020000D01*
X18842000Y-10005000D02*
X18872000Y-10005000D01*
X18858454Y-9697765D02*
X18858454Y-9727765D01*
X18843454Y-9712765D02*
X18873454Y-9712765D01*
X18964000Y-6518050D02*
X18964000Y-6548050D01*
X18949000Y-6533050D02*
X18979000Y-6533050D01*
X19033317Y-5089165D02*
X19033317Y-5119165D01*
X19018317Y-5104165D02*
X19048317Y-5104165D01*
X19065279Y-5564512D02*
X19065279Y-5594512D01*
X19050279Y-5579512D02*
X19080279Y-5579512D01*
X19298712Y-9613493D02*
X19298712Y-9643493D01*
X19283712Y-9628493D02*
X19313712Y-9628493D01*
X19301692Y-10182588D02*
X19301692Y-10212588D01*
X19286692Y-10197588D02*
X19316692Y-10197588D01*
X19303843Y-9969484D02*
X19303843Y-9999484D01*
X19288843Y-9984484D02*
X19318843Y-9984484D01*
D15*
X10819142Y-10681588D02*
X10819142Y-10653304D01*
X10790858Y-10653304D01*
X10790858Y-10681588D01*
X10819142Y-10681588D01*
X10831142Y-11144142D02*
X10831142Y-11115858D01*
X10802858Y-11115858D01*
X10802858Y-11144142D01*
X10831142Y-11144142D01*
X10995142Y-6523142D02*
X10995142Y-6494858D01*
X10966858Y-6494858D01*
X10966858Y-6523142D01*
X10995142Y-6523142D01*
X11089142Y-11064142D02*
X11089142Y-11035858D01*
X11060858Y-11035858D01*
X11060858Y-11064142D01*
X11089142Y-11064142D01*
X11100642Y-10394142D02*
X11100642Y-10365858D01*
X11072358Y-10365858D01*
X11072358Y-10394142D01*
X11100642Y-10394142D01*
X11205142Y-8360142D02*
X11205142Y-8331858D01*
X11176858Y-8331858D01*
X11176858Y-8360142D01*
X11205142Y-8360142D01*
X11214639Y-7539538D02*
X11214639Y-7511254D01*
X11186355Y-7511254D01*
X11186355Y-7539538D01*
X11214639Y-7539538D01*
X11255142Y-11045611D02*
X11255142Y-11017327D01*
X11226858Y-11017327D01*
X11226858Y-11045611D01*
X11255142Y-11045611D01*
X11267336Y-10386396D02*
X11267336Y-10358111D01*
X11239052Y-10358111D01*
X11239052Y-10386396D01*
X11267336Y-10386396D01*
X11336092Y-6311592D02*
X11336092Y-6283308D01*
X11307808Y-6283308D01*
X11307808Y-6311592D01*
X11336092Y-6311592D01*
X11362639Y-7545538D02*
X11362639Y-7517254D01*
X11334355Y-7517254D01*
X11334355Y-7545538D01*
X11362639Y-7545538D01*
X11496142Y-5886142D02*
X11496142Y-5857858D01*
X11467858Y-5857858D01*
X11467858Y-5886142D01*
X11496142Y-5886142D01*
X11496142Y-6311592D02*
X11496142Y-6283308D01*
X11467858Y-6283308D01*
X11467858Y-6311592D01*
X11496142Y-6311592D01*
X11508639Y-7550538D02*
X11508639Y-7522254D01*
X11480355Y-7522254D01*
X11480355Y-7550538D01*
X11508639Y-7550538D01*
X11522639Y-8335539D02*
X11522639Y-8307254D01*
X11494355Y-8307254D01*
X11494355Y-8335539D01*
X11522639Y-8335539D01*
X11609639Y-8040538D02*
X11609639Y-8012254D01*
X11581355Y-8012254D01*
X11581355Y-8040538D01*
X11609639Y-8040538D01*
X11894142Y-5886142D02*
X11894142Y-5857858D01*
X11865858Y-5857858D01*
X11865858Y-5886142D01*
X11894142Y-5886142D01*
X11896742Y-6311592D02*
X11896742Y-6283308D01*
X11868458Y-6283308D01*
X11868458Y-6311592D01*
X11896742Y-6311592D01*
X12091142Y-6315142D02*
X12091142Y-6286858D01*
X12062858Y-6286858D01*
X12062858Y-6315142D01*
X12091142Y-6315142D01*
X12099142Y-5883142D02*
X12099142Y-5854858D01*
X12070858Y-5854858D01*
X12070858Y-5883142D01*
X12099142Y-5883142D01*
X12104357Y-7984538D02*
X12104357Y-7956254D01*
X12076073Y-7956254D01*
X12076073Y-7984538D01*
X12104357Y-7984538D01*
X12120357Y-7556538D02*
X12120357Y-7528254D01*
X12092073Y-7528254D01*
X12092073Y-7556538D01*
X12120357Y-7556538D01*
X12151357Y-8107538D02*
X12151357Y-8079254D01*
X12123073Y-8079254D01*
X12123073Y-8107538D01*
X12151357Y-8107538D01*
X12185942Y-6629323D02*
X12185942Y-6601039D01*
X12157658Y-6601039D01*
X12157658Y-6629323D01*
X12185942Y-6629323D01*
X12197639Y-8853139D02*
X12197639Y-8824854D01*
X12169355Y-8824854D01*
X12169355Y-8853139D01*
X12197639Y-8853139D01*
X12267357Y-7552538D02*
X12267357Y-7524254D01*
X12239073Y-7524254D01*
X12239073Y-7552538D01*
X12267357Y-7552538D01*
X12291532Y-6633173D02*
X12291532Y-6604889D01*
X12263247Y-6604889D01*
X12263247Y-6633173D01*
X12291532Y-6633173D01*
X12358142Y-10703642D02*
X12358142Y-10675358D01*
X12329858Y-10675358D01*
X12329858Y-10703642D01*
X12358142Y-10703642D01*
X12415639Y-7553538D02*
X12415639Y-7525254D01*
X12387355Y-7525254D01*
X12387355Y-7553538D01*
X12415639Y-7553538D01*
X12476357Y-7984538D02*
X12476357Y-7956254D01*
X12448073Y-7956254D01*
X12448073Y-7984538D01*
X12476357Y-7984538D01*
X12523142Y-10692142D02*
X12523142Y-10663858D01*
X12494858Y-10663858D01*
X12494858Y-10692142D01*
X12523142Y-10692142D01*
X12539142Y-8999142D02*
X12539142Y-8970858D01*
X12510858Y-8970858D01*
X12510858Y-8999142D01*
X12539142Y-8999142D01*
X12968142Y-9759142D02*
X12968142Y-9730858D01*
X12939858Y-9730858D01*
X12939858Y-9759142D01*
X12968142Y-9759142D01*
X12976592Y-9177948D02*
X12976592Y-9149663D01*
X12948308Y-9149663D01*
X12948308Y-9177948D01*
X12976592Y-9177948D01*
X13011877Y-8830692D02*
X13011877Y-8802408D01*
X12983592Y-8802408D01*
X12983592Y-8830692D01*
X13011877Y-8830692D01*
X13034602Y-9352213D02*
X13034602Y-9323929D01*
X13006318Y-9323929D01*
X13006318Y-9352213D01*
X13034602Y-9352213D01*
X13080245Y-9194402D02*
X13080245Y-9166118D01*
X13051960Y-9166118D01*
X13051960Y-9194402D01*
X13080245Y-9194402D01*
X13083772Y-10038098D02*
X13083772Y-10009813D01*
X13055488Y-10009813D01*
X13055488Y-10038098D01*
X13083772Y-10038098D01*
X13086692Y-9744642D02*
X13086692Y-9716358D01*
X13058408Y-9716358D01*
X13058408Y-9744642D01*
X13086692Y-9744642D01*
X13168142Y-9446142D02*
X13168142Y-9417858D01*
X13139858Y-9417858D01*
X13139858Y-9446142D01*
X13168142Y-9446142D01*
X13186892Y-10926642D02*
X13186892Y-10898358D01*
X13158608Y-10898358D01*
X13158608Y-10926642D01*
X13186892Y-10926642D01*
X13230182Y-9291102D02*
X13230182Y-9262818D01*
X13201898Y-9262818D01*
X13201898Y-9291102D01*
X13230182Y-9291102D01*
X13241592Y-9740732D02*
X13241592Y-9712448D01*
X13213308Y-9712448D01*
X13213308Y-9740732D01*
X13241592Y-9740732D01*
X13296142Y-9447142D02*
X13296142Y-9418858D01*
X13267858Y-9418858D01*
X13267858Y-9447142D01*
X13296142Y-9447142D01*
X13311142Y-9842142D02*
X13311142Y-9813858D01*
X13282858Y-9813858D01*
X13282858Y-9842142D01*
X13311142Y-9842142D01*
X13360142Y-9742142D02*
X13360142Y-9713858D01*
X13331858Y-9713858D01*
X13331858Y-9742142D01*
X13360142Y-9742142D01*
X13401523Y-9429821D02*
X13401523Y-9401536D01*
X13373239Y-9401536D01*
X13373239Y-9429821D01*
X13401523Y-9429821D01*
X13512642Y-9262642D02*
X13512642Y-9234358D01*
X13484358Y-9234358D01*
X13484358Y-9262642D01*
X13512642Y-9262642D01*
X13569142Y-5771142D02*
X13569142Y-5742858D01*
X13540858Y-5742858D01*
X13540858Y-5771142D01*
X13569142Y-5771142D01*
X13752802Y-9148142D02*
X13752802Y-9119858D01*
X13724517Y-9119858D01*
X13724517Y-9148142D01*
X13752802Y-9148142D01*
X13756961Y-8999142D02*
X13756961Y-8970858D01*
X13728677Y-8970858D01*
X13728677Y-8999142D01*
X13756961Y-8999142D01*
X13882142Y-8987142D02*
X13882142Y-8958858D01*
X13853858Y-8958858D01*
X13853858Y-8987142D01*
X13882142Y-8987142D01*
X13940392Y-10705267D02*
X13940392Y-10676983D01*
X13912108Y-10676983D01*
X13912108Y-10705267D01*
X13940392Y-10705267D01*
X14023142Y-5392642D02*
X14023142Y-5364358D01*
X13994858Y-5364358D01*
X13994858Y-5392642D01*
X14023142Y-5392642D01*
X14024642Y-5531142D02*
X14024642Y-5502858D01*
X13996358Y-5502858D01*
X13996358Y-5531142D01*
X14024642Y-5531142D01*
X14095392Y-10712767D02*
X14095392Y-10684483D01*
X14067108Y-10684483D01*
X14067108Y-10712767D01*
X14095392Y-10712767D01*
X14292642Y-5126142D02*
X14292642Y-5097858D01*
X14264358Y-5097858D01*
X14264358Y-5126142D01*
X14292642Y-5126142D01*
X14317642Y-4871142D02*
X14317642Y-4842858D01*
X14289358Y-4842858D01*
X14289358Y-4871142D01*
X14317642Y-4871142D01*
X14387512Y-5485012D02*
X14387512Y-5456728D01*
X14359227Y-5456728D01*
X14359227Y-5485012D01*
X14387512Y-5485012D01*
X14392142Y-5387642D02*
X14392142Y-5359358D01*
X14363858Y-5359358D01*
X14363858Y-5387642D01*
X14392142Y-5387642D01*
X14438642Y-5059142D02*
X14438642Y-5030858D01*
X14410358Y-5030858D01*
X14410358Y-5059142D01*
X14438642Y-5059142D01*
X14540642Y-5084142D02*
X14540642Y-5055858D01*
X14512358Y-5055858D01*
X14512358Y-5084142D01*
X14540642Y-5084142D01*
X14711907Y-5803966D02*
X14711907Y-5775681D01*
X14683623Y-5775681D01*
X14683623Y-5803966D01*
X14711907Y-5803966D01*
X14717142Y-10926642D02*
X14717142Y-10898358D01*
X14688858Y-10898358D01*
X14688858Y-10926642D01*
X14717142Y-10926642D01*
X14755642Y-5400012D02*
X14755642Y-5371727D01*
X14727358Y-5371727D01*
X14727358Y-5400012D01*
X14755642Y-5400012D01*
X14866142Y-6656142D02*
X14866142Y-6627858D01*
X14837858Y-6627858D01*
X14837858Y-6656142D01*
X14866142Y-6656142D01*
X14901645Y-5796441D02*
X14901645Y-5768156D01*
X14873360Y-5768156D01*
X14873360Y-5796441D01*
X14901645Y-5796441D01*
X14947142Y-11053142D02*
X14947142Y-11024858D01*
X14918858Y-11024858D01*
X14918858Y-11053142D01*
X14947142Y-11053142D01*
X14959642Y-10414742D02*
X14959642Y-10386458D01*
X14931358Y-10386458D01*
X14931358Y-10414742D01*
X14959642Y-10414742D01*
X14994862Y-5610462D02*
X14994862Y-5582177D01*
X14966577Y-5582177D01*
X14966577Y-5610462D01*
X14994862Y-5610462D01*
X15031642Y-5093142D02*
X15031642Y-5064858D01*
X15003358Y-5064858D01*
X15003358Y-5093142D01*
X15031642Y-5093142D01*
X15094642Y-5436142D02*
X15094642Y-5407858D01*
X15066358Y-5407858D01*
X15066358Y-5436142D01*
X15094642Y-5436142D01*
X15115392Y-11040494D02*
X15115392Y-11012209D01*
X15087108Y-11012209D01*
X15087108Y-11040494D01*
X15115392Y-11040494D01*
X15119642Y-5050592D02*
X15119642Y-5022308D01*
X15091358Y-5022308D01*
X15091358Y-5050592D01*
X15119642Y-5050592D01*
X15125642Y-10401142D02*
X15125642Y-10372858D01*
X15097358Y-10372858D01*
X15097358Y-10401142D01*
X15125642Y-10401142D01*
X15238642Y-4746142D02*
X15238642Y-4717858D01*
X15210358Y-4717858D01*
X15210358Y-4746142D01*
X15238642Y-4746142D01*
X15274692Y-5559006D02*
X15274692Y-5530722D01*
X15246408Y-5530722D01*
X15246408Y-5559006D01*
X15274692Y-5559006D01*
X15371642Y-5172142D02*
X15371642Y-5143858D01*
X15343358Y-5143858D01*
X15343358Y-5172142D01*
X15371642Y-5172142D01*
X15393669Y-5709094D02*
X15393669Y-5680809D01*
X15365385Y-5680809D01*
X15365385Y-5709094D01*
X15393669Y-5709094D01*
X15494630Y-5918190D02*
X15494630Y-5889906D01*
X15466346Y-5889906D01*
X15466346Y-5918190D01*
X15494630Y-5918190D01*
X15496834Y-4999449D02*
X15496834Y-4971165D01*
X15468550Y-4971165D01*
X15468550Y-4999449D01*
X15496834Y-4999449D01*
X15501642Y-4730142D02*
X15501642Y-4701858D01*
X15473358Y-4701858D01*
X15473358Y-4730142D01*
X15501642Y-4730142D01*
X15519891Y-5816326D02*
X15519891Y-5788041D01*
X15491607Y-5788041D01*
X15491607Y-5816326D01*
X15519891Y-5816326D01*
X15569142Y-6656142D02*
X15569142Y-6627858D01*
X15540858Y-6627858D01*
X15540858Y-6656142D01*
X15569142Y-6656142D01*
X15617142Y-4759142D02*
X15617142Y-4730858D01*
X15588858Y-4730858D01*
X15588858Y-4759142D01*
X15617142Y-4759142D01*
X15624742Y-5820889D02*
X15624742Y-5792605D01*
X15596458Y-5792605D01*
X15596458Y-5820889D01*
X15624742Y-5820889D01*
X15627142Y-9509642D02*
X15627142Y-9481358D01*
X15598858Y-9481358D01*
X15598858Y-9509642D01*
X15627142Y-9509642D01*
X15695142Y-9844642D02*
X15695142Y-9816358D01*
X15666858Y-9816358D01*
X15666858Y-9844642D01*
X15695142Y-9844642D01*
X15765642Y-4764642D02*
X15765642Y-4736358D01*
X15737358Y-4736358D01*
X15737358Y-4764642D01*
X15765642Y-4764642D01*
X15842142Y-8674142D02*
X15842142Y-8645858D01*
X15813858Y-8645858D01*
X15813858Y-8674142D01*
X15842142Y-8674142D01*
X15846142Y-8333142D02*
X15846142Y-8304858D01*
X15817858Y-8304858D01*
X15817858Y-8333142D01*
X15846142Y-8333142D01*
X15850908Y-8050908D02*
X15850908Y-8022623D01*
X15822623Y-8022623D01*
X15822623Y-8050908D01*
X15850908Y-8050908D01*
X15884142Y-6904142D02*
X15884142Y-6875858D01*
X15855858Y-6875858D01*
X15855858Y-6904142D01*
X15884142Y-6904142D01*
X16000142Y-5291142D02*
X16000142Y-5262858D01*
X15971858Y-5262858D01*
X15971858Y-5291142D01*
X16000142Y-5291142D01*
X16206803Y-8240471D02*
X16206803Y-8212186D01*
X16178519Y-8212186D01*
X16178519Y-8240471D01*
X16206803Y-8240471D01*
X16262682Y-9034682D02*
X16262682Y-9006398D01*
X16234398Y-9006398D01*
X16234398Y-9034682D01*
X16262682Y-9034682D01*
X16309978Y-5289285D02*
X16309978Y-5261000D01*
X16281693Y-5261000D01*
X16281693Y-5289285D01*
X16309978Y-5289285D01*
X16364642Y-8957142D02*
X16364642Y-8928858D01*
X16336358Y-8928858D01*
X16336358Y-8957142D01*
X16364642Y-8957142D01*
X16364642Y-8132142D02*
X16364642Y-8103858D01*
X16336358Y-8103858D01*
X16336358Y-8132142D01*
X16364642Y-8132142D01*
X16523142Y-7451142D02*
X16523142Y-7422858D01*
X16494858Y-7422858D01*
X16494858Y-7451142D01*
X16523142Y-7451142D01*
X16530142Y-8234642D02*
X16530142Y-8206358D01*
X16501858Y-8206358D01*
X16501858Y-8234642D01*
X16530142Y-8234642D01*
X16891142Y-8233642D02*
X16891142Y-8205358D01*
X16862858Y-8205358D01*
X16862858Y-8233642D01*
X16891142Y-8233642D01*
X16894142Y-7662142D02*
X16894142Y-7633858D01*
X16865858Y-7633858D01*
X16865858Y-7662142D01*
X16894142Y-7662142D01*
X16897142Y-8384142D02*
X16897142Y-8355858D01*
X16868858Y-8355858D01*
X16868858Y-8384142D01*
X16897142Y-8384142D01*
X16897682Y-9510851D02*
X16897682Y-9482566D01*
X16869398Y-9482566D01*
X16869398Y-9510851D01*
X16897682Y-9510851D01*
X16913142Y-7531142D02*
X16913142Y-7502858D01*
X16884858Y-7502858D01*
X16884858Y-7531142D01*
X16913142Y-7531142D01*
X16914142Y-8831142D02*
X16914142Y-8802858D01*
X16885858Y-8802858D01*
X16885858Y-8831142D01*
X16914142Y-8831142D01*
X16920142Y-8038142D02*
X16920142Y-8009858D01*
X16891858Y-8009858D01*
X16891858Y-8038142D01*
X16920142Y-8038142D01*
X17089142Y-8550405D02*
X17089142Y-8522120D01*
X17060858Y-8522120D01*
X17060858Y-8550405D01*
X17089142Y-8550405D01*
X17136142Y-7628142D02*
X17136142Y-7599858D01*
X17107858Y-7599858D01*
X17107858Y-7628142D01*
X17136142Y-7628142D01*
X17183621Y-7018664D02*
X17183621Y-6990379D01*
X17155336Y-6990379D01*
X17155336Y-7018664D01*
X17183621Y-7018664D01*
X17229682Y-9511642D02*
X17229682Y-9483358D01*
X17201398Y-9483358D01*
X17201398Y-9511642D01*
X17229682Y-9511642D01*
X17262071Y-5822272D02*
X17262071Y-5793987D01*
X17233786Y-5793987D01*
X17233786Y-5822272D01*
X17262071Y-5822272D01*
X17295142Y-9845642D02*
X17295142Y-9817358D01*
X17266858Y-9817358D01*
X17266858Y-9845642D01*
X17295142Y-9845642D01*
X17305642Y-5311642D02*
X17305642Y-5283358D01*
X17277358Y-5283358D01*
X17277358Y-5311642D01*
X17305642Y-5311642D01*
X17385142Y-9351142D02*
X17385142Y-9322858D01*
X17356858Y-9322858D01*
X17356858Y-9351142D01*
X17385142Y-9351142D01*
X17427934Y-7013592D02*
X17427934Y-6985308D01*
X17399649Y-6985308D01*
X17399649Y-7013592D01*
X17427934Y-7013592D01*
X17464592Y-9428592D02*
X17464592Y-9400308D01*
X17436308Y-9400308D01*
X17436308Y-9428592D01*
X17464592Y-9428592D01*
X17485142Y-7656142D02*
X17485142Y-7627858D01*
X17456858Y-7627858D01*
X17456858Y-7656142D01*
X17485142Y-7656142D01*
X17492142Y-8941642D02*
X17492142Y-8913358D01*
X17463858Y-8913358D01*
X17463858Y-8941642D01*
X17492142Y-8941642D01*
X17586142Y-10564142D02*
X17586142Y-10535858D01*
X17557858Y-10535858D01*
X17557858Y-10564142D01*
X17586142Y-10564142D01*
X17593142Y-7657142D02*
X17593142Y-7628858D01*
X17564858Y-7628858D01*
X17564858Y-7657142D01*
X17593142Y-7657142D01*
X17596642Y-9850642D02*
X17596642Y-9822358D01*
X17568358Y-9822358D01*
X17568358Y-9850642D01*
X17596642Y-9850642D01*
X17620142Y-6948142D02*
X17620142Y-6919858D01*
X17591858Y-6919858D01*
X17591858Y-6948142D01*
X17620142Y-6948142D01*
X17634282Y-6744476D02*
X17634282Y-6716192D01*
X17605997Y-6716192D01*
X17605997Y-6744476D01*
X17634282Y-6744476D01*
X17653142Y-8235142D02*
X17653142Y-8206858D01*
X17624858Y-8206858D01*
X17624858Y-8235142D01*
X17653142Y-8235142D01*
X17728926Y-6929868D02*
X17728926Y-6901583D01*
X17700641Y-6901583D01*
X17700641Y-6929868D01*
X17728926Y-6929868D01*
X17805296Y-6808669D02*
X17805296Y-6780384D01*
X17777012Y-6780384D01*
X17777012Y-6808669D01*
X17805296Y-6808669D01*
X17826137Y-5578137D02*
X17826137Y-5549852D01*
X17797852Y-5549852D01*
X17797852Y-5578137D01*
X17826137Y-5578137D01*
X17841142Y-4908092D02*
X17841142Y-4879808D01*
X17812858Y-4879808D01*
X17812858Y-4908092D01*
X17841142Y-4908092D01*
X17857142Y-9033142D02*
X17857142Y-9004858D01*
X17828858Y-9004858D01*
X17828858Y-9033142D01*
X17857142Y-9033142D01*
X17898692Y-6857142D02*
X17898692Y-6828858D01*
X17870408Y-6828858D01*
X17870408Y-6857142D01*
X17898692Y-6857142D01*
X17906935Y-6741238D02*
X17906935Y-6712953D01*
X17878650Y-6712953D01*
X17878650Y-6741238D01*
X17906935Y-6741238D01*
X17913142Y-10543142D02*
X17913142Y-10514858D01*
X17884858Y-10514858D01*
X17884858Y-10543142D01*
X17913142Y-10543142D01*
X17917142Y-9830142D02*
X17917142Y-9801858D01*
X17888858Y-9801858D01*
X17888858Y-9830142D01*
X17917142Y-9830142D01*
X17968142Y-4828142D02*
X17968142Y-4799858D01*
X17939858Y-4799858D01*
X17939858Y-4828142D01*
X17968142Y-4828142D01*
X17996142Y-7283142D02*
X17996142Y-7254858D01*
X17967858Y-7254858D01*
X17967858Y-7283142D01*
X17996142Y-7283142D01*
X18026142Y-8239142D02*
X18026142Y-8210858D01*
X17997858Y-8210858D01*
X17997858Y-8239142D01*
X18026142Y-8239142D01*
X18030142Y-8386142D02*
X18030142Y-8357858D01*
X18001858Y-8357858D01*
X18001858Y-8386142D01*
X18030142Y-8386142D01*
X18047142Y-8833142D02*
X18047142Y-8804858D01*
X18018858Y-8804858D01*
X18018858Y-8833142D01*
X18047142Y-8833142D01*
X18053642Y-7000142D02*
X18053642Y-6971858D01*
X18025358Y-6971858D01*
X18025358Y-7000142D01*
X18053642Y-7000142D01*
X18137458Y-7627358D02*
X18137458Y-7599073D01*
X18109173Y-7599073D01*
X18109173Y-7627358D01*
X18137458Y-7627358D01*
X18222142Y-5578142D02*
X18222142Y-5549858D01*
X18193858Y-5549858D01*
X18193858Y-5578142D01*
X18222142Y-5578142D01*
X18285142Y-7619142D02*
X18285142Y-7590858D01*
X18256858Y-7590858D01*
X18256858Y-7619142D01*
X18285142Y-7619142D01*
X18349142Y-5573142D02*
X18349142Y-5544858D01*
X18320858Y-5544858D01*
X18320858Y-5573142D01*
X18349142Y-5573142D01*
X18418142Y-7791142D02*
X18418142Y-7762858D01*
X18389858Y-7762858D01*
X18389858Y-7791142D01*
X18418142Y-7791142D01*
X18469142Y-7515192D02*
X18469142Y-7486908D01*
X18440858Y-7486908D01*
X18440858Y-7515192D01*
X18469142Y-7515192D01*
X18500182Y-9520351D02*
X18500182Y-9492066D01*
X18471898Y-9492066D01*
X18471898Y-9520351D01*
X18500182Y-9520351D01*
X18538142Y-6764142D02*
X18538142Y-6735858D01*
X18509858Y-6735858D01*
X18509858Y-6764142D01*
X18538142Y-6764142D01*
X18556692Y-6974142D02*
X18556692Y-6945858D01*
X18528408Y-6945858D01*
X18528408Y-6974142D01*
X18556692Y-6974142D01*
X18571651Y-5080378D02*
X18571651Y-5052093D01*
X18543367Y-5052093D01*
X18543367Y-5080378D01*
X18571651Y-5080378D01*
X18590748Y-6860584D02*
X18590748Y-6832299D01*
X18562463Y-6832299D01*
X18562463Y-6860584D01*
X18590748Y-6860584D01*
X18602450Y-5585304D02*
X18602450Y-5557019D01*
X18574165Y-5557019D01*
X18574165Y-5585304D01*
X18602450Y-5585304D01*
X18621142Y-10068142D02*
X18621142Y-10039858D01*
X18592858Y-10039858D01*
X18592858Y-10068142D01*
X18621142Y-10068142D01*
X18625142Y-10349142D02*
X18625142Y-10320858D01*
X18596858Y-10320858D01*
X18596858Y-10349142D01*
X18625142Y-10349142D01*
X18631997Y-9804288D02*
X18631997Y-9776003D01*
X18603712Y-9776003D01*
X18603712Y-9804288D01*
X18631997Y-9804288D01*
X18632142Y-6764142D02*
X18632142Y-6735858D01*
X18603858Y-6735858D01*
X18603858Y-6764142D01*
X18632142Y-6764142D01*
X18654142Y-7613142D02*
X18654142Y-7584858D01*
X18625858Y-7584858D01*
X18625858Y-7613142D01*
X18654142Y-7613142D01*
X18668680Y-5040379D02*
X18668680Y-5012094D01*
X18640395Y-5012094D01*
X18640395Y-5040379D01*
X18668680Y-5040379D01*
X18807142Y-7607142D02*
X18807142Y-7578858D01*
X18778858Y-7578858D01*
X18778858Y-7607142D01*
X18807142Y-7607142D01*
X18835470Y-6867151D02*
X18835470Y-6838866D01*
X18807185Y-6838866D01*
X18807185Y-6867151D01*
X18835470Y-6867151D01*
X18860142Y-6765142D02*
X18860142Y-6736858D01*
X18831858Y-6736858D01*
X18831858Y-6765142D01*
X18860142Y-6765142D01*
X18889142Y-10378142D02*
X18889142Y-10349858D01*
X18860858Y-10349858D01*
X18860858Y-10378142D01*
X18889142Y-10378142D01*
X18895142Y-9819142D02*
X18895142Y-9790858D01*
X18866858Y-9790858D01*
X18866858Y-9819142D01*
X18895142Y-9819142D01*
X18897142Y-10104142D02*
X18897142Y-10075858D01*
X18868858Y-10075858D01*
X18868858Y-10104142D01*
X18897142Y-10104142D01*
X18959892Y-7603392D02*
X18959892Y-7575108D01*
X18931608Y-7575108D01*
X18931608Y-7603392D01*
X18959892Y-7603392D01*
X18978142Y-6642142D02*
X18978142Y-6613858D01*
X18949858Y-6613858D01*
X18949858Y-6642142D01*
X18978142Y-6642142D01*
X18984519Y-5596684D02*
X18984519Y-5568400D01*
X18956234Y-5568400D01*
X18956234Y-5596684D01*
X18984519Y-5596684D01*
X19052142Y-5213142D02*
X19052142Y-5184858D01*
X19023858Y-5184858D01*
X19023858Y-5213142D01*
X19052142Y-5213142D01*
X19112892Y-7603892D02*
X19112892Y-7575608D01*
X19084608Y-7575608D01*
X19084608Y-7603892D01*
X19112892Y-7603892D01*
X19217909Y-9641694D02*
X19217909Y-9613409D01*
X19189624Y-9613409D01*
X19189624Y-9641694D01*
X19217909Y-9641694D01*
X19220894Y-10213142D02*
X19220894Y-10184858D01*
X19192610Y-10184858D01*
X19192610Y-10213142D01*
X19220894Y-10213142D01*
X19223142Y-10003142D02*
X19223142Y-9974858D01*
X19194858Y-9974858D01*
X19194858Y-10003142D01*
X19223142Y-10003142D01*
X19234773Y-7384001D02*
X19234773Y-7355717D01*
X19206489Y-7355717D01*
X19206489Y-7384001D01*
X19234773Y-7384001D01*
X19238142Y-5243142D02*
X19238142Y-5214858D01*
X19209858Y-5214858D01*
X19209858Y-5243142D01*
X19238142Y-5243142D01*
X19238642Y-5530642D02*
X19238642Y-5502358D01*
X19210358Y-5502358D01*
X19210358Y-5530642D01*
X19238642Y-5530642D01*
X19238642Y-7006642D02*
X19238642Y-6978358D01*
X19210358Y-6978358D01*
X19210358Y-7006642D01*
X19238642Y-7006642D01*
X19239142Y-7279142D02*
X19239142Y-7250858D01*
X19210858Y-7250858D01*
X19210858Y-7279142D01*
X19239142Y-7279142D01*
D16*
X14408500Y-4518250D02*
X14438500Y-4488250D01*
X14408500Y-4458250D01*
X14378500Y-4488250D01*
X14408500Y-4518250D01*
D11*
X14438500Y-4523250D02*
X14438500Y-4453250D01*
X14378500Y-4523250D02*
X14378500Y-4453250D01*
X14438500Y-4453250D02*
G75*
G03*
X14378500Y-4453250I-30000J0D01*
G01*
X14378500Y-4523250D02*
G75*
G03*
X14438500Y-4523250I30000J0D01*
G01*
D16*
X15108500Y-4518250D02*
X15138500Y-4488250D01*
X15108500Y-4458250D01*
X15078500Y-4488250D01*
X15108500Y-4518250D01*
D11*
X15078500Y-4453250D02*
X15078500Y-4523250D01*
X15138500Y-4453250D02*
X15138500Y-4523250D01*
X15078500Y-4523250D02*
G75*
G03*
X15138500Y-4523250I30000J0D01*
G01*
X15138500Y-4453250D02*
G75*
G03*
X15078500Y-4453250I-30000J0D01*
G01*
D17*
X16032500Y-4897500D02*
X16107500Y-4972500D01*
X16107500Y-4897500D02*
X16032500Y-4972500D01*
X16107500Y-4935000D02*
G75*
G03*
X16107500Y-4935000I-37500J0D01*
G01*
X16232500Y-4897500D02*
X16307500Y-4972500D01*
X16307500Y-4897500D02*
X16232500Y-4972500D01*
X16307500Y-4935000D02*
G75*
G03*
X16307500Y-4935000I-37500J0D01*
G01*
X16432500Y-4897500D02*
X16507500Y-4972500D01*
X16507500Y-4897500D02*
X16432500Y-4972500D01*
X16507500Y-4935000D02*
G75*
G03*
X16507500Y-4935000I-37500J0D01*
G01*
X16911500Y-10813500D02*
X16986500Y-10888500D01*
X16986500Y-10813500D02*
X16911500Y-10888500D01*
X16986500Y-10851000D02*
G75*
G03*
X16986500Y-10851000I-37500J0D01*
G01*
X17111500Y-10813500D02*
X17186500Y-10888500D01*
X17186500Y-10813500D02*
X17111500Y-10888500D01*
X17186500Y-10851000D02*
G75*
G03*
X17186500Y-10851000I-37500J0D01*
G01*
X18759500Y-8060500D02*
X18834500Y-8135500D01*
X18834500Y-8060500D02*
X18759500Y-8135500D01*
X18834500Y-8098000D02*
G75*
G03*
X18834500Y-8098000I-37500J0D01*
G01*
X18759500Y-8610500D02*
X18834500Y-8685500D01*
X18834500Y-8610500D02*
X18759500Y-8685500D01*
X18834500Y-8648000D02*
G75*
G03*
X18834500Y-8648000I-37500J0D01*
G01*
X18959500Y-8060500D02*
X19034500Y-8135500D01*
X19034500Y-8060500D02*
X18959500Y-8135500D01*
X19034500Y-8098000D02*
G75*
G03*
X19034500Y-8098000I-37500J0D01*
G01*
X18959500Y-8610500D02*
X19034500Y-8685500D01*
X19034500Y-8610500D02*
X18959500Y-8685500D01*
X19034500Y-8648000D02*
G75*
G03*
X19034500Y-8648000I-37500J0D01*
G01*
D18*
X10413000Y-9767000D02*
X10493000Y-9847000D01*
X10493000Y-9767000D02*
X10413000Y-9847000D01*
X10453000Y-9767000D02*
X10453000Y-9847000D01*
X10413000Y-9807000D02*
X10493000Y-9807000D01*
X10413000Y-9767000D02*
X10493000Y-9847000D01*
X10493000Y-9767000D02*
X10413000Y-9847000D01*
X10453000Y-9767000D02*
X10453000Y-9847000D01*
X10413000Y-9807000D02*
X10493000Y-9807000D01*
X10413000Y-9967000D02*
X10493000Y-10047000D01*
X10493000Y-9967000D02*
X10413000Y-10047000D01*
X10453000Y-9967000D02*
X10453000Y-10047000D01*
X10413000Y-10007000D02*
X10493000Y-10007000D01*
X10413000Y-9967000D02*
X10493000Y-10047000D01*
X10493000Y-9967000D02*
X10413000Y-10047000D01*
X10453000Y-9967000D02*
X10453000Y-10047000D01*
X10413000Y-10007000D02*
X10493000Y-10007000D01*
X10413000Y-10167000D02*
X10493000Y-10247000D01*
X10493000Y-10167000D02*
X10413000Y-10247000D01*
X10453000Y-10167000D02*
X10453000Y-10247000D01*
X10413000Y-10207000D02*
X10493000Y-10207000D01*
X10413000Y-10167000D02*
X10493000Y-10247000D01*
X10493000Y-10167000D02*
X10413000Y-10247000D01*
X10453000Y-10167000D02*
X10453000Y-10247000D01*
X10413000Y-10207000D02*
X10493000Y-10207000D01*
X10613000Y-9767000D02*
X10693000Y-9847000D01*
X10693000Y-9767000D02*
X10613000Y-9847000D01*
X10653000Y-9767000D02*
X10653000Y-9847000D01*
X10613000Y-9807000D02*
X10693000Y-9807000D01*
X10613000Y-9767000D02*
X10693000Y-9847000D01*
X10693000Y-9767000D02*
X10613000Y-9847000D01*
X10653000Y-9767000D02*
X10653000Y-9847000D01*
X10613000Y-9807000D02*
X10693000Y-9807000D01*
X10613000Y-9967000D02*
X10693000Y-10047000D01*
X10693000Y-9967000D02*
X10613000Y-10047000D01*
X10653000Y-9967000D02*
X10653000Y-10047000D01*
X10613000Y-10007000D02*
X10693000Y-10007000D01*
X10613000Y-9967000D02*
X10693000Y-10047000D01*
X10693000Y-9967000D02*
X10613000Y-10047000D01*
X10653000Y-9967000D02*
X10653000Y-10047000D01*
X10613000Y-10007000D02*
X10693000Y-10007000D01*
X10613000Y-10167000D02*
X10693000Y-10247000D01*
X10693000Y-10167000D02*
X10613000Y-10247000D01*
X10653000Y-10167000D02*
X10653000Y-10247000D01*
X10613000Y-10207000D02*
X10693000Y-10207000D01*
X10613000Y-10167000D02*
X10693000Y-10247000D01*
X10693000Y-10167000D02*
X10613000Y-10247000D01*
X10653000Y-10167000D02*
X10653000Y-10247000D01*
X10613000Y-10207000D02*
X10693000Y-10207000D01*
D19*
X14466000Y-4715750D02*
X14551000Y-4800750D01*
X14551000Y-4715750D02*
X14466000Y-4800750D01*
X14538552Y-4788302D02*
X14538552Y-4728198D01*
X14478448Y-4728198D01*
X14478448Y-4788302D01*
X14538552Y-4788302D01*
X14966000Y-4715750D02*
X15051000Y-4800750D01*
X15051000Y-4715750D02*
X14966000Y-4800750D01*
X15038552Y-4788302D02*
X15038552Y-4728198D01*
X14978448Y-4728198D01*
X14978448Y-4788302D01*
X15038552Y-4788302D01*
D10*
X10750900Y-5510200D02*
X10850900Y-5610200D01*
X10850900Y-5510200D02*
X10750900Y-5610200D01*
X10800900Y-5610200D02*
X10850900Y-5560200D01*
X10800900Y-5510200D01*
X10750900Y-5560200D01*
X10800900Y-5610200D01*
X10750900Y-5764200D02*
X10850900Y-5864200D01*
X10850900Y-5764200D02*
X10750900Y-5864200D01*
X10800900Y-5864200D02*
X10850900Y-5814200D01*
X10800900Y-5764200D01*
X10750900Y-5814200D01*
X10800900Y-5864200D01*
X10750900Y-6018200D02*
X10850900Y-6118200D01*
X10850900Y-6018200D02*
X10750900Y-6118200D01*
X10800900Y-6118200D02*
X10850900Y-6068200D01*
X10800900Y-6018200D01*
X10750900Y-6068200D01*
X10800900Y-6118200D01*
X10750900Y-6272200D02*
X10850900Y-6372200D01*
X10850900Y-6272200D02*
X10750900Y-6372200D01*
X10800900Y-6372200D02*
X10850900Y-6322200D01*
X10800900Y-6272200D01*
X10750900Y-6322200D01*
X10800900Y-6372200D01*
X10750900Y-6526200D02*
X10850900Y-6626200D01*
X10850900Y-6526200D02*
X10750900Y-6626200D01*
X10800900Y-6626200D02*
X10850900Y-6576200D01*
X10800900Y-6526200D01*
X10750900Y-6576200D01*
X10800900Y-6626200D01*
X10750900Y-6780200D02*
X10850900Y-6880200D01*
X10850900Y-6780200D02*
X10750900Y-6880200D01*
X10800900Y-6880200D02*
X10850900Y-6830200D01*
X10800900Y-6780200D01*
X10750900Y-6830200D01*
X10800900Y-6880200D01*
X10750900Y-7033900D02*
X10850900Y-7133900D01*
X10850900Y-7033900D02*
X10750900Y-7133900D01*
X10800900Y-7133900D02*
X10850900Y-7083900D01*
X10800900Y-7033900D01*
X10750900Y-7083900D01*
X10800900Y-7133900D01*
X10750900Y-7287900D02*
X10850900Y-7387900D01*
X10850900Y-7287900D02*
X10750900Y-7387900D01*
X10800900Y-7387900D02*
X10850900Y-7337900D01*
X10800900Y-7287900D01*
X10750900Y-7337900D01*
X10800900Y-7387900D01*
X10750900Y-7541900D02*
X10850900Y-7641900D01*
X10850900Y-7541900D02*
X10750900Y-7641900D01*
X10800900Y-7641900D02*
X10850900Y-7591900D01*
X10800900Y-7541900D01*
X10750900Y-7591900D01*
X10800900Y-7641900D01*
X10750900Y-7795900D02*
X10850900Y-7895900D01*
X10850900Y-7795900D02*
X10750900Y-7895900D01*
X10800900Y-7895900D02*
X10850900Y-7845900D01*
X10800900Y-7795900D01*
X10750900Y-7845900D01*
X10800900Y-7895900D01*
X10750900Y-8049900D02*
X10850900Y-8149900D01*
X10850900Y-8049900D02*
X10750900Y-8149900D01*
X10800900Y-8149900D02*
X10850900Y-8099900D01*
X10800900Y-8049900D01*
X10750900Y-8099900D01*
X10800900Y-8149900D01*
X10750900Y-8303900D02*
X10850900Y-8403900D01*
X10850900Y-8303900D02*
X10750900Y-8403900D01*
X10800900Y-8403900D02*
X10850900Y-8353900D01*
X10800900Y-8303900D01*
X10750900Y-8353900D01*
X10800900Y-8403900D01*
X10750900Y-8557900D02*
X10850900Y-8657900D01*
X10850900Y-8557900D02*
X10750900Y-8657900D01*
X10800900Y-8657900D02*
X10850900Y-8607900D01*
X10800900Y-8557900D01*
X10750900Y-8607900D01*
X10800900Y-8657900D01*
X10751200Y-5256300D02*
X10851200Y-5356300D01*
X10851200Y-5256300D02*
X10751200Y-5356300D01*
X10801200Y-5356300D02*
X10851200Y-5306300D01*
X10801200Y-5256300D01*
X10751200Y-5306300D01*
X10801200Y-5356300D01*
X11067211Y-8528646D02*
X11167211Y-8628646D01*
X11167211Y-8528646D02*
X11067211Y-8628646D01*
X11117211Y-8628646D02*
X11167211Y-8578646D01*
X11117211Y-8528646D01*
X11067211Y-8578646D01*
X11117211Y-8628646D01*
X11321211Y-8528646D02*
X11421211Y-8628646D01*
X11421211Y-8528646D02*
X11321211Y-8628646D01*
X11371211Y-8628646D02*
X11421211Y-8578646D01*
X11371211Y-8528646D01*
X11321211Y-8578646D01*
X11371211Y-8628646D01*
X11575211Y-8528646D02*
X11675211Y-8628646D01*
X11675211Y-8528646D02*
X11575211Y-8628646D01*
X11625211Y-8628646D02*
X11675211Y-8578646D01*
X11625211Y-8528646D01*
X11575211Y-8578646D01*
X11625211Y-8628646D01*
X11829211Y-8528646D02*
X11929211Y-8628646D01*
X11929211Y-8528646D02*
X11829211Y-8628646D01*
X11879211Y-8628646D02*
X11929211Y-8578646D01*
X11879211Y-8528646D01*
X11829211Y-8578646D01*
X11879211Y-8628646D01*
X12083211Y-8528646D02*
X12183211Y-8628646D01*
X12183211Y-8528646D02*
X12083211Y-8628646D01*
X12133211Y-8628646D02*
X12183211Y-8578646D01*
X12133211Y-8528646D01*
X12083211Y-8578646D01*
X12133211Y-8628646D01*
X12337211Y-8528646D02*
X12437211Y-8628646D01*
X12437211Y-8528646D02*
X12337211Y-8628646D01*
X12387211Y-8628646D02*
X12437211Y-8578646D01*
X12387211Y-8528646D01*
X12337211Y-8578646D01*
X12387211Y-8628646D01*
X12591211Y-8528646D02*
X12691211Y-8628646D01*
X12691211Y-8528646D02*
X12591211Y-8628646D01*
X12641211Y-8628646D02*
X12691211Y-8578646D01*
X12641211Y-8528646D01*
X12591211Y-8578646D01*
X12641211Y-8628646D01*
X12845211Y-8528646D02*
X12945211Y-8628646D01*
X12945211Y-8528646D02*
X12845211Y-8628646D01*
X12895211Y-8628646D02*
X12945211Y-8578646D01*
X12895211Y-8528646D01*
X12845211Y-8578646D01*
X12895211Y-8628646D01*
X15948540Y-9567500D02*
X16048540Y-9667500D01*
X16048540Y-9567500D02*
X15948540Y-9667500D01*
X15998540Y-9667500D02*
X16048540Y-9617500D01*
X15998540Y-9567500D01*
X15948540Y-9617500D01*
X15998540Y-9667500D01*
X16198540Y-9567500D02*
X16298540Y-9667500D01*
X16298540Y-9567500D02*
X16198540Y-9667500D01*
X16248540Y-9667500D02*
X16298540Y-9617500D01*
X16248540Y-9567500D01*
X16198540Y-9617500D01*
X16248540Y-9667500D01*
X16448540Y-9567500D02*
X16548540Y-9667500D01*
X16548540Y-9567500D02*
X16448540Y-9667500D01*
X16498540Y-9667500D02*
X16548540Y-9617500D01*
X16498540Y-9567500D01*
X16448540Y-9617500D01*
X16498540Y-9667500D01*
X17548540Y-9569280D02*
X17648540Y-9669280D01*
X17648540Y-9569280D02*
X17548540Y-9669280D01*
X17598540Y-9669280D02*
X17648540Y-9619280D01*
X17598540Y-9569280D01*
X17548540Y-9619280D01*
X17598540Y-9669280D01*
X17798540Y-9569280D02*
X17898540Y-9669280D01*
X17898540Y-9569280D02*
X17798540Y-9669280D01*
X17848540Y-9669280D02*
X17898540Y-9619280D01*
X17848540Y-9569280D01*
X17798540Y-9619280D01*
X17848540Y-9669280D01*
X18048540Y-9569280D02*
X18148540Y-9669280D01*
X18148540Y-9569280D02*
X18048540Y-9669280D01*
X18098540Y-9669280D02*
X18148540Y-9619280D01*
X18098540Y-9569280D01*
X18048540Y-9619280D01*
X18098540Y-9669280D01*
D20*
X15768540Y-10312500D02*
X15768540Y-10422500D01*
X15713540Y-10367500D02*
X15823540Y-10367500D01*
X15823540Y-10367500D02*
G75*
G03*
X15823540Y-10367500I-55000J0D01*
G01*
D11*
X15713540Y-10332500D02*
X15713540Y-10402500D01*
X15823540Y-10332500D02*
X15823540Y-10402500D01*
X15713540Y-10402500D02*
G75*
G03*
X15823540Y-10402500I55000J0D01*
G01*
X15823540Y-10332500D02*
G75*
G03*
X15713540Y-10332500I-55000J0D01*
G01*
D20*
X16728540Y-10312500D02*
X16728540Y-10422500D01*
X16673540Y-10367500D02*
X16783540Y-10367500D01*
X16783540Y-10367500D02*
G75*
G03*
X16783540Y-10367500I-55000J0D01*
G01*
D11*
X16673540Y-10332500D02*
X16673540Y-10402500D01*
X16783540Y-10332500D02*
X16783540Y-10402500D01*
X16673540Y-10402500D02*
G75*
G03*
X16783540Y-10402500I55000J0D01*
G01*
X16783540Y-10332500D02*
G75*
G03*
X16673540Y-10332500I-55000J0D01*
G01*
D20*
X17368540Y-10314280D02*
X17368540Y-10424280D01*
X17313540Y-10369280D02*
X17423540Y-10369280D01*
X17423540Y-10369280D02*
G75*
G03*
X17423540Y-10369280I-55000J0D01*
G01*
D11*
X17313540Y-10334280D02*
X17313540Y-10404280D01*
X17423540Y-10334280D02*
X17423540Y-10404280D01*
X17313540Y-10404280D02*
G75*
G03*
X17423540Y-10404280I55000J0D01*
G01*
X17423540Y-10334280D02*
G75*
G03*
X17313540Y-10334280I-55000J0D01*
G01*
D20*
X18328540Y-10314280D02*
X18328540Y-10424280D01*
X18273540Y-10369280D02*
X18383540Y-10369280D01*
X18383540Y-10369280D02*
G75*
G03*
X18383540Y-10369280I-55000J0D01*
G01*
D11*
X18273540Y-10334280D02*
X18273540Y-10404280D01*
X18383540Y-10334280D02*
X18383540Y-10404280D01*
X18273540Y-10404280D02*
G75*
G03*
X18383540Y-10404280I55000J0D01*
G01*
X18383540Y-10334280D02*
G75*
G03*
X18273540Y-10334280I-55000J0D01*
G01*
D21*
X10595427Y-9569427D02*
X10595427Y-9484573D01*
X10510573Y-9484573D01*
X10510573Y-9569427D01*
X10595427Y-9569427D01*
X10613000Y-9527000D02*
G75*
G03*
X10613000Y-9527000I-60000J0D01*
G01*
X10595427Y-10529427D02*
X10595427Y-10444573D01*
X10510573Y-10444573D01*
X10510573Y-10529427D01*
X10595427Y-10529427D01*
X10613000Y-10487000D02*
G75*
G03*
X10613000Y-10487000I-60000J0D01*
G01*
X11404427Y-6907427D02*
X11404427Y-6822573D01*
X11319573Y-6822573D01*
X11319573Y-6907427D01*
X11404427Y-6907427D01*
X11422000Y-6865000D02*
G75*
G03*
X11422000Y-6865000I-60000J0D01*
G01*
X11658427Y-6907427D02*
X11658427Y-6822573D01*
X11573573Y-6822573D01*
X11573573Y-6907427D01*
X11658427Y-6907427D01*
X11676000Y-6865000D02*
G75*
G03*
X11676000Y-6865000I-60000J0D01*
G01*
X12191427Y-9700677D02*
X12191427Y-9615823D01*
X12106573Y-9615823D01*
X12106573Y-9700677D01*
X12191427Y-9700677D01*
X12209000Y-9658250D02*
G75*
G03*
X12209000Y-9658250I-60000J0D01*
G01*
X12191427Y-11150677D02*
X12191427Y-11065823D01*
X12106573Y-11065823D01*
X12106573Y-11150677D01*
X12191427Y-11150677D01*
X12209000Y-11108250D02*
G75*
G03*
X12209000Y-11108250I-60000J0D01*
G01*
X12441427Y-11150677D02*
X12441427Y-11065823D01*
X12356573Y-11065823D01*
X12356573Y-11150677D01*
X12441427Y-11150677D01*
X12459000Y-11108250D02*
G75*
G03*
X12459000Y-11108250I-60000J0D01*
G01*
X12691427Y-9700677D02*
X12691427Y-9615823D01*
X12606573Y-9615823D01*
X12606573Y-9700677D01*
X12691427Y-9700677D01*
X12709000Y-9658250D02*
G75*
G03*
X12709000Y-9658250I-60000J0D01*
G01*
X12691427Y-11150677D02*
X12691427Y-11065823D01*
X12606573Y-11065823D01*
X12606573Y-11150677D01*
X12691427Y-11150677D01*
X12709000Y-11108250D02*
G75*
G03*
X12709000Y-11108250I-60000J0D01*
G01*
X13715427Y-9700427D02*
X13715427Y-9615573D01*
X13630573Y-9615573D01*
X13630573Y-9700427D01*
X13715427Y-9700427D01*
X13733000Y-9658000D02*
G75*
G03*
X13733000Y-9658000I-60000J0D01*
G01*
X13715427Y-11150427D02*
X13715427Y-11065573D01*
X13630573Y-11065573D01*
X13630573Y-11150427D01*
X13715427Y-11150427D01*
X13733000Y-11108000D02*
G75*
G03*
X13733000Y-11108000I-60000J0D01*
G01*
X13965427Y-11150427D02*
X13965427Y-11065573D01*
X13880573Y-11065573D01*
X13880573Y-11150427D01*
X13965427Y-11150427D01*
X13983000Y-11108000D02*
G75*
G03*
X13983000Y-11108000I-60000J0D01*
G01*
X14215427Y-9700427D02*
X14215427Y-9615573D01*
X14130573Y-9615573D01*
X14130573Y-9700427D01*
X14215427Y-9700427D01*
X14233000Y-9658000D02*
G75*
G03*
X14233000Y-9658000I-60000J0D01*
G01*
X14215427Y-11150427D02*
X14215427Y-11065573D01*
X14130573Y-11065573D01*
X14130573Y-11150427D01*
X14215427Y-11150427D01*
X14233000Y-11108000D02*
G75*
G03*
X14233000Y-11108000I-60000J0D01*
G01*
D11*
X11839000Y-10458250D02*
X11939000Y-10358250D01*
X11839000Y-10258250D01*
X11739000Y-10358250D01*
X11839000Y-10458250D01*
X11939000Y-10358250D02*
G75*
G03*
X11939000Y-10358250I-100000J0D01*
G01*
X11739000Y-10353250D02*
X11739000Y-10363250D01*
X11939000Y-10353250D02*
X11939000Y-10363250D01*
X11739000Y-10363250D02*
G75*
G03*
X11939000Y-10363250I100000J0D01*
G01*
X11939000Y-10353250D02*
G75*
G03*
X11739000Y-10353250I-100000J0D01*
G01*
X12959000Y-10458250D02*
X13059000Y-10358250D01*
X12959000Y-10258250D01*
X12859000Y-10358250D01*
X12959000Y-10458250D01*
X13059000Y-10358250D02*
G75*
G03*
X13059000Y-10358250I-100000J0D01*
G01*
X12859000Y-10353250D02*
X12859000Y-10363250D01*
X13059000Y-10353250D02*
X13059000Y-10363250D01*
X12859000Y-10363250D02*
G75*
G03*
X13059000Y-10363250I100000J0D01*
G01*
X13059000Y-10353250D02*
G75*
G03*
X12859000Y-10353250I-100000J0D01*
G01*
X13363000Y-10458000D02*
X13463000Y-10358000D01*
X13363000Y-10258000D01*
X13263000Y-10358000D01*
X13363000Y-10458000D01*
X13463000Y-10358000D02*
G75*
G03*
X13463000Y-10358000I-100000J0D01*
G01*
X13263000Y-10353000D02*
X13263000Y-10363000D01*
X13463000Y-10353000D02*
X13463000Y-10363000D01*
X13263000Y-10363000D02*
G75*
G03*
X13463000Y-10363000I100000J0D01*
G01*
X13463000Y-10353000D02*
G75*
G03*
X13263000Y-10353000I-100000J0D01*
G01*
X14483000Y-10458000D02*
X14583000Y-10358000D01*
X14483000Y-10258000D01*
X14383000Y-10358000D01*
X14483000Y-10458000D01*
X14583000Y-10358000D02*
G75*
G03*
X14583000Y-10358000I-100000J0D01*
G01*
X14383000Y-10353000D02*
X14383000Y-10363000D01*
X14583000Y-10353000D02*
X14583000Y-10363000D01*
X14383000Y-10363000D02*
G75*
G03*
X14583000Y-10363000I100000J0D01*
G01*
X14583000Y-10353000D02*
G75*
G03*
X14383000Y-10353000I-100000J0D01*
G01*
D22*
X13428611Y-6854286D02*
X13428611Y-7084286D01*
X13313611Y-6969286D02*
X13543611Y-6969286D01*
X13509929Y-7050604D02*
X13509929Y-6887968D01*
X13347293Y-6887968D01*
X13347293Y-7050604D01*
X13509929Y-7050604D01*
X13428611Y-8168286D02*
X13428611Y-8398286D01*
X13313611Y-8283286D02*
X13543611Y-8283286D01*
X13509929Y-8364604D02*
X13509929Y-8201968D01*
X13347293Y-8201968D01*
X13347293Y-8364604D01*
X13509929Y-8364604D01*
D23*
X10355211Y-6675786D02*
X10355211Y-6925786D01*
X10230211Y-6800786D02*
X10480211Y-6800786D01*
X10355211Y-6925786D02*
X10480211Y-6800786D01*
X10355211Y-6675786D01*
X10230211Y-6800786D01*
X10355211Y-6925786D01*
X10355211Y-8326786D02*
X10355211Y-8576786D01*
X10230211Y-8451786D02*
X10480211Y-8451786D01*
X10355211Y-8576786D02*
X10480211Y-8451786D01*
X10355211Y-8326786D01*
X10230211Y-8451786D01*
X10355211Y-8576786D01*
D24*
X10553900Y-11066100D02*
X10713900Y-10906100D01*
X10553900Y-10746100D01*
X10393900Y-10906100D01*
X10553900Y-11066100D01*
X10667038Y-11019238D02*
X10667038Y-10792962D01*
X10440762Y-10792962D01*
X10440762Y-11019238D01*
X10667038Y-11019238D01*
X10553900Y-4913900D02*
X10713900Y-4753900D01*
X10553900Y-4593900D01*
X10393900Y-4753900D01*
X10553900Y-4913900D01*
X10667038Y-4867038D02*
X10667038Y-4640762D01*
X10440762Y-4640762D01*
X10440762Y-4867038D01*
X10667038Y-4867038D01*
X18896100Y-4917300D02*
X19056100Y-4757300D01*
X18896100Y-4597300D01*
X18736100Y-4757300D01*
X18896100Y-4917300D01*
X19009238Y-4870438D02*
X19009238Y-4644162D01*
X18782962Y-4644162D01*
X18782962Y-4870438D01*
X19009238Y-4870438D01*
X18896100Y-11055800D02*
X19056100Y-10895800D01*
X18896100Y-10735800D01*
X18736100Y-10895800D01*
X18896100Y-11055800D01*
X19009238Y-11008938D02*
X19009238Y-10782662D01*
X18782962Y-10782662D01*
X18782962Y-11008938D01*
X19009238Y-11008938D01*
D11*
X10302618Y-11722976D02*
X10302618Y-11522976D01*
X10350237Y-11522976D01*
X10378809Y-11532500D01*
X10397856Y-11551548D01*
X10407380Y-11570595D01*
X10416904Y-11608690D01*
X10416904Y-11637262D01*
X10407380Y-11675357D01*
X10397856Y-11694405D01*
X10378809Y-11713452D01*
X10350237Y-11722976D01*
X10302618Y-11722976D01*
X10502618Y-11722976D02*
X10502618Y-11589643D01*
X10502618Y-11627738D02*
X10512142Y-11608690D01*
X10521666Y-11599167D01*
X10540713Y-11589643D01*
X10559761Y-11589643D01*
X10626428Y-11722976D02*
X10626428Y-11589643D01*
X10626428Y-11522976D02*
X10616904Y-11532500D01*
X10626428Y-11542024D01*
X10635951Y-11532500D01*
X10626428Y-11522976D01*
X10626428Y-11542024D01*
X10750237Y-11722976D02*
X10731190Y-11713452D01*
X10721666Y-11694405D01*
X10721666Y-11522976D01*
X10854999Y-11722976D02*
X10835951Y-11713452D01*
X10826428Y-11694405D01*
X10826428Y-11522976D01*
X11083571Y-11722976D02*
X11083571Y-11522976D01*
X11150237Y-11665833D01*
X11216904Y-11522976D01*
X11216904Y-11722976D01*
X11397856Y-11722976D02*
X11397856Y-11618214D01*
X11388332Y-11599167D01*
X11369285Y-11589643D01*
X11331189Y-11589643D01*
X11312142Y-11599167D01*
X11397856Y-11713452D02*
X11378809Y-11722976D01*
X11331189Y-11722976D01*
X11312142Y-11713452D01*
X11302618Y-11694405D01*
X11302618Y-11675357D01*
X11312142Y-11656309D01*
X11331189Y-11646786D01*
X11378809Y-11646786D01*
X11397856Y-11637262D01*
X11493094Y-11589643D02*
X11493094Y-11789643D01*
X11493094Y-11599167D02*
X11512142Y-11589643D01*
X11550237Y-11589643D01*
X11569285Y-11599167D01*
X11578809Y-11608690D01*
X11588332Y-11627738D01*
X11588332Y-11684881D01*
X11578809Y-11703928D01*
X11569285Y-11713452D01*
X11550237Y-11722976D01*
X11512142Y-11722976D01*
X11493094Y-11713452D01*
X11674047Y-11703928D02*
X11683570Y-11713452D01*
X11674047Y-11722976D01*
X11664523Y-11713452D01*
X11674047Y-11703928D01*
X11674047Y-11722976D01*
X11674047Y-11599167D02*
X11683570Y-11608690D01*
X11674047Y-11618214D01*
X11664523Y-11608690D01*
X11674047Y-11599167D01*
X11674047Y-11618214D01*
D12*
X10024999Y-12042500D02*
X10044999Y-12062500D01*
X10044999Y-12042500D02*
X10024999Y-12062500D01*
D11*
X10340713Y-11942976D02*
X10359761Y-11942976D01*
X10378809Y-11952500D01*
X10388332Y-11962024D01*
X10397856Y-11981071D01*
X10407380Y-12019167D01*
X10407380Y-12066786D01*
X10397856Y-12104881D01*
X10388332Y-12123928D01*
X10378809Y-12133452D01*
X10359761Y-12142976D01*
X10340713Y-12142976D01*
X10321666Y-12133452D01*
X10312142Y-12123928D01*
X10302618Y-12104881D01*
X10293094Y-12066786D01*
X10293094Y-12019167D01*
X10302618Y-11981071D01*
X10312142Y-11962024D01*
X10321666Y-11952500D01*
X10340713Y-11942976D01*
X10493094Y-12123928D02*
X10502618Y-12133452D01*
X10493094Y-12142976D01*
X10483571Y-12133452D01*
X10493094Y-12123928D01*
X10493094Y-12142976D01*
X10578809Y-11962024D02*
X10588332Y-11952500D01*
X10607380Y-11942976D01*
X10654999Y-11942976D01*
X10674047Y-11952500D01*
X10683571Y-11962024D01*
X10693094Y-11981071D01*
X10693094Y-12000119D01*
X10683571Y-12028690D01*
X10569285Y-12142976D01*
X10693094Y-12142976D01*
X10816904Y-11942976D02*
X10835951Y-11942976D01*
X10854999Y-11952500D01*
X10864523Y-11962024D01*
X10874047Y-11981071D01*
X10883571Y-12019167D01*
X10883571Y-12066786D01*
X10874047Y-12104881D01*
X10864523Y-12123928D01*
X10854999Y-12133452D01*
X10835951Y-12142976D01*
X10816904Y-12142976D01*
X10797856Y-12133452D01*
X10788332Y-12123928D01*
X10778809Y-12104881D01*
X10769285Y-12066786D01*
X10769285Y-12019167D01*
X10778809Y-11981071D01*
X10788332Y-11962024D01*
X10797856Y-11952500D01*
X10816904Y-11942976D01*
X11007380Y-11942976D02*
X11026428Y-11942976D01*
X11045475Y-11952500D01*
X11054999Y-11962024D01*
X11064523Y-11981071D01*
X11074047Y-12019167D01*
X11074047Y-12066786D01*
X11064523Y-12104881D01*
X11054999Y-12123928D01*
X11045475Y-12133452D01*
X11026428Y-12142976D01*
X11007380Y-12142976D01*
X10988332Y-12133452D01*
X10978809Y-12123928D01*
X10969285Y-12104881D01*
X10959761Y-12066786D01*
X10959761Y-12019167D01*
X10969285Y-11981071D01*
X10978809Y-11962024D01*
X10988332Y-11952500D01*
X11007380Y-11942976D01*
X11159761Y-12142976D02*
X11159761Y-12009643D01*
X11159761Y-12028690D02*
X11169285Y-12019167D01*
X11188332Y-12009643D01*
X11216904Y-12009643D01*
X11235951Y-12019167D01*
X11245475Y-12038214D01*
X11245475Y-12142976D01*
X11245475Y-12038214D02*
X11254999Y-12019167D01*
X11274047Y-12009643D01*
X11302618Y-12009643D01*
X11321666Y-12019167D01*
X11331189Y-12038214D01*
X11331189Y-12142976D01*
X11426428Y-12142976D02*
X11426428Y-12009643D01*
X11426428Y-12028690D02*
X11435951Y-12019167D01*
X11454999Y-12009643D01*
X11483570Y-12009643D01*
X11502618Y-12019167D01*
X11512142Y-12038214D01*
X11512142Y-12142976D01*
X11512142Y-12038214D02*
X11521666Y-12019167D01*
X11540713Y-12009643D01*
X11569285Y-12009643D01*
X11588332Y-12019167D01*
X11597856Y-12038214D01*
X11597856Y-12142976D01*
X11988332Y-11933452D02*
X11816904Y-12190595D01*
X12245475Y-11942976D02*
X12264523Y-11942976D01*
X12283570Y-11952500D01*
X12293094Y-11962024D01*
X12302618Y-11981071D01*
X12312142Y-12019167D01*
X12312142Y-12066786D01*
X12302618Y-12104881D01*
X12293094Y-12123928D01*
X12283570Y-12133452D01*
X12264523Y-12142976D01*
X12245475Y-12142976D01*
X12226428Y-12133452D01*
X12216904Y-12123928D01*
X12207380Y-12104881D01*
X12197856Y-12066786D01*
X12197856Y-12019167D01*
X12207380Y-11981071D01*
X12216904Y-11962024D01*
X12226428Y-11952500D01*
X12245475Y-11942976D01*
X12397856Y-12123928D02*
X12407380Y-12133452D01*
X12397856Y-12142976D01*
X12388332Y-12133452D01*
X12397856Y-12123928D01*
X12397856Y-12142976D01*
X12531189Y-11942976D02*
X12550237Y-11942976D01*
X12569285Y-11952500D01*
X12578809Y-11962024D01*
X12588332Y-11981071D01*
X12597856Y-12019167D01*
X12597856Y-12066786D01*
X12588332Y-12104881D01*
X12578809Y-12123928D01*
X12569285Y-12133452D01*
X12550237Y-12142976D01*
X12531189Y-12142976D01*
X12512142Y-12133452D01*
X12502618Y-12123928D01*
X12493094Y-12104881D01*
X12483570Y-12066786D01*
X12483570Y-12019167D01*
X12493094Y-11981071D01*
X12502618Y-11962024D01*
X12512142Y-11952500D01*
X12531189Y-11942976D01*
X12721666Y-11942976D02*
X12740713Y-11942976D01*
X12759761Y-11952500D01*
X12769285Y-11962024D01*
X12778809Y-11981071D01*
X12788332Y-12019167D01*
X12788332Y-12066786D01*
X12778809Y-12104881D01*
X12769285Y-12123928D01*
X12759761Y-12133452D01*
X12740713Y-12142976D01*
X12721666Y-12142976D01*
X12702618Y-12133452D01*
X12693094Y-12123928D01*
X12683570Y-12104881D01*
X12674047Y-12066786D01*
X12674047Y-12019167D01*
X12683570Y-11981071D01*
X12693094Y-11962024D01*
X12702618Y-11952500D01*
X12721666Y-11942976D01*
X12854999Y-11942976D02*
X12988332Y-11942976D01*
X12902618Y-12142976D01*
X13074047Y-12142976D02*
X13112142Y-12142976D01*
X13131189Y-12133452D01*
X13140713Y-12123928D01*
X13159761Y-12095357D01*
X13169285Y-12057262D01*
X13169285Y-11981071D01*
X13159761Y-11962024D01*
X13150237Y-11952500D01*
X13131189Y-11942976D01*
X13093094Y-11942976D01*
X13074047Y-11952500D01*
X13064523Y-11962024D01*
X13054999Y-11981071D01*
X13054999Y-12028690D01*
X13064523Y-12047738D01*
X13074047Y-12057262D01*
X13093094Y-12066786D01*
X13131189Y-12066786D01*
X13150237Y-12057262D01*
X13159761Y-12047738D01*
X13169285Y-12028690D01*
X13245475Y-11942976D02*
X13245475Y-11981071D01*
X13321666Y-11942976D02*
X13321666Y-11981071D01*
X13616904Y-12219167D02*
X13607380Y-12209643D01*
X13588332Y-12181071D01*
X13578809Y-12162024D01*
X13569285Y-12133452D01*
X13559761Y-12085833D01*
X13559761Y-12047738D01*
X13569285Y-12000119D01*
X13578809Y-11971548D01*
X13588332Y-11952500D01*
X13607380Y-11923928D01*
X13616904Y-11914405D01*
X13778809Y-12009643D02*
X13778809Y-12142976D01*
X13731189Y-11933452D02*
X13683570Y-12076309D01*
X13807380Y-12076309D01*
X14035951Y-12142976D02*
X14035951Y-11942976D01*
X14121666Y-12142976D02*
X14121666Y-12038214D01*
X14112142Y-12019167D01*
X14093094Y-12009643D01*
X14064523Y-12009643D01*
X14045475Y-12019167D01*
X14035951Y-12028690D01*
X14245475Y-12142976D02*
X14226428Y-12133452D01*
X14216904Y-12123928D01*
X14207380Y-12104881D01*
X14207380Y-12047738D01*
X14216904Y-12028690D01*
X14226428Y-12019167D01*
X14245475Y-12009643D01*
X14274047Y-12009643D01*
X14293094Y-12019167D01*
X14302618Y-12028690D01*
X14312142Y-12047738D01*
X14312142Y-12104881D01*
X14302618Y-12123928D01*
X14293094Y-12133452D01*
X14274047Y-12142976D01*
X14245475Y-12142976D01*
X14426428Y-12142976D02*
X14407380Y-12133452D01*
X14397856Y-12114405D01*
X14397856Y-11942976D01*
X14578809Y-12133452D02*
X14559761Y-12142976D01*
X14521666Y-12142976D01*
X14502618Y-12133452D01*
X14493094Y-12114405D01*
X14493094Y-12038214D01*
X14502618Y-12019167D01*
X14521666Y-12009643D01*
X14559761Y-12009643D01*
X14578809Y-12019167D01*
X14588332Y-12038214D01*
X14588332Y-12057262D01*
X14493094Y-12076309D01*
X14664523Y-12133452D02*
X14683570Y-12142976D01*
X14721666Y-12142976D01*
X14740713Y-12133452D01*
X14750237Y-12114405D01*
X14750237Y-12104881D01*
X14740713Y-12085833D01*
X14721666Y-12076309D01*
X14693094Y-12076309D01*
X14674047Y-12066786D01*
X14664523Y-12047738D01*
X14664523Y-12038214D01*
X14674047Y-12019167D01*
X14693094Y-12009643D01*
X14721666Y-12009643D01*
X14740713Y-12019167D01*
X14816904Y-12219167D02*
X14826428Y-12209643D01*
X14845475Y-12181071D01*
X14854999Y-12162024D01*
X14864523Y-12133452D01*
X14874047Y-12085833D01*
X14874047Y-12047738D01*
X14864523Y-12000119D01*
X14854999Y-11971548D01*
X14845475Y-11952500D01*
X14826428Y-11923928D01*
X14816904Y-11914405D01*
D13*
X10044999Y-12316500D02*
G75*
G03*
X10044999Y-12316500I-12500J0D01*
G01*
D11*
X10340713Y-12206976D02*
X10359761Y-12206976D01*
X10378809Y-12216500D01*
X10388332Y-12226024D01*
X10397856Y-12245071D01*
X10407380Y-12283167D01*
X10407380Y-12330786D01*
X10397856Y-12368881D01*
X10388332Y-12387928D01*
X10378809Y-12397452D01*
X10359761Y-12406976D01*
X10340713Y-12406976D01*
X10321666Y-12397452D01*
X10312142Y-12387928D01*
X10302618Y-12368881D01*
X10293094Y-12330786D01*
X10293094Y-12283167D01*
X10302618Y-12245071D01*
X10312142Y-12226024D01*
X10321666Y-12216500D01*
X10340713Y-12206976D01*
X10493094Y-12387928D02*
X10502618Y-12397452D01*
X10493094Y-12406976D01*
X10483571Y-12397452D01*
X10493094Y-12387928D01*
X10493094Y-12406976D01*
X10578809Y-12226024D02*
X10588332Y-12216500D01*
X10607380Y-12206976D01*
X10654999Y-12206976D01*
X10674047Y-12216500D01*
X10683571Y-12226024D01*
X10693094Y-12245071D01*
X10693094Y-12264119D01*
X10683571Y-12292690D01*
X10569285Y-12406976D01*
X10693094Y-12406976D01*
X10874047Y-12206976D02*
X10778809Y-12206976D01*
X10769285Y-12302214D01*
X10778809Y-12292690D01*
X10797856Y-12283167D01*
X10845475Y-12283167D01*
X10864523Y-12292690D01*
X10874047Y-12302214D01*
X10883571Y-12321262D01*
X10883571Y-12368881D01*
X10874047Y-12387928D01*
X10864523Y-12397452D01*
X10845475Y-12406976D01*
X10797856Y-12406976D01*
X10778809Y-12397452D01*
X10769285Y-12387928D01*
X11007380Y-12206976D02*
X11026428Y-12206976D01*
X11045475Y-12216500D01*
X11054999Y-12226024D01*
X11064523Y-12245071D01*
X11074047Y-12283167D01*
X11074047Y-12330786D01*
X11064523Y-12368881D01*
X11054999Y-12387928D01*
X11045475Y-12397452D01*
X11026428Y-12406976D01*
X11007380Y-12406976D01*
X10988332Y-12397452D01*
X10978809Y-12387928D01*
X10969285Y-12368881D01*
X10959761Y-12330786D01*
X10959761Y-12283167D01*
X10969285Y-12245071D01*
X10978809Y-12226024D01*
X10988332Y-12216500D01*
X11007380Y-12206976D01*
X11159761Y-12406976D02*
X11159761Y-12273643D01*
X11159761Y-12292690D02*
X11169285Y-12283167D01*
X11188332Y-12273643D01*
X11216904Y-12273643D01*
X11235951Y-12283167D01*
X11245475Y-12302214D01*
X11245475Y-12406976D01*
X11245475Y-12302214D02*
X11254999Y-12283167D01*
X11274047Y-12273643D01*
X11302618Y-12273643D01*
X11321666Y-12283167D01*
X11331189Y-12302214D01*
X11331189Y-12406976D01*
X11426428Y-12406976D02*
X11426428Y-12273643D01*
X11426428Y-12292690D02*
X11435951Y-12283167D01*
X11454999Y-12273643D01*
X11483570Y-12273643D01*
X11502618Y-12283167D01*
X11512142Y-12302214D01*
X11512142Y-12406976D01*
X11512142Y-12302214D02*
X11521666Y-12283167D01*
X11540713Y-12273643D01*
X11569285Y-12273643D01*
X11588332Y-12283167D01*
X11597856Y-12302214D01*
X11597856Y-12406976D01*
X11988332Y-12197452D02*
X11816904Y-12454595D01*
X12245475Y-12206976D02*
X12264523Y-12206976D01*
X12283570Y-12216500D01*
X12293094Y-12226024D01*
X12302618Y-12245071D01*
X12312142Y-12283167D01*
X12312142Y-12330786D01*
X12302618Y-12368881D01*
X12293094Y-12387928D01*
X12283570Y-12397452D01*
X12264523Y-12406976D01*
X12245475Y-12406976D01*
X12226428Y-12397452D01*
X12216904Y-12387928D01*
X12207380Y-12368881D01*
X12197856Y-12330786D01*
X12197856Y-12283167D01*
X12207380Y-12245071D01*
X12216904Y-12226024D01*
X12226428Y-12216500D01*
X12245475Y-12206976D01*
X12397856Y-12387928D02*
X12407380Y-12397452D01*
X12397856Y-12406976D01*
X12388332Y-12397452D01*
X12397856Y-12387928D01*
X12397856Y-12406976D01*
X12531189Y-12206976D02*
X12550237Y-12206976D01*
X12569285Y-12216500D01*
X12578809Y-12226024D01*
X12588332Y-12245071D01*
X12597856Y-12283167D01*
X12597856Y-12330786D01*
X12588332Y-12368881D01*
X12578809Y-12387928D01*
X12569285Y-12397452D01*
X12550237Y-12406976D01*
X12531189Y-12406976D01*
X12512142Y-12397452D01*
X12502618Y-12387928D01*
X12493094Y-12368881D01*
X12483570Y-12330786D01*
X12483570Y-12283167D01*
X12493094Y-12245071D01*
X12502618Y-12226024D01*
X12512142Y-12216500D01*
X12531189Y-12206976D01*
X12721666Y-12206976D02*
X12740713Y-12206976D01*
X12759761Y-12216500D01*
X12769285Y-12226024D01*
X12778809Y-12245071D01*
X12788332Y-12283167D01*
X12788332Y-12330786D01*
X12778809Y-12368881D01*
X12769285Y-12387928D01*
X12759761Y-12397452D01*
X12740713Y-12406976D01*
X12721666Y-12406976D01*
X12702618Y-12397452D01*
X12693094Y-12387928D01*
X12683570Y-12368881D01*
X12674047Y-12330786D01*
X12674047Y-12283167D01*
X12683570Y-12245071D01*
X12693094Y-12226024D01*
X12702618Y-12216500D01*
X12721666Y-12206976D01*
X12883570Y-12406976D02*
X12921666Y-12406976D01*
X12940713Y-12397452D01*
X12950237Y-12387928D01*
X12969285Y-12359357D01*
X12978809Y-12321262D01*
X12978809Y-12245071D01*
X12969285Y-12226024D01*
X12959761Y-12216500D01*
X12940713Y-12206976D01*
X12902618Y-12206976D01*
X12883570Y-12216500D01*
X12874047Y-12226024D01*
X12864523Y-12245071D01*
X12864523Y-12292690D01*
X12874047Y-12311738D01*
X12883570Y-12321262D01*
X12902618Y-12330786D01*
X12940713Y-12330786D01*
X12959761Y-12321262D01*
X12969285Y-12311738D01*
X12978809Y-12292690D01*
X13093094Y-12292690D02*
X13074047Y-12283167D01*
X13064523Y-12273643D01*
X13054999Y-12254595D01*
X13054999Y-12245071D01*
X13064523Y-12226024D01*
X13074047Y-12216500D01*
X13093094Y-12206976D01*
X13131189Y-12206976D01*
X13150237Y-12216500D01*
X13159761Y-12226024D01*
X13169285Y-12245071D01*
X13169285Y-12254595D01*
X13159761Y-12273643D01*
X13150237Y-12283167D01*
X13131189Y-12292690D01*
X13093094Y-12292690D01*
X13074047Y-12302214D01*
X13064523Y-12311738D01*
X13054999Y-12330786D01*
X13054999Y-12368881D01*
X13064523Y-12387928D01*
X13074047Y-12397452D01*
X13093094Y-12406976D01*
X13131189Y-12406976D01*
X13150237Y-12397452D01*
X13159761Y-12387928D01*
X13169285Y-12368881D01*
X13169285Y-12330786D01*
X13159761Y-12311738D01*
X13150237Y-12302214D01*
X13131189Y-12292690D01*
X13245475Y-12206976D02*
X13245475Y-12245071D01*
X13321666Y-12206976D02*
X13321666Y-12245071D01*
X13616904Y-12483167D02*
X13607380Y-12473643D01*
X13588332Y-12445071D01*
X13578809Y-12426024D01*
X13569285Y-12397452D01*
X13559761Y-12349833D01*
X13559761Y-12311738D01*
X13569285Y-12264119D01*
X13578809Y-12235548D01*
X13588332Y-12216500D01*
X13607380Y-12187928D01*
X13616904Y-12178405D01*
X13797856Y-12406976D02*
X13683570Y-12406976D01*
X13740713Y-12406976D02*
X13740713Y-12206976D01*
X13721666Y-12235548D01*
X13702618Y-12254595D01*
X13683570Y-12264119D01*
X13874047Y-12226024D02*
X13883570Y-12216500D01*
X13902618Y-12206976D01*
X13950237Y-12206976D01*
X13969285Y-12216500D01*
X13978809Y-12226024D01*
X13988332Y-12245071D01*
X13988332Y-12264119D01*
X13978809Y-12292690D01*
X13864523Y-12406976D01*
X13988332Y-12406976D01*
X14226428Y-12406976D02*
X14226428Y-12206976D01*
X14312142Y-12406976D02*
X14312142Y-12302214D01*
X14302618Y-12283167D01*
X14283570Y-12273643D01*
X14254999Y-12273643D01*
X14235951Y-12283167D01*
X14226428Y-12292690D01*
X14435951Y-12406976D02*
X14416904Y-12397452D01*
X14407380Y-12387928D01*
X14397856Y-12368881D01*
X14397856Y-12311738D01*
X14407380Y-12292690D01*
X14416904Y-12283167D01*
X14435951Y-12273643D01*
X14464523Y-12273643D01*
X14483570Y-12283167D01*
X14493094Y-12292690D01*
X14502618Y-12311738D01*
X14502618Y-12368881D01*
X14493094Y-12387928D01*
X14483570Y-12397452D01*
X14464523Y-12406976D01*
X14435951Y-12406976D01*
X14616904Y-12406976D02*
X14597856Y-12397452D01*
X14588332Y-12378405D01*
X14588332Y-12206976D01*
X14769285Y-12397452D02*
X14750237Y-12406976D01*
X14712142Y-12406976D01*
X14693094Y-12397452D01*
X14683570Y-12378405D01*
X14683570Y-12302214D01*
X14693094Y-12283167D01*
X14712142Y-12273643D01*
X14750237Y-12273643D01*
X14769285Y-12283167D01*
X14778809Y-12302214D01*
X14778809Y-12321262D01*
X14683570Y-12340309D01*
X14854999Y-12397452D02*
X14874047Y-12406976D01*
X14912142Y-12406976D01*
X14931189Y-12397452D01*
X14940713Y-12378405D01*
X14940713Y-12368881D01*
X14931189Y-12349833D01*
X14912142Y-12340309D01*
X14883570Y-12340309D01*
X14864523Y-12330786D01*
X14854999Y-12311738D01*
X14854999Y-12302214D01*
X14864523Y-12283167D01*
X14883570Y-12273643D01*
X14912142Y-12273643D01*
X14931189Y-12283167D01*
X15007380Y-12483167D02*
X15016904Y-12473643D01*
X15035951Y-12445071D01*
X15045475Y-12426024D01*
X15054999Y-12397452D01*
X15064523Y-12349833D01*
X15064523Y-12311738D01*
X15054999Y-12264119D01*
X15045475Y-12235548D01*
X15035951Y-12216500D01*
X15016904Y-12187928D01*
X15007380Y-12178405D01*
D14*
X10029999Y-12565500D02*
X10029999Y-12595500D01*
X10014999Y-12580500D02*
X10044999Y-12580500D01*
D11*
X10340713Y-12470976D02*
X10359761Y-12470976D01*
X10378809Y-12480500D01*
X10388332Y-12490024D01*
X10397856Y-12509071D01*
X10407380Y-12547167D01*
X10407380Y-12594786D01*
X10397856Y-12632881D01*
X10388332Y-12651928D01*
X10378809Y-12661452D01*
X10359761Y-12670976D01*
X10340713Y-12670976D01*
X10321666Y-12661452D01*
X10312142Y-12651928D01*
X10302618Y-12632881D01*
X10293094Y-12594786D01*
X10293094Y-12547167D01*
X10302618Y-12509071D01*
X10312142Y-12490024D01*
X10321666Y-12480500D01*
X10340713Y-12470976D01*
X10493094Y-12651928D02*
X10502618Y-12661452D01*
X10493094Y-12670976D01*
X10483571Y-12661452D01*
X10493094Y-12651928D01*
X10493094Y-12670976D01*
X10569285Y-12470976D02*
X10693094Y-12470976D01*
X10626428Y-12547167D01*
X10654999Y-12547167D01*
X10674047Y-12556690D01*
X10683571Y-12566214D01*
X10693094Y-12585262D01*
X10693094Y-12632881D01*
X10683571Y-12651928D01*
X10674047Y-12661452D01*
X10654999Y-12670976D01*
X10597856Y-12670976D01*
X10578809Y-12661452D01*
X10569285Y-12651928D01*
X10816904Y-12470976D02*
X10835951Y-12470976D01*
X10854999Y-12480500D01*
X10864523Y-12490024D01*
X10874047Y-12509071D01*
X10883571Y-12547167D01*
X10883571Y-12594786D01*
X10874047Y-12632881D01*
X10864523Y-12651928D01*
X10854999Y-12661452D01*
X10835951Y-12670976D01*
X10816904Y-12670976D01*
X10797856Y-12661452D01*
X10788332Y-12651928D01*
X10778809Y-12632881D01*
X10769285Y-12594786D01*
X10769285Y-12547167D01*
X10778809Y-12509071D01*
X10788332Y-12490024D01*
X10797856Y-12480500D01*
X10816904Y-12470976D01*
X11007380Y-12470976D02*
X11026428Y-12470976D01*
X11045475Y-12480500D01*
X11054999Y-12490024D01*
X11064523Y-12509071D01*
X11074047Y-12547167D01*
X11074047Y-12594786D01*
X11064523Y-12632881D01*
X11054999Y-12651928D01*
X11045475Y-12661452D01*
X11026428Y-12670976D01*
X11007380Y-12670976D01*
X10988332Y-12661452D01*
X10978809Y-12651928D01*
X10969285Y-12632881D01*
X10959761Y-12594786D01*
X10959761Y-12547167D01*
X10969285Y-12509071D01*
X10978809Y-12490024D01*
X10988332Y-12480500D01*
X11007380Y-12470976D01*
X11159761Y-12670976D02*
X11159761Y-12537643D01*
X11159761Y-12556690D02*
X11169285Y-12547167D01*
X11188332Y-12537643D01*
X11216904Y-12537643D01*
X11235951Y-12547167D01*
X11245475Y-12566214D01*
X11245475Y-12670976D01*
X11245475Y-12566214D02*
X11254999Y-12547167D01*
X11274047Y-12537643D01*
X11302618Y-12537643D01*
X11321666Y-12547167D01*
X11331189Y-12566214D01*
X11331189Y-12670976D01*
X11426428Y-12670976D02*
X11426428Y-12537643D01*
X11426428Y-12556690D02*
X11435951Y-12547167D01*
X11454999Y-12537643D01*
X11483570Y-12537643D01*
X11502618Y-12547167D01*
X11512142Y-12566214D01*
X11512142Y-12670976D01*
X11512142Y-12566214D02*
X11521666Y-12547167D01*
X11540713Y-12537643D01*
X11569285Y-12537643D01*
X11588332Y-12547167D01*
X11597856Y-12566214D01*
X11597856Y-12670976D01*
X11988332Y-12461452D02*
X11816904Y-12718595D01*
X12245475Y-12470976D02*
X12264523Y-12470976D01*
X12283570Y-12480500D01*
X12293094Y-12490024D01*
X12302618Y-12509071D01*
X12312142Y-12547167D01*
X12312142Y-12594786D01*
X12302618Y-12632881D01*
X12293094Y-12651928D01*
X12283570Y-12661452D01*
X12264523Y-12670976D01*
X12245475Y-12670976D01*
X12226428Y-12661452D01*
X12216904Y-12651928D01*
X12207380Y-12632881D01*
X12197856Y-12594786D01*
X12197856Y-12547167D01*
X12207380Y-12509071D01*
X12216904Y-12490024D01*
X12226428Y-12480500D01*
X12245475Y-12470976D01*
X12397856Y-12651928D02*
X12407380Y-12661452D01*
X12397856Y-12670976D01*
X12388332Y-12661452D01*
X12397856Y-12651928D01*
X12397856Y-12670976D01*
X12531189Y-12470976D02*
X12550237Y-12470976D01*
X12569285Y-12480500D01*
X12578809Y-12490024D01*
X12588332Y-12509071D01*
X12597856Y-12547167D01*
X12597856Y-12594786D01*
X12588332Y-12632881D01*
X12578809Y-12651928D01*
X12569285Y-12661452D01*
X12550237Y-12670976D01*
X12531189Y-12670976D01*
X12512142Y-12661452D01*
X12502618Y-12651928D01*
X12493094Y-12632881D01*
X12483570Y-12594786D01*
X12483570Y-12547167D01*
X12493094Y-12509071D01*
X12502618Y-12490024D01*
X12512142Y-12480500D01*
X12531189Y-12470976D01*
X12788332Y-12670976D02*
X12674047Y-12670976D01*
X12731189Y-12670976D02*
X12731189Y-12470976D01*
X12712142Y-12499548D01*
X12693094Y-12518595D01*
X12674047Y-12528119D01*
X12978809Y-12670976D02*
X12864523Y-12670976D01*
X12921666Y-12670976D02*
X12921666Y-12470976D01*
X12902618Y-12499548D01*
X12883570Y-12518595D01*
X12864523Y-12528119D01*
X13093094Y-12556690D02*
X13074047Y-12547167D01*
X13064523Y-12537643D01*
X13054999Y-12518595D01*
X13054999Y-12509071D01*
X13064523Y-12490024D01*
X13074047Y-12480500D01*
X13093094Y-12470976D01*
X13131189Y-12470976D01*
X13150237Y-12480500D01*
X13159761Y-12490024D01*
X13169285Y-12509071D01*
X13169285Y-12518595D01*
X13159761Y-12537643D01*
X13150237Y-12547167D01*
X13131189Y-12556690D01*
X13093094Y-12556690D01*
X13074047Y-12566214D01*
X13064523Y-12575738D01*
X13054999Y-12594786D01*
X13054999Y-12632881D01*
X13064523Y-12651928D01*
X13074047Y-12661452D01*
X13093094Y-12670976D01*
X13131189Y-12670976D01*
X13150237Y-12661452D01*
X13159761Y-12651928D01*
X13169285Y-12632881D01*
X13169285Y-12594786D01*
X13159761Y-12575738D01*
X13150237Y-12566214D01*
X13131189Y-12556690D01*
X13245475Y-12470976D02*
X13245475Y-12509071D01*
X13321666Y-12470976D02*
X13321666Y-12509071D01*
X13616904Y-12747167D02*
X13607380Y-12737643D01*
X13588332Y-12709071D01*
X13578809Y-12690024D01*
X13569285Y-12661452D01*
X13559761Y-12613833D01*
X13559761Y-12575738D01*
X13569285Y-12528119D01*
X13578809Y-12499548D01*
X13588332Y-12480500D01*
X13607380Y-12451928D01*
X13616904Y-12442405D01*
X13683570Y-12490024D02*
X13693094Y-12480500D01*
X13712142Y-12470976D01*
X13759761Y-12470976D01*
X13778809Y-12480500D01*
X13788332Y-12490024D01*
X13797856Y-12509071D01*
X13797856Y-12528119D01*
X13788332Y-12556690D01*
X13674047Y-12670976D01*
X13797856Y-12670976D01*
X13988332Y-12670976D02*
X13874047Y-12670976D01*
X13931189Y-12670976D02*
X13931189Y-12470976D01*
X13912142Y-12499548D01*
X13893094Y-12518595D01*
X13874047Y-12528119D01*
X14159761Y-12537643D02*
X14159761Y-12670976D01*
X14112142Y-12461452D02*
X14064523Y-12604309D01*
X14188332Y-12604309D01*
X14416904Y-12670976D02*
X14416904Y-12470976D01*
X14502618Y-12670976D02*
X14502618Y-12566214D01*
X14493094Y-12547167D01*
X14474047Y-12537643D01*
X14445475Y-12537643D01*
X14426428Y-12547167D01*
X14416904Y-12556690D01*
X14626428Y-12670976D02*
X14607380Y-12661452D01*
X14597856Y-12651928D01*
X14588332Y-12632881D01*
X14588332Y-12575738D01*
X14597856Y-12556690D01*
X14607380Y-12547167D01*
X14626428Y-12537643D01*
X14654999Y-12537643D01*
X14674047Y-12547167D01*
X14683570Y-12556690D01*
X14693094Y-12575738D01*
X14693094Y-12632881D01*
X14683570Y-12651928D01*
X14674047Y-12661452D01*
X14654999Y-12670976D01*
X14626428Y-12670976D01*
X14807380Y-12670976D02*
X14788332Y-12661452D01*
X14778809Y-12642405D01*
X14778809Y-12470976D01*
X14959761Y-12661452D02*
X14940713Y-12670976D01*
X14902618Y-12670976D01*
X14883570Y-12661452D01*
X14874047Y-12642405D01*
X14874047Y-12566214D01*
X14883570Y-12547167D01*
X14902618Y-12537643D01*
X14940713Y-12537643D01*
X14959761Y-12547167D01*
X14969285Y-12566214D01*
X14969285Y-12585262D01*
X14874047Y-12604309D01*
X15045475Y-12661452D02*
X15064523Y-12670976D01*
X15102618Y-12670976D01*
X15121666Y-12661452D01*
X15131189Y-12642405D01*
X15131189Y-12632881D01*
X15121666Y-12613833D01*
X15102618Y-12604309D01*
X15074047Y-12604309D01*
X15054999Y-12594786D01*
X15045475Y-12575738D01*
X15045475Y-12566214D01*
X15054999Y-12547167D01*
X15074047Y-12537643D01*
X15102618Y-12537643D01*
X15121666Y-12547167D01*
X15197856Y-12747167D02*
X15207380Y-12737643D01*
X15226428Y-12709071D01*
X15235951Y-12690024D01*
X15245475Y-12661452D01*
X15254999Y-12613833D01*
X15254999Y-12575738D01*
X15245475Y-12528119D01*
X15235951Y-12499548D01*
X15226428Y-12480500D01*
X15207380Y-12451928D01*
X15197856Y-12442405D01*
D15*
X10039141Y-12858642D02*
X10039141Y-12830358D01*
X10010857Y-12830358D01*
X10010857Y-12858642D01*
X10039141Y-12858642D01*
D11*
X10340713Y-12734976D02*
X10359761Y-12734976D01*
X10378809Y-12744500D01*
X10388332Y-12754024D01*
X10397856Y-12773071D01*
X10407380Y-12811167D01*
X10407380Y-12858786D01*
X10397856Y-12896881D01*
X10388332Y-12915928D01*
X10378809Y-12925452D01*
X10359761Y-12934976D01*
X10340713Y-12934976D01*
X10321666Y-12925452D01*
X10312142Y-12915928D01*
X10302618Y-12896881D01*
X10293094Y-12858786D01*
X10293094Y-12811167D01*
X10302618Y-12773071D01*
X10312142Y-12754024D01*
X10321666Y-12744500D01*
X10340713Y-12734976D01*
X10493094Y-12915928D02*
X10502618Y-12925452D01*
X10493094Y-12934976D01*
X10483571Y-12925452D01*
X10493094Y-12915928D01*
X10493094Y-12934976D01*
X10674047Y-12801643D02*
X10674047Y-12934976D01*
X10626428Y-12725452D02*
X10578809Y-12868309D01*
X10702618Y-12868309D01*
X10816904Y-12734976D02*
X10835951Y-12734976D01*
X10854999Y-12744500D01*
X10864523Y-12754024D01*
X10874047Y-12773071D01*
X10883571Y-12811167D01*
X10883571Y-12858786D01*
X10874047Y-12896881D01*
X10864523Y-12915928D01*
X10854999Y-12925452D01*
X10835951Y-12934976D01*
X10816904Y-12934976D01*
X10797856Y-12925452D01*
X10788332Y-12915928D01*
X10778809Y-12896881D01*
X10769285Y-12858786D01*
X10769285Y-12811167D01*
X10778809Y-12773071D01*
X10788332Y-12754024D01*
X10797856Y-12744500D01*
X10816904Y-12734976D01*
X11007380Y-12734976D02*
X11026428Y-12734976D01*
X11045475Y-12744500D01*
X11054999Y-12754024D01*
X11064523Y-12773071D01*
X11074047Y-12811167D01*
X11074047Y-12858786D01*
X11064523Y-12896881D01*
X11054999Y-12915928D01*
X11045475Y-12925452D01*
X11026428Y-12934976D01*
X11007380Y-12934976D01*
X10988332Y-12925452D01*
X10978809Y-12915928D01*
X10969285Y-12896881D01*
X10959761Y-12858786D01*
X10959761Y-12811167D01*
X10969285Y-12773071D01*
X10978809Y-12754024D01*
X10988332Y-12744500D01*
X11007380Y-12734976D01*
X11159761Y-12934976D02*
X11159761Y-12801643D01*
X11159761Y-12820690D02*
X11169285Y-12811167D01*
X11188332Y-12801643D01*
X11216904Y-12801643D01*
X11235951Y-12811167D01*
X11245475Y-12830214D01*
X11245475Y-12934976D01*
X11245475Y-12830214D02*
X11254999Y-12811167D01*
X11274047Y-12801643D01*
X11302618Y-12801643D01*
X11321666Y-12811167D01*
X11331189Y-12830214D01*
X11331189Y-12934976D01*
X11426428Y-12934976D02*
X11426428Y-12801643D01*
X11426428Y-12820690D02*
X11435951Y-12811167D01*
X11454999Y-12801643D01*
X11483570Y-12801643D01*
X11502618Y-12811167D01*
X11512142Y-12830214D01*
X11512142Y-12934976D01*
X11512142Y-12830214D02*
X11521666Y-12811167D01*
X11540713Y-12801643D01*
X11569285Y-12801643D01*
X11588332Y-12811167D01*
X11597856Y-12830214D01*
X11597856Y-12934976D01*
X11988332Y-12725452D02*
X11816904Y-12982595D01*
X12245475Y-12734976D02*
X12264523Y-12734976D01*
X12283570Y-12744500D01*
X12293094Y-12754024D01*
X12302618Y-12773071D01*
X12312142Y-12811167D01*
X12312142Y-12858786D01*
X12302618Y-12896881D01*
X12293094Y-12915928D01*
X12283570Y-12925452D01*
X12264523Y-12934976D01*
X12245475Y-12934976D01*
X12226428Y-12925452D01*
X12216904Y-12915928D01*
X12207380Y-12896881D01*
X12197856Y-12858786D01*
X12197856Y-12811167D01*
X12207380Y-12773071D01*
X12216904Y-12754024D01*
X12226428Y-12744500D01*
X12245475Y-12734976D01*
X12397856Y-12915928D02*
X12407380Y-12925452D01*
X12397856Y-12934976D01*
X12388332Y-12925452D01*
X12397856Y-12915928D01*
X12397856Y-12934976D01*
X12531189Y-12734976D02*
X12550237Y-12734976D01*
X12569285Y-12744500D01*
X12578809Y-12754024D01*
X12588332Y-12773071D01*
X12597856Y-12811167D01*
X12597856Y-12858786D01*
X12588332Y-12896881D01*
X12578809Y-12915928D01*
X12569285Y-12925452D01*
X12550237Y-12934976D01*
X12531189Y-12934976D01*
X12512142Y-12925452D01*
X12502618Y-12915928D01*
X12493094Y-12896881D01*
X12483570Y-12858786D01*
X12483570Y-12811167D01*
X12493094Y-12773071D01*
X12502618Y-12754024D01*
X12512142Y-12744500D01*
X12531189Y-12734976D01*
X12788332Y-12934976D02*
X12674047Y-12934976D01*
X12731189Y-12934976D02*
X12731189Y-12734976D01*
X12712142Y-12763548D01*
X12693094Y-12782595D01*
X12674047Y-12792119D01*
X12969285Y-12734976D02*
X12874047Y-12734976D01*
X12864523Y-12830214D01*
X12874047Y-12820690D01*
X12893094Y-12811167D01*
X12940713Y-12811167D01*
X12959761Y-12820690D01*
X12969285Y-12830214D01*
X12978809Y-12849262D01*
X12978809Y-12896881D01*
X12969285Y-12915928D01*
X12959761Y-12925452D01*
X12940713Y-12934976D01*
X12893094Y-12934976D01*
X12874047Y-12925452D01*
X12864523Y-12915928D01*
X13045475Y-12734976D02*
X13178809Y-12734976D01*
X13093094Y-12934976D01*
X13245475Y-12734976D02*
X13245475Y-12773071D01*
X13321666Y-12734976D02*
X13321666Y-12773071D01*
X13616904Y-13011167D02*
X13607380Y-13001643D01*
X13588332Y-12973071D01*
X13578809Y-12954024D01*
X13569285Y-12925452D01*
X13559761Y-12877833D01*
X13559761Y-12839738D01*
X13569285Y-12792119D01*
X13578809Y-12763548D01*
X13588332Y-12744500D01*
X13607380Y-12715928D01*
X13616904Y-12706405D01*
X13797856Y-12934976D02*
X13683570Y-12934976D01*
X13740713Y-12934976D02*
X13740713Y-12734976D01*
X13721666Y-12763548D01*
X13702618Y-12782595D01*
X13683570Y-12792119D01*
X13864523Y-12734976D02*
X13997856Y-12734976D01*
X13912142Y-12934976D01*
X14102618Y-12820690D02*
X14083570Y-12811167D01*
X14074047Y-12801643D01*
X14064523Y-12782595D01*
X14064523Y-12773071D01*
X14074047Y-12754024D01*
X14083570Y-12744500D01*
X14102618Y-12734976D01*
X14140713Y-12734976D01*
X14159761Y-12744500D01*
X14169285Y-12754024D01*
X14178809Y-12773071D01*
X14178809Y-12782595D01*
X14169285Y-12801643D01*
X14159761Y-12811167D01*
X14140713Y-12820690D01*
X14102618Y-12820690D01*
X14083570Y-12830214D01*
X14074047Y-12839738D01*
X14064523Y-12858786D01*
X14064523Y-12896881D01*
X14074047Y-12915928D01*
X14083570Y-12925452D01*
X14102618Y-12934976D01*
X14140713Y-12934976D01*
X14159761Y-12925452D01*
X14169285Y-12915928D01*
X14178809Y-12896881D01*
X14178809Y-12858786D01*
X14169285Y-12839738D01*
X14159761Y-12830214D01*
X14140713Y-12820690D01*
X14416904Y-12934976D02*
X14416904Y-12734976D01*
X14502618Y-12934976D02*
X14502618Y-12830214D01*
X14493094Y-12811167D01*
X14474047Y-12801643D01*
X14445475Y-12801643D01*
X14426428Y-12811167D01*
X14416904Y-12820690D01*
X14626428Y-12934976D02*
X14607380Y-12925452D01*
X14597856Y-12915928D01*
X14588332Y-12896881D01*
X14588332Y-12839738D01*
X14597856Y-12820690D01*
X14607380Y-12811167D01*
X14626428Y-12801643D01*
X14654999Y-12801643D01*
X14674047Y-12811167D01*
X14683570Y-12820690D01*
X14693094Y-12839738D01*
X14693094Y-12896881D01*
X14683570Y-12915928D01*
X14674047Y-12925452D01*
X14654999Y-12934976D01*
X14626428Y-12934976D01*
X14807380Y-12934976D02*
X14788332Y-12925452D01*
X14778809Y-12906405D01*
X14778809Y-12734976D01*
X14959761Y-12925452D02*
X14940713Y-12934976D01*
X14902618Y-12934976D01*
X14883570Y-12925452D01*
X14874047Y-12906405D01*
X14874047Y-12830214D01*
X14883570Y-12811167D01*
X14902618Y-12801643D01*
X14940713Y-12801643D01*
X14959761Y-12811167D01*
X14969285Y-12830214D01*
X14969285Y-12849262D01*
X14874047Y-12868309D01*
X15045475Y-12925452D02*
X15064523Y-12934976D01*
X15102618Y-12934976D01*
X15121666Y-12925452D01*
X15131189Y-12906405D01*
X15131189Y-12896881D01*
X15121666Y-12877833D01*
X15102618Y-12868309D01*
X15074047Y-12868309D01*
X15054999Y-12858786D01*
X15045475Y-12839738D01*
X15045475Y-12830214D01*
X15054999Y-12811167D01*
X15074047Y-12801643D01*
X15102618Y-12801643D01*
X15121666Y-12811167D01*
X15197856Y-13011167D02*
X15207380Y-13001643D01*
X15226428Y-12973071D01*
X15235951Y-12954024D01*
X15245475Y-12925452D01*
X15254999Y-12877833D01*
X15254999Y-12839738D01*
X15245475Y-12792119D01*
X15235951Y-12763548D01*
X15226428Y-12744500D01*
X15207380Y-12715928D01*
X15197856Y-12706405D01*
D16*
X10014999Y-13138500D02*
X10044999Y-13108500D01*
X10014999Y-13078500D01*
X9984999Y-13108500D01*
X10014999Y-13138500D01*
D11*
X10340713Y-12998976D02*
X10359761Y-12998976D01*
X10378809Y-13008500D01*
X10388332Y-13018024D01*
X10397856Y-13037071D01*
X10407380Y-13075167D01*
X10407380Y-13122786D01*
X10397856Y-13160881D01*
X10388332Y-13179928D01*
X10378809Y-13189452D01*
X10359761Y-13198976D01*
X10340713Y-13198976D01*
X10321666Y-13189452D01*
X10312142Y-13179928D01*
X10302618Y-13160881D01*
X10293094Y-13122786D01*
X10293094Y-13075167D01*
X10302618Y-13037071D01*
X10312142Y-13018024D01*
X10321666Y-13008500D01*
X10340713Y-12998976D01*
X10493094Y-13179928D02*
X10502618Y-13189452D01*
X10493094Y-13198976D01*
X10483571Y-13189452D01*
X10493094Y-13179928D01*
X10493094Y-13198976D01*
X10674047Y-12998976D02*
X10635951Y-12998976D01*
X10616904Y-13008500D01*
X10607380Y-13018024D01*
X10588332Y-13046595D01*
X10578809Y-13084690D01*
X10578809Y-13160881D01*
X10588332Y-13179928D01*
X10597856Y-13189452D01*
X10616904Y-13198976D01*
X10654999Y-13198976D01*
X10674047Y-13189452D01*
X10683571Y-13179928D01*
X10693094Y-13160881D01*
X10693094Y-13113262D01*
X10683571Y-13094214D01*
X10674047Y-13084690D01*
X10654999Y-13075167D01*
X10616904Y-13075167D01*
X10597856Y-13084690D01*
X10588332Y-13094214D01*
X10578809Y-13113262D01*
X10816904Y-12998976D02*
X10835951Y-12998976D01*
X10854999Y-13008500D01*
X10864523Y-13018024D01*
X10874047Y-13037071D01*
X10883571Y-13075167D01*
X10883571Y-13122786D01*
X10874047Y-13160881D01*
X10864523Y-13179928D01*
X10854999Y-13189452D01*
X10835951Y-13198976D01*
X10816904Y-13198976D01*
X10797856Y-13189452D01*
X10788332Y-13179928D01*
X10778809Y-13160881D01*
X10769285Y-13122786D01*
X10769285Y-13075167D01*
X10778809Y-13037071D01*
X10788332Y-13018024D01*
X10797856Y-13008500D01*
X10816904Y-12998976D01*
X11007380Y-12998976D02*
X11026428Y-12998976D01*
X11045475Y-13008500D01*
X11054999Y-13018024D01*
X11064523Y-13037071D01*
X11074047Y-13075167D01*
X11074047Y-13122786D01*
X11064523Y-13160881D01*
X11054999Y-13179928D01*
X11045475Y-13189452D01*
X11026428Y-13198976D01*
X11007380Y-13198976D01*
X10988332Y-13189452D01*
X10978809Y-13179928D01*
X10969285Y-13160881D01*
X10959761Y-13122786D01*
X10959761Y-13075167D01*
X10969285Y-13037071D01*
X10978809Y-13018024D01*
X10988332Y-13008500D01*
X11007380Y-12998976D01*
X11159761Y-13198976D02*
X11159761Y-13065643D01*
X11159761Y-13084690D02*
X11169285Y-13075167D01*
X11188332Y-13065643D01*
X11216904Y-13065643D01*
X11235951Y-13075167D01*
X11245475Y-13094214D01*
X11245475Y-13198976D01*
X11245475Y-13094214D02*
X11254999Y-13075167D01*
X11274047Y-13065643D01*
X11302618Y-13065643D01*
X11321666Y-13075167D01*
X11331189Y-13094214D01*
X11331189Y-13198976D01*
X11426428Y-13198976D02*
X11426428Y-13065643D01*
X11426428Y-13084690D02*
X11435951Y-13075167D01*
X11454999Y-13065643D01*
X11483570Y-13065643D01*
X11502618Y-13075167D01*
X11512142Y-13094214D01*
X11512142Y-13198976D01*
X11512142Y-13094214D02*
X11521666Y-13075167D01*
X11540713Y-13065643D01*
X11569285Y-13065643D01*
X11588332Y-13075167D01*
X11597856Y-13094214D01*
X11597856Y-13198976D01*
X11988332Y-12989452D02*
X11816904Y-13246595D01*
X12245475Y-12998976D02*
X12264523Y-12998976D01*
X12283570Y-13008500D01*
X12293094Y-13018024D01*
X12302618Y-13037071D01*
X12312142Y-13075167D01*
X12312142Y-13122786D01*
X12302618Y-13160881D01*
X12293094Y-13179928D01*
X12283570Y-13189452D01*
X12264523Y-13198976D01*
X12245475Y-13198976D01*
X12226428Y-13189452D01*
X12216904Y-13179928D01*
X12207380Y-13160881D01*
X12197856Y-13122786D01*
X12197856Y-13075167D01*
X12207380Y-13037071D01*
X12216904Y-13018024D01*
X12226428Y-13008500D01*
X12245475Y-12998976D01*
X12397856Y-13179928D02*
X12407380Y-13189452D01*
X12397856Y-13198976D01*
X12388332Y-13189452D01*
X12397856Y-13179928D01*
X12397856Y-13198976D01*
X12531189Y-12998976D02*
X12550237Y-12998976D01*
X12569285Y-13008500D01*
X12578809Y-13018024D01*
X12588332Y-13037071D01*
X12597856Y-13075167D01*
X12597856Y-13122786D01*
X12588332Y-13160881D01*
X12578809Y-13179928D01*
X12569285Y-13189452D01*
X12550237Y-13198976D01*
X12531189Y-13198976D01*
X12512142Y-13189452D01*
X12502618Y-13179928D01*
X12493094Y-13160881D01*
X12483570Y-13122786D01*
X12483570Y-13075167D01*
X12493094Y-13037071D01*
X12502618Y-13018024D01*
X12512142Y-13008500D01*
X12531189Y-12998976D01*
X12674047Y-13018024D02*
X12683570Y-13008500D01*
X12702618Y-12998976D01*
X12750237Y-12998976D01*
X12769285Y-13008500D01*
X12778809Y-13018024D01*
X12788332Y-13037071D01*
X12788332Y-13056119D01*
X12778809Y-13084690D01*
X12664523Y-13198976D01*
X12788332Y-13198976D01*
X12854999Y-12998976D02*
X12978809Y-12998976D01*
X12912142Y-13075167D01*
X12940713Y-13075167D01*
X12959761Y-13084690D01*
X12969285Y-13094214D01*
X12978809Y-13113262D01*
X12978809Y-13160881D01*
X12969285Y-13179928D01*
X12959761Y-13189452D01*
X12940713Y-13198976D01*
X12883570Y-13198976D01*
X12864523Y-13189452D01*
X12854999Y-13179928D01*
X13150237Y-12998976D02*
X13112142Y-12998976D01*
X13093094Y-13008500D01*
X13083570Y-13018024D01*
X13064523Y-13046595D01*
X13054999Y-13084690D01*
X13054999Y-13160881D01*
X13064523Y-13179928D01*
X13074047Y-13189452D01*
X13093094Y-13198976D01*
X13131189Y-13198976D01*
X13150237Y-13189452D01*
X13159761Y-13179928D01*
X13169285Y-13160881D01*
X13169285Y-13113262D01*
X13159761Y-13094214D01*
X13150237Y-13084690D01*
X13131189Y-13075167D01*
X13093094Y-13075167D01*
X13074047Y-13084690D01*
X13064523Y-13094214D01*
X13054999Y-13113262D01*
X13245475Y-12998976D02*
X13245475Y-13037071D01*
X13321666Y-12998976D02*
X13321666Y-13037071D01*
X13616904Y-13275167D02*
X13607380Y-13265643D01*
X13588332Y-13237071D01*
X13578809Y-13218024D01*
X13569285Y-13189452D01*
X13559761Y-13141833D01*
X13559761Y-13103738D01*
X13569285Y-13056119D01*
X13578809Y-13027548D01*
X13588332Y-13008500D01*
X13607380Y-12979928D01*
X13616904Y-12970405D01*
X13731189Y-12998976D02*
X13750237Y-12998976D01*
X13769285Y-13008500D01*
X13778809Y-13018024D01*
X13788332Y-13037071D01*
X13797856Y-13075167D01*
X13797856Y-13122786D01*
X13788332Y-13160881D01*
X13778809Y-13179928D01*
X13769285Y-13189452D01*
X13750237Y-13198976D01*
X13731189Y-13198976D01*
X13712142Y-13189452D01*
X13702618Y-13179928D01*
X13693094Y-13160881D01*
X13683570Y-13122786D01*
X13683570Y-13075167D01*
X13693094Y-13037071D01*
X13702618Y-13018024D01*
X13712142Y-13008500D01*
X13731189Y-12998976D01*
X14035951Y-13198976D02*
X14035951Y-12998976D01*
X14121666Y-13198976D02*
X14121666Y-13094214D01*
X14112142Y-13075167D01*
X14093094Y-13065643D01*
X14064523Y-13065643D01*
X14045475Y-13075167D01*
X14035951Y-13084690D01*
X14245475Y-13198976D02*
X14226428Y-13189452D01*
X14216904Y-13179928D01*
X14207380Y-13160881D01*
X14207380Y-13103738D01*
X14216904Y-13084690D01*
X14226428Y-13075167D01*
X14245475Y-13065643D01*
X14274047Y-13065643D01*
X14293094Y-13075167D01*
X14302618Y-13084690D01*
X14312142Y-13103738D01*
X14312142Y-13160881D01*
X14302618Y-13179928D01*
X14293094Y-13189452D01*
X14274047Y-13198976D01*
X14245475Y-13198976D01*
X14426428Y-13198976D02*
X14407380Y-13189452D01*
X14397856Y-13170405D01*
X14397856Y-12998976D01*
X14578809Y-13189452D02*
X14559761Y-13198976D01*
X14521666Y-13198976D01*
X14502618Y-13189452D01*
X14493094Y-13170405D01*
X14493094Y-13094214D01*
X14502618Y-13075167D01*
X14521666Y-13065643D01*
X14559761Y-13065643D01*
X14578809Y-13075167D01*
X14588332Y-13094214D01*
X14588332Y-13113262D01*
X14493094Y-13132309D01*
X14664523Y-13189452D02*
X14683570Y-13198976D01*
X14721666Y-13198976D01*
X14740713Y-13189452D01*
X14750237Y-13170405D01*
X14750237Y-13160881D01*
X14740713Y-13141833D01*
X14721666Y-13132309D01*
X14693094Y-13132309D01*
X14674047Y-13122786D01*
X14664523Y-13103738D01*
X14664523Y-13094214D01*
X14674047Y-13075167D01*
X14693094Y-13065643D01*
X14721666Y-13065643D01*
X14740713Y-13075167D01*
X14988332Y-13122786D02*
X15140713Y-13122786D01*
X15064523Y-13198976D02*
X15064523Y-13046595D01*
X15378809Y-13018024D02*
X15388332Y-13008500D01*
X15407380Y-12998976D01*
X15454999Y-12998976D01*
X15474047Y-13008500D01*
X15483570Y-13018024D01*
X15493094Y-13037071D01*
X15493094Y-13056119D01*
X15483570Y-13084690D01*
X15369285Y-13198976D01*
X15493094Y-13198976D01*
X15721666Y-13189452D02*
X15740713Y-13198976D01*
X15778809Y-13198976D01*
X15797856Y-13189452D01*
X15807380Y-13170405D01*
X15807380Y-13160881D01*
X15797856Y-13141833D01*
X15778809Y-13132309D01*
X15750237Y-13132309D01*
X15731189Y-13122786D01*
X15721666Y-13103738D01*
X15721666Y-13094214D01*
X15731189Y-13075167D01*
X15750237Y-13065643D01*
X15778809Y-13065643D01*
X15797856Y-13075167D01*
X15921666Y-13198976D02*
X15902618Y-13189452D01*
X15893094Y-13170405D01*
X15893094Y-12998976D01*
X16026428Y-13198976D02*
X16007380Y-13189452D01*
X15997856Y-13179928D01*
X15988332Y-13160881D01*
X15988332Y-13103738D01*
X15997856Y-13084690D01*
X16007380Y-13075167D01*
X16026428Y-13065643D01*
X16054999Y-13065643D01*
X16074047Y-13075167D01*
X16083570Y-13084690D01*
X16093094Y-13103738D01*
X16093094Y-13160881D01*
X16083570Y-13179928D01*
X16074047Y-13189452D01*
X16054999Y-13198976D01*
X16026428Y-13198976D01*
X16150237Y-13065643D02*
X16226428Y-13065643D01*
X16178809Y-12998976D02*
X16178809Y-13170405D01*
X16188332Y-13189452D01*
X16207380Y-13198976D01*
X16226428Y-13198976D01*
X16283570Y-13189452D02*
X16302618Y-13198976D01*
X16340713Y-13198976D01*
X16359761Y-13189452D01*
X16369285Y-13170405D01*
X16369285Y-13160881D01*
X16359761Y-13141833D01*
X16340713Y-13132309D01*
X16312142Y-13132309D01*
X16293094Y-13122786D01*
X16283570Y-13103738D01*
X16283570Y-13094214D01*
X16293094Y-13075167D01*
X16312142Y-13065643D01*
X16340713Y-13065643D01*
X16359761Y-13075167D01*
X16435951Y-13275167D02*
X16445475Y-13265643D01*
X16464523Y-13237071D01*
X16474047Y-13218024D01*
X16483570Y-13189452D01*
X16493094Y-13141833D01*
X16493094Y-13103738D01*
X16483570Y-13056119D01*
X16474047Y-13027548D01*
X16464523Y-13008500D01*
X16445475Y-12979928D01*
X16435951Y-12970405D01*
D17*
X9969999Y-13335000D02*
X10044999Y-13410000D01*
X10044999Y-13335000D02*
X9969999Y-13410000D01*
X10044999Y-13372500D02*
G75*
G03*
X10044999Y-13372500I-37500J0D01*
G01*
D11*
X10340713Y-13262976D02*
X10359761Y-13262976D01*
X10378809Y-13272500D01*
X10388332Y-13282024D01*
X10397856Y-13301071D01*
X10407380Y-13339167D01*
X10407380Y-13386786D01*
X10397856Y-13424881D01*
X10388332Y-13443928D01*
X10378809Y-13453452D01*
X10359761Y-13462976D01*
X10340713Y-13462976D01*
X10321666Y-13453452D01*
X10312142Y-13443928D01*
X10302618Y-13424881D01*
X10293094Y-13386786D01*
X10293094Y-13339167D01*
X10302618Y-13301071D01*
X10312142Y-13282024D01*
X10321666Y-13272500D01*
X10340713Y-13262976D01*
X10493094Y-13443928D02*
X10502618Y-13453452D01*
X10493094Y-13462976D01*
X10483571Y-13453452D01*
X10493094Y-13443928D01*
X10493094Y-13462976D01*
X10569285Y-13262976D02*
X10702618Y-13262976D01*
X10616904Y-13462976D01*
X10874047Y-13262976D02*
X10778809Y-13262976D01*
X10769285Y-13358214D01*
X10778809Y-13348690D01*
X10797856Y-13339167D01*
X10845475Y-13339167D01*
X10864523Y-13348690D01*
X10874047Y-13358214D01*
X10883571Y-13377262D01*
X10883571Y-13424881D01*
X10874047Y-13443928D01*
X10864523Y-13453452D01*
X10845475Y-13462976D01*
X10797856Y-13462976D01*
X10778809Y-13453452D01*
X10769285Y-13443928D01*
X11007380Y-13262976D02*
X11026428Y-13262976D01*
X11045475Y-13272500D01*
X11054999Y-13282024D01*
X11064523Y-13301071D01*
X11074047Y-13339167D01*
X11074047Y-13386786D01*
X11064523Y-13424881D01*
X11054999Y-13443928D01*
X11045475Y-13453452D01*
X11026428Y-13462976D01*
X11007380Y-13462976D01*
X10988332Y-13453452D01*
X10978809Y-13443928D01*
X10969285Y-13424881D01*
X10959761Y-13386786D01*
X10959761Y-13339167D01*
X10969285Y-13301071D01*
X10978809Y-13282024D01*
X10988332Y-13272500D01*
X11007380Y-13262976D01*
X11159761Y-13462976D02*
X11159761Y-13329643D01*
X11159761Y-13348690D02*
X11169285Y-13339167D01*
X11188332Y-13329643D01*
X11216904Y-13329643D01*
X11235951Y-13339167D01*
X11245475Y-13358214D01*
X11245475Y-13462976D01*
X11245475Y-13358214D02*
X11254999Y-13339167D01*
X11274047Y-13329643D01*
X11302618Y-13329643D01*
X11321666Y-13339167D01*
X11331189Y-13358214D01*
X11331189Y-13462976D01*
X11426428Y-13462976D02*
X11426428Y-13329643D01*
X11426428Y-13348690D02*
X11435951Y-13339167D01*
X11454999Y-13329643D01*
X11483570Y-13329643D01*
X11502618Y-13339167D01*
X11512142Y-13358214D01*
X11512142Y-13462976D01*
X11512142Y-13358214D02*
X11521666Y-13339167D01*
X11540713Y-13329643D01*
X11569285Y-13329643D01*
X11588332Y-13339167D01*
X11597856Y-13358214D01*
X11597856Y-13462976D01*
X11988332Y-13253452D02*
X11816904Y-13510595D01*
X12245475Y-13262976D02*
X12264523Y-13262976D01*
X12283570Y-13272500D01*
X12293094Y-13282024D01*
X12302618Y-13301071D01*
X12312142Y-13339167D01*
X12312142Y-13386786D01*
X12302618Y-13424881D01*
X12293094Y-13443928D01*
X12283570Y-13453452D01*
X12264523Y-13462976D01*
X12245475Y-13462976D01*
X12226428Y-13453452D01*
X12216904Y-13443928D01*
X12207380Y-13424881D01*
X12197856Y-13386786D01*
X12197856Y-13339167D01*
X12207380Y-13301071D01*
X12216904Y-13282024D01*
X12226428Y-13272500D01*
X12245475Y-13262976D01*
X12397856Y-13443928D02*
X12407380Y-13453452D01*
X12397856Y-13462976D01*
X12388332Y-13453452D01*
X12397856Y-13443928D01*
X12397856Y-13462976D01*
X12531189Y-13262976D02*
X12550237Y-13262976D01*
X12569285Y-13272500D01*
X12578809Y-13282024D01*
X12588332Y-13301071D01*
X12597856Y-13339167D01*
X12597856Y-13386786D01*
X12588332Y-13424881D01*
X12578809Y-13443928D01*
X12569285Y-13453452D01*
X12550237Y-13462976D01*
X12531189Y-13462976D01*
X12512142Y-13453452D01*
X12502618Y-13443928D01*
X12493094Y-13424881D01*
X12483570Y-13386786D01*
X12483570Y-13339167D01*
X12493094Y-13301071D01*
X12502618Y-13282024D01*
X12512142Y-13272500D01*
X12531189Y-13262976D01*
X12674047Y-13282024D02*
X12683570Y-13272500D01*
X12702618Y-13262976D01*
X12750237Y-13262976D01*
X12769285Y-13272500D01*
X12778809Y-13282024D01*
X12788332Y-13301071D01*
X12788332Y-13320119D01*
X12778809Y-13348690D01*
X12664523Y-13462976D01*
X12788332Y-13462976D01*
X12883570Y-13462976D02*
X12921666Y-13462976D01*
X12940713Y-13453452D01*
X12950237Y-13443928D01*
X12969285Y-13415357D01*
X12978809Y-13377262D01*
X12978809Y-13301071D01*
X12969285Y-13282024D01*
X12959761Y-13272500D01*
X12940713Y-13262976D01*
X12902618Y-13262976D01*
X12883570Y-13272500D01*
X12874047Y-13282024D01*
X12864523Y-13301071D01*
X12864523Y-13348690D01*
X12874047Y-13367738D01*
X12883570Y-13377262D01*
X12902618Y-13386786D01*
X12940713Y-13386786D01*
X12959761Y-13377262D01*
X12969285Y-13367738D01*
X12978809Y-13348690D01*
X13159761Y-13262976D02*
X13064523Y-13262976D01*
X13054999Y-13358214D01*
X13064523Y-13348690D01*
X13083570Y-13339167D01*
X13131189Y-13339167D01*
X13150237Y-13348690D01*
X13159761Y-13358214D01*
X13169285Y-13377262D01*
X13169285Y-13424881D01*
X13159761Y-13443928D01*
X13150237Y-13453452D01*
X13131189Y-13462976D01*
X13083570Y-13462976D01*
X13064523Y-13453452D01*
X13054999Y-13443928D01*
X13245475Y-13262976D02*
X13245475Y-13301071D01*
X13321666Y-13262976D02*
X13321666Y-13301071D01*
X13616904Y-13539167D02*
X13607380Y-13529643D01*
X13588332Y-13501071D01*
X13578809Y-13482024D01*
X13569285Y-13453452D01*
X13559761Y-13405833D01*
X13559761Y-13367738D01*
X13569285Y-13320119D01*
X13578809Y-13291548D01*
X13588332Y-13272500D01*
X13607380Y-13243928D01*
X13616904Y-13234405D01*
X13702618Y-13462976D02*
X13740713Y-13462976D01*
X13759761Y-13453452D01*
X13769285Y-13443928D01*
X13788332Y-13415357D01*
X13797856Y-13377262D01*
X13797856Y-13301071D01*
X13788332Y-13282024D01*
X13778809Y-13272500D01*
X13759761Y-13262976D01*
X13721666Y-13262976D01*
X13702618Y-13272500D01*
X13693094Y-13282024D01*
X13683570Y-13301071D01*
X13683570Y-13348690D01*
X13693094Y-13367738D01*
X13702618Y-13377262D01*
X13721666Y-13386786D01*
X13759761Y-13386786D01*
X13778809Y-13377262D01*
X13788332Y-13367738D01*
X13797856Y-13348690D01*
X14035951Y-13462976D02*
X14035951Y-13262976D01*
X14121666Y-13462976D02*
X14121666Y-13358214D01*
X14112142Y-13339167D01*
X14093094Y-13329643D01*
X14064523Y-13329643D01*
X14045475Y-13339167D01*
X14035951Y-13348690D01*
X14245475Y-13462976D02*
X14226428Y-13453452D01*
X14216904Y-13443928D01*
X14207380Y-13424881D01*
X14207380Y-13367738D01*
X14216904Y-13348690D01*
X14226428Y-13339167D01*
X14245475Y-13329643D01*
X14274047Y-13329643D01*
X14293094Y-13339167D01*
X14302618Y-13348690D01*
X14312142Y-13367738D01*
X14312142Y-13424881D01*
X14302618Y-13443928D01*
X14293094Y-13453452D01*
X14274047Y-13462976D01*
X14245475Y-13462976D01*
X14426428Y-13462976D02*
X14407380Y-13453452D01*
X14397856Y-13434405D01*
X14397856Y-13262976D01*
X14578809Y-13453452D02*
X14559761Y-13462976D01*
X14521666Y-13462976D01*
X14502618Y-13453452D01*
X14493094Y-13434405D01*
X14493094Y-13358214D01*
X14502618Y-13339167D01*
X14521666Y-13329643D01*
X14559761Y-13329643D01*
X14578809Y-13339167D01*
X14588332Y-13358214D01*
X14588332Y-13377262D01*
X14493094Y-13396309D01*
X14664523Y-13453452D02*
X14683570Y-13462976D01*
X14721666Y-13462976D01*
X14740713Y-13453452D01*
X14750237Y-13434405D01*
X14750237Y-13424881D01*
X14740713Y-13405833D01*
X14721666Y-13396309D01*
X14693094Y-13396309D01*
X14674047Y-13386786D01*
X14664523Y-13367738D01*
X14664523Y-13358214D01*
X14674047Y-13339167D01*
X14693094Y-13329643D01*
X14721666Y-13329643D01*
X14740713Y-13339167D01*
X14816904Y-13539167D02*
X14826428Y-13529643D01*
X14845475Y-13501071D01*
X14854999Y-13482024D01*
X14864523Y-13453452D01*
X14874047Y-13405833D01*
X14874047Y-13367738D01*
X14864523Y-13320119D01*
X14854999Y-13291548D01*
X14845475Y-13272500D01*
X14826428Y-13243928D01*
X14816904Y-13234405D01*
D18*
X9964999Y-13596500D02*
X10044999Y-13676500D01*
X10044999Y-13596500D02*
X9964999Y-13676500D01*
X10004999Y-13596500D02*
X10004999Y-13676500D01*
X9964999Y-13636500D02*
X10044999Y-13636500D01*
D11*
X10340713Y-13526976D02*
X10359761Y-13526976D01*
X10378809Y-13536500D01*
X10388332Y-13546024D01*
X10397856Y-13565071D01*
X10407380Y-13603167D01*
X10407380Y-13650786D01*
X10397856Y-13688881D01*
X10388332Y-13707928D01*
X10378809Y-13717452D01*
X10359761Y-13726976D01*
X10340713Y-13726976D01*
X10321666Y-13717452D01*
X10312142Y-13707928D01*
X10302618Y-13688881D01*
X10293094Y-13650786D01*
X10293094Y-13603167D01*
X10302618Y-13565071D01*
X10312142Y-13546024D01*
X10321666Y-13536500D01*
X10340713Y-13526976D01*
X10493094Y-13707928D02*
X10502618Y-13717452D01*
X10493094Y-13726976D01*
X10483571Y-13717452D01*
X10493094Y-13707928D01*
X10493094Y-13726976D01*
X10616904Y-13612690D02*
X10597856Y-13603167D01*
X10588332Y-13593643D01*
X10578809Y-13574595D01*
X10578809Y-13565071D01*
X10588332Y-13546024D01*
X10597856Y-13536500D01*
X10616904Y-13526976D01*
X10654999Y-13526976D01*
X10674047Y-13536500D01*
X10683571Y-13546024D01*
X10693094Y-13565071D01*
X10693094Y-13574595D01*
X10683571Y-13593643D01*
X10674047Y-13603167D01*
X10654999Y-13612690D01*
X10616904Y-13612690D01*
X10597856Y-13622214D01*
X10588332Y-13631738D01*
X10578809Y-13650786D01*
X10578809Y-13688881D01*
X10588332Y-13707928D01*
X10597856Y-13717452D01*
X10616904Y-13726976D01*
X10654999Y-13726976D01*
X10674047Y-13717452D01*
X10683571Y-13707928D01*
X10693094Y-13688881D01*
X10693094Y-13650786D01*
X10683571Y-13631738D01*
X10674047Y-13622214D01*
X10654999Y-13612690D01*
X10816904Y-13526976D02*
X10835951Y-13526976D01*
X10854999Y-13536500D01*
X10864523Y-13546024D01*
X10874047Y-13565071D01*
X10883571Y-13603167D01*
X10883571Y-13650786D01*
X10874047Y-13688881D01*
X10864523Y-13707928D01*
X10854999Y-13717452D01*
X10835951Y-13726976D01*
X10816904Y-13726976D01*
X10797856Y-13717452D01*
X10788332Y-13707928D01*
X10778809Y-13688881D01*
X10769285Y-13650786D01*
X10769285Y-13603167D01*
X10778809Y-13565071D01*
X10788332Y-13546024D01*
X10797856Y-13536500D01*
X10816904Y-13526976D01*
X11007380Y-13526976D02*
X11026428Y-13526976D01*
X11045475Y-13536500D01*
X11054999Y-13546024D01*
X11064523Y-13565071D01*
X11074047Y-13603167D01*
X11074047Y-13650786D01*
X11064523Y-13688881D01*
X11054999Y-13707928D01*
X11045475Y-13717452D01*
X11026428Y-13726976D01*
X11007380Y-13726976D01*
X10988332Y-13717452D01*
X10978809Y-13707928D01*
X10969285Y-13688881D01*
X10959761Y-13650786D01*
X10959761Y-13603167D01*
X10969285Y-13565071D01*
X10978809Y-13546024D01*
X10988332Y-13536500D01*
X11007380Y-13526976D01*
X11159761Y-13726976D02*
X11159761Y-13593643D01*
X11159761Y-13612690D02*
X11169285Y-13603167D01*
X11188332Y-13593643D01*
X11216904Y-13593643D01*
X11235951Y-13603167D01*
X11245475Y-13622214D01*
X11245475Y-13726976D01*
X11245475Y-13622214D02*
X11254999Y-13603167D01*
X11274047Y-13593643D01*
X11302618Y-13593643D01*
X11321666Y-13603167D01*
X11331189Y-13622214D01*
X11331189Y-13726976D01*
X11426428Y-13726976D02*
X11426428Y-13593643D01*
X11426428Y-13612690D02*
X11435951Y-13603167D01*
X11454999Y-13593643D01*
X11483570Y-13593643D01*
X11502618Y-13603167D01*
X11512142Y-13622214D01*
X11512142Y-13726976D01*
X11512142Y-13622214D02*
X11521666Y-13603167D01*
X11540713Y-13593643D01*
X11569285Y-13593643D01*
X11588332Y-13603167D01*
X11597856Y-13622214D01*
X11597856Y-13726976D01*
X11988332Y-13517452D02*
X11816904Y-13774595D01*
X12245475Y-13526976D02*
X12264523Y-13526976D01*
X12283570Y-13536500D01*
X12293094Y-13546024D01*
X12302618Y-13565071D01*
X12312142Y-13603167D01*
X12312142Y-13650786D01*
X12302618Y-13688881D01*
X12293094Y-13707928D01*
X12283570Y-13717452D01*
X12264523Y-13726976D01*
X12245475Y-13726976D01*
X12226428Y-13717452D01*
X12216904Y-13707928D01*
X12207380Y-13688881D01*
X12197856Y-13650786D01*
X12197856Y-13603167D01*
X12207380Y-13565071D01*
X12216904Y-13546024D01*
X12226428Y-13536500D01*
X12245475Y-13526976D01*
X12397856Y-13707928D02*
X12407380Y-13717452D01*
X12397856Y-13726976D01*
X12388332Y-13717452D01*
X12397856Y-13707928D01*
X12397856Y-13726976D01*
X12531189Y-13526976D02*
X12550237Y-13526976D01*
X12569285Y-13536500D01*
X12578809Y-13546024D01*
X12588332Y-13565071D01*
X12597856Y-13603167D01*
X12597856Y-13650786D01*
X12588332Y-13688881D01*
X12578809Y-13707928D01*
X12569285Y-13717452D01*
X12550237Y-13726976D01*
X12531189Y-13726976D01*
X12512142Y-13717452D01*
X12502618Y-13707928D01*
X12493094Y-13688881D01*
X12483570Y-13650786D01*
X12483570Y-13603167D01*
X12493094Y-13565071D01*
X12502618Y-13546024D01*
X12512142Y-13536500D01*
X12531189Y-13526976D01*
X12664523Y-13526976D02*
X12788332Y-13526976D01*
X12721666Y-13603167D01*
X12750237Y-13603167D01*
X12769285Y-13612690D01*
X12778809Y-13622214D01*
X12788332Y-13641262D01*
X12788332Y-13688881D01*
X12778809Y-13707928D01*
X12769285Y-13717452D01*
X12750237Y-13726976D01*
X12693094Y-13726976D01*
X12674047Y-13717452D01*
X12664523Y-13707928D01*
X12978809Y-13726976D02*
X12864523Y-13726976D01*
X12921666Y-13726976D02*
X12921666Y-13526976D01*
X12902618Y-13555548D01*
X12883570Y-13574595D01*
X12864523Y-13584119D01*
X13159761Y-13526976D02*
X13064523Y-13526976D01*
X13054999Y-13622214D01*
X13064523Y-13612690D01*
X13083570Y-13603167D01*
X13131189Y-13603167D01*
X13150237Y-13612690D01*
X13159761Y-13622214D01*
X13169285Y-13641262D01*
X13169285Y-13688881D01*
X13159761Y-13707928D01*
X13150237Y-13717452D01*
X13131189Y-13726976D01*
X13083570Y-13726976D01*
X13064523Y-13717452D01*
X13054999Y-13707928D01*
X13245475Y-13526976D02*
X13245475Y-13565071D01*
X13321666Y-13526976D02*
X13321666Y-13565071D01*
X13616904Y-13803167D02*
X13607380Y-13793643D01*
X13588332Y-13765071D01*
X13578809Y-13746024D01*
X13569285Y-13717452D01*
X13559761Y-13669833D01*
X13559761Y-13631738D01*
X13569285Y-13584119D01*
X13578809Y-13555548D01*
X13588332Y-13536500D01*
X13607380Y-13507928D01*
X13616904Y-13498405D01*
X13797856Y-13726976D02*
X13683570Y-13726976D01*
X13740713Y-13726976D02*
X13740713Y-13526976D01*
X13721666Y-13555548D01*
X13702618Y-13574595D01*
X13683570Y-13584119D01*
X13874047Y-13546024D02*
X13883570Y-13536500D01*
X13902618Y-13526976D01*
X13950237Y-13526976D01*
X13969285Y-13536500D01*
X13978809Y-13546024D01*
X13988332Y-13565071D01*
X13988332Y-13584119D01*
X13978809Y-13612690D01*
X13864523Y-13726976D01*
X13988332Y-13726976D01*
X14226428Y-13726976D02*
X14226428Y-13526976D01*
X14312142Y-13726976D02*
X14312142Y-13622214D01*
X14302618Y-13603167D01*
X14283570Y-13593643D01*
X14254999Y-13593643D01*
X14235951Y-13603167D01*
X14226428Y-13612690D01*
X14435951Y-13726976D02*
X14416904Y-13717452D01*
X14407380Y-13707928D01*
X14397856Y-13688881D01*
X14397856Y-13631738D01*
X14407380Y-13612690D01*
X14416904Y-13603167D01*
X14435951Y-13593643D01*
X14464523Y-13593643D01*
X14483570Y-13603167D01*
X14493094Y-13612690D01*
X14502618Y-13631738D01*
X14502618Y-13688881D01*
X14493094Y-13707928D01*
X14483570Y-13717452D01*
X14464523Y-13726976D01*
X14435951Y-13726976D01*
X14616904Y-13726976D02*
X14597856Y-13717452D01*
X14588332Y-13698405D01*
X14588332Y-13526976D01*
X14769285Y-13717452D02*
X14750237Y-13726976D01*
X14712142Y-13726976D01*
X14693094Y-13717452D01*
X14683570Y-13698405D01*
X14683570Y-13622214D01*
X14693094Y-13603167D01*
X14712142Y-13593643D01*
X14750237Y-13593643D01*
X14769285Y-13603167D01*
X14778809Y-13622214D01*
X14778809Y-13641262D01*
X14683570Y-13660309D01*
X14854999Y-13717452D02*
X14874047Y-13726976D01*
X14912142Y-13726976D01*
X14931189Y-13717452D01*
X14940713Y-13698405D01*
X14940713Y-13688881D01*
X14931189Y-13669833D01*
X14912142Y-13660309D01*
X14883570Y-13660309D01*
X14864523Y-13650786D01*
X14854999Y-13631738D01*
X14854999Y-13622214D01*
X14864523Y-13603167D01*
X14883570Y-13593643D01*
X14912142Y-13593643D01*
X14931189Y-13603167D01*
X15007380Y-13803167D02*
X15016904Y-13793643D01*
X15035951Y-13765071D01*
X15045475Y-13746024D01*
X15054999Y-13717452D01*
X15064523Y-13669833D01*
X15064523Y-13631738D01*
X15054999Y-13584119D01*
X15045475Y-13555548D01*
X15035951Y-13536500D01*
X15016904Y-13507928D01*
X15007380Y-13498405D01*
D19*
X9959999Y-13858000D02*
X10044999Y-13943000D01*
X10044999Y-13858000D02*
X9959999Y-13943000D01*
X10032551Y-13930552D02*
X10032551Y-13870448D01*
X9972447Y-13870448D01*
X9972447Y-13930552D01*
X10032551Y-13930552D01*
D11*
X10340713Y-13790976D02*
X10359761Y-13790976D01*
X10378809Y-13800500D01*
X10388332Y-13810024D01*
X10397856Y-13829071D01*
X10407380Y-13867167D01*
X10407380Y-13914786D01*
X10397856Y-13952881D01*
X10388332Y-13971928D01*
X10378809Y-13981452D01*
X10359761Y-13990976D01*
X10340713Y-13990976D01*
X10321666Y-13981452D01*
X10312142Y-13971928D01*
X10302618Y-13952881D01*
X10293094Y-13914786D01*
X10293094Y-13867167D01*
X10302618Y-13829071D01*
X10312142Y-13810024D01*
X10321666Y-13800500D01*
X10340713Y-13790976D01*
X10493094Y-13971928D02*
X10502618Y-13981452D01*
X10493094Y-13990976D01*
X10483571Y-13981452D01*
X10493094Y-13971928D01*
X10493094Y-13990976D01*
X10616904Y-13876690D02*
X10597856Y-13867167D01*
X10588332Y-13857643D01*
X10578809Y-13838595D01*
X10578809Y-13829071D01*
X10588332Y-13810024D01*
X10597856Y-13800500D01*
X10616904Y-13790976D01*
X10654999Y-13790976D01*
X10674047Y-13800500D01*
X10683571Y-13810024D01*
X10693094Y-13829071D01*
X10693094Y-13838595D01*
X10683571Y-13857643D01*
X10674047Y-13867167D01*
X10654999Y-13876690D01*
X10616904Y-13876690D01*
X10597856Y-13886214D01*
X10588332Y-13895738D01*
X10578809Y-13914786D01*
X10578809Y-13952881D01*
X10588332Y-13971928D01*
X10597856Y-13981452D01*
X10616904Y-13990976D01*
X10654999Y-13990976D01*
X10674047Y-13981452D01*
X10683571Y-13971928D01*
X10693094Y-13952881D01*
X10693094Y-13914786D01*
X10683571Y-13895738D01*
X10674047Y-13886214D01*
X10654999Y-13876690D01*
X10874047Y-13790976D02*
X10778809Y-13790976D01*
X10769285Y-13886214D01*
X10778809Y-13876690D01*
X10797856Y-13867167D01*
X10845475Y-13867167D01*
X10864523Y-13876690D01*
X10874047Y-13886214D01*
X10883571Y-13905262D01*
X10883571Y-13952881D01*
X10874047Y-13971928D01*
X10864523Y-13981452D01*
X10845475Y-13990976D01*
X10797856Y-13990976D01*
X10778809Y-13981452D01*
X10769285Y-13971928D01*
X11007380Y-13790976D02*
X11026428Y-13790976D01*
X11045475Y-13800500D01*
X11054999Y-13810024D01*
X11064523Y-13829071D01*
X11074047Y-13867167D01*
X11074047Y-13914786D01*
X11064523Y-13952881D01*
X11054999Y-13971928D01*
X11045475Y-13981452D01*
X11026428Y-13990976D01*
X11007380Y-13990976D01*
X10988332Y-13981452D01*
X10978809Y-13971928D01*
X10969285Y-13952881D01*
X10959761Y-13914786D01*
X10959761Y-13867167D01*
X10969285Y-13829071D01*
X10978809Y-13810024D01*
X10988332Y-13800500D01*
X11007380Y-13790976D01*
X11159761Y-13990976D02*
X11159761Y-13857643D01*
X11159761Y-13876690D02*
X11169285Y-13867167D01*
X11188332Y-13857643D01*
X11216904Y-13857643D01*
X11235951Y-13867167D01*
X11245475Y-13886214D01*
X11245475Y-13990976D01*
X11245475Y-13886214D02*
X11254999Y-13867167D01*
X11274047Y-13857643D01*
X11302618Y-13857643D01*
X11321666Y-13867167D01*
X11331189Y-13886214D01*
X11331189Y-13990976D01*
X11426428Y-13990976D02*
X11426428Y-13857643D01*
X11426428Y-13876690D02*
X11435951Y-13867167D01*
X11454999Y-13857643D01*
X11483570Y-13857643D01*
X11502618Y-13867167D01*
X11512142Y-13886214D01*
X11512142Y-13990976D01*
X11512142Y-13886214D02*
X11521666Y-13867167D01*
X11540713Y-13857643D01*
X11569285Y-13857643D01*
X11588332Y-13867167D01*
X11597856Y-13886214D01*
X11597856Y-13990976D01*
X11988332Y-13781452D02*
X11816904Y-14038595D01*
X12245475Y-13790976D02*
X12264523Y-13790976D01*
X12283570Y-13800500D01*
X12293094Y-13810024D01*
X12302618Y-13829071D01*
X12312142Y-13867167D01*
X12312142Y-13914786D01*
X12302618Y-13952881D01*
X12293094Y-13971928D01*
X12283570Y-13981452D01*
X12264523Y-13990976D01*
X12245475Y-13990976D01*
X12226428Y-13981452D01*
X12216904Y-13971928D01*
X12207380Y-13952881D01*
X12197856Y-13914786D01*
X12197856Y-13867167D01*
X12207380Y-13829071D01*
X12216904Y-13810024D01*
X12226428Y-13800500D01*
X12245475Y-13790976D01*
X12397856Y-13971928D02*
X12407380Y-13981452D01*
X12397856Y-13990976D01*
X12388332Y-13981452D01*
X12397856Y-13971928D01*
X12397856Y-13990976D01*
X12531189Y-13790976D02*
X12550237Y-13790976D01*
X12569285Y-13800500D01*
X12578809Y-13810024D01*
X12588332Y-13829071D01*
X12597856Y-13867167D01*
X12597856Y-13914786D01*
X12588332Y-13952881D01*
X12578809Y-13971928D01*
X12569285Y-13981452D01*
X12550237Y-13990976D01*
X12531189Y-13990976D01*
X12512142Y-13981452D01*
X12502618Y-13971928D01*
X12493094Y-13952881D01*
X12483570Y-13914786D01*
X12483570Y-13867167D01*
X12493094Y-13829071D01*
X12502618Y-13810024D01*
X12512142Y-13800500D01*
X12531189Y-13790976D01*
X12664523Y-13790976D02*
X12788332Y-13790976D01*
X12721666Y-13867167D01*
X12750237Y-13867167D01*
X12769285Y-13876690D01*
X12778809Y-13886214D01*
X12788332Y-13905262D01*
X12788332Y-13952881D01*
X12778809Y-13971928D01*
X12769285Y-13981452D01*
X12750237Y-13990976D01*
X12693094Y-13990976D01*
X12674047Y-13981452D01*
X12664523Y-13971928D01*
X12854999Y-13790976D02*
X12978809Y-13790976D01*
X12912142Y-13867167D01*
X12940713Y-13867167D01*
X12959761Y-13876690D01*
X12969285Y-13886214D01*
X12978809Y-13905262D01*
X12978809Y-13952881D01*
X12969285Y-13971928D01*
X12959761Y-13981452D01*
X12940713Y-13990976D01*
X12883570Y-13990976D01*
X12864523Y-13981452D01*
X12854999Y-13971928D01*
X13159761Y-13790976D02*
X13064523Y-13790976D01*
X13054999Y-13886214D01*
X13064523Y-13876690D01*
X13083570Y-13867167D01*
X13131189Y-13867167D01*
X13150237Y-13876690D01*
X13159761Y-13886214D01*
X13169285Y-13905262D01*
X13169285Y-13952881D01*
X13159761Y-13971928D01*
X13150237Y-13981452D01*
X13131189Y-13990976D01*
X13083570Y-13990976D01*
X13064523Y-13981452D01*
X13054999Y-13971928D01*
X13245475Y-13790976D02*
X13245475Y-13829071D01*
X13321666Y-13790976D02*
X13321666Y-13829071D01*
X13616904Y-14067167D02*
X13607380Y-14057643D01*
X13588332Y-14029071D01*
X13578809Y-14010024D01*
X13569285Y-13981452D01*
X13559761Y-13933833D01*
X13559761Y-13895738D01*
X13569285Y-13848119D01*
X13578809Y-13819548D01*
X13588332Y-13800500D01*
X13607380Y-13771928D01*
X13616904Y-13762405D01*
X13683570Y-13810024D02*
X13693094Y-13800500D01*
X13712142Y-13790976D01*
X13759761Y-13790976D01*
X13778809Y-13800500D01*
X13788332Y-13810024D01*
X13797856Y-13829071D01*
X13797856Y-13848119D01*
X13788332Y-13876690D01*
X13674047Y-13990976D01*
X13797856Y-13990976D01*
X14035951Y-13990976D02*
X14035951Y-13790976D01*
X14121666Y-13990976D02*
X14121666Y-13886214D01*
X14112142Y-13867167D01*
X14093094Y-13857643D01*
X14064523Y-13857643D01*
X14045475Y-13867167D01*
X14035951Y-13876690D01*
X14245475Y-13990976D02*
X14226428Y-13981452D01*
X14216904Y-13971928D01*
X14207380Y-13952881D01*
X14207380Y-13895738D01*
X14216904Y-13876690D01*
X14226428Y-13867167D01*
X14245475Y-13857643D01*
X14274047Y-13857643D01*
X14293094Y-13867167D01*
X14302618Y-13876690D01*
X14312142Y-13895738D01*
X14312142Y-13952881D01*
X14302618Y-13971928D01*
X14293094Y-13981452D01*
X14274047Y-13990976D01*
X14245475Y-13990976D01*
X14426428Y-13990976D02*
X14407380Y-13981452D01*
X14397856Y-13962405D01*
X14397856Y-13790976D01*
X14578809Y-13981452D02*
X14559761Y-13990976D01*
X14521666Y-13990976D01*
X14502618Y-13981452D01*
X14493094Y-13962405D01*
X14493094Y-13886214D01*
X14502618Y-13867167D01*
X14521666Y-13857643D01*
X14559761Y-13857643D01*
X14578809Y-13867167D01*
X14588332Y-13886214D01*
X14588332Y-13905262D01*
X14493094Y-13924309D01*
X14664523Y-13981452D02*
X14683570Y-13990976D01*
X14721666Y-13990976D01*
X14740713Y-13981452D01*
X14750237Y-13962405D01*
X14750237Y-13952881D01*
X14740713Y-13933833D01*
X14721666Y-13924309D01*
X14693094Y-13924309D01*
X14674047Y-13914786D01*
X14664523Y-13895738D01*
X14664523Y-13886214D01*
X14674047Y-13867167D01*
X14693094Y-13857643D01*
X14721666Y-13857643D01*
X14740713Y-13867167D01*
X14816904Y-14067167D02*
X14826428Y-14057643D01*
X14845475Y-14029071D01*
X14854999Y-14010024D01*
X14864523Y-13981452D01*
X14874047Y-13933833D01*
X14874047Y-13895738D01*
X14864523Y-13848119D01*
X14854999Y-13819548D01*
X14845475Y-13800500D01*
X14826428Y-13771928D01*
X14816904Y-13762405D01*
D10*
X9944999Y-14114500D02*
X10044999Y-14214500D01*
X10044999Y-14114500D02*
X9944999Y-14214500D01*
X9994999Y-14214500D02*
X10044999Y-14164500D01*
X9994999Y-14114500D01*
X9944999Y-14164500D01*
X9994999Y-14214500D01*
D11*
X10407380Y-14254976D02*
X10293094Y-14254976D01*
X10350237Y-14254976D02*
X10350237Y-14054976D01*
X10331190Y-14083548D01*
X10312142Y-14102595D01*
X10293094Y-14112119D01*
X10493094Y-14235928D02*
X10502618Y-14245452D01*
X10493094Y-14254976D01*
X10483571Y-14245452D01*
X10493094Y-14235928D01*
X10493094Y-14254976D01*
X10626428Y-14054976D02*
X10645475Y-14054976D01*
X10664523Y-14064500D01*
X10674047Y-14074024D01*
X10683571Y-14093071D01*
X10693094Y-14131167D01*
X10693094Y-14178786D01*
X10683571Y-14216881D01*
X10674047Y-14235928D01*
X10664523Y-14245452D01*
X10645475Y-14254976D01*
X10626428Y-14254976D01*
X10607380Y-14245452D01*
X10597856Y-14235928D01*
X10588332Y-14216881D01*
X10578809Y-14178786D01*
X10578809Y-14131167D01*
X10588332Y-14093071D01*
X10597856Y-14074024D01*
X10607380Y-14064500D01*
X10626428Y-14054976D01*
X10816904Y-14054976D02*
X10835951Y-14054976D01*
X10854999Y-14064500D01*
X10864523Y-14074024D01*
X10874047Y-14093071D01*
X10883571Y-14131167D01*
X10883571Y-14178786D01*
X10874047Y-14216881D01*
X10864523Y-14235928D01*
X10854999Y-14245452D01*
X10835951Y-14254976D01*
X10816904Y-14254976D01*
X10797856Y-14245452D01*
X10788332Y-14235928D01*
X10778809Y-14216881D01*
X10769285Y-14178786D01*
X10769285Y-14131167D01*
X10778809Y-14093071D01*
X10788332Y-14074024D01*
X10797856Y-14064500D01*
X10816904Y-14054976D01*
X11007380Y-14054976D02*
X11026428Y-14054976D01*
X11045475Y-14064500D01*
X11054999Y-14074024D01*
X11064523Y-14093071D01*
X11074047Y-14131167D01*
X11074047Y-14178786D01*
X11064523Y-14216881D01*
X11054999Y-14235928D01*
X11045475Y-14245452D01*
X11026428Y-14254976D01*
X11007380Y-14254976D01*
X10988332Y-14245452D01*
X10978809Y-14235928D01*
X10969285Y-14216881D01*
X10959761Y-14178786D01*
X10959761Y-14131167D01*
X10969285Y-14093071D01*
X10978809Y-14074024D01*
X10988332Y-14064500D01*
X11007380Y-14054976D01*
X11159761Y-14254976D02*
X11159761Y-14121643D01*
X11159761Y-14140690D02*
X11169285Y-14131167D01*
X11188332Y-14121643D01*
X11216904Y-14121643D01*
X11235951Y-14131167D01*
X11245475Y-14150214D01*
X11245475Y-14254976D01*
X11245475Y-14150214D02*
X11254999Y-14131167D01*
X11274047Y-14121643D01*
X11302618Y-14121643D01*
X11321666Y-14131167D01*
X11331189Y-14150214D01*
X11331189Y-14254976D01*
X11426428Y-14254976D02*
X11426428Y-14121643D01*
X11426428Y-14140690D02*
X11435951Y-14131167D01*
X11454999Y-14121643D01*
X11483570Y-14121643D01*
X11502618Y-14131167D01*
X11512142Y-14150214D01*
X11512142Y-14254976D01*
X11512142Y-14150214D02*
X11521666Y-14131167D01*
X11540713Y-14121643D01*
X11569285Y-14121643D01*
X11588332Y-14131167D01*
X11597856Y-14150214D01*
X11597856Y-14254976D01*
X11988332Y-14045452D02*
X11816904Y-14302595D01*
X12245475Y-14054976D02*
X12264523Y-14054976D01*
X12283570Y-14064500D01*
X12293094Y-14074024D01*
X12302618Y-14093071D01*
X12312142Y-14131167D01*
X12312142Y-14178786D01*
X12302618Y-14216881D01*
X12293094Y-14235928D01*
X12283570Y-14245452D01*
X12264523Y-14254976D01*
X12245475Y-14254976D01*
X12226428Y-14245452D01*
X12216904Y-14235928D01*
X12207380Y-14216881D01*
X12197856Y-14178786D01*
X12197856Y-14131167D01*
X12207380Y-14093071D01*
X12216904Y-14074024D01*
X12226428Y-14064500D01*
X12245475Y-14054976D01*
X12397856Y-14235928D02*
X12407380Y-14245452D01*
X12397856Y-14254976D01*
X12388332Y-14245452D01*
X12397856Y-14235928D01*
X12397856Y-14254976D01*
X12531189Y-14054976D02*
X12550237Y-14054976D01*
X12569285Y-14064500D01*
X12578809Y-14074024D01*
X12588332Y-14093071D01*
X12597856Y-14131167D01*
X12597856Y-14178786D01*
X12588332Y-14216881D01*
X12578809Y-14235928D01*
X12569285Y-14245452D01*
X12550237Y-14254976D01*
X12531189Y-14254976D01*
X12512142Y-14245452D01*
X12502618Y-14235928D01*
X12493094Y-14216881D01*
X12483570Y-14178786D01*
X12483570Y-14131167D01*
X12493094Y-14093071D01*
X12502618Y-14074024D01*
X12512142Y-14064500D01*
X12531189Y-14054976D01*
X12664523Y-14054976D02*
X12788332Y-14054976D01*
X12721666Y-14131167D01*
X12750237Y-14131167D01*
X12769285Y-14140690D01*
X12778809Y-14150214D01*
X12788332Y-14169262D01*
X12788332Y-14216881D01*
X12778809Y-14235928D01*
X12769285Y-14245452D01*
X12750237Y-14254976D01*
X12693094Y-14254976D01*
X12674047Y-14245452D01*
X12664523Y-14235928D01*
X12883570Y-14254976D02*
X12921666Y-14254976D01*
X12940713Y-14245452D01*
X12950237Y-14235928D01*
X12969285Y-14207357D01*
X12978809Y-14169262D01*
X12978809Y-14093071D01*
X12969285Y-14074024D01*
X12959761Y-14064500D01*
X12940713Y-14054976D01*
X12902618Y-14054976D01*
X12883570Y-14064500D01*
X12874047Y-14074024D01*
X12864523Y-14093071D01*
X12864523Y-14140690D01*
X12874047Y-14159738D01*
X12883570Y-14169262D01*
X12902618Y-14178786D01*
X12940713Y-14178786D01*
X12959761Y-14169262D01*
X12969285Y-14159738D01*
X12978809Y-14140690D01*
X13150237Y-14121643D02*
X13150237Y-14254976D01*
X13102618Y-14045452D02*
X13054999Y-14188309D01*
X13178809Y-14188309D01*
X13245475Y-14054976D02*
X13245475Y-14093071D01*
X13321666Y-14054976D02*
X13321666Y-14093071D01*
X13616904Y-14331167D02*
X13607380Y-14321643D01*
X13588332Y-14293071D01*
X13578809Y-14274024D01*
X13569285Y-14245452D01*
X13559761Y-14197833D01*
X13559761Y-14159738D01*
X13569285Y-14112119D01*
X13578809Y-14083548D01*
X13588332Y-14064500D01*
X13607380Y-14035928D01*
X13616904Y-14026405D01*
X13683570Y-14074024D02*
X13693094Y-14064500D01*
X13712142Y-14054976D01*
X13759761Y-14054976D01*
X13778809Y-14064500D01*
X13788332Y-14074024D01*
X13797856Y-14093071D01*
X13797856Y-14112119D01*
X13788332Y-14140690D01*
X13674047Y-14254976D01*
X13797856Y-14254976D01*
X13912142Y-14140690D02*
X13893094Y-14131167D01*
X13883570Y-14121643D01*
X13874047Y-14102595D01*
X13874047Y-14093071D01*
X13883570Y-14074024D01*
X13893094Y-14064500D01*
X13912142Y-14054976D01*
X13950237Y-14054976D01*
X13969285Y-14064500D01*
X13978809Y-14074024D01*
X13988332Y-14093071D01*
X13988332Y-14102595D01*
X13978809Y-14121643D01*
X13969285Y-14131167D01*
X13950237Y-14140690D01*
X13912142Y-14140690D01*
X13893094Y-14150214D01*
X13883570Y-14159738D01*
X13874047Y-14178786D01*
X13874047Y-14216881D01*
X13883570Y-14235928D01*
X13893094Y-14245452D01*
X13912142Y-14254976D01*
X13950237Y-14254976D01*
X13969285Y-14245452D01*
X13978809Y-14235928D01*
X13988332Y-14216881D01*
X13988332Y-14178786D01*
X13978809Y-14159738D01*
X13969285Y-14150214D01*
X13950237Y-14140690D01*
X14226428Y-14254976D02*
X14226428Y-14054976D01*
X14312142Y-14254976D02*
X14312142Y-14150214D01*
X14302618Y-14131167D01*
X14283570Y-14121643D01*
X14254999Y-14121643D01*
X14235951Y-14131167D01*
X14226428Y-14140690D01*
X14435951Y-14254976D02*
X14416904Y-14245452D01*
X14407380Y-14235928D01*
X14397856Y-14216881D01*
X14397856Y-14159738D01*
X14407380Y-14140690D01*
X14416904Y-14131167D01*
X14435951Y-14121643D01*
X14464523Y-14121643D01*
X14483570Y-14131167D01*
X14493094Y-14140690D01*
X14502618Y-14159738D01*
X14502618Y-14216881D01*
X14493094Y-14235928D01*
X14483570Y-14245452D01*
X14464523Y-14254976D01*
X14435951Y-14254976D01*
X14616904Y-14254976D02*
X14597856Y-14245452D01*
X14588332Y-14226405D01*
X14588332Y-14054976D01*
X14769285Y-14245452D02*
X14750237Y-14254976D01*
X14712142Y-14254976D01*
X14693094Y-14245452D01*
X14683570Y-14226405D01*
X14683570Y-14150214D01*
X14693094Y-14131167D01*
X14712142Y-14121643D01*
X14750237Y-14121643D01*
X14769285Y-14131167D01*
X14778809Y-14150214D01*
X14778809Y-14169262D01*
X14683570Y-14188309D01*
X14854999Y-14245452D02*
X14874047Y-14254976D01*
X14912142Y-14254976D01*
X14931189Y-14245452D01*
X14940713Y-14226405D01*
X14940713Y-14216881D01*
X14931189Y-14197833D01*
X14912142Y-14188309D01*
X14883570Y-14188309D01*
X14864523Y-14178786D01*
X14854999Y-14159738D01*
X14854999Y-14150214D01*
X14864523Y-14131167D01*
X14883570Y-14121643D01*
X14912142Y-14121643D01*
X14931189Y-14131167D01*
X15007380Y-14331167D02*
X15016904Y-14321643D01*
X15035951Y-14293071D01*
X15045475Y-14274024D01*
X15054999Y-14245452D01*
X15064523Y-14197833D01*
X15064523Y-14159738D01*
X15054999Y-14112119D01*
X15045475Y-14083548D01*
X15035951Y-14064500D01*
X15016904Y-14035928D01*
X15007380Y-14026405D01*
D20*
X9989999Y-14373500D02*
X9989999Y-14483500D01*
X9934999Y-14428500D02*
X10044999Y-14428500D01*
X10044999Y-14428500D02*
G75*
G03*
X10044999Y-14428500I-55000J0D01*
G01*
D11*
X10407380Y-14518976D02*
X10293094Y-14518976D01*
X10350237Y-14518976D02*
X10350237Y-14318976D01*
X10331190Y-14347548D01*
X10312142Y-14366595D01*
X10293094Y-14376119D01*
X10493094Y-14499928D02*
X10502618Y-14509452D01*
X10493094Y-14518976D01*
X10483571Y-14509452D01*
X10493094Y-14499928D01*
X10493094Y-14518976D01*
X10693094Y-14518976D02*
X10578809Y-14518976D01*
X10635951Y-14518976D02*
X10635951Y-14318976D01*
X10616904Y-14347548D01*
X10597856Y-14366595D01*
X10578809Y-14376119D01*
X10816904Y-14318976D02*
X10835951Y-14318976D01*
X10854999Y-14328500D01*
X10864523Y-14338024D01*
X10874047Y-14357071D01*
X10883571Y-14395167D01*
X10883571Y-14442786D01*
X10874047Y-14480881D01*
X10864523Y-14499928D01*
X10854999Y-14509452D01*
X10835951Y-14518976D01*
X10816904Y-14518976D01*
X10797856Y-14509452D01*
X10788332Y-14499928D01*
X10778809Y-14480881D01*
X10769285Y-14442786D01*
X10769285Y-14395167D01*
X10778809Y-14357071D01*
X10788332Y-14338024D01*
X10797856Y-14328500D01*
X10816904Y-14318976D01*
X11007380Y-14318976D02*
X11026428Y-14318976D01*
X11045475Y-14328500D01*
X11054999Y-14338024D01*
X11064523Y-14357071D01*
X11074047Y-14395167D01*
X11074047Y-14442786D01*
X11064523Y-14480881D01*
X11054999Y-14499928D01*
X11045475Y-14509452D01*
X11026428Y-14518976D01*
X11007380Y-14518976D01*
X10988332Y-14509452D01*
X10978809Y-14499928D01*
X10969285Y-14480881D01*
X10959761Y-14442786D01*
X10959761Y-14395167D01*
X10969285Y-14357071D01*
X10978809Y-14338024D01*
X10988332Y-14328500D01*
X11007380Y-14318976D01*
X11159761Y-14518976D02*
X11159761Y-14385643D01*
X11159761Y-14404690D02*
X11169285Y-14395167D01*
X11188332Y-14385643D01*
X11216904Y-14385643D01*
X11235951Y-14395167D01*
X11245475Y-14414214D01*
X11245475Y-14518976D01*
X11245475Y-14414214D02*
X11254999Y-14395167D01*
X11274047Y-14385643D01*
X11302618Y-14385643D01*
X11321666Y-14395167D01*
X11331189Y-14414214D01*
X11331189Y-14518976D01*
X11426428Y-14518976D02*
X11426428Y-14385643D01*
X11426428Y-14404690D02*
X11435951Y-14395167D01*
X11454999Y-14385643D01*
X11483570Y-14385643D01*
X11502618Y-14395167D01*
X11512142Y-14414214D01*
X11512142Y-14518976D01*
X11512142Y-14414214D02*
X11521666Y-14395167D01*
X11540713Y-14385643D01*
X11569285Y-14385643D01*
X11588332Y-14395167D01*
X11597856Y-14414214D01*
X11597856Y-14518976D01*
X11988332Y-14309452D02*
X11816904Y-14566595D01*
X12245475Y-14318976D02*
X12264523Y-14318976D01*
X12283570Y-14328500D01*
X12293094Y-14338024D01*
X12302618Y-14357071D01*
X12312142Y-14395167D01*
X12312142Y-14442786D01*
X12302618Y-14480881D01*
X12293094Y-14499928D01*
X12283570Y-14509452D01*
X12264523Y-14518976D01*
X12245475Y-14518976D01*
X12226428Y-14509452D01*
X12216904Y-14499928D01*
X12207380Y-14480881D01*
X12197856Y-14442786D01*
X12197856Y-14395167D01*
X12207380Y-14357071D01*
X12216904Y-14338024D01*
X12226428Y-14328500D01*
X12245475Y-14318976D01*
X12397856Y-14499928D02*
X12407380Y-14509452D01*
X12397856Y-14518976D01*
X12388332Y-14509452D01*
X12397856Y-14499928D01*
X12397856Y-14518976D01*
X12531189Y-14318976D02*
X12550237Y-14318976D01*
X12569285Y-14328500D01*
X12578809Y-14338024D01*
X12588332Y-14357071D01*
X12597856Y-14395167D01*
X12597856Y-14442786D01*
X12588332Y-14480881D01*
X12578809Y-14499928D01*
X12569285Y-14509452D01*
X12550237Y-14518976D01*
X12531189Y-14518976D01*
X12512142Y-14509452D01*
X12502618Y-14499928D01*
X12493094Y-14480881D01*
X12483570Y-14442786D01*
X12483570Y-14395167D01*
X12493094Y-14357071D01*
X12502618Y-14338024D01*
X12512142Y-14328500D01*
X12531189Y-14318976D01*
X12769285Y-14385643D02*
X12769285Y-14518976D01*
X12721666Y-14309452D02*
X12674047Y-14452309D01*
X12797856Y-14452309D01*
X12854999Y-14318976D02*
X12978809Y-14318976D01*
X12912142Y-14395167D01*
X12940713Y-14395167D01*
X12959761Y-14404690D01*
X12969285Y-14414214D01*
X12978809Y-14433262D01*
X12978809Y-14480881D01*
X12969285Y-14499928D01*
X12959761Y-14509452D01*
X12940713Y-14518976D01*
X12883570Y-14518976D01*
X12864523Y-14509452D01*
X12854999Y-14499928D01*
X13045475Y-14318976D02*
X13169285Y-14318976D01*
X13102618Y-14395167D01*
X13131189Y-14395167D01*
X13150237Y-14404690D01*
X13159761Y-14414214D01*
X13169285Y-14433262D01*
X13169285Y-14480881D01*
X13159761Y-14499928D01*
X13150237Y-14509452D01*
X13131189Y-14518976D01*
X13074047Y-14518976D01*
X13054999Y-14509452D01*
X13045475Y-14499928D01*
X13245475Y-14318976D02*
X13245475Y-14357071D01*
X13321666Y-14318976D02*
X13321666Y-14357071D01*
X13616904Y-14595167D02*
X13607380Y-14585643D01*
X13588332Y-14557071D01*
X13578809Y-14538024D01*
X13569285Y-14509452D01*
X13559761Y-14461833D01*
X13559761Y-14423738D01*
X13569285Y-14376119D01*
X13578809Y-14347548D01*
X13588332Y-14328500D01*
X13607380Y-14299928D01*
X13616904Y-14290405D01*
X13731189Y-14318976D02*
X13750237Y-14318976D01*
X13769285Y-14328500D01*
X13778809Y-14338024D01*
X13788332Y-14357071D01*
X13797856Y-14395167D01*
X13797856Y-14442786D01*
X13788332Y-14480881D01*
X13778809Y-14499928D01*
X13769285Y-14509452D01*
X13750237Y-14518976D01*
X13731189Y-14518976D01*
X13712142Y-14509452D01*
X13702618Y-14499928D01*
X13693094Y-14480881D01*
X13683570Y-14442786D01*
X13683570Y-14395167D01*
X13693094Y-14357071D01*
X13702618Y-14338024D01*
X13712142Y-14328500D01*
X13731189Y-14318976D01*
X14035951Y-14518976D02*
X14035951Y-14318976D01*
X14121666Y-14518976D02*
X14121666Y-14414214D01*
X14112142Y-14395167D01*
X14093094Y-14385643D01*
X14064523Y-14385643D01*
X14045475Y-14395167D01*
X14035951Y-14404690D01*
X14245475Y-14518976D02*
X14226428Y-14509452D01*
X14216904Y-14499928D01*
X14207380Y-14480881D01*
X14207380Y-14423738D01*
X14216904Y-14404690D01*
X14226428Y-14395167D01*
X14245475Y-14385643D01*
X14274047Y-14385643D01*
X14293094Y-14395167D01*
X14302618Y-14404690D01*
X14312142Y-14423738D01*
X14312142Y-14480881D01*
X14302618Y-14499928D01*
X14293094Y-14509452D01*
X14274047Y-14518976D01*
X14245475Y-14518976D01*
X14426428Y-14518976D02*
X14407380Y-14509452D01*
X14397856Y-14490405D01*
X14397856Y-14318976D01*
X14578809Y-14509452D02*
X14559761Y-14518976D01*
X14521666Y-14518976D01*
X14502618Y-14509452D01*
X14493094Y-14490405D01*
X14493094Y-14414214D01*
X14502618Y-14395167D01*
X14521666Y-14385643D01*
X14559761Y-14385643D01*
X14578809Y-14395167D01*
X14588332Y-14414214D01*
X14588332Y-14433262D01*
X14493094Y-14452309D01*
X14664523Y-14509452D02*
X14683570Y-14518976D01*
X14721666Y-14518976D01*
X14740713Y-14509452D01*
X14750237Y-14490405D01*
X14750237Y-14480881D01*
X14740713Y-14461833D01*
X14721666Y-14452309D01*
X14693094Y-14452309D01*
X14674047Y-14442786D01*
X14664523Y-14423738D01*
X14664523Y-14414214D01*
X14674047Y-14395167D01*
X14693094Y-14385643D01*
X14721666Y-14385643D01*
X14740713Y-14395167D01*
X14988332Y-14442786D02*
X15140713Y-14442786D01*
X15064523Y-14518976D02*
X15064523Y-14366595D01*
X15474047Y-14385643D02*
X15474047Y-14518976D01*
X15426428Y-14309452D02*
X15378809Y-14452309D01*
X15502618Y-14452309D01*
X15721666Y-14509452D02*
X15740713Y-14518976D01*
X15778809Y-14518976D01*
X15797856Y-14509452D01*
X15807380Y-14490405D01*
X15807380Y-14480881D01*
X15797856Y-14461833D01*
X15778809Y-14452309D01*
X15750237Y-14452309D01*
X15731189Y-14442786D01*
X15721666Y-14423738D01*
X15721666Y-14414214D01*
X15731189Y-14395167D01*
X15750237Y-14385643D01*
X15778809Y-14385643D01*
X15797856Y-14395167D01*
X15921666Y-14518976D02*
X15902618Y-14509452D01*
X15893094Y-14490405D01*
X15893094Y-14318976D01*
X16026428Y-14518976D02*
X16007380Y-14509452D01*
X15997856Y-14499928D01*
X15988332Y-14480881D01*
X15988332Y-14423738D01*
X15997856Y-14404690D01*
X16007380Y-14395167D01*
X16026428Y-14385643D01*
X16054999Y-14385643D01*
X16074047Y-14395167D01*
X16083570Y-14404690D01*
X16093094Y-14423738D01*
X16093094Y-14480881D01*
X16083570Y-14499928D01*
X16074047Y-14509452D01*
X16054999Y-14518976D01*
X16026428Y-14518976D01*
X16150237Y-14385643D02*
X16226428Y-14385643D01*
X16178809Y-14318976D02*
X16178809Y-14490405D01*
X16188332Y-14509452D01*
X16207380Y-14518976D01*
X16226428Y-14518976D01*
X16283570Y-14509452D02*
X16302618Y-14518976D01*
X16340713Y-14518976D01*
X16359761Y-14509452D01*
X16369285Y-14490405D01*
X16369285Y-14480881D01*
X16359761Y-14461833D01*
X16340713Y-14452309D01*
X16312142Y-14452309D01*
X16293094Y-14442786D01*
X16283570Y-14423738D01*
X16283570Y-14414214D01*
X16293094Y-14395167D01*
X16312142Y-14385643D01*
X16340713Y-14385643D01*
X16359761Y-14395167D01*
X16435951Y-14595167D02*
X16445475Y-14585643D01*
X16464523Y-14557071D01*
X16474047Y-14538024D01*
X16483570Y-14509452D01*
X16493094Y-14461833D01*
X16493094Y-14423738D01*
X16483570Y-14376119D01*
X16474047Y-14347548D01*
X16464523Y-14328500D01*
X16445475Y-14299928D01*
X16435951Y-14290405D01*
D21*
X10027426Y-14734927D02*
X10027426Y-14650073D01*
X9942572Y-14650073D01*
X9942572Y-14734927D01*
X10027426Y-14734927D01*
X10044999Y-14692500D02*
G75*
G03*
X10044999Y-14692500I-60000J0D01*
G01*
D11*
X10407380Y-14782976D02*
X10293094Y-14782976D01*
X10350237Y-14782976D02*
X10350237Y-14582976D01*
X10331190Y-14611548D01*
X10312142Y-14630595D01*
X10293094Y-14640119D01*
X10493094Y-14763928D02*
X10502618Y-14773452D01*
X10493094Y-14782976D01*
X10483571Y-14773452D01*
X10493094Y-14763928D01*
X10493094Y-14782976D01*
X10578809Y-14602024D02*
X10588332Y-14592500D01*
X10607380Y-14582976D01*
X10654999Y-14582976D01*
X10674047Y-14592500D01*
X10683571Y-14602024D01*
X10693094Y-14621071D01*
X10693094Y-14640119D01*
X10683571Y-14668690D01*
X10569285Y-14782976D01*
X10693094Y-14782976D01*
X10816904Y-14582976D02*
X10835951Y-14582976D01*
X10854999Y-14592500D01*
X10864523Y-14602024D01*
X10874047Y-14621071D01*
X10883571Y-14659167D01*
X10883571Y-14706786D01*
X10874047Y-14744881D01*
X10864523Y-14763928D01*
X10854999Y-14773452D01*
X10835951Y-14782976D01*
X10816904Y-14782976D01*
X10797856Y-14773452D01*
X10788332Y-14763928D01*
X10778809Y-14744881D01*
X10769285Y-14706786D01*
X10769285Y-14659167D01*
X10778809Y-14621071D01*
X10788332Y-14602024D01*
X10797856Y-14592500D01*
X10816904Y-14582976D01*
X11007380Y-14582976D02*
X11026428Y-14582976D01*
X11045475Y-14592500D01*
X11054999Y-14602024D01*
X11064523Y-14621071D01*
X11074047Y-14659167D01*
X11074047Y-14706786D01*
X11064523Y-14744881D01*
X11054999Y-14763928D01*
X11045475Y-14773452D01*
X11026428Y-14782976D01*
X11007380Y-14782976D01*
X10988332Y-14773452D01*
X10978809Y-14763928D01*
X10969285Y-14744881D01*
X10959761Y-14706786D01*
X10959761Y-14659167D01*
X10969285Y-14621071D01*
X10978809Y-14602024D01*
X10988332Y-14592500D01*
X11007380Y-14582976D01*
X11159761Y-14782976D02*
X11159761Y-14649643D01*
X11159761Y-14668690D02*
X11169285Y-14659167D01*
X11188332Y-14649643D01*
X11216904Y-14649643D01*
X11235951Y-14659167D01*
X11245475Y-14678214D01*
X11245475Y-14782976D01*
X11245475Y-14678214D02*
X11254999Y-14659167D01*
X11274047Y-14649643D01*
X11302618Y-14649643D01*
X11321666Y-14659167D01*
X11331189Y-14678214D01*
X11331189Y-14782976D01*
X11426428Y-14782976D02*
X11426428Y-14649643D01*
X11426428Y-14668690D02*
X11435951Y-14659167D01*
X11454999Y-14649643D01*
X11483570Y-14649643D01*
X11502618Y-14659167D01*
X11512142Y-14678214D01*
X11512142Y-14782976D01*
X11512142Y-14678214D02*
X11521666Y-14659167D01*
X11540713Y-14649643D01*
X11569285Y-14649643D01*
X11588332Y-14659167D01*
X11597856Y-14678214D01*
X11597856Y-14782976D01*
X11988332Y-14573452D02*
X11816904Y-14830595D01*
X12245475Y-14582976D02*
X12264523Y-14582976D01*
X12283570Y-14592500D01*
X12293094Y-14602024D01*
X12302618Y-14621071D01*
X12312142Y-14659167D01*
X12312142Y-14706786D01*
X12302618Y-14744881D01*
X12293094Y-14763928D01*
X12283570Y-14773452D01*
X12264523Y-14782976D01*
X12245475Y-14782976D01*
X12226428Y-14773452D01*
X12216904Y-14763928D01*
X12207380Y-14744881D01*
X12197856Y-14706786D01*
X12197856Y-14659167D01*
X12207380Y-14621071D01*
X12216904Y-14602024D01*
X12226428Y-14592500D01*
X12245475Y-14582976D01*
X12397856Y-14763928D02*
X12407380Y-14773452D01*
X12397856Y-14782976D01*
X12388332Y-14773452D01*
X12397856Y-14763928D01*
X12397856Y-14782976D01*
X12531189Y-14582976D02*
X12550237Y-14582976D01*
X12569285Y-14592500D01*
X12578809Y-14602024D01*
X12588332Y-14621071D01*
X12597856Y-14659167D01*
X12597856Y-14706786D01*
X12588332Y-14744881D01*
X12578809Y-14763928D01*
X12569285Y-14773452D01*
X12550237Y-14782976D01*
X12531189Y-14782976D01*
X12512142Y-14773452D01*
X12502618Y-14763928D01*
X12493094Y-14744881D01*
X12483570Y-14706786D01*
X12483570Y-14659167D01*
X12493094Y-14621071D01*
X12502618Y-14602024D01*
X12512142Y-14592500D01*
X12531189Y-14582976D01*
X12769285Y-14649643D02*
X12769285Y-14782976D01*
X12721666Y-14573452D02*
X12674047Y-14716309D01*
X12797856Y-14716309D01*
X12854999Y-14582976D02*
X12988332Y-14582976D01*
X12902618Y-14782976D01*
X13054999Y-14602024D02*
X13064523Y-14592500D01*
X13083570Y-14582976D01*
X13131189Y-14582976D01*
X13150237Y-14592500D01*
X13159761Y-14602024D01*
X13169285Y-14621071D01*
X13169285Y-14640119D01*
X13159761Y-14668690D01*
X13045475Y-14782976D01*
X13169285Y-14782976D01*
X13245475Y-14582976D02*
X13245475Y-14621071D01*
X13321666Y-14582976D02*
X13321666Y-14621071D01*
X13616904Y-14859167D02*
X13607380Y-14849643D01*
X13588332Y-14821071D01*
X13578809Y-14802024D01*
X13569285Y-14773452D01*
X13559761Y-14725833D01*
X13559761Y-14687738D01*
X13569285Y-14640119D01*
X13578809Y-14611548D01*
X13588332Y-14592500D01*
X13607380Y-14563928D01*
X13616904Y-14554405D01*
X13797856Y-14782976D02*
X13683570Y-14782976D01*
X13740713Y-14782976D02*
X13740713Y-14582976D01*
X13721666Y-14611548D01*
X13702618Y-14630595D01*
X13683570Y-14640119D01*
X13969285Y-14649643D02*
X13969285Y-14782976D01*
X13921666Y-14573452D02*
X13874047Y-14716309D01*
X13997856Y-14716309D01*
X14226428Y-14782976D02*
X14226428Y-14582976D01*
X14312142Y-14782976D02*
X14312142Y-14678214D01*
X14302618Y-14659167D01*
X14283570Y-14649643D01*
X14254999Y-14649643D01*
X14235951Y-14659167D01*
X14226428Y-14668690D01*
X14435951Y-14782976D02*
X14416904Y-14773452D01*
X14407380Y-14763928D01*
X14397856Y-14744881D01*
X14397856Y-14687738D01*
X14407380Y-14668690D01*
X14416904Y-14659167D01*
X14435951Y-14649643D01*
X14464523Y-14649643D01*
X14483570Y-14659167D01*
X14493094Y-14668690D01*
X14502618Y-14687738D01*
X14502618Y-14744881D01*
X14493094Y-14763928D01*
X14483570Y-14773452D01*
X14464523Y-14782976D01*
X14435951Y-14782976D01*
X14616904Y-14782976D02*
X14597856Y-14773452D01*
X14588332Y-14754405D01*
X14588332Y-14582976D01*
X14769285Y-14773452D02*
X14750237Y-14782976D01*
X14712142Y-14782976D01*
X14693094Y-14773452D01*
X14683570Y-14754405D01*
X14683570Y-14678214D01*
X14693094Y-14659167D01*
X14712142Y-14649643D01*
X14750237Y-14649643D01*
X14769285Y-14659167D01*
X14778809Y-14678214D01*
X14778809Y-14697262D01*
X14683570Y-14716309D01*
X14854999Y-14773452D02*
X14874047Y-14782976D01*
X14912142Y-14782976D01*
X14931189Y-14773452D01*
X14940713Y-14754405D01*
X14940713Y-14744881D01*
X14931189Y-14725833D01*
X14912142Y-14716309D01*
X14883570Y-14716309D01*
X14864523Y-14706786D01*
X14854999Y-14687738D01*
X14854999Y-14678214D01*
X14864523Y-14659167D01*
X14883570Y-14649643D01*
X14912142Y-14649643D01*
X14931189Y-14659167D01*
X15007380Y-14859167D02*
X15016904Y-14849643D01*
X15035951Y-14821071D01*
X15045475Y-14802024D01*
X15054999Y-14773452D01*
X15064523Y-14725833D01*
X15064523Y-14687738D01*
X15054999Y-14640119D01*
X15045475Y-14611548D01*
X15035951Y-14592500D01*
X15016904Y-14563928D01*
X15007380Y-14554405D01*
X9944999Y-15056500D02*
X10044999Y-14956500D01*
X9944999Y-14856500D01*
X9844999Y-14956500D01*
X9944999Y-15056500D01*
X10044999Y-14956500D02*
G75*
G03*
X10044999Y-14956500I-100000J0D01*
G01*
X10293094Y-14866024D02*
X10302618Y-14856500D01*
X10321666Y-14846976D01*
X10369285Y-14846976D01*
X10388332Y-14856500D01*
X10397856Y-14866024D01*
X10407380Y-14885071D01*
X10407380Y-14904119D01*
X10397856Y-14932690D01*
X10283571Y-15046976D01*
X10407380Y-15046976D01*
X10493094Y-15027928D02*
X10502618Y-15037452D01*
X10493094Y-15046976D01*
X10483571Y-15037452D01*
X10493094Y-15027928D01*
X10493094Y-15046976D01*
X10626428Y-14846976D02*
X10645475Y-14846976D01*
X10664523Y-14856500D01*
X10674047Y-14866024D01*
X10683571Y-14885071D01*
X10693094Y-14923167D01*
X10693094Y-14970786D01*
X10683571Y-15008881D01*
X10674047Y-15027928D01*
X10664523Y-15037452D01*
X10645475Y-15046976D01*
X10626428Y-15046976D01*
X10607380Y-15037452D01*
X10597856Y-15027928D01*
X10588332Y-15008881D01*
X10578809Y-14970786D01*
X10578809Y-14923167D01*
X10588332Y-14885071D01*
X10597856Y-14866024D01*
X10607380Y-14856500D01*
X10626428Y-14846976D01*
X10816904Y-14846976D02*
X10835951Y-14846976D01*
X10854999Y-14856500D01*
X10864523Y-14866024D01*
X10874047Y-14885071D01*
X10883571Y-14923167D01*
X10883571Y-14970786D01*
X10874047Y-15008881D01*
X10864523Y-15027928D01*
X10854999Y-15037452D01*
X10835951Y-15046976D01*
X10816904Y-15046976D01*
X10797856Y-15037452D01*
X10788332Y-15027928D01*
X10778809Y-15008881D01*
X10769285Y-14970786D01*
X10769285Y-14923167D01*
X10778809Y-14885071D01*
X10788332Y-14866024D01*
X10797856Y-14856500D01*
X10816904Y-14846976D01*
X11007380Y-14846976D02*
X11026428Y-14846976D01*
X11045475Y-14856500D01*
X11054999Y-14866024D01*
X11064523Y-14885071D01*
X11074047Y-14923167D01*
X11074047Y-14970786D01*
X11064523Y-15008881D01*
X11054999Y-15027928D01*
X11045475Y-15037452D01*
X11026428Y-15046976D01*
X11007380Y-15046976D01*
X10988332Y-15037452D01*
X10978809Y-15027928D01*
X10969285Y-15008881D01*
X10959761Y-14970786D01*
X10959761Y-14923167D01*
X10969285Y-14885071D01*
X10978809Y-14866024D01*
X10988332Y-14856500D01*
X11007380Y-14846976D01*
X11159761Y-15046976D02*
X11159761Y-14913643D01*
X11159761Y-14932690D02*
X11169285Y-14923167D01*
X11188332Y-14913643D01*
X11216904Y-14913643D01*
X11235951Y-14923167D01*
X11245475Y-14942214D01*
X11245475Y-15046976D01*
X11245475Y-14942214D02*
X11254999Y-14923167D01*
X11274047Y-14913643D01*
X11302618Y-14913643D01*
X11321666Y-14923167D01*
X11331189Y-14942214D01*
X11331189Y-15046976D01*
X11426428Y-15046976D02*
X11426428Y-14913643D01*
X11426428Y-14932690D02*
X11435951Y-14923167D01*
X11454999Y-14913643D01*
X11483570Y-14913643D01*
X11502618Y-14923167D01*
X11512142Y-14942214D01*
X11512142Y-15046976D01*
X11512142Y-14942214D02*
X11521666Y-14923167D01*
X11540713Y-14913643D01*
X11569285Y-14913643D01*
X11588332Y-14923167D01*
X11597856Y-14942214D01*
X11597856Y-15046976D01*
X11988332Y-14837452D02*
X11816904Y-15094595D01*
X12245475Y-14846976D02*
X12264523Y-14846976D01*
X12283570Y-14856500D01*
X12293094Y-14866024D01*
X12302618Y-14885071D01*
X12312142Y-14923167D01*
X12312142Y-14970786D01*
X12302618Y-15008881D01*
X12293094Y-15027928D01*
X12283570Y-15037452D01*
X12264523Y-15046976D01*
X12245475Y-15046976D01*
X12226428Y-15037452D01*
X12216904Y-15027928D01*
X12207380Y-15008881D01*
X12197856Y-14970786D01*
X12197856Y-14923167D01*
X12207380Y-14885071D01*
X12216904Y-14866024D01*
X12226428Y-14856500D01*
X12245475Y-14846976D01*
X12397856Y-15027928D02*
X12407380Y-15037452D01*
X12397856Y-15046976D01*
X12388332Y-15037452D01*
X12397856Y-15027928D01*
X12397856Y-15046976D01*
X12531189Y-14846976D02*
X12550237Y-14846976D01*
X12569285Y-14856500D01*
X12578809Y-14866024D01*
X12588332Y-14885071D01*
X12597856Y-14923167D01*
X12597856Y-14970786D01*
X12588332Y-15008881D01*
X12578809Y-15027928D01*
X12569285Y-15037452D01*
X12550237Y-15046976D01*
X12531189Y-15046976D01*
X12512142Y-15037452D01*
X12502618Y-15027928D01*
X12493094Y-15008881D01*
X12483570Y-14970786D01*
X12483570Y-14923167D01*
X12493094Y-14885071D01*
X12502618Y-14866024D01*
X12512142Y-14856500D01*
X12531189Y-14846976D01*
X12664523Y-14846976D02*
X12797856Y-14846976D01*
X12712142Y-15046976D01*
X12902618Y-14932690D02*
X12883570Y-14923167D01*
X12874047Y-14913643D01*
X12864523Y-14894595D01*
X12864523Y-14885071D01*
X12874047Y-14866024D01*
X12883570Y-14856500D01*
X12902618Y-14846976D01*
X12940713Y-14846976D01*
X12959761Y-14856500D01*
X12969285Y-14866024D01*
X12978809Y-14885071D01*
X12978809Y-14894595D01*
X12969285Y-14913643D01*
X12959761Y-14923167D01*
X12940713Y-14932690D01*
X12902618Y-14932690D01*
X12883570Y-14942214D01*
X12874047Y-14951738D01*
X12864523Y-14970786D01*
X12864523Y-15008881D01*
X12874047Y-15027928D01*
X12883570Y-15037452D01*
X12902618Y-15046976D01*
X12940713Y-15046976D01*
X12959761Y-15037452D01*
X12969285Y-15027928D01*
X12978809Y-15008881D01*
X12978809Y-14970786D01*
X12969285Y-14951738D01*
X12959761Y-14942214D01*
X12940713Y-14932690D01*
X13045475Y-14846976D02*
X13178809Y-14846976D01*
X13093094Y-15046976D01*
X13245475Y-14846976D02*
X13245475Y-14885071D01*
X13321666Y-14846976D02*
X13321666Y-14885071D01*
X13616904Y-15123167D02*
X13607380Y-15113643D01*
X13588332Y-15085071D01*
X13578809Y-15066024D01*
X13569285Y-15037452D01*
X13559761Y-14989833D01*
X13559761Y-14951738D01*
X13569285Y-14904119D01*
X13578809Y-14875548D01*
X13588332Y-14856500D01*
X13607380Y-14827928D01*
X13616904Y-14818405D01*
X13731189Y-14846976D02*
X13750237Y-14846976D01*
X13769285Y-14856500D01*
X13778809Y-14866024D01*
X13788332Y-14885071D01*
X13797856Y-14923167D01*
X13797856Y-14970786D01*
X13788332Y-15008881D01*
X13778809Y-15027928D01*
X13769285Y-15037452D01*
X13750237Y-15046976D01*
X13731189Y-15046976D01*
X13712142Y-15037452D01*
X13702618Y-15027928D01*
X13693094Y-15008881D01*
X13683570Y-14970786D01*
X13683570Y-14923167D01*
X13693094Y-14885071D01*
X13702618Y-14866024D01*
X13712142Y-14856500D01*
X13731189Y-14846976D01*
X14035951Y-15046976D02*
X14035951Y-14846976D01*
X14121666Y-15046976D02*
X14121666Y-14942214D01*
X14112142Y-14923167D01*
X14093094Y-14913643D01*
X14064523Y-14913643D01*
X14045475Y-14923167D01*
X14035951Y-14932690D01*
X14245475Y-15046976D02*
X14226428Y-15037452D01*
X14216904Y-15027928D01*
X14207380Y-15008881D01*
X14207380Y-14951738D01*
X14216904Y-14932690D01*
X14226428Y-14923167D01*
X14245475Y-14913643D01*
X14274047Y-14913643D01*
X14293094Y-14923167D01*
X14302618Y-14932690D01*
X14312142Y-14951738D01*
X14312142Y-15008881D01*
X14302618Y-15027928D01*
X14293094Y-15037452D01*
X14274047Y-15046976D01*
X14245475Y-15046976D01*
X14426428Y-15046976D02*
X14407380Y-15037452D01*
X14397856Y-15018405D01*
X14397856Y-14846976D01*
X14578809Y-15037452D02*
X14559761Y-15046976D01*
X14521666Y-15046976D01*
X14502618Y-15037452D01*
X14493094Y-15018405D01*
X14493094Y-14942214D01*
X14502618Y-14923167D01*
X14521666Y-14913643D01*
X14559761Y-14913643D01*
X14578809Y-14923167D01*
X14588332Y-14942214D01*
X14588332Y-14961262D01*
X14493094Y-14980309D01*
X14664523Y-15037452D02*
X14683570Y-15046976D01*
X14721666Y-15046976D01*
X14740713Y-15037452D01*
X14750237Y-15018405D01*
X14750237Y-15008881D01*
X14740713Y-14989833D01*
X14721666Y-14980309D01*
X14693094Y-14980309D01*
X14674047Y-14970786D01*
X14664523Y-14951738D01*
X14664523Y-14942214D01*
X14674047Y-14923167D01*
X14693094Y-14913643D01*
X14721666Y-14913643D01*
X14740713Y-14923167D01*
X14988332Y-14970786D02*
X15140713Y-14970786D01*
X15064523Y-15046976D02*
X15064523Y-14894595D01*
X15474047Y-14913643D02*
X15474047Y-15046976D01*
X15426428Y-14837452D02*
X15378809Y-14980309D01*
X15502618Y-14980309D01*
X15721666Y-15037452D02*
X15740713Y-15046976D01*
X15778809Y-15046976D01*
X15797856Y-15037452D01*
X15807380Y-15018405D01*
X15807380Y-15008881D01*
X15797856Y-14989833D01*
X15778809Y-14980309D01*
X15750237Y-14980309D01*
X15731189Y-14970786D01*
X15721666Y-14951738D01*
X15721666Y-14942214D01*
X15731189Y-14923167D01*
X15750237Y-14913643D01*
X15778809Y-14913643D01*
X15797856Y-14923167D01*
X15921666Y-15046976D02*
X15902618Y-15037452D01*
X15893094Y-15018405D01*
X15893094Y-14846976D01*
X16026428Y-15046976D02*
X16007380Y-15037452D01*
X15997856Y-15027928D01*
X15988332Y-15008881D01*
X15988332Y-14951738D01*
X15997856Y-14932690D01*
X16007380Y-14923167D01*
X16026428Y-14913643D01*
X16054999Y-14913643D01*
X16074047Y-14923167D01*
X16083570Y-14932690D01*
X16093094Y-14951738D01*
X16093094Y-15008881D01*
X16083570Y-15027928D01*
X16074047Y-15037452D01*
X16054999Y-15046976D01*
X16026428Y-15046976D01*
X16150237Y-14913643D02*
X16226428Y-14913643D01*
X16178809Y-14846976D02*
X16178809Y-15018405D01*
X16188332Y-15037452D01*
X16207380Y-15046976D01*
X16226428Y-15046976D01*
X16283570Y-15037452D02*
X16302618Y-15046976D01*
X16340713Y-15046976D01*
X16359761Y-15037452D01*
X16369285Y-15018405D01*
X16369285Y-15008881D01*
X16359761Y-14989833D01*
X16340713Y-14980309D01*
X16312142Y-14980309D01*
X16293094Y-14970786D01*
X16283570Y-14951738D01*
X16283570Y-14942214D01*
X16293094Y-14923167D01*
X16312142Y-14913643D01*
X16340713Y-14913643D01*
X16359761Y-14923167D01*
X16435951Y-15123167D02*
X16445475Y-15113643D01*
X16464523Y-15085071D01*
X16474047Y-15066024D01*
X16483570Y-15037452D01*
X16493094Y-14989833D01*
X16493094Y-14951738D01*
X16483570Y-14904119D01*
X16474047Y-14875548D01*
X16464523Y-14856500D01*
X16445475Y-14827928D01*
X16435951Y-14818405D01*
X9944999Y-15176500D02*
X9944999Y-15376500D01*
X9844999Y-15276500D02*
X10044999Y-15276500D01*
X10015711Y-15347211D02*
X10015711Y-15205789D01*
X9874288Y-15205789D01*
X9874288Y-15347211D01*
X10015711Y-15347211D01*
X10293094Y-15186024D02*
X10302618Y-15176500D01*
X10321666Y-15166976D01*
X10369285Y-15166976D01*
X10388332Y-15176500D01*
X10397856Y-15186024D01*
X10407380Y-15205071D01*
X10407380Y-15224119D01*
X10397856Y-15252690D01*
X10283571Y-15366976D01*
X10407380Y-15366976D01*
X10493094Y-15347928D02*
X10502618Y-15357452D01*
X10493094Y-15366976D01*
X10483571Y-15357452D01*
X10493094Y-15347928D01*
X10493094Y-15366976D01*
X10569285Y-15166976D02*
X10693094Y-15166976D01*
X10626428Y-15243167D01*
X10654999Y-15243167D01*
X10674047Y-15252690D01*
X10683571Y-15262214D01*
X10693094Y-15281262D01*
X10693094Y-15328881D01*
X10683571Y-15347928D01*
X10674047Y-15357452D01*
X10654999Y-15366976D01*
X10597856Y-15366976D01*
X10578809Y-15357452D01*
X10569285Y-15347928D01*
X10816904Y-15166976D02*
X10835951Y-15166976D01*
X10854999Y-15176500D01*
X10864523Y-15186024D01*
X10874047Y-15205071D01*
X10883571Y-15243167D01*
X10883571Y-15290786D01*
X10874047Y-15328881D01*
X10864523Y-15347928D01*
X10854999Y-15357452D01*
X10835951Y-15366976D01*
X10816904Y-15366976D01*
X10797856Y-15357452D01*
X10788332Y-15347928D01*
X10778809Y-15328881D01*
X10769285Y-15290786D01*
X10769285Y-15243167D01*
X10778809Y-15205071D01*
X10788332Y-15186024D01*
X10797856Y-15176500D01*
X10816904Y-15166976D01*
X11007380Y-15166976D02*
X11026428Y-15166976D01*
X11045475Y-15176500D01*
X11054999Y-15186024D01*
X11064523Y-15205071D01*
X11074047Y-15243167D01*
X11074047Y-15290786D01*
X11064523Y-15328881D01*
X11054999Y-15347928D01*
X11045475Y-15357452D01*
X11026428Y-15366976D01*
X11007380Y-15366976D01*
X10988332Y-15357452D01*
X10978809Y-15347928D01*
X10969285Y-15328881D01*
X10959761Y-15290786D01*
X10959761Y-15243167D01*
X10969285Y-15205071D01*
X10978809Y-15186024D01*
X10988332Y-15176500D01*
X11007380Y-15166976D01*
X11159761Y-15366976D02*
X11159761Y-15233643D01*
X11159761Y-15252690D02*
X11169285Y-15243167D01*
X11188332Y-15233643D01*
X11216904Y-15233643D01*
X11235951Y-15243167D01*
X11245475Y-15262214D01*
X11245475Y-15366976D01*
X11245475Y-15262214D02*
X11254999Y-15243167D01*
X11274047Y-15233643D01*
X11302618Y-15233643D01*
X11321666Y-15243167D01*
X11331189Y-15262214D01*
X11331189Y-15366976D01*
X11426428Y-15366976D02*
X11426428Y-15233643D01*
X11426428Y-15252690D02*
X11435951Y-15243167D01*
X11454999Y-15233643D01*
X11483570Y-15233643D01*
X11502618Y-15243167D01*
X11512142Y-15262214D01*
X11512142Y-15366976D01*
X11512142Y-15262214D02*
X11521666Y-15243167D01*
X11540713Y-15233643D01*
X11569285Y-15233643D01*
X11588332Y-15243167D01*
X11597856Y-15262214D01*
X11597856Y-15366976D01*
X11988332Y-15157452D02*
X11816904Y-15414595D01*
X12245475Y-15166976D02*
X12264523Y-15166976D01*
X12283570Y-15176500D01*
X12293094Y-15186024D01*
X12302618Y-15205071D01*
X12312142Y-15243167D01*
X12312142Y-15290786D01*
X12302618Y-15328881D01*
X12293094Y-15347928D01*
X12283570Y-15357452D01*
X12264523Y-15366976D01*
X12245475Y-15366976D01*
X12226428Y-15357452D01*
X12216904Y-15347928D01*
X12207380Y-15328881D01*
X12197856Y-15290786D01*
X12197856Y-15243167D01*
X12207380Y-15205071D01*
X12216904Y-15186024D01*
X12226428Y-15176500D01*
X12245475Y-15166976D01*
X12397856Y-15347928D02*
X12407380Y-15357452D01*
X12397856Y-15366976D01*
X12388332Y-15357452D01*
X12397856Y-15347928D01*
X12397856Y-15366976D01*
X12531189Y-15166976D02*
X12550237Y-15166976D01*
X12569285Y-15176500D01*
X12578809Y-15186024D01*
X12588332Y-15205071D01*
X12597856Y-15243167D01*
X12597856Y-15290786D01*
X12588332Y-15328881D01*
X12578809Y-15347928D01*
X12569285Y-15357452D01*
X12550237Y-15366976D01*
X12531189Y-15366976D01*
X12512142Y-15357452D01*
X12502618Y-15347928D01*
X12493094Y-15328881D01*
X12483570Y-15290786D01*
X12483570Y-15243167D01*
X12493094Y-15205071D01*
X12502618Y-15186024D01*
X12512142Y-15176500D01*
X12531189Y-15166976D01*
X12693094Y-15366976D02*
X12731189Y-15366976D01*
X12750237Y-15357452D01*
X12759761Y-15347928D01*
X12778809Y-15319357D01*
X12788332Y-15281262D01*
X12788332Y-15205071D01*
X12778809Y-15186024D01*
X12769285Y-15176500D01*
X12750237Y-15166976D01*
X12712142Y-15166976D01*
X12693094Y-15176500D01*
X12683570Y-15186024D01*
X12674047Y-15205071D01*
X12674047Y-15252690D01*
X12683570Y-15271738D01*
X12693094Y-15281262D01*
X12712142Y-15290786D01*
X12750237Y-15290786D01*
X12769285Y-15281262D01*
X12778809Y-15271738D01*
X12788332Y-15252690D01*
X12912142Y-15166976D02*
X12931189Y-15166976D01*
X12950237Y-15176500D01*
X12959761Y-15186024D01*
X12969285Y-15205071D01*
X12978809Y-15243167D01*
X12978809Y-15290786D01*
X12969285Y-15328881D01*
X12959761Y-15347928D01*
X12950237Y-15357452D01*
X12931189Y-15366976D01*
X12912142Y-15366976D01*
X12893094Y-15357452D01*
X12883570Y-15347928D01*
X12874047Y-15328881D01*
X12864523Y-15290786D01*
X12864523Y-15243167D01*
X12874047Y-15205071D01*
X12883570Y-15186024D01*
X12893094Y-15176500D01*
X12912142Y-15166976D01*
X13150237Y-15166976D02*
X13112142Y-15166976D01*
X13093094Y-15176500D01*
X13083570Y-15186024D01*
X13064523Y-15214595D01*
X13054999Y-15252690D01*
X13054999Y-15328881D01*
X13064523Y-15347928D01*
X13074047Y-15357452D01*
X13093094Y-15366976D01*
X13131189Y-15366976D01*
X13150237Y-15357452D01*
X13159761Y-15347928D01*
X13169285Y-15328881D01*
X13169285Y-15281262D01*
X13159761Y-15262214D01*
X13150237Y-15252690D01*
X13131189Y-15243167D01*
X13093094Y-15243167D01*
X13074047Y-15252690D01*
X13064523Y-15262214D01*
X13054999Y-15281262D01*
X13245475Y-15166976D02*
X13245475Y-15205071D01*
X13321666Y-15166976D02*
X13321666Y-15205071D01*
X13616904Y-15443167D02*
X13607380Y-15433643D01*
X13588332Y-15405071D01*
X13578809Y-15386024D01*
X13569285Y-15357452D01*
X13559761Y-15309833D01*
X13559761Y-15271738D01*
X13569285Y-15224119D01*
X13578809Y-15195548D01*
X13588332Y-15176500D01*
X13607380Y-15147928D01*
X13616904Y-15138405D01*
X13683570Y-15186024D02*
X13693094Y-15176500D01*
X13712142Y-15166976D01*
X13759761Y-15166976D01*
X13778809Y-15176500D01*
X13788332Y-15186024D01*
X13797856Y-15205071D01*
X13797856Y-15224119D01*
X13788332Y-15252690D01*
X13674047Y-15366976D01*
X13797856Y-15366976D01*
X14035951Y-15366976D02*
X14035951Y-15166976D01*
X14121666Y-15366976D02*
X14121666Y-15262214D01*
X14112142Y-15243167D01*
X14093094Y-15233643D01*
X14064523Y-15233643D01*
X14045475Y-15243167D01*
X14035951Y-15252690D01*
X14245475Y-15366976D02*
X14226428Y-15357452D01*
X14216904Y-15347928D01*
X14207380Y-15328881D01*
X14207380Y-15271738D01*
X14216904Y-15252690D01*
X14226428Y-15243167D01*
X14245475Y-15233643D01*
X14274047Y-15233643D01*
X14293094Y-15243167D01*
X14302618Y-15252690D01*
X14312142Y-15271738D01*
X14312142Y-15328881D01*
X14302618Y-15347928D01*
X14293094Y-15357452D01*
X14274047Y-15366976D01*
X14245475Y-15366976D01*
X14426428Y-15366976D02*
X14407380Y-15357452D01*
X14397856Y-15338405D01*
X14397856Y-15166976D01*
X14578809Y-15357452D02*
X14559761Y-15366976D01*
X14521666Y-15366976D01*
X14502618Y-15357452D01*
X14493094Y-15338405D01*
X14493094Y-15262214D01*
X14502618Y-15243167D01*
X14521666Y-15233643D01*
X14559761Y-15233643D01*
X14578809Y-15243167D01*
X14588332Y-15262214D01*
X14588332Y-15281262D01*
X14493094Y-15300309D01*
X14664523Y-15357452D02*
X14683570Y-15366976D01*
X14721666Y-15366976D01*
X14740713Y-15357452D01*
X14750237Y-15338405D01*
X14750237Y-15328881D01*
X14740713Y-15309833D01*
X14721666Y-15300309D01*
X14693094Y-15300309D01*
X14674047Y-15290786D01*
X14664523Y-15271738D01*
X14664523Y-15262214D01*
X14674047Y-15243167D01*
X14693094Y-15233643D01*
X14721666Y-15233643D01*
X14740713Y-15243167D01*
X14816904Y-15443167D02*
X14826428Y-15433643D01*
X14845475Y-15405071D01*
X14854999Y-15386024D01*
X14864523Y-15357452D01*
X14874047Y-15309833D01*
X14874047Y-15271738D01*
X14864523Y-15224119D01*
X14854999Y-15195548D01*
X14845475Y-15176500D01*
X14826428Y-15147928D01*
X14816904Y-15138405D01*
X9944999Y-15496500D02*
X9944999Y-15696500D01*
X9844999Y-15596500D02*
X10044999Y-15596500D01*
X9944999Y-15696500D02*
X10044999Y-15596500D01*
X9944999Y-15496500D01*
X9844999Y-15596500D01*
X9944999Y-15696500D01*
X10293094Y-15506024D02*
X10302618Y-15496500D01*
X10321666Y-15486976D01*
X10369285Y-15486976D01*
X10388332Y-15496500D01*
X10397856Y-15506024D01*
X10407380Y-15525071D01*
X10407380Y-15544119D01*
X10397856Y-15572690D01*
X10283571Y-15686976D01*
X10407380Y-15686976D01*
X10493094Y-15667928D02*
X10502618Y-15677452D01*
X10493094Y-15686976D01*
X10483571Y-15677452D01*
X10493094Y-15667928D01*
X10493094Y-15686976D01*
X10683571Y-15486976D02*
X10588332Y-15486976D01*
X10578809Y-15582214D01*
X10588332Y-15572690D01*
X10607380Y-15563167D01*
X10654999Y-15563167D01*
X10674047Y-15572690D01*
X10683571Y-15582214D01*
X10693094Y-15601262D01*
X10693094Y-15648881D01*
X10683571Y-15667928D01*
X10674047Y-15677452D01*
X10654999Y-15686976D01*
X10607380Y-15686976D01*
X10588332Y-15677452D01*
X10578809Y-15667928D01*
X10816904Y-15486976D02*
X10835951Y-15486976D01*
X10854999Y-15496500D01*
X10864523Y-15506024D01*
X10874047Y-15525071D01*
X10883571Y-15563167D01*
X10883571Y-15610786D01*
X10874047Y-15648881D01*
X10864523Y-15667928D01*
X10854999Y-15677452D01*
X10835951Y-15686976D01*
X10816904Y-15686976D01*
X10797856Y-15677452D01*
X10788332Y-15667928D01*
X10778809Y-15648881D01*
X10769285Y-15610786D01*
X10769285Y-15563167D01*
X10778809Y-15525071D01*
X10788332Y-15506024D01*
X10797856Y-15496500D01*
X10816904Y-15486976D01*
X11007380Y-15486976D02*
X11026428Y-15486976D01*
X11045475Y-15496500D01*
X11054999Y-15506024D01*
X11064523Y-15525071D01*
X11074047Y-15563167D01*
X11074047Y-15610786D01*
X11064523Y-15648881D01*
X11054999Y-15667928D01*
X11045475Y-15677452D01*
X11026428Y-15686976D01*
X11007380Y-15686976D01*
X10988332Y-15677452D01*
X10978809Y-15667928D01*
X10969285Y-15648881D01*
X10959761Y-15610786D01*
X10959761Y-15563167D01*
X10969285Y-15525071D01*
X10978809Y-15506024D01*
X10988332Y-15496500D01*
X11007380Y-15486976D01*
X11159761Y-15686976D02*
X11159761Y-15553643D01*
X11159761Y-15572690D02*
X11169285Y-15563167D01*
X11188332Y-15553643D01*
X11216904Y-15553643D01*
X11235951Y-15563167D01*
X11245475Y-15582214D01*
X11245475Y-15686976D01*
X11245475Y-15582214D02*
X11254999Y-15563167D01*
X11274047Y-15553643D01*
X11302618Y-15553643D01*
X11321666Y-15563167D01*
X11331189Y-15582214D01*
X11331189Y-15686976D01*
X11426428Y-15686976D02*
X11426428Y-15553643D01*
X11426428Y-15572690D02*
X11435951Y-15563167D01*
X11454999Y-15553643D01*
X11483570Y-15553643D01*
X11502618Y-15563167D01*
X11512142Y-15582214D01*
X11512142Y-15686976D01*
X11512142Y-15582214D02*
X11521666Y-15563167D01*
X11540713Y-15553643D01*
X11569285Y-15553643D01*
X11588332Y-15563167D01*
X11597856Y-15582214D01*
X11597856Y-15686976D01*
X11988332Y-15477452D02*
X11816904Y-15734595D01*
X12245475Y-15486976D02*
X12264523Y-15486976D01*
X12283570Y-15496500D01*
X12293094Y-15506024D01*
X12302618Y-15525071D01*
X12312142Y-15563167D01*
X12312142Y-15610786D01*
X12302618Y-15648881D01*
X12293094Y-15667928D01*
X12283570Y-15677452D01*
X12264523Y-15686976D01*
X12245475Y-15686976D01*
X12226428Y-15677452D01*
X12216904Y-15667928D01*
X12207380Y-15648881D01*
X12197856Y-15610786D01*
X12197856Y-15563167D01*
X12207380Y-15525071D01*
X12216904Y-15506024D01*
X12226428Y-15496500D01*
X12245475Y-15486976D01*
X12397856Y-15667928D02*
X12407380Y-15677452D01*
X12397856Y-15686976D01*
X12388332Y-15677452D01*
X12397856Y-15667928D01*
X12397856Y-15686976D01*
X12531189Y-15486976D02*
X12550237Y-15486976D01*
X12569285Y-15496500D01*
X12578809Y-15506024D01*
X12588332Y-15525071D01*
X12597856Y-15563167D01*
X12597856Y-15610786D01*
X12588332Y-15648881D01*
X12578809Y-15667928D01*
X12569285Y-15677452D01*
X12550237Y-15686976D01*
X12531189Y-15686976D01*
X12512142Y-15677452D01*
X12502618Y-15667928D01*
X12493094Y-15648881D01*
X12483570Y-15610786D01*
X12483570Y-15563167D01*
X12493094Y-15525071D01*
X12502618Y-15506024D01*
X12512142Y-15496500D01*
X12531189Y-15486976D01*
X12693094Y-15686976D02*
X12731189Y-15686976D01*
X12750237Y-15677452D01*
X12759761Y-15667928D01*
X12778809Y-15639357D01*
X12788332Y-15601262D01*
X12788332Y-15525071D01*
X12778809Y-15506024D01*
X12769285Y-15496500D01*
X12750237Y-15486976D01*
X12712142Y-15486976D01*
X12693094Y-15496500D01*
X12683570Y-15506024D01*
X12674047Y-15525071D01*
X12674047Y-15572690D01*
X12683570Y-15591738D01*
X12693094Y-15601262D01*
X12712142Y-15610786D01*
X12750237Y-15610786D01*
X12769285Y-15601262D01*
X12778809Y-15591738D01*
X12788332Y-15572690D01*
X12902618Y-15572690D02*
X12883570Y-15563167D01*
X12874047Y-15553643D01*
X12864523Y-15534595D01*
X12864523Y-15525071D01*
X12874047Y-15506024D01*
X12883570Y-15496500D01*
X12902618Y-15486976D01*
X12940713Y-15486976D01*
X12959761Y-15496500D01*
X12969285Y-15506024D01*
X12978809Y-15525071D01*
X12978809Y-15534595D01*
X12969285Y-15553643D01*
X12959761Y-15563167D01*
X12940713Y-15572690D01*
X12902618Y-15572690D01*
X12883570Y-15582214D01*
X12874047Y-15591738D01*
X12864523Y-15610786D01*
X12864523Y-15648881D01*
X12874047Y-15667928D01*
X12883570Y-15677452D01*
X12902618Y-15686976D01*
X12940713Y-15686976D01*
X12959761Y-15677452D01*
X12969285Y-15667928D01*
X12978809Y-15648881D01*
X12978809Y-15610786D01*
X12969285Y-15591738D01*
X12959761Y-15582214D01*
X12940713Y-15572690D01*
X13150237Y-15553643D02*
X13150237Y-15686976D01*
X13102618Y-15477452D02*
X13054999Y-15620309D01*
X13178809Y-15620309D01*
X13245475Y-15486976D02*
X13245475Y-15525071D01*
X13321666Y-15486976D02*
X13321666Y-15525071D01*
X13616904Y-15763167D02*
X13607380Y-15753643D01*
X13588332Y-15725071D01*
X13578809Y-15706024D01*
X13569285Y-15677452D01*
X13559761Y-15629833D01*
X13559761Y-15591738D01*
X13569285Y-15544119D01*
X13578809Y-15515548D01*
X13588332Y-15496500D01*
X13607380Y-15467928D01*
X13616904Y-15458405D01*
X13683570Y-15506024D02*
X13693094Y-15496500D01*
X13712142Y-15486976D01*
X13759761Y-15486976D01*
X13778809Y-15496500D01*
X13788332Y-15506024D01*
X13797856Y-15525071D01*
X13797856Y-15544119D01*
X13788332Y-15572690D01*
X13674047Y-15686976D01*
X13797856Y-15686976D01*
X14035951Y-15686976D02*
X14035951Y-15486976D01*
X14121666Y-15686976D02*
X14121666Y-15582214D01*
X14112142Y-15563167D01*
X14093094Y-15553643D01*
X14064523Y-15553643D01*
X14045475Y-15563167D01*
X14035951Y-15572690D01*
X14245475Y-15686976D02*
X14226428Y-15677452D01*
X14216904Y-15667928D01*
X14207380Y-15648881D01*
X14207380Y-15591738D01*
X14216904Y-15572690D01*
X14226428Y-15563167D01*
X14245475Y-15553643D01*
X14274047Y-15553643D01*
X14293094Y-15563167D01*
X14302618Y-15572690D01*
X14312142Y-15591738D01*
X14312142Y-15648881D01*
X14302618Y-15667928D01*
X14293094Y-15677452D01*
X14274047Y-15686976D01*
X14245475Y-15686976D01*
X14426428Y-15686976D02*
X14407380Y-15677452D01*
X14397856Y-15658405D01*
X14397856Y-15486976D01*
X14578809Y-15677452D02*
X14559761Y-15686976D01*
X14521666Y-15686976D01*
X14502618Y-15677452D01*
X14493094Y-15658405D01*
X14493094Y-15582214D01*
X14502618Y-15563167D01*
X14521666Y-15553643D01*
X14559761Y-15553643D01*
X14578809Y-15563167D01*
X14588332Y-15582214D01*
X14588332Y-15601262D01*
X14493094Y-15620309D01*
X14664523Y-15677452D02*
X14683570Y-15686976D01*
X14721666Y-15686976D01*
X14740713Y-15677452D01*
X14750237Y-15658405D01*
X14750237Y-15648881D01*
X14740713Y-15629833D01*
X14721666Y-15620309D01*
X14693094Y-15620309D01*
X14674047Y-15610786D01*
X14664523Y-15591738D01*
X14664523Y-15582214D01*
X14674047Y-15563167D01*
X14693094Y-15553643D01*
X14721666Y-15553643D01*
X14740713Y-15563167D01*
X14816904Y-15763167D02*
X14826428Y-15753643D01*
X14845475Y-15725071D01*
X14854999Y-15706024D01*
X14864523Y-15677452D01*
X14874047Y-15629833D01*
X14874047Y-15591738D01*
X14864523Y-15544119D01*
X14854999Y-15515548D01*
X14845475Y-15496500D01*
X14826428Y-15467928D01*
X14816904Y-15458405D01*
X9944999Y-16016500D02*
X10044999Y-15916500D01*
X9944999Y-15816500D01*
X9844999Y-15916500D01*
X9944999Y-16016500D01*
X10015711Y-15987211D02*
X10015711Y-15845789D01*
X9874288Y-15845789D01*
X9874288Y-15987211D01*
X10015711Y-15987211D01*
X10283571Y-15806976D02*
X10407380Y-15806976D01*
X10340713Y-15883167D01*
X10369285Y-15883167D01*
X10388332Y-15892690D01*
X10397856Y-15902214D01*
X10407380Y-15921262D01*
X10407380Y-15968881D01*
X10397856Y-15987928D01*
X10388332Y-15997452D01*
X10369285Y-16006976D01*
X10312142Y-16006976D01*
X10293094Y-15997452D01*
X10283571Y-15987928D01*
X10493094Y-15987928D02*
X10502618Y-15997452D01*
X10493094Y-16006976D01*
X10483571Y-15997452D01*
X10493094Y-15987928D01*
X10493094Y-16006976D01*
X10578809Y-15826024D02*
X10588332Y-15816500D01*
X10607380Y-15806976D01*
X10654999Y-15806976D01*
X10674047Y-15816500D01*
X10683571Y-15826024D01*
X10693094Y-15845071D01*
X10693094Y-15864119D01*
X10683571Y-15892690D01*
X10569285Y-16006976D01*
X10693094Y-16006976D01*
X10816904Y-15806976D02*
X10835951Y-15806976D01*
X10854999Y-15816500D01*
X10864523Y-15826024D01*
X10874047Y-15845071D01*
X10883571Y-15883167D01*
X10883571Y-15930786D01*
X10874047Y-15968881D01*
X10864523Y-15987928D01*
X10854999Y-15997452D01*
X10835951Y-16006976D01*
X10816904Y-16006976D01*
X10797856Y-15997452D01*
X10788332Y-15987928D01*
X10778809Y-15968881D01*
X10769285Y-15930786D01*
X10769285Y-15883167D01*
X10778809Y-15845071D01*
X10788332Y-15826024D01*
X10797856Y-15816500D01*
X10816904Y-15806976D01*
X11007380Y-15806976D02*
X11026428Y-15806976D01*
X11045475Y-15816500D01*
X11054999Y-15826024D01*
X11064523Y-15845071D01*
X11074047Y-15883167D01*
X11074047Y-15930786D01*
X11064523Y-15968881D01*
X11054999Y-15987928D01*
X11045475Y-15997452D01*
X11026428Y-16006976D01*
X11007380Y-16006976D01*
X10988332Y-15997452D01*
X10978809Y-15987928D01*
X10969285Y-15968881D01*
X10959761Y-15930786D01*
X10959761Y-15883167D01*
X10969285Y-15845071D01*
X10978809Y-15826024D01*
X10988332Y-15816500D01*
X11007380Y-15806976D01*
X11159761Y-16006976D02*
X11159761Y-15873643D01*
X11159761Y-15892690D02*
X11169285Y-15883167D01*
X11188332Y-15873643D01*
X11216904Y-15873643D01*
X11235951Y-15883167D01*
X11245475Y-15902214D01*
X11245475Y-16006976D01*
X11245475Y-15902214D02*
X11254999Y-15883167D01*
X11274047Y-15873643D01*
X11302618Y-15873643D01*
X11321666Y-15883167D01*
X11331189Y-15902214D01*
X11331189Y-16006976D01*
X11426428Y-16006976D02*
X11426428Y-15873643D01*
X11426428Y-15892690D02*
X11435951Y-15883167D01*
X11454999Y-15873643D01*
X11483570Y-15873643D01*
X11502618Y-15883167D01*
X11512142Y-15902214D01*
X11512142Y-16006976D01*
X11512142Y-15902214D02*
X11521666Y-15883167D01*
X11540713Y-15873643D01*
X11569285Y-15873643D01*
X11588332Y-15883167D01*
X11597856Y-15902214D01*
X11597856Y-16006976D01*
X11988332Y-15797452D02*
X11816904Y-16054595D01*
X12245475Y-15806976D02*
X12264523Y-15806976D01*
X12283570Y-15816500D01*
X12293094Y-15826024D01*
X12302618Y-15845071D01*
X12312142Y-15883167D01*
X12312142Y-15930786D01*
X12302618Y-15968881D01*
X12293094Y-15987928D01*
X12283570Y-15997452D01*
X12264523Y-16006976D01*
X12245475Y-16006976D01*
X12226428Y-15997452D01*
X12216904Y-15987928D01*
X12207380Y-15968881D01*
X12197856Y-15930786D01*
X12197856Y-15883167D01*
X12207380Y-15845071D01*
X12216904Y-15826024D01*
X12226428Y-15816500D01*
X12245475Y-15806976D01*
X12397856Y-15987928D02*
X12407380Y-15997452D01*
X12397856Y-16006976D01*
X12388332Y-15997452D01*
X12397856Y-15987928D01*
X12397856Y-16006976D01*
X12597856Y-16006976D02*
X12483570Y-16006976D01*
X12540713Y-16006976D02*
X12540713Y-15806976D01*
X12521666Y-15835548D01*
X12502618Y-15854595D01*
X12483570Y-15864119D01*
X12674047Y-15826024D02*
X12683570Y-15816500D01*
X12702618Y-15806976D01*
X12750237Y-15806976D01*
X12769285Y-15816500D01*
X12778809Y-15826024D01*
X12788332Y-15845071D01*
X12788332Y-15864119D01*
X12778809Y-15892690D01*
X12664523Y-16006976D01*
X12788332Y-16006976D01*
X12959761Y-15806976D02*
X12921666Y-15806976D01*
X12902618Y-15816500D01*
X12893094Y-15826024D01*
X12874047Y-15854595D01*
X12864523Y-15892690D01*
X12864523Y-15968881D01*
X12874047Y-15987928D01*
X12883570Y-15997452D01*
X12902618Y-16006976D01*
X12940713Y-16006976D01*
X12959761Y-15997452D01*
X12969285Y-15987928D01*
X12978809Y-15968881D01*
X12978809Y-15921262D01*
X12969285Y-15902214D01*
X12959761Y-15892690D01*
X12940713Y-15883167D01*
X12902618Y-15883167D01*
X12883570Y-15892690D01*
X12874047Y-15902214D01*
X12864523Y-15921262D01*
X13102618Y-15806976D02*
X13121666Y-15806976D01*
X13140713Y-15816500D01*
X13150237Y-15826024D01*
X13159761Y-15845071D01*
X13169285Y-15883167D01*
X13169285Y-15930786D01*
X13159761Y-15968881D01*
X13150237Y-15987928D01*
X13140713Y-15997452D01*
X13121666Y-16006976D01*
X13102618Y-16006976D01*
X13083570Y-15997452D01*
X13074047Y-15987928D01*
X13064523Y-15968881D01*
X13054999Y-15930786D01*
X13054999Y-15883167D01*
X13064523Y-15845071D01*
X13074047Y-15826024D01*
X13083570Y-15816500D01*
X13102618Y-15806976D01*
X13245475Y-15806976D02*
X13245475Y-15845071D01*
X13321666Y-15806976D02*
X13321666Y-15845071D01*
X13616904Y-16083167D02*
X13607380Y-16073643D01*
X13588332Y-16045071D01*
X13578809Y-16026024D01*
X13569285Y-15997452D01*
X13559761Y-15949833D01*
X13559761Y-15911738D01*
X13569285Y-15864119D01*
X13578809Y-15835548D01*
X13588332Y-15816500D01*
X13607380Y-15787928D01*
X13616904Y-15778405D01*
X13778809Y-15873643D02*
X13778809Y-16006976D01*
X13731189Y-15797452D02*
X13683570Y-15940309D01*
X13807380Y-15940309D01*
X14035951Y-16006976D02*
X14035951Y-15806976D01*
X14121666Y-16006976D02*
X14121666Y-15902214D01*
X14112142Y-15883167D01*
X14093094Y-15873643D01*
X14064523Y-15873643D01*
X14045475Y-15883167D01*
X14035951Y-15892690D01*
X14245475Y-16006976D02*
X14226428Y-15997452D01*
X14216904Y-15987928D01*
X14207380Y-15968881D01*
X14207380Y-15911738D01*
X14216904Y-15892690D01*
X14226428Y-15883167D01*
X14245475Y-15873643D01*
X14274047Y-15873643D01*
X14293094Y-15883167D01*
X14302618Y-15892690D01*
X14312142Y-15911738D01*
X14312142Y-15968881D01*
X14302618Y-15987928D01*
X14293094Y-15997452D01*
X14274047Y-16006976D01*
X14245475Y-16006976D01*
X14426428Y-16006976D02*
X14407380Y-15997452D01*
X14397856Y-15978405D01*
X14397856Y-15806976D01*
X14578809Y-15997452D02*
X14559761Y-16006976D01*
X14521666Y-16006976D01*
X14502618Y-15997452D01*
X14493094Y-15978405D01*
X14493094Y-15902214D01*
X14502618Y-15883167D01*
X14521666Y-15873643D01*
X14559761Y-15873643D01*
X14578809Y-15883167D01*
X14588332Y-15902214D01*
X14588332Y-15921262D01*
X14493094Y-15940309D01*
X14664523Y-15997452D02*
X14683570Y-16006976D01*
X14721666Y-16006976D01*
X14740713Y-15997452D01*
X14750237Y-15978405D01*
X14750237Y-15968881D01*
X14740713Y-15949833D01*
X14721666Y-15940309D01*
X14693094Y-15940309D01*
X14674047Y-15930786D01*
X14664523Y-15911738D01*
X14664523Y-15902214D01*
X14674047Y-15883167D01*
X14693094Y-15873643D01*
X14721666Y-15873643D01*
X14740713Y-15883167D01*
X14816904Y-16083167D02*
X14826428Y-16073643D01*
X14845475Y-16045071D01*
X14854999Y-16026024D01*
X14864523Y-15997452D01*
X14874047Y-15949833D01*
X14874047Y-15911738D01*
X14864523Y-15864119D01*
X14854999Y-15835548D01*
X14845475Y-15816500D01*
X14826428Y-15787928D01*
X14816904Y-15778405D01*
M02*
