M48
; DRILL file {KiCad (6.0.11)} date Tue Mar 19 14:29:23 2024
; FORMAT={-:-/ absolute / inch / decimal}
; #@! TF.CreationDate,2024-03-19T14:29:23-04:00
; #@! TF.GenerationSoftware,Kicad,Pcbnew,(6.0.11)
; #@! TF.FileFunction,Plated,1,4,PTH
FMAT,2
INCH
; #@! TA.AperFunction,Plated,PTH,ComponentDrill
T1C0.0079
; #@! TA.AperFunction,Plated,PTH,ComponentDrill
T2C0.0098
; #@! TA.AperFunction,Plated,PTH,ViaDrill
T3C0.0118
; #@! TA.AperFunction,Plated,PTH,ViaDrill
T4C0.0157
; #@! TA.AperFunction,Plated,PTH,ComponentDrill
T5C0.0236
; #@! TA.AperFunction,Plated,PTH,ComponentDrill
T6C0.0295
; #@! TA.AperFunction,Plated,PTH,ComponentDrill
T7C0.0315
; #@! TA.AperFunction,Plated,PTH,ComponentDrill
T8C0.0335
; #@! TA.AperFunction,Plated,PTH,ComponentDrill
T9C0.0394
; #@! TA.AperFunction,Plated,PTH,ComponentDrill
T10C0.0433
; #@! TA.AperFunction,Plated,PTH,ComponentDrill
T11C0.0472
; #@! TA.AperFunction,Plated,PTH,ComponentDrill
T12C0.0787
; #@! TA.AperFunction,Plated,PTH,ComponentDrill
T13C0.0906
; #@! TA.AperFunction,Plated,PTH,ComponentDrill
T14C0.0984
; #@! TA.AperFunction,Plated,PTH,ComponentDrill
T15C0.1260
%
G90
G05
T1
X4.6304Y-3.1013
X4.6442Y-3.0718
X4.6442Y-3.1309
X4.658Y-3.1013
T2
X7.2094Y-2.4919
X7.2094Y-2.547
X7.237Y-2.4644
X7.237Y-2.5195
X7.237Y-2.5746
X7.2646Y-2.4919
X7.2646Y-2.547
X7.2921Y-2.4644
X7.2921Y-2.5195
X7.2921Y-2.5746
X7.3197Y-2.4919
X7.3197Y-2.547
T3
X4.3069Y-2.5962
X4.3217Y-2.8972
X4.322Y-2.9358
X4.322Y-2.9752
X4.322Y-3.0181
X4.3224Y-3.0567
X4.3224Y-3.0961
X4.3224Y-3.1354
X4.3224Y-3.1728
X4.3224Y-3.215
X4.3224Y-3.2543
X4.3224Y-3.2917
X4.361Y-2.8972
X4.3614Y-2.9358
X4.3614Y-2.9752
X4.3614Y-3.0181
X4.3618Y-3.0567
X4.3618Y-3.0961
X4.3618Y-3.1354
X4.3618Y-3.1728
X4.3618Y-3.215
X4.3618Y-3.2543
X4.3618Y-3.2917
X4.4211Y-2.5074
X4.463Y-4.3433
X4.4661Y-4.0945
X4.4831Y-2.3127
X4.5579Y-2.4754
X4.587Y-2.8681
X4.587Y-2.9075
X4.5939Y-3.1903
X4.6167Y-2.9604
X4.6171Y-3.0061
X4.6256Y-2.8677
X4.6256Y-2.9071
X4.6422Y-3.1903
X4.6426Y-3.2403
X4.665Y-2.8677
X4.665Y-2.9071
X4.673Y-3.0065
X4.6734Y-2.9596
X4.6896Y-3.1903
X4.7079Y-2.8677
X4.7079Y-2.9071
X4.7547Y-2.6049
X4.8226Y-4.2112
X4.8712Y-2.6065
X4.9846Y-2.3504
X5.0403Y-2.3504
X5.096Y-2.3504
X5.1312Y-2.6181
X5.1489Y-3.8684
X5.1517Y-2.3504
X5.1612Y-3.4343
X5.1634Y-3.6793
X5.1869Y-2.6181
X5.2073Y-2.3504
X5.2317Y-3.6765
X5.2425Y-2.6181
X5.2587Y-2.865
X5.2587Y-2.9043
X5.2587Y-2.9472
X5.2591Y-2.9858
X5.2591Y-3.0252
X5.2591Y-3.0646
X5.2591Y-3.102
X5.2591Y-3.1441
X5.263Y-2.3504
X5.2809Y-3.8023
X5.298Y-2.865
X5.298Y-2.9043
X5.298Y-2.9472
X5.2982Y-2.6181
X5.2984Y-2.9858
X5.2984Y-3.0252
X5.2984Y-3.0646
X5.2984Y-3.102
X5.2984Y-3.1441
X5.3187Y-2.3504
X5.3539Y-2.6181
X5.3743Y-2.3504
X5.4095Y-2.6181
X5.43Y-2.3504
X5.4454Y-4.209
X5.4652Y-2.6181
X5.4857Y-2.3504
X5.5209Y-2.6181
X5.5413Y-2.3504
X5.5765Y-2.6181
X5.5955Y-1.9882
X5.6322Y-2.6181
X5.6583Y-3.2965
X5.6772Y-2.8449
X5.6804Y-2.8804
X5.6832Y-2.8097
X5.6879Y-2.6181
X5.6927Y-2.9139
X5.6976Y-3.2571
X5.6982Y-2.7773
X5.7133Y-2.9431
X5.7211Y-2.7499
X5.737Y-3.2177
X5.7407Y-2.9659
X5.7435Y-2.6181
X5.7493Y-2.2828
X5.7502Y-2.7293
X5.7731Y-2.9809
X5.7764Y-3.1783
X5.7837Y-2.717
X5.7992Y-2.6181
X5.8083Y-2.987
X5.8157Y-3.139
X5.8193Y-2.7138
X5.8239Y-2.2775
X5.8297Y-1.9969
X5.8315Y-3.5016
X5.8438Y-2.9838
X5.8486Y-1.9776
X5.8545Y-2.7199
X5.8551Y-3.0996
X5.8707Y-1.8261
X5.8709Y-3.4622
X5.8773Y-2.9715
X5.8869Y-2.7348
X5.89Y-1.9789
X5.8945Y-3.0602
X5.9065Y-2.9509
X5.9102Y-3.4228
X5.9143Y-2.7577
X5.9154Y-4.3701
X5.9263Y-2.2276
X5.9293Y-2.9235
X5.9339Y-3.0209
X5.9348Y-2.7869
X5.9443Y-2.8911
X5.9472Y-2.8204
X5.9496Y-3.3835
X5.9504Y-2.8559
X5.9732Y-2.9815
X5.9789Y-2.1465
X5.9867Y-4.0923
X5.989Y-3.3441
X6.0065Y-2.1457
X6.0126Y-2.9421
X6.0283Y-3.3047
X6.0404Y-2.2768
X6.052Y-2.9028
X6.0543Y-3.4429
X6.0547Y-3.4854
X6.0547Y-3.5236
X6.0547Y-3.5642
X6.0551Y-3.6059
X6.0616Y-2.3053
X6.0677Y-3.2654
X6.0678Y-2.2779
X6.0906Y-2.6317
X6.0913Y-2.8634
X6.1008Y-1.9195
X6.1071Y-3.226
X6.1307Y-2.824
X6.1354Y-3.4425
X6.1354Y-3.5634
X6.1358Y-3.4846
X6.1358Y-3.5236
X6.1366Y-3.6051
X6.1465Y-3.187
X6.1701Y-2.7846
X6.1858Y-3.1476
X6.2094Y-2.7453
X6.2321Y-3.2378
X6.3958Y-3.514
X6.6079Y-3.7441
X6.6548Y-3.5086
X6.6685Y-3.1236
X6.7837Y-2.1154
X6.7968Y-2.7616
X6.8094Y-2.2494
X6.8772Y-3.6698
X6.8946Y-2.7358
X6.9567Y-2.6898
X6.9697Y-2.1933
X6.9756Y-2.6496
X6.9862Y-3.6098
X6.9862Y-3.648
X6.9862Y-3.6886
X7.0012Y-1.861
X7.0229Y-3.5135
X7.0413Y-1.8602
X7.0621Y-3.5488
X7.0669Y-3.6878
X7.0673Y-3.6091
X7.0673Y-3.648
X7.0818Y-2.6471
X7.0858Y-1.861
X7.0984Y-1.9295
X7.0996Y-3.5094
X7.1079Y-1.8937
X7.1356Y-2.2083
X7.1409Y-2.637
X7.1622Y-3.0148
X7.2559Y-2.1886
X7.2785Y-3.7052
X7.2794Y-2.0207
X7.3556Y-2.1924
X7.3827Y-1.9772
X7.4236Y-4.0476
X7.424Y-3.939
X7.4246Y-3.8239
X7.4661Y-2.5721
X7.4934Y-2.0095
X7.506Y-2.1967
X7.5979Y-3.7907
X7.5991Y-4.0148
X7.5999Y-3.9309
T4
X4.2539Y-4.1998
X4.2587Y-4.3819
X4.3232Y-2.5626
X4.3602Y-4.3504
X4.3648Y-4.0866
X4.4059Y-3.2858
X4.4096Y-2.9628
X4.4256Y-4.3431
X4.4304Y-4.0836
X4.4575Y-2.4793
X4.4679Y-2.9651
X4.5205Y-2.3118
X4.5205Y-2.4793
X4.5254Y-2.9671
X4.5309Y-3.2761
X4.5652Y-3.16
X4.6772Y-2.3118
X4.6782Y-2.4793
X4.7547Y-2.4807
X4.7579Y-2.3106
X4.7599Y-3.138
X4.7662Y-2.9694
X4.7784Y-3.1864
X4.792Y-2.6044
X4.7967Y-3.4799
X4.8241Y-2.9679
X4.8336Y-2.6059
X4.8598Y-4.2085
X4.8825Y-2.9683
X4.9064Y-3.138
X4.9248Y-4.2039
X4.9311Y-3.5374
X5.1Y-3.8366
X5.1033Y-3.6078
X5.1172Y-3.4711
X5.1262Y-3.6764
X5.1441Y-3.6143
X5.1455Y-3.9464
X5.1467Y-3.8309
X5.1787Y-3.7134
X5.1861Y-4.2963
X5.2032Y-3.6523
X5.2077Y-3.8294
X5.2291Y-3.7138
X5.235Y-3.8693
X5.2543Y-3.8299
X5.2706Y-3.707
X5.3144Y-3.6411
X5.3366Y-2.2665
X5.4089Y-3.5961
X5.4106Y-3.5374
X5.4598Y-3.5327
X5.4828Y-4.2091
X5.5154Y-2.1175
X5.5159Y-2.172
X5.5438Y-4.2121
X5.6215Y-2.0126
X5.6313Y-1.9122
X5.6588Y-2.1539
X5.6606Y-2.1156
X5.6789Y-1.9862
X5.7191Y-1.9961
X5.7865Y-2.2795
X5.7886Y-4.2963
X5.8037Y-2.1204
X5.8472Y-2.615
X5.8612Y-2.2765
X5.8791Y-4.3461
X5.8841Y-4.0947
X5.8979Y-2.2033
X5.9124Y-1.9996
X5.9372Y-2.1346
X5.9454Y-4.3411
X5.947Y-1.9829
X5.9494Y-4.0894
X5.9939Y-1.863
X6.0081Y-2.183
X6.0463Y-2.0307
X6.0549Y-2.2421
X6.0947Y-2.3244
X6.0955Y-1.9627
X6.0974Y-1.8567
X6.1046Y-2.2843
X6.124Y-2.615
X6.1429Y-1.8681
X6.1459Y-2.2861
X6.1469Y-3.7384
X6.1736Y-3.8703
X6.2014Y-1.8703
X6.2315Y-3.4094
X6.2331Y-3.2752
X6.2349Y-3.1641
X6.248Y-2.7126
X6.2937Y-2.0776
X6.3751Y-3.2387
X6.3971Y-3.5514
X6.4157Y-2.0768
X6.4372Y-3.5209
X6.4372Y-3.1961
X6.4996Y-2.928
X6.5024Y-3.2364
X6.6445Y-3.236
X6.6457Y-3.011
X6.6469Y-3.2953
X6.6471Y-3.7389
X6.6531Y-2.9594
X6.6535Y-3.4713
X6.6559Y-3.1591
X6.7224Y-3.3607
X6.7409Y-2.9976
X6.7596Y-2.7577
X6.7778Y-3.7392
X6.7905Y-2.2867
X6.8035Y-3.8707
X6.8077Y-2.0856
X6.839Y-3.676
X6.8558Y-2.7557
X6.8703Y-3.7065
X6.8783Y-3.0087
X6.8811Y-3.5148
X6.9181Y-4.1535
X6.9209Y-3.0091
X6.9222Y-3.8726
X6.9315Y-2.7299
X6.9371Y-2.6497
X6.9445Y-3.2366
X6.9743Y-2.7227
X7.0044Y-2.675
X7.0126Y-2.1905
X7.0185Y-1.9268
X7.0248Y-3.5508
X7.0412Y-2.6941
X7.0444Y-2.6485
X7.0469Y-4.1453
X7.0484Y-3.8646
X7.0685Y-1.8953
X7.0795Y-2.8618
X7.0913Y-3.2382
X7.0929Y-3.2961
X7.0996Y-3.472
X7.1022Y-2.7504
X7.1352Y-2.9973
X7.1685Y-2.1906
X7.1933Y-2.9941
X7.2185Y-2.1886
X7.2457Y-3.0618
X7.2657Y-2.9532
X7.278Y-3.7426
X7.2929Y-2.6575
X7.3002Y-2.7402
X7.3061Y-1.9946
X7.3136Y-2.6954
X7.3182Y-2.1934
X7.3256Y-3.9583
X7.3272Y-4.0689
X7.3299Y-3.8544
X7.3299Y-2.6575
X7.3386Y-2.9917
X7.3443Y-1.9788
X7.3988Y-2.9894
X7.41Y-2.698
X7.4197Y-2.6579
X7.4311Y-4.0803
X7.4335Y-3.8602
X7.4343Y-3.9724
X7.459Y-2.9879
X7.4661Y-2.6094
X7.4687Y-2.1979
X7.4953Y-2.0469
X7.5192Y-2.9881
X7.5605Y-3.7904
X7.5617Y-4.0154
X7.5626Y-3.9327
X7.5672Y-2.9015
X7.5685Y-2.0587
X7.5687Y-2.1719
X7.5687Y-2.753
X7.5689Y-2.8602
T6
X6.3268Y-1.9429
X6.4055Y-1.9429
X6.4843Y-1.9429
X6.6728Y-4.272
X6.7516Y-4.272
X7.4004Y-3.1882
X7.4004Y-3.4047
X7.4791Y-3.1882
X7.4791Y-3.4047
T7
X4.1154Y-3.861
X4.1154Y-3.861
X4.1154Y-3.9398
X4.1154Y-3.9398
X4.1154Y-4.0185
X4.1154Y-4.0185
X4.1941Y-3.861
X4.1941Y-3.861
X4.1941Y-3.9398
X4.1941Y-3.9398
X4.1941Y-4.0185
X4.1941Y-4.0185
T8
X5.712Y-1.8733
X5.9089Y-1.8733
T9
X4.2523Y-2.1891
X4.2523Y-2.2891
X4.2523Y-2.3891
X4.2523Y-2.4891
X4.2523Y-2.5891
X4.2523Y-2.6891
X4.2523Y-2.7889
X4.2523Y-2.8889
X4.2523Y-2.9889
X4.2523Y-3.0889
X4.2523Y-3.1889
X4.2523Y-3.2889
X4.2523Y-3.3889
X4.2524Y-2.0891
X4.3769Y-3.3774
X4.4769Y-3.3774
X4.5769Y-3.3774
X4.6769Y-3.3774
X4.7769Y-3.3774
X4.8769Y-3.3774
X4.9769Y-3.3774
X5.0769Y-3.3774
X6.2986Y-3.7864
X6.3971Y-3.7864
X6.4955Y-3.7864
X6.9286Y-3.7871
X7.027Y-3.7871
X7.1254Y-3.7871
T11
X4.1547Y-3.7508
X4.1547Y-4.1287
X4.4732Y-2.7028
X4.5732Y-2.7028
X4.7831Y-3.8025
X4.7831Y-4.3733
X4.8815Y-4.3733
X4.9799Y-3.8025
X4.9799Y-4.3733
X5.3831Y-3.8024
X5.3831Y-4.3732
X5.4815Y-4.3732
X5.5799Y-3.8024
X5.5799Y-4.3732
T13
X5.2869Y-2.7438
X5.2869Y-3.2611
T14
X4.0769Y-2.6775
X4.0769Y-3.3275
T15
X4.1551Y-4.2937
X4.1551Y-1.8716
X7.4394Y-1.873
X7.4394Y-4.2897
T5
G00X5.6726Y-1.7808
M15
G01X5.6726Y-1.7532
M16
G05
G00X5.9482Y-1.7532
M15
G01X5.9482Y-1.7808
M16
G05
T10
G00X6.2081Y-4.0679
M15
G01X6.2081Y-4.0955
M16
G05
G00X6.586Y-4.0679
M15
G01X6.586Y-4.0955
M16
G05
G00X6.838Y-4.0686
M15
G01X6.838Y-4.0962
M16
G05
G00X7.216Y-4.0686
M15
G01X7.216Y-4.0962
M16
G05
T12
G00X4.661Y-4.0761
M15
G01X4.661Y-4.08
M16
G05
G00X5.102Y-4.0761
M15
G01X5.102Y-4.08
M16
G05
G00X5.261Y-4.076
M15
G01X5.261Y-4.0799
M16
G05
G00X5.702Y-4.076
M15
G01X5.702Y-4.0799
M16
G05
T0
M30
