%TF.GenerationSoftware,KiCad,Pcbnew,(6.0.11)*%
%TF.CreationDate,2024-03-19T14:29:21-04:00*%
%TF.ProjectId,Ultrasonic Sound Steering - Remote Rev. B,556c7472-6173-46f6-9e69-6320536f756e,rev?*%
%TF.SameCoordinates,Original*%
%TF.FileFunction,Paste,Top*%
%TF.FilePolarity,Positive*%
%FSLAX46Y46*%
G04 Gerber Fmt 4.6, Leading zero omitted, Abs format (unit mm)*
G04 Created by KiCad (PCBNEW (6.0.11)) date 2024-03-19 14:29:21*
%MOMM*%
%LPD*%
G01*
G04 APERTURE LIST*
G04 Aperture macros list*
%AMRoundRect*
0 Rectangle with rounded corners*
0 $1 Rounding radius*
0 $2 $3 $4 $5 $6 $7 $8 $9 X,Y pos of 4 corners*
0 Add a 4 corners polygon primitive as box body*
4,1,4,$2,$3,$4,$5,$6,$7,$8,$9,$2,$3,0*
0 Add four circle primitives for the rounded corners*
1,1,$1+$1,$2,$3*
1,1,$1+$1,$4,$5*
1,1,$1+$1,$6,$7*
1,1,$1+$1,$8,$9*
0 Add four rect primitives between the rounded corners*
20,1,$1+$1,$2,$3,$4,$5,0*
20,1,$1+$1,$4,$5,$6,$7,0*
20,1,$1+$1,$6,$7,$8,$9,0*
20,1,$1+$1,$8,$9,$2,$3,0*%
G04 Aperture macros list end*
%ADD10C,0.010000*%
%ADD11RoundRect,0.225000X-0.250000X0.225000X-0.250000X-0.225000X0.250000X-0.225000X0.250000X0.225000X0*%
%ADD12RoundRect,0.200000X0.200000X0.275000X-0.200000X0.275000X-0.200000X-0.275000X0.200000X-0.275000X0*%
%ADD13R,2.180400X2.210000*%
%ADD14RoundRect,0.200000X-0.200000X-0.275000X0.200000X-0.275000X0.200000X0.275000X-0.200000X0.275000X0*%
%ADD15R,0.600000X0.700000*%
%ADD16R,3.048000X2.286000*%
%ADD17R,1.100000X1.100000*%
%ADD18RoundRect,0.200000X-0.275000X0.200000X-0.275000X-0.200000X0.275000X-0.200000X0.275000X0.200000X0*%
%ADD19RoundRect,0.225000X0.250000X-0.225000X0.250000X0.225000X-0.250000X0.225000X-0.250000X-0.225000X0*%
%ADD20RoundRect,0.225000X0.225000X0.250000X-0.225000X0.250000X-0.225000X-0.250000X0.225000X-0.250000X0*%
%ADD21RoundRect,0.250000X-0.375000X-0.625000X0.375000X-0.625000X0.375000X0.625000X-0.375000X0.625000X0*%
%ADD22RoundRect,0.008100X-0.411900X-0.126900X0.411900X-0.126900X0.411900X0.126900X-0.411900X0.126900X0*%
%ADD23RoundRect,0.200000X0.275000X-0.200000X0.275000X0.200000X-0.275000X0.200000X-0.275000X-0.200000X0*%
%ADD24R,0.900000X1.200000*%
G04 APERTURE END LIST*
%TO.C,U1*%
G36*
X118341152Y-79406462D02*
G01*
X117583152Y-79406462D01*
X117583152Y-78141462D01*
X118341152Y-78141462D01*
X118341152Y-79406462D01*
G37*
D10*
X118341152Y-79406462D02*
X117583152Y-79406462D01*
X117583152Y-78141462D01*
X118341152Y-78141462D01*
X118341152Y-79406462D01*
%TD*%
D11*
%TO.C,C3*%
X121052152Y-76398962D03*
X121052152Y-77948962D03*
%TD*%
%TO.C,C21*%
X110865000Y-101300000D03*
X110865000Y-102850000D03*
%TD*%
D12*
%TO.C,R64*%
X168835400Y-96247082D03*
X167185400Y-96247082D03*
%TD*%
D13*
%TO.C,D2*%
X125822800Y-68610000D03*
X129537200Y-68610000D03*
%TD*%
D11*
%TO.C,C17*%
X149335000Y-107680000D03*
X149335000Y-109230000D03*
%TD*%
D14*
%TO.C,R54*%
X112410000Y-109245000D03*
X114060000Y-109245000D03*
%TD*%
D15*
%TO.C,D7*%
X163700000Y-53150000D03*
X165100000Y-53150000D03*
%TD*%
D14*
%TO.C,R33*%
X151115000Y-102780000D03*
X152765000Y-102780000D03*
%TD*%
D12*
%TO.C,R45*%
X177045000Y-54040000D03*
X175395000Y-54040000D03*
%TD*%
D11*
%TO.C,C42*%
X189730000Y-67510000D03*
X189730000Y-69060000D03*
%TD*%
D12*
%TO.C,R74*%
X184835400Y-96275000D03*
X183185400Y-96275000D03*
%TD*%
D16*
%TO.C,F1*%
X126970000Y-72450000D03*
X126970000Y-77530000D03*
%TD*%
D12*
%TO.C,R47*%
X179935000Y-57770000D03*
X178285000Y-57770000D03*
%TD*%
%TO.C,R46*%
X171015000Y-57770000D03*
X169365000Y-57770000D03*
%TD*%
D11*
%TO.C,C8*%
X113464970Y-76413962D03*
X113464970Y-77963962D03*
%TD*%
D15*
%TO.C,D9*%
X160610000Y-53140000D03*
X162010000Y-53140000D03*
%TD*%
D14*
%TO.C,R34*%
X151010000Y-107705000D03*
X152660000Y-107705000D03*
%TD*%
D17*
%TO.C,D16*%
X111230000Y-99350000D03*
X114030000Y-99350000D03*
%TD*%
D12*
%TO.C,R48*%
X186065000Y-54040000D03*
X184415000Y-54040000D03*
%TD*%
D18*
%TO.C,R63*%
X110500000Y-69395000D03*
X110500000Y-71045000D03*
%TD*%
D14*
%TO.C,R42*%
X180980000Y-68985000D03*
X182630000Y-68985000D03*
X184280000Y-68985000D03*
%TD*%
D17*
%TO.C,D13*%
X149710000Y-105730000D03*
X152510000Y-105730000D03*
%TD*%
D12*
%TO.C,R75*%
X173795400Y-96275000D03*
X172145400Y-96275000D03*
%TD*%
D19*
%TO.C,C5*%
X122532152Y-80903962D03*
X122532152Y-79353962D03*
%TD*%
D14*
%TO.C,R8*%
X111909970Y-82373962D03*
X113559970Y-82373962D03*
%TD*%
D17*
%TO.C,D12*%
X149815000Y-99330000D03*
X152615000Y-99330000D03*
%TD*%
D20*
%TO.C,C37*%
X184225000Y-67525000D03*
X182675000Y-67525000D03*
%TD*%
D14*
%TO.C,R37*%
X151012500Y-109180000D03*
X152662500Y-109180000D03*
%TD*%
D11*
%TO.C,C2*%
X123984970Y-76398962D03*
X123984970Y-77948962D03*
%TD*%
%TO.C,C4*%
X122522152Y-76398962D03*
X122522152Y-77948962D03*
%TD*%
D14*
%TO.C,R59*%
X112530000Y-102825000D03*
X114180000Y-102825000D03*
%TD*%
D21*
%TO.C,D10*%
X187430000Y-101040000D03*
X190230000Y-101040000D03*
%TD*%
D14*
%TO.C,R52*%
X112410000Y-107770000D03*
X114060000Y-107770000D03*
%TD*%
D17*
%TO.C,D15*%
X111117500Y-105770000D03*
X113917500Y-105770000D03*
%TD*%
D19*
%TO.C,C6*%
X112004970Y-80933962D03*
X112004970Y-79383962D03*
%TD*%
D12*
%TO.C,PTC2*%
X161925000Y-51640000D03*
X160275000Y-51640000D03*
%TD*%
D11*
%TO.C,C9*%
X112004970Y-76413962D03*
X112004970Y-77963962D03*
%TD*%
%TO.C,C15*%
X149455000Y-101280000D03*
X149455000Y-102830000D03*
%TD*%
D22*
%TO.C,U1*%
X116767152Y-77773962D03*
X116767152Y-78273962D03*
X116767152Y-78773962D03*
X116767152Y-79273962D03*
X116767152Y-79773962D03*
X119157152Y-79773962D03*
X119157152Y-79273962D03*
X119157152Y-78773962D03*
X119157152Y-78273962D03*
X119157152Y-77773962D03*
%TD*%
D13*
%TO.C,D1*%
X122950400Y-68610000D03*
X119236000Y-68610000D03*
%TD*%
D21*
%TO.C,D4*%
X187430000Y-98240000D03*
X190230000Y-98240000D03*
%TD*%
D11*
%TO.C,C20*%
X110770000Y-107745000D03*
X110770000Y-109295000D03*
%TD*%
D14*
%TO.C,R32*%
X151115000Y-101305000D03*
X152765000Y-101305000D03*
%TD*%
D11*
%TO.C,C7*%
X114924970Y-76413962D03*
X114924970Y-77963962D03*
%TD*%
D12*
%TO.C,R65*%
X157780400Y-96250000D03*
X156130400Y-96250000D03*
%TD*%
%TO.C,PTC1*%
X165005000Y-51650000D03*
X163355000Y-51650000D03*
%TD*%
D14*
%TO.C,R56*%
X112530000Y-101350000D03*
X114180000Y-101350000D03*
%TD*%
D11*
%TO.C,C36*%
X187140000Y-67500000D03*
X187140000Y-69050000D03*
%TD*%
D21*
%TO.C,D11*%
X187430000Y-103840000D03*
X190230000Y-103840000D03*
%TD*%
D23*
%TO.C,R7*%
X113484970Y-80983962D03*
X113484970Y-79333962D03*
%TD*%
D24*
%TO.C,D3*%
X119462152Y-83003962D03*
X116162152Y-83003962D03*
%TD*%
M02*
