%TF.GenerationSoftware,KiCad,Pcbnew,(6.0.11)*%
%TF.CreationDate,2024-03-19T14:29:21-04:00*%
%TF.ProjectId,Ultrasonic Sound Steering - Remote Rev. B,556c7472-6173-46f6-9e69-6320536f756e,rev?*%
%TF.SameCoordinates,Original*%
%TF.FileFunction,Soldermask,Bot*%
%TF.FilePolarity,Negative*%
%FSLAX46Y46*%
G04 Gerber Fmt 4.6, Leading zero omitted, Abs format (unit mm)*
G04 Created by KiCad (PCBNEW (6.0.11)) date 2024-03-19 14:29:21*
%MOMM*%
%LPD*%
G01*
G04 APERTURE LIST*
G04 Aperture macros list*
%AMRoundRect*
0 Rectangle with rounded corners*
0 $1 Rounding radius*
0 $2 $3 $4 $5 $6 $7 $8 $9 X,Y pos of 4 corners*
0 Add a 4 corners polygon primitive as box body*
4,1,4,$2,$3,$4,$5,$6,$7,$8,$9,$2,$3,0*
0 Add four circle primitives for the rounded corners*
1,1,$1+$1,$2,$3*
1,1,$1+$1,$4,$5*
1,1,$1+$1,$6,$7*
1,1,$1+$1,$8,$9*
0 Add four rect primitives between the rounded corners*
20,1,$1+$1,$2,$3,$4,$5,0*
20,1,$1+$1,$4,$5,$6,$7,0*
20,1,$1+$1,$6,$7,$8,$9,0*
20,1,$1+$1,$8,$9,$2,$3,0*%
G04 Aperture macros list end*
%ADD10RoundRect,0.102000X0.654000X-0.654000X0.654000X0.654000X-0.654000X0.654000X-0.654000X-0.654000X0*%
%ADD11C,1.512000*%
%ADD12RoundRect,0.102000X-0.900000X-0.900000X0.900000X-0.900000X0.900000X0.900000X-0.900000X0.900000X0*%
%ADD13C,2.004000*%
%ADD14O,3.204000X6.204000*%
%ADD15RoundRect,0.102000X-0.654000X0.654000X-0.654000X-0.654000X0.654000X-0.654000X0.654000X0.654000X0*%
%ADD16C,5.600000*%
%ADD17C,3.600000*%
%ADD18C,3.200000*%
%ADD19R,1.700000X1.700000*%
%ADD20C,1.700000*%
%ADD21R,1.800000X1.800000*%
%ADD22C,1.800000*%
%ADD23O,2.720000X3.240000*%
%ADD24R,0.600000X0.700000*%
%ADD25RoundRect,0.200000X-0.275000X0.200000X-0.275000X-0.200000X0.275000X-0.200000X0.275000X0.200000X0*%
%ADD26RoundRect,0.200000X0.275000X-0.200000X0.275000X0.200000X-0.275000X0.200000X-0.275000X-0.200000X0*%
%ADD27R,1.600200X0.863600*%
%ADD28RoundRect,0.200000X0.200000X0.275000X-0.200000X0.275000X-0.200000X-0.275000X0.200000X-0.275000X0*%
%ADD29O,1.700000X1.700000*%
%ADD30C,3.301600*%
%ADD31C,3.001600*%
%ADD32RoundRect,0.200000X-0.200000X-0.275000X0.200000X-0.275000X0.200000X0.275000X-0.200000X0.275000X0*%
%ADD33RoundRect,0.225000X-0.250000X0.225000X-0.250000X-0.225000X0.250000X-0.225000X0.250000X0.225000X0*%
%ADD34RoundRect,0.102000X0.177800X-0.736600X0.177800X0.736600X-0.177800X0.736600X-0.177800X-0.736600X0*%
%ADD35R,0.558800X0.977900*%
%ADD36RoundRect,0.250000X-0.350000X-0.625000X0.350000X-0.625000X0.350000X0.625000X-0.350000X0.625000X0*%
%ADD37O,1.200000X1.750000*%
%ADD38RoundRect,0.225000X-0.225000X-0.250000X0.225000X-0.250000X0.225000X0.250000X-0.225000X0.250000X0*%
%ADD39RoundRect,0.250000X-0.425000X0.450000X-0.425000X-0.450000X0.425000X-0.450000X0.425000X0.450000X0*%
%ADD40R,1.100000X1.100000*%
%ADD41R,0.400000X1.350000*%
%ADD42C,1.450000*%
%ADD43R,1.200000X1.900000*%
%ADD44R,1.500000X1.900000*%
%ADD45O,1.200000X1.900000*%
%ADD46RoundRect,0.225000X0.250000X-0.225000X0.250000X0.225000X-0.250000X0.225000X-0.250000X-0.225000X0*%
%ADD47RoundRect,0.102000X0.450000X-0.750000X0.450000X0.750000X-0.450000X0.750000X-0.450000X-0.750000X0*%
%ADD48RoundRect,0.102000X0.750000X-0.450000X0.750000X0.450000X-0.750000X0.450000X-0.750000X-0.450000X0*%
%ADD49RoundRect,0.102000X0.450000X-0.450000X0.450000X0.450000X-0.450000X0.450000X-0.450000X-0.450000X0*%
%ADD50RoundRect,0.250000X0.275000X-0.287500X0.275000X0.287500X-0.275000X0.287500X-0.275000X-0.287500X0*%
%ADD51RoundRect,0.062500X-0.337500X-0.062500X0.337500X-0.062500X0.337500X0.062500X-0.337500X0.062500X0*%
%ADD52RoundRect,0.062500X-0.062500X-0.337500X0.062500X-0.337500X0.062500X0.337500X-0.062500X0.337500X0*%
%ADD53R,3.350000X3.350000*%
%ADD54R,0.900000X1.700000*%
%ADD55RoundRect,0.225000X0.225000X0.250000X-0.225000X0.250000X-0.225000X-0.250000X0.225000X-0.250000X0*%
G04 APERTURE END LIST*
D10*
%TO.C,P3*%
X104530000Y-102070000D03*
D11*
X104530000Y-100070000D03*
X104530000Y-98070000D03*
X106530000Y-102070000D03*
X106530000Y-100070000D03*
X106530000Y-98070000D03*
%TD*%
D12*
%TO.C,ENC1*%
X121490000Y-96582500D03*
D13*
X126490000Y-96582500D03*
X121490000Y-111082500D03*
X126490000Y-111082500D03*
X123990000Y-111082500D03*
D14*
X118390000Y-103582500D03*
X129590000Y-103582500D03*
%TD*%
D12*
%TO.C,ENC2*%
X136730000Y-96580000D03*
D13*
X141730000Y-96580000D03*
X136730000Y-111080000D03*
X141730000Y-111080000D03*
X139230000Y-111080000D03*
D14*
X133630000Y-103580000D03*
X144830000Y-103580000D03*
%TD*%
D15*
%TO.C,SW1*%
X106530000Y-98070000D03*
D11*
X106530000Y-100070000D03*
X106530000Y-102070000D03*
X104530000Y-98070000D03*
X104530000Y-100070000D03*
X104530000Y-102070000D03*
D13*
X105530000Y-95270000D03*
X105530000Y-104870000D03*
%TD*%
D16*
%TO.C,H3*%
X188960999Y-108957999D03*
D17*
X188960999Y-108957999D03*
%TD*%
D12*
%TO.C,P1*%
X113620000Y-68650000D03*
D13*
X116160000Y-68650000D03*
%TD*%
D18*
%TO.C,P9*%
X188960999Y-91572999D03*
X112933999Y-47572999D03*
X112933999Y-91572999D03*
D17*
X188960999Y-47572999D03*
D19*
X108011999Y-53062999D03*
D20*
X108008999Y-55601999D03*
X108008999Y-58141999D03*
X108008999Y-60681999D03*
X108008999Y-63221999D03*
X108008999Y-65761999D03*
X108008999Y-68301999D03*
X108008999Y-70838999D03*
X108008999Y-73378999D03*
X108008999Y-75918999D03*
X108008999Y-78458999D03*
X108008999Y-80998999D03*
X108008999Y-83538999D03*
X108008999Y-86078999D03*
%TD*%
D16*
%TO.C,H1*%
X105539000Y-47538999D03*
D17*
X105539000Y-47538999D03*
%TD*%
D16*
%TO.C,H2*%
X105538999Y-109060999D03*
D17*
X105538999Y-109060999D03*
%TD*%
D21*
%TO.C,RV2*%
X180985400Y-96192800D03*
D22*
X178485400Y-96192800D03*
X175985400Y-96192800D03*
D23*
X173685400Y-103692800D03*
X183285400Y-103692800D03*
%TD*%
D21*
%TO.C,RV1*%
X164985400Y-96175000D03*
D22*
X162485400Y-96175000D03*
X159985400Y-96175000D03*
D23*
X157685400Y-103675000D03*
X167285400Y-103675000D03*
%TD*%
D16*
%TO.C,*%
X188960999Y-47572999D03*
%TD*%
D24*
%TO.C,D8*%
X145535000Y-49550000D03*
X146935000Y-49550000D03*
%TD*%
D25*
%TO.C,R24*%
X177300000Y-99475000D03*
X177300000Y-101125000D03*
%TD*%
D26*
%TO.C,R12*%
X153720000Y-50225000D03*
X153720000Y-48575000D03*
%TD*%
D27*
%TO.C,Q6*%
X118815500Y-55874999D03*
X118815500Y-57775001D03*
X116804500Y-56825000D03*
%TD*%
D28*
%TO.C,R3*%
X117434970Y-88389962D03*
X115784970Y-88389962D03*
%TD*%
D19*
%TO.C,P2*%
X111172114Y-85786461D03*
D29*
X113712114Y-85786461D03*
X116252114Y-85786461D03*
X118792114Y-85786461D03*
X121332114Y-85786461D03*
X123872114Y-85786461D03*
X126412114Y-85786461D03*
X128952114Y-85786461D03*
D30*
X103552114Y-84517861D03*
X103552114Y-68007861D03*
D31*
X134286114Y-69692861D03*
X134286114Y-82832861D03*
%TD*%
D32*
%TO.C,R70*%
X166150000Y-85230000D03*
X167800000Y-85230000D03*
%TD*%
D33*
%TO.C,C14*%
X142735000Y-55215000D03*
X142735000Y-56765000D03*
%TD*%
D27*
%TO.C,Q4*%
X179025000Y-108125002D03*
X179025000Y-106225000D03*
X181036000Y-107175001D03*
%TD*%
D28*
%TO.C,R61*%
X123440000Y-105605000D03*
X121790000Y-105605000D03*
%TD*%
D32*
%TO.C,R62*%
X121790000Y-104130000D03*
X123440000Y-104130000D03*
%TD*%
D34*
%TO.C,U3*%
X133455800Y-95921000D03*
X132795400Y-95921000D03*
X132160400Y-95921000D03*
X131500000Y-95921000D03*
X130839600Y-95921000D03*
X130204600Y-95921000D03*
X129544200Y-95921000D03*
X129544200Y-90079000D03*
X130204600Y-90079000D03*
X130839600Y-90079000D03*
X131500000Y-90079000D03*
X132160400Y-90079000D03*
X132795400Y-90079000D03*
X133455800Y-90079000D03*
%TD*%
D25*
%TO.C,R2*%
X130610000Y-107470000D03*
X130610000Y-109120000D03*
%TD*%
D26*
%TO.C,R11*%
X153720000Y-47165000D03*
X153720000Y-45515000D03*
%TD*%
D27*
%TO.C,Q8*%
X112820500Y-59875000D03*
X112820500Y-61775002D03*
X110809500Y-60825001D03*
%TD*%
D25*
%TO.C,R35*%
X177165500Y-106525000D03*
X177165500Y-108175000D03*
%TD*%
D35*
%TO.C,U6*%
X164440000Y-80115250D03*
X163489999Y-80115250D03*
X162539998Y-80115250D03*
X162539998Y-77384750D03*
X163489999Y-77384750D03*
X164440000Y-77384750D03*
%TD*%
D25*
%TO.C,R60*%
X114820500Y-60050000D03*
X114820500Y-61700000D03*
%TD*%
D27*
%TO.C,Q3*%
X146730500Y-54939999D03*
X146730500Y-56840001D03*
X144719500Y-55890000D03*
%TD*%
D26*
%TO.C,R25*%
X175825000Y-101125000D03*
X175825000Y-99475000D03*
%TD*%
%TO.C,R68*%
X160960000Y-88205000D03*
X160960000Y-86555000D03*
%TD*%
%TO.C,R41*%
X171220000Y-75020000D03*
X171220000Y-73370000D03*
%TD*%
D32*
%TO.C,R15*%
X127650000Y-99320000D03*
X129300000Y-99320000D03*
%TD*%
D35*
%TO.C,U7*%
X175700001Y-88065250D03*
X174750000Y-88065250D03*
X173799999Y-88065250D03*
X173799999Y-85334750D03*
X174750000Y-85334750D03*
X175700001Y-85334750D03*
%TD*%
D36*
%TO.C,P8*%
X169490000Y-108510000D03*
D37*
X171490000Y-108510000D03*
%TD*%
D38*
%TO.C,C39*%
X177495000Y-86710000D03*
X179045000Y-86710000D03*
%TD*%
D33*
%TO.C,C29*%
X159499999Y-78630000D03*
X159499999Y-80180000D03*
%TD*%
D28*
%TO.C,R14*%
X132335000Y-99320000D03*
X130685000Y-99320000D03*
%TD*%
D27*
%TO.C,Q7*%
X118826000Y-59924999D03*
X118826000Y-61825001D03*
X116815000Y-60875000D03*
%TD*%
D25*
%TO.C,R67*%
X160960000Y-81570000D03*
X160960000Y-83220000D03*
%TD*%
%TO.C,R44*%
X178490000Y-73370000D03*
X178490000Y-75020000D03*
%TD*%
D24*
%TO.C,D5*%
X143035000Y-49550000D03*
X144435000Y-49550000D03*
%TD*%
D39*
%TO.C,C27*%
X184540000Y-73660000D03*
X184540000Y-76360000D03*
%TD*%
D28*
%TO.C,R55*%
X122445500Y-61675000D03*
X120795500Y-61675000D03*
%TD*%
D40*
%TO.C,D17*%
X125012500Y-102130000D03*
X122212500Y-102130000D03*
%TD*%
D36*
%TO.C,P4*%
X187970000Y-86480000D03*
D37*
X189970000Y-86480000D03*
%TD*%
D26*
%TO.C,R26*%
X148705000Y-53775000D03*
X148705000Y-52125000D03*
%TD*%
%TO.C,R50*%
X179860000Y-52000000D03*
X179860000Y-50350000D03*
%TD*%
D28*
%TO.C,R39*%
X139262500Y-105586250D03*
X137612500Y-105586250D03*
%TD*%
%TO.C,R53*%
X122505500Y-56025000D03*
X120855500Y-56025000D03*
%TD*%
D26*
%TO.C,R27*%
X148715000Y-56815000D03*
X148715000Y-55165000D03*
%TD*%
D25*
%TO.C,R28*%
X141205000Y-52135000D03*
X141205000Y-53785000D03*
%TD*%
D41*
%TO.C,P6*%
X146285000Y-47582500D03*
X146935000Y-47582500D03*
X147585000Y-47582500D03*
X148235000Y-47582500D03*
X148885000Y-47582500D03*
D42*
X150085000Y-47582500D03*
D43*
X150485000Y-44882500D03*
D44*
X146585000Y-44882500D03*
D43*
X144685000Y-44882500D03*
D45*
X151085000Y-44882500D03*
D42*
X145085000Y-47582500D03*
D45*
X144085000Y-44882500D03*
D44*
X148585000Y-44882500D03*
%TD*%
D46*
%TO.C,C25*%
X186400000Y-74965000D03*
X186400000Y-73415000D03*
%TD*%
D47*
%TO.C,U4*%
X192240000Y-71245000D03*
X190970000Y-71245000D03*
X189700000Y-71245000D03*
X188430000Y-71245000D03*
X187160000Y-71245000D03*
X185890000Y-71245000D03*
X184620000Y-71245000D03*
X183350000Y-71245000D03*
X182080000Y-71245000D03*
X180810000Y-71245000D03*
X179540000Y-71245000D03*
X178270000Y-71245000D03*
X177000000Y-71245000D03*
X175730000Y-71245000D03*
D48*
X174480000Y-68210000D03*
X174480000Y-66940000D03*
X174480000Y-65670000D03*
X174480000Y-64400000D03*
X174480000Y-63130000D03*
X174480000Y-61860000D03*
X174480000Y-60590000D03*
X174480000Y-59320000D03*
X174480000Y-58050000D03*
X174480000Y-56780000D03*
D47*
X175730000Y-53745000D03*
X177000000Y-53745000D03*
X178270000Y-53745000D03*
X179540000Y-53745000D03*
X180810000Y-53745000D03*
X182080000Y-53745000D03*
X183350000Y-53745000D03*
X184620000Y-53745000D03*
X185890000Y-53745000D03*
X187160000Y-53745000D03*
X188430000Y-53745000D03*
X189700000Y-53745000D03*
X190970000Y-53745000D03*
X192240000Y-53745000D03*
D49*
X185920000Y-65395000D03*
X185920000Y-63995000D03*
X185920000Y-62595000D03*
X184520000Y-65395000D03*
X184520000Y-63995000D03*
X184520000Y-62595000D03*
X183120000Y-65395000D03*
X183120000Y-63995000D03*
X183120000Y-62595000D03*
%TD*%
D28*
%TO.C,R57*%
X122445500Y-59875000D03*
X120795500Y-59875000D03*
%TD*%
%TO.C,R51*%
X122505500Y-57625000D03*
X120855500Y-57625000D03*
%TD*%
D50*
%TO.C,C34*%
X167730000Y-75802500D03*
X167730000Y-74377500D03*
%TD*%
D26*
%TO.C,R38*%
X182680000Y-75015000D03*
X182680000Y-73365000D03*
%TD*%
D28*
%TO.C,R17*%
X128050000Y-89850000D03*
X126400000Y-89850000D03*
%TD*%
D38*
%TO.C,C1*%
X118809970Y-88389962D03*
X120359970Y-88389962D03*
%TD*%
D28*
%TO.C,R10*%
X187880000Y-96270000D03*
X186230000Y-96270000D03*
%TD*%
%TO.C,R22*%
X190930000Y-99220000D03*
X189280000Y-99220000D03*
%TD*%
%TO.C,R31*%
X187870000Y-101990000D03*
X186220000Y-101990000D03*
%TD*%
D51*
%TO.C,U2*%
X153655000Y-56000000D03*
X153655000Y-55500000D03*
X153655000Y-55000000D03*
X153655000Y-54500000D03*
X153655000Y-54000000D03*
X153655000Y-53500000D03*
X153655000Y-53000000D03*
D52*
X154605000Y-52050000D03*
X155105000Y-52050000D03*
X155605000Y-52050000D03*
X156105000Y-52050000D03*
X156605000Y-52050000D03*
X157105000Y-52050000D03*
X157605000Y-52050000D03*
D51*
X158555000Y-53000000D03*
X158555000Y-53500000D03*
X158555000Y-54000000D03*
X158555000Y-54500000D03*
X158555000Y-55000000D03*
X158555000Y-55500000D03*
X158555000Y-56000000D03*
D52*
X157605000Y-56950000D03*
X157105000Y-56950000D03*
X156605000Y-56950000D03*
X156105000Y-56950000D03*
X155605000Y-56950000D03*
X155105000Y-56950000D03*
X154605000Y-56950000D03*
D53*
X156105000Y-54500000D03*
%TD*%
D46*
%TO.C,C41*%
X177520000Y-83760000D03*
X177520000Y-82210000D03*
%TD*%
D32*
%TO.C,R72*%
X166155000Y-88190000D03*
X167805000Y-88190000D03*
%TD*%
D26*
%TO.C,R5*%
X156810000Y-101125000D03*
X156810000Y-99475000D03*
%TD*%
D36*
%TO.C,P7*%
X187970000Y-80980000D03*
D37*
X189970000Y-80980000D03*
%TD*%
D26*
%TO.C,R49*%
X178290000Y-52000000D03*
X178290000Y-50350000D03*
%TD*%
%TO.C,R16*%
X152270000Y-50225000D03*
X152270000Y-48575000D03*
%TD*%
D50*
%TO.C,C40*%
X179020000Y-83697500D03*
X179020000Y-82272500D03*
%TD*%
D28*
%TO.C,R30*%
X190930000Y-101990000D03*
X189280000Y-101990000D03*
%TD*%
D26*
%TO.C,R58*%
X114820000Y-57675000D03*
X114820000Y-56025000D03*
%TD*%
D33*
%TO.C,C19*%
X140927500Y-104086250D03*
X140927500Y-105636250D03*
%TD*%
D26*
%TO.C,R21*%
X157515000Y-50245000D03*
X157515000Y-48595000D03*
%TD*%
D28*
%TO.C,R13*%
X135375000Y-99320000D03*
X133725000Y-99320000D03*
%TD*%
D24*
%TO.C,D6*%
X149435000Y-49550000D03*
X148035000Y-49550000D03*
%TD*%
D27*
%TO.C,Q1*%
X179030000Y-101070001D03*
X179030000Y-99169999D03*
X181041000Y-100120000D03*
%TD*%
D28*
%TO.C,R23*%
X187875000Y-99220000D03*
X186225000Y-99220000D03*
%TD*%
D46*
%TO.C,C18*%
X181140000Y-74965000D03*
X181140000Y-73415000D03*
%TD*%
D25*
%TO.C,R1*%
X108050000Y-104030000D03*
X108050000Y-105680000D03*
%TD*%
D36*
%TO.C,P5*%
X160700000Y-49350000D03*
D37*
X162700000Y-49350000D03*
X164700000Y-49350000D03*
%TD*%
D32*
%TO.C,R78*%
X177445000Y-88190000D03*
X179095000Y-88190000D03*
%TD*%
D33*
%TO.C,C11*%
X152275000Y-51580000D03*
X152275000Y-53130000D03*
%TD*%
%TO.C,C16*%
X142735000Y-52185000D03*
X142735000Y-53735000D03*
%TD*%
D32*
%TO.C,R71*%
X166155000Y-77320000D03*
X167805000Y-77320000D03*
%TD*%
D26*
%TO.C,R43*%
X177010000Y-75020000D03*
X177010000Y-73370000D03*
%TD*%
D46*
%TO.C,C35*%
X166230000Y-75864999D03*
X166230000Y-74314999D03*
%TD*%
D25*
%TO.C,R4*%
X145850000Y-107480000D03*
X145850000Y-109130000D03*
%TD*%
D46*
%TO.C,C24*%
X187930000Y-74965000D03*
X187930000Y-73415000D03*
%TD*%
D28*
%TO.C,R9*%
X190931831Y-96270000D03*
X189281831Y-96270000D03*
%TD*%
D35*
%TO.C,U5*%
X164440001Y-88060001D03*
X163490000Y-88060001D03*
X162539999Y-88060001D03*
X162539999Y-85329501D03*
X163490000Y-85329501D03*
X164440001Y-85329501D03*
%TD*%
D38*
%TO.C,C31*%
X166205000Y-78780000D03*
X167755000Y-78780000D03*
%TD*%
D33*
%TO.C,C10*%
X150815000Y-51580000D03*
X150815000Y-53130000D03*
%TD*%
D26*
%TO.C,R36*%
X175705500Y-108175000D03*
X175705500Y-106525000D03*
%TD*%
D54*
%TO.C,SW3*%
X138950000Y-55830000D03*
X135550000Y-55830000D03*
%TD*%
D28*
%TO.C,R19*%
X128050000Y-88390000D03*
X126400000Y-88390000D03*
%TD*%
D26*
%TO.C,R69*%
X160960000Y-80230000D03*
X160960000Y-78580000D03*
%TD*%
D33*
%TO.C,C26*%
X125090000Y-104080000D03*
X125090000Y-105630000D03*
%TD*%
D26*
%TO.C,R66*%
X159490000Y-83220001D03*
X159490000Y-81570001D03*
%TD*%
D46*
%TO.C,C22*%
X190987500Y-74960000D03*
X190987500Y-73410000D03*
%TD*%
D32*
%TO.C,R20*%
X134935000Y-88390000D03*
X136585000Y-88390000D03*
%TD*%
D25*
%TO.C,R29*%
X141205000Y-55180000D03*
X141205000Y-56830000D03*
%TD*%
D32*
%TO.C,R73*%
X166155000Y-80240000D03*
X167805000Y-80240000D03*
%TD*%
D27*
%TO.C,Q5*%
X175106000Y-73444998D03*
X175106000Y-75345000D03*
X173095000Y-74394999D03*
%TD*%
D46*
%TO.C,C33*%
X166230000Y-83750000D03*
X166230000Y-82200000D03*
%TD*%
D27*
%TO.C,Q2*%
X146720500Y-51069999D03*
X146720500Y-52970001D03*
X144709500Y-52020000D03*
%TD*%
D33*
%TO.C,C38*%
X170750000Y-86625000D03*
X170750000Y-88175000D03*
%TD*%
D25*
%TO.C,R18*%
X156055000Y-48590000D03*
X156055000Y-50240000D03*
%TD*%
D46*
%TO.C,C23*%
X189457500Y-74970000D03*
X189457500Y-73420000D03*
%TD*%
D50*
%TO.C,C32*%
X167720000Y-83687500D03*
X167720000Y-82262500D03*
%TD*%
D33*
%TO.C,C28*%
X159485532Y-86600000D03*
X159485532Y-88150000D03*
%TD*%
D26*
%TO.C,R76*%
X172210000Y-88225000D03*
X172210000Y-86575000D03*
%TD*%
D32*
%TO.C,R40*%
X137627500Y-104136250D03*
X139277500Y-104136250D03*
%TD*%
D40*
%TO.C,D14*%
X140850000Y-102121250D03*
X138050000Y-102121250D03*
%TD*%
D55*
%TO.C,C12*%
X136535000Y-91330000D03*
X134985000Y-91330000D03*
%TD*%
D38*
%TO.C,C30*%
X166205000Y-86690000D03*
X167755000Y-86690000D03*
%TD*%
%TO.C,C13*%
X134985000Y-89850000D03*
X136535000Y-89850000D03*
%TD*%
D26*
%TO.C,R6*%
X172810000Y-101125000D03*
X172810000Y-99475000D03*
%TD*%
D32*
%TO.C,R77*%
X177445000Y-85230000D03*
X179095000Y-85230000D03*
%TD*%
M02*
