M48
; DRILL file {KiCad (6.0.10)} date Fri Dec  8 02:10:08 2023
; FORMAT={-:-/ absolute / inch / decimal}
; #@! TF.CreationDate,2023-12-08T02:10:08-05:00
; #@! TF.GenerationSoftware,Kicad,Pcbnew,(6.0.10)
; #@! TF.FileFunction,MixedPlating,1,4
FMAT,2
INCH
; #@! TA.AperFunction,Plated,PTH,ComponentDrill
T1C0.0079
; #@! TA.AperFunction,Plated,PTH,ViaDrill
T2C0.0098
; #@! TA.AperFunction,Plated,PTH,ViaDrill
T3C0.0118
; #@! TA.AperFunction,Plated,PTH,ViaDrill
T4C0.0157
; #@! TA.AperFunction,Plated,PTH,ComponentDrill
T5C0.0236
; #@! TA.AperFunction,Plated,PTH,ComponentDrill
T6C0.0315
; #@! TA.AperFunction,Plated,PTH,ComponentDrill
T7C0.0335
; #@! TA.AperFunction,Plated,PTH,ComponentDrill
T8C0.0394
; #@! TA.AperFunction,Plated,PTH,ComponentDrill
T9C0.0433
; #@! TA.AperFunction,Plated,PTH,ComponentDrill
T10C0.0472
; #@! TA.AperFunction,Plated,PTH,ComponentDrill
T11C0.0787
; #@! TA.AperFunction,Plated,PTH,ComponentDrill
T12C0.0906
; #@! TA.AperFunction,Plated,PTH,ComponentDrill
T13C0.0984
; #@! TA.AperFunction,Plated,PTH,ComponentDrill
T14C0.1260
; #@! TA.AperFunction,NonPlated,NPTH,ComponentDrill
T15C0.0630
; #@! TA.AperFunction,NonPlated,NPTH,ComponentDrill
T16C0.1260
%
G90
G05
T1
X4.696Y-3.1016
X4.7097Y-3.072
X4.7097Y-3.1311
X4.7235Y-3.1016
X6.0232Y-2.1063
X6.0232Y-2.1457
X6.0232Y-2.185
X6.0626Y-2.1063
X6.0626Y-2.1457
X6.0626Y-2.185
X6.102Y-2.1063
X6.102Y-2.1457
X6.102Y-2.185
X7.2234Y-2.4635
X7.2234Y-2.5357
X7.2595Y-2.4274
X7.2595Y-2.4996
X7.2595Y-2.5719
X7.2957Y-2.4635
X7.2957Y-2.5357
X7.3318Y-2.4274
X7.3318Y-2.4996
X7.3318Y-2.5719
X7.3679Y-2.4635
X7.3679Y-2.5357
T2
X5.9102Y-3.4228
X5.9496Y-3.3835
X6.6079Y-3.7441
T3
X4.337Y-3.0185
X4.3374Y-3.0571
X4.3374Y-3.0965
X4.3374Y-3.1358
X4.3374Y-3.1732
X4.3764Y-3.0185
X4.3768Y-3.0571
X4.3768Y-3.0965
X4.3768Y-3.1358
X4.3768Y-3.1732
X4.4091Y-2.7972
X4.4157Y-3.0185
X4.4161Y-3.0571
X4.4161Y-3.0965
X4.4161Y-3.1358
X4.4161Y-3.1732
X4.4622Y-4.3457
X4.4661Y-4.0945
X4.4819Y-2.4669
X4.5579Y-2.7909
X4.6594Y-3.1906
X4.6819Y-2.9102
X4.6823Y-2.9606
X4.6827Y-3.0063
X4.7067Y-2.6173
X4.7078Y-3.1906
X4.7082Y-3.2406
X4.7386Y-3.0067
X4.739Y-2.9598
X4.7402Y-2.9122
X4.7551Y-3.1906
X4.8244Y-4.215
X4.9827Y-3.5059
X4.9846Y-2.3504
X5.0Y-2.5878
X5.0403Y-2.3504
X5.096Y-2.3504
X5.1312Y-2.6181
X5.1492Y-3.8654
X5.1517Y-2.3504
X5.1858Y-3.6756
X5.1869Y-2.6181
X5.2073Y-2.3504
X5.2122Y-3.6417
X5.2189Y-3.8709
X5.2386Y-3.6976
X5.2425Y-2.6181
X5.263Y-2.3504
X5.2982Y-2.6181
X5.3181Y-3.7457
X5.3187Y-2.3504
X5.3539Y-2.6181
X5.3743Y-2.3504
X5.4095Y-2.6181
X5.43Y-2.3504
X5.4453Y-4.2169
X5.4652Y-2.6181
X5.4857Y-2.3504
X5.5122Y-1.9882
X5.5209Y-2.6181
X5.5413Y-2.3504
X5.5429Y-2.8126
X5.5429Y-2.8683
X5.5429Y-2.9239
X5.5429Y-2.9796
X5.5765Y-2.6181
X5.5986Y-2.8126
X5.5986Y-2.8683
X5.5986Y-2.9239
X5.5986Y-2.9796
X5.6322Y-2.6181
X5.6543Y-2.8126
X5.6543Y-2.8683
X5.6543Y-2.9239
X5.6543Y-2.9796
X5.6583Y-3.2965
X5.666Y-2.2828
X5.6879Y-2.6181
X5.6976Y-3.2571
X5.7099Y-2.8126
X5.7099Y-2.8683
X5.7099Y-2.9239
X5.7099Y-2.9796
X5.737Y-3.2177
X5.7406Y-2.2775
X5.7435Y-2.6181
X5.7465Y-1.9969
X5.7654Y-1.9776
X5.7764Y-3.1783
X5.7874Y-1.8261
X5.7992Y-2.6181
X5.8067Y-1.9789
X5.8157Y-3.139
X5.8315Y-3.5016
X5.8476Y-2.2209
X5.8551Y-3.0996
X5.8709Y-3.4622
X5.8945Y-3.0602
X5.8957Y-2.1465
X5.9154Y-4.3701
X5.9232Y-2.1457
X5.9315Y-2.2685
X5.9339Y-3.0209
X5.9591Y-2.2795
X5.9732Y-2.9815
X5.9744Y-2.3071
X5.9862Y-4.0929
X5.989Y-3.3441
X6.0126Y-2.9421
X6.0175Y-1.9195
X6.0283Y-3.3047
X6.052Y-2.9028
X6.0543Y-3.4429
X6.0547Y-3.4854
X6.0547Y-3.5248
X6.0547Y-3.5642
X6.0551Y-3.6059
X6.0677Y-3.2654
X6.0913Y-2.8634
X6.1071Y-3.226
X6.1307Y-2.824
X6.1354Y-3.4425
X6.1358Y-3.4846
X6.1358Y-3.524
X6.1358Y-3.5634
X6.1366Y-3.6051
X6.1465Y-3.1866
X6.1524Y-2.3287
X6.1701Y-2.7846
X6.1858Y-3.1472
X6.2094Y-2.7453
X6.2413Y-3.2421
X6.2697Y-3.6748
X6.3071Y-3.6374
X6.3528Y-3.4421
X6.3531Y-3.4843
X6.3531Y-3.5236
X6.3531Y-3.563
X6.3535Y-3.6059
X6.4398Y-3.4425
X6.4402Y-3.4843
X6.4402Y-3.5236
X6.4402Y-3.563
X6.4409Y-3.6059
X6.5024Y-3.4421
X6.5028Y-3.4843
X6.5028Y-3.5236
X6.5028Y-3.563
X6.5031Y-3.6059
X6.6083Y-3.4417
X6.6087Y-3.4835
X6.6087Y-3.5228
X6.6087Y-3.5622
X6.6094Y-3.6051
X6.6425Y-3.348
X6.722Y-2.1122
X6.8154Y-3.8854
X6.8287Y-2.2494
X6.8728Y-3.6382
X6.8996Y-2.7512
X6.9071Y-3.8843
X6.9106Y-3.676
X6.9791Y-2.6898
X6.9792Y-1.8624
X6.9854Y-3.4433
X6.9858Y-3.4862
X6.9858Y-3.5256
X6.9858Y-3.565
X6.9862Y-3.6079
X6.9882Y-2.6258
X6.989Y-2.1933
X7.0063Y-1.8315
X7.0091Y-2.6421
X7.0488Y-1.8492
X7.0724Y-3.4437
X7.0728Y-3.4862
X7.0728Y-3.5256
X7.0728Y-3.565
X7.0736Y-3.6079
X7.0799Y-1.8598
X7.115Y-1.887
X7.1189Y-1.9217
X7.1484Y-2.198
X7.1862Y-3.05
X7.2764Y-3.3496
X7.2815Y-2.6858
X7.2842Y-2.1877
X7.2986Y-2.0207
X7.3138Y-2.6902
X7.402Y-1.9772
X7.4331Y-4.111
X7.4673Y-2.2267
X7.5276Y-2.011
X7.5621Y-3.8015
X7.5626Y-4.0287
X7.563Y-3.9205
X7.5839Y-2.9661
T4
X4.2587Y-4.3819
X4.3602Y-4.3504
X4.3648Y-4.0866
X4.4256Y-4.3431
X4.4304Y-4.0836
X4.4339Y-3.2402
X4.4437Y-2.7827
X4.4752Y-2.963
X4.5205Y-2.4693
X4.5213Y-2.785
X4.5335Y-2.9654
X4.5839Y-2.7543
X4.5874Y-2.4478
X4.5909Y-2.9673
X4.5965Y-3.2764
X4.739Y-2.4699
X4.744Y-2.6195
X4.7547Y-2.7957
X4.772Y-2.5026
X4.8228Y-3.4646
X4.8255Y-3.1382
X4.8318Y-2.9697
X4.844Y-3.1866
X4.8622Y-4.2108
X4.8897Y-2.9681
X4.9262Y-4.2138
X4.948Y-2.9685
X4.9631Y-2.5832
X4.9719Y-3.1382
X4.9831Y-3.5449
X5.0787Y-3.8327
X5.1171Y-3.5993
X5.1262Y-3.8345
X5.15Y-3.6829
X5.1772Y-3.8382
X5.1805Y-3.6203
X5.2028Y-3.711
X5.228Y-3.8343
X5.2563Y-3.6061
X5.2972Y-3.776
X5.315Y-3.6531
X5.4089Y-3.5961
X5.4106Y-3.5374
X5.4321Y-2.1175
X5.4327Y-2.172
X5.462Y-1.851
X5.4828Y-4.2091
X5.5382Y-2.0126
X5.5438Y-4.2121
X5.548Y-1.9122
X5.5755Y-2.1539
X5.5774Y-2.1156
X5.5957Y-1.9862
X5.6358Y-1.9961
X5.7033Y-2.2795
X5.7205Y-2.1204
X5.778Y-2.2765
X5.8147Y-2.2033
X5.8291Y-1.9996
X5.8539Y-2.1346
X5.8638Y-1.9829
X5.8803Y-4.3466
X5.8841Y-4.0947
X5.9106Y-1.863
X5.9249Y-2.1812
X5.9454Y-4.3411
X5.9494Y-4.0894
X5.963Y-2.0307
X5.9717Y-2.2421
X6.0055Y-2.2849
X6.0123Y-1.9627
X6.0417Y-2.3049
X6.1087Y-2.3298
X6.1165Y-1.8614
X6.1469Y-3.7384
X6.248Y-2.7126
X6.2799Y-3.076
X6.2805Y-3.251
X6.2907Y-3.9024
X6.3087Y-3.6748
X6.3531Y-2.9732
X6.3764Y-3.1594
X6.3779Y-3.2516
X6.4167Y-3.9055
X6.4372Y-3.1173
X6.438Y-3.3524
X6.5079Y-3.0228
X6.6471Y-3.7389
X6.6491Y-3.2542
X6.6508Y-3.0207
X6.6512Y-2.9654
X6.6516Y-3.2004
X6.6535Y-3.3138
X6.6685Y-3.0906
X6.6902Y-2.0917
X6.7543Y-2.961
X6.7778Y-3.7392
X6.7793Y-2.7577
X6.815Y-3.8472
X6.8183Y-2.6857
X6.8259Y-2.2867
X6.874Y-3.676
X6.9049Y-3.8469
X6.9366Y-3.926
X6.9539Y-2.7299
X6.9595Y-2.6497
X6.9648Y-3.2027
X6.9968Y-2.7227
X7.0163Y-1.8679
X7.0268Y-2.675
X7.0276Y-3.039
X7.0319Y-2.1905
X7.0469Y-3.9091
X7.0636Y-2.6941
X7.0669Y-2.6485
X7.0689Y-3.3573
X7.0771Y-1.8965
X7.0909Y-2.8636
X7.1051Y-2.6329
X7.109Y-3.0511
X7.1274Y-3.2583
X7.1539Y-3.0338
X7.1902Y-2.7209
X7.1909Y-2.1906
X7.2157Y-3.0264
X7.2409Y-2.1886
X7.2774Y-3.742
X7.2848Y-3.2004
X7.2848Y-3.2563
X7.2866Y-3.3138
X7.2874Y-3.0969
X7.2882Y-2.9933
X7.289Y-2.7228
X7.3254Y-1.9946
X7.3319Y-3.7437
X7.3373Y-2.6608
X7.3377Y-2.7199
X7.3407Y-2.1934
X7.3613Y-3.0457
X7.3636Y-1.9788
X7.4216Y-3.049
X7.4331Y-3.8488
X7.4339Y-4.0693
X7.4343Y-3.9551
X7.439Y-2.7201
X7.4421Y-2.6579
X7.4819Y-3.0472
X7.4886Y-2.6094
X7.4911Y-2.1979
X7.5146Y-2.0469
X7.5315Y-4.0594
X7.5369Y-3.9483
X7.5393Y-3.8311
X7.5409Y-3.0457
X7.5909Y-2.0587
X7.5911Y-2.1864
X7.5911Y-2.7356
X7.5913Y-2.8713
X7.5917Y-2.2252
X7.5917Y-2.2724
X7.5917Y-2.3197
X7.5917Y-2.3669
X7.5917Y-2.4142
X7.5917Y-2.4614
X7.5917Y-2.5087
X7.5917Y-2.5559
X7.5917Y-2.6031
X7.5917Y-2.6504
X7.5917Y-2.6976
X7.5949Y-2.9303
T6
X4.0138Y-3.8597
X4.0138Y-3.9581
X4.0138Y-4.0565
X4.1437Y-3.8597
X4.1437Y-3.9581
X4.1437Y-4.0565
T7
X5.6287Y-1.8733
X5.8256Y-1.8733
T8
X4.2523Y-2.1891
X4.2523Y-2.2891
X4.2523Y-2.3891
X4.2523Y-2.4891
X4.2523Y-2.5891
X4.2523Y-2.6891
X4.2523Y-2.7889
X4.2523Y-2.8889
X4.2523Y-2.9889
X4.2523Y-3.0889
X4.2523Y-3.1889
X4.2523Y-3.2889
X4.2523Y-3.3889
X4.2524Y-2.0891
X4.403Y-3.3777
X4.503Y-3.3777
X4.603Y-3.3777
X4.703Y-3.3777
X4.803Y-3.3777
X4.903Y-3.3777
X5.003Y-3.3777
X5.103Y-3.3777
X6.2986Y-3.7864
X6.3971Y-3.7864
X6.4955Y-3.7864
X6.9286Y-3.7871
X7.027Y-3.7871
X7.1254Y-3.7871
T10
X4.7831Y-3.8025
X4.7831Y-4.3733
X4.8815Y-4.3733
X4.9799Y-3.8025
X4.9799Y-4.3733
X5.3831Y-3.8024
X5.3831Y-4.3732
X5.4815Y-4.3732
X5.5799Y-3.8024
X5.5799Y-4.3732
X6.276Y-2.1016
X6.3744Y-2.1016
X6.4728Y-2.1016
T12
X5.313Y-2.7441
X5.313Y-3.2614
T13
X4.103Y-2.6777
X4.103Y-3.3277
T14
X4.1551Y-4.2937
X4.1551Y-1.8716
X7.4394Y-4.2897
T15
X6.276Y-1.8189
X6.4728Y-1.8189
T16
X4.4462Y-1.873
X4.4462Y-3.6052
X7.4394Y-1.873
X7.4394Y-3.6052
T5
G00X5.5894Y-1.7808
M15
G01X5.5894Y-1.7532
M16
G05
G00X5.865Y-1.7532
M15
G01X5.865Y-1.7808
M16
G05
T9
G00X6.2081Y-4.0679
M15
G01X6.2081Y-4.0955
M16
G05
G00X6.586Y-4.0679
M15
G01X6.586Y-4.0955
M16
G05
G00X6.838Y-4.0686
M15
G01X6.838Y-4.0962
M16
G05
G00X7.216Y-4.0686
M15
G01X7.216Y-4.0962
M16
G05
T11
G00X4.661Y-4.0761
M15
G01X4.661Y-4.08
M16
G05
G00X5.102Y-4.0761
M15
G01X5.102Y-4.08
M16
G05
G00X5.261Y-4.076
M15
G01X5.261Y-4.0799
M16
G05
G00X5.702Y-4.076
M15
G01X5.702Y-4.0799
M16
G05
T0
M30
