%TF.GenerationSoftware,KiCad,Pcbnew,(6.0.11)*%
%TF.CreationDate,2024-03-19T14:27:04-04:00*%
%TF.ProjectId,Ultrasonic Sound Steering - Control Rev. B,556c7472-6173-46f6-9e69-6320536f756e,rev?*%
%TF.SameCoordinates,Original*%
%TF.FileFunction,Soldermask,Top*%
%TF.FilePolarity,Negative*%
%FSLAX46Y46*%
G04 Gerber Fmt 4.6, Leading zero omitted, Abs format (unit mm)*
G04 Created by KiCad (PCBNEW (6.0.11)) date 2024-03-19 14:27:04*
%MOMM*%
%LPD*%
G01*
G04 APERTURE LIST*
G04 Aperture macros list*
%AMRoundRect*
0 Rectangle with rounded corners*
0 $1 Rounding radius*
0 $2 $3 $4 $5 $6 $7 $8 $9 X,Y pos of 4 corners*
0 Add a 4 corners polygon primitive as box body*
4,1,4,$2,$3,$4,$5,$6,$7,$8,$9,$2,$3,0*
0 Add four circle primitives for the rounded corners*
1,1,$1+$1,$2,$3*
1,1,$1+$1,$4,$5*
1,1,$1+$1,$6,$7*
1,1,$1+$1,$8,$9*
0 Add four rect primitives between the rounded corners*
20,1,$1+$1,$2,$3,$4,$5,0*
20,1,$1+$1,$4,$5,$6,$7,0*
20,1,$1+$1,$6,$7,$8,$9,0*
20,1,$1+$1,$8,$9,$2,$3,0*%
G04 Aperture macros list end*
%ADD10RoundRect,0.250000X-0.275000X0.200000X-0.275000X-0.200000X0.275000X-0.200000X0.275000X0.200000X0*%
%ADD11RoundRect,0.050000X-0.350000X0.300000X-0.350000X-0.300000X0.350000X-0.300000X0.350000X0.300000X0*%
%ADD12RoundRect,0.050000X0.350000X-0.300000X0.350000X0.300000X-0.350000X0.300000X-0.350000X-0.300000X0*%
%ADD13RoundRect,0.275000X0.225000X0.250000X-0.225000X0.250000X-0.225000X-0.250000X0.225000X-0.250000X0*%
%ADD14RoundRect,0.102000X-0.754000X0.754000X-0.754000X-0.754000X0.754000X-0.754000X0.754000X0.754000X0*%
%ADD15C,1.712000*%
%ADD16C,6.204000*%
%ADD17RoundRect,0.275000X-0.250000X0.225000X-0.250000X-0.225000X0.250000X-0.225000X0.250000X0.225000X0*%
%ADD18RoundRect,0.275000X0.250000X-0.225000X0.250000X0.225000X-0.250000X0.225000X-0.250000X-0.225000X0*%
%ADD19RoundRect,0.275000X-0.225000X-0.250000X0.225000X-0.250000X0.225000X0.250000X-0.225000X0.250000X0*%
%ADD20C,0.504000*%
%ADD21RoundRect,0.050000X-0.150000X0.400000X-0.150000X-0.400000X0.150000X-0.400000X0.150000X0.400000X0*%
%ADD22RoundRect,0.110100X0.411900X0.126900X-0.411900X0.126900X-0.411900X-0.126900X0.411900X-0.126900X0*%
%ADD23RoundRect,0.102000X0.600000X1.000000X-0.600000X1.000000X-0.600000X-1.000000X0.600000X-1.000000X0*%
%ADD24C,4.800000*%
%ADD25RoundRect,0.250000X0.200000X0.275000X-0.200000X0.275000X-0.200000X-0.275000X0.200000X-0.275000X0*%
%ADD26RoundRect,0.300001X-0.624999X0.462499X-0.624999X-0.462499X0.624999X-0.462499X0.624999X0.462499X0*%
%ADD27RoundRect,0.300000X0.425000X-0.450000X0.425000X0.450000X-0.425000X0.450000X-0.425000X-0.450000X0*%
%ADD28RoundRect,0.250000X0.275000X-0.200000X0.275000X0.200000X-0.275000X0.200000X-0.275000X-0.200000X0*%
%ADD29RoundRect,0.250000X-0.200000X-0.275000X0.200000X-0.275000X0.200000X0.275000X-0.200000X0.275000X0*%
%ADD30C,1.500000*%
%ADD31O,2.600000X1.824000*%
%ADD32RoundRect,0.102000X-0.900000X0.900000X-0.900000X-0.900000X0.900000X-0.900000X0.900000X0.900000X0*%
%ADD33C,2.004000*%
%ADD34RoundRect,0.050000X-0.450000X-0.600000X0.450000X-0.600000X0.450000X0.600000X-0.450000X0.600000X0*%
%ADD35RoundRect,0.050000X1.524000X-1.143000X1.524000X1.143000X-1.524000X1.143000X-1.524000X-1.143000X0*%
%ADD36RoundRect,0.112500X0.337500X0.062500X-0.337500X0.062500X-0.337500X-0.062500X0.337500X-0.062500X0*%
%ADD37RoundRect,0.112500X0.062500X0.337500X-0.062500X0.337500X-0.062500X-0.337500X0.062500X-0.337500X0*%
%ADD38RoundRect,0.050000X1.675000X1.675000X-1.675000X1.675000X-1.675000X-1.675000X1.675000X-1.675000X0*%
%ADD39RoundRect,0.300000X0.625000X-0.350000X0.625000X0.350000X-0.625000X0.350000X-0.625000X-0.350000X0*%
%ADD40O,1.850000X1.300000*%
%ADD41RoundRect,0.104600X0.212132X0.392303X-0.392303X-0.212132X-0.212132X-0.392303X0.392303X0.212132X0*%
%ADD42RoundRect,0.104600X-0.392303X0.212132X0.212132X-0.392303X0.392303X-0.212132X-0.212132X0.392303X0*%
%ADD43RoundRect,0.104600X-0.212132X-0.392303X0.392303X0.212132X0.212132X0.392303X-0.392303X-0.212132X0*%
%ADD44RoundRect,0.104600X0.392303X-0.212132X-0.212132X0.392303X-0.392303X0.212132X0.212132X-0.392303X0*%
%ADD45RoundRect,0.102000X1.767767X0.000000X0.000000X1.767767X-1.767767X0.000000X0.000000X-1.767767X0*%
%ADD46RoundRect,0.300000X0.925000X-0.412500X0.925000X0.412500X-0.925000X0.412500X-0.925000X-0.412500X0*%
%ADD47RoundRect,0.102000X0.450000X-0.750000X0.450000X0.750000X-0.450000X0.750000X-0.450000X-0.750000X0*%
%ADD48RoundRect,0.102000X0.750000X-0.450000X0.750000X0.450000X-0.750000X0.450000X-0.750000X-0.450000X0*%
%ADD49RoundRect,0.102000X0.450000X-0.450000X0.450000X0.450000X-0.450000X0.450000X-0.450000X-0.450000X0*%
%ADD50RoundRect,0.050000X-0.800100X0.431800X-0.800100X-0.431800X0.800100X-0.431800X0.800100X0.431800X0*%
%ADD51RoundRect,0.050000X-0.127000X-0.406400X0.127000X-0.406400X0.127000X0.406400X-0.127000X0.406400X0*%
%ADD52RoundRect,0.050000X-0.406400X0.127000X-0.406400X-0.127000X0.406400X-0.127000X0.406400X0.127000X0*%
%ADD53RoundRect,0.050000X-1.130300X1.130300X-1.130300X-1.130300X1.130300X-1.130300X1.130300X1.130300X0*%
%ADD54RoundRect,0.102000X0.000000X1.767767X-1.767767X0.000000X0.000000X-1.767767X1.767767X0.000000X0*%
%ADD55RoundRect,0.050000X-0.550000X2.300000X-0.550000X-2.300000X0.550000X-2.300000X0.550000X2.300000X0*%
%ADD56RoundRect,0.050000X-5.400000X4.700000X-5.400000X-4.700000X5.400000X-4.700000X5.400000X4.700000X0*%
%ADD57RoundRect,0.050000X-0.279400X0.488950X-0.279400X-0.488950X0.279400X-0.488950X0.279400X0.488950X0*%
%ADD58RoundRect,0.050000X0.127000X0.381000X-0.127000X0.381000X-0.127000X-0.381000X0.127000X-0.381000X0*%
%ADD59RoundRect,0.050000X0.381000X-0.127000X0.381000X0.127000X-0.381000X0.127000X-0.381000X-0.127000X0*%
%ADD60RoundRect,0.050000X0.596900X-0.596900X0.596900X0.596900X-0.596900X0.596900X-0.596900X-0.596900X0*%
%ADD61RoundRect,0.050000X-0.850000X0.450000X-0.850000X-0.450000X0.850000X-0.450000X0.850000X0.450000X0*%
%ADD62RoundRect,0.050000X0.150000X-0.400000X0.150000X0.400000X-0.150000X0.400000X-0.150000X-0.400000X0*%
%ADD63RoundRect,0.050000X-0.299999X-0.500000X0.299999X-0.500000X0.299999X0.500000X-0.299999X0.500000X0*%
%ADD64RoundRect,0.300000X-0.425000X0.450000X-0.425000X-0.450000X0.425000X-0.450000X0.425000X0.450000X0*%
%ADD65RoundRect,0.050000X0.850000X-0.850000X0.850000X0.850000X-0.850000X0.850000X-0.850000X-0.850000X0*%
%ADD66O,1.800000X1.800000*%
%ADD67C,1.700000*%
%ADD68O,2.604000X1.404000*%
%ADD69RoundRect,0.102000X0.900000X0.900000X-0.900000X0.900000X-0.900000X-0.900000X0.900000X-0.900000X0*%
%ADD70RoundRect,0.050000X-0.850000X0.850000X-0.850000X-0.850000X0.850000X-0.850000X0.850000X0.850000X0*%
%ADD71C,1.550000*%
%ADD72O,2.000000X1.300000*%
%ADD73C,1.300000*%
%ADD74O,1.512000X2.820000*%
%ADD75O,2.820000X1.512000*%
%ADD76C,1.400000*%
G04 APERTURE END LIST*
D10*
%TO.C,PTC9*%
X94780000Y-80370000D03*
X94780000Y-82020000D03*
%TD*%
D11*
%TO.C,D16*%
X187605000Y-62880000D03*
X187605000Y-61480000D03*
%TD*%
D12*
%TO.C,D22*%
X96530000Y-70360000D03*
X96530000Y-71760000D03*
%TD*%
D13*
%TO.C,C46*%
X174980000Y-102135000D03*
X173430000Y-102135000D03*
%TD*%
D14*
%TO.C,U17*%
X128990000Y-123050000D03*
X159470000Y-69700000D03*
D15*
X131530000Y-123050000D03*
X156930000Y-69700000D03*
X128990000Y-120510000D03*
X159470000Y-72240000D03*
X131530000Y-120510000D03*
X156930000Y-72240000D03*
X128990000Y-117970000D03*
X159470000Y-74780000D03*
X131530000Y-117970000D03*
X156930000Y-74780000D03*
X128990000Y-115430000D03*
X159470000Y-77320000D03*
X131530000Y-115430000D03*
X156930000Y-77320000D03*
X128990000Y-112890000D03*
X159470000Y-79860000D03*
X131530000Y-112890000D03*
X156930000Y-79860000D03*
X128990000Y-110350000D03*
X159470000Y-82400000D03*
X131530000Y-110350000D03*
X156930000Y-82400000D03*
X128990000Y-107810000D03*
X159470000Y-84940000D03*
X131530000Y-107810000D03*
X156930000Y-84940000D03*
X128990000Y-105270000D03*
X159470000Y-87480000D03*
X131530000Y-105270000D03*
X156930000Y-87480000D03*
X128990000Y-102730000D03*
X159470000Y-90020000D03*
X131530000Y-102730000D03*
X156930000Y-90020000D03*
X128990000Y-100190000D03*
X159470000Y-92560000D03*
X131530000Y-100190000D03*
X156930000Y-92560000D03*
X128990000Y-97650000D03*
X159470000Y-95100000D03*
X131530000Y-97650000D03*
X156930000Y-95100000D03*
X128990000Y-95110000D03*
X159470000Y-97640000D03*
X131530000Y-95110000D03*
X156930000Y-97640000D03*
X128990000Y-92570000D03*
X159470000Y-100180000D03*
X131530000Y-92570000D03*
X156930000Y-100180000D03*
X128990000Y-90030000D03*
X159470000Y-102720000D03*
X131530000Y-90030000D03*
X156930000Y-102720000D03*
X128990000Y-87490000D03*
X159470000Y-105260000D03*
X131530000Y-87490000D03*
X156930000Y-105260000D03*
X128990000Y-84950000D03*
X159470000Y-107800000D03*
X131530000Y-84950000D03*
X156930000Y-107800000D03*
X128990000Y-82410000D03*
X159470000Y-110340000D03*
X131530000Y-82410000D03*
X156930000Y-110340000D03*
X128990000Y-79870000D03*
X159470000Y-112880000D03*
X131530000Y-79870000D03*
X156930000Y-112880000D03*
X128990000Y-77330000D03*
X159470000Y-115420000D03*
X131530000Y-77330000D03*
X156930000Y-115420000D03*
X128990000Y-74790000D03*
X159470000Y-117960000D03*
X131530000Y-74790000D03*
X156930000Y-117960000D03*
X128990000Y-72250000D03*
X159470000Y-120500000D03*
X131530000Y-72250000D03*
X156930000Y-120500000D03*
X128990000Y-69710000D03*
X159470000Y-123040000D03*
X131530000Y-69710000D03*
X156930000Y-123040000D03*
X128990000Y-67170000D03*
X159470000Y-125580000D03*
X131530000Y-67170000D03*
X156930000Y-125580000D03*
X128990000Y-64630000D03*
X159470000Y-128120000D03*
X131530000Y-64630000D03*
X156930000Y-128120000D03*
X128990000Y-62090000D03*
X159470000Y-130660000D03*
X131530000Y-62090000D03*
X156930000Y-130660000D03*
D16*
X158200000Y-63350000D03*
X130260000Y-129400000D03*
%TD*%
D17*
%TO.C,C72*%
X196980000Y-130035000D03*
X196980000Y-131585000D03*
%TD*%
D18*
%TO.C,C103*%
X89982500Y-125990000D03*
X89982500Y-124440000D03*
%TD*%
D19*
%TO.C,C21*%
X180165000Y-63840000D03*
X181715000Y-63840000D03*
%TD*%
D20*
%TO.C,*%
X178590000Y-130460000D03*
%TD*%
D10*
%TO.C,R1*%
X197200000Y-74483500D03*
X197200000Y-76133500D03*
%TD*%
D20*
%TO.C,*%
X176732500Y-130472500D03*
%TD*%
D21*
%TO.C,RN6*%
X152935000Y-127830000D03*
X152435000Y-127830000D03*
X151935000Y-127830000D03*
X151435000Y-127830000D03*
X150935000Y-127830000D03*
X150435000Y-127830000D03*
X149935000Y-127830000D03*
X149435000Y-127830000D03*
X149435000Y-129630000D03*
X149935000Y-129630000D03*
X150435000Y-129630000D03*
X150935000Y-129630000D03*
X151435000Y-129630000D03*
X151935000Y-129630000D03*
X152435000Y-129630000D03*
X152935000Y-129630000D03*
%TD*%
D19*
%TO.C,C15*%
X188974466Y-86655000D03*
X190524466Y-86655000D03*
%TD*%
D10*
%TO.C,R40*%
X183290000Y-72435000D03*
X183290000Y-74085000D03*
%TD*%
D13*
%TO.C,C28*%
X199867200Y-95964466D03*
X198317200Y-95964466D03*
%TD*%
D10*
%TO.C,R39*%
X178690000Y-72460000D03*
X178690000Y-74110000D03*
%TD*%
D20*
%TO.C,*%
X179640000Y-126875000D03*
%TD*%
D22*
%TO.C,U7*%
X187025000Y-108445000D03*
X187025000Y-107945000D03*
X187025000Y-107445000D03*
X187025000Y-106945000D03*
X187025000Y-106445000D03*
X184635000Y-106445000D03*
X184635000Y-106945000D03*
X184635000Y-107445000D03*
X184635000Y-107945000D03*
X184635000Y-108445000D03*
D23*
X185830000Y-107445000D03*
%TD*%
D13*
%TO.C,C112*%
X135365000Y-115050000D03*
X133815000Y-115050000D03*
%TD*%
D12*
%TO.C,D18*%
X96530000Y-64310000D03*
X96530000Y-65710000D03*
%TD*%
D17*
%TO.C,C82*%
X152490000Y-104550000D03*
X152490000Y-106100000D03*
%TD*%
%TO.C,C87*%
X182855000Y-116155000D03*
X182855000Y-117705000D03*
%TD*%
D24*
%TO.C,H2*%
X89930177Y-51350000D03*
%TD*%
D10*
%TO.C,R47*%
X149480000Y-104490000D03*
X149480000Y-106140000D03*
%TD*%
D25*
%TO.C,R74*%
X101622500Y-88970000D03*
X99972500Y-88970000D03*
%TD*%
D12*
%TO.C,D8*%
X96530000Y-61360000D03*
X96530000Y-62760000D03*
%TD*%
D13*
%TO.C,C47*%
X182415000Y-100732500D03*
X180865000Y-100732500D03*
%TD*%
D26*
%TO.C,D3*%
X104570000Y-69365000D03*
X104570000Y-72340000D03*
%TD*%
D10*
%TO.C,R46*%
X188920000Y-104965000D03*
X188920000Y-106615000D03*
%TD*%
%TO.C,PTC7*%
X94930000Y-67035000D03*
X94930000Y-68685000D03*
%TD*%
D27*
%TO.C,C67*%
X138157500Y-105840000D03*
X138157500Y-103140000D03*
%TD*%
D20*
%TO.C,*%
X182440000Y-131465000D03*
%TD*%
D18*
%TO.C,C131*%
X88452500Y-125980000D03*
X88452500Y-124430000D03*
%TD*%
D20*
%TO.C,*%
X176732500Y-129267500D03*
%TD*%
%TO.C,*%
X176732500Y-131472500D03*
%TD*%
D19*
%TO.C,C138*%
X169955000Y-99135000D03*
X171505000Y-99135000D03*
%TD*%
D17*
%TO.C,C81*%
X193455000Y-106670000D03*
X193455000Y-108220000D03*
%TD*%
D20*
%TO.C,*%
X183380000Y-128070000D03*
%TD*%
D19*
%TO.C,C104*%
X153140000Y-122630000D03*
X154690000Y-122630000D03*
%TD*%
D28*
%TO.C,R111*%
X101310000Y-101770000D03*
X101310000Y-100120000D03*
%TD*%
D20*
%TO.C,*%
X184350000Y-130445000D03*
%TD*%
D13*
%TO.C,C111*%
X135515000Y-67170000D03*
X133965000Y-67170000D03*
%TD*%
D29*
%TO.C,R56*%
X175505000Y-89390000D03*
X177155000Y-89390000D03*
%TD*%
D20*
%TO.C,*%
X177660000Y-126865000D03*
%TD*%
%TO.C,*%
X183380000Y-131465000D03*
%TD*%
D17*
%TO.C,C80*%
X150990000Y-104550000D03*
X150990000Y-106100000D03*
%TD*%
D18*
%TO.C,C36*%
X190380000Y-98997500D03*
X190380000Y-97447500D03*
%TD*%
D19*
%TO.C,C113*%
X153140000Y-124090000D03*
X154690000Y-124090000D03*
%TD*%
D20*
%TO.C,*%
X175810000Y-130470000D03*
%TD*%
D18*
%TO.C,C30*%
X181790000Y-74035000D03*
X181790000Y-72485000D03*
%TD*%
%TO.C,C85*%
X198260000Y-108215000D03*
X198260000Y-106665000D03*
%TD*%
D30*
%TO.C,SW1*%
X197625000Y-118510000D03*
X197625000Y-116510000D03*
X197625000Y-114510000D03*
D31*
X197625000Y-112410000D03*
X197625000Y-120610000D03*
%TD*%
D25*
%TO.C,R35*%
X193880000Y-98960000D03*
X192230000Y-98960000D03*
%TD*%
D28*
%TO.C,R24*%
X174964769Y-68866709D03*
X174964769Y-67216709D03*
%TD*%
D29*
%TO.C,R70*%
X103052500Y-90520000D03*
X104702500Y-90520000D03*
%TD*%
D19*
%TO.C,C109*%
X153140000Y-121170000D03*
X154690000Y-121170000D03*
%TD*%
D13*
%TO.C,C44*%
X174980000Y-100635000D03*
X173430000Y-100635000D03*
%TD*%
D20*
%TO.C,*%
X174860000Y-126875000D03*
%TD*%
D17*
%TO.C,C159*%
X175583005Y-81992929D03*
X175583005Y-83542929D03*
%TD*%
D10*
%TO.C,PTC5*%
X94910000Y-55035000D03*
X94910000Y-56685000D03*
%TD*%
D32*
%TO.C,P13*%
X198690000Y-123092500D03*
D33*
X198690000Y-125632500D03*
%TD*%
D34*
%TO.C,D1*%
X183797000Y-110070000D03*
X187097000Y-110070000D03*
%TD*%
D17*
%TO.C,C16*%
X193940000Y-81720000D03*
X193940000Y-83270000D03*
%TD*%
D28*
%TO.C,R114*%
X96470000Y-101765000D03*
X96470000Y-100115000D03*
%TD*%
%TO.C,R17*%
X192440000Y-83320000D03*
X192440000Y-81670000D03*
%TD*%
D25*
%TO.C,PTC1*%
X92280000Y-72350000D03*
X90630000Y-72350000D03*
%TD*%
D29*
%TO.C,R109*%
X108345000Y-108070000D03*
X109995000Y-108070000D03*
%TD*%
D13*
%TO.C,C114*%
X135370000Y-117970000D03*
X133820000Y-117970000D03*
%TD*%
D20*
%TO.C,*%
X172830000Y-96160000D03*
%TD*%
D17*
%TO.C,C160*%
X177254738Y-95905262D03*
X177254738Y-97455262D03*
%TD*%
D35*
%TO.C,F1*%
X187690000Y-134070000D03*
X187690000Y-128990000D03*
%TD*%
D25*
%TO.C,R77*%
X154500000Y-100272500D03*
X152850000Y-100272500D03*
%TD*%
D20*
%TO.C,*%
X174850000Y-129265000D03*
%TD*%
D18*
%TO.C,C142*%
X174120000Y-87975000D03*
X174120000Y-86425000D03*
%TD*%
D20*
%TO.C,*%
X184340000Y-126850000D03*
%TD*%
%TO.C,*%
X194880000Y-87710000D03*
%TD*%
D13*
%TO.C,C33*%
X175055000Y-91435000D03*
X173505000Y-91435000D03*
%TD*%
D20*
%TO.C,*%
X176742500Y-126877500D03*
%TD*%
%TO.C,*%
X176742500Y-128082500D03*
%TD*%
D18*
%TO.C,C65*%
X175570000Y-80415000D03*
X175570000Y-78865000D03*
%TD*%
D17*
%TO.C,C108*%
X110617500Y-92085000D03*
X110617500Y-93635000D03*
%TD*%
D20*
%TO.C,*%
X172155000Y-95485000D03*
%TD*%
D25*
%TO.C,R98*%
X169230000Y-96664300D03*
X167580000Y-96664300D03*
%TD*%
D36*
%TO.C,U12*%
X101827500Y-95750000D03*
X101827500Y-95250000D03*
X101827500Y-94750000D03*
X101827500Y-94250000D03*
X101827500Y-93750000D03*
X101827500Y-93250000D03*
X101827500Y-92750000D03*
D37*
X100877500Y-91800000D03*
X100377500Y-91800000D03*
X99877500Y-91800000D03*
X99377500Y-91800000D03*
X98877500Y-91800000D03*
X98377500Y-91800000D03*
X97877500Y-91800000D03*
D36*
X96927500Y-92750000D03*
X96927500Y-93250000D03*
X96927500Y-93750000D03*
X96927500Y-94250000D03*
X96927500Y-94750000D03*
X96927500Y-95250000D03*
X96927500Y-95750000D03*
D37*
X97877500Y-96700000D03*
X98377500Y-96700000D03*
X98877500Y-96700000D03*
X99377500Y-96700000D03*
X99877500Y-96700000D03*
X100377500Y-96700000D03*
X100877500Y-96700000D03*
D38*
X99377500Y-94250000D03*
%TD*%
D10*
%TO.C,R45*%
X190380000Y-106620000D03*
X190380000Y-108270000D03*
%TD*%
D20*
%TO.C,*%
X174860000Y-128080000D03*
%TD*%
D19*
%TO.C,C119*%
X153240000Y-76240000D03*
X154790000Y-76240000D03*
%TD*%
D28*
%TO.C,R30*%
X195330000Y-96035000D03*
X195330000Y-94385000D03*
%TD*%
D25*
%TO.C,R36*%
X193880000Y-94460000D03*
X192230000Y-94460000D03*
%TD*%
D12*
%TO.C,D20*%
X96530000Y-67360000D03*
X96530000Y-68760000D03*
%TD*%
D13*
%TO.C,C115*%
X135515000Y-68630000D03*
X133965000Y-68630000D03*
%TD*%
D17*
%TO.C,C141*%
X174187500Y-116155000D03*
X174187500Y-117705000D03*
%TD*%
D25*
%TO.C,R33*%
X193880000Y-95960000D03*
X192230000Y-95960000D03*
%TD*%
D17*
%TO.C,C168*%
X177262142Y-92947858D03*
X177262142Y-94497858D03*
%TD*%
D10*
%TO.C,R5*%
X195710000Y-63220000D03*
X195710000Y-64870000D03*
%TD*%
D20*
%TO.C,*%
X182450000Y-129255000D03*
%TD*%
%TO.C,*%
X182440000Y-128070000D03*
%TD*%
D25*
%TO.C,R34*%
X193880000Y-97460000D03*
X192230000Y-97460000D03*
%TD*%
D24*
%TO.C,H1*%
X197930189Y-51350000D03*
%TD*%
D10*
%TO.C,R100*%
X177060000Y-75665000D03*
X177060000Y-77315000D03*
%TD*%
D28*
%TO.C,R27*%
X196830534Y-96030534D03*
X196830534Y-94380534D03*
%TD*%
D21*
%TO.C,RN8*%
X124480000Y-127830000D03*
X123980000Y-127830000D03*
X123480000Y-127830000D03*
X122980000Y-127830000D03*
X122480000Y-127830000D03*
X121980000Y-127830000D03*
X121480000Y-127830000D03*
X120980000Y-127830000D03*
X120980000Y-129630000D03*
X121480000Y-129630000D03*
X121980000Y-129630000D03*
X122480000Y-129630000D03*
X122980000Y-129630000D03*
X123480000Y-129630000D03*
X123980000Y-129630000D03*
X124480000Y-129630000D03*
%TD*%
D20*
%TO.C,*%
X174850000Y-131470000D03*
%TD*%
D19*
%TO.C,C118*%
X153235000Y-74780000D03*
X154785000Y-74780000D03*
%TD*%
D20*
%TO.C,*%
X184340000Y-128055000D03*
%TD*%
D19*
%TO.C,C105*%
X153240000Y-77690000D03*
X154790000Y-77690000D03*
%TD*%
D13*
%TO.C,C147*%
X182410000Y-92672500D03*
X180860000Y-92672500D03*
%TD*%
D20*
%TO.C,*%
X177650000Y-130460000D03*
%TD*%
D17*
%TO.C,C79*%
X191920000Y-106665000D03*
X191920000Y-108215000D03*
%TD*%
D20*
%TO.C,*%
X184350000Y-129240000D03*
%TD*%
D10*
%TO.C,R120*%
X102680000Y-124385000D03*
X102680000Y-126035000D03*
%TD*%
%TO.C,PTC14*%
X191835000Y-64100000D03*
X191835000Y-65750000D03*
%TD*%
D20*
%TO.C,*%
X182450000Y-130460000D03*
%TD*%
D28*
%TO.C,R112*%
X99850000Y-101770000D03*
X99850000Y-100120000D03*
%TD*%
D20*
%TO.C,*%
X177660000Y-128070000D03*
%TD*%
D17*
%TO.C,C27*%
X195400000Y-81725000D03*
X195400000Y-83275000D03*
%TD*%
D28*
%TO.C,R110*%
X95010000Y-101765000D03*
X95010000Y-100115000D03*
%TD*%
D22*
%TO.C,U8*%
X145955000Y-106340000D03*
X145955000Y-105840000D03*
X145955000Y-105340000D03*
X145955000Y-104840000D03*
X145955000Y-104340000D03*
X143565000Y-104340000D03*
X143565000Y-104840000D03*
X143565000Y-105340000D03*
X143565000Y-105840000D03*
X143565000Y-106340000D03*
D23*
X144760000Y-105340000D03*
%TD*%
D10*
%TO.C,R4*%
X197210000Y-68130000D03*
X197210000Y-69780000D03*
%TD*%
D11*
%TO.C,D12*%
X189005000Y-76700000D03*
X189005000Y-75300000D03*
%TD*%
D20*
%TO.C,*%
X180610000Y-130470000D03*
%TD*%
D35*
%TO.C,F2*%
X187690000Y-125350000D03*
X187690000Y-120270000D03*
%TD*%
D25*
%TO.C,R54*%
X191915000Y-114230000D03*
X190265000Y-114230000D03*
%TD*%
D13*
%TO.C,C40*%
X174980000Y-99135000D03*
X173430000Y-99135000D03*
%TD*%
D20*
%TO.C,*%
X181522500Y-131477500D03*
%TD*%
D12*
%TO.C,D29*%
X190405000Y-72780000D03*
X190405000Y-74180000D03*
%TD*%
D19*
%TO.C,C91*%
X175556875Y-87930000D03*
X177106875Y-87930000D03*
%TD*%
D10*
%TO.C,R3*%
X197210000Y-63215000D03*
X197210000Y-64865000D03*
%TD*%
D20*
%TO.C,*%
X180610000Y-131470000D03*
%TD*%
D39*
%TO.C,P20*%
X102880000Y-63660000D03*
D40*
X102880000Y-61660000D03*
%TD*%
D13*
%TO.C,C116*%
X135365000Y-116510000D03*
X133815000Y-116510000D03*
%TD*%
D12*
%TO.C,D11*%
X187605000Y-64000000D03*
X187605000Y-65400000D03*
%TD*%
D19*
%TO.C,C61*%
X184150000Y-92672500D03*
X185700000Y-92672500D03*
%TD*%
D28*
%TO.C,R55*%
X193870000Y-104005000D03*
X193870000Y-102355000D03*
%TD*%
D29*
%TO.C,R73*%
X103052500Y-88970000D03*
X104702500Y-88970000D03*
%TD*%
D10*
%TO.C,R32*%
X180190000Y-69435000D03*
X180190000Y-71085000D03*
%TD*%
D12*
%TO.C,D28*%
X190405000Y-61480000D03*
X190405000Y-62880000D03*
%TD*%
D11*
%TO.C,D15*%
X190405000Y-65400000D03*
X190405000Y-64000000D03*
%TD*%
D28*
%TO.C,R69*%
X104647500Y-93665000D03*
X104647500Y-92015000D03*
%TD*%
D10*
%TO.C,R14*%
X183750000Y-64095000D03*
X183750000Y-65745000D03*
%TD*%
D19*
%TO.C,C19*%
X180170000Y-62360000D03*
X181720000Y-62360000D03*
%TD*%
D20*
%TO.C,*%
X182440000Y-126865000D03*
%TD*%
%TO.C,*%
X194880000Y-86505000D03*
%TD*%
D11*
%TO.C,D14*%
X190405000Y-76700000D03*
X190405000Y-75300000D03*
%TD*%
D25*
%TO.C,R96*%
X188720000Y-91172500D03*
X187070000Y-91172500D03*
%TD*%
D41*
%TO.C,U5*%
X188600000Y-96243764D03*
X188246447Y-95890210D03*
X187892893Y-95536657D03*
X187539340Y-95183104D03*
X187185787Y-94829550D03*
X186832233Y-94475997D03*
D42*
X185863497Y-94475997D03*
X185509943Y-94829550D03*
X185156390Y-95183104D03*
X184802837Y-95536657D03*
X184449283Y-95890210D03*
X184095730Y-96243764D03*
D43*
X184095730Y-97212500D03*
X184449283Y-97566054D03*
X184802837Y-97919607D03*
X185156390Y-98273160D03*
X185509943Y-98626714D03*
X185863497Y-98980267D03*
D44*
X186832233Y-98980267D03*
X187185787Y-98626714D03*
X187539340Y-98273160D03*
X187892893Y-97919607D03*
X188246447Y-97566054D03*
X188600000Y-97212500D03*
D45*
X186347865Y-96728132D03*
%TD*%
D12*
%TO.C,D6*%
X96530000Y-55360000D03*
X96530000Y-56760000D03*
%TD*%
D28*
%TO.C,PTC13*%
X191835000Y-62785000D03*
X191835000Y-61135000D03*
%TD*%
D10*
%TO.C,PTC8*%
X94780000Y-77370000D03*
X94780000Y-79020000D03*
%TD*%
D46*
%TO.C,C140*%
X176667500Y-117500000D03*
X176667500Y-114425000D03*
%TD*%
D10*
%TO.C,R108*%
X104140000Y-124385000D03*
X104140000Y-126035000D03*
%TD*%
%TO.C,R48*%
X147980000Y-102720000D03*
X147980000Y-104370000D03*
%TD*%
D28*
%TO.C,PTC11*%
X191845000Y-74085000D03*
X191845000Y-72435000D03*
%TD*%
D20*
%TO.C,*%
X184340000Y-131450000D03*
%TD*%
D18*
%TO.C,C120*%
X98300000Y-125985000D03*
X98300000Y-124435000D03*
%TD*%
D20*
%TO.C,*%
X178600000Y-126865000D03*
%TD*%
D39*
%TO.C,P10*%
X113880000Y-63650000D03*
D40*
X113880000Y-61650000D03*
%TD*%
D17*
%TO.C,C70*%
X181255000Y-106660000D03*
X181255000Y-108210000D03*
%TD*%
D47*
%TO.C,U22*%
X87200000Y-121240000D03*
X88470000Y-121240000D03*
X89740000Y-121240000D03*
X91010000Y-121240000D03*
X92280000Y-121240000D03*
X93550000Y-121240000D03*
X94820000Y-121240000D03*
X96090000Y-121240000D03*
X97360000Y-121240000D03*
X98630000Y-121240000D03*
X99900000Y-121240000D03*
X101170000Y-121240000D03*
X102440000Y-121240000D03*
X103710000Y-121240000D03*
D48*
X104960000Y-118205000D03*
X104960000Y-116935000D03*
X104960000Y-115665000D03*
X104960000Y-114395000D03*
X104960000Y-113125000D03*
X104960000Y-111855000D03*
X104960000Y-110585000D03*
X104960000Y-109315000D03*
X104960000Y-108045000D03*
X104960000Y-106775000D03*
D47*
X103710000Y-103740000D03*
X102440000Y-103740000D03*
X101170000Y-103740000D03*
X99900000Y-103740000D03*
X98630000Y-103740000D03*
X97360000Y-103740000D03*
X96090000Y-103740000D03*
X94820000Y-103740000D03*
X93550000Y-103740000D03*
X92280000Y-103740000D03*
X91010000Y-103740000D03*
X89740000Y-103740000D03*
X88470000Y-103740000D03*
X87200000Y-103740000D03*
D49*
X93520000Y-115390000D03*
X93520000Y-113990000D03*
X93520000Y-112590000D03*
X94920000Y-115390000D03*
X94920000Y-113990000D03*
X94920000Y-112590000D03*
X96320000Y-115390000D03*
X96320000Y-113990000D03*
X96320000Y-112590000D03*
%TD*%
D13*
%TO.C,C170*%
X182425000Y-94380000D03*
X180875000Y-94380000D03*
%TD*%
D10*
%TO.C,R71*%
X112147500Y-92035000D03*
X112147500Y-93685000D03*
%TD*%
D19*
%TO.C,C117*%
X153140000Y-125550000D03*
X154690000Y-125550000D03*
%TD*%
D18*
%TO.C,C171*%
X183270000Y-83560000D03*
X183270000Y-82010000D03*
%TD*%
D17*
%TO.C,C13*%
X185210000Y-64145000D03*
X185210000Y-65695000D03*
%TD*%
D10*
%TO.C,PTC6*%
X94910000Y-61035000D03*
X94910000Y-62685000D03*
%TD*%
D24*
%TO.C,H3*%
X197930172Y-141500000D03*
%TD*%
D28*
%TO.C,R116*%
X181750000Y-83610000D03*
X181750000Y-81960000D03*
%TD*%
D50*
%TO.C,Q4*%
X106622000Y-94829999D03*
X106622000Y-96730001D03*
X108633000Y-95780000D03*
%TD*%
D51*
%TO.C,U3*%
X195644781Y-85199466D03*
X195144655Y-85199466D03*
X194644529Y-85199466D03*
X194144403Y-85199466D03*
X193644277Y-85199466D03*
X193144151Y-85199466D03*
D52*
X192489466Y-85854151D03*
X192489466Y-86354277D03*
X192489466Y-86854403D03*
X192489466Y-87354529D03*
X192489466Y-87854655D03*
X192489466Y-88354781D03*
D51*
X193144151Y-89009466D03*
X193644277Y-89009466D03*
X194144403Y-89009466D03*
X194644529Y-89009466D03*
X195144655Y-89009466D03*
X195644781Y-89009466D03*
D52*
X196299466Y-88354781D03*
X196299466Y-87854655D03*
X196299466Y-87354529D03*
X196299466Y-86854403D03*
X196299466Y-86354277D03*
X196299466Y-85854151D03*
D53*
X194394466Y-87104466D03*
%TD*%
D19*
%TO.C,C107*%
X153240000Y-79150000D03*
X154790000Y-79150000D03*
%TD*%
D20*
%TO.C,*%
X175820000Y-128080000D03*
%TD*%
D19*
%TO.C,C59*%
X187125000Y-92672500D03*
X188675000Y-92672500D03*
%TD*%
D11*
%TO.C,D27*%
X187605000Y-74180000D03*
X187605000Y-72780000D03*
%TD*%
D20*
%TO.C,*%
X180600000Y-128080000D03*
%TD*%
D28*
%TO.C,R117*%
X180240000Y-83605000D03*
X180240000Y-81955000D03*
%TD*%
%TO.C,R88*%
X173230000Y-124265000D03*
X173230000Y-122615000D03*
%TD*%
D20*
%TO.C,*%
X172155000Y-96160000D03*
%TD*%
D29*
%TO.C,R115*%
X180825000Y-95880000D03*
X182475000Y-95880000D03*
%TD*%
D13*
%TO.C,C29*%
X199867200Y-97464466D03*
X198317200Y-97464466D03*
%TD*%
D12*
%TO.C,D9*%
X96320000Y-80720000D03*
X96320000Y-82120000D03*
%TD*%
D19*
%TO.C,C169*%
X180875000Y-99080000D03*
X182425000Y-99080000D03*
%TD*%
D25*
%TO.C,R38*%
X178765000Y-71010000D03*
X177115000Y-71010000D03*
%TD*%
D42*
%TO.C,U6*%
X180505632Y-75807865D03*
X180152078Y-76161418D03*
X179798525Y-76514972D03*
X179444972Y-76868525D03*
X179091418Y-77222078D03*
X178737865Y-77575632D03*
D43*
X178737865Y-78544368D03*
X179091418Y-78897922D03*
X179444972Y-79251475D03*
X179798525Y-79605028D03*
X180152078Y-79958582D03*
X180505632Y-80312135D03*
D44*
X181474368Y-80312135D03*
X181827922Y-79958582D03*
X182181475Y-79605028D03*
X182535028Y-79251475D03*
X182888582Y-78897922D03*
X183242135Y-78544368D03*
D41*
X183242135Y-77575632D03*
X182888582Y-77222078D03*
X182535028Y-76868525D03*
X182181475Y-76514972D03*
X181827922Y-76161418D03*
X181474368Y-75807865D03*
D54*
X180990000Y-78060000D03*
%TD*%
D28*
%TO.C,R125*%
X89740000Y-101775000D03*
X89740000Y-100125000D03*
%TD*%
D29*
%TO.C,R107*%
X108375000Y-116940000D03*
X110025000Y-116940000D03*
%TD*%
D28*
%TO.C,R113*%
X102770000Y-101770000D03*
X102770000Y-100120000D03*
%TD*%
%TO.C,R128*%
X93550000Y-101765000D03*
X93550000Y-100115000D03*
%TD*%
D12*
%TO.C,D17*%
X189005000Y-72780000D03*
X189005000Y-74180000D03*
%TD*%
D21*
%TO.C,RN5*%
X170024998Y-127648415D03*
X169524998Y-127648415D03*
X169024998Y-127648415D03*
X168524998Y-127648415D03*
X168024998Y-127648415D03*
X167524998Y-127648415D03*
X167024998Y-127648415D03*
X166524998Y-127648415D03*
X166524998Y-129448415D03*
X167024998Y-129448415D03*
X167524998Y-129448415D03*
X168024998Y-129448415D03*
X168524998Y-129448415D03*
X169024998Y-129448415D03*
X169524998Y-129448415D03*
X170024998Y-129448415D03*
%TD*%
D13*
%TO.C,C34*%
X175055000Y-92860000D03*
X173505000Y-92860000D03*
%TD*%
D20*
%TO.C,*%
X177650000Y-129255000D03*
%TD*%
D10*
%TO.C,PTC3*%
X94930000Y-64035000D03*
X94930000Y-65685000D03*
%TD*%
D13*
%TO.C,C101*%
X135515000Y-70090000D03*
X133965000Y-70090000D03*
%TD*%
D27*
%TO.C,C60*%
X179475000Y-107975000D03*
X179475000Y-105275000D03*
%TD*%
D18*
%TO.C,C133*%
X91510000Y-125985000D03*
X91510000Y-124435000D03*
%TD*%
D17*
%TO.C,C49*%
X184920000Y-82010000D03*
X184920000Y-83560000D03*
%TD*%
D25*
%TO.C,R76*%
X135565000Y-92780000D03*
X133915000Y-92780000D03*
%TD*%
D10*
%TO.C,R101*%
X177070000Y-78810000D03*
X177070000Y-80460000D03*
%TD*%
D29*
%TO.C,R53*%
X190266557Y-115694730D03*
X191916557Y-115694730D03*
%TD*%
D20*
%TO.C,*%
X179650000Y-131470000D03*
%TD*%
D12*
%TO.C,D10*%
X187605000Y-75300000D03*
X187605000Y-76700000D03*
%TD*%
D28*
%TO.C,R2*%
X195700000Y-76133500D03*
X195700000Y-74483500D03*
%TD*%
D26*
%TO.C,D5*%
X114401000Y-69350001D03*
X114401000Y-72325001D03*
%TD*%
D20*
%TO.C,*%
X183380000Y-126865000D03*
%TD*%
%TO.C,*%
X193940000Y-87710000D03*
%TD*%
%TO.C,*%
X175810000Y-131470000D03*
%TD*%
%TO.C,*%
X183390000Y-129255000D03*
%TD*%
D10*
%TO.C,R44*%
X198440000Y-129985000D03*
X198440000Y-131635000D03*
%TD*%
D55*
%TO.C,U11*%
X182865000Y-121535000D03*
X181165000Y-121535000D03*
X179465000Y-121535000D03*
X177765000Y-121535000D03*
X176065000Y-121535000D03*
D56*
X179465000Y-130685000D03*
%TD*%
D20*
%TO.C,*%
X180600000Y-126875000D03*
%TD*%
D17*
%TO.C,C102*%
X110617500Y-95115000D03*
X110617500Y-96665000D03*
%TD*%
D46*
%TO.C,C88*%
X185350000Y-117495000D03*
X185350000Y-114420000D03*
%TD*%
D20*
%TO.C,*%
X175810000Y-129265000D03*
%TD*%
D57*
%TO.C,U4*%
X181940002Y-65235000D03*
X180990001Y-65235000D03*
X180040000Y-65235000D03*
X180040000Y-67965500D03*
X180990001Y-67965500D03*
X181940002Y-67965500D03*
%TD*%
D12*
%TO.C,D26*%
X189005000Y-61480000D03*
X189005000Y-62880000D03*
%TD*%
D17*
%TO.C,C12*%
X174964769Y-64166709D03*
X174964769Y-65716709D03*
%TD*%
D25*
%TO.C,R80*%
X125665000Y-95110000D03*
X124015000Y-95110000D03*
%TD*%
D26*
%TO.C,D21*%
X109491000Y-69352501D03*
X109491000Y-72327501D03*
%TD*%
D10*
%TO.C,R119*%
X101220000Y-124385000D03*
X101220000Y-126035000D03*
%TD*%
D20*
%TO.C,*%
X175820000Y-126875000D03*
%TD*%
D17*
%TO.C,C39*%
X177190000Y-72510000D03*
X177190000Y-74060000D03*
%TD*%
%TO.C,C148*%
X177095000Y-81990000D03*
X177095000Y-83540000D03*
%TD*%
D20*
%TO.C,*%
X178590000Y-131460000D03*
%TD*%
D29*
%TO.C,R102*%
X180825000Y-97580000D03*
X182475000Y-97580000D03*
%TD*%
D17*
%TO.C,C54*%
X186409999Y-82010000D03*
X186409999Y-83560000D03*
%TD*%
D19*
%TO.C,C74*%
X141420000Y-102090000D03*
X142970000Y-102090000D03*
%TD*%
D20*
%TO.C,*%
X177650000Y-131460000D03*
%TD*%
D58*
%TO.C,U28*%
X171739999Y-97296400D03*
X172240000Y-97296400D03*
X172740000Y-97296400D03*
X173240001Y-97296400D03*
D59*
X173963200Y-96573201D03*
X173963200Y-96073200D03*
X173963200Y-95573200D03*
X173963200Y-95073199D03*
D58*
X173240001Y-94350000D03*
X172740000Y-94350000D03*
X172240000Y-94350000D03*
X171739999Y-94350000D03*
D59*
X171016800Y-95073199D03*
X171016800Y-95573200D03*
X171016800Y-96073200D03*
X171016800Y-96573201D03*
D60*
X172490000Y-95823200D03*
%TD*%
D17*
%TO.C,C75*%
X195520000Y-130035000D03*
X195520000Y-131585000D03*
%TD*%
D20*
%TO.C,*%
X172830000Y-95485000D03*
%TD*%
D61*
%TO.C,SW2*%
X111390000Y-98040000D03*
X111390000Y-101440000D03*
%TD*%
D20*
%TO.C,*%
X183390000Y-130460000D03*
%TD*%
D24*
%TO.C,H4*%
X89930214Y-141500000D03*
%TD*%
D10*
%TO.C,R72*%
X112147500Y-95070000D03*
X112147500Y-96720000D03*
%TD*%
D25*
%TO.C,R79*%
X154500000Y-95140000D03*
X152850000Y-95140000D03*
%TD*%
%TO.C,R75*%
X98572500Y-88970000D03*
X96922500Y-88970000D03*
%TD*%
%TO.C,R78*%
X154500000Y-97772500D03*
X152850000Y-97772500D03*
%TD*%
D28*
%TO.C,R25*%
X185205231Y-68875000D03*
X185205231Y-67225000D03*
%TD*%
D10*
%TO.C,PTC12*%
X191835000Y-75390000D03*
X191835000Y-77040000D03*
%TD*%
D20*
%TO.C,*%
X178590000Y-129255000D03*
%TD*%
D11*
%TO.C,D13*%
X189005000Y-65400000D03*
X189005000Y-64000000D03*
%TD*%
D18*
%TO.C,C37*%
X190380000Y-95997500D03*
X190380000Y-94447500D03*
%TD*%
D10*
%TO.C,PTC4*%
X94930000Y-70035000D03*
X94930000Y-71685000D03*
%TD*%
D17*
%TO.C,C68*%
X182755000Y-106660000D03*
X182755000Y-108210000D03*
%TD*%
D25*
%TO.C,R99*%
X169230000Y-95114300D03*
X167580000Y-95114300D03*
%TD*%
D28*
%TO.C,R28*%
X196830000Y-99035000D03*
X196830000Y-97385000D03*
%TD*%
D20*
%TO.C,*%
X181532500Y-129267500D03*
%TD*%
%TO.C,*%
X181522500Y-128082500D03*
%TD*%
D18*
%TO.C,C86*%
X196790000Y-108215313D03*
X196790000Y-106665313D03*
%TD*%
D62*
%TO.C,RN4*%
X117990000Y-64850000D03*
X118490000Y-64850000D03*
X118990000Y-64850000D03*
X119490000Y-64850000D03*
X119990000Y-64850000D03*
X120490000Y-64850000D03*
X120990000Y-64850000D03*
X121490000Y-64850000D03*
X121490000Y-63050000D03*
X120990000Y-63050000D03*
X120490000Y-63050000D03*
X119990000Y-63050000D03*
X119490000Y-63050000D03*
X118990000Y-63050000D03*
X118490000Y-63050000D03*
X117990000Y-63050000D03*
%TD*%
D19*
%TO.C,C62*%
X169955000Y-100635000D03*
X171505000Y-100635000D03*
%TD*%
D50*
%TO.C,Q3*%
X106632000Y-90959999D03*
X106632000Y-92860001D03*
X108643000Y-91910000D03*
%TD*%
D29*
%TO.C,R105*%
X175510000Y-85010000D03*
X177160000Y-85010000D03*
%TD*%
D10*
%TO.C,R31*%
X195330000Y-97389466D03*
X195330000Y-99039466D03*
%TD*%
D20*
%TO.C,*%
X179650000Y-130470000D03*
%TD*%
D10*
%TO.C,PTC2*%
X94910000Y-58035000D03*
X94910000Y-59685000D03*
%TD*%
D28*
%TO.C,R58*%
X173220000Y-121305000D03*
X173220000Y-119655000D03*
%TD*%
D29*
%TO.C,R104*%
X175510000Y-86470000D03*
X177160000Y-86470000D03*
%TD*%
D12*
%TO.C,D19*%
X96320000Y-77725000D03*
X96320000Y-79125000D03*
%TD*%
%TO.C,D7*%
X96530000Y-58360000D03*
X96530000Y-59760000D03*
%TD*%
D18*
%TO.C,C64*%
X175570000Y-77261709D03*
X175570000Y-75711709D03*
%TD*%
D25*
%TO.C,PTC10*%
X92260000Y-132310000D03*
X90610000Y-132310000D03*
%TD*%
D28*
%TO.C,R81*%
X96760000Y-126035000D03*
X96760000Y-124385000D03*
%TD*%
D29*
%TO.C,R37*%
X183215000Y-70985000D03*
X184865000Y-70985000D03*
%TD*%
D20*
%TO.C,*%
X181532500Y-130472500D03*
%TD*%
D21*
%TO.C,RN7*%
X142080000Y-127830000D03*
X141580000Y-127830000D03*
X141080000Y-127830000D03*
X140580000Y-127830000D03*
X140080000Y-127830000D03*
X139580000Y-127830000D03*
X139080000Y-127830000D03*
X138580000Y-127830000D03*
X138580000Y-129630000D03*
X139080000Y-129630000D03*
X139580000Y-129630000D03*
X140080000Y-129630000D03*
X140580000Y-129630000D03*
X141080000Y-129630000D03*
X141580000Y-129630000D03*
X142080000Y-129630000D03*
%TD*%
D20*
%TO.C,*%
X180610000Y-129265000D03*
%TD*%
%TO.C,*%
X179650000Y-129265000D03*
%TD*%
D25*
%TO.C,R97*%
X185750000Y-91172500D03*
X184100000Y-91172500D03*
%TD*%
D19*
%TO.C,C73*%
X182765000Y-104535000D03*
X184315000Y-104535000D03*
%TD*%
D10*
%TO.C,R118*%
X99760000Y-124385000D03*
X99760000Y-126035000D03*
%TD*%
D20*
%TO.C,*%
X178600000Y-128070000D03*
%TD*%
D18*
%TO.C,C83*%
X195330000Y-103955000D03*
X195330000Y-102405000D03*
%TD*%
D62*
%TO.C,RN1*%
X163887501Y-64852500D03*
X164387501Y-64852500D03*
X164887501Y-64852500D03*
X165387501Y-64852500D03*
X165887501Y-64852500D03*
X166387501Y-64852500D03*
X166887501Y-64852500D03*
X167387501Y-64852500D03*
X167387501Y-63052500D03*
X166887501Y-63052500D03*
X166387501Y-63052500D03*
X165887501Y-63052500D03*
X165387501Y-63052500D03*
X164887501Y-63052500D03*
X164387501Y-63052500D03*
X163887501Y-63052500D03*
%TD*%
D18*
%TO.C,C134*%
X93040000Y-125985000D03*
X93040000Y-124435000D03*
%TD*%
D29*
%TO.C,R16*%
X188924466Y-85155000D03*
X190574466Y-85155000D03*
%TD*%
D63*
%TO.C,U10*%
X198820001Y-102429685D03*
X197870000Y-102429685D03*
X196920002Y-102429685D03*
X196920002Y-105179685D03*
X197870000Y-105179685D03*
X198820001Y-105179685D03*
%TD*%
D62*
%TO.C,RN3*%
X135190000Y-64850000D03*
X135690000Y-64850000D03*
X136190000Y-64850000D03*
X136690000Y-64850000D03*
X137190000Y-64850000D03*
X137690000Y-64850000D03*
X138190000Y-64850000D03*
X138690000Y-64850000D03*
X138690000Y-63050000D03*
X138190000Y-63050000D03*
X137690000Y-63050000D03*
X137190000Y-63050000D03*
X136690000Y-63050000D03*
X136190000Y-63050000D03*
X135690000Y-63050000D03*
X135190000Y-63050000D03*
%TD*%
%TO.C,RN2*%
X145992500Y-64852500D03*
X146492500Y-64852500D03*
X146992500Y-64852500D03*
X147492500Y-64852500D03*
X147992500Y-64852500D03*
X148492500Y-64852500D03*
X148992500Y-64852500D03*
X149492500Y-64852500D03*
X149492500Y-63052500D03*
X148992500Y-63052500D03*
X148492500Y-63052500D03*
X147992500Y-63052500D03*
X147492500Y-63052500D03*
X146992500Y-63052500D03*
X146492500Y-63052500D03*
X145992500Y-63052500D03*
%TD*%
D20*
%TO.C,*%
X179640000Y-128080000D03*
%TD*%
D17*
%TO.C,C69*%
X141435000Y-104540000D03*
X141435000Y-106090000D03*
%TD*%
D18*
%TO.C,C38*%
X184790000Y-74035000D03*
X184790000Y-72485000D03*
%TD*%
D10*
%TO.C,R29*%
X181790000Y-69410000D03*
X181790000Y-71060000D03*
%TD*%
D17*
%TO.C,C172*%
X178730000Y-82005000D03*
X178730000Y-83555000D03*
%TD*%
D13*
%TO.C,C52*%
X182420000Y-102202500D03*
X180870000Y-102202500D03*
%TD*%
D17*
%TO.C,C71*%
X139945000Y-104540000D03*
X139945000Y-106090000D03*
%TD*%
D29*
%TO.C,R23*%
X188925000Y-88120000D03*
X190575000Y-88120000D03*
%TD*%
D10*
%TO.C,R12*%
X176430000Y-64117000D03*
X176430000Y-65767000D03*
%TD*%
D39*
%TO.C,P17*%
X108380000Y-63655000D03*
D40*
X108380000Y-61655000D03*
%TD*%
D13*
%TO.C,C110*%
X135365000Y-113590000D03*
X133815000Y-113590000D03*
%TD*%
D20*
%TO.C,*%
X174850000Y-130470000D03*
%TD*%
D13*
%TO.C,C150*%
X182410000Y-91172500D03*
X180860000Y-91172500D03*
%TD*%
D17*
%TO.C,C31*%
X180190000Y-72510000D03*
X180190000Y-74060000D03*
%TD*%
D13*
%TO.C,C106*%
X135515000Y-71550000D03*
X133965000Y-71550000D03*
%TD*%
D28*
%TO.C,R68*%
X104637500Y-96705000D03*
X104637500Y-95055000D03*
%TD*%
D20*
%TO.C,*%
X193940000Y-86505000D03*
%TD*%
D17*
%TO.C,C89*%
X181255000Y-116155000D03*
X181255000Y-117705000D03*
%TD*%
D64*
%TO.C,C135*%
X94900000Y-124680000D03*
X94900000Y-127380000D03*
%TD*%
D20*
%TO.C,*%
X181522500Y-126877500D03*
%TD*%
D65*
%TO.C,P5*%
X188585101Y-138560000D03*
D66*
X188585101Y-141100000D03*
X186045101Y-138560000D03*
X186045101Y-141100000D03*
X183505101Y-138560000D03*
X183505101Y-141100000D03*
X180965101Y-138560000D03*
X180965101Y-141100000D03*
X178425101Y-138560000D03*
X178425101Y-141100000D03*
X175885101Y-138560000D03*
X175885101Y-141100000D03*
X173345101Y-138560000D03*
X173345101Y-141100000D03*
X170805101Y-138560000D03*
X170805101Y-141100000D03*
%TD*%
D67*
%TO.C,P11*%
X198940000Y-75320000D03*
X193940000Y-75320000D03*
D68*
X200140000Y-80020000D03*
X194440000Y-78920000D03*
D69*
X194440000Y-71720000D03*
D68*
X199140000Y-71320000D03*
X197940000Y-78920000D03*
D69*
X196440000Y-71720000D03*
%TD*%
D39*
%TO.C,P21*%
X92290000Y-136030000D03*
D40*
X92290000Y-134030000D03*
%TD*%
D70*
%TO.C,P16*%
X191770000Y-125660000D03*
D66*
X191770000Y-123120000D03*
X194310000Y-125660000D03*
X194310000Y-123120000D03*
%TD*%
D70*
%TO.C,P4*%
X99305101Y-54240000D03*
D66*
X99305101Y-51700000D03*
X101845101Y-54240000D03*
X101845101Y-51700000D03*
X104385101Y-54240000D03*
X104385101Y-51700000D03*
X106925101Y-54240000D03*
X106925101Y-51700000D03*
X109465101Y-54240000D03*
X109465101Y-51700000D03*
X112005101Y-54240000D03*
X112005101Y-51700000D03*
X114545101Y-54240000D03*
X114545101Y-51700000D03*
X117085101Y-54240000D03*
X117085101Y-51700000D03*
%TD*%
D65*
%TO.C,P7*%
X140977601Y-138560000D03*
D66*
X140977601Y-141100000D03*
X138437601Y-138560000D03*
X138437601Y-141100000D03*
X135897601Y-138560000D03*
X135897601Y-141100000D03*
X133357601Y-138560000D03*
X133357601Y-141100000D03*
X130817601Y-138560000D03*
X130817601Y-141100000D03*
X128277601Y-138560000D03*
X128277601Y-141100000D03*
X125737601Y-138560000D03*
X125737601Y-141100000D03*
X123197601Y-138560000D03*
X123197601Y-141100000D03*
%TD*%
D70*
%TO.C,P1*%
X170805101Y-54240000D03*
D66*
X170805101Y-51700000D03*
X173345101Y-54240000D03*
X173345101Y-51700000D03*
X175885101Y-54240000D03*
X175885101Y-51700000D03*
X178425101Y-54240000D03*
X178425101Y-51700000D03*
X180965101Y-54240000D03*
X180965101Y-51700000D03*
X183505101Y-54240000D03*
X183505101Y-51700000D03*
X186045101Y-54240000D03*
X186045101Y-51700000D03*
X188585101Y-54240000D03*
X188585101Y-51700000D03*
%TD*%
D70*
%TO.C,P2*%
X147020101Y-54240000D03*
D66*
X147020101Y-51700000D03*
X149560101Y-54240000D03*
X149560101Y-51700000D03*
X152100101Y-54240000D03*
X152100101Y-51700000D03*
X154640101Y-54240000D03*
X154640101Y-51700000D03*
X157180101Y-54240000D03*
X157180101Y-51700000D03*
X159720101Y-54240000D03*
X159720101Y-51700000D03*
X162260101Y-54240000D03*
X162260101Y-51700000D03*
X164800101Y-54240000D03*
X164800101Y-51700000D03*
%TD*%
D65*
%TO.C,P6*%
X164800101Y-138560000D03*
D66*
X164800101Y-141100000D03*
X162260101Y-138560000D03*
X162260101Y-141100000D03*
X159720101Y-138560000D03*
X159720101Y-141100000D03*
X157180101Y-138560000D03*
X157180101Y-141100000D03*
X154640101Y-138560000D03*
X154640101Y-141100000D03*
X152100101Y-138560000D03*
X152100101Y-141100000D03*
X149560101Y-138560000D03*
X149560101Y-141100000D03*
X147020101Y-138560000D03*
X147020101Y-141100000D03*
%TD*%
D65*
%TO.C,P8*%
X117085101Y-138560000D03*
D66*
X117085101Y-141100000D03*
X114545101Y-138560000D03*
X114545101Y-141100000D03*
X112005101Y-138560000D03*
X112005101Y-141100000D03*
X109465101Y-138560000D03*
X109465101Y-141100000D03*
X106925101Y-138560000D03*
X106925101Y-141100000D03*
X104385101Y-138560000D03*
X104385101Y-141100000D03*
X101845101Y-138560000D03*
X101845101Y-141100000D03*
X99305101Y-138560000D03*
X99305101Y-141100000D03*
%TD*%
D71*
%TO.C,P18*%
X90510000Y-88100000D03*
X90510000Y-93100000D03*
D72*
X87810000Y-87100000D03*
X87810000Y-94100000D03*
%TD*%
D70*
%TO.C,P3*%
X123197601Y-54240000D03*
D66*
X123197601Y-51700000D03*
X125737601Y-54240000D03*
X125737601Y-51700000D03*
X128277601Y-54240000D03*
X128277601Y-51700000D03*
X130817601Y-54240000D03*
X130817601Y-51700000D03*
X133357601Y-54240000D03*
X133357601Y-51700000D03*
X135897601Y-54240000D03*
X135897601Y-51700000D03*
X138437601Y-54240000D03*
X138437601Y-51700000D03*
X140977601Y-54240000D03*
X140977601Y-51700000D03*
%TD*%
D73*
%TO.C,P12*%
X198990000Y-59220000D03*
X201490000Y-59220000D03*
X193990000Y-64220000D03*
X198990000Y-69220000D03*
X201490000Y-69220000D03*
D74*
X198990000Y-64220000D03*
D75*
X193990000Y-69220000D03*
X193990000Y-59220000D03*
X193990000Y-66720000D03*
X193990000Y-61720000D03*
%TD*%
D39*
%TO.C,P14*%
X92280000Y-70790000D03*
D40*
X92280000Y-68790000D03*
X92280000Y-66790000D03*
X92280000Y-64790000D03*
X92280000Y-62790000D03*
X92280000Y-60790000D03*
X92280000Y-58790000D03*
X92280000Y-56790000D03*
%TD*%
D76*
%TO.C,P9*%
X197940000Y-134110000D03*
D75*
X191640000Y-137410000D03*
X191640000Y-128810000D03*
X191640000Y-134010000D03*
X198940000Y-127910000D03*
X198940000Y-137810000D03*
%TD*%
D39*
%TO.C,P15*%
X92270000Y-81710000D03*
D40*
X92270000Y-79710000D03*
X92270000Y-77710000D03*
%TD*%
M02*
