%TF.GenerationSoftware,KiCad,Pcbnew,(6.0.11)*%
%TF.CreationDate,2024-03-19T14:27:06-04:00*%
%TF.ProjectId,Ultrasonic Sound Steering - Control Rev. B,556c7472-6173-46f6-9e69-6320536f756e,rev?*%
%TF.SameCoordinates,Original*%
%TF.FileFunction,Drillmap*%
%TF.FilePolarity,Positive*%
%FSLAX45Y45*%
G04 Gerber Fmt 4.5, Leading zero omitted, Abs format (unit mm)*
G04 Created by KiCad (PCBNEW (6.0.11)) date 2024-03-19 14:27:06*
%MOMM*%
%LPD*%
G01*
G04 APERTURE LIST*
%ADD10C,0.100000*%
%ADD11C,0.200000*%
%ADD12C,0.120000*%
%ADD13C,0.130000*%
%ADD14C,0.160000*%
G04 APERTURE END LIST*
D10*
X8743635Y-4685721D02*
X20042792Y-4685721D01*
X8543220Y-14400300D02*
G75*
G03*
X8743214Y-14600300I200000J0D01*
G01*
X20242799Y-4885721D02*
G75*
G03*
X20042792Y-4685721I-199999J1D01*
G01*
X20242792Y-4885721D02*
X20242792Y-14399879D01*
X8543214Y-14400300D02*
X8543635Y-4885721D01*
X20042792Y-14599879D02*
X8743214Y-14600300D01*
X8743635Y-4685725D02*
G75*
G03*
X8543635Y-4885721I-5J-199995D01*
G01*
X20042792Y-14599882D02*
G75*
G03*
X20242792Y-14399879I-2J200002D01*
G01*
D11*
D12*
X19339000Y-6362000D02*
X19459000Y-6482000D01*
X19459000Y-6362000D02*
X19339000Y-6482000D01*
X19839000Y-5862000D02*
X19959000Y-5982000D01*
X19959000Y-5862000D02*
X19839000Y-5982000D01*
X19839000Y-6862000D02*
X19959000Y-6982000D01*
X19959000Y-6862000D02*
X19839000Y-6982000D01*
X20089000Y-5862000D02*
X20209000Y-5982000D01*
X20209000Y-5862000D02*
X20089000Y-5982000D01*
X20089000Y-6862000D02*
X20209000Y-6982000D01*
X20209000Y-6862000D02*
X20089000Y-6982000D01*
D13*
X19859000Y-13411000D02*
G75*
G03*
X19859000Y-13411000I-65000J0D01*
G01*
D14*
X19394000Y-7452000D02*
X19394000Y-7612000D01*
X19314000Y-7532000D02*
X19474000Y-7532000D01*
X19894000Y-7452000D02*
X19894000Y-7612000D01*
X19814000Y-7532000D02*
X19974000Y-7532000D01*
D11*
X8795833Y-14915776D02*
X8795833Y-14715776D01*
X8843452Y-14715776D01*
X8872023Y-14725300D01*
X8891071Y-14744348D01*
X8900595Y-14763395D01*
X8910118Y-14801490D01*
X8910118Y-14830062D01*
X8900595Y-14868157D01*
X8891071Y-14887205D01*
X8872023Y-14906252D01*
X8843452Y-14915776D01*
X8795833Y-14915776D01*
X8995833Y-14915776D02*
X8995833Y-14782443D01*
X8995833Y-14820538D02*
X9005356Y-14801490D01*
X9014880Y-14791967D01*
X9033928Y-14782443D01*
X9052976Y-14782443D01*
X9119642Y-14915776D02*
X9119642Y-14782443D01*
X9119642Y-14715776D02*
X9110118Y-14725300D01*
X9119642Y-14734824D01*
X9129166Y-14725300D01*
X9119642Y-14715776D01*
X9119642Y-14734824D01*
X9243452Y-14915776D02*
X9224404Y-14906252D01*
X9214880Y-14887205D01*
X9214880Y-14715776D01*
X9348214Y-14915776D02*
X9329166Y-14906252D01*
X9319642Y-14887205D01*
X9319642Y-14715776D01*
X9576785Y-14915776D02*
X9576785Y-14715776D01*
X9643452Y-14858633D01*
X9710118Y-14715776D01*
X9710118Y-14915776D01*
X9891071Y-14915776D02*
X9891071Y-14811014D01*
X9881547Y-14791967D01*
X9862499Y-14782443D01*
X9824404Y-14782443D01*
X9805356Y-14791967D01*
X9891071Y-14906252D02*
X9872023Y-14915776D01*
X9824404Y-14915776D01*
X9805356Y-14906252D01*
X9795833Y-14887205D01*
X9795833Y-14868157D01*
X9805356Y-14849109D01*
X9824404Y-14839586D01*
X9872023Y-14839586D01*
X9891071Y-14830062D01*
X9986309Y-14782443D02*
X9986309Y-14982443D01*
X9986309Y-14791967D02*
X10005356Y-14782443D01*
X10043452Y-14782443D01*
X10062499Y-14791967D01*
X10072023Y-14801490D01*
X10081547Y-14820538D01*
X10081547Y-14877681D01*
X10072023Y-14896728D01*
X10062499Y-14906252D01*
X10043452Y-14915776D01*
X10005356Y-14915776D01*
X9986309Y-14906252D01*
X10167261Y-14896728D02*
X10176785Y-14906252D01*
X10167261Y-14915776D01*
X10157737Y-14906252D01*
X10167261Y-14896728D01*
X10167261Y-14915776D01*
X10167261Y-14791967D02*
X10176785Y-14801490D01*
X10167261Y-14811014D01*
X10157737Y-14801490D01*
X10167261Y-14791967D01*
X10167261Y-14811014D01*
D12*
X8418214Y-15185300D02*
X8538214Y-15305300D01*
X8538214Y-15185300D02*
X8418214Y-15305300D01*
D11*
X8900595Y-15335776D02*
X8786309Y-15335776D01*
X8843452Y-15335776D02*
X8843452Y-15135776D01*
X8824404Y-15164348D01*
X8805356Y-15183395D01*
X8786309Y-15192919D01*
X8986309Y-15316728D02*
X8995833Y-15326252D01*
X8986309Y-15335776D01*
X8976785Y-15326252D01*
X8986309Y-15316728D01*
X8986309Y-15335776D01*
X9072023Y-15154824D02*
X9081547Y-15145300D01*
X9100595Y-15135776D01*
X9148214Y-15135776D01*
X9167261Y-15145300D01*
X9176785Y-15154824D01*
X9186309Y-15173871D01*
X9186309Y-15192919D01*
X9176785Y-15221490D01*
X9062499Y-15335776D01*
X9186309Y-15335776D01*
X9310118Y-15135776D02*
X9329166Y-15135776D01*
X9348214Y-15145300D01*
X9357737Y-15154824D01*
X9367261Y-15173871D01*
X9376785Y-15211967D01*
X9376785Y-15259586D01*
X9367261Y-15297681D01*
X9357737Y-15316728D01*
X9348214Y-15326252D01*
X9329166Y-15335776D01*
X9310118Y-15335776D01*
X9291071Y-15326252D01*
X9281547Y-15316728D01*
X9272023Y-15297681D01*
X9262499Y-15259586D01*
X9262499Y-15211967D01*
X9272023Y-15173871D01*
X9281547Y-15154824D01*
X9291071Y-15145300D01*
X9310118Y-15135776D01*
X9500595Y-15135776D02*
X9519642Y-15135776D01*
X9538690Y-15145300D01*
X9548214Y-15154824D01*
X9557737Y-15173871D01*
X9567261Y-15211967D01*
X9567261Y-15259586D01*
X9557737Y-15297681D01*
X9548214Y-15316728D01*
X9538690Y-15326252D01*
X9519642Y-15335776D01*
X9500595Y-15335776D01*
X9481547Y-15326252D01*
X9472023Y-15316728D01*
X9462499Y-15297681D01*
X9452976Y-15259586D01*
X9452976Y-15211967D01*
X9462499Y-15173871D01*
X9472023Y-15154824D01*
X9481547Y-15145300D01*
X9500595Y-15135776D01*
X9652976Y-15335776D02*
X9652976Y-15202443D01*
X9652976Y-15221490D02*
X9662499Y-15211967D01*
X9681547Y-15202443D01*
X9710118Y-15202443D01*
X9729166Y-15211967D01*
X9738690Y-15231014D01*
X9738690Y-15335776D01*
X9738690Y-15231014D02*
X9748214Y-15211967D01*
X9767261Y-15202443D01*
X9795833Y-15202443D01*
X9814880Y-15211967D01*
X9824404Y-15231014D01*
X9824404Y-15335776D01*
X9919642Y-15335776D02*
X9919642Y-15202443D01*
X9919642Y-15221490D02*
X9929166Y-15211967D01*
X9948214Y-15202443D01*
X9976785Y-15202443D01*
X9995833Y-15211967D01*
X10005356Y-15231014D01*
X10005356Y-15335776D01*
X10005356Y-15231014D02*
X10014880Y-15211967D01*
X10033928Y-15202443D01*
X10062499Y-15202443D01*
X10081547Y-15211967D01*
X10091071Y-15231014D01*
X10091071Y-15335776D01*
X10481547Y-15126252D02*
X10310118Y-15383395D01*
X10738690Y-15135776D02*
X10757737Y-15135776D01*
X10776785Y-15145300D01*
X10786309Y-15154824D01*
X10795833Y-15173871D01*
X10805356Y-15211967D01*
X10805356Y-15259586D01*
X10795833Y-15297681D01*
X10786309Y-15316728D01*
X10776785Y-15326252D01*
X10757737Y-15335776D01*
X10738690Y-15335776D01*
X10719642Y-15326252D01*
X10710118Y-15316728D01*
X10700595Y-15297681D01*
X10691071Y-15259586D01*
X10691071Y-15211967D01*
X10700595Y-15173871D01*
X10710118Y-15154824D01*
X10719642Y-15145300D01*
X10738690Y-15135776D01*
X10891071Y-15316728D02*
X10900595Y-15326252D01*
X10891071Y-15335776D01*
X10881547Y-15326252D01*
X10891071Y-15316728D01*
X10891071Y-15335776D01*
X11024404Y-15135776D02*
X11043452Y-15135776D01*
X11062499Y-15145300D01*
X11072023Y-15154824D01*
X11081547Y-15173871D01*
X11091071Y-15211967D01*
X11091071Y-15259586D01*
X11081547Y-15297681D01*
X11072023Y-15316728D01*
X11062499Y-15326252D01*
X11043452Y-15335776D01*
X11024404Y-15335776D01*
X11005356Y-15326252D01*
X10995833Y-15316728D01*
X10986309Y-15297681D01*
X10976785Y-15259586D01*
X10976785Y-15211967D01*
X10986309Y-15173871D01*
X10995833Y-15154824D01*
X11005356Y-15145300D01*
X11024404Y-15135776D01*
X11262499Y-15202443D02*
X11262499Y-15335776D01*
X11214880Y-15126252D02*
X11167261Y-15269109D01*
X11291071Y-15269109D01*
X11348214Y-15135776D02*
X11481547Y-15135776D01*
X11395833Y-15335776D01*
X11548213Y-15154824D02*
X11557737Y-15145300D01*
X11576785Y-15135776D01*
X11624404Y-15135776D01*
X11643452Y-15145300D01*
X11652975Y-15154824D01*
X11662499Y-15173871D01*
X11662499Y-15192919D01*
X11652975Y-15221490D01*
X11538690Y-15335776D01*
X11662499Y-15335776D01*
X11738690Y-15135776D02*
X11738690Y-15173871D01*
X11814880Y-15135776D02*
X11814880Y-15173871D01*
X12110118Y-15411967D02*
X12100594Y-15402443D01*
X12081547Y-15373871D01*
X12072023Y-15354824D01*
X12062499Y-15326252D01*
X12052975Y-15278633D01*
X12052975Y-15240538D01*
X12062499Y-15192919D01*
X12072023Y-15164348D01*
X12081547Y-15145300D01*
X12100594Y-15116728D01*
X12110118Y-15107205D01*
X12281547Y-15135776D02*
X12186309Y-15135776D01*
X12176785Y-15231014D01*
X12186309Y-15221490D01*
X12205356Y-15211967D01*
X12252975Y-15211967D01*
X12272023Y-15221490D01*
X12281547Y-15231014D01*
X12291071Y-15250062D01*
X12291071Y-15297681D01*
X12281547Y-15316728D01*
X12272023Y-15326252D01*
X12252975Y-15335776D01*
X12205356Y-15335776D01*
X12186309Y-15326252D01*
X12176785Y-15316728D01*
X12529166Y-15335776D02*
X12529166Y-15135776D01*
X12614880Y-15335776D02*
X12614880Y-15231014D01*
X12605356Y-15211967D01*
X12586309Y-15202443D01*
X12557737Y-15202443D01*
X12538690Y-15211967D01*
X12529166Y-15221490D01*
X12738690Y-15335776D02*
X12719642Y-15326252D01*
X12710118Y-15316728D01*
X12700594Y-15297681D01*
X12700594Y-15240538D01*
X12710118Y-15221490D01*
X12719642Y-15211967D01*
X12738690Y-15202443D01*
X12767261Y-15202443D01*
X12786309Y-15211967D01*
X12795833Y-15221490D01*
X12805356Y-15240538D01*
X12805356Y-15297681D01*
X12795833Y-15316728D01*
X12786309Y-15326252D01*
X12767261Y-15335776D01*
X12738690Y-15335776D01*
X12919642Y-15335776D02*
X12900594Y-15326252D01*
X12891071Y-15307205D01*
X12891071Y-15135776D01*
X13072023Y-15326252D02*
X13052975Y-15335776D01*
X13014880Y-15335776D01*
X12995833Y-15326252D01*
X12986309Y-15307205D01*
X12986309Y-15231014D01*
X12995833Y-15211967D01*
X13014880Y-15202443D01*
X13052975Y-15202443D01*
X13072023Y-15211967D01*
X13081547Y-15231014D01*
X13081547Y-15250062D01*
X12986309Y-15269109D01*
X13157737Y-15326252D02*
X13176785Y-15335776D01*
X13214880Y-15335776D01*
X13233928Y-15326252D01*
X13243452Y-15307205D01*
X13243452Y-15297681D01*
X13233928Y-15278633D01*
X13214880Y-15269109D01*
X13186309Y-15269109D01*
X13167261Y-15259586D01*
X13157737Y-15240538D01*
X13157737Y-15231014D01*
X13167261Y-15211967D01*
X13186309Y-15202443D01*
X13214880Y-15202443D01*
X13233928Y-15211967D01*
X13310118Y-15411967D02*
X13319642Y-15402443D01*
X13338690Y-15373871D01*
X13348213Y-15354824D01*
X13357737Y-15326252D01*
X13367261Y-15278633D01*
X13367261Y-15240538D01*
X13357737Y-15192919D01*
X13348213Y-15164348D01*
X13338690Y-15145300D01*
X13319642Y-15116728D01*
X13310118Y-15107205D01*
X13672023Y-15411967D02*
X13662499Y-15402443D01*
X13643452Y-15373871D01*
X13633928Y-15354824D01*
X13624404Y-15326252D01*
X13614880Y-15278633D01*
X13614880Y-15240538D01*
X13624404Y-15192919D01*
X13633928Y-15164348D01*
X13643452Y-15145300D01*
X13662499Y-15116728D01*
X13672023Y-15107205D01*
X13748213Y-15202443D02*
X13748213Y-15335776D01*
X13748213Y-15221490D02*
X13757737Y-15211967D01*
X13776785Y-15202443D01*
X13805356Y-15202443D01*
X13824404Y-15211967D01*
X13833928Y-15231014D01*
X13833928Y-15335776D01*
X13957737Y-15335776D02*
X13938690Y-15326252D01*
X13929166Y-15316728D01*
X13919642Y-15297681D01*
X13919642Y-15240538D01*
X13929166Y-15221490D01*
X13938690Y-15211967D01*
X13957737Y-15202443D01*
X13986309Y-15202443D01*
X14005356Y-15211967D01*
X14014880Y-15221490D01*
X14024404Y-15240538D01*
X14024404Y-15297681D01*
X14014880Y-15316728D01*
X14005356Y-15326252D01*
X13986309Y-15335776D01*
X13957737Y-15335776D01*
X14081547Y-15202443D02*
X14157737Y-15202443D01*
X14110118Y-15135776D02*
X14110118Y-15307205D01*
X14119642Y-15326252D01*
X14138690Y-15335776D01*
X14157737Y-15335776D01*
X14376785Y-15202443D02*
X14376785Y-15402443D01*
X14376785Y-15211967D02*
X14395833Y-15202443D01*
X14433928Y-15202443D01*
X14452975Y-15211967D01*
X14462499Y-15221490D01*
X14472023Y-15240538D01*
X14472023Y-15297681D01*
X14462499Y-15316728D01*
X14452975Y-15326252D01*
X14433928Y-15335776D01*
X14395833Y-15335776D01*
X14376785Y-15326252D01*
X14586309Y-15335776D02*
X14567261Y-15326252D01*
X14557737Y-15307205D01*
X14557737Y-15135776D01*
X14748213Y-15335776D02*
X14748213Y-15231014D01*
X14738690Y-15211967D01*
X14719642Y-15202443D01*
X14681547Y-15202443D01*
X14662499Y-15211967D01*
X14748213Y-15326252D02*
X14729166Y-15335776D01*
X14681547Y-15335776D01*
X14662499Y-15326252D01*
X14652975Y-15307205D01*
X14652975Y-15288157D01*
X14662499Y-15269109D01*
X14681547Y-15259586D01*
X14729166Y-15259586D01*
X14748213Y-15250062D01*
X14814880Y-15202443D02*
X14891071Y-15202443D01*
X14843452Y-15135776D02*
X14843452Y-15307205D01*
X14852975Y-15326252D01*
X14872023Y-15335776D01*
X14891071Y-15335776D01*
X15033928Y-15326252D02*
X15014880Y-15335776D01*
X14976785Y-15335776D01*
X14957737Y-15326252D01*
X14948213Y-15307205D01*
X14948213Y-15231014D01*
X14957737Y-15211967D01*
X14976785Y-15202443D01*
X15014880Y-15202443D01*
X15033928Y-15211967D01*
X15043452Y-15231014D01*
X15043452Y-15250062D01*
X14948213Y-15269109D01*
X15214880Y-15335776D02*
X15214880Y-15135776D01*
X15214880Y-15326252D02*
X15195833Y-15335776D01*
X15157737Y-15335776D01*
X15138690Y-15326252D01*
X15129166Y-15316728D01*
X15119642Y-15297681D01*
X15119642Y-15240538D01*
X15129166Y-15221490D01*
X15138690Y-15211967D01*
X15157737Y-15202443D01*
X15195833Y-15202443D01*
X15214880Y-15211967D01*
X15291071Y-15411967D02*
X15300594Y-15402443D01*
X15319642Y-15373871D01*
X15329166Y-15354824D01*
X15338690Y-15326252D01*
X15348213Y-15278633D01*
X15348213Y-15240538D01*
X15338690Y-15192919D01*
X15329166Y-15164348D01*
X15319642Y-15145300D01*
X15300594Y-15116728D01*
X15291071Y-15107205D01*
D13*
X8538214Y-15509300D02*
G75*
G03*
X8538214Y-15509300I-65000J0D01*
G01*
D11*
X8900595Y-15599776D02*
X8786309Y-15599776D01*
X8843452Y-15599776D02*
X8843452Y-15399776D01*
X8824404Y-15428348D01*
X8805356Y-15447395D01*
X8786309Y-15456919D01*
X8986309Y-15580728D02*
X8995833Y-15590252D01*
X8986309Y-15599776D01*
X8976785Y-15590252D01*
X8986309Y-15580728D01*
X8986309Y-15599776D01*
X9062499Y-15399776D02*
X9186309Y-15399776D01*
X9119642Y-15475967D01*
X9148214Y-15475967D01*
X9167261Y-15485490D01*
X9176785Y-15495014D01*
X9186309Y-15514062D01*
X9186309Y-15561681D01*
X9176785Y-15580728D01*
X9167261Y-15590252D01*
X9148214Y-15599776D01*
X9091071Y-15599776D01*
X9072023Y-15590252D01*
X9062499Y-15580728D01*
X9310118Y-15399776D02*
X9329166Y-15399776D01*
X9348214Y-15409300D01*
X9357737Y-15418824D01*
X9367261Y-15437871D01*
X9376785Y-15475967D01*
X9376785Y-15523586D01*
X9367261Y-15561681D01*
X9357737Y-15580728D01*
X9348214Y-15590252D01*
X9329166Y-15599776D01*
X9310118Y-15599776D01*
X9291071Y-15590252D01*
X9281547Y-15580728D01*
X9272023Y-15561681D01*
X9262499Y-15523586D01*
X9262499Y-15475967D01*
X9272023Y-15437871D01*
X9281547Y-15418824D01*
X9291071Y-15409300D01*
X9310118Y-15399776D01*
X9500595Y-15399776D02*
X9519642Y-15399776D01*
X9538690Y-15409300D01*
X9548214Y-15418824D01*
X9557737Y-15437871D01*
X9567261Y-15475967D01*
X9567261Y-15523586D01*
X9557737Y-15561681D01*
X9548214Y-15580728D01*
X9538690Y-15590252D01*
X9519642Y-15599776D01*
X9500595Y-15599776D01*
X9481547Y-15590252D01*
X9472023Y-15580728D01*
X9462499Y-15561681D01*
X9452976Y-15523586D01*
X9452976Y-15475967D01*
X9462499Y-15437871D01*
X9472023Y-15418824D01*
X9481547Y-15409300D01*
X9500595Y-15399776D01*
X9652976Y-15599776D02*
X9652976Y-15466443D01*
X9652976Y-15485490D02*
X9662499Y-15475967D01*
X9681547Y-15466443D01*
X9710118Y-15466443D01*
X9729166Y-15475967D01*
X9738690Y-15495014D01*
X9738690Y-15599776D01*
X9738690Y-15495014D02*
X9748214Y-15475967D01*
X9767261Y-15466443D01*
X9795833Y-15466443D01*
X9814880Y-15475967D01*
X9824404Y-15495014D01*
X9824404Y-15599776D01*
X9919642Y-15599776D02*
X9919642Y-15466443D01*
X9919642Y-15485490D02*
X9929166Y-15475967D01*
X9948214Y-15466443D01*
X9976785Y-15466443D01*
X9995833Y-15475967D01*
X10005356Y-15495014D01*
X10005356Y-15599776D01*
X10005356Y-15495014D02*
X10014880Y-15475967D01*
X10033928Y-15466443D01*
X10062499Y-15466443D01*
X10081547Y-15475967D01*
X10091071Y-15495014D01*
X10091071Y-15599776D01*
X10481547Y-15390252D02*
X10310118Y-15647395D01*
X10738690Y-15399776D02*
X10757737Y-15399776D01*
X10776785Y-15409300D01*
X10786309Y-15418824D01*
X10795833Y-15437871D01*
X10805356Y-15475967D01*
X10805356Y-15523586D01*
X10795833Y-15561681D01*
X10786309Y-15580728D01*
X10776785Y-15590252D01*
X10757737Y-15599776D01*
X10738690Y-15599776D01*
X10719642Y-15590252D01*
X10710118Y-15580728D01*
X10700595Y-15561681D01*
X10691071Y-15523586D01*
X10691071Y-15475967D01*
X10700595Y-15437871D01*
X10710118Y-15418824D01*
X10719642Y-15409300D01*
X10738690Y-15399776D01*
X10891071Y-15580728D02*
X10900595Y-15590252D01*
X10891071Y-15599776D01*
X10881547Y-15590252D01*
X10891071Y-15580728D01*
X10891071Y-15599776D01*
X11024404Y-15399776D02*
X11043452Y-15399776D01*
X11062499Y-15409300D01*
X11072023Y-15418824D01*
X11081547Y-15437871D01*
X11091071Y-15475967D01*
X11091071Y-15523586D01*
X11081547Y-15561681D01*
X11072023Y-15580728D01*
X11062499Y-15590252D01*
X11043452Y-15599776D01*
X11024404Y-15599776D01*
X11005356Y-15590252D01*
X10995833Y-15580728D01*
X10986309Y-15561681D01*
X10976785Y-15523586D01*
X10976785Y-15475967D01*
X10986309Y-15437871D01*
X10995833Y-15418824D01*
X11005356Y-15409300D01*
X11024404Y-15399776D01*
X11272023Y-15399776D02*
X11176785Y-15399776D01*
X11167261Y-15495014D01*
X11176785Y-15485490D01*
X11195833Y-15475967D01*
X11243452Y-15475967D01*
X11262499Y-15485490D01*
X11272023Y-15495014D01*
X11281547Y-15514062D01*
X11281547Y-15561681D01*
X11272023Y-15580728D01*
X11262499Y-15590252D01*
X11243452Y-15599776D01*
X11195833Y-15599776D01*
X11176785Y-15590252D01*
X11167261Y-15580728D01*
X11472023Y-15599776D02*
X11357737Y-15599776D01*
X11414880Y-15599776D02*
X11414880Y-15399776D01*
X11395833Y-15428348D01*
X11376785Y-15447395D01*
X11357737Y-15456919D01*
X11548213Y-15418824D02*
X11557737Y-15409300D01*
X11576785Y-15399776D01*
X11624404Y-15399776D01*
X11643452Y-15409300D01*
X11652975Y-15418824D01*
X11662499Y-15437871D01*
X11662499Y-15456919D01*
X11652975Y-15485490D01*
X11538690Y-15599776D01*
X11662499Y-15599776D01*
X11738690Y-15399776D02*
X11738690Y-15437871D01*
X11814880Y-15399776D02*
X11814880Y-15437871D01*
X12110118Y-15675967D02*
X12100594Y-15666443D01*
X12081547Y-15637871D01*
X12072023Y-15618824D01*
X12062499Y-15590252D01*
X12052975Y-15542633D01*
X12052975Y-15504538D01*
X12062499Y-15456919D01*
X12072023Y-15428348D01*
X12081547Y-15409300D01*
X12100594Y-15380728D01*
X12110118Y-15371205D01*
X12291071Y-15599776D02*
X12176785Y-15599776D01*
X12233928Y-15599776D02*
X12233928Y-15399776D01*
X12214880Y-15428348D01*
X12195833Y-15447395D01*
X12176785Y-15456919D01*
X12529166Y-15599776D02*
X12529166Y-15399776D01*
X12614880Y-15599776D02*
X12614880Y-15495014D01*
X12605356Y-15475967D01*
X12586309Y-15466443D01*
X12557737Y-15466443D01*
X12538690Y-15475967D01*
X12529166Y-15485490D01*
X12738690Y-15599776D02*
X12719642Y-15590252D01*
X12710118Y-15580728D01*
X12700594Y-15561681D01*
X12700594Y-15504538D01*
X12710118Y-15485490D01*
X12719642Y-15475967D01*
X12738690Y-15466443D01*
X12767261Y-15466443D01*
X12786309Y-15475967D01*
X12795833Y-15485490D01*
X12805356Y-15504538D01*
X12805356Y-15561681D01*
X12795833Y-15580728D01*
X12786309Y-15590252D01*
X12767261Y-15599776D01*
X12738690Y-15599776D01*
X12919642Y-15599776D02*
X12900594Y-15590252D01*
X12891071Y-15571205D01*
X12891071Y-15399776D01*
X13072023Y-15590252D02*
X13052975Y-15599776D01*
X13014880Y-15599776D01*
X12995833Y-15590252D01*
X12986309Y-15571205D01*
X12986309Y-15495014D01*
X12995833Y-15475967D01*
X13014880Y-15466443D01*
X13052975Y-15466443D01*
X13072023Y-15475967D01*
X13081547Y-15495014D01*
X13081547Y-15514062D01*
X12986309Y-15533109D01*
X13148213Y-15675967D02*
X13157737Y-15666443D01*
X13176785Y-15637871D01*
X13186309Y-15618824D01*
X13195833Y-15590252D01*
X13205356Y-15542633D01*
X13205356Y-15504538D01*
X13195833Y-15456919D01*
X13186309Y-15428348D01*
X13176785Y-15409300D01*
X13157737Y-15380728D01*
X13148213Y-15371205D01*
X13510118Y-15675967D02*
X13500594Y-15666443D01*
X13481547Y-15637871D01*
X13472023Y-15618824D01*
X13462499Y-15590252D01*
X13452975Y-15542633D01*
X13452975Y-15504538D01*
X13462499Y-15456919D01*
X13472023Y-15428348D01*
X13481547Y-15409300D01*
X13500594Y-15380728D01*
X13510118Y-15371205D01*
X13586309Y-15466443D02*
X13586309Y-15599776D01*
X13586309Y-15485490D02*
X13595833Y-15475967D01*
X13614880Y-15466443D01*
X13643452Y-15466443D01*
X13662499Y-15475967D01*
X13672023Y-15495014D01*
X13672023Y-15599776D01*
X13795833Y-15599776D02*
X13776785Y-15590252D01*
X13767261Y-15580728D01*
X13757737Y-15561681D01*
X13757737Y-15504538D01*
X13767261Y-15485490D01*
X13776785Y-15475967D01*
X13795833Y-15466443D01*
X13824404Y-15466443D01*
X13843452Y-15475967D01*
X13852975Y-15485490D01*
X13862499Y-15504538D01*
X13862499Y-15561681D01*
X13852975Y-15580728D01*
X13843452Y-15590252D01*
X13824404Y-15599776D01*
X13795833Y-15599776D01*
X13919642Y-15466443D02*
X13995833Y-15466443D01*
X13948213Y-15399776D02*
X13948213Y-15571205D01*
X13957737Y-15590252D01*
X13976785Y-15599776D01*
X13995833Y-15599776D01*
X14214880Y-15466443D02*
X14214880Y-15666443D01*
X14214880Y-15475967D02*
X14233928Y-15466443D01*
X14272023Y-15466443D01*
X14291071Y-15475967D01*
X14300594Y-15485490D01*
X14310118Y-15504538D01*
X14310118Y-15561681D01*
X14300594Y-15580728D01*
X14291071Y-15590252D01*
X14272023Y-15599776D01*
X14233928Y-15599776D01*
X14214880Y-15590252D01*
X14424404Y-15599776D02*
X14405356Y-15590252D01*
X14395833Y-15571205D01*
X14395833Y-15399776D01*
X14586309Y-15599776D02*
X14586309Y-15495014D01*
X14576785Y-15475967D01*
X14557737Y-15466443D01*
X14519642Y-15466443D01*
X14500594Y-15475967D01*
X14586309Y-15590252D02*
X14567261Y-15599776D01*
X14519642Y-15599776D01*
X14500594Y-15590252D01*
X14491071Y-15571205D01*
X14491071Y-15552157D01*
X14500594Y-15533109D01*
X14519642Y-15523586D01*
X14567261Y-15523586D01*
X14586309Y-15514062D01*
X14652975Y-15466443D02*
X14729166Y-15466443D01*
X14681547Y-15399776D02*
X14681547Y-15571205D01*
X14691071Y-15590252D01*
X14710118Y-15599776D01*
X14729166Y-15599776D01*
X14872023Y-15590252D02*
X14852975Y-15599776D01*
X14814880Y-15599776D01*
X14795833Y-15590252D01*
X14786309Y-15571205D01*
X14786309Y-15495014D01*
X14795833Y-15475967D01*
X14814880Y-15466443D01*
X14852975Y-15466443D01*
X14872023Y-15475967D01*
X14881547Y-15495014D01*
X14881547Y-15514062D01*
X14786309Y-15533109D01*
X15052975Y-15599776D02*
X15052975Y-15399776D01*
X15052975Y-15590252D02*
X15033928Y-15599776D01*
X14995833Y-15599776D01*
X14976785Y-15590252D01*
X14967261Y-15580728D01*
X14957737Y-15561681D01*
X14957737Y-15504538D01*
X14967261Y-15485490D01*
X14976785Y-15475967D01*
X14995833Y-15466443D01*
X15033928Y-15466443D01*
X15052975Y-15475967D01*
X15129166Y-15675967D02*
X15138690Y-15666443D01*
X15157737Y-15637871D01*
X15167261Y-15618824D01*
X15176785Y-15590252D01*
X15186309Y-15542633D01*
X15186309Y-15504538D01*
X15176785Y-15456919D01*
X15167261Y-15428348D01*
X15157737Y-15409300D01*
X15138690Y-15380728D01*
X15129166Y-15371205D01*
D14*
X8458214Y-15693300D02*
X8458214Y-15853300D01*
X8378214Y-15773300D02*
X8538214Y-15773300D01*
D11*
X8900595Y-15863776D02*
X8786309Y-15863776D01*
X8843452Y-15863776D02*
X8843452Y-15663776D01*
X8824404Y-15692348D01*
X8805356Y-15711395D01*
X8786309Y-15720919D01*
X8986309Y-15844728D02*
X8995833Y-15854252D01*
X8986309Y-15863776D01*
X8976785Y-15854252D01*
X8986309Y-15844728D01*
X8986309Y-15863776D01*
X9167261Y-15663776D02*
X9129166Y-15663776D01*
X9110118Y-15673300D01*
X9100595Y-15682824D01*
X9081547Y-15711395D01*
X9072023Y-15749490D01*
X9072023Y-15825681D01*
X9081547Y-15844728D01*
X9091071Y-15854252D01*
X9110118Y-15863776D01*
X9148214Y-15863776D01*
X9167261Y-15854252D01*
X9176785Y-15844728D01*
X9186309Y-15825681D01*
X9186309Y-15778062D01*
X9176785Y-15759014D01*
X9167261Y-15749490D01*
X9148214Y-15739967D01*
X9110118Y-15739967D01*
X9091071Y-15749490D01*
X9081547Y-15759014D01*
X9072023Y-15778062D01*
X9310118Y-15663776D02*
X9329166Y-15663776D01*
X9348214Y-15673300D01*
X9357737Y-15682824D01*
X9367261Y-15701871D01*
X9376785Y-15739967D01*
X9376785Y-15787586D01*
X9367261Y-15825681D01*
X9357737Y-15844728D01*
X9348214Y-15854252D01*
X9329166Y-15863776D01*
X9310118Y-15863776D01*
X9291071Y-15854252D01*
X9281547Y-15844728D01*
X9272023Y-15825681D01*
X9262499Y-15787586D01*
X9262499Y-15739967D01*
X9272023Y-15701871D01*
X9281547Y-15682824D01*
X9291071Y-15673300D01*
X9310118Y-15663776D01*
X9500595Y-15663776D02*
X9519642Y-15663776D01*
X9538690Y-15673300D01*
X9548214Y-15682824D01*
X9557737Y-15701871D01*
X9567261Y-15739967D01*
X9567261Y-15787586D01*
X9557737Y-15825681D01*
X9548214Y-15844728D01*
X9538690Y-15854252D01*
X9519642Y-15863776D01*
X9500595Y-15863776D01*
X9481547Y-15854252D01*
X9472023Y-15844728D01*
X9462499Y-15825681D01*
X9452976Y-15787586D01*
X9452976Y-15739967D01*
X9462499Y-15701871D01*
X9472023Y-15682824D01*
X9481547Y-15673300D01*
X9500595Y-15663776D01*
X9652976Y-15863776D02*
X9652976Y-15730443D01*
X9652976Y-15749490D02*
X9662499Y-15739967D01*
X9681547Y-15730443D01*
X9710118Y-15730443D01*
X9729166Y-15739967D01*
X9738690Y-15759014D01*
X9738690Y-15863776D01*
X9738690Y-15759014D02*
X9748214Y-15739967D01*
X9767261Y-15730443D01*
X9795833Y-15730443D01*
X9814880Y-15739967D01*
X9824404Y-15759014D01*
X9824404Y-15863776D01*
X9919642Y-15863776D02*
X9919642Y-15730443D01*
X9919642Y-15749490D02*
X9929166Y-15739967D01*
X9948214Y-15730443D01*
X9976785Y-15730443D01*
X9995833Y-15739967D01*
X10005356Y-15759014D01*
X10005356Y-15863776D01*
X10005356Y-15759014D02*
X10014880Y-15739967D01*
X10033928Y-15730443D01*
X10062499Y-15730443D01*
X10081547Y-15739967D01*
X10091071Y-15759014D01*
X10091071Y-15863776D01*
X10481547Y-15654252D02*
X10310118Y-15911395D01*
X10738690Y-15663776D02*
X10757737Y-15663776D01*
X10776785Y-15673300D01*
X10786309Y-15682824D01*
X10795833Y-15701871D01*
X10805356Y-15739967D01*
X10805356Y-15787586D01*
X10795833Y-15825681D01*
X10786309Y-15844728D01*
X10776785Y-15854252D01*
X10757737Y-15863776D01*
X10738690Y-15863776D01*
X10719642Y-15854252D01*
X10710118Y-15844728D01*
X10700595Y-15825681D01*
X10691071Y-15787586D01*
X10691071Y-15739967D01*
X10700595Y-15701871D01*
X10710118Y-15682824D01*
X10719642Y-15673300D01*
X10738690Y-15663776D01*
X10891071Y-15844728D02*
X10900595Y-15854252D01*
X10891071Y-15863776D01*
X10881547Y-15854252D01*
X10891071Y-15844728D01*
X10891071Y-15863776D01*
X11024404Y-15663776D02*
X11043452Y-15663776D01*
X11062499Y-15673300D01*
X11072023Y-15682824D01*
X11081547Y-15701871D01*
X11091071Y-15739967D01*
X11091071Y-15787586D01*
X11081547Y-15825681D01*
X11072023Y-15844728D01*
X11062499Y-15854252D01*
X11043452Y-15863776D01*
X11024404Y-15863776D01*
X11005356Y-15854252D01*
X10995833Y-15844728D01*
X10986309Y-15825681D01*
X10976785Y-15787586D01*
X10976785Y-15739967D01*
X10986309Y-15701871D01*
X10995833Y-15682824D01*
X11005356Y-15673300D01*
X11024404Y-15663776D01*
X11262499Y-15663776D02*
X11224404Y-15663776D01*
X11205356Y-15673300D01*
X11195833Y-15682824D01*
X11176785Y-15711395D01*
X11167261Y-15749490D01*
X11167261Y-15825681D01*
X11176785Y-15844728D01*
X11186309Y-15854252D01*
X11205356Y-15863776D01*
X11243452Y-15863776D01*
X11262499Y-15854252D01*
X11272023Y-15844728D01*
X11281547Y-15825681D01*
X11281547Y-15778062D01*
X11272023Y-15759014D01*
X11262499Y-15749490D01*
X11243452Y-15739967D01*
X11205356Y-15739967D01*
X11186309Y-15749490D01*
X11176785Y-15759014D01*
X11167261Y-15778062D01*
X11348214Y-15663776D02*
X11472023Y-15663776D01*
X11405356Y-15739967D01*
X11433928Y-15739967D01*
X11452975Y-15749490D01*
X11462499Y-15759014D01*
X11472023Y-15778062D01*
X11472023Y-15825681D01*
X11462499Y-15844728D01*
X11452975Y-15854252D01*
X11433928Y-15863776D01*
X11376785Y-15863776D01*
X11357737Y-15854252D01*
X11348214Y-15844728D01*
X11595833Y-15663776D02*
X11614880Y-15663776D01*
X11633928Y-15673300D01*
X11643452Y-15682824D01*
X11652975Y-15701871D01*
X11662499Y-15739967D01*
X11662499Y-15787586D01*
X11652975Y-15825681D01*
X11643452Y-15844728D01*
X11633928Y-15854252D01*
X11614880Y-15863776D01*
X11595833Y-15863776D01*
X11576785Y-15854252D01*
X11567261Y-15844728D01*
X11557737Y-15825681D01*
X11548213Y-15787586D01*
X11548213Y-15739967D01*
X11557737Y-15701871D01*
X11567261Y-15682824D01*
X11576785Y-15673300D01*
X11595833Y-15663776D01*
X11738690Y-15663776D02*
X11738690Y-15701871D01*
X11814880Y-15663776D02*
X11814880Y-15701871D01*
X12110118Y-15939967D02*
X12100594Y-15930443D01*
X12081547Y-15901871D01*
X12072023Y-15882824D01*
X12062499Y-15854252D01*
X12052975Y-15806633D01*
X12052975Y-15768538D01*
X12062499Y-15720919D01*
X12072023Y-15692348D01*
X12081547Y-15673300D01*
X12100594Y-15644728D01*
X12110118Y-15635205D01*
X12176785Y-15682824D02*
X12186309Y-15673300D01*
X12205356Y-15663776D01*
X12252975Y-15663776D01*
X12272023Y-15673300D01*
X12281547Y-15682824D01*
X12291071Y-15701871D01*
X12291071Y-15720919D01*
X12281547Y-15749490D01*
X12167261Y-15863776D01*
X12291071Y-15863776D01*
X12529166Y-15863776D02*
X12529166Y-15663776D01*
X12614880Y-15863776D02*
X12614880Y-15759014D01*
X12605356Y-15739967D01*
X12586309Y-15730443D01*
X12557737Y-15730443D01*
X12538690Y-15739967D01*
X12529166Y-15749490D01*
X12738690Y-15863776D02*
X12719642Y-15854252D01*
X12710118Y-15844728D01*
X12700594Y-15825681D01*
X12700594Y-15768538D01*
X12710118Y-15749490D01*
X12719642Y-15739967D01*
X12738690Y-15730443D01*
X12767261Y-15730443D01*
X12786309Y-15739967D01*
X12795833Y-15749490D01*
X12805356Y-15768538D01*
X12805356Y-15825681D01*
X12795833Y-15844728D01*
X12786309Y-15854252D01*
X12767261Y-15863776D01*
X12738690Y-15863776D01*
X12919642Y-15863776D02*
X12900594Y-15854252D01*
X12891071Y-15835205D01*
X12891071Y-15663776D01*
X13072023Y-15854252D02*
X13052975Y-15863776D01*
X13014880Y-15863776D01*
X12995833Y-15854252D01*
X12986309Y-15835205D01*
X12986309Y-15759014D01*
X12995833Y-15739967D01*
X13014880Y-15730443D01*
X13052975Y-15730443D01*
X13072023Y-15739967D01*
X13081547Y-15759014D01*
X13081547Y-15778062D01*
X12986309Y-15797109D01*
X13157737Y-15854252D02*
X13176785Y-15863776D01*
X13214880Y-15863776D01*
X13233928Y-15854252D01*
X13243452Y-15835205D01*
X13243452Y-15825681D01*
X13233928Y-15806633D01*
X13214880Y-15797109D01*
X13186309Y-15797109D01*
X13167261Y-15787586D01*
X13157737Y-15768538D01*
X13157737Y-15759014D01*
X13167261Y-15739967D01*
X13186309Y-15730443D01*
X13214880Y-15730443D01*
X13233928Y-15739967D01*
X13310118Y-15939967D02*
X13319642Y-15930443D01*
X13338690Y-15901871D01*
X13348213Y-15882824D01*
X13357737Y-15854252D01*
X13367261Y-15806633D01*
X13367261Y-15768538D01*
X13357737Y-15720919D01*
X13348213Y-15692348D01*
X13338690Y-15673300D01*
X13319642Y-15644728D01*
X13310118Y-15635205D01*
X13672023Y-15939967D02*
X13662499Y-15930443D01*
X13643452Y-15901871D01*
X13633928Y-15882824D01*
X13624404Y-15854252D01*
X13614880Y-15806633D01*
X13614880Y-15768538D01*
X13624404Y-15720919D01*
X13633928Y-15692348D01*
X13643452Y-15673300D01*
X13662499Y-15644728D01*
X13672023Y-15635205D01*
X13748213Y-15730443D02*
X13748213Y-15863776D01*
X13748213Y-15749490D02*
X13757737Y-15739967D01*
X13776785Y-15730443D01*
X13805356Y-15730443D01*
X13824404Y-15739967D01*
X13833928Y-15759014D01*
X13833928Y-15863776D01*
X13957737Y-15863776D02*
X13938690Y-15854252D01*
X13929166Y-15844728D01*
X13919642Y-15825681D01*
X13919642Y-15768538D01*
X13929166Y-15749490D01*
X13938690Y-15739967D01*
X13957737Y-15730443D01*
X13986309Y-15730443D01*
X14005356Y-15739967D01*
X14014880Y-15749490D01*
X14024404Y-15768538D01*
X14024404Y-15825681D01*
X14014880Y-15844728D01*
X14005356Y-15854252D01*
X13986309Y-15863776D01*
X13957737Y-15863776D01*
X14081547Y-15730443D02*
X14157737Y-15730443D01*
X14110118Y-15663776D02*
X14110118Y-15835205D01*
X14119642Y-15854252D01*
X14138690Y-15863776D01*
X14157737Y-15863776D01*
X14376785Y-15730443D02*
X14376785Y-15930443D01*
X14376785Y-15739967D02*
X14395833Y-15730443D01*
X14433928Y-15730443D01*
X14452975Y-15739967D01*
X14462499Y-15749490D01*
X14472023Y-15768538D01*
X14472023Y-15825681D01*
X14462499Y-15844728D01*
X14452975Y-15854252D01*
X14433928Y-15863776D01*
X14395833Y-15863776D01*
X14376785Y-15854252D01*
X14586309Y-15863776D02*
X14567261Y-15854252D01*
X14557737Y-15835205D01*
X14557737Y-15663776D01*
X14748213Y-15863776D02*
X14748213Y-15759014D01*
X14738690Y-15739967D01*
X14719642Y-15730443D01*
X14681547Y-15730443D01*
X14662499Y-15739967D01*
X14748213Y-15854252D02*
X14729166Y-15863776D01*
X14681547Y-15863776D01*
X14662499Y-15854252D01*
X14652975Y-15835205D01*
X14652975Y-15816157D01*
X14662499Y-15797109D01*
X14681547Y-15787586D01*
X14729166Y-15787586D01*
X14748213Y-15778062D01*
X14814880Y-15730443D02*
X14891071Y-15730443D01*
X14843452Y-15663776D02*
X14843452Y-15835205D01*
X14852975Y-15854252D01*
X14872023Y-15863776D01*
X14891071Y-15863776D01*
X15033928Y-15854252D02*
X15014880Y-15863776D01*
X14976785Y-15863776D01*
X14957737Y-15854252D01*
X14948213Y-15835205D01*
X14948213Y-15759014D01*
X14957737Y-15739967D01*
X14976785Y-15730443D01*
X15014880Y-15730443D01*
X15033928Y-15739967D01*
X15043452Y-15759014D01*
X15043452Y-15778062D01*
X14948213Y-15797109D01*
X15214880Y-15863776D02*
X15214880Y-15663776D01*
X15214880Y-15854252D02*
X15195833Y-15863776D01*
X15157737Y-15863776D01*
X15138690Y-15854252D01*
X15129166Y-15844728D01*
X15119642Y-15825681D01*
X15119642Y-15768538D01*
X15129166Y-15749490D01*
X15138690Y-15739967D01*
X15157737Y-15730443D01*
X15195833Y-15730443D01*
X15214880Y-15739967D01*
X15291071Y-15939967D02*
X15300594Y-15930443D01*
X15319642Y-15901871D01*
X15329166Y-15882824D01*
X15338690Y-15854252D01*
X15348213Y-15806633D01*
X15348213Y-15768538D01*
X15338690Y-15720919D01*
X15329166Y-15692348D01*
X15319642Y-15673300D01*
X15300594Y-15644728D01*
X15291071Y-15635205D01*
M02*
