M48
; DRILL file {KiCad (6.0.11)} date Tue Mar 19 14:27:05 2024
; FORMAT={-:-/ absolute / inch / decimal}
; #@! TF.CreationDate,2024-03-19T14:27:05-04:00
; #@! TF.GenerationSoftware,Kicad,Pcbnew,(6.0.11)
; #@! TF.FileFunction,Plated,1,4,PTH
FMAT,2
INCH
; #@! TA.AperFunction,Plated,PTH,ComponentDrill
T1C0.0079
; #@! TA.AperFunction,Plated,PTH,ComponentDrill
T2C0.0098
; #@! TA.AperFunction,Plated,PTH,ViaDrill
T3C0.0118
; #@! TA.AperFunction,Plated,PTH,ViaDrill
T4C0.0157
; #@! TA.AperFunction,Plated,PTH,ComponentDrill
T5C0.0236
; #@! TA.AperFunction,Plated,PTH,ComponentDrill
T6C0.0295
; #@! TA.AperFunction,Plated,PTH,ComponentDrill
T7C0.0315
; #@! TA.AperFunction,Plated,PTH,ComponentDrill
T8C0.0335
; #@! TA.AperFunction,Plated,PTH,ComponentDrill
T9C0.0354
; #@! TA.AperFunction,Plated,PTH,ComponentDrill
T10C0.0394
; #@! TA.AperFunction,Plated,PTH,ComponentDrill
T11C0.0472
; #@! TA.AperFunction,Plated,PTH,ComponentDrill
T12C0.1063
; #@! TA.AperFunction,Plated,PTH,ComponentDrill
T13C0.1260
%
G90
G05
T1
X5.6854Y-4.1472
X5.6992Y-4.1177
X5.6992Y-4.1768
X5.713Y-4.1472
X6.7778Y-3.7593
X6.7778Y-3.7858
X6.8043Y-3.7593
X6.8043Y-3.7858
X6.8839Y-5.0892
X6.8839Y-5.1366
X6.8839Y-5.176
X6.8843Y-4.9951
X6.8843Y-5.0425
X6.9217Y-5.0892
X6.9217Y-5.1366
X6.9217Y-5.176
X6.922Y-4.9951
X6.922Y-5.0425
X6.958Y-5.0893
X6.958Y-5.1367
X6.958Y-5.1761
X6.9584Y-4.9952
X6.9584Y-5.0426
X6.9941Y-5.0888
X6.9941Y-5.1362
X6.9941Y-5.1756
X6.9945Y-4.9947
X6.9945Y-5.0421
X7.0311Y-5.0888
X7.0311Y-5.1362
X7.0311Y-5.1756
X7.0315Y-4.9947
X7.0315Y-5.0421
X7.0724Y-4.9951
X7.0724Y-5.0425
X7.0728Y-5.0892
X7.0728Y-5.1366
X7.0728Y-5.176
X7.1102Y-4.9951
X7.1102Y-5.0425
X7.1106Y-5.0892
X7.1106Y-5.1366
X7.1106Y-5.176
X7.1466Y-4.9952
X7.1466Y-5.0426
X7.1466Y-5.1763
X7.1469Y-5.0893
X7.1469Y-5.1367
X7.1827Y-4.9947
X7.1827Y-5.0421
X7.1827Y-5.1758
X7.1831Y-5.0888
X7.1831Y-5.1362
X7.2197Y-4.9947
X7.2197Y-5.0421
X7.2197Y-5.1758
X7.2201Y-5.0888
X7.2201Y-5.1362
X7.2575Y-4.9941
X7.2575Y-5.0415
X7.2575Y-5.1752
X7.2579Y-5.0882
X7.2579Y-5.1356
X7.3024Y-4.2301
X7.3161Y-4.2006
X7.3161Y-4.2596
X7.3299Y-4.2301
X7.6354Y-3.4057
X7.6354Y-3.4531
X7.6724Y-3.4057
X7.6724Y-3.4531
T2
X3.6819Y-4.4602
X3.6819Y-4.5154
X3.7094Y-4.4327
X3.7094Y-4.4878
X3.7094Y-4.5429
X3.737Y-4.4602
X3.737Y-4.5154
X3.7646Y-4.4327
X3.7646Y-4.4878
X3.7646Y-4.5429
X3.7921Y-4.4602
X3.7921Y-4.5154
T3
X3.4441Y-5.0854
X3.4441Y-5.1327
X3.5035Y-5.0854
X3.5035Y-5.1327
X3.512Y-4.1629
X3.5161Y-3.5157
X3.5602Y-5.0854
X3.5602Y-5.1327
X3.5607Y-4.1924
X3.5795Y-3.8969
X3.5804Y-3.9905
X3.5819Y-4.0248
X3.5957Y-4.7152
X3.6167Y-4.1629
X3.6264Y-3.8965
X3.6323Y-4.0244
X3.6336Y-5.4583
X3.6712Y-4.1936
X3.7193Y-4.7152
X3.7219Y-4.8332
X3.7352Y-5.6303
X3.7612Y-5.2863
X3.7612Y-5.3276
X3.8155Y-4.1334
X3.9055Y-3.8482
X3.9369Y-3.8457
X3.9642Y-2.7759
X3.9684Y-3.8461
X3.9888Y-4.2174
X4.0387Y-3.6904
X4.0517Y-3.7356
X4.0632Y-3.6446
X4.0666Y-3.6924
X4.0881Y-3.6618
X4.0885Y-3.8547
X4.1204Y-3.8504
X4.1539Y-2.6823
X4.159Y-3.6192
X4.1642Y-2.776
X4.1661Y-4.0827
X4.1779Y-3.7716
X4.1968Y-4.7921
X4.1993Y-3.6929
X4.2129Y-3.7705
X4.2239Y-3.6189
X4.2293Y-4.203
X4.2673Y-5.1453
X4.2673Y-5.202
X4.2964Y-3.5394
X4.2984Y-4.8843
X4.3146Y-5.1449
X4.3146Y-5.202
X4.3271Y-3.5492
X4.3373Y-4.8835
X4.3379Y-3.3337
X4.3448Y-3.578
X4.3614Y-2.6793
X4.3815Y-2.9445
X4.5559Y-2.6745
X4.562Y-2.7932
X4.5752Y-2.9437
X4.6177Y-2.4819
X4.65Y-2.4433
X4.6646Y-2.5177
X4.6767Y-5.0152
X4.701Y-2.4281
X4.7043Y-2.5177
X4.7429Y-2.5185
X4.7512Y-2.4346
X4.763Y-5.0685
X4.7835Y-2.5197
X4.7949Y-5.1512
X4.8031Y-5.0673
X4.8417Y-5.0681
X4.8451Y-5.1577
X4.8673Y-2.5717
X4.8815Y-5.0681
X4.8961Y-5.1425
X4.9283Y-5.1039
X5.2296Y-3.7314
X5.2949Y-2.4819
X5.3272Y-2.4433
X5.3417Y-2.5177
X5.3591Y-5.0154
X5.3781Y-2.4281
X5.3815Y-2.5177
X5.4058Y-3.871
X5.4201Y-2.5185
X5.4283Y-2.4346
X5.4539Y-5.0654
X5.4606Y-2.5197
X5.4878Y-5.1512
X5.4961Y-5.0673
X5.5309Y-2.6901
X5.5346Y-5.0681
X5.538Y-5.1577
X5.5486Y-2.7283
X5.5496Y-2.8425
X5.5744Y-5.0681
X5.589Y-5.1425
X5.6116Y-2.7283
X5.6126Y-2.8425
X5.6213Y-5.1039
X5.6378Y-4.2169
X5.6386Y-4.2563
X5.6516Y-4.0717
X5.6705Y-4.2335
X5.6709Y-4.0299
X5.6746Y-2.7283
X5.6756Y-2.8425
X5.6933Y-2.6941
X5.7051Y-4.0299
X5.7094Y-4.2331
X5.7146Y-4.7732
X5.7146Y-4.8362
X5.7146Y-4.8992
X5.715Y-4.5315
X5.715Y-4.5846
X5.715Y-4.6476
X5.715Y-4.7106
X5.7202Y-2.482
X5.7398Y-4.0291
X5.7476Y-4.2331
X5.7525Y-2.4434
X5.7638Y-4.3815
X5.767Y-2.5178
X5.7835Y-4.0913
X5.7854Y-4.2335
X5.7898Y-4.1238
X5.801Y-4.4187
X5.8034Y-2.4282
X5.8068Y-2.5178
X5.8354Y-4.7732
X5.8354Y-4.8362
X5.8354Y-4.8992
X5.8358Y-4.4685
X5.8358Y-4.5315
X5.8358Y-4.5846
X5.8358Y-4.6476
X5.8358Y-4.7106
X5.8454Y-2.5186
X5.8536Y-2.4347
X5.8819Y-5.0673
X5.8859Y-2.5198
X5.9152Y-5.1512
X5.9234Y-5.0673
X5.962Y-5.0681
X5.9654Y-5.1577
X5.972Y-2.5717
X5.9889Y-3.8183
X6.0018Y-5.0681
X6.0163Y-5.1425
X6.0486Y-5.1039
X6.1116Y-5.0598
X6.4247Y-2.482
X6.457Y-2.4434
X6.4716Y-2.5178
X6.508Y-2.4282
X6.5113Y-2.5178
X6.5499Y-2.5186
X6.5555Y-5.0598
X6.5581Y-2.4347
X6.588Y-5.144
X6.5905Y-2.5198
X6.5963Y-5.0602
X6.6348Y-5.061
X6.6382Y-5.1505
X6.6457Y-2.1669
X6.6746Y-5.061
X6.6892Y-5.1354
X6.7215Y-5.0968
X6.8161Y-2.5673
X6.8161Y-2.6274
X6.8161Y-2.6874
X6.8161Y-2.7415
X6.8177Y-5.1016
X6.826Y-2.5112
X6.8604Y-2.4768
X6.8839Y-3.0724
X6.8871Y-3.735
X6.8905Y-3.7945
X6.8909Y-3.8616
X6.8919Y-2.4453
X6.8933Y-2.4825
X6.921Y-3.8481
X6.9224Y-2.4148
X6.9248Y-2.4877
X6.9346Y-3.7642
X6.9374Y-3.8213
X6.9379Y-3.5487
X6.9382Y-2.7114
X6.9402Y-3.3213
X6.9413Y-3.0697
X6.9413Y-3.4909
X6.9429Y-3.1268
X6.948Y-2.7632
X6.9648Y-2.6933
X6.9805Y-2.7563
X7.0035Y-3.0752
X7.0039Y-3.3284
X7.0276Y-3.7807
X7.0395Y-2.6378
X7.0437Y-3.7537
X7.0642Y-3.3244
X7.0677Y-3.2587
X7.0679Y-4.62
X7.0786Y-3.5807
X7.0787Y-2.9476
X7.0917Y-3.6817
X7.0988Y-3.3242
X7.1098Y-2.9525
X7.1216Y-3.1888
X7.1374Y-2.9508
X7.1534Y-3.8691
X7.1551Y-3.7461
X7.1555Y-3.3254
X7.1689Y-2.9488
X7.1872Y-3.3291
X7.1878Y-3.2579
X7.1917Y-3.1883
X7.1935Y-2.6827
X7.1959Y-2.7563
X7.2072Y-2.7269
X7.2156Y-2.6285
X7.2201Y-3.8132
X7.2256Y-3.889
X7.2301Y-2.6967
X7.2379Y-3.0094
X7.2512Y-2.6244
X7.265Y-3.0445
X7.2661Y-3.1016
X7.2699Y-2.7593
X7.2726Y-4.2907
X7.2728Y-4.1705
X7.2745Y-3.1319
X7.2778Y-4.7352
X7.2799Y-3.0728
X7.2824Y-4.3344
X7.2824Y-4.3642
X7.2882Y-4.0237
X7.2915Y-3.687
X7.3004Y-2.7543
X7.3083Y-3.9399
X7.3106Y-2.4894
X7.3106Y-3.3189
X7.3213Y-4.3043
X7.3213Y-4.3341
X7.3213Y-4.3638
X7.3295Y-2.5252
X7.3329Y-2.5565
X7.3364Y-3.6836
X7.3398Y-3.9436
X7.345Y-3.5437
X7.3703Y-3.9359
X7.3887Y-3.6865
X7.3989Y-4.1822
X7.3995Y-4.2202
X7.4017Y-3.9329
X7.4209Y-2.3492
X7.4563Y-3.2894
X7.461Y-2.3091
X7.4618Y-3.8114
X7.4996Y-2.274
X7.5242Y-3.2163
X7.5255Y-3.7491
X7.5295Y-3.9031
X7.5327Y-3.9413
X7.5327Y-3.8311
X7.5346Y-3.7792
X7.5367Y-3.6889
X7.5382Y-3.7203
X7.5403Y-3.4714
X7.5583Y-2.274
X7.5591Y-3.2488
X7.5705Y-3.9344
X7.5767Y-3.6805
X7.605Y-3.9251
X7.6078Y-3.6893
X7.6085Y-3.6579
X7.6139Y-2.5747
X7.6142Y-2.274
X7.628Y-2.9142
X7.6303Y-2.4817
X7.6311Y-2.8787
X7.6379Y-3.6803
X7.641Y-3.5768
X7.6422Y-3.5453
X7.6748Y-2.274
X7.7142Y-2.4001
X7.7335Y-2.274
X7.792Y-2.8662
X7.7925Y-2.274
X7.8002Y-3.1612
X7.8024Y-3.5516
X7.8083Y-3.5998
X7.8205Y-3.6815
X7.8286Y-3.5342
X7.8347Y-3.5024
X7.8375Y-3.7488
X7.8382Y-3.9029
X7.8398Y-3.8715
X7.8437Y-2.274
X7.8831Y-3.2355
X7.8831Y-3.2878
X7.8831Y-3.3382
X7.8831Y-3.3882
X7.8831Y-3.4437
X7.8861Y-4.2081
X7.9272Y-2.8567
X7.9276Y-2.3941
X7.9276Y-2.4423
X7.9276Y-2.5083
X7.9276Y-2.5604
X7.9276Y-2.6096
X7.9276Y-2.6608
X7.9276Y-2.8039
X7.9276Y-3.0195
X7.928Y-2.915
X7.928Y-2.9669
T4
X3.4327Y-4.8398
X3.4329Y-4.1549
X3.4329Y-4.7041
X3.4331Y-4.0272
X3.435Y-4.9047
X3.4824Y-4.9966
X3.4831Y-4.1362
X3.5138Y-2.848
X3.5426Y-4.9969
X3.5429Y-3.735
X3.5681Y-2.7996
X3.5681Y-2.9
X3.5803Y-3.9425
X3.5959Y-4.8322
X3.5961Y-4.1917
X3.6028Y-5.0024
X3.6268Y-4.5575
X3.6268Y-3.9417
X3.6311Y-4.7142
X3.6358Y-4.193
X3.6453Y-3.4598
X3.6453Y-3.6945
X3.6453Y-3.8228
X3.663Y-5.0012
X3.6748Y-4.261
X3.678Y-5.4276
X3.6839Y-4.7159
X3.6878Y-5.4709
X3.7039Y-2.9384
X3.7173Y-5.4264
X3.7319Y-4.6055
X3.7362Y-4.9638
X3.7366Y-5.0595
X3.7493Y-2.921
X3.755Y-5.4379
X3.7593Y-5.661
X3.7717Y-3.0264
X3.7732Y-3.15
X3.7779Y-2.269
X3.7783Y-2.1516
X3.7786Y-2.6229
X3.7786Y-2.5049
X3.7786Y-2.7411
X3.7807Y-2.8879
X3.7811Y-4.8264
X3.7831Y-4.1476
X3.7831Y-2.3881
X3.7858Y-5.2547
X3.8042Y-3.6228
X3.8083Y-5.0043
X3.8158Y-3.4577
X3.82Y-5.2743
X3.822Y-3.8043
X3.8358Y-4.2594
X3.8472Y-4.828
X3.8476Y-5.0056
X3.8913Y-3.0091
X3.9384Y-4.3589
X3.9534Y-4.217
X3.9685Y-4.5744
X3.9813Y-4.3549
X3.989Y-2.8012
X3.9914Y-3.1091
X4.0007Y-3.4559
X4.0276Y-3.8567
X4.0373Y-3.6189
X4.0571Y-3.4232
X4.0587Y-3.8874
X4.0637Y-4.2617
X4.0805Y-4.6386
X4.089Y-4.8295
X4.0909Y-3.9193
X4.0914Y-3.2091
X4.0925Y-2.9484
X4.1169Y-2.685
X4.1307Y-4.0827
X4.1331Y-2.7933
X4.1362Y-4.824
X4.1392Y-4.7841
X4.1437Y-4.6957
X4.1514Y-3.4328
X4.1722Y-3.4755
X4.1722Y-3.5353
X4.1747Y-3.0296
X4.1791Y-3.2949
X4.1801Y-2.8073
X4.1939Y-4.2037
X4.2055Y-2.6457
X4.2122Y-4.824
X4.2469Y-4.2965
X4.2791Y-3.3949
X4.2817Y-4.8525
X4.3011Y-3.6898
X4.3011Y-3.7256
X4.3016Y-3.8079
X4.3023Y-3.576
X4.3201Y-4.8525
X4.3211Y-2.7917
X4.326Y-2.6807
X4.3395Y-3.2983
X4.353Y-4.5256
X4.36Y-4.8525
X4.3602Y-2.7875
X4.3659Y-4.1254
X4.3766Y-4.7853
X4.385Y-4.0409
X4.3881Y-3.0222
X4.3967Y-2.6482
X4.4156Y-4.4032
X4.4207Y-4.7947
X4.4366Y-4.0547
X4.4594Y-3.7429
X4.4643Y-3.688
X4.502Y-4.639
X4.5073Y-3.984
X4.5209Y-2.6795
X4.5228Y-2.7969
X4.5488Y-5.1461
X4.5492Y-5.2075
X4.5634Y-3.4862
X4.5634Y-3.5862
X4.5638Y-3.6798
X4.5638Y-3.7798
X4.5638Y-3.8798
X4.5657Y-2.6039
X4.5685Y-3.3476
X4.5717Y-3.0217
X4.6043Y-4.2965
X4.6087Y-2.5528
X4.6622Y-5.1039
X4.6685Y-3.3476
X4.6791Y-4.9799
X4.7229Y-5.1593
X4.7272Y-5.0331
X4.7323Y-5.4528
X4.7323Y-5.5031
X4.7323Y-5.5543
X4.7362Y-2.0346
X4.7362Y-2.085
X4.7362Y-2.1354
X4.7685Y-3.3476
X4.8189Y-2.5528
X4.828Y-2.4433
X4.8673Y-2.6075
X4.8685Y-3.3476
X4.8843Y-2.487
X4.9374Y-5.0331
X4.9437Y-2.4937
X4.9441Y-2.3311
X4.9803Y-4.9874
X5.0177Y-2.8898
X5.0177Y-2.9866
X5.0185Y-2.7929
X5.0197Y-2.7008
X5.1272Y-2.5854
X5.1291Y-2.7
X5.222Y-3.6969
X5.2433Y-2.5835
X5.2433Y-5.2067
X5.2714Y-4.3944
X5.2742Y-2.8974
X5.2858Y-2.5528
X5.2872Y-3.7951
X5.2947Y-5.0963
X5.3177Y-4.4295
X5.3187Y-2.853
X5.3524Y-3.514
X5.3547Y-5.1055
X5.3563Y-3.7996
X5.3567Y-4.6772
X5.3587Y-4.9795
X5.3646Y-3.6043
X5.3653Y-3.4406
X5.3705Y-3.873
X5.3705Y-4.0713
X5.3732Y-2.7961
X5.3819Y-4.5965
X5.3862Y-4.5071
X5.4162Y-5.1555
X5.4201Y-5.0331
X5.4412Y-4.0031
X5.4955Y-2.44
X5.4961Y-2.5528
X5.5018Y-3.798
X5.5039Y-3.2795
X5.5059Y-3.514
X5.5091Y-3.6035
X5.5091Y-4.0677
X5.5236Y-4.0193
X5.5319Y-2.6543
X5.5606Y-2.4906
X5.5685Y-4.0705
X5.6201Y-2.4969
X5.6209Y-2.3311
X5.6303Y-5.0331
X5.6417Y-4.2972
X5.6449Y-4.9299
X5.6502Y-3.4037
X5.6518Y-3.3427
X5.6673Y-2.6087
X5.6677Y-5.4504
X5.6677Y-5.5008
X5.6677Y-5.552
X5.6748Y-2.0323
X5.6748Y-2.0827
X5.6748Y-2.1339
X5.6945Y-2.6567
X5.695Y-5.243
X5.7055Y-5.3319
X5.7111Y-2.5529
X5.713Y-5.1075
X5.774Y-4.0441
X5.826Y-4.2331
X5.8437Y-5.1146
X5.8437Y-5.1543
X5.8474Y-5.0331
X5.878Y-4.2713
X5.878Y-4.3185
X5.8846Y-4.228
X5.9209Y-2.4291
X5.9214Y-2.5529
X5.9252Y-4.2713
X5.9252Y-4.3185
X5.9445Y-4.0744
X5.9449Y-4.2283
X5.9634Y-3.7933
X5.9724Y-4.2713
X5.9724Y-4.3185
X5.9728Y-2.6071
X5.9748Y-3.0862
X5.9752Y-4.7988
X5.9827Y-3.0016
X5.9854Y-2.4843
X6.0012Y-2.9201
X6.0035Y-4.0744
X6.0039Y-4.2283
X6.0197Y-4.2713
X6.0197Y-4.3185
X6.0449Y-3.1579
X6.0465Y-2.4843
X6.0482Y-4.7293
X6.0531Y-4.037
X6.0531Y-4.0843
X6.0531Y-4.1315
X6.0531Y-4.1787
X6.0577Y-5.0331
X6.0898Y-4.6838
X6.0921Y-5.0894
X6.0941Y-3.2036
X6.0976Y-2.3799
X6.0976Y-5.0028
X6.1004Y-4.037
X6.1004Y-4.0843
X6.1004Y-4.1315
X6.1004Y-4.1787
X6.2268Y-2.8874
X6.228Y-2.9996
X6.2283Y-4.8878
X6.2283Y-5.0024
X6.3526Y-4.1659
X6.3535Y-5.1469
X6.3535Y-5.2055
X6.3728Y-2.6067
X6.4036Y-4.2758
X6.4039Y-4.1244
X6.4059Y-3.9669
X6.4156Y-2.5529
X6.4528Y-4.3673
X6.4575Y-4.3248
X6.4611Y-4.2746
X6.4613Y-4.1236
X6.4752Y-4.9799
X6.513Y-5.1366
X6.5173Y-5.2559
X6.5203Y-5.0259
X6.5752Y-5.4472
X6.5752Y-5.4976
X6.5752Y-5.5488
X6.6037Y-4.1287
X6.6098Y-2.0248
X6.6098Y-2.0752
X6.6179Y-4.2783
X6.6224Y-2.4358
X6.6259Y-2.5529
X6.6425Y-4.1295
X6.6522Y-3.9031
X6.6522Y-3.9622
X6.6768Y-2.6114
X6.6925Y-2.489
X6.7305Y-5.0259
X6.7449Y-4.0041
X6.7449Y-4.0437
X6.752Y-2.4941
X6.7763Y-5.1392
X6.8122Y-2.3843
X6.8157Y-5.1389
X6.8211Y-4.9296
X6.8272Y-4.0638
X6.8277Y-4.1992
X6.8277Y-4.1226
X6.8278Y-4.1606
X6.8307Y-3.5575
X6.8362Y-3.2579
X6.8377Y-3.5069
X6.8551Y-3.711
X6.8555Y-3.8657
X6.8586Y-4.5228
X6.8622Y-3.3354
X6.8658Y-3.1797
X6.8711Y-3.2891
X6.8714Y-2.9264
X6.8728Y-3.1276
X6.8736Y-3.0177
X6.874Y-3.5626
X6.8919Y-3.6967
X6.9252Y-4.5492
X6.9276Y-4.0217
X6.928Y-3.9024
X6.9281Y-3.9626
X6.9354Y-2.8795
X6.9665Y-4.1693
X6.9888Y-2.5242
X7.0199Y-2.7169
X7.0256Y-4.5146
X7.0339Y-4.2012
X7.0344Y-2.9854
X7.0361Y-3.5961
X7.0368Y-3.1618
X7.0406Y-4.6425
X7.0445Y-2.6835
X7.05Y-2.751
X7.0514Y-2.5713
X7.0681Y-2.8909
X7.0746Y-3.4878
X7.0809Y-3.9669
X7.0819Y-4.0213
X7.0965Y-4.6409
X7.0988Y-4.1992
X7.136Y-4.5368
X7.1497Y-3.6853
X7.1508Y-3.8087
X7.1815Y-3.5417
X7.1843Y-2.8906
X7.1909Y-2.4913
X7.1986Y-2.4551
X7.199Y-4.5356
X7.212Y-2.9852
X7.2154Y-3.162
X7.2244Y-3.4937
X7.2287Y-3.5449
X7.231Y-3.3742
X7.231Y-3.4341
X7.2329Y-2.4848
X7.2496Y-4.7138
X7.2498Y-3.7204
X7.2502Y-3.9151
X7.2528Y-4.0232
X7.2559Y-3.3264
X7.2669Y-4.5496
X7.274Y-3.5441
X7.2949Y-3.9791
X7.3035Y-5.2004
X7.3114Y-2.8244
X7.3436Y-2.8959
X7.3474Y-3.3301
X7.3583Y-3.5087
X7.3717Y-4.5142
X7.3748Y-3.4693
X7.3778Y-3.19
X7.3803Y-3.5413
X7.3811Y-3.2898
X7.3839Y-3.2484
X7.3854Y-2.3846
X7.3858Y-2.8283
X7.3862Y-2.613
X7.3862Y-3.0567
X7.3886Y-3.3799
X7.3941Y-5.3791
X7.4091Y-4.3291
X7.4248Y-4.0169
X7.4256Y-3.7181
X7.432Y-3.9147
X7.4366Y-4.2984
X7.4366Y-4.3594
X7.4411Y-2.6122
X7.4411Y-3.0567
X7.4413Y-2.385
X7.4415Y-2.8268
X7.4465Y-4.5543
X7.4654Y-4.328
X7.4654Y-5.2123
X7.4669Y-5.01
X7.4799Y-4.6555
X7.4799Y-4.7134
X7.4961Y-2.6134
X7.4961Y-3.0598
X7.4961Y-4.298
X7.4961Y-4.3602
X7.4963Y-2.826
X7.4965Y-2.3823
X7.5063Y-5.0112
X7.5222Y-3.6566
X7.5244Y-5.1504
X7.5252Y-5.2094
X7.526Y-4.3276
X7.5291Y-3.2681
X7.5299Y-3.6055
X7.5317Y-3.8674
X7.5559Y-4.298
X7.5575Y-3.3236
X7.565Y-5.1504
X7.5657Y-5.2094
X7.587Y-2.5516
X7.5954Y-2.9158
X7.5957Y-2.8752
X7.5959Y-2.49
X7.5966Y-4.1257
X7.6067Y-5.1504
X7.6075Y-5.2094
X7.6157Y-4.1591
X7.6295Y-4.4658
X7.6331Y-3.9938
X7.6573Y-4.2553
X7.6902Y-4.135
X7.708Y-4.1998
X7.713Y-4.2598
X7.7169Y-2.4358
X7.7294Y-3.306
X7.7301Y-3.2175
X7.7642Y-2.6039
X7.7642Y-2.6449
X7.765Y-2.889
X7.765Y-3.1646
X7.7699Y-4.0969
X7.7717Y-3.3059
X7.772Y-3.4531
X7.7854Y-5.0804
X7.8Y-3.7159
X7.802Y-3.899
X7.8593Y-4.2604
X7.8606Y-4.1835
X7.861Y-4.0248
T6
X3.6327Y-3.0594
X3.6327Y-3.1382
X3.6327Y-3.2169
X3.6331Y-2.2358
X3.6331Y-2.3146
X3.6331Y-2.3933
X3.6331Y-2.472
X3.6331Y-2.5508
X3.6331Y-2.6295
X3.6331Y-2.7083
X3.6331Y-2.787
X3.6335Y-5.2768
X3.6335Y-5.3555
X4.0504Y-2.4276
X4.0504Y-2.5063
X4.2669Y-2.4274
X4.2669Y-2.5061
X4.4835Y-2.4272
X4.4835Y-2.5059
T8
X3.5634Y-3.4685
X3.5634Y-3.6654
T9
X7.7805Y-4.5083
X7.7805Y-4.587
X7.7805Y-4.6657
T10
X3.9096Y-2.0354
X3.9096Y-2.1354
X3.9096Y-5.4551
X3.9096Y-5.5551
X4.0096Y-2.0354
X4.0096Y-2.1354
X4.0096Y-5.4551
X4.0096Y-5.5551
X4.1096Y-2.0354
X4.1096Y-2.1354
X4.1096Y-5.4551
X4.1096Y-5.5551
X4.2096Y-2.0354
X4.2096Y-2.1354
X4.2096Y-5.4551
X4.2096Y-5.5551
X4.3096Y-2.0354
X4.3096Y-2.1354
X4.3096Y-5.4551
X4.3096Y-5.5551
X4.4096Y-2.0354
X4.4096Y-2.1354
X4.4096Y-5.4551
X4.4096Y-5.5551
X4.5096Y-2.0354
X4.5096Y-2.1354
X4.5096Y-5.4551
X4.5096Y-5.5551
X4.6096Y-2.0354
X4.6096Y-2.1354
X4.6096Y-5.4551
X4.6096Y-5.5551
X4.8503Y-2.0354
X4.8503Y-2.1354
X4.8503Y-5.4551
X4.8503Y-5.5551
X4.9503Y-2.0354
X4.9503Y-2.1354
X4.9503Y-5.4551
X4.9503Y-5.5551
X5.0503Y-2.0354
X5.0503Y-2.1354
X5.0503Y-5.4551
X5.0503Y-5.5551
X5.0783Y-2.4445
X5.0783Y-2.5445
X5.0783Y-2.6445
X5.0783Y-2.7445
X5.0783Y-2.8445
X5.0783Y-2.9445
X5.0783Y-3.0445
X5.0783Y-3.1445
X5.0783Y-3.2445
X5.0783Y-3.3445
X5.0783Y-3.4445
X5.0783Y-3.5445
X5.0783Y-3.6445
X5.0783Y-3.7445
X5.0783Y-3.8445
X5.0783Y-3.9445
X5.0783Y-4.0445
X5.0783Y-4.1445
X5.0783Y-4.2445
X5.0783Y-4.3445
X5.0783Y-4.4445
X5.0783Y-4.5445
X5.0783Y-4.6445
X5.0783Y-4.7445
X5.0783Y-4.8445
X5.1503Y-2.0354
X5.1503Y-2.1354
X5.1503Y-5.4551
X5.1503Y-5.5551
X5.1783Y-2.4445
X5.1783Y-2.5445
X5.1783Y-2.6445
X5.1783Y-2.7445
X5.1783Y-2.8445
X5.1783Y-2.9445
X5.1783Y-3.0445
X5.1783Y-3.1445
X5.1783Y-3.2445
X5.1783Y-3.3445
X5.1783Y-3.4445
X5.1783Y-3.5445
X5.1783Y-3.6445
X5.1783Y-3.7445
X5.1783Y-3.8445
X5.1783Y-3.9445
X5.1783Y-4.0445
X5.1783Y-4.1445
X5.1783Y-4.2445
X5.1783Y-4.3445
X5.1783Y-4.4445
X5.1783Y-4.5445
X5.1783Y-4.6445
X5.1783Y-4.7445
X5.1783Y-4.8445
X5.2503Y-2.0354
X5.2503Y-2.1354
X5.2503Y-5.4551
X5.2503Y-5.5551
X5.3503Y-2.0354
X5.3503Y-2.1354
X5.3503Y-5.4551
X5.3503Y-5.5551
X5.4503Y-2.0354
X5.4503Y-2.1354
X5.4503Y-5.4551
X5.4503Y-5.5551
X5.5503Y-2.0354
X5.5503Y-2.1354
X5.5503Y-5.4551
X5.5503Y-5.5551
X5.7882Y-2.0354
X5.7882Y-2.1354
X5.7882Y-5.4551
X5.7882Y-5.5551
X5.8882Y-2.0354
X5.8882Y-2.1354
X5.8882Y-5.4551
X5.8882Y-5.5551
X5.9882Y-2.0354
X5.9882Y-2.1354
X5.9882Y-5.4551
X5.9882Y-5.5551
X6.0882Y-2.0354
X6.0882Y-2.1354
X6.0882Y-5.4551
X6.0882Y-5.5551
X6.1783Y-2.7441
X6.1783Y-2.8441
X6.1783Y-2.9441
X6.1783Y-3.0441
X6.1783Y-3.1441
X6.1783Y-3.2441
X6.1783Y-3.3441
X6.1783Y-3.4441
X6.1783Y-3.5441
X6.1783Y-3.6441
X6.1783Y-3.7441
X6.1783Y-3.8441
X6.1783Y-3.9441
X6.1783Y-4.0441
X6.1783Y-4.1441
X6.1783Y-4.2441
X6.1783Y-4.3441
X6.1783Y-4.4441
X6.1783Y-4.5441
X6.1783Y-4.6441
X6.1783Y-4.7441
X6.1783Y-4.8441
X6.1783Y-4.9441
X6.1783Y-5.0441
X6.1783Y-5.1441
X6.1882Y-2.0354
X6.1882Y-2.1354
X6.1882Y-5.4551
X6.1882Y-5.5551
X6.2783Y-2.7441
X6.2783Y-2.8441
X6.2783Y-2.9441
X6.2783Y-3.0441
X6.2783Y-3.1441
X6.2783Y-3.2441
X6.2783Y-3.3441
X6.2783Y-3.4441
X6.2783Y-3.5441
X6.2783Y-3.6441
X6.2783Y-3.7441
X6.2783Y-3.8441
X6.2783Y-3.9441
X6.2783Y-4.0441
X6.2783Y-4.1441
X6.2783Y-4.2441
X6.2783Y-4.3441
X6.2783Y-4.4441
X6.2783Y-4.5441
X6.2783Y-4.6441
X6.2783Y-4.7441
X6.2783Y-4.8441
X6.2783Y-4.9441
X6.2783Y-5.0441
X6.2783Y-5.1441
X6.2882Y-2.0354
X6.2882Y-2.1354
X6.2882Y-5.4551
X6.2882Y-5.5551
X6.3882Y-2.0354
X6.3882Y-2.1354
X6.3882Y-5.4551
X6.3882Y-5.5551
X6.4882Y-2.0354
X6.4882Y-2.1354
X6.4882Y-5.4551
X6.4882Y-5.5551
X6.7246Y-2.0354
X6.7246Y-2.1354
X6.7246Y-5.4551
X6.7246Y-5.5551
X6.8246Y-2.0354
X6.8246Y-2.1354
X6.8246Y-5.4551
X6.8246Y-5.5551
X6.9246Y-2.0354
X6.9246Y-2.1354
X6.9246Y-5.4551
X6.9246Y-5.5551
X7.0246Y-2.0354
X7.0246Y-2.1354
X7.0246Y-5.4551
X7.0246Y-5.5551
X7.1246Y-2.0354
X7.1246Y-2.1354
X7.1246Y-5.4551
X7.1246Y-5.5551
X7.2246Y-2.0354
X7.2246Y-2.1354
X7.2246Y-5.4551
X7.2246Y-5.5551
X7.3246Y-2.0354
X7.3246Y-2.1354
X7.3246Y-5.4551
X7.3246Y-5.5551
X7.4246Y-2.0354
X7.4246Y-2.1354
X7.4246Y-5.4551
X7.4246Y-5.5551
X7.55Y-4.8472
X7.55Y-4.9472
X7.65Y-4.8472
X7.65Y-4.9472
T11
X7.8224Y-4.8462
X7.8224Y-4.9462
T12
X3.5406Y-2.0217
X3.5406Y-5.5709
X7.7925Y-5.5709
X7.7925Y-2.0217
T13
X5.1283Y-5.0945
X6.2283Y-2.4941
T5
G00X3.4433Y-3.4291
M15
G01X3.4709Y-3.4291
M16
G05
G00X3.4709Y-3.7047
M15
G01X3.4433Y-3.7047
M16
G05
T7
G00X7.5213Y-5.0713
M15
G01X7.5685Y-5.0713
M16
G05
G00X7.5213Y-5.276
M15
G01X7.5685Y-5.276
M16
G05
G00X7.5213Y-5.4098
M15
G01X7.5685Y-5.4098
M16
G05
G00X7.6512Y-2.3315
M15
G01X7.6236Y-2.3315
M16
G05
G00X7.6512Y-2.4299
M15
G01X7.6236Y-2.4299
M16
G05
G00X7.6512Y-2.6268
M15
G01X7.6236Y-2.6268
M16
G05
G00X7.6512Y-2.7252
M15
G01X7.6236Y-2.7252
M16
G05
G00X7.6689Y-2.8236
M15
G01X7.6413Y-2.8236
M16
G05
G00X7.6689Y-3.1071
M15
G01X7.6413Y-3.1071
M16
G05
G00X7.7476Y-2.8236
M15
G01X7.7201Y-2.8236
M16
G05
G00X7.7963Y-4.4256
M15
G01X7.7648Y-4.4256
M16
G05
G00X7.7648Y-4.7484
M15
G01X7.7963Y-4.7484
M16
G05
G00X7.8067Y-3.1071
M15
G01X7.7791Y-3.1071
M16
G05
G00X7.8028Y-5.0358
M15
G01X7.8618Y-5.0358
M16
G05
G00X7.8028Y-5.4256
M15
G01X7.8618Y-5.4256
M16
G05
G00X7.8343Y-2.5421
M15
G01X7.8343Y-2.5146
M16
G05
G00X7.8539Y-2.8079
M15
G01X7.8264Y-2.8079
M16
G05
G00X7.8933Y-3.1504
M15
G01X7.8657Y-3.1504
M16
G05
T0
M30
