%TF.GenerationSoftware,KiCad,Pcbnew,(6.0.11)*%
%TF.CreationDate,2024-03-19T14:27:04-04:00*%
%TF.ProjectId,Ultrasonic Sound Steering - Control Rev. B,556c7472-6173-46f6-9e69-6320536f756e,rev?*%
%TF.SameCoordinates,Original*%
%TF.FileFunction,Soldermask,Bot*%
%TF.FilePolarity,Negative*%
%FSLAX46Y46*%
G04 Gerber Fmt 4.6, Leading zero omitted, Abs format (unit mm)*
G04 Created by KiCad (PCBNEW (6.0.11)) date 2024-03-19 14:27:04*
%MOMM*%
%LPD*%
G01*
G04 APERTURE LIST*
G04 Aperture macros list*
%AMRoundRect*
0 Rectangle with rounded corners*
0 $1 Rounding radius*
0 $2 $3 $4 $5 $6 $7 $8 $9 X,Y pos of 4 corners*
0 Add a 4 corners polygon primitive as box body*
4,1,4,$2,$3,$4,$5,$6,$7,$8,$9,$2,$3,0*
0 Add four circle primitives for the rounded corners*
1,1,$1+$1,$2,$3*
1,1,$1+$1,$4,$5*
1,1,$1+$1,$6,$7*
1,1,$1+$1,$8,$9*
0 Add four rect primitives between the rounded corners*
20,1,$1+$1,$2,$3,$4,$5,0*
20,1,$1+$1,$4,$5,$6,$7,0*
20,1,$1+$1,$6,$7,$8,$9,0*
20,1,$1+$1,$8,$9,$2,$3,0*%
G04 Aperture macros list end*
%ADD10RoundRect,0.102000X-0.754000X0.754000X-0.754000X-0.754000X0.754000X-0.754000X0.754000X0.754000X0*%
%ADD11C,1.712000*%
%ADD12C,6.204000*%
%ADD13C,0.504000*%
%ADD14C,4.800000*%
%ADD15C,1.500000*%
%ADD16O,2.600000X1.824000*%
%ADD17RoundRect,0.102000X-0.900000X0.900000X-0.900000X-0.900000X0.900000X-0.900000X0.900000X0.900000X0*%
%ADD18C,2.004000*%
%ADD19RoundRect,0.300000X0.625000X-0.350000X0.625000X0.350000X-0.625000X0.350000X-0.625000X-0.350000X0*%
%ADD20O,1.850000X1.300000*%
%ADD21RoundRect,0.275000X-0.225000X-0.250000X0.225000X-0.250000X0.225000X0.250000X-0.225000X0.250000X0*%
%ADD22RoundRect,0.050000X0.850000X-0.850000X0.850000X0.850000X-0.850000X0.850000X-0.850000X-0.850000X0*%
%ADD23O,1.800000X1.800000*%
%ADD24C,1.700000*%
%ADD25O,2.604000X1.404000*%
%ADD26RoundRect,0.102000X0.900000X0.900000X-0.900000X0.900000X-0.900000X-0.900000X0.900000X-0.900000X0*%
%ADD27RoundRect,0.050000X0.152400X-0.584200X0.152400X0.584200X-0.152400X0.584200X-0.152400X-0.584200X0*%
%ADD28RoundRect,0.250000X0.275000X-0.200000X0.275000X0.200000X-0.275000X0.200000X-0.275000X-0.200000X0*%
%ADD29RoundRect,0.300000X0.287500X0.275000X-0.287500X0.275000X-0.287500X-0.275000X0.287500X-0.275000X0*%
%ADD30RoundRect,0.250000X-0.200000X-0.275000X0.200000X-0.275000X0.200000X0.275000X-0.200000X0.275000X0*%
%ADD31RoundRect,0.050000X-0.850000X0.850000X-0.850000X-0.850000X0.850000X-0.850000X0.850000X0.850000X0*%
%ADD32RoundRect,0.250000X-0.275000X0.200000X-0.275000X-0.200000X0.275000X-0.200000X0.275000X0.200000X0*%
%ADD33RoundRect,0.050000X-0.350000X0.300000X-0.350000X-0.300000X0.350000X-0.300000X0.350000X0.300000X0*%
%ADD34RoundRect,0.050000X-0.152400X0.584200X-0.152400X-0.584200X0.152400X-0.584200X0.152400X0.584200X0*%
%ADD35RoundRect,0.050000X0.431800X0.800100X-0.431800X0.800100X-0.431800X-0.800100X0.431800X-0.800100X0*%
%ADD36RoundRect,0.275000X0.225000X0.250000X-0.225000X0.250000X-0.225000X-0.250000X0.225000X-0.250000X0*%
%ADD37RoundRect,0.050000X-0.488950X-0.279400X0.488950X-0.279400X0.488950X0.279400X-0.488950X0.279400X0*%
%ADD38RoundRect,0.275000X-0.250000X0.225000X-0.250000X-0.225000X0.250000X-0.225000X0.250000X0.225000X0*%
%ADD39RoundRect,0.275000X0.250000X-0.225000X0.250000X0.225000X-0.250000X0.225000X-0.250000X-0.225000X0*%
%ADD40RoundRect,0.050000X0.800100X-0.431800X0.800100X0.431800X-0.800100X0.431800X-0.800100X-0.431800X0*%
%ADD41RoundRect,0.050000X0.279400X-0.488950X0.279400X0.488950X-0.279400X0.488950X-0.279400X-0.488950X0*%
%ADD42RoundRect,0.300000X-0.275000X0.287500X-0.275000X-0.287500X0.275000X-0.287500X0.275000X0.287500X0*%
%ADD43RoundRect,0.200000X0.150000X-0.512500X0.150000X0.512500X-0.150000X0.512500X-0.150000X-0.512500X0*%
%ADD44RoundRect,0.250000X0.200000X0.275000X-0.200000X0.275000X-0.200000X-0.275000X0.200000X-0.275000X0*%
%ADD45RoundRect,0.300000X-0.287500X-0.275000X0.287500X-0.275000X0.287500X0.275000X-0.287500X0.275000X0*%
%ADD46RoundRect,0.268750X-0.218750X-0.256250X0.218750X-0.256250X0.218750X0.256250X-0.218750X0.256250X0*%
%ADD47RoundRect,0.050000X0.225000X0.725000X-0.225000X0.725000X-0.225000X-0.725000X0.225000X-0.725000X0*%
%ADD48RoundRect,0.200000X0.512500X0.150000X-0.512500X0.150000X-0.512500X-0.150000X0.512500X-0.150000X0*%
%ADD49RoundRect,0.300000X0.275000X-0.287500X0.275000X0.287500X-0.275000X0.287500X-0.275000X-0.287500X0*%
%ADD50RoundRect,0.050000X0.450000X0.600000X-0.450000X0.600000X-0.450000X-0.600000X0.450000X-0.600000X0*%
%ADD51RoundRect,0.050000X0.266700X-0.647700X0.266700X0.647700X-0.266700X0.647700X-0.266700X-0.647700X0*%
%ADD52RoundRect,0.050000X-0.450000X-0.600000X0.450000X-0.600000X0.450000X0.600000X-0.450000X0.600000X0*%
%ADD53RoundRect,0.050000X0.675000X-0.200000X0.675000X0.200000X-0.675000X0.200000X-0.675000X-0.200000X0*%
%ADD54C,1.550000*%
%ADD55O,2.000000X1.300000*%
%ADD56RoundRect,0.050000X0.950000X-0.750000X0.950000X0.750000X-0.950000X0.750000X-0.950000X-0.750000X0*%
%ADD57RoundRect,0.050000X0.950000X-0.600000X0.950000X0.600000X-0.950000X0.600000X-0.950000X-0.600000X0*%
%ADD58RoundRect,0.050000X0.350000X-0.300000X0.350000X0.300000X-0.350000X0.300000X-0.350000X-0.300000X0*%
%ADD59C,1.300000*%
%ADD60O,1.512000X2.820000*%
%ADD61O,2.820000X1.512000*%
%ADD62RoundRect,0.050000X-0.215900X0.679450X-0.215900X-0.679450X0.215900X-0.679450X0.215900X0.679450X0*%
%ADD63C,1.400000*%
%ADD64RoundRect,0.050000X-0.279400X0.647700X-0.279400X-0.647700X0.279400X-0.647700X0.279400X0.647700X0*%
G04 APERTURE END LIST*
D10*
%TO.C,U17*%
X128990000Y-123050000D03*
X159470000Y-69700000D03*
D11*
X131530000Y-123050000D03*
X156930000Y-69700000D03*
X128990000Y-120510000D03*
X159470000Y-72240000D03*
X131530000Y-120510000D03*
X156930000Y-72240000D03*
X128990000Y-117970000D03*
X159470000Y-74780000D03*
X131530000Y-117970000D03*
X156930000Y-74780000D03*
X128990000Y-115430000D03*
X159470000Y-77320000D03*
X131530000Y-115430000D03*
X156930000Y-77320000D03*
X128990000Y-112890000D03*
X159470000Y-79860000D03*
X131530000Y-112890000D03*
X156930000Y-79860000D03*
X128990000Y-110350000D03*
X159470000Y-82400000D03*
X131530000Y-110350000D03*
X156930000Y-82400000D03*
X128990000Y-107810000D03*
X159470000Y-84940000D03*
X131530000Y-107810000D03*
X156930000Y-84940000D03*
X128990000Y-105270000D03*
X159470000Y-87480000D03*
X131530000Y-105270000D03*
X156930000Y-87480000D03*
X128990000Y-102730000D03*
X159470000Y-90020000D03*
X131530000Y-102730000D03*
X156930000Y-90020000D03*
X128990000Y-100190000D03*
X159470000Y-92560000D03*
X131530000Y-100190000D03*
X156930000Y-92560000D03*
X128990000Y-97650000D03*
X159470000Y-95100000D03*
X131530000Y-97650000D03*
X156930000Y-95100000D03*
X128990000Y-95110000D03*
X159470000Y-97640000D03*
X131530000Y-95110000D03*
X156930000Y-97640000D03*
X128990000Y-92570000D03*
X159470000Y-100180000D03*
X131530000Y-92570000D03*
X156930000Y-100180000D03*
X128990000Y-90030000D03*
X159470000Y-102720000D03*
X131530000Y-90030000D03*
X156930000Y-102720000D03*
X128990000Y-87490000D03*
X159470000Y-105260000D03*
X131530000Y-87490000D03*
X156930000Y-105260000D03*
X128990000Y-84950000D03*
X159470000Y-107800000D03*
X131530000Y-84950000D03*
X156930000Y-107800000D03*
X128990000Y-82410000D03*
X159470000Y-110340000D03*
X131530000Y-82410000D03*
X156930000Y-110340000D03*
X128990000Y-79870000D03*
X159470000Y-112880000D03*
X131530000Y-79870000D03*
X156930000Y-112880000D03*
X128990000Y-77330000D03*
X159470000Y-115420000D03*
X131530000Y-77330000D03*
X156930000Y-115420000D03*
X128990000Y-74790000D03*
X159470000Y-117960000D03*
X131530000Y-74790000D03*
X156930000Y-117960000D03*
X128990000Y-72250000D03*
X159470000Y-120500000D03*
X131530000Y-72250000D03*
X156930000Y-120500000D03*
X128990000Y-69710000D03*
X159470000Y-123040000D03*
X131530000Y-69710000D03*
X156930000Y-123040000D03*
X128990000Y-67170000D03*
X159470000Y-125580000D03*
X131530000Y-67170000D03*
X156930000Y-125580000D03*
X128990000Y-64630000D03*
X159470000Y-128120000D03*
X131530000Y-64630000D03*
X156930000Y-128120000D03*
X128990000Y-62090000D03*
X159470000Y-130660000D03*
X131530000Y-62090000D03*
X156930000Y-130660000D03*
D12*
X158200000Y-63350000D03*
X130260000Y-129400000D03*
%TD*%
D13*
%TO.C,*%
X178590000Y-130460000D03*
%TD*%
%TO.C,*%
X176732500Y-130472500D03*
%TD*%
%TO.C,*%
X179640000Y-126875000D03*
%TD*%
D14*
%TO.C,H2*%
X89930177Y-51350000D03*
%TD*%
D13*
%TO.C,*%
X182440000Y-131465000D03*
%TD*%
%TO.C,*%
X176732500Y-129267500D03*
%TD*%
%TO.C,*%
X176732500Y-131472500D03*
%TD*%
%TO.C,*%
X183380000Y-128070000D03*
%TD*%
%TO.C,*%
X184350000Y-130445000D03*
%TD*%
%TO.C,*%
X177660000Y-126865000D03*
%TD*%
%TO.C,*%
X183380000Y-131465000D03*
%TD*%
%TO.C,*%
X175810000Y-130470000D03*
%TD*%
D15*
%TO.C,SW1*%
X197625000Y-118510000D03*
X197625000Y-116510000D03*
X197625000Y-114510000D03*
D16*
X197625000Y-112410000D03*
X197625000Y-120610000D03*
%TD*%
D13*
%TO.C,*%
X174860000Y-126875000D03*
%TD*%
D17*
%TO.C,P13*%
X198690000Y-123092500D03*
D18*
X198690000Y-125632500D03*
%TD*%
D13*
%TO.C,*%
X172830000Y-96160000D03*
%TD*%
%TO.C,*%
X174850000Y-129265000D03*
%TD*%
%TO.C,*%
X184340000Y-126850000D03*
%TD*%
%TO.C,*%
X194880000Y-87710000D03*
%TD*%
%TO.C,*%
X176742500Y-126877500D03*
%TD*%
%TO.C,*%
X176742500Y-128082500D03*
%TD*%
%TO.C,*%
X172155000Y-95485000D03*
%TD*%
%TO.C,*%
X174860000Y-128080000D03*
%TD*%
%TO.C,*%
X182450000Y-129255000D03*
%TD*%
%TO.C,*%
X182440000Y-128070000D03*
%TD*%
D14*
%TO.C,H1*%
X197930189Y-51350000D03*
%TD*%
D13*
%TO.C,*%
X174850000Y-131470000D03*
%TD*%
%TO.C,*%
X184340000Y-128055000D03*
%TD*%
%TO.C,*%
X177650000Y-130460000D03*
%TD*%
%TO.C,*%
X184350000Y-129240000D03*
%TD*%
%TO.C,*%
X182450000Y-130460000D03*
%TD*%
%TO.C,*%
X177660000Y-128070000D03*
%TD*%
%TO.C,*%
X180610000Y-130470000D03*
%TD*%
%TO.C,*%
X181522500Y-131477500D03*
%TD*%
%TO.C,*%
X180610000Y-131470000D03*
%TD*%
D19*
%TO.C,P20*%
X102880000Y-63660000D03*
D20*
X102880000Y-61660000D03*
%TD*%
D13*
%TO.C,*%
X182440000Y-126865000D03*
%TD*%
%TO.C,*%
X194880000Y-86505000D03*
%TD*%
%TO.C,*%
X184340000Y-131450000D03*
%TD*%
%TO.C,*%
X178600000Y-126865000D03*
%TD*%
D19*
%TO.C,P10*%
X113880000Y-63650000D03*
D20*
X113880000Y-61650000D03*
%TD*%
D14*
%TO.C,H3*%
X197930172Y-141500000D03*
%TD*%
D13*
%TO.C,*%
X175820000Y-128080000D03*
%TD*%
%TO.C,*%
X180600000Y-128080000D03*
%TD*%
%TO.C,*%
X172155000Y-96160000D03*
%TD*%
%TO.C,*%
X177650000Y-129255000D03*
%TD*%
%TO.C,*%
X179650000Y-131470000D03*
%TD*%
%TO.C,*%
X183380000Y-126865000D03*
%TD*%
%TO.C,*%
X193940000Y-87710000D03*
%TD*%
%TO.C,*%
X175810000Y-131470000D03*
%TD*%
%TO.C,*%
X183390000Y-129255000D03*
%TD*%
%TO.C,*%
X180600000Y-126875000D03*
%TD*%
%TO.C,*%
X175810000Y-129265000D03*
%TD*%
%TO.C,*%
X175820000Y-126875000D03*
%TD*%
%TO.C,*%
X178590000Y-131460000D03*
%TD*%
%TO.C,*%
X177650000Y-131460000D03*
%TD*%
%TO.C,*%
X172830000Y-95485000D03*
%TD*%
%TO.C,*%
X183390000Y-130460000D03*
%TD*%
D14*
%TO.C,H4*%
X89930214Y-141500000D03*
%TD*%
D13*
%TO.C,*%
X178590000Y-129255000D03*
%TD*%
%TO.C,*%
X181532500Y-129267500D03*
%TD*%
%TO.C,*%
X181522500Y-128082500D03*
%TD*%
%TO.C,*%
X179650000Y-130470000D03*
%TD*%
%TO.C,*%
X181532500Y-130472500D03*
%TD*%
%TO.C,*%
X180610000Y-129265000D03*
%TD*%
%TO.C,*%
X179650000Y-129265000D03*
%TD*%
%TO.C,*%
X178600000Y-128070000D03*
%TD*%
%TO.C,*%
X179640000Y-128080000D03*
%TD*%
D19*
%TO.C,P17*%
X108380000Y-63655000D03*
D20*
X108380000Y-61655000D03*
%TD*%
D13*
%TO.C,*%
X174850000Y-130470000D03*
%TD*%
%TO.C,*%
X193940000Y-86505000D03*
%TD*%
%TO.C,*%
X181522500Y-126877500D03*
%TD*%
D21*
%TO.C,C5*%
X108760000Y-119100000D03*
X110310000Y-119100000D03*
%TD*%
%TO.C,C124*%
X162425000Y-130760000D03*
X163975000Y-130760000D03*
%TD*%
D22*
%TO.C,P5*%
X188585101Y-138560000D03*
D23*
X188585101Y-141100000D03*
X186045101Y-138560000D03*
X186045101Y-141100000D03*
X183505101Y-138560000D03*
X183505101Y-141100000D03*
X180965101Y-138560000D03*
X180965101Y-141100000D03*
X178425101Y-138560000D03*
X178425101Y-141100000D03*
X175885101Y-138560000D03*
X175885101Y-141100000D03*
X173345101Y-138560000D03*
X173345101Y-141100000D03*
X170805101Y-138560000D03*
X170805101Y-141100000D03*
%TD*%
D24*
%TO.C,P11*%
X198940000Y-75320000D03*
X193940000Y-75320000D03*
D25*
X200140000Y-80020000D03*
X194440000Y-78920000D03*
D26*
X194440000Y-71720000D03*
D25*
X199140000Y-71320000D03*
X197940000Y-78920000D03*
D26*
X196440000Y-71720000D03*
%TD*%
D27*
%TO.C,U21*%
X122655000Y-66230200D03*
X122004999Y-66230200D03*
X121355001Y-66230200D03*
X120704999Y-66230200D03*
X120055001Y-66230200D03*
X119405002Y-66230200D03*
X118755001Y-66230200D03*
X118105002Y-66230200D03*
X117455001Y-66230200D03*
X116805002Y-66230200D03*
X116805000Y-60489800D03*
X117454998Y-60489800D03*
X118104999Y-60489800D03*
X118754998Y-60489800D03*
X119404999Y-60489800D03*
X120054998Y-60489800D03*
X120704999Y-60489800D03*
X121354998Y-60489800D03*
X122004999Y-60489800D03*
X122654998Y-60489800D03*
%TD*%
D28*
%TO.C,R130*%
X169220000Y-111465000D03*
X169220000Y-109815000D03*
%TD*%
D29*
%TO.C,C145*%
X184062500Y-91560000D03*
X182637500Y-91560000D03*
%TD*%
D19*
%TO.C,P21*%
X92290000Y-136030000D03*
D20*
X92290000Y-134030000D03*
%TD*%
D30*
%TO.C,R84*%
X137010000Y-89254500D03*
X138660000Y-89254500D03*
%TD*%
%TO.C,R89*%
X177446500Y-103214600D03*
X179096500Y-103214600D03*
%TD*%
D31*
%TO.C,P16*%
X191770000Y-125660000D03*
D23*
X191770000Y-123120000D03*
X194310000Y-125660000D03*
X194310000Y-123120000D03*
%TD*%
D32*
%TO.C,R59*%
X115001000Y-75112501D03*
X115001000Y-76762501D03*
%TD*%
D33*
%TO.C,D25*%
X92590000Y-92800000D03*
X92590000Y-91400000D03*
%TD*%
D28*
%TO.C,R90*%
X179450000Y-94395000D03*
X179450000Y-92745000D03*
%TD*%
D30*
%TO.C,R91*%
X140780000Y-89254500D03*
X142430000Y-89254500D03*
%TD*%
D34*
%TO.C,U18*%
X148265000Y-126489800D03*
X148915001Y-126489800D03*
X149564999Y-126489800D03*
X150215001Y-126489800D03*
X150864999Y-126489800D03*
X151514998Y-126489800D03*
X152164999Y-126489800D03*
X152814998Y-126489800D03*
X153464999Y-126489800D03*
X154114998Y-126489800D03*
X154115000Y-132230200D03*
X153465002Y-132230200D03*
X152815001Y-132230200D03*
X152165002Y-132230200D03*
X151515001Y-132230200D03*
X150865002Y-132230200D03*
X150215001Y-132230200D03*
X149565002Y-132230200D03*
X148915001Y-132230200D03*
X148265002Y-132230200D03*
%TD*%
D35*
%TO.C,Q8*%
X142375001Y-93140000D03*
X140474999Y-93140000D03*
X141425000Y-91129000D03*
%TD*%
D32*
%TO.C,R50*%
X185740000Y-119635000D03*
X185740000Y-121285000D03*
%TD*%
D36*
%TO.C,C126*%
X125595000Y-60490000D03*
X124045000Y-60490000D03*
%TD*%
D28*
%TO.C,R52*%
X103620000Y-73577500D03*
X103620000Y-71927500D03*
%TD*%
D37*
%TO.C,U2*%
X99819750Y-117140001D03*
X99819750Y-116190000D03*
X99819750Y-115239999D03*
X102550250Y-115239999D03*
X102550250Y-116190000D03*
X102550250Y-117140001D03*
%TD*%
D38*
%TO.C,C17*%
X93580000Y-116980000D03*
X93580000Y-118530000D03*
%TD*%
D39*
%TO.C,C41*%
X190110000Y-99645000D03*
X190110000Y-98095000D03*
%TD*%
D38*
%TO.C,C11*%
X102615000Y-119035000D03*
X102615000Y-120585000D03*
%TD*%
D30*
%TO.C,R57*%
X176415000Y-94320000D03*
X178065000Y-94320000D03*
%TD*%
D36*
%TO.C,C143*%
X184145000Y-93092500D03*
X182595000Y-93092500D03*
%TD*%
%TO.C,C2*%
X153580000Y-61960000D03*
X152030000Y-61960000D03*
%TD*%
D28*
%TO.C,R7*%
X101125000Y-113435000D03*
X101125000Y-111785000D03*
%TD*%
D40*
%TO.C,Q2*%
X107380000Y-70290002D03*
X107380000Y-68390000D03*
X109391000Y-69340001D03*
%TD*%
D38*
%TO.C,C139*%
X185770000Y-81760000D03*
X185770000Y-83310000D03*
%TD*%
D29*
%TO.C,C6*%
X190102500Y-85850000D03*
X188677500Y-85850000D03*
%TD*%
D21*
%TO.C,C78*%
X187175000Y-119720000D03*
X188725000Y-119720000D03*
%TD*%
D39*
%TO.C,C55*%
X187160000Y-99042500D03*
X187160000Y-97492500D03*
%TD*%
D41*
%TO.C,U9*%
X188760000Y-135125250D03*
X187809999Y-135125250D03*
X186859998Y-135125250D03*
X186859998Y-132394750D03*
X187809999Y-132394750D03*
X188760000Y-132394750D03*
%TD*%
D42*
%TO.C,C10*%
X104100000Y-119117500D03*
X104100000Y-120542500D03*
%TD*%
D36*
%TO.C,C23*%
X181755000Y-69510000D03*
X180205000Y-69510000D03*
%TD*%
%TO.C,C20*%
X197635000Y-86600000D03*
X196085000Y-86600000D03*
%TD*%
D30*
%TO.C,R95*%
X178635231Y-77323291D03*
X180285231Y-77323291D03*
%TD*%
D43*
%TO.C,U25*%
X139365000Y-87392000D03*
X138415000Y-87392000D03*
X137465000Y-87392000D03*
X137465000Y-85117000D03*
X139365000Y-85117000D03*
%TD*%
D21*
%TO.C,C157*%
X180971631Y-87240000D03*
X182521631Y-87240000D03*
%TD*%
%TO.C,C121*%
X145335000Y-132250000D03*
X146885000Y-132250000D03*
%TD*%
D36*
%TO.C,C151*%
X176085000Y-110820000D03*
X174535000Y-110820000D03*
%TD*%
D44*
%TO.C,R126*%
X195440000Y-112410000D03*
X193790000Y-112410000D03*
%TD*%
D38*
%TO.C,C154*%
X182880000Y-104765000D03*
X182880000Y-106315000D03*
%TD*%
D21*
%TO.C,C129*%
X116875000Y-130720000D03*
X118425000Y-130720000D03*
%TD*%
%TO.C,C125*%
X116875000Y-132250000D03*
X118425000Y-132250000D03*
%TD*%
D37*
%TO.C,U1*%
X109478825Y-117140001D03*
X109478825Y-116190000D03*
X109478825Y-115239999D03*
X112209325Y-115239999D03*
X112209325Y-116190000D03*
X112209325Y-117140001D03*
%TD*%
D21*
%TO.C,C48*%
X188620000Y-93092500D03*
X190170000Y-93092500D03*
%TD*%
D35*
%TO.C,Q7*%
X138605001Y-93145500D03*
X136704999Y-93145500D03*
X137655000Y-91134500D03*
%TD*%
D38*
%TO.C,C63*%
X184310000Y-81760000D03*
X184310000Y-83310000D03*
%TD*%
D32*
%TO.C,R9*%
X98135000Y-111785000D03*
X98135000Y-113435000D03*
%TD*%
D31*
%TO.C,P4*%
X99305101Y-54240000D03*
D23*
X99305101Y-51700000D03*
X101845101Y-54240000D03*
X101845101Y-51700000D03*
X104385101Y-54240000D03*
X104385101Y-51700000D03*
X106925101Y-54240000D03*
X106925101Y-51700000D03*
X109465101Y-54240000D03*
X109465101Y-51700000D03*
X112005101Y-54240000D03*
X112005101Y-51700000D03*
X114545101Y-54240000D03*
X114545101Y-51700000D03*
X117085101Y-54240000D03*
X117085101Y-51700000D03*
%TD*%
D21*
%TO.C,C90*%
X198125000Y-104790000D03*
X199675000Y-104790000D03*
%TD*%
%TO.C,C25*%
X195745000Y-90745000D03*
X197295000Y-90745000D03*
%TD*%
D45*
%TO.C,C161*%
X181057500Y-88750000D03*
X182482500Y-88750000D03*
%TD*%
D36*
%TO.C,C57*%
X183270231Y-77323291D03*
X181720231Y-77323291D03*
%TD*%
D30*
%TO.C,R103*%
X174481500Y-103214600D03*
X176131500Y-103214600D03*
%TD*%
D21*
%TO.C,C24*%
X195750000Y-89235000D03*
X197300000Y-89235000D03*
%TD*%
D28*
%TO.C,R64*%
X110190000Y-73560000D03*
X110190000Y-71910000D03*
%TD*%
%TO.C,R60*%
X115000000Y-73555000D03*
X115000000Y-71905000D03*
%TD*%
D36*
%TO.C,C58*%
X183270231Y-78823291D03*
X181720231Y-78823291D03*
%TD*%
D32*
%TO.C,R63*%
X110191000Y-75115001D03*
X110191000Y-76765001D03*
%TD*%
D30*
%TO.C,R22*%
X188565000Y-87900000D03*
X190215000Y-87900000D03*
%TD*%
D38*
%TO.C,C77*%
X147980000Y-104545000D03*
X147980000Y-106095000D03*
%TD*%
D44*
%TO.C,R83*%
X138660000Y-95030000D03*
X137010000Y-95030000D03*
%TD*%
D29*
%TO.C,C53*%
X177142500Y-81820000D03*
X175717500Y-81820000D03*
%TD*%
D21*
%TO.C,C122*%
X162425000Y-132220000D03*
X163975000Y-132220000D03*
%TD*%
D44*
%TO.C,R18*%
X190215000Y-82880000D03*
X188565000Y-82880000D03*
%TD*%
D21*
%TO.C,C155*%
X180971631Y-85720000D03*
X182521631Y-85720000D03*
%TD*%
D36*
%TO.C,C42*%
X175055000Y-92860000D03*
X173505000Y-92860000D03*
%TD*%
D30*
%TO.C,R123*%
X137010000Y-83300000D03*
X138660000Y-83300000D03*
%TD*%
D22*
%TO.C,P7*%
X140977601Y-138560000D03*
D23*
X140977601Y-141100000D03*
X138437601Y-138560000D03*
X138437601Y-141100000D03*
X135897601Y-138560000D03*
X135897601Y-141100000D03*
X133357601Y-138560000D03*
X133357601Y-141100000D03*
X130817601Y-138560000D03*
X130817601Y-141100000D03*
X128277601Y-138560000D03*
X128277601Y-141100000D03*
X125737601Y-138560000D03*
X125737601Y-141100000D03*
X123197601Y-138560000D03*
X123197601Y-141100000D03*
%TD*%
D21*
%TO.C,C1*%
X134485000Y-130740000D03*
X136035000Y-130740000D03*
%TD*%
%TO.C,C123*%
X145335000Y-130790000D03*
X146885000Y-130790000D03*
%TD*%
D44*
%TO.C,R86*%
X142430000Y-95024500D03*
X140780000Y-95024500D03*
%TD*%
D36*
%TO.C,C93*%
X178015000Y-92860000D03*
X176465000Y-92860000D03*
%TD*%
D31*
%TO.C,P1*%
X170805101Y-54240000D03*
D23*
X170805101Y-51700000D03*
X173345101Y-54240000D03*
X173345101Y-51700000D03*
X175885101Y-54240000D03*
X175885101Y-51700000D03*
X178425101Y-54240000D03*
X178425101Y-51700000D03*
X180965101Y-54240000D03*
X180965101Y-51700000D03*
X183505101Y-54240000D03*
X183505101Y-51700000D03*
X186045101Y-54240000D03*
X186045101Y-51700000D03*
X188585101Y-54240000D03*
X188585101Y-51700000D03*
%TD*%
D38*
%TO.C,C14*%
X92120000Y-116975000D03*
X92120000Y-118525000D03*
%TD*%
D40*
%TO.C,Q1*%
X112154700Y-70286302D03*
X112154700Y-68386300D03*
X114165700Y-69336301D03*
%TD*%
D42*
%TO.C,C8*%
X113578825Y-119157501D03*
X113578825Y-120582501D03*
%TD*%
D38*
%TO.C,C4*%
X99635000Y-111835000D03*
X99635000Y-113385000D03*
%TD*%
D30*
%TO.C,R87*%
X180105000Y-80280000D03*
X181755000Y-80280000D03*
%TD*%
D39*
%TO.C,C66*%
X184310000Y-74430000D03*
X184310000Y-72880000D03*
%TD*%
D36*
%TO.C,C99*%
X142785000Y-60590000D03*
X141235000Y-60590000D03*
%TD*%
D46*
%TO.C,L1*%
X184300000Y-104790000D03*
X185875000Y-104790000D03*
%TD*%
D31*
%TO.C,P2*%
X147020101Y-54240000D03*
D23*
X147020101Y-51700000D03*
X149560101Y-54240000D03*
X149560101Y-51700000D03*
X152100101Y-54240000D03*
X152100101Y-51700000D03*
X154640101Y-54240000D03*
X154640101Y-51700000D03*
X157180101Y-54240000D03*
X157180101Y-51700000D03*
X159720101Y-54240000D03*
X159720101Y-51700000D03*
X162260101Y-54240000D03*
X162260101Y-51700000D03*
X164800101Y-54240000D03*
X164800101Y-51700000D03*
%TD*%
D28*
%TO.C,R20*%
X107430000Y-117080000D03*
X107430000Y-115430000D03*
%TD*%
D29*
%TO.C,C18*%
X197550000Y-85090000D03*
X196125000Y-85090000D03*
%TD*%
D38*
%TO.C,C137*%
X181290000Y-108155000D03*
X181290000Y-109705000D03*
%TD*%
D29*
%TO.C,C156*%
X191865000Y-104792000D03*
X190440000Y-104792000D03*
%TD*%
D47*
%TO.C,U23*%
X177523631Y-91250000D03*
X176873631Y-91250000D03*
X176223631Y-91250000D03*
X175573631Y-91250000D03*
X175573631Y-86850000D03*
X176223631Y-86850000D03*
X176873631Y-86850000D03*
X177523631Y-86850000D03*
%TD*%
D44*
%TO.C,R11*%
X100865000Y-120565000D03*
X99215000Y-120565000D03*
%TD*%
D22*
%TO.C,P6*%
X164800101Y-138560000D03*
D23*
X164800101Y-141100000D03*
X162260101Y-138560000D03*
X162260101Y-141100000D03*
X159720101Y-138560000D03*
X159720101Y-141100000D03*
X157180101Y-138560000D03*
X157180101Y-141100000D03*
X154640101Y-138560000D03*
X154640101Y-141100000D03*
X152100101Y-138560000D03*
X152100101Y-141100000D03*
X149560101Y-138560000D03*
X149560101Y-141100000D03*
X147020101Y-138560000D03*
X147020101Y-141100000D03*
%TD*%
D48*
%TO.C,U26*%
X168095750Y-102060000D03*
X168095750Y-103010000D03*
X168095750Y-103960000D03*
X165820750Y-103960000D03*
X165820750Y-102060000D03*
%TD*%
D38*
%TO.C,C128*%
X140895000Y-84904500D03*
X140895000Y-86454500D03*
%TD*%
D39*
%TO.C,C32*%
X193930000Y-97485000D03*
X193930000Y-95935000D03*
%TD*%
D32*
%TO.C,R122*%
X178490000Y-83715000D03*
X178490000Y-85365000D03*
%TD*%
D27*
%TO.C,U14*%
X168555000Y-66330200D03*
X167904999Y-66330200D03*
X167255001Y-66330200D03*
X166604999Y-66330200D03*
X165955001Y-66330200D03*
X165305002Y-66330200D03*
X164655001Y-66330200D03*
X164005002Y-66330200D03*
X163355001Y-66330200D03*
X162705002Y-66330200D03*
X162705000Y-60589800D03*
X163354998Y-60589800D03*
X164004999Y-60589800D03*
X164654998Y-60589800D03*
X165304999Y-60589800D03*
X165954998Y-60589800D03*
X166604999Y-60589800D03*
X167254998Y-60589800D03*
X167904999Y-60589800D03*
X168554998Y-60589800D03*
%TD*%
D36*
%TO.C,C132*%
X104657500Y-89640000D03*
X103107500Y-89640000D03*
%TD*%
D32*
%TO.C,R106*%
X174010000Y-86225000D03*
X174010000Y-87875000D03*
%TD*%
D21*
%TO.C,C94*%
X134485000Y-132250000D03*
X136035000Y-132250000D03*
%TD*%
D49*
%TO.C,C153*%
X181370000Y-106235000D03*
X181370000Y-104810000D03*
%TD*%
D44*
%TO.C,R13*%
X190215000Y-89360000D03*
X188565000Y-89360000D03*
%TD*%
D39*
%TO.C,C144*%
X185770000Y-74430000D03*
X185770000Y-72880000D03*
%TD*%
D30*
%TO.C,R19*%
X188565000Y-84340000D03*
X190215000Y-84340000D03*
%TD*%
%TO.C,R42*%
X180065000Y-75860000D03*
X181715000Y-75860000D03*
%TD*%
D36*
%TO.C,C45*%
X190135000Y-101080000D03*
X188585000Y-101080000D03*
%TD*%
D22*
%TO.C,P8*%
X117085101Y-138560000D03*
D23*
X117085101Y-141100000D03*
X114545101Y-138560000D03*
X114545101Y-141100000D03*
X112005101Y-138560000D03*
X112005101Y-141100000D03*
X109465101Y-138560000D03*
X109465101Y-141100000D03*
X106925101Y-138560000D03*
X106925101Y-141100000D03*
X104385101Y-138560000D03*
X104385101Y-141100000D03*
X101845101Y-138560000D03*
X101845101Y-141100000D03*
X99305101Y-138560000D03*
X99305101Y-141100000D03*
%TD*%
D36*
%TO.C,C98*%
X104652500Y-88100000D03*
X103102500Y-88100000D03*
%TD*%
D50*
%TO.C,D4*%
X181200000Y-117860000D03*
X177900000Y-117860000D03*
%TD*%
D28*
%TO.C,R61*%
X113401000Y-73562501D03*
X113401000Y-71912501D03*
%TD*%
D34*
%TO.C,U15*%
X137405000Y-126489800D03*
X138055001Y-126489800D03*
X138704999Y-126489800D03*
X139355001Y-126489800D03*
X140004999Y-126489800D03*
X140654998Y-126489800D03*
X141304999Y-126489800D03*
X141954998Y-126489800D03*
X142604999Y-126489800D03*
X143254998Y-126489800D03*
X143255000Y-132230200D03*
X142605002Y-132230200D03*
X141955001Y-132230200D03*
X141305002Y-132230200D03*
X140655001Y-132230200D03*
X140005002Y-132230200D03*
X139355001Y-132230200D03*
X138705002Y-132230200D03*
X138055001Y-132230200D03*
X137405002Y-132230200D03*
%TD*%
D36*
%TO.C,C96*%
X142780000Y-62110000D03*
X141230000Y-62110000D03*
%TD*%
D51*
%TO.C,Q5*%
X188772500Y-130483000D03*
X187820000Y-130483000D03*
X186867500Y-130483000D03*
X186867500Y-128070000D03*
X187820000Y-128070000D03*
X188772500Y-128070000D03*
%TD*%
D32*
%TO.C,R6*%
X102605000Y-111785000D03*
X102605000Y-113435000D03*
%TD*%
%TO.C,R92*%
X187160000Y-94442500D03*
X187160000Y-96092500D03*
%TD*%
D52*
%TO.C,D2*%
X144710000Y-109150000D03*
X148010000Y-109150000D03*
%TD*%
D39*
%TO.C,C35*%
X182730000Y-99630000D03*
X182730000Y-98080000D03*
%TD*%
D34*
%TO.C,U20*%
X119805000Y-126489800D03*
X120455001Y-126489800D03*
X121104999Y-126489800D03*
X121755001Y-126489800D03*
X122404999Y-126489800D03*
X123054998Y-126489800D03*
X123704999Y-126489800D03*
X124354998Y-126489800D03*
X125004999Y-126489800D03*
X125654998Y-126489800D03*
X125655000Y-132230200D03*
X125005002Y-132230200D03*
X124355001Y-132230200D03*
X123705002Y-132230200D03*
X123055001Y-132230200D03*
X122405002Y-132230200D03*
X121755001Y-132230200D03*
X121105002Y-132230200D03*
X120455001Y-132230200D03*
X119805002Y-132230200D03*
%TD*%
D28*
%TO.C,R66*%
X106991000Y-73565001D03*
X106991000Y-71915001D03*
%TD*%
D53*
%TO.C,P18*%
X90510000Y-91900000D03*
X90510000Y-91250000D03*
X90510000Y-90600000D03*
X90510000Y-89950000D03*
X90510000Y-89300000D03*
D54*
X90510000Y-88100000D03*
X90510000Y-93100000D03*
D55*
X87810000Y-87100000D03*
D56*
X87810000Y-89600000D03*
D55*
X87810000Y-94100000D03*
D56*
X87810000Y-91600000D03*
D57*
X87810000Y-87700000D03*
X87810000Y-93500000D03*
%TD*%
D58*
%TO.C,D24*%
X92590000Y-89060000D03*
X92590000Y-90460000D03*
%TD*%
D45*
%TO.C,C51*%
X188697500Y-91580000D03*
X190122500Y-91580000D03*
%TD*%
D28*
%TO.C,R62*%
X111801000Y-73562501D03*
X111801000Y-71912501D03*
%TD*%
%TO.C,R129*%
X170760000Y-111465000D03*
X170760000Y-109815000D03*
%TD*%
D33*
%TO.C,D23*%
X92610000Y-96210000D03*
X92610000Y-94810000D03*
%TD*%
D34*
%TO.C,U13*%
X165365000Y-126489800D03*
X166015001Y-126489800D03*
X166664999Y-126489800D03*
X167315001Y-126489800D03*
X167964999Y-126489800D03*
X168614998Y-126489800D03*
X169264999Y-126489800D03*
X169914998Y-126489800D03*
X170564999Y-126489800D03*
X171214998Y-126489800D03*
X171215000Y-132230200D03*
X170565002Y-132230200D03*
X169915001Y-132230200D03*
X169265002Y-132230200D03*
X168615001Y-132230200D03*
X167965002Y-132230200D03*
X167315001Y-132230200D03*
X166665002Y-132230200D03*
X166015001Y-132230200D03*
X165365002Y-132230200D03*
%TD*%
D48*
%TO.C,U27*%
X168088500Y-105855000D03*
X168088500Y-106805000D03*
X168088500Y-107755000D03*
X165813500Y-107755000D03*
X165813500Y-105855000D03*
%TD*%
D38*
%TO.C,C76*%
X188880000Y-106650000D03*
X188880000Y-108200000D03*
%TD*%
D21*
%TO.C,C7*%
X99265000Y-119065000D03*
X100815000Y-119065000D03*
%TD*%
D31*
%TO.C,P3*%
X123197601Y-54240000D03*
D23*
X123197601Y-51700000D03*
X125737601Y-54240000D03*
X125737601Y-51700000D03*
X128277601Y-54240000D03*
X128277601Y-51700000D03*
X130817601Y-54240000D03*
X130817601Y-51700000D03*
X133357601Y-54240000D03*
X133357601Y-51700000D03*
X135897601Y-54240000D03*
X135897601Y-51700000D03*
X138437601Y-54240000D03*
X138437601Y-51700000D03*
X140977601Y-54240000D03*
X140977601Y-51700000D03*
%TD*%
D38*
%TO.C,C166*%
X164111000Y-105815000D03*
X164111000Y-107365000D03*
%TD*%
D30*
%TO.C,R49*%
X187125000Y-121205000D03*
X188775000Y-121205000D03*
%TD*%
D44*
%TO.C,R67*%
X89955000Y-96160000D03*
X88305000Y-96160000D03*
%TD*%
D38*
%TO.C,C165*%
X162658250Y-102015000D03*
X162658250Y-103565000D03*
%TD*%
D59*
%TO.C,P12*%
X198990000Y-59220000D03*
X201490000Y-59220000D03*
X193990000Y-64220000D03*
X198990000Y-69220000D03*
X201490000Y-69220000D03*
D60*
X198990000Y-64220000D03*
D61*
X193990000Y-69220000D03*
X193990000Y-59220000D03*
X193990000Y-66720000D03*
X193990000Y-61720000D03*
%TD*%
D44*
%TO.C,R132*%
X166635000Y-111310000D03*
X164985000Y-111310000D03*
%TD*%
D32*
%TO.C,R93*%
X185600000Y-94447500D03*
X185600000Y-96097500D03*
%TD*%
D27*
%TO.C,U16*%
X139855000Y-66330200D03*
X139204999Y-66330200D03*
X138555001Y-66330200D03*
X137904999Y-66330200D03*
X137255001Y-66330200D03*
X136605002Y-66330200D03*
X135955001Y-66330200D03*
X135305002Y-66330200D03*
X134655001Y-66330200D03*
X134005002Y-66330200D03*
X134005000Y-60589800D03*
X134654998Y-60589800D03*
X135304999Y-60589800D03*
X135954998Y-60589800D03*
X136604999Y-60589800D03*
X137254998Y-60589800D03*
X137904999Y-60589800D03*
X138554998Y-60589800D03*
X139204999Y-60589800D03*
X139854998Y-60589800D03*
%TD*%
D28*
%TO.C,R51*%
X102160000Y-73580000D03*
X102160000Y-71930000D03*
%TD*%
D38*
%TO.C,C127*%
X142355000Y-84904500D03*
X142355000Y-86454500D03*
%TD*%
D36*
%TO.C,C97*%
X171515000Y-62110000D03*
X169965000Y-62110000D03*
%TD*%
D38*
%TO.C,C163*%
X169820000Y-102010000D03*
X169820000Y-103560000D03*
%TD*%
D62*
%TO.C,U24*%
X177716501Y-104965750D03*
X178366499Y-104965750D03*
X179016501Y-104965750D03*
X179666499Y-104965750D03*
X179666499Y-109423450D03*
X179016501Y-109423450D03*
X178366499Y-109423450D03*
X177716501Y-109423450D03*
%TD*%
D36*
%TO.C,C84*%
X187265000Y-118250000D03*
X185715000Y-118250000D03*
%TD*%
D19*
%TO.C,P14*%
X92280000Y-70790000D03*
D20*
X92280000Y-68790000D03*
X92280000Y-66790000D03*
X92280000Y-64790000D03*
X92280000Y-62790000D03*
X92280000Y-60790000D03*
X92280000Y-58790000D03*
X92280000Y-56790000D03*
%TD*%
D27*
%TO.C,U19*%
X150655000Y-66230200D03*
X150004999Y-66230200D03*
X149355001Y-66230200D03*
X148704999Y-66230200D03*
X148055001Y-66230200D03*
X147405002Y-66230200D03*
X146755001Y-66230200D03*
X146105002Y-66230200D03*
X145455001Y-66230200D03*
X144805002Y-66230200D03*
X144805000Y-60489800D03*
X145454998Y-60489800D03*
X146104999Y-60489800D03*
X146754998Y-60489800D03*
X147404999Y-60489800D03*
X148054998Y-60489800D03*
X148704999Y-60489800D03*
X149354998Y-60489800D03*
X150004999Y-60489800D03*
X150654998Y-60489800D03*
%TD*%
D32*
%TO.C,R127*%
X94630000Y-106550000D03*
X94630000Y-108200000D03*
%TD*%
D38*
%TO.C,C167*%
X162651000Y-105815000D03*
X162651000Y-107365000D03*
%TD*%
D44*
%TO.C,R85*%
X142430000Y-96484500D03*
X140780000Y-96484500D03*
%TD*%
D36*
%TO.C,C100*%
X171515000Y-60580000D03*
X169965000Y-60580000D03*
%TD*%
D39*
%TO.C,C56*%
X185600001Y-99047500D03*
X185600001Y-97497500D03*
%TD*%
D44*
%TO.C,R82*%
X138660000Y-96490000D03*
X137010000Y-96490000D03*
%TD*%
D32*
%TO.C,R43*%
X184140000Y-96105000D03*
X184140000Y-97755000D03*
%TD*%
D63*
%TO.C,P9*%
X197940000Y-134110000D03*
D61*
X191640000Y-137410000D03*
X191640000Y-128810000D03*
X191640000Y-134010000D03*
X198940000Y-127910000D03*
X198940000Y-137810000D03*
%TD*%
D64*
%TO.C,Q6*%
X186867500Y-123577000D03*
X187820000Y-123577000D03*
X188772500Y-123577000D03*
X188772500Y-125990000D03*
X187820000Y-125990000D03*
X186867500Y-125990000D03*
%TD*%
D36*
%TO.C,C152*%
X177055000Y-85240000D03*
X175505000Y-85240000D03*
%TD*%
D44*
%TO.C,R26*%
X181815001Y-66500250D03*
X180165001Y-66500250D03*
%TD*%
D36*
%TO.C,C136*%
X176081500Y-104714600D03*
X174531500Y-104714600D03*
%TD*%
D39*
%TO.C,C162*%
X169820000Y-106585000D03*
X169820000Y-105035000D03*
%TD*%
D30*
%TO.C,R121*%
X175455000Y-83780000D03*
X177105000Y-83780000D03*
%TD*%
%TO.C,R94*%
X178640231Y-78823291D03*
X180290231Y-78823291D03*
%TD*%
D36*
%TO.C,C146*%
X177225000Y-80310000D03*
X175675000Y-80310000D03*
%TD*%
D21*
%TO.C,C158*%
X190405000Y-106302000D03*
X191955000Y-106302000D03*
%TD*%
D38*
%TO.C,C9*%
X112090000Y-119072500D03*
X112090000Y-120622500D03*
%TD*%
D28*
%TO.C,R65*%
X108591000Y-73565001D03*
X108591000Y-71915001D03*
%TD*%
D44*
%TO.C,R21*%
X97815000Y-117005000D03*
X96165000Y-117005000D03*
%TD*%
D29*
%TO.C,C26*%
X181670000Y-71020000D03*
X180245000Y-71020000D03*
%TD*%
D44*
%TO.C,R15*%
X190215000Y-81420000D03*
X188565000Y-81420000D03*
%TD*%
D19*
%TO.C,P15*%
X92270000Y-81710000D03*
D20*
X92270000Y-79710000D03*
X92270000Y-77710000D03*
%TD*%
D32*
%TO.C,R124*%
X96090000Y-106550000D03*
X96090000Y-108200000D03*
%TD*%
%TO.C,R41*%
X188630000Y-96105000D03*
X188630000Y-97755000D03*
%TD*%
D44*
%TO.C,R131*%
X166635000Y-109850000D03*
X164985000Y-109850000D03*
%TD*%
D36*
%TO.C,C50*%
X177220000Y-75840000D03*
X175670000Y-75840000D03*
%TD*%
D28*
%TO.C,R8*%
X109480000Y-113427500D03*
X109480000Y-111777500D03*
%TD*%
D21*
%TO.C,C43*%
X182705000Y-101070000D03*
X184255000Y-101070000D03*
%TD*%
D36*
%TO.C,C130*%
X125595000Y-62000000D03*
X124045000Y-62000000D03*
%TD*%
D29*
%TO.C,C149*%
X177130000Y-74330000D03*
X175705000Y-74330000D03*
%TD*%
D38*
%TO.C,C3*%
X110940000Y-111827500D03*
X110940000Y-113377500D03*
%TD*%
D36*
%TO.C,C95*%
X153585000Y-60440000D03*
X152035000Y-60440000D03*
%TD*%
D21*
%TO.C,C22*%
X180215001Y-68000250D03*
X181765001Y-68000250D03*
%TD*%
D44*
%TO.C,R10*%
X110360000Y-120560000D03*
X108710000Y-120560000D03*
%TD*%
D38*
%TO.C,C164*%
X164118250Y-102015000D03*
X164118250Y-103565000D03*
%TD*%
D42*
%TO.C,C92*%
X175970000Y-106307500D03*
X175970000Y-107732500D03*
%TD*%
M02*
