M48
; DRILL file {KiCad (6.0.11)} date Tue Apr  2 21:51:22 2024
; FORMAT={-:-/ absolute / inch / decimal}
; #@! TF.CreationDate,2024-04-02T21:51:22-04:00
; #@! TF.GenerationSoftware,Kicad,Pcbnew,(6.0.11)
; #@! TF.FileFunction,Plated,1,4,PTH
FMAT,2
INCH
; #@! TA.AperFunction,Plated,PTH,ComponentDrill
T1C0.0079
; #@! TA.AperFunction,Plated,PTH,ComponentDrill
T2C0.0080
; #@! TA.AperFunction,Plated,PTH,ViaDrill
T3C0.0118
; #@! TA.AperFunction,Plated,PTH,ViaDrill
T4C0.0157
; #@! TA.AperFunction,Plated,PTH,ComponentDrill
T5C0.0276
; #@! TA.AperFunction,Plated,PTH,ComponentDrill
T6C0.0295
; #@! TA.AperFunction,Plated,PTH,ComponentDrill
T7C0.0315
; #@! TA.AperFunction,Plated,PTH,ComponentDrill
T8C0.0354
; #@! TA.AperFunction,Plated,PTH,ComponentDrill
T9C0.0394
; #@! TA.AperFunction,Plated,PTH,ComponentDrill
T10C0.0472
; #@! TA.AperFunction,Plated,PTH,ComponentDrill
T11C0.0551
; #@! TA.AperFunction,Plated,PTH,ComponentDrill
T12C0.1063
%
G90
G05
T1
X8.7042Y-3.3998
X8.7042Y-3.4431
X8.7042Y-4.0817
X8.7042Y-4.125
X8.7042Y-4.7636
X8.7042Y-4.8069
X8.7049Y-2.7191
X8.7049Y-2.7624
X8.7554Y-3.3998
X8.7554Y-3.4431
X8.7554Y-4.0817
X8.7554Y-4.125
X8.7554Y-4.7636
X8.7554Y-4.8069
X8.7561Y-2.7191
X8.7561Y-2.7624
X8.8996Y-2.3819
X8.8996Y-2.4252
X8.8997Y-3.0579
X8.8997Y-3.1012
X8.8997Y-3.7398
X8.8997Y-3.7831
X8.8997Y-4.4217
X8.8997Y-4.465
X8.9508Y-2.3819
X8.9508Y-2.4252
X8.9509Y-3.0579
X8.9509Y-3.1012
X8.9509Y-3.7398
X8.9509Y-3.7831
X8.9509Y-4.4217
X8.9509Y-4.465
X9.4916Y-4.0817
X9.4916Y-4.125
X9.4916Y-4.7636
X9.4916Y-4.8069
X9.4923Y-3.3998
X9.4923Y-3.4431
X9.4923Y-2.7185
X9.4923Y-2.7618
X9.5428Y-4.0817
X9.5428Y-4.125
X9.5428Y-4.7636
X9.5428Y-4.8069
X9.5434Y-3.3998
X9.5434Y-3.4431
X9.5435Y-2.7185
X9.5435Y-2.7618
X9.687Y-2.3819
X9.687Y-2.4252
X9.6871Y-3.7398
X9.6871Y-3.7831
X9.6871Y-4.4217
X9.6871Y-4.465
X9.6877Y-3.0579
X9.6877Y-3.1012
X9.7382Y-2.3819
X9.7382Y-2.4252
X9.7383Y-3.7398
X9.7383Y-3.7831
X9.7383Y-4.4217
X9.7383Y-4.465
X9.7389Y-3.0579
X9.7389Y-3.1012
X10.279Y-4.0817
X10.279Y-4.125
X10.279Y-4.7636
X10.279Y-4.8069
X10.2797Y-3.3998
X10.2797Y-3.4431
X10.2797Y-2.7185
X10.2797Y-2.7618
X10.3302Y-4.0817
X10.3302Y-4.125
X10.3302Y-4.7636
X10.3302Y-4.8069
X10.3308Y-3.3998
X10.3308Y-3.4431
X10.3309Y-2.7185
X10.3309Y-2.7618
X10.4744Y-2.3819
X10.4744Y-2.4252
X10.4745Y-3.7398
X10.4745Y-3.7831
X10.4745Y-4.4217
X10.4745Y-4.465
X10.4751Y-3.0579
X10.4751Y-3.1012
X10.5256Y-2.3819
X10.5256Y-2.4252
X10.5257Y-3.7398
X10.5257Y-3.7831
X10.5257Y-4.4217
X10.5257Y-4.465
X10.5263Y-3.0579
X10.5263Y-3.1012
X11.0664Y-4.0817
X11.0664Y-4.125
X11.0664Y-4.7636
X11.0664Y-4.8069
X11.0671Y-2.7185
X11.0671Y-2.7618
X11.0671Y-3.3999
X11.0671Y-3.4432
X11.1176Y-4.0817
X11.1176Y-4.125
X11.1176Y-4.7636
X11.1176Y-4.8069
X11.1183Y-2.7185
X11.1183Y-2.7618
X11.1183Y-3.3999
X11.1183Y-3.4432
X11.2618Y-2.3819
X11.2618Y-2.4252
X11.2619Y-3.7398
X11.2619Y-3.7831
X11.2619Y-4.4217
X11.2619Y-4.465
X11.2626Y-3.058
X11.2626Y-3.1013
X11.313Y-2.3819
X11.313Y-2.4252
X11.3131Y-3.7398
X11.3131Y-3.7831
X11.3131Y-4.4217
X11.3131Y-4.465
X11.3138Y-3.058
X11.3138Y-3.1013
T2
X11.8207Y-3.6417
X11.8207Y-3.6882
X11.8439Y-3.665
X11.8671Y-3.6417
X11.8671Y-3.6882
T3
X7.7625Y-3.7561
X7.9577Y-3.7904
X8.8421Y-2.9421
X8.8421Y-3.6248
X8.8421Y-4.3075
X8.8421Y-4.9902
X9.037Y-2.602
X9.037Y-3.2846
X9.037Y-3.9673
X9.037Y-4.65
X9.0378Y-5.5315
X9.1086Y-5.5315
X9.6295Y-2.9421
X9.6295Y-3.6248
X9.6295Y-4.3075
X9.6295Y-4.9902
X9.8244Y-2.602
X9.8244Y-3.2846
X9.8244Y-3.9673
X9.8244Y-4.65
X10.4169Y-2.9421
X10.4169Y-3.6248
X10.4169Y-4.3075
X10.4169Y-4.9902
X10.6118Y-2.602
X10.6118Y-3.2846
X10.6118Y-3.9673
X10.6118Y-4.65
X11.2043Y-2.9421
X11.2043Y-3.6248
X11.2043Y-4.3075
X11.2043Y-4.9902
X11.2654Y-4.8201
X11.2953Y-5.0297
X11.3992Y-2.602
X11.3992Y-3.2846
X11.3992Y-3.9673
X11.3992Y-4.65
X11.4016Y-3.7788
X11.5586Y-4.6873
X11.5825Y-3.7788
X11.5922Y-4.5102
X11.6785Y-5.1496
X11.7977Y-5.0709
X11.8864Y-5.3976
T4
X7.7979Y-3.7551
X7.9171Y-3.8777
X7.9222Y-3.7904
X8.0079Y-3.8474
X8.0496Y-3.7405
X8.1319Y-3.5177
X8.1319Y-3.7913
X8.2579Y-3.7461
X8.2893Y-3.8081
X8.4287Y-4.8287
X8.4295Y-4.6957
X8.453Y-5.5943
X8.7018Y-3.0246
X8.7018Y-4.3907
X8.7018Y-5.0738
X8.7028Y-3.7077
X8.7638Y-3.0236
X8.7638Y-4.3898
X8.7638Y-5.0728
X8.7648Y-3.7067
X8.8076Y-2.9503
X8.8076Y-3.6334
X8.8076Y-4.3155
X8.8076Y-4.9995
X8.8967Y-2.689
X8.8967Y-3.3716
X8.8967Y-4.7387
X8.8976Y-4.0536
X8.9587Y-2.688
X8.9587Y-3.3706
X8.9587Y-4.0536
X8.9587Y-4.7377
X9.003Y-2.6122
X9.003Y-3.2948
X9.003Y-3.9779
X9.003Y-4.6619
X9.0732Y-5.5315
X9.0736Y-5.3738
X9.2217Y-4.8287
X9.2224Y-4.6957
X9.4892Y-3.7077
X9.4892Y-4.3907
X9.4892Y-5.0738
X9.4902Y-3.0246
X9.5512Y-3.7067
X9.5512Y-4.3898
X9.5512Y-5.0728
X9.5522Y-3.0236
X9.595Y-2.9493
X9.595Y-3.6334
X9.595Y-4.3164
X9.595Y-4.9995
X9.6841Y-2.6885
X9.6841Y-3.3716
X9.6841Y-4.0546
X9.6841Y-4.7387
X9.7461Y-2.6875
X9.7461Y-3.3706
X9.7461Y-4.0536
X9.7461Y-4.7377
X9.7904Y-2.6117
X9.7904Y-3.2948
X9.7904Y-3.9779
X9.7904Y-4.6619
X10.0098Y-4.8232
X10.0106Y-4.6902
X10.0528Y-1.9205
X10.0949Y-1.8917
X10.2766Y-3.7077
X10.2766Y-4.3907
X10.2766Y-5.0738
X10.2776Y-3.0246
X10.3386Y-3.7067
X10.3386Y-4.3898
X10.3386Y-5.0728
X10.3396Y-3.0236
X10.3472Y-1.8921
X10.3824Y-2.9503
X10.3824Y-3.6334
X10.3824Y-4.3164
X10.3824Y-4.9995
X10.3854Y-1.9193
X10.4715Y-2.6885
X10.4715Y-3.3716
X10.4715Y-4.0546
X10.4715Y-4.7387
X10.5335Y-2.6875
X10.5335Y-3.3706
X10.5335Y-4.0536
X10.5335Y-4.7377
X10.5778Y-2.6117
X10.5778Y-3.2948
X10.5778Y-3.9779
X10.5778Y-4.6619
X10.7957Y-4.8256
X10.7965Y-4.6925
X11.064Y-3.7077
X11.064Y-4.3907
X11.064Y-5.0738
X11.0659Y-3.0236
X11.126Y-3.7067
X11.126Y-4.3898
X11.126Y-5.0728
X11.127Y-3.0246
X11.1698Y-2.9503
X11.1698Y-3.6334
X11.1698Y-4.3164
X11.1698Y-4.9995
X11.2589Y-2.6885
X11.2589Y-3.3716
X11.2589Y-4.0556
X11.2589Y-4.7377
X11.2669Y-4.8555
X11.3094Y-5.0622
X11.3197Y-5.0
X11.3209Y-2.6875
X11.3209Y-3.3706
X11.3209Y-4.0546
X11.3209Y-4.7367
X11.3209Y-4.7831
X11.3652Y-2.6117
X11.3652Y-3.2948
X11.3652Y-3.9788
X11.3652Y-4.6609
X11.4016Y-3.8142
X11.4945Y-4.1474
X11.51Y-2.7579
X11.511Y-2.7972
X11.5228Y-4.911
X11.5232Y-4.6878
X11.5491Y-2.7129
X11.55Y-2.7524
X11.5602Y-5.1031
X11.5609Y-4.8881
X11.572Y-4.4281
X11.5803Y-2.9728
X11.5803Y-3.028
X11.5803Y-3.0831
X11.5803Y-3.1382
X11.5831Y-3.8142
X11.5836Y-4.0409
X11.6136Y-2.7957
X11.6276Y-4.5083
X11.6354Y-2.9177
X11.6354Y-2.9728
X11.6354Y-3.028
X11.6354Y-3.0831
X11.6354Y-3.1382
X11.6795Y-5.1098
X11.6854Y-3.7563
X11.6906Y-2.9177
X11.6906Y-2.9728
X11.6906Y-3.028
X11.6906Y-3.0831
X11.6906Y-3.1382
X11.7264Y-3.9303
X11.7323Y-2.4095
X11.7323Y-4.0531
X11.7709Y-2.4098
X11.7843Y-3.9453
X11.785Y-4.6299
X11.787Y-4.8657
X11.7972Y-5.1102
X11.7976Y-5.2579
X11.8094Y-2.4173
X11.8137Y-2.3484
X11.8311Y-2.8896
X11.8319Y-3.0596
X11.8433Y-4.7283
X11.8547Y-5.2567
X11.8551Y-4.6299
X11.8736Y-3.9287
X11.8795Y-5.3378
X11.8815Y-5.098
X11.8935Y-2.9713
X11.9118Y-5.3728
X11.9152Y-3.9697
X11.9317Y-2.9709
X11.9699Y-2.9709
X11.987Y-2.0457
X11.9874Y-5.3193
X12.0689Y-3.4445
X12.0841Y-4.1822
X12.1094Y-4.2587
X12.1094Y-4.2969
X12.1098Y-4.335
X12.1149Y-4.4224
X12.1153Y-4.4606
X12.1153Y-4.4988
X12.1268Y-4.9504
X12.1343Y-2.9728
X12.1724Y-2.9724
X12.2087Y-4.9526
X12.2106Y-2.9724
T5
X12.1945Y-3.4571
X12.1945Y-3.5571
T6
X8.1323Y-4.2022
X8.1323Y-4.2809
X8.1323Y-4.4738
X8.1323Y-4.5526
X8.1323Y-4.7457
X8.1323Y-4.8244
T7
X12.0778Y-5.1701
X12.0778Y-5.2488
X12.1565Y-5.1701
X12.1565Y-5.2488
T8
X12.1228Y-2.2358
X12.1228Y-2.3146
X12.1228Y-2.3933
T9
X8.253Y-1.9803
X8.253Y-2.0803
X8.253Y-5.4
X8.253Y-5.5
X8.353Y-1.9803
X8.353Y-2.0803
X8.353Y-5.4
X8.353Y-5.5
X8.453Y-1.9803
X8.453Y-2.0803
X8.453Y-5.4
X8.453Y-5.5
X8.553Y-1.9803
X8.553Y-2.0803
X8.553Y-5.4
X8.553Y-5.5
X8.653Y-1.9803
X8.653Y-2.0803
X8.653Y-5.4
X8.653Y-5.5
X8.753Y-1.9803
X8.753Y-2.0803
X8.753Y-5.4
X8.753Y-5.5
X8.853Y-1.9803
X8.853Y-2.0803
X8.853Y-5.4
X8.853Y-5.5
X8.953Y-1.9803
X8.953Y-2.0803
X8.953Y-5.4
X8.953Y-5.5
X9.1936Y-1.9803
X9.1936Y-2.0803
X9.1936Y-5.4
X9.1936Y-5.5
X9.2936Y-1.9803
X9.2936Y-2.0803
X9.2936Y-5.4
X9.2936Y-5.5
X9.3936Y-1.9803
X9.3936Y-2.0803
X9.3936Y-5.4
X9.3936Y-5.5
X9.4936Y-1.9803
X9.4936Y-2.0803
X9.4936Y-5.4
X9.4936Y-5.5
X9.5936Y-1.9803
X9.5936Y-2.0803
X9.5936Y-5.4
X9.5936Y-5.5
X9.6936Y-1.9803
X9.6936Y-2.0803
X9.6936Y-5.4
X9.6936Y-5.5
X9.7936Y-1.9803
X9.7936Y-2.0803
X9.7936Y-5.4
X9.7936Y-5.5
X9.8936Y-1.9803
X9.8936Y-2.0803
X9.8936Y-5.4
X9.8936Y-5.5
X10.1315Y-1.9803
X10.1315Y-2.0803
X10.1315Y-5.4
X10.1315Y-5.5
X10.2315Y-1.9803
X10.2315Y-2.0803
X10.2315Y-5.4
X10.2315Y-5.5
X10.3315Y-1.9803
X10.3315Y-2.0803
X10.3315Y-5.4
X10.3315Y-5.5
X10.4315Y-1.9803
X10.4315Y-2.0803
X10.4315Y-5.4
X10.4315Y-5.5
X10.5315Y-1.9803
X10.5315Y-2.0803
X10.5315Y-5.4
X10.5315Y-5.5
X10.6315Y-1.9803
X10.6315Y-2.0803
X10.6315Y-5.4
X10.6315Y-5.5
X10.7315Y-1.9803
X10.7315Y-2.0803
X10.7315Y-5.4
X10.7315Y-5.5
X10.8315Y-1.9803
X10.8315Y-2.0803
X10.8315Y-5.4
X10.8315Y-5.5
X11.0679Y-1.9803
X11.0679Y-2.0803
X11.0679Y-5.4
X11.0679Y-5.5
X11.1679Y-1.9803
X11.1679Y-2.0803
X11.1679Y-5.4
X11.1679Y-5.5
X11.2679Y-1.9803
X11.2679Y-2.0803
X11.2679Y-5.4
X11.2679Y-5.5
X11.3679Y-1.9803
X11.3679Y-2.0803
X11.3679Y-5.4
X11.3679Y-5.5
X11.4679Y-1.9803
X11.4679Y-2.0803
X11.4679Y-5.4
X11.4679Y-5.5
X11.5679Y-1.9803
X11.5679Y-2.0803
X11.5679Y-5.4
X11.5679Y-5.5
X11.6679Y-1.9803
X11.6679Y-2.0803
X11.6679Y-5.4
X11.6679Y-5.5
X11.7679Y-1.9803
X11.7679Y-2.0803
X11.7679Y-5.4
X11.7679Y-5.5
X11.7949Y-2.5984
X11.7949Y-2.6984
X11.7949Y-2.7984
X11.8933Y-4.7919
X11.8933Y-4.8919
X11.8949Y-2.5984
X11.8949Y-2.6984
X11.8949Y-2.7984
X11.9933Y-4.7919
X11.9933Y-4.8919
T10
X8.4339Y-2.8891
X8.4339Y-3.571
X8.4339Y-4.2526
X8.4339Y-4.9345
X8.6307Y-2.5481
X8.6307Y-2.8891
X8.6307Y-3.23
X8.6307Y-3.571
X8.6307Y-3.9116
X8.6307Y-4.2526
X8.6307Y-4.5935
X8.6307Y-4.9345
X8.8276Y-2.5481
X8.8276Y-2.8891
X8.8276Y-3.23
X8.8276Y-3.571
X8.8276Y-3.9116
X8.8276Y-4.2526
X8.8276Y-4.5935
X8.8276Y-4.9345
X9.0244Y-2.5481
X9.0244Y-2.8891
X9.0244Y-3.23
X9.0244Y-3.571
X9.0244Y-3.9116
X9.0244Y-4.2526
X9.0244Y-4.5935
X9.0244Y-4.9345
X9.2213Y-2.5481
X9.2213Y-2.8891
X9.2213Y-3.23
X9.2213Y-3.571
X9.2213Y-3.9116
X9.2213Y-4.2526
X9.2213Y-4.5935
X9.2213Y-4.9345
X9.4181Y-2.5481
X9.4181Y-2.8891
X9.4181Y-3.23
X9.4181Y-3.571
X9.4181Y-3.9116
X9.4181Y-4.2526
X9.4181Y-4.5935
X9.4181Y-4.9345
X9.615Y-2.5481
X9.615Y-2.8891
X9.615Y-3.23
X9.615Y-3.571
X9.615Y-3.9116
X9.615Y-4.2526
X9.615Y-4.5935
X9.615Y-4.9345
X9.8118Y-2.5481
X9.8118Y-2.8891
X9.8118Y-3.23
X9.8118Y-3.571
X9.8118Y-3.9116
X9.8118Y-4.2526
X9.8118Y-4.5935
X9.8118Y-4.9345
X10.0087Y-2.5481
X10.0087Y-2.8891
X10.0087Y-3.23
X10.0087Y-3.571
X10.0087Y-3.9116
X10.0087Y-4.2526
X10.0087Y-4.5935
X10.0087Y-4.9345
X10.2055Y-2.5481
X10.2055Y-2.8891
X10.2055Y-3.23
X10.2055Y-3.571
X10.2055Y-3.9116
X10.2055Y-4.2526
X10.2055Y-4.5935
X10.2055Y-4.9345
X10.4024Y-2.5481
X10.4024Y-2.8891
X10.4024Y-3.23
X10.4024Y-3.571
X10.4024Y-3.9116
X10.4024Y-4.2526
X10.4024Y-4.5935
X10.4024Y-4.9345
X10.5992Y-2.5481
X10.5992Y-2.8891
X10.5992Y-3.23
X10.5992Y-3.571
X10.5992Y-3.9116
X10.5992Y-4.2526
X10.5992Y-4.5935
X10.5992Y-4.9345
X10.7961Y-2.5481
X10.7961Y-2.8891
X10.7961Y-3.23
X10.7961Y-3.571
X10.7961Y-3.9116
X10.7961Y-4.2526
X10.7961Y-4.5935
X10.7961Y-4.9345
X10.9929Y-2.5481
X10.9929Y-2.8891
X10.9929Y-3.23
X10.9929Y-3.571
X10.9929Y-3.9116
X10.9929Y-4.2526
X10.9929Y-4.5935
X10.9929Y-4.9345
X11.1894Y-4.9342
X11.1898Y-2.5481
X11.1898Y-2.8891
X11.1898Y-3.23
X11.1898Y-3.571
X11.1898Y-3.9116
X11.1898Y-4.2526
X11.1898Y-4.5935
X11.3862Y-4.9342
X11.3866Y-2.5481
X11.3866Y-2.8891
X11.3866Y-3.23
X11.3866Y-3.571
X11.3866Y-3.9116
X11.3866Y-4.2526
X11.3866Y-4.5935
X11.5835Y-2.5481
X11.5835Y-3.23
X11.5835Y-3.9116
X11.5835Y-4.5935
T11
X11.8008Y-3.365
X11.926Y-4.1154
X12.1756Y-3.365
X12.1756Y-4.1154
T12
X7.8839Y-1.9665
X7.8839Y-5.5157
X12.1358Y-5.5157
X12.1358Y-1.9665
T7
G00X12.1386Y-2.1531
M15
G01X12.1071Y-2.1531
M16
G05
G00X12.1071Y-2.476
M15
G01X12.1386Y-2.476
M16
G05
T0
M30
