G04 #@! TF.GenerationSoftware,KiCad,Pcbnew,(6.0.11)*
G04 #@! TF.CreationDate,2024-04-02T21:51:25-04:00*
G04 #@! TF.ProjectId,Ultrasonic Sound Steering - Driver Rev. C,556c7472-6173-46f6-9e69-6320536f756e,rev?*
G04 #@! TF.SameCoordinates,Original*
G04 #@! TF.FileFunction,Paste,Bot*
G04 #@! TF.FilePolarity,Positive*
%FSLAX46Y46*%
G04 Gerber Fmt 4.6, Leading zero omitted, Abs format (unit mm)*
G04 Created by KiCad (PCBNEW (6.0.11)) date 2024-04-02 21:51:25*
%MOMM*%
%LPD*%
G01*
G04 APERTURE LIST*
G04 Aperture macros list*
%AMRoundRect*
0 Rectangle with rounded corners*
0 $1 Rounding radius*
0 $2 $3 $4 $5 $6 $7 $8 $9 X,Y pos of 4 corners*
0 Add a 4 corners polygon primitive as box body*
4,1,4,$2,$3,$4,$5,$6,$7,$8,$9,$2,$3,0*
0 Add four circle primitives for the rounded corners*
1,1,$1+$1,$2,$3*
1,1,$1+$1,$4,$5*
1,1,$1+$1,$6,$7*
1,1,$1+$1,$8,$9*
0 Add four rect primitives between the rounded corners*
20,1,$1+$1,$2,$3,$4,$5,0*
20,1,$1+$1,$4,$5,$6,$7,0*
20,1,$1+$1,$6,$7,$8,$9,0*
20,1,$1+$1,$8,$9,$2,$3,0*%
G04 Aperture macros list end*
G04 #@! TA.AperFunction,Profile*
%ADD10C,0.100000*%
G04 #@! TD*
%ADD11RoundRect,0.250000X0.625000X-0.375000X0.625000X0.375000X-0.625000X0.375000X-0.625000X-0.375000X0*%
%ADD12RoundRect,0.271085X1.853915X-0.853915X1.853915X0.853915X-1.853915X0.853915X-1.853915X-0.853915X0*%
%ADD13RoundRect,0.250000X0.250000X0.475000X-0.250000X0.475000X-0.250000X-0.475000X0.250000X-0.475000X0*%
%ADD14RoundRect,0.200000X-0.200000X-0.275000X0.200000X-0.275000X0.200000X0.275000X-0.200000X0.275000X0*%
%ADD15R,5.308600X1.397000*%
%ADD16RoundRect,0.225000X0.250000X-0.225000X0.250000X0.225000X-0.250000X0.225000X-0.250000X-0.225000X0*%
%ADD17RoundRect,0.271085X-0.853915X-1.853915X0.853915X-1.853915X0.853915X1.853915X-0.853915X1.853915X0*%
%ADD18RoundRect,0.250000X0.475000X-0.250000X0.475000X0.250000X-0.475000X0.250000X-0.475000X-0.250000X0*%
%ADD19RoundRect,0.200000X0.275000X-0.200000X0.275000X0.200000X-0.275000X0.200000X-0.275000X-0.200000X0*%
%ADD20RoundRect,0.200000X0.200000X0.275000X-0.200000X0.275000X-0.200000X-0.275000X0.200000X-0.275000X0*%
%ADD21R,3.048000X2.286000*%
%ADD22C,0.250000*%
%ADD23RoundRect,0.225000X-0.250000X0.225000X-0.250000X-0.225000X0.250000X-0.225000X0.250000X0.225000X0*%
%ADD24R,1.803400X1.117600*%
%ADD25R,0.240000X0.599999*%
%ADD26R,0.599999X0.240000*%
%ADD27R,1.570000X2.260000*%
%ADD28RoundRect,0.250000X-0.475000X0.250000X-0.475000X-0.250000X0.475000X-0.250000X0.475000X0.250000X0*%
%ADD29RoundRect,0.225000X-0.225000X-0.250000X0.225000X-0.250000X0.225000X0.250000X-0.225000X0.250000X0*%
G04 APERTURE END LIST*
D10*
X312719114Y-47450000D02*
X312714900Y-142595786D01*
X312719100Y-47450000D02*
G75*
G03*
X310719114Y-45450000I-2000000J0D01*
G01*
X195723314Y-142595786D02*
G75*
G03*
X197723328Y-144595786I1999986J-14D01*
G01*
X195723328Y-142595786D02*
X195723328Y-47454213D01*
X197723328Y-45454213D02*
X310719114Y-45450000D01*
X310714900Y-144595786D02*
X197723328Y-144595786D01*
X310714900Y-144595800D02*
G75*
G03*
X312714900Y-142595786I0J2000000D01*
G01*
X197723328Y-45454228D02*
G75*
G03*
X195723328Y-47454213I-28J-1999972D01*
G01*
G36*
X301572570Y-92315894D02*
G01*
X301581295Y-92318541D01*
X301589334Y-92322836D01*
X301596380Y-92328620D01*
X301602163Y-92335666D01*
X301606458Y-92343705D01*
X301609105Y-92352430D01*
X301609999Y-92361500D01*
X301609999Y-93818500D01*
X301609105Y-93827570D01*
X301606458Y-93836295D01*
X301602163Y-93844334D01*
X301596380Y-93851380D01*
X301589334Y-93857164D01*
X301581295Y-93861459D01*
X301572570Y-93864106D01*
X301563499Y-93865000D01*
X300106500Y-93865000D01*
X300097429Y-93864106D01*
X300088704Y-93861459D01*
X300080665Y-93857164D01*
X300073619Y-93851380D01*
X300067836Y-93844334D01*
X300063541Y-93836295D01*
X300060894Y-93827570D01*
X300060000Y-93818500D01*
X300060000Y-92361500D01*
X300060894Y-92352430D01*
X300063541Y-92343705D01*
X300067836Y-92335666D01*
X300073619Y-92328620D01*
X300080665Y-92322836D01*
X300088704Y-92318541D01*
X300097429Y-92315894D01*
X300106500Y-92315000D01*
X301563499Y-92315000D01*
X301572570Y-92315894D01*
G37*
D11*
X199450000Y-96410000D03*
X199450000Y-93610000D03*
D12*
X303720000Y-79510000D03*
X303720000Y-73785000D03*
D13*
X300480000Y-74640000D03*
X298580000Y-74640000D03*
D14*
X297595000Y-96290000D03*
X299245000Y-96290000D03*
D15*
X307210000Y-96942800D03*
X307210000Y-92777200D03*
D16*
X295910000Y-94362500D03*
X295910000Y-92812500D03*
D17*
X303775000Y-109150000D03*
X309500000Y-109150000D03*
D18*
X308020000Y-124830000D03*
X308020000Y-122930000D03*
X310100000Y-124830000D03*
X310100000Y-122930000D03*
D19*
X295910000Y-91452500D03*
X295910000Y-89802500D03*
D14*
X295835000Y-87480000D03*
X297485000Y-87480000D03*
D11*
X208400000Y-96400000D03*
X208400000Y-93600000D03*
D20*
X302205000Y-90397500D03*
X300555000Y-90397500D03*
D17*
X303775000Y-113950000D03*
X309500000Y-113950000D03*
D21*
X298393200Y-121920000D03*
X298393200Y-127000000D03*
D22*
X300060000Y-118790000D03*
X299560000Y-118790000D03*
X300060000Y-119290000D03*
X299560000Y-119290000D03*
X300060000Y-119790000D03*
X299560000Y-119790000D03*
D11*
X203875000Y-96400000D03*
X203875000Y-93600000D03*
D23*
X297370000Y-92812500D03*
X297370000Y-94362500D03*
D24*
X299030000Y-81798600D03*
X299030000Y-78801400D03*
D25*
X301585001Y-94490000D03*
X301085002Y-94490000D03*
X300585000Y-94490000D03*
X300085001Y-94490000D03*
D26*
X299435000Y-93839998D03*
X299435000Y-93340000D03*
X299435000Y-92839998D03*
X299435000Y-92339999D03*
D25*
X300085001Y-91690000D03*
X300585000Y-91690000D03*
X301085002Y-91690000D03*
X301585001Y-91690000D03*
D26*
X302234999Y-92339999D03*
X302234999Y-92839998D03*
X302234999Y-93340000D03*
X302234999Y-93839998D03*
D27*
X305035000Y-85340000D03*
X305035000Y-89690000D03*
D16*
X297370000Y-91402500D03*
X297370000Y-89852500D03*
D14*
X300555000Y-87477500D03*
X302205000Y-87477500D03*
D28*
X302320000Y-117600000D03*
X302320000Y-119500000D03*
D29*
X300605000Y-88937500D03*
X302155000Y-88937500D03*
D19*
X307840000Y-89065000D03*
X307840000Y-87415000D03*
D29*
X300605000Y-97790000D03*
X302155000Y-97790000D03*
X300605000Y-96327500D03*
X302155000Y-96327500D03*
D28*
X297990000Y-117600000D03*
X297990000Y-119500000D03*
D24*
X309930000Y-120738600D03*
X309930000Y-117741400D03*
D12*
X308525000Y-79510000D03*
X308525000Y-73785000D03*
D13*
X300480000Y-76600000D03*
X298580000Y-76600000D03*
M02*
