G04 #@! TF.GenerationSoftware,KiCad,Pcbnew,(6.0.11)*
G04 #@! TF.CreationDate,2024-04-02T21:51:25-04:00*
G04 #@! TF.ProjectId,Ultrasonic Sound Steering - Driver Rev. C,556c7472-6173-46f6-9e69-6320536f756e,rev?*
G04 #@! TF.SameCoordinates,Original*
G04 #@! TF.FileFunction,Soldermask,Bot*
G04 #@! TF.FilePolarity,Negative*
%FSLAX46Y46*%
G04 Gerber Fmt 4.6, Leading zero omitted, Abs format (unit mm)*
G04 Created by KiCad (PCBNEW (6.0.11)) date 2024-04-02 21:51:25*
%MOMM*%
%LPD*%
G01*
G04 APERTURE LIST*
G04 Aperture macros list*
%AMRoundRect*
0 Rectangle with rounded corners*
0 $1 Rounding radius*
0 $2 $3 $4 $5 $6 $7 $8 $9 X,Y pos of 4 corners*
0 Add a 4 corners polygon primitive as box body*
4,1,4,$2,$3,$4,$5,$6,$7,$8,$9,$2,$3,0*
0 Add four circle primitives for the rounded corners*
1,1,$1+$1,$2,$3*
1,1,$1+$1,$4,$5*
1,1,$1+$1,$6,$7*
1,1,$1+$1,$8,$9*
0 Add four rect primitives between the rounded corners*
20,1,$1+$1,$2,$3,$4,$5,0*
20,1,$1+$1,$4,$5,$6,$7,0*
20,1,$1+$1,$6,$7,$8,$9,0*
20,1,$1+$1,$8,$9,$2,$3,0*%
G04 Aperture macros list end*
G04 #@! TA.AperFunction,Profile*
%ADD10C,0.100000*%
G04 #@! TD*
%ADD11R,1.700000X1.700000*%
%ADD12O,1.700000X1.700000*%
%ADD13C,4.700000*%
%ADD14RoundRect,0.250000X-0.625000X0.350000X-0.625000X-0.350000X0.625000X-0.350000X0.625000X0.350000X0*%
%ADD15O,1.750000X1.200000*%
%ADD16C,1.400000*%
%ADD17O,2.500000X1.724000*%
%ADD18C,2.004000*%
%ADD19RoundRect,0.250000X0.625000X-0.375000X0.625000X0.375000X-0.625000X0.375000X-0.625000X-0.375000X0*%
%ADD20RoundRect,0.271085X1.853915X-0.853915X1.853915X0.853915X-1.853915X0.853915X-1.853915X-0.853915X0*%
%ADD21RoundRect,0.250000X0.250000X0.475000X-0.250000X0.475000X-0.250000X-0.475000X0.250000X-0.475000X0*%
%ADD22RoundRect,0.200000X-0.200000X-0.275000X0.200000X-0.275000X0.200000X0.275000X-0.200000X0.275000X0*%
%ADD23R,5.308600X1.397000*%
%ADD24RoundRect,0.102000X-0.654000X0.654000X-0.654000X-0.654000X0.654000X-0.654000X0.654000X0.654000X0*%
%ADD25C,1.512000*%
%ADD26RoundRect,0.225000X0.250000X-0.225000X0.250000X0.225000X-0.250000X0.225000X-0.250000X-0.225000X0*%
%ADD27RoundRect,0.102000X1.050000X-1.050000X1.050000X1.050000X-1.050000X1.050000X-1.050000X-1.050000X0*%
%ADD28C,2.304000*%
%ADD29RoundRect,0.271085X-0.853915X-1.853915X0.853915X-1.853915X0.853915X1.853915X-0.853915X1.853915X0*%
%ADD30RoundRect,0.250000X0.475000X-0.250000X0.475000X0.250000X-0.475000X0.250000X-0.475000X-0.250000X0*%
%ADD31RoundRect,0.200000X0.275000X-0.200000X0.275000X0.200000X-0.275000X0.200000X-0.275000X-0.200000X0*%
%ADD32RoundRect,0.200000X0.200000X0.275000X-0.200000X0.275000X-0.200000X-0.275000X0.200000X-0.275000X0*%
%ADD33R,3.048000X2.286000*%
%ADD34C,0.450000*%
%ADD35RoundRect,0.225000X-0.250000X0.225000X-0.250000X-0.225000X0.250000X-0.225000X0.250000X0.225000X0*%
%ADD36R,1.803400X1.117600*%
%ADD37R,0.240000X0.599999*%
%ADD38R,0.599999X0.240000*%
%ADD39R,1.679999X1.679999*%
%ADD40C,0.499999*%
%ADD41RoundRect,0.102000X-0.785000X1.130000X-0.785000X-1.130000X0.785000X-1.130000X0.785000X1.130000X0*%
%ADD42RoundRect,0.250000X-0.475000X0.250000X-0.475000X-0.250000X0.475000X-0.250000X0.475000X0.250000X0*%
%ADD43RoundRect,0.225000X-0.225000X-0.250000X0.225000X-0.250000X0.225000X0.250000X-0.225000X0.250000X0*%
%ADD44O,1.400000X1.400000*%
G04 APERTURE END LIST*
D10*
X312719114Y-47450000D02*
X312714900Y-142595786D01*
X312719100Y-47450000D02*
G75*
G03*
X310719114Y-45450000I-2000000J0D01*
G01*
X195723314Y-142595786D02*
G75*
G03*
X197723328Y-144595786I1999986J-14D01*
G01*
X195723328Y-142595786D02*
X195723328Y-47454213D01*
X197723328Y-45454213D02*
X310719114Y-45450000D01*
X310714900Y-144595786D02*
X197723328Y-144595786D01*
X310714900Y-144595800D02*
G75*
G03*
X312714900Y-142595786I0J2000000D01*
G01*
X197723328Y-45454228D02*
G75*
G03*
X195723328Y-47454213I-28J-1999972D01*
G01*
D11*
X302090000Y-124255000D03*
D12*
X302090000Y-121715000D03*
X304630000Y-124255000D03*
X304630000Y-121715000D03*
D13*
X200250114Y-140100000D03*
D14*
X206560000Y-113635000D03*
D15*
X206560000Y-115635000D03*
D16*
X307920000Y-56790000D03*
X307920000Y-58790000D03*
X307920000Y-60790000D03*
D17*
X307920000Y-62890000D03*
X307920000Y-54690000D03*
D13*
X308250089Y-49950000D03*
D11*
X227405000Y-52840000D03*
D12*
X227405000Y-50300000D03*
X224865000Y-52840000D03*
X224865000Y-50300000D03*
X222325000Y-52840000D03*
X222325000Y-50300000D03*
X219785000Y-52840000D03*
X219785000Y-50300000D03*
X217245000Y-52840000D03*
X217245000Y-50300000D03*
X214705000Y-52840000D03*
X214705000Y-50300000D03*
X212165000Y-52840000D03*
X212165000Y-50300000D03*
X209625000Y-52840000D03*
X209625000Y-50300000D03*
D11*
X299590000Y-66000000D03*
D12*
X302130000Y-66000000D03*
X299590000Y-68540000D03*
X302130000Y-68540000D03*
X299590000Y-71080000D03*
X302130000Y-71080000D03*
D14*
X206560000Y-120540000D03*
D15*
X206560000Y-122540000D03*
D11*
X298905000Y-52840000D03*
D12*
X298905000Y-50300000D03*
X296365000Y-52840000D03*
X296365000Y-50300000D03*
X293825000Y-52840000D03*
X293825000Y-50300000D03*
X291285000Y-52840000D03*
X291285000Y-50300000D03*
X288745000Y-52840000D03*
X288745000Y-50300000D03*
X286205000Y-52840000D03*
X286205000Y-50300000D03*
X283665000Y-52840000D03*
X283665000Y-50300000D03*
X281125000Y-52840000D03*
X281125000Y-50300000D03*
D11*
X233517500Y-137160000D03*
D12*
X233517500Y-139700000D03*
X236057500Y-137160000D03*
X236057500Y-139700000D03*
X238597500Y-137160000D03*
X238597500Y-139700000D03*
X241137500Y-137160000D03*
X241137500Y-139700000D03*
X243677500Y-137160000D03*
X243677500Y-139700000D03*
X246217500Y-137160000D03*
X246217500Y-139700000D03*
X248757500Y-137160000D03*
X248757500Y-139700000D03*
X251297500Y-137160000D03*
X251297500Y-139700000D03*
D11*
X281125000Y-137160000D03*
D12*
X281125000Y-139700000D03*
X283665000Y-137160000D03*
X283665000Y-139700000D03*
X286205000Y-137160000D03*
X286205000Y-139700000D03*
X288745000Y-137160000D03*
X288745000Y-139700000D03*
X291285000Y-137160000D03*
X291285000Y-139700000D03*
X293825000Y-137160000D03*
X293825000Y-139700000D03*
X296365000Y-137160000D03*
X296365000Y-139700000D03*
X298905000Y-137160000D03*
X298905000Y-139700000D03*
D13*
X308250072Y-140100000D03*
D11*
X251297500Y-52840000D03*
D12*
X251297500Y-50300000D03*
X248757500Y-52840000D03*
X248757500Y-50300000D03*
X246217500Y-52840000D03*
X246217500Y-50300000D03*
X243677500Y-52840000D03*
X243677500Y-50300000D03*
X241137500Y-52840000D03*
X241137500Y-50300000D03*
X238597500Y-52840000D03*
X238597500Y-50300000D03*
X236057500Y-52840000D03*
X236057500Y-50300000D03*
X233517500Y-52840000D03*
X233517500Y-50300000D03*
D13*
X200250077Y-49950000D03*
D11*
X275120000Y-52840000D03*
D12*
X275120000Y-50300000D03*
X272580000Y-52840000D03*
X272580000Y-50300000D03*
X270040000Y-52840000D03*
X270040000Y-50300000D03*
X267500000Y-52840000D03*
X267500000Y-50300000D03*
X264960000Y-52840000D03*
X264960000Y-50300000D03*
X262420000Y-52840000D03*
X262420000Y-50300000D03*
X259880000Y-52840000D03*
X259880000Y-50300000D03*
X257340000Y-52840000D03*
X257340000Y-50300000D03*
D11*
X209625000Y-137160000D03*
D12*
X209625000Y-139700000D03*
X212165000Y-137160000D03*
X212165000Y-139700000D03*
X214705000Y-137160000D03*
X214705000Y-139700000D03*
X217245000Y-137160000D03*
X217245000Y-139700000D03*
X219785000Y-137160000D03*
X219785000Y-139700000D03*
X222325000Y-137160000D03*
X222325000Y-139700000D03*
X224865000Y-137160000D03*
X224865000Y-139700000D03*
X227405000Y-137160000D03*
X227405000Y-139700000D03*
D11*
X257340000Y-137160000D03*
D12*
X257340000Y-139700000D03*
X259880000Y-137160000D03*
X259880000Y-139700000D03*
X262420000Y-137160000D03*
X262420000Y-139700000D03*
X264960000Y-137160000D03*
X264960000Y-139700000D03*
X267500000Y-137160000D03*
X267500000Y-139700000D03*
X270040000Y-137160000D03*
X270040000Y-139700000D03*
X272580000Y-137160000D03*
X272580000Y-139700000D03*
X275120000Y-137160000D03*
X275120000Y-139700000D03*
D14*
X206560000Y-106735000D03*
D15*
X206560000Y-108735000D03*
D18*
X239220000Y-90702549D03*
X234220000Y-90702549D03*
X289220000Y-82042295D03*
X294220000Y-82042295D03*
X269220000Y-99354721D03*
X274220000Y-99354721D03*
D19*
X199450000Y-96410000D03*
X199450000Y-93610000D03*
D18*
X279220000Y-125335483D03*
X274220000Y-125335483D03*
D20*
X303720000Y-79510000D03*
X303720000Y-73785000D03*
D18*
X284220000Y-99354721D03*
X279220000Y-99354721D03*
D21*
X300480000Y-74640000D03*
X298580000Y-74640000D03*
D22*
X297595000Y-96290000D03*
X299245000Y-96290000D03*
D18*
X284220000Y-73382041D03*
X289220000Y-73382041D03*
D23*
X307210000Y-96942800D03*
X307210000Y-92777200D03*
D24*
X306775000Y-131320000D03*
D25*
X306775000Y-133320000D03*
X308775000Y-131320000D03*
X308775000Y-133320000D03*
D26*
X295910000Y-94362500D03*
X295910000Y-92812500D03*
D18*
X229220000Y-99354721D03*
X234220000Y-99354721D03*
X264220000Y-73382041D03*
X269220000Y-73382041D03*
X249220000Y-99354721D03*
X254220000Y-99354721D03*
D27*
X309260000Y-104530000D03*
D28*
X302920000Y-104530000D03*
X299740000Y-85470000D03*
X309260000Y-85470000D03*
D29*
X303775000Y-109150000D03*
X309500000Y-109150000D03*
D18*
X239220000Y-125335483D03*
X234220000Y-125335483D03*
X229220000Y-82042295D03*
X234220000Y-82042295D03*
X264220000Y-82042295D03*
X259220000Y-82042295D03*
D30*
X308020000Y-124830000D03*
X308020000Y-122930000D03*
X310100000Y-124830000D03*
X310100000Y-122930000D03*
D31*
X295910000Y-91452500D03*
X295910000Y-89802500D03*
D18*
X284220000Y-108014975D03*
X289220000Y-108014975D03*
X264220000Y-90702549D03*
X269220000Y-90702549D03*
X269220000Y-82042295D03*
X274220000Y-82042295D03*
X224220000Y-125335483D03*
X229220000Y-125335483D03*
X229220000Y-64721787D03*
X234220000Y-64721787D03*
D22*
X295835000Y-87480000D03*
X297485000Y-87480000D03*
D19*
X208400000Y-96400000D03*
X208400000Y-93600000D03*
D18*
X279220000Y-108014975D03*
X274220000Y-108014975D03*
X284210000Y-125328500D03*
X289210000Y-125328500D03*
X279220000Y-73382041D03*
X274220000Y-73382041D03*
X229220000Y-116675229D03*
X234220000Y-116675229D03*
X249220000Y-82042295D03*
X254220000Y-82042295D03*
D32*
X302205000Y-90397500D03*
X300555000Y-90397500D03*
D29*
X303775000Y-113950000D03*
X309500000Y-113950000D03*
D33*
X298393200Y-121920000D03*
X298393200Y-127000000D03*
D18*
X244220000Y-108014975D03*
X249220000Y-108014975D03*
X239220000Y-73382041D03*
X234220000Y-73382041D03*
X244220000Y-116675229D03*
X239220000Y-116675229D03*
X264220000Y-125335483D03*
X269220000Y-125335483D03*
D34*
X300060000Y-118790000D03*
X299560000Y-118790000D03*
X300060000Y-119290000D03*
X299560000Y-119290000D03*
X300060000Y-119790000D03*
X299560000Y-119790000D03*
D18*
X259220000Y-73382041D03*
X254220000Y-73382041D03*
D19*
X203875000Y-96400000D03*
X203875000Y-93600000D03*
D18*
X249220000Y-116675229D03*
X254220000Y-116675229D03*
D35*
X297370000Y-92812500D03*
X297370000Y-94362500D03*
D18*
X284220000Y-64721787D03*
X279220000Y-64721787D03*
D36*
X299030000Y-81798600D03*
X299030000Y-78801400D03*
D18*
X219220000Y-90702549D03*
X214220000Y-90702549D03*
D37*
X301585001Y-94490000D03*
X301085002Y-94490000D03*
X300585000Y-94490000D03*
X300085001Y-94490000D03*
D38*
X299435000Y-93839998D03*
X299435000Y-93340000D03*
X299435000Y-92839998D03*
X299435000Y-92339999D03*
D37*
X300085001Y-91690000D03*
X300585000Y-91690000D03*
X301085002Y-91690000D03*
X301585001Y-91690000D03*
D38*
X302234999Y-92339999D03*
X302234999Y-92839998D03*
X302234999Y-93340000D03*
X302234999Y-93839998D03*
D39*
X300835000Y-93064600D03*
D40*
X301424998Y-92500001D03*
X300245001Y-92500001D03*
X300245001Y-93679999D03*
X301424998Y-93679999D03*
X300835000Y-93090000D03*
D18*
X259220000Y-108014975D03*
X254220000Y-108014975D03*
X224220000Y-108014975D03*
X229220000Y-108014975D03*
X284220000Y-90702549D03*
X289220000Y-90702549D03*
X264220000Y-64721787D03*
X259220000Y-64721787D03*
X289220000Y-64721787D03*
X294220000Y-64721787D03*
X244220000Y-99354721D03*
X239220000Y-99354721D03*
X264220000Y-116675229D03*
X259220000Y-116675229D03*
X259220000Y-90702549D03*
X254220000Y-90702549D03*
X239220000Y-108014975D03*
X234220000Y-108014975D03*
X289220000Y-99354721D03*
X294220000Y-99354721D03*
X284220000Y-116675229D03*
X279220000Y-116675229D03*
X219220000Y-108014975D03*
X214220000Y-108014975D03*
X244220000Y-125335483D03*
X249220000Y-125335483D03*
X219220000Y-73382041D03*
X214220000Y-73382041D03*
D41*
X305035000Y-85340000D03*
X305035000Y-89690000D03*
D18*
X269220000Y-64721787D03*
X274220000Y-64721787D03*
D26*
X297370000Y-91402500D03*
X297370000Y-89852500D03*
D22*
X300555000Y-87477500D03*
X302205000Y-87477500D03*
D18*
X224220000Y-82042295D03*
X219220000Y-82042295D03*
X224220000Y-99354721D03*
X219220000Y-99354721D03*
X279220000Y-90702549D03*
X274220000Y-90702549D03*
X289220000Y-116675229D03*
X294220000Y-116675229D03*
D42*
X302320000Y-117600000D03*
X302320000Y-119500000D03*
D18*
X224220000Y-90702549D03*
X229220000Y-90702549D03*
D43*
X300605000Y-88937500D03*
X302155000Y-88937500D03*
D31*
X307840000Y-89065000D03*
X307840000Y-87415000D03*
D18*
X264220000Y-108014975D03*
X269220000Y-108014975D03*
X244220000Y-73382041D03*
X249220000Y-73382041D03*
X244220000Y-90702549D03*
X249220000Y-90702549D03*
X264220000Y-99354721D03*
X259220000Y-99354721D03*
D43*
X300605000Y-97790000D03*
X302155000Y-97790000D03*
D18*
X219220000Y-125335483D03*
X214220000Y-125335483D03*
D16*
X309740000Y-90350000D03*
D44*
X309740000Y-87810000D03*
D43*
X300605000Y-96327500D03*
X302155000Y-96327500D03*
D42*
X297990000Y-117600000D03*
X297990000Y-119500000D03*
D18*
X269220000Y-116675229D03*
X274220000Y-116675229D03*
X244220000Y-64721787D03*
X239220000Y-64721787D03*
X224220000Y-73382041D03*
X229220000Y-73382041D03*
X284220000Y-82042295D03*
X279220000Y-82042295D03*
D36*
X309930000Y-120738600D03*
X309930000Y-117741400D03*
D18*
X259220000Y-125335483D03*
X254220000Y-125335483D03*
D20*
X308525000Y-79510000D03*
X308525000Y-73785000D03*
D18*
X249220000Y-64721787D03*
X254220000Y-64721787D03*
X244220000Y-82042295D03*
X239220000Y-82042295D03*
D21*
X300480000Y-76600000D03*
X298580000Y-76600000D03*
D18*
X224220000Y-64721787D03*
X219220000Y-64721787D03*
X224220000Y-116675229D03*
X219220000Y-116675229D03*
M02*
