%TF.GenerationSoftware,KiCad,Pcbnew,(6.0.11)*%
%TF.CreationDate,2024-03-31T18:21:13-04:00*%
%TF.ProjectId,Ultrasonic Sound Steering - Driver Rev. C,556c7472-6173-46f6-9e69-6320536f756e,rev?*%
%TF.SameCoordinates,Original*%
%TF.FileFunction,Drillmap*%
%TF.FilePolarity,Positive*%
%FSLAX45Y45*%
G04 Gerber Fmt 4.5, Leading zero omitted, Abs format (unit mm)*
G04 Created by KiCad (PCBNEW (6.0.11)) date 2024-03-31 18:21:13*
%MOMM*%
%LPD*%
G01*
G04 APERTURE LIST*
%ADD10C,0.100000*%
%ADD11C,0.200000*%
%ADD12C,0.020000*%
%ADD13C,0.020320*%
%ADD14C,0.030000*%
%ADD15C,0.040000*%
%ADD16C,0.070000*%
%ADD17C,0.075000*%
%ADD18C,0.080000*%
%ADD19C,0.090000*%
%ADD20C,0.120000*%
%ADD21C,0.140000*%
%ADD22C,0.270000*%
G04 APERTURE END LIST*
D10*
X31271911Y-4745000D02*
X31271490Y-14259579D01*
X31271910Y-4745000D02*
G75*
G03*
X31071911Y-4545000I-200000J0D01*
G01*
X19572331Y-14259579D02*
G75*
G03*
X19772333Y-14459579I199999J-1D01*
G01*
X19572333Y-14259579D02*
X19572333Y-4745421D01*
X19772333Y-4545421D02*
X31071911Y-4545000D01*
X31071490Y-14459579D02*
X19772333Y-14459579D01*
X31071490Y-14459580D02*
G75*
G03*
X31271490Y-14259579I0J200000D01*
G01*
X19772333Y-4545423D02*
G75*
G03*
X19572333Y-4745421I-3J-199997D01*
G01*
D11*
D12*
X22098702Y-8625398D02*
X22118702Y-8645398D01*
X22118702Y-8625398D02*
X22098702Y-8645398D01*
X22098702Y-8735398D02*
X22118702Y-8755398D01*
X22118702Y-8735398D02*
X22098702Y-8755398D01*
X22098702Y-10357449D02*
X22118702Y-10377449D01*
X22118702Y-10357449D02*
X22098702Y-10377449D01*
X22098702Y-10467449D02*
X22118702Y-10487449D01*
X22118702Y-10467449D02*
X22098702Y-10487449D01*
X22098702Y-12089499D02*
X22118702Y-12109499D01*
X22118702Y-12089499D02*
X22098702Y-12109499D01*
X22098702Y-12199499D02*
X22118702Y-12219499D01*
X22118702Y-12199499D02*
X22098702Y-12219499D01*
X22100500Y-6896600D02*
X22120500Y-6916600D01*
X22120500Y-6896600D02*
X22100500Y-6916600D01*
X22100500Y-7006600D02*
X22120500Y-7026600D01*
X22120500Y-7006600D02*
X22100500Y-7026600D01*
X22228702Y-8625398D02*
X22248702Y-8645398D01*
X22248702Y-8625398D02*
X22228702Y-8645398D01*
X22228702Y-8735398D02*
X22248702Y-8755398D01*
X22248702Y-8735398D02*
X22228702Y-8755398D01*
X22228702Y-10357449D02*
X22248702Y-10377449D01*
X22248702Y-10357449D02*
X22228702Y-10377449D01*
X22228702Y-10467449D02*
X22248702Y-10487449D01*
X22248702Y-10467449D02*
X22228702Y-10487449D01*
X22228702Y-12089499D02*
X22248702Y-12109499D01*
X22248702Y-12089499D02*
X22228702Y-12109499D01*
X22228702Y-12199499D02*
X22248702Y-12219499D01*
X22248702Y-12199499D02*
X22228702Y-12219499D01*
X22230500Y-6896600D02*
X22250500Y-6916600D01*
X22250500Y-6896600D02*
X22230500Y-6916600D01*
X22230500Y-7006600D02*
X22250500Y-7026600D01*
X22250500Y-7006600D02*
X22230500Y-7026600D01*
X22595000Y-6040000D02*
X22615000Y-6060000D01*
X22615000Y-6040000D02*
X22595000Y-6060000D01*
X22595000Y-6150000D02*
X22615000Y-6170000D01*
X22615000Y-6150000D02*
X22595000Y-6170000D01*
X22595202Y-7757052D02*
X22615202Y-7777052D01*
X22615202Y-7757052D02*
X22595202Y-7777052D01*
X22595202Y-7867052D02*
X22615202Y-7887052D01*
X22615202Y-7867052D02*
X22595202Y-7887052D01*
X22595202Y-9489103D02*
X22615202Y-9509103D01*
X22615202Y-9489103D02*
X22595202Y-9509103D01*
X22595202Y-9599103D02*
X22615202Y-9619103D01*
X22615202Y-9599103D02*
X22595202Y-9619103D01*
X22595202Y-11221154D02*
X22615202Y-11241154D01*
X22615202Y-11221154D02*
X22595202Y-11241154D01*
X22595202Y-11331154D02*
X22615202Y-11351154D01*
X22615202Y-11331154D02*
X22595202Y-11351154D01*
X22725000Y-6040000D02*
X22745000Y-6060000D01*
X22745000Y-6040000D02*
X22725000Y-6060000D01*
X22725000Y-6150000D02*
X22745000Y-6170000D01*
X22745000Y-6150000D02*
X22725000Y-6170000D01*
X22725202Y-7757052D02*
X22745202Y-7777052D01*
X22745202Y-7757052D02*
X22725202Y-7777052D01*
X22725202Y-7867052D02*
X22745202Y-7887052D01*
X22745202Y-7867052D02*
X22725202Y-7887052D01*
X22725202Y-9489103D02*
X22745202Y-9509103D01*
X22745202Y-9489103D02*
X22725202Y-9509103D01*
X22725202Y-9599103D02*
X22745202Y-9619103D01*
X22745202Y-9599103D02*
X22725202Y-9619103D01*
X22725202Y-11221154D02*
X22745202Y-11241154D01*
X22745202Y-11221154D02*
X22725202Y-11241154D01*
X22725202Y-11331154D02*
X22745202Y-11351154D01*
X22745202Y-11331154D02*
X22725202Y-11351154D01*
X24098702Y-10357449D02*
X24118702Y-10377449D01*
X24118702Y-10357449D02*
X24098702Y-10377449D01*
X24098702Y-10467449D02*
X24118702Y-10487449D01*
X24118702Y-10467449D02*
X24098702Y-10487449D01*
X24098702Y-12089499D02*
X24118702Y-12109499D01*
X24118702Y-12089499D02*
X24098702Y-12109499D01*
X24098702Y-12199499D02*
X24118702Y-12219499D01*
X24118702Y-12199499D02*
X24098702Y-12219499D01*
X24100327Y-8625414D02*
X24120327Y-8645414D01*
X24120327Y-8625414D02*
X24100327Y-8645414D01*
X24100327Y-8735414D02*
X24120327Y-8755414D01*
X24120327Y-8735414D02*
X24100327Y-8755414D01*
X24100500Y-6894946D02*
X24120500Y-6914946D01*
X24120500Y-6894946D02*
X24100500Y-6914946D01*
X24100500Y-7004946D02*
X24120500Y-7024946D01*
X24120500Y-7004946D02*
X24100500Y-7024946D01*
X24228702Y-10357449D02*
X24248702Y-10377449D01*
X24248702Y-10357449D02*
X24228702Y-10377449D01*
X24228702Y-10467449D02*
X24248702Y-10487449D01*
X24248702Y-10467449D02*
X24228702Y-10487449D01*
X24228702Y-12089499D02*
X24248702Y-12109499D01*
X24248702Y-12089499D02*
X24228702Y-12109499D01*
X24228702Y-12199499D02*
X24248702Y-12219499D01*
X24248702Y-12199499D02*
X24228702Y-12219499D01*
X24230327Y-8625414D02*
X24250327Y-8645414D01*
X24250327Y-8625414D02*
X24230327Y-8645414D01*
X24230327Y-8735414D02*
X24250327Y-8755414D01*
X24250327Y-8735414D02*
X24230327Y-8755414D01*
X24230500Y-6894946D02*
X24250500Y-6914946D01*
X24250500Y-6894946D02*
X24230500Y-6914946D01*
X24230500Y-7004946D02*
X24250500Y-7024946D01*
X24250500Y-7004946D02*
X24230500Y-7024946D01*
X24595000Y-6040000D02*
X24615000Y-6060000D01*
X24615000Y-6040000D02*
X24595000Y-6060000D01*
X24595000Y-6150000D02*
X24615000Y-6170000D01*
X24615000Y-6150000D02*
X24595000Y-6170000D01*
X24595202Y-9489103D02*
X24615202Y-9509103D01*
X24615202Y-9489103D02*
X24595202Y-9509103D01*
X24595202Y-9599103D02*
X24615202Y-9619103D01*
X24615202Y-9599103D02*
X24595202Y-9619103D01*
X24595202Y-11221154D02*
X24615202Y-11241154D01*
X24615202Y-11221154D02*
X24595202Y-11241154D01*
X24595202Y-11331154D02*
X24615202Y-11351154D01*
X24615202Y-11331154D02*
X24595202Y-11351154D01*
X24596827Y-7757068D02*
X24616827Y-7777068D01*
X24616827Y-7757068D02*
X24596827Y-7777068D01*
X24596827Y-7867068D02*
X24616827Y-7887068D01*
X24616827Y-7867068D02*
X24596827Y-7887068D01*
X24725000Y-6040000D02*
X24745000Y-6060000D01*
X24745000Y-6040000D02*
X24725000Y-6060000D01*
X24725000Y-6150000D02*
X24745000Y-6170000D01*
X24745000Y-6150000D02*
X24725000Y-6170000D01*
X24725202Y-9489103D02*
X24745202Y-9509103D01*
X24745202Y-9489103D02*
X24725202Y-9509103D01*
X24725202Y-9599103D02*
X24745202Y-9619103D01*
X24745202Y-9599103D02*
X24725202Y-9619103D01*
X24725202Y-11221154D02*
X24745202Y-11241154D01*
X24745202Y-11221154D02*
X24725202Y-11241154D01*
X24725202Y-11331154D02*
X24745202Y-11351154D01*
X24745202Y-11331154D02*
X24725202Y-11351154D01*
X24726827Y-7757068D02*
X24746827Y-7777068D01*
X24746827Y-7757068D02*
X24726827Y-7777068D01*
X24726827Y-7867068D02*
X24746827Y-7887068D01*
X24746827Y-7867068D02*
X24726827Y-7887068D01*
X26098702Y-10357449D02*
X26118702Y-10377449D01*
X26118702Y-10357449D02*
X26098702Y-10377449D01*
X26098702Y-10467449D02*
X26118702Y-10487449D01*
X26118702Y-10467449D02*
X26098702Y-10487449D01*
X26098702Y-12089499D02*
X26118702Y-12109499D01*
X26118702Y-12089499D02*
X26098702Y-12109499D01*
X26098702Y-12199499D02*
X26118702Y-12219499D01*
X26118702Y-12199499D02*
X26098702Y-12219499D01*
X26100327Y-8625414D02*
X26120327Y-8645414D01*
X26120327Y-8625414D02*
X26100327Y-8645414D01*
X26100327Y-8735414D02*
X26120327Y-8755414D01*
X26120327Y-8735414D02*
X26100327Y-8755414D01*
X26100500Y-6894946D02*
X26120500Y-6914946D01*
X26120500Y-6894946D02*
X26100500Y-6914946D01*
X26100500Y-7004946D02*
X26120500Y-7024946D01*
X26120500Y-7004946D02*
X26100500Y-7024946D01*
X26228702Y-10357449D02*
X26248702Y-10377449D01*
X26248702Y-10357449D02*
X26228702Y-10377449D01*
X26228702Y-10467449D02*
X26248702Y-10487449D01*
X26248702Y-10467449D02*
X26228702Y-10487449D01*
X26228702Y-12089499D02*
X26248702Y-12109499D01*
X26248702Y-12089499D02*
X26228702Y-12109499D01*
X26228702Y-12199499D02*
X26248702Y-12219499D01*
X26248702Y-12199499D02*
X26228702Y-12219499D01*
X26230327Y-8625414D02*
X26250327Y-8645414D01*
X26250327Y-8625414D02*
X26230327Y-8645414D01*
X26230327Y-8735414D02*
X26250327Y-8755414D01*
X26250327Y-8735414D02*
X26230327Y-8755414D01*
X26230500Y-6894946D02*
X26250500Y-6914946D01*
X26250500Y-6894946D02*
X26230500Y-6914946D01*
X26230500Y-7004946D02*
X26250500Y-7024946D01*
X26250500Y-7004946D02*
X26230500Y-7024946D01*
X26595000Y-6040000D02*
X26615000Y-6060000D01*
X26615000Y-6040000D02*
X26595000Y-6060000D01*
X26595000Y-6150000D02*
X26615000Y-6170000D01*
X26615000Y-6150000D02*
X26595000Y-6170000D01*
X26595202Y-9489103D02*
X26615202Y-9509103D01*
X26615202Y-9489103D02*
X26595202Y-9509103D01*
X26595202Y-9599103D02*
X26615202Y-9619103D01*
X26615202Y-9599103D02*
X26595202Y-9619103D01*
X26595202Y-11221154D02*
X26615202Y-11241154D01*
X26615202Y-11221154D02*
X26595202Y-11241154D01*
X26595202Y-11331154D02*
X26615202Y-11351154D01*
X26615202Y-11331154D02*
X26595202Y-11351154D01*
X26596827Y-7757068D02*
X26616827Y-7777068D01*
X26616827Y-7757068D02*
X26596827Y-7777068D01*
X26596827Y-7867068D02*
X26616827Y-7887068D01*
X26616827Y-7867068D02*
X26596827Y-7887068D01*
X26725000Y-6040000D02*
X26745000Y-6060000D01*
X26745000Y-6040000D02*
X26725000Y-6060000D01*
X26725000Y-6150000D02*
X26745000Y-6170000D01*
X26745000Y-6150000D02*
X26725000Y-6170000D01*
X26725202Y-9489103D02*
X26745202Y-9509103D01*
X26745202Y-9489103D02*
X26725202Y-9509103D01*
X26725202Y-9599103D02*
X26745202Y-9619103D01*
X26745202Y-9599103D02*
X26725202Y-9619103D01*
X26725202Y-11221154D02*
X26745202Y-11241154D01*
X26745202Y-11221154D02*
X26725202Y-11241154D01*
X26725202Y-11331154D02*
X26745202Y-11351154D01*
X26745202Y-11331154D02*
X26725202Y-11351154D01*
X26726827Y-7757068D02*
X26746827Y-7777068D01*
X26746827Y-7757068D02*
X26726827Y-7777068D01*
X26726827Y-7867068D02*
X26746827Y-7887068D01*
X26746827Y-7867068D02*
X26726827Y-7887068D01*
X28098702Y-10357449D02*
X28118702Y-10377449D01*
X28118702Y-10357449D02*
X28098702Y-10377449D01*
X28098702Y-10467449D02*
X28118702Y-10487449D01*
X28118702Y-10467449D02*
X28098702Y-10487449D01*
X28098702Y-12089499D02*
X28118702Y-12109499D01*
X28118702Y-12089499D02*
X28098702Y-12109499D01*
X28098702Y-12199499D02*
X28118702Y-12219499D01*
X28118702Y-12199499D02*
X28098702Y-12219499D01*
X28100500Y-6894946D02*
X28120500Y-6914946D01*
X28120500Y-6894946D02*
X28100500Y-6914946D01*
X28100500Y-7004946D02*
X28120500Y-7024946D01*
X28120500Y-7004946D02*
X28100500Y-7024946D01*
X28100500Y-8625651D02*
X28120500Y-8645651D01*
X28120500Y-8625651D02*
X28100500Y-8645651D01*
X28100500Y-8735651D02*
X28120500Y-8755651D01*
X28120500Y-8735651D02*
X28100500Y-8755651D01*
X28228702Y-10357449D02*
X28248702Y-10377449D01*
X28248702Y-10357449D02*
X28228702Y-10377449D01*
X28228702Y-10467449D02*
X28248702Y-10487449D01*
X28248702Y-10467449D02*
X28228702Y-10487449D01*
X28228702Y-12089499D02*
X28248702Y-12109499D01*
X28248702Y-12089499D02*
X28228702Y-12109499D01*
X28228702Y-12199499D02*
X28248702Y-12219499D01*
X28248702Y-12199499D02*
X28228702Y-12219499D01*
X28230500Y-6894946D02*
X28250500Y-6914946D01*
X28250500Y-6894946D02*
X28230500Y-6914946D01*
X28230500Y-7004946D02*
X28250500Y-7024946D01*
X28250500Y-7004946D02*
X28230500Y-7024946D01*
X28230500Y-8625651D02*
X28250500Y-8645651D01*
X28250500Y-8625651D02*
X28230500Y-8645651D01*
X28230500Y-8735651D02*
X28250500Y-8755651D01*
X28250500Y-8735651D02*
X28230500Y-8755651D01*
X28595000Y-6040000D02*
X28615000Y-6060000D01*
X28615000Y-6040000D02*
X28595000Y-6060000D01*
X28595000Y-6150000D02*
X28615000Y-6170000D01*
X28615000Y-6150000D02*
X28595000Y-6170000D01*
X28595202Y-9489103D02*
X28615202Y-9509103D01*
X28615202Y-9489103D02*
X28595202Y-9509103D01*
X28595202Y-9599103D02*
X28615202Y-9619103D01*
X28615202Y-9599103D02*
X28595202Y-9619103D01*
X28595202Y-11221154D02*
X28615202Y-11241154D01*
X28615202Y-11221154D02*
X28595202Y-11241154D01*
X28595202Y-11331154D02*
X28615202Y-11351154D01*
X28615202Y-11331154D02*
X28595202Y-11351154D01*
X28597000Y-7757305D02*
X28617000Y-7777305D01*
X28617000Y-7757305D02*
X28597000Y-7777305D01*
X28597000Y-7867305D02*
X28617000Y-7887305D01*
X28617000Y-7867305D02*
X28597000Y-7887305D01*
X28725000Y-6040000D02*
X28745000Y-6060000D01*
X28745000Y-6040000D02*
X28725000Y-6060000D01*
X28725000Y-6150000D02*
X28745000Y-6170000D01*
X28745000Y-6150000D02*
X28725000Y-6170000D01*
X28725202Y-9489103D02*
X28745202Y-9509103D01*
X28745202Y-9489103D02*
X28725202Y-9509103D01*
X28725202Y-9599103D02*
X28745202Y-9619103D01*
X28745202Y-9599103D02*
X28725202Y-9619103D01*
X28725202Y-11221154D02*
X28745202Y-11241154D01*
X28745202Y-11221154D02*
X28725202Y-11241154D01*
X28725202Y-11331154D02*
X28745202Y-11351154D01*
X28745202Y-11331154D02*
X28725202Y-11351154D01*
X28727000Y-7757305D02*
X28747000Y-7777305D01*
X28747000Y-7757305D02*
X28727000Y-7777305D01*
X28727000Y-7867305D02*
X28747000Y-7887305D01*
X28747000Y-7867305D02*
X28727000Y-7887305D01*
D13*
X30034660Y-9250000D02*
G75*
G03*
X30034660Y-9250000I-10160J0D01*
G01*
X30034660Y-9368000D02*
G75*
G03*
X30034660Y-9368000I-10160J0D01*
G01*
X30093660Y-9309000D02*
G75*
G03*
X30093660Y-9309000I-10160J0D01*
G01*
X30152660Y-9250000D02*
G75*
G03*
X30152660Y-9250000I-10160J0D01*
G01*
X30152660Y-9368000D02*
G75*
G03*
X30152660Y-9368000I-10160J0D01*
G01*
D14*
X19716718Y-9525620D02*
X19716718Y-9555620D01*
X19701718Y-9540620D02*
X19731718Y-9540620D01*
X20212450Y-9612500D02*
X20212450Y-9642500D01*
X20197450Y-9627500D02*
X20227450Y-9627500D01*
X22459000Y-7458000D02*
X22459000Y-7488000D01*
X22444000Y-7473000D02*
X22474000Y-7473000D01*
X22459000Y-9192000D02*
X22459000Y-9222000D01*
X22444000Y-9207000D02*
X22474000Y-9207000D01*
X22459000Y-10926000D02*
X22459000Y-10956000D01*
X22444000Y-10941000D02*
X22474000Y-10941000D01*
X22459000Y-12660000D02*
X22459000Y-12690000D01*
X22444000Y-12675000D02*
X22474000Y-12675000D01*
X22954000Y-6594000D02*
X22954000Y-6624000D01*
X22939000Y-6609000D02*
X22969000Y-6609000D01*
X22954000Y-8328000D02*
X22954000Y-8358000D01*
X22939000Y-8343000D02*
X22969000Y-8343000D01*
X22954000Y-10062000D02*
X22954000Y-10092000D01*
X22939000Y-10077000D02*
X22969000Y-10077000D01*
X22954000Y-11796000D02*
X22954000Y-11826000D01*
X22939000Y-11811000D02*
X22969000Y-11811000D01*
X22956050Y-14035000D02*
X22956050Y-14065000D01*
X22941050Y-14050000D02*
X22971050Y-14050000D01*
X23135950Y-14035000D02*
X23135950Y-14065000D01*
X23120950Y-14050000D02*
X23150950Y-14050000D01*
X24459000Y-7458000D02*
X24459000Y-7488000D01*
X24444000Y-7473000D02*
X24474000Y-7473000D01*
X24459000Y-9192000D02*
X24459000Y-9222000D01*
X24444000Y-9207000D02*
X24474000Y-9207000D01*
X24459000Y-10926000D02*
X24459000Y-10956000D01*
X24444000Y-10941000D02*
X24474000Y-10941000D01*
X24459000Y-12660000D02*
X24459000Y-12690000D01*
X24444000Y-12675000D02*
X24474000Y-12675000D01*
X24954000Y-6594000D02*
X24954000Y-6624000D01*
X24939000Y-6609000D02*
X24969000Y-6609000D01*
X24954000Y-8328000D02*
X24954000Y-8358000D01*
X24939000Y-8343000D02*
X24969000Y-8343000D01*
X24954000Y-10062000D02*
X24954000Y-10092000D01*
X24939000Y-10077000D02*
X24969000Y-10077000D01*
X24954000Y-11796000D02*
X24954000Y-11826000D01*
X24939000Y-11811000D02*
X24969000Y-11811000D01*
X26459000Y-7458000D02*
X26459000Y-7488000D01*
X26444000Y-7473000D02*
X26474000Y-7473000D01*
X26459000Y-9192000D02*
X26459000Y-9222000D01*
X26444000Y-9207000D02*
X26474000Y-9207000D01*
X26459000Y-10926000D02*
X26459000Y-10956000D01*
X26444000Y-10941000D02*
X26474000Y-10941000D01*
X26459000Y-12660000D02*
X26459000Y-12690000D01*
X26444000Y-12675000D02*
X26474000Y-12675000D01*
X26954000Y-6594000D02*
X26954000Y-6624000D01*
X26939000Y-6609000D02*
X26969000Y-6609000D01*
X26954000Y-8328000D02*
X26954000Y-8358000D01*
X26939000Y-8343000D02*
X26969000Y-8343000D01*
X26954000Y-10062000D02*
X26954000Y-10092000D01*
X26939000Y-10077000D02*
X26969000Y-10077000D01*
X26954000Y-11796000D02*
X26954000Y-11826000D01*
X26939000Y-11811000D02*
X26969000Y-11811000D01*
X28459000Y-7458000D02*
X28459000Y-7488000D01*
X28444000Y-7473000D02*
X28474000Y-7473000D01*
X28459000Y-9192000D02*
X28459000Y-9222000D01*
X28444000Y-9207000D02*
X28474000Y-9207000D01*
X28459000Y-10926000D02*
X28459000Y-10956000D01*
X28444000Y-10941000D02*
X28474000Y-10941000D01*
X28459000Y-12660000D02*
X28459000Y-12690000D01*
X28444000Y-12675000D02*
X28474000Y-12675000D01*
X28614093Y-12228135D02*
X28614093Y-12258135D01*
X28599093Y-12243135D02*
X28629093Y-12243135D01*
X28690134Y-12760509D02*
X28690134Y-12790509D01*
X28675134Y-12775509D02*
X28705134Y-12775509D01*
X28954000Y-6594000D02*
X28954000Y-6624000D01*
X28939000Y-6609000D02*
X28969000Y-6609000D01*
X28954000Y-8328000D02*
X28954000Y-8358000D01*
X28939000Y-8343000D02*
X28969000Y-8343000D01*
X28954000Y-10062000D02*
X28954000Y-10092000D01*
X28939000Y-10077000D02*
X28969000Y-10077000D01*
X28954000Y-11796000D02*
X28954000Y-11826000D01*
X28939000Y-11811000D02*
X28969000Y-11811000D01*
X28960000Y-9583050D02*
X28960000Y-9613050D01*
X28945000Y-9598050D02*
X28975000Y-9598050D01*
X29358943Y-11890816D02*
X29358943Y-11920816D01*
X29343943Y-11905816D02*
X29373943Y-11905816D01*
X29419637Y-9583060D02*
X29419637Y-9613060D01*
X29404637Y-9598060D02*
X29434637Y-9598060D01*
X29444188Y-11440989D02*
X29444188Y-11470989D01*
X29429188Y-11455989D02*
X29459188Y-11455989D01*
X29663499Y-13064889D02*
X29663499Y-13094889D01*
X29648499Y-13079889D02*
X29678499Y-13079889D01*
X29966190Y-12865057D02*
X29966190Y-12895057D01*
X29951190Y-12880057D02*
X29981190Y-12880057D01*
X30191450Y-13695000D02*
X30191450Y-13725000D01*
X30176450Y-13710000D02*
X30206450Y-13710000D01*
D15*
X19820768Y-9551989D02*
X19820768Y-9523704D01*
X19792483Y-9523704D01*
X19792483Y-9551989D01*
X19820768Y-9551989D01*
X20123517Y-9863517D02*
X20123517Y-9835233D01*
X20095233Y-9835233D01*
X20095233Y-9863517D01*
X20123517Y-9863517D01*
X20136642Y-9641642D02*
X20136642Y-9613358D01*
X20108358Y-9613358D01*
X20108358Y-9641642D01*
X20136642Y-9641642D01*
X20354142Y-9786642D02*
X20354142Y-9758358D01*
X20325858Y-9758358D01*
X20325858Y-9786642D01*
X20354142Y-9786642D01*
X20460074Y-9515074D02*
X20460074Y-9486789D01*
X20431789Y-9486789D01*
X20431789Y-9515074D01*
X20460074Y-9515074D01*
X20669142Y-8949142D02*
X20669142Y-8920858D01*
X20640858Y-8920858D01*
X20640858Y-8949142D01*
X20669142Y-8949142D01*
X20669142Y-9644142D02*
X20669142Y-9615858D01*
X20640858Y-9615858D01*
X20640858Y-9644142D01*
X20669142Y-9644142D01*
X20989192Y-9529162D02*
X20989192Y-9500878D01*
X20960908Y-9500878D01*
X20960908Y-9529162D01*
X20989192Y-9529162D01*
X21068934Y-9686642D02*
X21068934Y-9658358D01*
X21040650Y-9658358D01*
X21040650Y-9686642D01*
X21068934Y-9686642D01*
X21484642Y-14223642D02*
X21484642Y-14195358D01*
X21456358Y-14195358D01*
X21456358Y-14223642D01*
X21484642Y-14223642D01*
X22116642Y-7696642D02*
X22116642Y-7668358D01*
X22088358Y-7668358D01*
X22088358Y-7696642D01*
X22116642Y-7696642D01*
X22116642Y-11166642D02*
X22116642Y-11138358D01*
X22088358Y-11138358D01*
X22088358Y-11166642D01*
X22116642Y-11166642D01*
X22116642Y-12901642D02*
X22116642Y-12873358D01*
X22088358Y-12873358D01*
X22088358Y-12901642D01*
X22116642Y-12901642D01*
X22119142Y-9431642D02*
X22119142Y-9403358D01*
X22090858Y-9403358D01*
X22090858Y-9431642D01*
X22119142Y-9431642D01*
X22274142Y-7694142D02*
X22274142Y-7665858D01*
X22245858Y-7665858D01*
X22245858Y-7694142D01*
X22274142Y-7694142D01*
X22274142Y-11164142D02*
X22274142Y-11135858D01*
X22245858Y-11135858D01*
X22245858Y-11164142D01*
X22274142Y-11164142D01*
X22274142Y-12899142D02*
X22274142Y-12870858D01*
X22245858Y-12870858D01*
X22245858Y-12899142D01*
X22274142Y-12899142D01*
X22276642Y-9429142D02*
X22276642Y-9400858D01*
X22248358Y-9400858D01*
X22248358Y-9429142D01*
X22276642Y-9429142D01*
X22385392Y-7507892D02*
X22385392Y-7479608D01*
X22357108Y-7479608D01*
X22357108Y-7507892D01*
X22385392Y-7507892D01*
X22385392Y-9242892D02*
X22385392Y-9214608D01*
X22357108Y-9214608D01*
X22357108Y-9242892D01*
X22385392Y-9242892D01*
X22385392Y-10975392D02*
X22385392Y-10947108D01*
X22357108Y-10947108D01*
X22357108Y-10975392D01*
X22385392Y-10975392D01*
X22385392Y-12712892D02*
X22385392Y-12684608D01*
X22357108Y-12684608D01*
X22357108Y-12712892D01*
X22385392Y-12712892D01*
X22611642Y-6844142D02*
X22611642Y-6815858D01*
X22583358Y-6815858D01*
X22583358Y-6844142D01*
X22611642Y-6844142D01*
X22611642Y-8577892D02*
X22611642Y-8549608D01*
X22583358Y-8549608D01*
X22583358Y-8577892D01*
X22611642Y-8577892D01*
X22611642Y-12050392D02*
X22611642Y-12022108D01*
X22583358Y-12022108D01*
X22583358Y-12050392D01*
X22611642Y-12050392D01*
X22614142Y-10310392D02*
X22614142Y-10282108D01*
X22585858Y-10282108D01*
X22585858Y-10310392D01*
X22614142Y-10310392D01*
X22769142Y-6841642D02*
X22769142Y-6813358D01*
X22740858Y-6813358D01*
X22740858Y-6841642D01*
X22769142Y-6841642D01*
X22769142Y-8575392D02*
X22769142Y-8547108D01*
X22740858Y-8547108D01*
X22740858Y-8575392D01*
X22769142Y-8575392D01*
X22769142Y-10310392D02*
X22769142Y-10282108D01*
X22740858Y-10282108D01*
X22740858Y-10310392D01*
X22769142Y-10310392D01*
X22769142Y-12047892D02*
X22769142Y-12019608D01*
X22740858Y-12019608D01*
X22740858Y-12047892D01*
X22769142Y-12047892D01*
X22881642Y-6649142D02*
X22881642Y-6620858D01*
X22853358Y-6620858D01*
X22853358Y-6649142D01*
X22881642Y-6649142D01*
X22881642Y-8382892D02*
X22881642Y-8354608D01*
X22853358Y-8354608D01*
X22853358Y-8382892D01*
X22881642Y-8382892D01*
X22881642Y-10117892D02*
X22881642Y-10089608D01*
X22853358Y-10089608D01*
X22853358Y-10117892D01*
X22881642Y-10117892D01*
X22881642Y-11855392D02*
X22881642Y-11827108D01*
X22853358Y-11827108D01*
X22853358Y-11855392D01*
X22881642Y-11855392D01*
X23060142Y-14064142D02*
X23060142Y-14035858D01*
X23031858Y-14035858D01*
X23031858Y-14064142D01*
X23060142Y-14064142D01*
X23061142Y-13663642D02*
X23061142Y-13635358D01*
X23032858Y-13635358D01*
X23032858Y-13663642D01*
X23061142Y-13663642D01*
X23437142Y-12279142D02*
X23437142Y-12250858D01*
X23408858Y-12250858D01*
X23408858Y-12279142D01*
X23437142Y-12279142D01*
X23439142Y-11941142D02*
X23439142Y-11912858D01*
X23410858Y-11912858D01*
X23410858Y-11941142D01*
X23439142Y-11941142D01*
X24116642Y-9431642D02*
X24116642Y-9403358D01*
X24088358Y-9403358D01*
X24088358Y-9431642D01*
X24116642Y-9431642D01*
X24116642Y-11166642D02*
X24116642Y-11138358D01*
X24088358Y-11138358D01*
X24088358Y-11166642D01*
X24116642Y-11166642D01*
X24116642Y-12901642D02*
X24116642Y-12873358D01*
X24088358Y-12873358D01*
X24088358Y-12901642D01*
X24116642Y-12901642D01*
X24119142Y-7696642D02*
X24119142Y-7668358D01*
X24090858Y-7668358D01*
X24090858Y-7696642D01*
X24119142Y-7696642D01*
X24274142Y-9429142D02*
X24274142Y-9400858D01*
X24245858Y-9400858D01*
X24245858Y-9429142D01*
X24274142Y-9429142D01*
X24274142Y-11164142D02*
X24274142Y-11135858D01*
X24245858Y-11135858D01*
X24245858Y-11164142D01*
X24274142Y-11164142D01*
X24274142Y-12899142D02*
X24274142Y-12870858D01*
X24245858Y-12870858D01*
X24245858Y-12899142D01*
X24274142Y-12899142D01*
X24276642Y-7694142D02*
X24276642Y-7665858D01*
X24248358Y-7665858D01*
X24248358Y-7694142D01*
X24276642Y-7694142D01*
X24385392Y-7505392D02*
X24385392Y-7477108D01*
X24357108Y-7477108D01*
X24357108Y-7505392D01*
X24385392Y-7505392D01*
X24385392Y-9242892D02*
X24385392Y-9214608D01*
X24357108Y-9214608D01*
X24357108Y-9242892D01*
X24385392Y-9242892D01*
X24385392Y-10977892D02*
X24385392Y-10949608D01*
X24357108Y-10949608D01*
X24357108Y-10977892D01*
X24385392Y-10977892D01*
X24385392Y-12712892D02*
X24385392Y-12684608D01*
X24357108Y-12684608D01*
X24357108Y-12712892D01*
X24385392Y-12712892D01*
X24611642Y-6842892D02*
X24611642Y-6814608D01*
X24583358Y-6814608D01*
X24583358Y-6842892D01*
X24611642Y-6842892D01*
X24611642Y-8577892D02*
X24611642Y-8549608D01*
X24583358Y-8549608D01*
X24583358Y-8577892D01*
X24611642Y-8577892D01*
X24611642Y-10312892D02*
X24611642Y-10284608D01*
X24583358Y-10284608D01*
X24583358Y-10312892D01*
X24611642Y-10312892D01*
X24611642Y-12050392D02*
X24611642Y-12022108D01*
X24583358Y-12022108D01*
X24583358Y-12050392D01*
X24611642Y-12050392D01*
X24769142Y-6840392D02*
X24769142Y-6812108D01*
X24740858Y-6812108D01*
X24740858Y-6840392D01*
X24769142Y-6840392D01*
X24769142Y-8575392D02*
X24769142Y-8547108D01*
X24740858Y-8547108D01*
X24740858Y-8575392D01*
X24769142Y-8575392D01*
X24769142Y-10310392D02*
X24769142Y-10282108D01*
X24740858Y-10282108D01*
X24740858Y-10310392D01*
X24769142Y-10310392D01*
X24769142Y-12047892D02*
X24769142Y-12019608D01*
X24740858Y-12019608D01*
X24740858Y-12047892D01*
X24769142Y-12047892D01*
X24881642Y-6647892D02*
X24881642Y-6619608D01*
X24853358Y-6619608D01*
X24853358Y-6647892D01*
X24881642Y-6647892D01*
X24881642Y-8382892D02*
X24881642Y-8354608D01*
X24853358Y-8354608D01*
X24853358Y-8382892D01*
X24881642Y-8382892D01*
X24881642Y-10117892D02*
X24881642Y-10089608D01*
X24853358Y-10089608D01*
X24853358Y-10117892D01*
X24881642Y-10117892D01*
X24881642Y-11855392D02*
X24881642Y-11827108D01*
X24853358Y-11827108D01*
X24853358Y-11855392D01*
X24881642Y-11855392D01*
X25439142Y-12265142D02*
X25439142Y-12236858D01*
X25410858Y-12236858D01*
X25410858Y-12265142D01*
X25439142Y-12265142D01*
X25441142Y-11927142D02*
X25441142Y-11898858D01*
X25412858Y-11898858D01*
X25412858Y-11927142D01*
X25441142Y-11927142D01*
X25548142Y-4892142D02*
X25548142Y-4863858D01*
X25519858Y-4863858D01*
X25519858Y-4892142D01*
X25548142Y-4892142D01*
X25655142Y-4819142D02*
X25655142Y-4790858D01*
X25626858Y-4790858D01*
X25626858Y-4819142D01*
X25655142Y-4819142D01*
X26116642Y-9431642D02*
X26116642Y-9403358D01*
X26088358Y-9403358D01*
X26088358Y-9431642D01*
X26116642Y-9431642D01*
X26116642Y-11166642D02*
X26116642Y-11138358D01*
X26088358Y-11138358D01*
X26088358Y-11166642D01*
X26116642Y-11166642D01*
X26116642Y-12901642D02*
X26116642Y-12873358D01*
X26088358Y-12873358D01*
X26088358Y-12901642D01*
X26116642Y-12901642D01*
X26119142Y-7696642D02*
X26119142Y-7668358D01*
X26090858Y-7668358D01*
X26090858Y-7696642D01*
X26119142Y-7696642D01*
X26274142Y-9429142D02*
X26274142Y-9400858D01*
X26245858Y-9400858D01*
X26245858Y-9429142D01*
X26274142Y-9429142D01*
X26274142Y-11164142D02*
X26274142Y-11135858D01*
X26245858Y-11135858D01*
X26245858Y-11164142D01*
X26274142Y-11164142D01*
X26274142Y-12899142D02*
X26274142Y-12870858D01*
X26245858Y-12870858D01*
X26245858Y-12899142D01*
X26274142Y-12899142D01*
X26276642Y-7694142D02*
X26276642Y-7665858D01*
X26248358Y-7665858D01*
X26248358Y-7694142D01*
X26276642Y-7694142D01*
X26296142Y-4820142D02*
X26296142Y-4791858D01*
X26267858Y-4791858D01*
X26267858Y-4820142D01*
X26296142Y-4820142D01*
X26385392Y-7507892D02*
X26385392Y-7479608D01*
X26357108Y-7479608D01*
X26357108Y-7507892D01*
X26385392Y-7507892D01*
X26385392Y-9242892D02*
X26385392Y-9214608D01*
X26357108Y-9214608D01*
X26357108Y-9242892D01*
X26385392Y-9242892D01*
X26385392Y-10977892D02*
X26385392Y-10949608D01*
X26357108Y-10949608D01*
X26357108Y-10977892D01*
X26385392Y-10977892D01*
X26385392Y-12712892D02*
X26385392Y-12684608D01*
X26357108Y-12684608D01*
X26357108Y-12712892D01*
X26385392Y-12712892D01*
X26393142Y-4889142D02*
X26393142Y-4860858D01*
X26364858Y-4860858D01*
X26364858Y-4889142D01*
X26393142Y-4889142D01*
X26611642Y-6842892D02*
X26611642Y-6814608D01*
X26583358Y-6814608D01*
X26583358Y-6842892D01*
X26611642Y-6842892D01*
X26611642Y-8577892D02*
X26611642Y-8549608D01*
X26583358Y-8549608D01*
X26583358Y-8577892D01*
X26611642Y-8577892D01*
X26611642Y-10312892D02*
X26611642Y-10284608D01*
X26583358Y-10284608D01*
X26583358Y-10312892D01*
X26611642Y-10312892D01*
X26611642Y-12050392D02*
X26611642Y-12022108D01*
X26583358Y-12022108D01*
X26583358Y-12050392D01*
X26611642Y-12050392D01*
X26769142Y-6840392D02*
X26769142Y-6812108D01*
X26740858Y-6812108D01*
X26740858Y-6840392D01*
X26769142Y-6840392D01*
X26769142Y-8575392D02*
X26769142Y-8547108D01*
X26740858Y-8547108D01*
X26740858Y-8575392D01*
X26769142Y-8575392D01*
X26769142Y-10310392D02*
X26769142Y-10282108D01*
X26740858Y-10282108D01*
X26740858Y-10310392D01*
X26769142Y-10310392D01*
X26769142Y-12047892D02*
X26769142Y-12019608D01*
X26740858Y-12019608D01*
X26740858Y-12047892D01*
X26769142Y-12047892D01*
X26881642Y-6647892D02*
X26881642Y-6619608D01*
X26853358Y-6619608D01*
X26853358Y-6647892D01*
X26881642Y-6647892D01*
X26881642Y-8382892D02*
X26881642Y-8354608D01*
X26853358Y-8354608D01*
X26853358Y-8382892D01*
X26881642Y-8382892D01*
X26881642Y-10117892D02*
X26881642Y-10089608D01*
X26853358Y-10089608D01*
X26853358Y-10117892D01*
X26881642Y-10117892D01*
X26881642Y-11855392D02*
X26881642Y-11827108D01*
X26853358Y-11827108D01*
X26853358Y-11855392D01*
X26881642Y-11855392D01*
X27435142Y-12271142D02*
X27435142Y-12242858D01*
X27406858Y-12242858D01*
X27406858Y-12271142D01*
X27435142Y-12271142D01*
X27437142Y-11933142D02*
X27437142Y-11904858D01*
X27408858Y-11904858D01*
X27408858Y-11933142D01*
X27437142Y-11933142D01*
X28116642Y-9431642D02*
X28116642Y-9403358D01*
X28088358Y-9403358D01*
X28088358Y-9431642D01*
X28116642Y-9431642D01*
X28116642Y-11166642D02*
X28116642Y-11138358D01*
X28088358Y-11138358D01*
X28088358Y-11166642D01*
X28116642Y-11166642D01*
X28116642Y-12901642D02*
X28116642Y-12873358D01*
X28088358Y-12873358D01*
X28088358Y-12901642D01*
X28116642Y-12901642D01*
X28121642Y-7694142D02*
X28121642Y-7665858D01*
X28093358Y-7665858D01*
X28093358Y-7694142D01*
X28121642Y-7694142D01*
X28274142Y-9429142D02*
X28274142Y-9400858D01*
X28245858Y-9400858D01*
X28245858Y-9429142D01*
X28274142Y-9429142D01*
X28274142Y-11164142D02*
X28274142Y-11135858D01*
X28245858Y-11135858D01*
X28245858Y-11164142D01*
X28274142Y-11164142D01*
X28274142Y-12899142D02*
X28274142Y-12870858D01*
X28245858Y-12870858D01*
X28245858Y-12899142D01*
X28274142Y-12899142D01*
X28276642Y-7696642D02*
X28276642Y-7668358D01*
X28248358Y-7668358D01*
X28248358Y-7696642D01*
X28276642Y-7696642D01*
X28385392Y-7507892D02*
X28385392Y-7479608D01*
X28357108Y-7479608D01*
X28357108Y-7507892D01*
X28385392Y-7507892D01*
X28385392Y-9242892D02*
X28385392Y-9214608D01*
X28357108Y-9214608D01*
X28357108Y-9242892D01*
X28385392Y-9242892D01*
X28385392Y-10977892D02*
X28385392Y-10949608D01*
X28357108Y-10949608D01*
X28357108Y-10977892D01*
X28385392Y-10977892D01*
X28385392Y-12712892D02*
X28385392Y-12684608D01*
X28357108Y-12684608D01*
X28357108Y-12712892D01*
X28385392Y-12712892D01*
X28611642Y-6842892D02*
X28611642Y-6814608D01*
X28583358Y-6814608D01*
X28583358Y-6842892D01*
X28611642Y-6842892D01*
X28611642Y-8577892D02*
X28611642Y-8549608D01*
X28583358Y-8549608D01*
X28583358Y-8577892D01*
X28611642Y-8577892D01*
X28611642Y-10315392D02*
X28611642Y-10287108D01*
X28583358Y-10287108D01*
X28583358Y-10315392D01*
X28611642Y-10315392D01*
X28611642Y-12047892D02*
X28611642Y-12019608D01*
X28583358Y-12019608D01*
X28583358Y-12047892D01*
X28611642Y-12047892D01*
X28632142Y-12347142D02*
X28632142Y-12318858D01*
X28603858Y-12318858D01*
X28603858Y-12347142D01*
X28632142Y-12347142D01*
X28740142Y-12872142D02*
X28740142Y-12843858D01*
X28711858Y-12843858D01*
X28711858Y-12872142D01*
X28740142Y-12872142D01*
X28766142Y-12714142D02*
X28766142Y-12685858D01*
X28737858Y-12685858D01*
X28737858Y-12714142D01*
X28766142Y-12714142D01*
X28769142Y-6840392D02*
X28769142Y-6812108D01*
X28740858Y-6812108D01*
X28740858Y-6840392D01*
X28769142Y-6840392D01*
X28769142Y-8575392D02*
X28769142Y-8547108D01*
X28740858Y-8547108D01*
X28740858Y-8575392D01*
X28769142Y-8575392D01*
X28769142Y-10312892D02*
X28769142Y-10284608D01*
X28740858Y-10284608D01*
X28740858Y-10312892D01*
X28769142Y-10312892D01*
X28769142Y-12045392D02*
X28769142Y-12017108D01*
X28740858Y-12017108D01*
X28740858Y-12045392D01*
X28769142Y-12045392D01*
X28769192Y-12163192D02*
X28769192Y-12134908D01*
X28740908Y-12134908D01*
X28740908Y-12163192D01*
X28769192Y-12163192D01*
X28881642Y-6647892D02*
X28881642Y-6619608D01*
X28853358Y-6619608D01*
X28853358Y-6647892D01*
X28881642Y-6647892D01*
X28881642Y-8382892D02*
X28881642Y-8354608D01*
X28853358Y-8354608D01*
X28853358Y-8382892D01*
X28881642Y-8382892D01*
X28881642Y-10120392D02*
X28881642Y-10092108D01*
X28853358Y-10092108D01*
X28853358Y-10120392D01*
X28881642Y-10120392D01*
X28881642Y-11852892D02*
X28881642Y-11824608D01*
X28853358Y-11824608D01*
X28853358Y-11852892D01*
X28881642Y-11852892D01*
X28974142Y-9702142D02*
X28974142Y-9673858D01*
X28945858Y-9673858D01*
X28945858Y-9702142D01*
X28974142Y-9702142D01*
X29210292Y-10548642D02*
X29210292Y-10520358D01*
X29182008Y-10520358D01*
X29182008Y-10548642D01*
X29210292Y-10548642D01*
X29249644Y-7019223D02*
X29249644Y-6990939D01*
X29221360Y-6990939D01*
X29221360Y-7019223D01*
X29249644Y-7019223D01*
X29252142Y-7119142D02*
X29252142Y-7090858D01*
X29223858Y-7090858D01*
X29223858Y-7119142D01*
X29252142Y-7119142D01*
X29282142Y-12488142D02*
X29282142Y-12459858D01*
X29253858Y-12459858D01*
X29253858Y-12488142D01*
X29282142Y-12488142D01*
X29283142Y-11921142D02*
X29283142Y-11892858D01*
X29254858Y-11892858D01*
X29254858Y-11921142D01*
X29283142Y-11921142D01*
X29348847Y-6904978D02*
X29348847Y-6876693D01*
X29320562Y-6876693D01*
X29320562Y-6904978D01*
X29348847Y-6904978D01*
X29351142Y-7005142D02*
X29351142Y-6976858D01*
X29322858Y-6976858D01*
X29322858Y-7005142D01*
X29351142Y-7005142D01*
X29377142Y-12976142D02*
X29377142Y-12947858D01*
X29348858Y-12947858D01*
X29348858Y-12976142D01*
X29377142Y-12976142D01*
X29378916Y-12429809D02*
X29378916Y-12401524D01*
X29350631Y-12401524D01*
X29350631Y-12429809D01*
X29378916Y-12429809D01*
X29407142Y-11261552D02*
X29407142Y-11233268D01*
X29378858Y-11233268D01*
X29378858Y-11261552D01*
X29407142Y-11261552D01*
X29428142Y-7565142D02*
X29428142Y-7536858D01*
X29399858Y-7536858D01*
X29399858Y-7565142D01*
X29428142Y-7565142D01*
X29428142Y-7705142D02*
X29428142Y-7676858D01*
X29399858Y-7676858D01*
X29399858Y-7705142D01*
X29428142Y-7705142D01*
X29428142Y-7845142D02*
X29428142Y-7816858D01*
X29399858Y-7816858D01*
X29399858Y-7845142D01*
X29428142Y-7845142D01*
X29428142Y-7985142D02*
X29428142Y-7956858D01*
X29399858Y-7956858D01*
X29399858Y-7985142D01*
X29428142Y-7985142D01*
X29435142Y-9702142D02*
X29435142Y-9673858D01*
X29406858Y-9673858D01*
X29406858Y-9702142D01*
X29435142Y-9702142D01*
X29436567Y-10278142D02*
X29436567Y-10249858D01*
X29408283Y-10249858D01*
X29408283Y-10278142D01*
X29436567Y-10278142D01*
X29512592Y-7115142D02*
X29512592Y-7086858D01*
X29484308Y-7086858D01*
X29484308Y-7115142D01*
X29512592Y-7115142D01*
X29548142Y-11465142D02*
X29548142Y-11436858D01*
X29519858Y-11436858D01*
X29519858Y-11465142D01*
X29548142Y-11465142D01*
X29568142Y-7425142D02*
X29568142Y-7396858D01*
X29539858Y-7396858D01*
X29539858Y-7425142D01*
X29568142Y-7425142D01*
X29568142Y-7565142D02*
X29568142Y-7536858D01*
X29539858Y-7536858D01*
X29539858Y-7565142D01*
X29568142Y-7565142D01*
X29568142Y-7705142D02*
X29568142Y-7676858D01*
X29539858Y-7676858D01*
X29539858Y-7705142D01*
X29568142Y-7705142D01*
X29568142Y-7845142D02*
X29568142Y-7816858D01*
X29539858Y-7816858D01*
X29539858Y-7845142D01*
X29568142Y-7845142D01*
X29568142Y-7985142D02*
X29568142Y-7956858D01*
X29539858Y-7956858D01*
X29539858Y-7985142D01*
X29568142Y-7985142D01*
X29680142Y-12993142D02*
X29680142Y-12964858D01*
X29651858Y-12964858D01*
X29651858Y-12993142D01*
X29680142Y-12993142D01*
X29695142Y-9555142D02*
X29695142Y-9526858D01*
X29666858Y-9526858D01*
X29666858Y-9555142D01*
X29695142Y-9555142D01*
X29708142Y-7425142D02*
X29708142Y-7396858D01*
X29679858Y-7396858D01*
X29679858Y-7425142D01*
X29708142Y-7425142D01*
X29708142Y-7565142D02*
X29708142Y-7536858D01*
X29679858Y-7536858D01*
X29679858Y-7565142D01*
X29708142Y-7565142D01*
X29708142Y-7705142D02*
X29708142Y-7676858D01*
X29679858Y-7676858D01*
X29679858Y-7705142D01*
X29708142Y-7705142D01*
X29708142Y-7845142D02*
X29708142Y-7816858D01*
X29679858Y-7816858D01*
X29679858Y-7845142D01*
X29708142Y-7845142D01*
X29708142Y-7985142D02*
X29708142Y-7956858D01*
X29679858Y-7956858D01*
X29679858Y-7985142D01*
X29708142Y-7985142D01*
X29799142Y-9997142D02*
X29799142Y-9968858D01*
X29770858Y-9968858D01*
X29770858Y-9997142D01*
X29799142Y-9997142D01*
X29814142Y-6134392D02*
X29814142Y-6106108D01*
X29785858Y-6106108D01*
X29785858Y-6134392D01*
X29814142Y-6134392D01*
X29814142Y-10309142D02*
X29814142Y-10280858D01*
X29785858Y-10280858D01*
X29785858Y-10309142D01*
X29814142Y-10309142D01*
X29912142Y-6135142D02*
X29912142Y-6106858D01*
X29883858Y-6106858D01*
X29883858Y-6135142D01*
X29912142Y-6135142D01*
X29946142Y-10035142D02*
X29946142Y-10006858D01*
X29917858Y-10006858D01*
X29917858Y-10035142D01*
X29946142Y-10035142D01*
X29948142Y-11774142D02*
X29948142Y-11745858D01*
X29919858Y-11745858D01*
X29919858Y-11774142D01*
X29948142Y-11774142D01*
X29953142Y-12373142D02*
X29953142Y-12344858D01*
X29924858Y-12344858D01*
X29924858Y-12373142D01*
X29953142Y-12373142D01*
X29979142Y-12994142D02*
X29979142Y-12965858D01*
X29950858Y-12965858D01*
X29950858Y-12994142D01*
X29979142Y-12994142D01*
X29980142Y-13369142D02*
X29980142Y-13340858D01*
X29951858Y-13340858D01*
X29951858Y-13369142D01*
X29980142Y-13369142D01*
X30010142Y-6154142D02*
X30010142Y-6125858D01*
X29981858Y-6125858D01*
X29981858Y-6154142D01*
X30010142Y-6154142D01*
X30020892Y-5979142D02*
X30020892Y-5950858D01*
X29992608Y-5950858D01*
X29992608Y-5979142D01*
X30020892Y-5979142D01*
X30065142Y-7353679D02*
X30065142Y-7325394D01*
X30036858Y-7325394D01*
X30036858Y-7353679D01*
X30065142Y-7353679D01*
X30067092Y-7785591D02*
X30067092Y-7757306D01*
X30038808Y-7757306D01*
X30038808Y-7785591D01*
X30067092Y-7785591D01*
X30096142Y-12024142D02*
X30096142Y-11995858D01*
X30067858Y-11995858D01*
X30067858Y-12024142D01*
X30096142Y-12024142D01*
X30125142Y-13366142D02*
X30125142Y-13337858D01*
X30096858Y-13337858D01*
X30096858Y-13366142D01*
X30125142Y-13366142D01*
X30126142Y-11774142D02*
X30126142Y-11745858D01*
X30097858Y-11745858D01*
X30097858Y-11774142D01*
X30126142Y-11774142D01*
X30173142Y-9993142D02*
X30173142Y-9964858D01*
X30144858Y-9964858D01*
X30144858Y-9993142D01*
X30173142Y-9993142D01*
X30188142Y-13572142D02*
X30188142Y-13543858D01*
X30159858Y-13543858D01*
X30159858Y-13572142D01*
X30188142Y-13572142D01*
X30193142Y-12963142D02*
X30193142Y-12934858D01*
X30164858Y-12934858D01*
X30164858Y-12963142D01*
X30193142Y-12963142D01*
X30223642Y-7561142D02*
X30223642Y-7532858D01*
X30195358Y-7532858D01*
X30195358Y-7561142D01*
X30223642Y-7561142D01*
X30270142Y-13661142D02*
X30270142Y-13632858D01*
X30241858Y-13632858D01*
X30241858Y-13661142D01*
X30270142Y-13661142D01*
X30278818Y-10097192D02*
X30278818Y-10068908D01*
X30250533Y-10068908D01*
X30250533Y-10097192D01*
X30278818Y-10097192D01*
X30320642Y-7560142D02*
X30320642Y-7531858D01*
X30292358Y-7531858D01*
X30292358Y-7560142D01*
X30320642Y-7560142D01*
X30417642Y-7560142D02*
X30417642Y-7531858D01*
X30389358Y-7531858D01*
X30389358Y-7560142D01*
X30417642Y-7560142D01*
X30461142Y-5210142D02*
X30461142Y-5181858D01*
X30432858Y-5181858D01*
X30432858Y-5210142D01*
X30461142Y-5210142D01*
X30462142Y-13525142D02*
X30462142Y-13496858D01*
X30433858Y-13496858D01*
X30433858Y-13525142D01*
X30462142Y-13525142D01*
X30669142Y-8763142D02*
X30669142Y-8734858D01*
X30640858Y-8734858D01*
X30640858Y-8763142D01*
X30669142Y-8763142D01*
X30707642Y-10636842D02*
X30707642Y-10608558D01*
X30679358Y-10608558D01*
X30679358Y-10636842D01*
X30707642Y-10636842D01*
X30772142Y-10831142D02*
X30772142Y-10802858D01*
X30743858Y-10802858D01*
X30743858Y-10831142D01*
X30772142Y-10831142D01*
X30772142Y-10928142D02*
X30772142Y-10899858D01*
X30743858Y-10899858D01*
X30743858Y-10928142D01*
X30772142Y-10928142D01*
X30773142Y-11025142D02*
X30773142Y-10996858D01*
X30744858Y-10996858D01*
X30744858Y-11025142D01*
X30773142Y-11025142D01*
X30785892Y-11247142D02*
X30785892Y-11218858D01*
X30757608Y-11218858D01*
X30757608Y-11247142D01*
X30785892Y-11247142D01*
X30786892Y-11344142D02*
X30786892Y-11315858D01*
X30758608Y-11315858D01*
X30758608Y-11344142D01*
X30786892Y-11344142D01*
X30786892Y-11441142D02*
X30786892Y-11412858D01*
X30758608Y-11412858D01*
X30758608Y-11441142D01*
X30786892Y-11441142D01*
X30816142Y-12588142D02*
X30816142Y-12559857D01*
X30787858Y-12559857D01*
X30787858Y-12588142D01*
X30816142Y-12588142D01*
X30835142Y-7565142D02*
X30835142Y-7536858D01*
X30806858Y-7536858D01*
X30806858Y-7565142D01*
X30835142Y-7565142D01*
X30932142Y-7564142D02*
X30932142Y-7535858D01*
X30903858Y-7535858D01*
X30903858Y-7564142D01*
X30932142Y-7564142D01*
X31024142Y-12593642D02*
X31024142Y-12565358D01*
X30995858Y-12565358D01*
X30995858Y-12593642D01*
X31024142Y-12593642D01*
X31029142Y-7564142D02*
X31029142Y-7535858D01*
X31000858Y-7535858D01*
X31000858Y-7564142D01*
X31029142Y-7564142D01*
D16*
X30974000Y-8816000D02*
X31009000Y-8781000D01*
X30974000Y-8746000D01*
X30939000Y-8781000D01*
X30974000Y-8816000D01*
X30974000Y-9070000D02*
X31009000Y-9035000D01*
X30974000Y-9000000D01*
X30939000Y-9035000D01*
X30974000Y-9070000D01*
D17*
X20618500Y-10636000D02*
X20693500Y-10711000D01*
X20693500Y-10636000D02*
X20618500Y-10711000D01*
X20693500Y-10673500D02*
G75*
G03*
X20693500Y-10673500I-37500J0D01*
G01*
X20618500Y-10836000D02*
X20693500Y-10911000D01*
X20693500Y-10836000D02*
X20618500Y-10911000D01*
X20693500Y-10873500D02*
G75*
G03*
X20693500Y-10873500I-37500J0D01*
G01*
X20618500Y-11326000D02*
X20693500Y-11401000D01*
X20693500Y-11326000D02*
X20618500Y-11401000D01*
X20693500Y-11363500D02*
G75*
G03*
X20693500Y-11363500I-37500J0D01*
G01*
X20618500Y-11526000D02*
X20693500Y-11601000D01*
X20693500Y-11526000D02*
X20618500Y-11601000D01*
X20693500Y-11563500D02*
G75*
G03*
X20693500Y-11563500I-37500J0D01*
G01*
X20618500Y-12016500D02*
X20693500Y-12091500D01*
X20693500Y-12016500D02*
X20618500Y-12091500D01*
X20693500Y-12054000D02*
G75*
G03*
X20693500Y-12054000I-37500J0D01*
G01*
X20618500Y-12216500D02*
X20693500Y-12291500D01*
X20693500Y-12216500D02*
X20618500Y-12291500D01*
X20693500Y-12254000D02*
G75*
G03*
X20693500Y-12254000I-37500J0D01*
G01*
D18*
X30637500Y-13092000D02*
X30717500Y-13172000D01*
X30717500Y-13092000D02*
X30637500Y-13172000D01*
X30677500Y-13092000D02*
X30677500Y-13172000D01*
X30637500Y-13132000D02*
X30717500Y-13132000D01*
X30637500Y-13292000D02*
X30717500Y-13372000D01*
X30717500Y-13292000D02*
X30637500Y-13372000D01*
X30677500Y-13292000D02*
X30677500Y-13372000D01*
X30637500Y-13332000D02*
X30717500Y-13332000D01*
X30752000Y-5429000D02*
X30832000Y-5509000D01*
X30832000Y-5429000D02*
X30752000Y-5509000D01*
X30792000Y-5429000D02*
X30792000Y-5509000D01*
X30752000Y-5469000D02*
X30832000Y-5469000D01*
D11*
X30832000Y-5429000D02*
X30752000Y-5429000D01*
X30832000Y-5509000D02*
X30752000Y-5509000D01*
X30752000Y-5429000D02*
G75*
G03*
X30752000Y-5509000I0J-40000D01*
G01*
X30832000Y-5509000D02*
G75*
G03*
X30832000Y-5429000I0J40000D01*
G01*
D18*
X30752000Y-6249000D02*
X30832000Y-6329000D01*
X30832000Y-6249000D02*
X30752000Y-6329000D01*
X30792000Y-6249000D02*
X30792000Y-6329000D01*
X30752000Y-6289000D02*
X30832000Y-6289000D01*
D11*
X30752000Y-6329000D02*
X30832000Y-6329000D01*
X30752000Y-6249000D02*
X30832000Y-6249000D01*
X30832000Y-6329000D02*
G75*
G03*
X30832000Y-6249000I0J40000D01*
G01*
X30752000Y-6249000D02*
G75*
G03*
X30752000Y-6329000I0J-40000D01*
G01*
D18*
X30837500Y-13092000D02*
X30917500Y-13172000D01*
X30917500Y-13092000D02*
X30837500Y-13172000D01*
X30877500Y-13092000D02*
X30877500Y-13172000D01*
X30837500Y-13132000D02*
X30917500Y-13132000D01*
X30837500Y-13292000D02*
X30917500Y-13372000D01*
X30917500Y-13292000D02*
X30837500Y-13372000D01*
X30877500Y-13292000D02*
X30877500Y-13372000D01*
X30837500Y-13332000D02*
X30917500Y-13332000D01*
D19*
X30747000Y-5634000D02*
X30837000Y-5724000D01*
X30837000Y-5634000D02*
X30747000Y-5724000D01*
X30823820Y-5710820D02*
X30823820Y-5647180D01*
X30760180Y-5647180D01*
X30760180Y-5710820D01*
X30823820Y-5710820D01*
X30747000Y-5834000D02*
X30837000Y-5924000D01*
X30837000Y-5834000D02*
X30747000Y-5924000D01*
X30823820Y-5910820D02*
X30823820Y-5847180D01*
X30760180Y-5847180D01*
X30760180Y-5910820D01*
X30823820Y-5910820D01*
X30747000Y-6034000D02*
X30837000Y-6124000D01*
X30837000Y-6034000D02*
X30747000Y-6124000D01*
X30823820Y-6110820D02*
X30823820Y-6047180D01*
X30760180Y-6047180D01*
X30760180Y-6110820D01*
X30823820Y-6110820D01*
D10*
X20912500Y-4980000D02*
X21012500Y-5080000D01*
X21012500Y-4980000D02*
X20912500Y-5080000D01*
X20962500Y-5080000D02*
X21012500Y-5030000D01*
X20962500Y-4980000D01*
X20912500Y-5030000D01*
X20962500Y-5080000D01*
X20912500Y-5234000D02*
X21012500Y-5334000D01*
X21012500Y-5234000D02*
X20912500Y-5334000D01*
X20962500Y-5334000D02*
X21012500Y-5284000D01*
X20962500Y-5234000D01*
X20912500Y-5284000D01*
X20962500Y-5334000D01*
X20912500Y-13666000D02*
X21012500Y-13766000D01*
X21012500Y-13666000D02*
X20912500Y-13766000D01*
X20962500Y-13766000D02*
X21012500Y-13716000D01*
X20962500Y-13666000D01*
X20912500Y-13716000D01*
X20962500Y-13766000D01*
X20912500Y-13920000D02*
X21012500Y-14020000D01*
X21012500Y-13920000D02*
X20912500Y-14020000D01*
X20962500Y-14020000D02*
X21012500Y-13970000D01*
X20962500Y-13920000D01*
X20912500Y-13970000D01*
X20962500Y-14020000D01*
X21166500Y-4980000D02*
X21266500Y-5080000D01*
X21266500Y-4980000D02*
X21166500Y-5080000D01*
X21216500Y-5080000D02*
X21266500Y-5030000D01*
X21216500Y-4980000D01*
X21166500Y-5030000D01*
X21216500Y-5080000D01*
X21166500Y-5234000D02*
X21266500Y-5334000D01*
X21266500Y-5234000D02*
X21166500Y-5334000D01*
X21216500Y-5334000D02*
X21266500Y-5284000D01*
X21216500Y-5234000D01*
X21166500Y-5284000D01*
X21216500Y-5334000D01*
X21166500Y-13666000D02*
X21266500Y-13766000D01*
X21266500Y-13666000D02*
X21166500Y-13766000D01*
X21216500Y-13766000D02*
X21266500Y-13716000D01*
X21216500Y-13666000D01*
X21166500Y-13716000D01*
X21216500Y-13766000D01*
X21166500Y-13920000D02*
X21266500Y-14020000D01*
X21266500Y-13920000D02*
X21166500Y-14020000D01*
X21216500Y-14020000D02*
X21266500Y-13970000D01*
X21216500Y-13920000D01*
X21166500Y-13970000D01*
X21216500Y-14020000D01*
X21420500Y-4980000D02*
X21520500Y-5080000D01*
X21520500Y-4980000D02*
X21420500Y-5080000D01*
X21470500Y-5080000D02*
X21520500Y-5030000D01*
X21470500Y-4980000D01*
X21420500Y-5030000D01*
X21470500Y-5080000D01*
X21420500Y-5234000D02*
X21520500Y-5334000D01*
X21520500Y-5234000D02*
X21420500Y-5334000D01*
X21470500Y-5334000D02*
X21520500Y-5284000D01*
X21470500Y-5234000D01*
X21420500Y-5284000D01*
X21470500Y-5334000D01*
X21420500Y-13666000D02*
X21520500Y-13766000D01*
X21520500Y-13666000D02*
X21420500Y-13766000D01*
X21470500Y-13766000D02*
X21520500Y-13716000D01*
X21470500Y-13666000D01*
X21420500Y-13716000D01*
X21470500Y-13766000D01*
X21420500Y-13920000D02*
X21520500Y-14020000D01*
X21520500Y-13920000D02*
X21420500Y-14020000D01*
X21470500Y-14020000D02*
X21520500Y-13970000D01*
X21470500Y-13920000D01*
X21420500Y-13970000D01*
X21470500Y-14020000D01*
X21674500Y-4980000D02*
X21774500Y-5080000D01*
X21774500Y-4980000D02*
X21674500Y-5080000D01*
X21724500Y-5080000D02*
X21774500Y-5030000D01*
X21724500Y-4980000D01*
X21674500Y-5030000D01*
X21724500Y-5080000D01*
X21674500Y-5234000D02*
X21774500Y-5334000D01*
X21774500Y-5234000D02*
X21674500Y-5334000D01*
X21724500Y-5334000D02*
X21774500Y-5284000D01*
X21724500Y-5234000D01*
X21674500Y-5284000D01*
X21724500Y-5334000D01*
X21674500Y-13666000D02*
X21774500Y-13766000D01*
X21774500Y-13666000D02*
X21674500Y-13766000D01*
X21724500Y-13766000D02*
X21774500Y-13716000D01*
X21724500Y-13666000D01*
X21674500Y-13716000D01*
X21724500Y-13766000D01*
X21674500Y-13920000D02*
X21774500Y-14020000D01*
X21774500Y-13920000D02*
X21674500Y-14020000D01*
X21724500Y-14020000D02*
X21774500Y-13970000D01*
X21724500Y-13920000D01*
X21674500Y-13970000D01*
X21724500Y-14020000D01*
X21928500Y-4980000D02*
X22028500Y-5080000D01*
X22028500Y-4980000D02*
X21928500Y-5080000D01*
X21978500Y-5080000D02*
X22028500Y-5030000D01*
X21978500Y-4980000D01*
X21928500Y-5030000D01*
X21978500Y-5080000D01*
X21928500Y-5234000D02*
X22028500Y-5334000D01*
X22028500Y-5234000D02*
X21928500Y-5334000D01*
X21978500Y-5334000D02*
X22028500Y-5284000D01*
X21978500Y-5234000D01*
X21928500Y-5284000D01*
X21978500Y-5334000D01*
X21928500Y-13666000D02*
X22028500Y-13766000D01*
X22028500Y-13666000D02*
X21928500Y-13766000D01*
X21978500Y-13766000D02*
X22028500Y-13716000D01*
X21978500Y-13666000D01*
X21928500Y-13716000D01*
X21978500Y-13766000D01*
X21928500Y-13920000D02*
X22028500Y-14020000D01*
X22028500Y-13920000D02*
X21928500Y-14020000D01*
X21978500Y-14020000D02*
X22028500Y-13970000D01*
X21978500Y-13920000D01*
X21928500Y-13970000D01*
X21978500Y-14020000D01*
X22182500Y-4980000D02*
X22282500Y-5080000D01*
X22282500Y-4980000D02*
X22182500Y-5080000D01*
X22232500Y-5080000D02*
X22282500Y-5030000D01*
X22232500Y-4980000D01*
X22182500Y-5030000D01*
X22232500Y-5080000D01*
X22182500Y-5234000D02*
X22282500Y-5334000D01*
X22282500Y-5234000D02*
X22182500Y-5334000D01*
X22232500Y-5334000D02*
X22282500Y-5284000D01*
X22232500Y-5234000D01*
X22182500Y-5284000D01*
X22232500Y-5334000D01*
X22182500Y-13666000D02*
X22282500Y-13766000D01*
X22282500Y-13666000D02*
X22182500Y-13766000D01*
X22232500Y-13766000D02*
X22282500Y-13716000D01*
X22232500Y-13666000D01*
X22182500Y-13716000D01*
X22232500Y-13766000D01*
X22182500Y-13920000D02*
X22282500Y-14020000D01*
X22282500Y-13920000D02*
X22182500Y-14020000D01*
X22232500Y-14020000D02*
X22282500Y-13970000D01*
X22232500Y-13920000D01*
X22182500Y-13970000D01*
X22232500Y-14020000D01*
X22436500Y-4980000D02*
X22536500Y-5080000D01*
X22536500Y-4980000D02*
X22436500Y-5080000D01*
X22486500Y-5080000D02*
X22536500Y-5030000D01*
X22486500Y-4980000D01*
X22436500Y-5030000D01*
X22486500Y-5080000D01*
X22436500Y-5234000D02*
X22536500Y-5334000D01*
X22536500Y-5234000D02*
X22436500Y-5334000D01*
X22486500Y-5334000D02*
X22536500Y-5284000D01*
X22486500Y-5234000D01*
X22436500Y-5284000D01*
X22486500Y-5334000D01*
X22436500Y-13666000D02*
X22536500Y-13766000D01*
X22536500Y-13666000D02*
X22436500Y-13766000D01*
X22486500Y-13766000D02*
X22536500Y-13716000D01*
X22486500Y-13666000D01*
X22436500Y-13716000D01*
X22486500Y-13766000D01*
X22436500Y-13920000D02*
X22536500Y-14020000D01*
X22536500Y-13920000D02*
X22436500Y-14020000D01*
X22486500Y-14020000D02*
X22536500Y-13970000D01*
X22486500Y-13920000D01*
X22436500Y-13970000D01*
X22486500Y-14020000D01*
X22690500Y-4980000D02*
X22790500Y-5080000D01*
X22790500Y-4980000D02*
X22690500Y-5080000D01*
X22740500Y-5080000D02*
X22790500Y-5030000D01*
X22740500Y-4980000D01*
X22690500Y-5030000D01*
X22740500Y-5080000D01*
X22690500Y-5234000D02*
X22790500Y-5334000D01*
X22790500Y-5234000D02*
X22690500Y-5334000D01*
X22740500Y-5334000D02*
X22790500Y-5284000D01*
X22740500Y-5234000D01*
X22690500Y-5284000D01*
X22740500Y-5334000D01*
X22690500Y-13666000D02*
X22790500Y-13766000D01*
X22790500Y-13666000D02*
X22690500Y-13766000D01*
X22740500Y-13766000D02*
X22790500Y-13716000D01*
X22740500Y-13666000D01*
X22690500Y-13716000D01*
X22740500Y-13766000D01*
X22690500Y-13920000D02*
X22790500Y-14020000D01*
X22790500Y-13920000D02*
X22690500Y-14020000D01*
X22740500Y-14020000D02*
X22790500Y-13970000D01*
X22740500Y-13920000D01*
X22690500Y-13970000D01*
X22740500Y-14020000D01*
X23301750Y-4980000D02*
X23401750Y-5080000D01*
X23401750Y-4980000D02*
X23301750Y-5080000D01*
X23351750Y-5080000D02*
X23401750Y-5030000D01*
X23351750Y-4980000D01*
X23301750Y-5030000D01*
X23351750Y-5080000D01*
X23301750Y-5234000D02*
X23401750Y-5334000D01*
X23401750Y-5234000D02*
X23301750Y-5334000D01*
X23351750Y-5334000D02*
X23401750Y-5284000D01*
X23351750Y-5234000D01*
X23301750Y-5284000D01*
X23351750Y-5334000D01*
X23301750Y-13666000D02*
X23401750Y-13766000D01*
X23401750Y-13666000D02*
X23301750Y-13766000D01*
X23351750Y-13766000D02*
X23401750Y-13716000D01*
X23351750Y-13666000D01*
X23301750Y-13716000D01*
X23351750Y-13766000D01*
X23301750Y-13920000D02*
X23401750Y-14020000D01*
X23401750Y-13920000D02*
X23301750Y-14020000D01*
X23351750Y-14020000D02*
X23401750Y-13970000D01*
X23351750Y-13920000D01*
X23301750Y-13970000D01*
X23351750Y-14020000D01*
X23555750Y-4980000D02*
X23655750Y-5080000D01*
X23655750Y-4980000D02*
X23555750Y-5080000D01*
X23605750Y-5080000D02*
X23655750Y-5030000D01*
X23605750Y-4980000D01*
X23555750Y-5030000D01*
X23605750Y-5080000D01*
X23555750Y-5234000D02*
X23655750Y-5334000D01*
X23655750Y-5234000D02*
X23555750Y-5334000D01*
X23605750Y-5334000D02*
X23655750Y-5284000D01*
X23605750Y-5234000D01*
X23555750Y-5284000D01*
X23605750Y-5334000D01*
X23555750Y-13666000D02*
X23655750Y-13766000D01*
X23655750Y-13666000D02*
X23555750Y-13766000D01*
X23605750Y-13766000D02*
X23655750Y-13716000D01*
X23605750Y-13666000D01*
X23555750Y-13716000D01*
X23605750Y-13766000D01*
X23555750Y-13920000D02*
X23655750Y-14020000D01*
X23655750Y-13920000D02*
X23555750Y-14020000D01*
X23605750Y-14020000D02*
X23655750Y-13970000D01*
X23605750Y-13920000D01*
X23555750Y-13970000D01*
X23605750Y-14020000D01*
X23809750Y-4980000D02*
X23909750Y-5080000D01*
X23909750Y-4980000D02*
X23809750Y-5080000D01*
X23859750Y-5080000D02*
X23909750Y-5030000D01*
X23859750Y-4980000D01*
X23809750Y-5030000D01*
X23859750Y-5080000D01*
X23809750Y-5234000D02*
X23909750Y-5334000D01*
X23909750Y-5234000D02*
X23809750Y-5334000D01*
X23859750Y-5334000D02*
X23909750Y-5284000D01*
X23859750Y-5234000D01*
X23809750Y-5284000D01*
X23859750Y-5334000D01*
X23809750Y-13666000D02*
X23909750Y-13766000D01*
X23909750Y-13666000D02*
X23809750Y-13766000D01*
X23859750Y-13766000D02*
X23909750Y-13716000D01*
X23859750Y-13666000D01*
X23809750Y-13716000D01*
X23859750Y-13766000D01*
X23809750Y-13920000D02*
X23909750Y-14020000D01*
X23909750Y-13920000D02*
X23809750Y-14020000D01*
X23859750Y-14020000D02*
X23909750Y-13970000D01*
X23859750Y-13920000D01*
X23809750Y-13970000D01*
X23859750Y-14020000D01*
X24063750Y-4980000D02*
X24163750Y-5080000D01*
X24163750Y-4980000D02*
X24063750Y-5080000D01*
X24113750Y-5080000D02*
X24163750Y-5030000D01*
X24113750Y-4980000D01*
X24063750Y-5030000D01*
X24113750Y-5080000D01*
X24063750Y-5234000D02*
X24163750Y-5334000D01*
X24163750Y-5234000D02*
X24063750Y-5334000D01*
X24113750Y-5334000D02*
X24163750Y-5284000D01*
X24113750Y-5234000D01*
X24063750Y-5284000D01*
X24113750Y-5334000D01*
X24063750Y-13666000D02*
X24163750Y-13766000D01*
X24163750Y-13666000D02*
X24063750Y-13766000D01*
X24113750Y-13766000D02*
X24163750Y-13716000D01*
X24113750Y-13666000D01*
X24063750Y-13716000D01*
X24113750Y-13766000D01*
X24063750Y-13920000D02*
X24163750Y-14020000D01*
X24163750Y-13920000D02*
X24063750Y-14020000D01*
X24113750Y-14020000D02*
X24163750Y-13970000D01*
X24113750Y-13920000D01*
X24063750Y-13970000D01*
X24113750Y-14020000D01*
X24317750Y-4980000D02*
X24417750Y-5080000D01*
X24417750Y-4980000D02*
X24317750Y-5080000D01*
X24367750Y-5080000D02*
X24417750Y-5030000D01*
X24367750Y-4980000D01*
X24317750Y-5030000D01*
X24367750Y-5080000D01*
X24317750Y-5234000D02*
X24417750Y-5334000D01*
X24417750Y-5234000D02*
X24317750Y-5334000D01*
X24367750Y-5334000D02*
X24417750Y-5284000D01*
X24367750Y-5234000D01*
X24317750Y-5284000D01*
X24367750Y-5334000D01*
X24317750Y-13666000D02*
X24417750Y-13766000D01*
X24417750Y-13666000D02*
X24317750Y-13766000D01*
X24367750Y-13766000D02*
X24417750Y-13716000D01*
X24367750Y-13666000D01*
X24317750Y-13716000D01*
X24367750Y-13766000D01*
X24317750Y-13920000D02*
X24417750Y-14020000D01*
X24417750Y-13920000D02*
X24317750Y-14020000D01*
X24367750Y-14020000D02*
X24417750Y-13970000D01*
X24367750Y-13920000D01*
X24317750Y-13970000D01*
X24367750Y-14020000D01*
X24571750Y-4980000D02*
X24671750Y-5080000D01*
X24671750Y-4980000D02*
X24571750Y-5080000D01*
X24621750Y-5080000D02*
X24671750Y-5030000D01*
X24621750Y-4980000D01*
X24571750Y-5030000D01*
X24621750Y-5080000D01*
X24571750Y-5234000D02*
X24671750Y-5334000D01*
X24671750Y-5234000D02*
X24571750Y-5334000D01*
X24621750Y-5334000D02*
X24671750Y-5284000D01*
X24621750Y-5234000D01*
X24571750Y-5284000D01*
X24621750Y-5334000D01*
X24571750Y-13666000D02*
X24671750Y-13766000D01*
X24671750Y-13666000D02*
X24571750Y-13766000D01*
X24621750Y-13766000D02*
X24671750Y-13716000D01*
X24621750Y-13666000D01*
X24571750Y-13716000D01*
X24621750Y-13766000D01*
X24571750Y-13920000D02*
X24671750Y-14020000D01*
X24671750Y-13920000D02*
X24571750Y-14020000D01*
X24621750Y-14020000D02*
X24671750Y-13970000D01*
X24621750Y-13920000D01*
X24571750Y-13970000D01*
X24621750Y-14020000D01*
X24825750Y-4980000D02*
X24925750Y-5080000D01*
X24925750Y-4980000D02*
X24825750Y-5080000D01*
X24875750Y-5080000D02*
X24925750Y-5030000D01*
X24875750Y-4980000D01*
X24825750Y-5030000D01*
X24875750Y-5080000D01*
X24825750Y-5234000D02*
X24925750Y-5334000D01*
X24925750Y-5234000D02*
X24825750Y-5334000D01*
X24875750Y-5334000D02*
X24925750Y-5284000D01*
X24875750Y-5234000D01*
X24825750Y-5284000D01*
X24875750Y-5334000D01*
X24825750Y-13666000D02*
X24925750Y-13766000D01*
X24925750Y-13666000D02*
X24825750Y-13766000D01*
X24875750Y-13766000D02*
X24925750Y-13716000D01*
X24875750Y-13666000D01*
X24825750Y-13716000D01*
X24875750Y-13766000D01*
X24825750Y-13920000D02*
X24925750Y-14020000D01*
X24925750Y-13920000D02*
X24825750Y-14020000D01*
X24875750Y-14020000D02*
X24925750Y-13970000D01*
X24875750Y-13920000D01*
X24825750Y-13970000D01*
X24875750Y-14020000D01*
X25079750Y-4980000D02*
X25179750Y-5080000D01*
X25179750Y-4980000D02*
X25079750Y-5080000D01*
X25129750Y-5080000D02*
X25179750Y-5030000D01*
X25129750Y-4980000D01*
X25079750Y-5030000D01*
X25129750Y-5080000D01*
X25079750Y-5234000D02*
X25179750Y-5334000D01*
X25179750Y-5234000D02*
X25079750Y-5334000D01*
X25129750Y-5334000D02*
X25179750Y-5284000D01*
X25129750Y-5234000D01*
X25079750Y-5284000D01*
X25129750Y-5334000D01*
X25079750Y-13666000D02*
X25179750Y-13766000D01*
X25179750Y-13666000D02*
X25079750Y-13766000D01*
X25129750Y-13766000D02*
X25179750Y-13716000D01*
X25129750Y-13666000D01*
X25079750Y-13716000D01*
X25129750Y-13766000D01*
X25079750Y-13920000D02*
X25179750Y-14020000D01*
X25179750Y-13920000D02*
X25079750Y-14020000D01*
X25129750Y-14020000D02*
X25179750Y-13970000D01*
X25129750Y-13920000D01*
X25079750Y-13970000D01*
X25129750Y-14020000D01*
X25684000Y-4980000D02*
X25784000Y-5080000D01*
X25784000Y-4980000D02*
X25684000Y-5080000D01*
X25734000Y-5080000D02*
X25784000Y-5030000D01*
X25734000Y-4980000D01*
X25684000Y-5030000D01*
X25734000Y-5080000D01*
X25684000Y-5234000D02*
X25784000Y-5334000D01*
X25784000Y-5234000D02*
X25684000Y-5334000D01*
X25734000Y-5334000D02*
X25784000Y-5284000D01*
X25734000Y-5234000D01*
X25684000Y-5284000D01*
X25734000Y-5334000D01*
X25684000Y-13666000D02*
X25784000Y-13766000D01*
X25784000Y-13666000D02*
X25684000Y-13766000D01*
X25734000Y-13766000D02*
X25784000Y-13716000D01*
X25734000Y-13666000D01*
X25684000Y-13716000D01*
X25734000Y-13766000D01*
X25684000Y-13920000D02*
X25784000Y-14020000D01*
X25784000Y-13920000D02*
X25684000Y-14020000D01*
X25734000Y-14020000D02*
X25784000Y-13970000D01*
X25734000Y-13920000D01*
X25684000Y-13970000D01*
X25734000Y-14020000D01*
X25938000Y-4980000D02*
X26038000Y-5080000D01*
X26038000Y-4980000D02*
X25938000Y-5080000D01*
X25988000Y-5080000D02*
X26038000Y-5030000D01*
X25988000Y-4980000D01*
X25938000Y-5030000D01*
X25988000Y-5080000D01*
X25938000Y-5234000D02*
X26038000Y-5334000D01*
X26038000Y-5234000D02*
X25938000Y-5334000D01*
X25988000Y-5334000D02*
X26038000Y-5284000D01*
X25988000Y-5234000D01*
X25938000Y-5284000D01*
X25988000Y-5334000D01*
X25938000Y-13666000D02*
X26038000Y-13766000D01*
X26038000Y-13666000D02*
X25938000Y-13766000D01*
X25988000Y-13766000D02*
X26038000Y-13716000D01*
X25988000Y-13666000D01*
X25938000Y-13716000D01*
X25988000Y-13766000D01*
X25938000Y-13920000D02*
X26038000Y-14020000D01*
X26038000Y-13920000D02*
X25938000Y-14020000D01*
X25988000Y-14020000D02*
X26038000Y-13970000D01*
X25988000Y-13920000D01*
X25938000Y-13970000D01*
X25988000Y-14020000D01*
X26192000Y-4980000D02*
X26292000Y-5080000D01*
X26292000Y-4980000D02*
X26192000Y-5080000D01*
X26242000Y-5080000D02*
X26292000Y-5030000D01*
X26242000Y-4980000D01*
X26192000Y-5030000D01*
X26242000Y-5080000D01*
X26192000Y-5234000D02*
X26292000Y-5334000D01*
X26292000Y-5234000D02*
X26192000Y-5334000D01*
X26242000Y-5334000D02*
X26292000Y-5284000D01*
X26242000Y-5234000D01*
X26192000Y-5284000D01*
X26242000Y-5334000D01*
X26192000Y-13666000D02*
X26292000Y-13766000D01*
X26292000Y-13666000D02*
X26192000Y-13766000D01*
X26242000Y-13766000D02*
X26292000Y-13716000D01*
X26242000Y-13666000D01*
X26192000Y-13716000D01*
X26242000Y-13766000D01*
X26192000Y-13920000D02*
X26292000Y-14020000D01*
X26292000Y-13920000D02*
X26192000Y-14020000D01*
X26242000Y-14020000D02*
X26292000Y-13970000D01*
X26242000Y-13920000D01*
X26192000Y-13970000D01*
X26242000Y-14020000D01*
X26446000Y-4980000D02*
X26546000Y-5080000D01*
X26546000Y-4980000D02*
X26446000Y-5080000D01*
X26496000Y-5080000D02*
X26546000Y-5030000D01*
X26496000Y-4980000D01*
X26446000Y-5030000D01*
X26496000Y-5080000D01*
X26446000Y-5234000D02*
X26546000Y-5334000D01*
X26546000Y-5234000D02*
X26446000Y-5334000D01*
X26496000Y-5334000D02*
X26546000Y-5284000D01*
X26496000Y-5234000D01*
X26446000Y-5284000D01*
X26496000Y-5334000D01*
X26446000Y-13666000D02*
X26546000Y-13766000D01*
X26546000Y-13666000D02*
X26446000Y-13766000D01*
X26496000Y-13766000D02*
X26546000Y-13716000D01*
X26496000Y-13666000D01*
X26446000Y-13716000D01*
X26496000Y-13766000D01*
X26446000Y-13920000D02*
X26546000Y-14020000D01*
X26546000Y-13920000D02*
X26446000Y-14020000D01*
X26496000Y-14020000D02*
X26546000Y-13970000D01*
X26496000Y-13920000D01*
X26446000Y-13970000D01*
X26496000Y-14020000D01*
X26700000Y-4980000D02*
X26800000Y-5080000D01*
X26800000Y-4980000D02*
X26700000Y-5080000D01*
X26750000Y-5080000D02*
X26800000Y-5030000D01*
X26750000Y-4980000D01*
X26700000Y-5030000D01*
X26750000Y-5080000D01*
X26700000Y-5234000D02*
X26800000Y-5334000D01*
X26800000Y-5234000D02*
X26700000Y-5334000D01*
X26750000Y-5334000D02*
X26800000Y-5284000D01*
X26750000Y-5234000D01*
X26700000Y-5284000D01*
X26750000Y-5334000D01*
X26700000Y-13666000D02*
X26800000Y-13766000D01*
X26800000Y-13666000D02*
X26700000Y-13766000D01*
X26750000Y-13766000D02*
X26800000Y-13716000D01*
X26750000Y-13666000D01*
X26700000Y-13716000D01*
X26750000Y-13766000D01*
X26700000Y-13920000D02*
X26800000Y-14020000D01*
X26800000Y-13920000D02*
X26700000Y-14020000D01*
X26750000Y-14020000D02*
X26800000Y-13970000D01*
X26750000Y-13920000D01*
X26700000Y-13970000D01*
X26750000Y-14020000D01*
X26954000Y-4980000D02*
X27054000Y-5080000D01*
X27054000Y-4980000D02*
X26954000Y-5080000D01*
X27004000Y-5080000D02*
X27054000Y-5030000D01*
X27004000Y-4980000D01*
X26954000Y-5030000D01*
X27004000Y-5080000D01*
X26954000Y-5234000D02*
X27054000Y-5334000D01*
X27054000Y-5234000D02*
X26954000Y-5334000D01*
X27004000Y-5334000D02*
X27054000Y-5284000D01*
X27004000Y-5234000D01*
X26954000Y-5284000D01*
X27004000Y-5334000D01*
X26954000Y-13666000D02*
X27054000Y-13766000D01*
X27054000Y-13666000D02*
X26954000Y-13766000D01*
X27004000Y-13766000D02*
X27054000Y-13716000D01*
X27004000Y-13666000D01*
X26954000Y-13716000D01*
X27004000Y-13766000D01*
X26954000Y-13920000D02*
X27054000Y-14020000D01*
X27054000Y-13920000D02*
X26954000Y-14020000D01*
X27004000Y-14020000D02*
X27054000Y-13970000D01*
X27004000Y-13920000D01*
X26954000Y-13970000D01*
X27004000Y-14020000D01*
X27208000Y-4980000D02*
X27308000Y-5080000D01*
X27308000Y-4980000D02*
X27208000Y-5080000D01*
X27258000Y-5080000D02*
X27308000Y-5030000D01*
X27258000Y-4980000D01*
X27208000Y-5030000D01*
X27258000Y-5080000D01*
X27208000Y-5234000D02*
X27308000Y-5334000D01*
X27308000Y-5234000D02*
X27208000Y-5334000D01*
X27258000Y-5334000D02*
X27308000Y-5284000D01*
X27258000Y-5234000D01*
X27208000Y-5284000D01*
X27258000Y-5334000D01*
X27208000Y-13666000D02*
X27308000Y-13766000D01*
X27308000Y-13666000D02*
X27208000Y-13766000D01*
X27258000Y-13766000D02*
X27308000Y-13716000D01*
X27258000Y-13666000D01*
X27208000Y-13716000D01*
X27258000Y-13766000D01*
X27208000Y-13920000D02*
X27308000Y-14020000D01*
X27308000Y-13920000D02*
X27208000Y-14020000D01*
X27258000Y-14020000D02*
X27308000Y-13970000D01*
X27258000Y-13920000D01*
X27208000Y-13970000D01*
X27258000Y-14020000D01*
X27462000Y-4980000D02*
X27562000Y-5080000D01*
X27562000Y-4980000D02*
X27462000Y-5080000D01*
X27512000Y-5080000D02*
X27562000Y-5030000D01*
X27512000Y-4980000D01*
X27462000Y-5030000D01*
X27512000Y-5080000D01*
X27462000Y-5234000D02*
X27562000Y-5334000D01*
X27562000Y-5234000D02*
X27462000Y-5334000D01*
X27512000Y-5334000D02*
X27562000Y-5284000D01*
X27512000Y-5234000D01*
X27462000Y-5284000D01*
X27512000Y-5334000D01*
X27462000Y-13666000D02*
X27562000Y-13766000D01*
X27562000Y-13666000D02*
X27462000Y-13766000D01*
X27512000Y-13766000D02*
X27562000Y-13716000D01*
X27512000Y-13666000D01*
X27462000Y-13716000D01*
X27512000Y-13766000D01*
X27462000Y-13920000D02*
X27562000Y-14020000D01*
X27562000Y-13920000D02*
X27462000Y-14020000D01*
X27512000Y-14020000D02*
X27562000Y-13970000D01*
X27512000Y-13920000D01*
X27462000Y-13970000D01*
X27512000Y-14020000D01*
X28062500Y-4980000D02*
X28162500Y-5080000D01*
X28162500Y-4980000D02*
X28062500Y-5080000D01*
X28112500Y-5080000D02*
X28162500Y-5030000D01*
X28112500Y-4980000D01*
X28062500Y-5030000D01*
X28112500Y-5080000D01*
X28062500Y-5234000D02*
X28162500Y-5334000D01*
X28162500Y-5234000D02*
X28062500Y-5334000D01*
X28112500Y-5334000D02*
X28162500Y-5284000D01*
X28112500Y-5234000D01*
X28062500Y-5284000D01*
X28112500Y-5334000D01*
X28062500Y-13666000D02*
X28162500Y-13766000D01*
X28162500Y-13666000D02*
X28062500Y-13766000D01*
X28112500Y-13766000D02*
X28162500Y-13716000D01*
X28112500Y-13666000D01*
X28062500Y-13716000D01*
X28112500Y-13766000D01*
X28062500Y-13920000D02*
X28162500Y-14020000D01*
X28162500Y-13920000D02*
X28062500Y-14020000D01*
X28112500Y-14020000D02*
X28162500Y-13970000D01*
X28112500Y-13920000D01*
X28062500Y-13970000D01*
X28112500Y-14020000D01*
X28316500Y-4980000D02*
X28416500Y-5080000D01*
X28416500Y-4980000D02*
X28316500Y-5080000D01*
X28366500Y-5080000D02*
X28416500Y-5030000D01*
X28366500Y-4980000D01*
X28316500Y-5030000D01*
X28366500Y-5080000D01*
X28316500Y-5234000D02*
X28416500Y-5334000D01*
X28416500Y-5234000D02*
X28316500Y-5334000D01*
X28366500Y-5334000D02*
X28416500Y-5284000D01*
X28366500Y-5234000D01*
X28316500Y-5284000D01*
X28366500Y-5334000D01*
X28316500Y-13666000D02*
X28416500Y-13766000D01*
X28416500Y-13666000D02*
X28316500Y-13766000D01*
X28366500Y-13766000D02*
X28416500Y-13716000D01*
X28366500Y-13666000D01*
X28316500Y-13716000D01*
X28366500Y-13766000D01*
X28316500Y-13920000D02*
X28416500Y-14020000D01*
X28416500Y-13920000D02*
X28316500Y-14020000D01*
X28366500Y-14020000D02*
X28416500Y-13970000D01*
X28366500Y-13920000D01*
X28316500Y-13970000D01*
X28366500Y-14020000D01*
X28570500Y-4980000D02*
X28670500Y-5080000D01*
X28670500Y-4980000D02*
X28570500Y-5080000D01*
X28620500Y-5080000D02*
X28670500Y-5030000D01*
X28620500Y-4980000D01*
X28570500Y-5030000D01*
X28620500Y-5080000D01*
X28570500Y-5234000D02*
X28670500Y-5334000D01*
X28670500Y-5234000D02*
X28570500Y-5334000D01*
X28620500Y-5334000D02*
X28670500Y-5284000D01*
X28620500Y-5234000D01*
X28570500Y-5284000D01*
X28620500Y-5334000D01*
X28570500Y-13666000D02*
X28670500Y-13766000D01*
X28670500Y-13666000D02*
X28570500Y-13766000D01*
X28620500Y-13766000D02*
X28670500Y-13716000D01*
X28620500Y-13666000D01*
X28570500Y-13716000D01*
X28620500Y-13766000D01*
X28570500Y-13920000D02*
X28670500Y-14020000D01*
X28670500Y-13920000D02*
X28570500Y-14020000D01*
X28620500Y-14020000D02*
X28670500Y-13970000D01*
X28620500Y-13920000D01*
X28570500Y-13970000D01*
X28620500Y-14020000D01*
X28824500Y-4980000D02*
X28924500Y-5080000D01*
X28924500Y-4980000D02*
X28824500Y-5080000D01*
X28874500Y-5080000D02*
X28924500Y-5030000D01*
X28874500Y-4980000D01*
X28824500Y-5030000D01*
X28874500Y-5080000D01*
X28824500Y-5234000D02*
X28924500Y-5334000D01*
X28924500Y-5234000D02*
X28824500Y-5334000D01*
X28874500Y-5334000D02*
X28924500Y-5284000D01*
X28874500Y-5234000D01*
X28824500Y-5284000D01*
X28874500Y-5334000D01*
X28824500Y-13666000D02*
X28924500Y-13766000D01*
X28924500Y-13666000D02*
X28824500Y-13766000D01*
X28874500Y-13766000D02*
X28924500Y-13716000D01*
X28874500Y-13666000D01*
X28824500Y-13716000D01*
X28874500Y-13766000D01*
X28824500Y-13920000D02*
X28924500Y-14020000D01*
X28924500Y-13920000D02*
X28824500Y-14020000D01*
X28874500Y-14020000D02*
X28924500Y-13970000D01*
X28874500Y-13920000D01*
X28824500Y-13970000D01*
X28874500Y-14020000D01*
X29078500Y-4980000D02*
X29178500Y-5080000D01*
X29178500Y-4980000D02*
X29078500Y-5080000D01*
X29128500Y-5080000D02*
X29178500Y-5030000D01*
X29128500Y-4980000D01*
X29078500Y-5030000D01*
X29128500Y-5080000D01*
X29078500Y-5234000D02*
X29178500Y-5334000D01*
X29178500Y-5234000D02*
X29078500Y-5334000D01*
X29128500Y-5334000D02*
X29178500Y-5284000D01*
X29128500Y-5234000D01*
X29078500Y-5284000D01*
X29128500Y-5334000D01*
X29078500Y-13666000D02*
X29178500Y-13766000D01*
X29178500Y-13666000D02*
X29078500Y-13766000D01*
X29128500Y-13766000D02*
X29178500Y-13716000D01*
X29128500Y-13666000D01*
X29078500Y-13716000D01*
X29128500Y-13766000D01*
X29078500Y-13920000D02*
X29178500Y-14020000D01*
X29178500Y-13920000D02*
X29078500Y-14020000D01*
X29128500Y-14020000D02*
X29178500Y-13970000D01*
X29128500Y-13920000D01*
X29078500Y-13970000D01*
X29128500Y-14020000D01*
X29332500Y-4980000D02*
X29432500Y-5080000D01*
X29432500Y-4980000D02*
X29332500Y-5080000D01*
X29382500Y-5080000D02*
X29432500Y-5030000D01*
X29382500Y-4980000D01*
X29332500Y-5030000D01*
X29382500Y-5080000D01*
X29332500Y-5234000D02*
X29432500Y-5334000D01*
X29432500Y-5234000D02*
X29332500Y-5334000D01*
X29382500Y-5334000D02*
X29432500Y-5284000D01*
X29382500Y-5234000D01*
X29332500Y-5284000D01*
X29382500Y-5334000D01*
X29332500Y-13666000D02*
X29432500Y-13766000D01*
X29432500Y-13666000D02*
X29332500Y-13766000D01*
X29382500Y-13766000D02*
X29432500Y-13716000D01*
X29382500Y-13666000D01*
X29332500Y-13716000D01*
X29382500Y-13766000D01*
X29332500Y-13920000D02*
X29432500Y-14020000D01*
X29432500Y-13920000D02*
X29332500Y-14020000D01*
X29382500Y-14020000D02*
X29432500Y-13970000D01*
X29382500Y-13920000D01*
X29332500Y-13970000D01*
X29382500Y-14020000D01*
X29586500Y-4980000D02*
X29686500Y-5080000D01*
X29686500Y-4980000D02*
X29586500Y-5080000D01*
X29636500Y-5080000D02*
X29686500Y-5030000D01*
X29636500Y-4980000D01*
X29586500Y-5030000D01*
X29636500Y-5080000D01*
X29586500Y-5234000D02*
X29686500Y-5334000D01*
X29686500Y-5234000D02*
X29586500Y-5334000D01*
X29636500Y-5334000D02*
X29686500Y-5284000D01*
X29636500Y-5234000D01*
X29586500Y-5284000D01*
X29636500Y-5334000D01*
X29586500Y-13666000D02*
X29686500Y-13766000D01*
X29686500Y-13666000D02*
X29586500Y-13766000D01*
X29636500Y-13766000D02*
X29686500Y-13716000D01*
X29636500Y-13666000D01*
X29586500Y-13716000D01*
X29636500Y-13766000D01*
X29586500Y-13920000D02*
X29686500Y-14020000D01*
X29686500Y-13920000D02*
X29586500Y-14020000D01*
X29636500Y-14020000D02*
X29686500Y-13970000D01*
X29636500Y-13920000D01*
X29586500Y-13970000D01*
X29636500Y-14020000D01*
X29840500Y-4980000D02*
X29940500Y-5080000D01*
X29940500Y-4980000D02*
X29840500Y-5080000D01*
X29890500Y-5080000D02*
X29940500Y-5030000D01*
X29890500Y-4980000D01*
X29840500Y-5030000D01*
X29890500Y-5080000D01*
X29840500Y-5234000D02*
X29940500Y-5334000D01*
X29940500Y-5234000D02*
X29840500Y-5334000D01*
X29890500Y-5334000D02*
X29940500Y-5284000D01*
X29890500Y-5234000D01*
X29840500Y-5284000D01*
X29890500Y-5334000D01*
X29840500Y-13666000D02*
X29940500Y-13766000D01*
X29940500Y-13666000D02*
X29840500Y-13766000D01*
X29890500Y-13766000D02*
X29940500Y-13716000D01*
X29890500Y-13666000D01*
X29840500Y-13716000D01*
X29890500Y-13766000D01*
X29840500Y-13920000D02*
X29940500Y-14020000D01*
X29940500Y-13920000D02*
X29840500Y-14020000D01*
X29890500Y-14020000D02*
X29940500Y-13970000D01*
X29890500Y-13920000D01*
X29840500Y-13970000D01*
X29890500Y-14020000D01*
X29909000Y-6550000D02*
X30009000Y-6650000D01*
X30009000Y-6550000D02*
X29909000Y-6650000D01*
X29959000Y-6650000D02*
X30009000Y-6600000D01*
X29959000Y-6550000D01*
X29909000Y-6600000D01*
X29959000Y-6650000D01*
X29909000Y-6804000D02*
X30009000Y-6904000D01*
X30009000Y-6804000D02*
X29909000Y-6904000D01*
X29959000Y-6904000D02*
X30009000Y-6854000D01*
X29959000Y-6804000D01*
X29909000Y-6854000D01*
X29959000Y-6904000D01*
X29909000Y-7058000D02*
X30009000Y-7158000D01*
X30009000Y-7058000D02*
X29909000Y-7158000D01*
X29959000Y-7158000D02*
X30009000Y-7108000D01*
X29959000Y-7058000D01*
X29909000Y-7108000D01*
X29959000Y-7158000D01*
X30159000Y-12121500D02*
X30259000Y-12221500D01*
X30259000Y-12121500D02*
X30159000Y-12221500D01*
X30209000Y-12221500D02*
X30259000Y-12171500D01*
X30209000Y-12121500D01*
X30159000Y-12171500D01*
X30209000Y-12221500D01*
X30159000Y-12375500D02*
X30259000Y-12475500D01*
X30259000Y-12375500D02*
X30159000Y-12475500D01*
X30209000Y-12475500D02*
X30259000Y-12425500D01*
X30209000Y-12375500D01*
X30159000Y-12425500D01*
X30209000Y-12475500D01*
X30163000Y-6550000D02*
X30263000Y-6650000D01*
X30263000Y-6550000D02*
X30163000Y-6650000D01*
X30213000Y-6650000D02*
X30263000Y-6600000D01*
X30213000Y-6550000D01*
X30163000Y-6600000D01*
X30213000Y-6650000D01*
X30163000Y-6804000D02*
X30263000Y-6904000D01*
X30263000Y-6804000D02*
X30163000Y-6904000D01*
X30213000Y-6904000D02*
X30263000Y-6854000D01*
X30213000Y-6804000D01*
X30163000Y-6854000D01*
X30213000Y-6904000D01*
X30163000Y-7058000D02*
X30263000Y-7158000D01*
X30263000Y-7058000D02*
X30163000Y-7158000D01*
X30213000Y-7158000D02*
X30263000Y-7108000D01*
X30213000Y-7058000D01*
X30163000Y-7108000D01*
X30213000Y-7158000D01*
X30413000Y-12121500D02*
X30513000Y-12221500D01*
X30513000Y-12121500D02*
X30413000Y-12221500D01*
X30463000Y-12221500D02*
X30513000Y-12171500D01*
X30463000Y-12121500D01*
X30413000Y-12171500D01*
X30463000Y-12221500D01*
X30413000Y-12375500D02*
X30513000Y-12475500D01*
X30513000Y-12375500D02*
X30413000Y-12475500D01*
X30463000Y-12475500D02*
X30513000Y-12425500D01*
X30463000Y-12375500D01*
X30413000Y-12425500D01*
X30463000Y-12475500D01*
D20*
X21422000Y-7278204D02*
X21422000Y-7398204D01*
X21362000Y-7338204D02*
X21482000Y-7338204D01*
X21482000Y-7338204D02*
G75*
G03*
X21482000Y-7338204I-60000J0D01*
G01*
X21422000Y-9010255D02*
X21422000Y-9130255D01*
X21362000Y-9070255D02*
X21482000Y-9070255D01*
X21482000Y-9070255D02*
G75*
G03*
X21482000Y-9070255I-60000J0D01*
G01*
X21422000Y-10741498D02*
X21422000Y-10861498D01*
X21362000Y-10801498D02*
X21482000Y-10801498D01*
X21482000Y-10801498D02*
G75*
G03*
X21482000Y-10801498I-60000J0D01*
G01*
X21422000Y-12473548D02*
X21422000Y-12593548D01*
X21362000Y-12533548D02*
X21482000Y-12533548D01*
X21482000Y-12533548D02*
G75*
G03*
X21482000Y-12533548I-60000J0D01*
G01*
X21922000Y-6412179D02*
X21922000Y-6532179D01*
X21862000Y-6472179D02*
X21982000Y-6472179D01*
X21982000Y-6472179D02*
G75*
G03*
X21982000Y-6472179I-60000J0D01*
G01*
X21922000Y-7278204D02*
X21922000Y-7398204D01*
X21862000Y-7338204D02*
X21982000Y-7338204D01*
X21982000Y-7338204D02*
G75*
G03*
X21982000Y-7338204I-60000J0D01*
G01*
X21922000Y-8144229D02*
X21922000Y-8264229D01*
X21862000Y-8204229D02*
X21982000Y-8204229D01*
X21982000Y-8204229D02*
G75*
G03*
X21982000Y-8204229I-60000J0D01*
G01*
X21922000Y-9010255D02*
X21922000Y-9130255D01*
X21862000Y-9070255D02*
X21982000Y-9070255D01*
X21982000Y-9070255D02*
G75*
G03*
X21982000Y-9070255I-60000J0D01*
G01*
X21922000Y-9875472D02*
X21922000Y-9995472D01*
X21862000Y-9935472D02*
X21982000Y-9935472D01*
X21982000Y-9935472D02*
G75*
G03*
X21982000Y-9935472I-60000J0D01*
G01*
X21922000Y-10741498D02*
X21922000Y-10861498D01*
X21862000Y-10801498D02*
X21982000Y-10801498D01*
X21982000Y-10801498D02*
G75*
G03*
X21982000Y-10801498I-60000J0D01*
G01*
X21922000Y-11607523D02*
X21922000Y-11727523D01*
X21862000Y-11667523D02*
X21982000Y-11667523D01*
X21982000Y-11667523D02*
G75*
G03*
X21982000Y-11667523I-60000J0D01*
G01*
X21922000Y-12473548D02*
X21922000Y-12593548D01*
X21862000Y-12533548D02*
X21982000Y-12533548D01*
X21982000Y-12533548D02*
G75*
G03*
X21982000Y-12533548I-60000J0D01*
G01*
X22422000Y-6412179D02*
X22422000Y-6532179D01*
X22362000Y-6472179D02*
X22482000Y-6472179D01*
X22482000Y-6472179D02*
G75*
G03*
X22482000Y-6472179I-60000J0D01*
G01*
X22422000Y-7278204D02*
X22422000Y-7398204D01*
X22362000Y-7338204D02*
X22482000Y-7338204D01*
X22482000Y-7338204D02*
G75*
G03*
X22482000Y-7338204I-60000J0D01*
G01*
X22422000Y-8144229D02*
X22422000Y-8264229D01*
X22362000Y-8204229D02*
X22482000Y-8204229D01*
X22482000Y-8204229D02*
G75*
G03*
X22482000Y-8204229I-60000J0D01*
G01*
X22422000Y-9010255D02*
X22422000Y-9130255D01*
X22362000Y-9070255D02*
X22482000Y-9070255D01*
X22482000Y-9070255D02*
G75*
G03*
X22482000Y-9070255I-60000J0D01*
G01*
X22422000Y-9875472D02*
X22422000Y-9995472D01*
X22362000Y-9935472D02*
X22482000Y-9935472D01*
X22482000Y-9935472D02*
G75*
G03*
X22482000Y-9935472I-60000J0D01*
G01*
X22422000Y-10741498D02*
X22422000Y-10861498D01*
X22362000Y-10801498D02*
X22482000Y-10801498D01*
X22482000Y-10801498D02*
G75*
G03*
X22482000Y-10801498I-60000J0D01*
G01*
X22422000Y-11607523D02*
X22422000Y-11727523D01*
X22362000Y-11667523D02*
X22482000Y-11667523D01*
X22482000Y-11667523D02*
G75*
G03*
X22482000Y-11667523I-60000J0D01*
G01*
X22422000Y-12473548D02*
X22422000Y-12593548D01*
X22362000Y-12533548D02*
X22482000Y-12533548D01*
X22482000Y-12533548D02*
G75*
G03*
X22482000Y-12533548I-60000J0D01*
G01*
X22922000Y-6412179D02*
X22922000Y-6532179D01*
X22862000Y-6472179D02*
X22982000Y-6472179D01*
X22982000Y-6472179D02*
G75*
G03*
X22982000Y-6472179I-60000J0D01*
G01*
X22922000Y-7278204D02*
X22922000Y-7398204D01*
X22862000Y-7338204D02*
X22982000Y-7338204D01*
X22982000Y-7338204D02*
G75*
G03*
X22982000Y-7338204I-60000J0D01*
G01*
X22922000Y-8144229D02*
X22922000Y-8264229D01*
X22862000Y-8204229D02*
X22982000Y-8204229D01*
X22982000Y-8204229D02*
G75*
G03*
X22982000Y-8204229I-60000J0D01*
G01*
X22922000Y-9010255D02*
X22922000Y-9130255D01*
X22862000Y-9070255D02*
X22982000Y-9070255D01*
X22982000Y-9070255D02*
G75*
G03*
X22982000Y-9070255I-60000J0D01*
G01*
X22922000Y-9875472D02*
X22922000Y-9995472D01*
X22862000Y-9935472D02*
X22982000Y-9935472D01*
X22982000Y-9935472D02*
G75*
G03*
X22982000Y-9935472I-60000J0D01*
G01*
X22922000Y-10741498D02*
X22922000Y-10861498D01*
X22862000Y-10801498D02*
X22982000Y-10801498D01*
X22982000Y-10801498D02*
G75*
G03*
X22982000Y-10801498I-60000J0D01*
G01*
X22922000Y-11607523D02*
X22922000Y-11727523D01*
X22862000Y-11667523D02*
X22982000Y-11667523D01*
X22982000Y-11667523D02*
G75*
G03*
X22982000Y-11667523I-60000J0D01*
G01*
X22922000Y-12473548D02*
X22922000Y-12593548D01*
X22862000Y-12533548D02*
X22982000Y-12533548D01*
X22982000Y-12533548D02*
G75*
G03*
X22982000Y-12533548I-60000J0D01*
G01*
X23422000Y-6412179D02*
X23422000Y-6532179D01*
X23362000Y-6472179D02*
X23482000Y-6472179D01*
X23482000Y-6472179D02*
G75*
G03*
X23482000Y-6472179I-60000J0D01*
G01*
X23422000Y-7278204D02*
X23422000Y-7398204D01*
X23362000Y-7338204D02*
X23482000Y-7338204D01*
X23482000Y-7338204D02*
G75*
G03*
X23482000Y-7338204I-60000J0D01*
G01*
X23422000Y-8144229D02*
X23422000Y-8264229D01*
X23362000Y-8204229D02*
X23482000Y-8204229D01*
X23482000Y-8204229D02*
G75*
G03*
X23482000Y-8204229I-60000J0D01*
G01*
X23422000Y-9010255D02*
X23422000Y-9130255D01*
X23362000Y-9070255D02*
X23482000Y-9070255D01*
X23482000Y-9070255D02*
G75*
G03*
X23482000Y-9070255I-60000J0D01*
G01*
X23422000Y-9875472D02*
X23422000Y-9995472D01*
X23362000Y-9935472D02*
X23482000Y-9935472D01*
X23482000Y-9935472D02*
G75*
G03*
X23482000Y-9935472I-60000J0D01*
G01*
X23422000Y-10741498D02*
X23422000Y-10861498D01*
X23362000Y-10801498D02*
X23482000Y-10801498D01*
X23482000Y-10801498D02*
G75*
G03*
X23482000Y-10801498I-60000J0D01*
G01*
X23422000Y-11607523D02*
X23422000Y-11727523D01*
X23362000Y-11667523D02*
X23482000Y-11667523D01*
X23482000Y-11667523D02*
G75*
G03*
X23482000Y-11667523I-60000J0D01*
G01*
X23422000Y-12473548D02*
X23422000Y-12593548D01*
X23362000Y-12533548D02*
X23482000Y-12533548D01*
X23482000Y-12533548D02*
G75*
G03*
X23482000Y-12533548I-60000J0D01*
G01*
X23922000Y-6412179D02*
X23922000Y-6532179D01*
X23862000Y-6472179D02*
X23982000Y-6472179D01*
X23982000Y-6472179D02*
G75*
G03*
X23982000Y-6472179I-60000J0D01*
G01*
X23922000Y-7278204D02*
X23922000Y-7398204D01*
X23862000Y-7338204D02*
X23982000Y-7338204D01*
X23982000Y-7338204D02*
G75*
G03*
X23982000Y-7338204I-60000J0D01*
G01*
X23922000Y-8144229D02*
X23922000Y-8264229D01*
X23862000Y-8204229D02*
X23982000Y-8204229D01*
X23982000Y-8204229D02*
G75*
G03*
X23982000Y-8204229I-60000J0D01*
G01*
X23922000Y-9010255D02*
X23922000Y-9130255D01*
X23862000Y-9070255D02*
X23982000Y-9070255D01*
X23982000Y-9070255D02*
G75*
G03*
X23982000Y-9070255I-60000J0D01*
G01*
X23922000Y-9875472D02*
X23922000Y-9995472D01*
X23862000Y-9935472D02*
X23982000Y-9935472D01*
X23982000Y-9935472D02*
G75*
G03*
X23982000Y-9935472I-60000J0D01*
G01*
X23922000Y-10741498D02*
X23922000Y-10861498D01*
X23862000Y-10801498D02*
X23982000Y-10801498D01*
X23982000Y-10801498D02*
G75*
G03*
X23982000Y-10801498I-60000J0D01*
G01*
X23922000Y-11607523D02*
X23922000Y-11727523D01*
X23862000Y-11667523D02*
X23982000Y-11667523D01*
X23982000Y-11667523D02*
G75*
G03*
X23982000Y-11667523I-60000J0D01*
G01*
X23922000Y-12473548D02*
X23922000Y-12593548D01*
X23862000Y-12533548D02*
X23982000Y-12533548D01*
X23982000Y-12533548D02*
G75*
G03*
X23982000Y-12533548I-60000J0D01*
G01*
X24422000Y-6412179D02*
X24422000Y-6532179D01*
X24362000Y-6472179D02*
X24482000Y-6472179D01*
X24482000Y-6472179D02*
G75*
G03*
X24482000Y-6472179I-60000J0D01*
G01*
X24422000Y-7278204D02*
X24422000Y-7398204D01*
X24362000Y-7338204D02*
X24482000Y-7338204D01*
X24482000Y-7338204D02*
G75*
G03*
X24482000Y-7338204I-60000J0D01*
G01*
X24422000Y-8144229D02*
X24422000Y-8264229D01*
X24362000Y-8204229D02*
X24482000Y-8204229D01*
X24482000Y-8204229D02*
G75*
G03*
X24482000Y-8204229I-60000J0D01*
G01*
X24422000Y-9010255D02*
X24422000Y-9130255D01*
X24362000Y-9070255D02*
X24482000Y-9070255D01*
X24482000Y-9070255D02*
G75*
G03*
X24482000Y-9070255I-60000J0D01*
G01*
X24422000Y-9875472D02*
X24422000Y-9995472D01*
X24362000Y-9935472D02*
X24482000Y-9935472D01*
X24482000Y-9935472D02*
G75*
G03*
X24482000Y-9935472I-60000J0D01*
G01*
X24422000Y-10741498D02*
X24422000Y-10861498D01*
X24362000Y-10801498D02*
X24482000Y-10801498D01*
X24482000Y-10801498D02*
G75*
G03*
X24482000Y-10801498I-60000J0D01*
G01*
X24422000Y-11607523D02*
X24422000Y-11727523D01*
X24362000Y-11667523D02*
X24482000Y-11667523D01*
X24482000Y-11667523D02*
G75*
G03*
X24482000Y-11667523I-60000J0D01*
G01*
X24422000Y-12473548D02*
X24422000Y-12593548D01*
X24362000Y-12533548D02*
X24482000Y-12533548D01*
X24482000Y-12533548D02*
G75*
G03*
X24482000Y-12533548I-60000J0D01*
G01*
X24922000Y-6412179D02*
X24922000Y-6532179D01*
X24862000Y-6472179D02*
X24982000Y-6472179D01*
X24982000Y-6472179D02*
G75*
G03*
X24982000Y-6472179I-60000J0D01*
G01*
X24922000Y-7278204D02*
X24922000Y-7398204D01*
X24862000Y-7338204D02*
X24982000Y-7338204D01*
X24982000Y-7338204D02*
G75*
G03*
X24982000Y-7338204I-60000J0D01*
G01*
X24922000Y-8144229D02*
X24922000Y-8264229D01*
X24862000Y-8204229D02*
X24982000Y-8204229D01*
X24982000Y-8204229D02*
G75*
G03*
X24982000Y-8204229I-60000J0D01*
G01*
X24922000Y-9010255D02*
X24922000Y-9130255D01*
X24862000Y-9070255D02*
X24982000Y-9070255D01*
X24982000Y-9070255D02*
G75*
G03*
X24982000Y-9070255I-60000J0D01*
G01*
X24922000Y-9875472D02*
X24922000Y-9995472D01*
X24862000Y-9935472D02*
X24982000Y-9935472D01*
X24982000Y-9935472D02*
G75*
G03*
X24982000Y-9935472I-60000J0D01*
G01*
X24922000Y-10741498D02*
X24922000Y-10861498D01*
X24862000Y-10801498D02*
X24982000Y-10801498D01*
X24982000Y-10801498D02*
G75*
G03*
X24982000Y-10801498I-60000J0D01*
G01*
X24922000Y-11607523D02*
X24922000Y-11727523D01*
X24862000Y-11667523D02*
X24982000Y-11667523D01*
X24982000Y-11667523D02*
G75*
G03*
X24982000Y-11667523I-60000J0D01*
G01*
X24922000Y-12473548D02*
X24922000Y-12593548D01*
X24862000Y-12533548D02*
X24982000Y-12533548D01*
X24982000Y-12533548D02*
G75*
G03*
X24982000Y-12533548I-60000J0D01*
G01*
X25422000Y-6412179D02*
X25422000Y-6532179D01*
X25362000Y-6472179D02*
X25482000Y-6472179D01*
X25482000Y-6472179D02*
G75*
G03*
X25482000Y-6472179I-60000J0D01*
G01*
X25422000Y-7278204D02*
X25422000Y-7398204D01*
X25362000Y-7338204D02*
X25482000Y-7338204D01*
X25482000Y-7338204D02*
G75*
G03*
X25482000Y-7338204I-60000J0D01*
G01*
X25422000Y-8144229D02*
X25422000Y-8264229D01*
X25362000Y-8204229D02*
X25482000Y-8204229D01*
X25482000Y-8204229D02*
G75*
G03*
X25482000Y-8204229I-60000J0D01*
G01*
X25422000Y-9010255D02*
X25422000Y-9130255D01*
X25362000Y-9070255D02*
X25482000Y-9070255D01*
X25482000Y-9070255D02*
G75*
G03*
X25482000Y-9070255I-60000J0D01*
G01*
X25422000Y-9875472D02*
X25422000Y-9995472D01*
X25362000Y-9935472D02*
X25482000Y-9935472D01*
X25482000Y-9935472D02*
G75*
G03*
X25482000Y-9935472I-60000J0D01*
G01*
X25422000Y-10741498D02*
X25422000Y-10861498D01*
X25362000Y-10801498D02*
X25482000Y-10801498D01*
X25482000Y-10801498D02*
G75*
G03*
X25482000Y-10801498I-60000J0D01*
G01*
X25422000Y-11607523D02*
X25422000Y-11727523D01*
X25362000Y-11667523D02*
X25482000Y-11667523D01*
X25482000Y-11667523D02*
G75*
G03*
X25482000Y-11667523I-60000J0D01*
G01*
X25422000Y-12473548D02*
X25422000Y-12593548D01*
X25362000Y-12533548D02*
X25482000Y-12533548D01*
X25482000Y-12533548D02*
G75*
G03*
X25482000Y-12533548I-60000J0D01*
G01*
X25922000Y-6412179D02*
X25922000Y-6532179D01*
X25862000Y-6472179D02*
X25982000Y-6472179D01*
X25982000Y-6472179D02*
G75*
G03*
X25982000Y-6472179I-60000J0D01*
G01*
X25922000Y-7278204D02*
X25922000Y-7398204D01*
X25862000Y-7338204D02*
X25982000Y-7338204D01*
X25982000Y-7338204D02*
G75*
G03*
X25982000Y-7338204I-60000J0D01*
G01*
X25922000Y-8144229D02*
X25922000Y-8264229D01*
X25862000Y-8204229D02*
X25982000Y-8204229D01*
X25982000Y-8204229D02*
G75*
G03*
X25982000Y-8204229I-60000J0D01*
G01*
X25922000Y-9010255D02*
X25922000Y-9130255D01*
X25862000Y-9070255D02*
X25982000Y-9070255D01*
X25982000Y-9070255D02*
G75*
G03*
X25982000Y-9070255I-60000J0D01*
G01*
X25922000Y-9875472D02*
X25922000Y-9995472D01*
X25862000Y-9935472D02*
X25982000Y-9935472D01*
X25982000Y-9935472D02*
G75*
G03*
X25982000Y-9935472I-60000J0D01*
G01*
X25922000Y-10741498D02*
X25922000Y-10861498D01*
X25862000Y-10801498D02*
X25982000Y-10801498D01*
X25982000Y-10801498D02*
G75*
G03*
X25982000Y-10801498I-60000J0D01*
G01*
X25922000Y-11607523D02*
X25922000Y-11727523D01*
X25862000Y-11667523D02*
X25982000Y-11667523D01*
X25982000Y-11667523D02*
G75*
G03*
X25982000Y-11667523I-60000J0D01*
G01*
X25922000Y-12473548D02*
X25922000Y-12593548D01*
X25862000Y-12533548D02*
X25982000Y-12533548D01*
X25982000Y-12533548D02*
G75*
G03*
X25982000Y-12533548I-60000J0D01*
G01*
X26422000Y-6412179D02*
X26422000Y-6532179D01*
X26362000Y-6472179D02*
X26482000Y-6472179D01*
X26482000Y-6472179D02*
G75*
G03*
X26482000Y-6472179I-60000J0D01*
G01*
X26422000Y-7278204D02*
X26422000Y-7398204D01*
X26362000Y-7338204D02*
X26482000Y-7338204D01*
X26482000Y-7338204D02*
G75*
G03*
X26482000Y-7338204I-60000J0D01*
G01*
X26422000Y-8144229D02*
X26422000Y-8264229D01*
X26362000Y-8204229D02*
X26482000Y-8204229D01*
X26482000Y-8204229D02*
G75*
G03*
X26482000Y-8204229I-60000J0D01*
G01*
X26422000Y-9010255D02*
X26422000Y-9130255D01*
X26362000Y-9070255D02*
X26482000Y-9070255D01*
X26482000Y-9070255D02*
G75*
G03*
X26482000Y-9070255I-60000J0D01*
G01*
X26422000Y-9875472D02*
X26422000Y-9995472D01*
X26362000Y-9935472D02*
X26482000Y-9935472D01*
X26482000Y-9935472D02*
G75*
G03*
X26482000Y-9935472I-60000J0D01*
G01*
X26422000Y-10741498D02*
X26422000Y-10861498D01*
X26362000Y-10801498D02*
X26482000Y-10801498D01*
X26482000Y-10801498D02*
G75*
G03*
X26482000Y-10801498I-60000J0D01*
G01*
X26422000Y-11607523D02*
X26422000Y-11727523D01*
X26362000Y-11667523D02*
X26482000Y-11667523D01*
X26482000Y-11667523D02*
G75*
G03*
X26482000Y-11667523I-60000J0D01*
G01*
X26422000Y-12473548D02*
X26422000Y-12593548D01*
X26362000Y-12533548D02*
X26482000Y-12533548D01*
X26482000Y-12533548D02*
G75*
G03*
X26482000Y-12533548I-60000J0D01*
G01*
X26922000Y-6412179D02*
X26922000Y-6532179D01*
X26862000Y-6472179D02*
X26982000Y-6472179D01*
X26982000Y-6472179D02*
G75*
G03*
X26982000Y-6472179I-60000J0D01*
G01*
X26922000Y-7278204D02*
X26922000Y-7398204D01*
X26862000Y-7338204D02*
X26982000Y-7338204D01*
X26982000Y-7338204D02*
G75*
G03*
X26982000Y-7338204I-60000J0D01*
G01*
X26922000Y-8144229D02*
X26922000Y-8264229D01*
X26862000Y-8204229D02*
X26982000Y-8204229D01*
X26982000Y-8204229D02*
G75*
G03*
X26982000Y-8204229I-60000J0D01*
G01*
X26922000Y-9010255D02*
X26922000Y-9130255D01*
X26862000Y-9070255D02*
X26982000Y-9070255D01*
X26982000Y-9070255D02*
G75*
G03*
X26982000Y-9070255I-60000J0D01*
G01*
X26922000Y-9875472D02*
X26922000Y-9995472D01*
X26862000Y-9935472D02*
X26982000Y-9935472D01*
X26982000Y-9935472D02*
G75*
G03*
X26982000Y-9935472I-60000J0D01*
G01*
X26922000Y-10741498D02*
X26922000Y-10861498D01*
X26862000Y-10801498D02*
X26982000Y-10801498D01*
X26982000Y-10801498D02*
G75*
G03*
X26982000Y-10801498I-60000J0D01*
G01*
X26922000Y-11607523D02*
X26922000Y-11727523D01*
X26862000Y-11667523D02*
X26982000Y-11667523D01*
X26982000Y-11667523D02*
G75*
G03*
X26982000Y-11667523I-60000J0D01*
G01*
X26922000Y-12473548D02*
X26922000Y-12593548D01*
X26862000Y-12533548D02*
X26982000Y-12533548D01*
X26982000Y-12533548D02*
G75*
G03*
X26982000Y-12533548I-60000J0D01*
G01*
X27422000Y-6412179D02*
X27422000Y-6532179D01*
X27362000Y-6472179D02*
X27482000Y-6472179D01*
X27482000Y-6472179D02*
G75*
G03*
X27482000Y-6472179I-60000J0D01*
G01*
X27422000Y-7278204D02*
X27422000Y-7398204D01*
X27362000Y-7338204D02*
X27482000Y-7338204D01*
X27482000Y-7338204D02*
G75*
G03*
X27482000Y-7338204I-60000J0D01*
G01*
X27422000Y-8144229D02*
X27422000Y-8264229D01*
X27362000Y-8204229D02*
X27482000Y-8204229D01*
X27482000Y-8204229D02*
G75*
G03*
X27482000Y-8204229I-60000J0D01*
G01*
X27422000Y-9010255D02*
X27422000Y-9130255D01*
X27362000Y-9070255D02*
X27482000Y-9070255D01*
X27482000Y-9070255D02*
G75*
G03*
X27482000Y-9070255I-60000J0D01*
G01*
X27422000Y-9875472D02*
X27422000Y-9995472D01*
X27362000Y-9935472D02*
X27482000Y-9935472D01*
X27482000Y-9935472D02*
G75*
G03*
X27482000Y-9935472I-60000J0D01*
G01*
X27422000Y-10741498D02*
X27422000Y-10861498D01*
X27362000Y-10801498D02*
X27482000Y-10801498D01*
X27482000Y-10801498D02*
G75*
G03*
X27482000Y-10801498I-60000J0D01*
G01*
X27422000Y-11607523D02*
X27422000Y-11727523D01*
X27362000Y-11667523D02*
X27482000Y-11667523D01*
X27482000Y-11667523D02*
G75*
G03*
X27482000Y-11667523I-60000J0D01*
G01*
X27422000Y-12473548D02*
X27422000Y-12593548D01*
X27362000Y-12533548D02*
X27482000Y-12533548D01*
X27482000Y-12533548D02*
G75*
G03*
X27482000Y-12533548I-60000J0D01*
G01*
X27922000Y-6412179D02*
X27922000Y-6532179D01*
X27862000Y-6472179D02*
X27982000Y-6472179D01*
X27982000Y-6472179D02*
G75*
G03*
X27982000Y-6472179I-60000J0D01*
G01*
X27922000Y-7278204D02*
X27922000Y-7398204D01*
X27862000Y-7338204D02*
X27982000Y-7338204D01*
X27982000Y-7338204D02*
G75*
G03*
X27982000Y-7338204I-60000J0D01*
G01*
X27922000Y-8144229D02*
X27922000Y-8264229D01*
X27862000Y-8204229D02*
X27982000Y-8204229D01*
X27982000Y-8204229D02*
G75*
G03*
X27982000Y-8204229I-60000J0D01*
G01*
X27922000Y-9010255D02*
X27922000Y-9130255D01*
X27862000Y-9070255D02*
X27982000Y-9070255D01*
X27982000Y-9070255D02*
G75*
G03*
X27982000Y-9070255I-60000J0D01*
G01*
X27922000Y-9875472D02*
X27922000Y-9995472D01*
X27862000Y-9935472D02*
X27982000Y-9935472D01*
X27982000Y-9935472D02*
G75*
G03*
X27982000Y-9935472I-60000J0D01*
G01*
X27922000Y-10741498D02*
X27922000Y-10861498D01*
X27862000Y-10801498D02*
X27982000Y-10801498D01*
X27982000Y-10801498D02*
G75*
G03*
X27982000Y-10801498I-60000J0D01*
G01*
X27922000Y-11607523D02*
X27922000Y-11727523D01*
X27862000Y-11667523D02*
X27982000Y-11667523D01*
X27982000Y-11667523D02*
G75*
G03*
X27982000Y-11667523I-60000J0D01*
G01*
X27922000Y-12473548D02*
X27922000Y-12593548D01*
X27862000Y-12533548D02*
X27982000Y-12533548D01*
X27982000Y-12533548D02*
G75*
G03*
X27982000Y-12533548I-60000J0D01*
G01*
X28421000Y-12472850D02*
X28421000Y-12592850D01*
X28361000Y-12532850D02*
X28481000Y-12532850D01*
X28481000Y-12532850D02*
G75*
G03*
X28481000Y-12532850I-60000J0D01*
G01*
X28422000Y-6412179D02*
X28422000Y-6532179D01*
X28362000Y-6472179D02*
X28482000Y-6472179D01*
X28482000Y-6472179D02*
G75*
G03*
X28482000Y-6472179I-60000J0D01*
G01*
X28422000Y-7278204D02*
X28422000Y-7398204D01*
X28362000Y-7338204D02*
X28482000Y-7338204D01*
X28482000Y-7338204D02*
G75*
G03*
X28482000Y-7338204I-60000J0D01*
G01*
X28422000Y-8144229D02*
X28422000Y-8264229D01*
X28362000Y-8204229D02*
X28482000Y-8204229D01*
X28482000Y-8204229D02*
G75*
G03*
X28482000Y-8204229I-60000J0D01*
G01*
X28422000Y-9010255D02*
X28422000Y-9130255D01*
X28362000Y-9070255D02*
X28482000Y-9070255D01*
X28482000Y-9070255D02*
G75*
G03*
X28482000Y-9070255I-60000J0D01*
G01*
X28422000Y-9875472D02*
X28422000Y-9995472D01*
X28362000Y-9935472D02*
X28482000Y-9935472D01*
X28482000Y-9935472D02*
G75*
G03*
X28482000Y-9935472I-60000J0D01*
G01*
X28422000Y-10741498D02*
X28422000Y-10861498D01*
X28362000Y-10801498D02*
X28482000Y-10801498D01*
X28482000Y-10801498D02*
G75*
G03*
X28482000Y-10801498I-60000J0D01*
G01*
X28422000Y-11607523D02*
X28422000Y-11727523D01*
X28362000Y-11667523D02*
X28482000Y-11667523D01*
X28482000Y-11667523D02*
G75*
G03*
X28482000Y-11667523I-60000J0D01*
G01*
X28921000Y-12472850D02*
X28921000Y-12592850D01*
X28861000Y-12532850D02*
X28981000Y-12532850D01*
X28981000Y-12532850D02*
G75*
G03*
X28981000Y-12532850I-60000J0D01*
G01*
X28922000Y-6412179D02*
X28922000Y-6532179D01*
X28862000Y-6472179D02*
X28982000Y-6472179D01*
X28982000Y-6472179D02*
G75*
G03*
X28982000Y-6472179I-60000J0D01*
G01*
X28922000Y-7278204D02*
X28922000Y-7398204D01*
X28862000Y-7338204D02*
X28982000Y-7338204D01*
X28982000Y-7338204D02*
G75*
G03*
X28982000Y-7338204I-60000J0D01*
G01*
X28922000Y-8144229D02*
X28922000Y-8264229D01*
X28862000Y-8204229D02*
X28982000Y-8204229D01*
X28982000Y-8204229D02*
G75*
G03*
X28982000Y-8204229I-60000J0D01*
G01*
X28922000Y-9010255D02*
X28922000Y-9130255D01*
X28862000Y-9070255D02*
X28982000Y-9070255D01*
X28982000Y-9070255D02*
G75*
G03*
X28982000Y-9070255I-60000J0D01*
G01*
X28922000Y-9875472D02*
X28922000Y-9995472D01*
X28862000Y-9935472D02*
X28982000Y-9935472D01*
X28982000Y-9935472D02*
G75*
G03*
X28982000Y-9935472I-60000J0D01*
G01*
X28922000Y-10741498D02*
X28922000Y-10861498D01*
X28862000Y-10801498D02*
X28982000Y-10801498D01*
X28982000Y-10801498D02*
G75*
G03*
X28982000Y-10801498I-60000J0D01*
G01*
X28922000Y-11607523D02*
X28922000Y-11727523D01*
X28862000Y-11667523D02*
X28982000Y-11667523D01*
X28982000Y-11667523D02*
G75*
G03*
X28982000Y-11667523I-60000J0D01*
G01*
X29422000Y-6412179D02*
X29422000Y-6532179D01*
X29362000Y-6472179D02*
X29482000Y-6472179D01*
X29482000Y-6472179D02*
G75*
G03*
X29482000Y-6472179I-60000J0D01*
G01*
X29422000Y-8144229D02*
X29422000Y-8264229D01*
X29362000Y-8204229D02*
X29482000Y-8204229D01*
X29482000Y-8204229D02*
G75*
G03*
X29482000Y-8204229I-60000J0D01*
G01*
X29422000Y-9875472D02*
X29422000Y-9995472D01*
X29362000Y-9935472D02*
X29482000Y-9935472D01*
X29482000Y-9935472D02*
G75*
G03*
X29482000Y-9935472I-60000J0D01*
G01*
X29422000Y-11607523D02*
X29422000Y-11727523D01*
X29362000Y-11667523D02*
X29482000Y-11667523D01*
X29482000Y-11667523D02*
G75*
G03*
X29482000Y-11667523I-60000J0D01*
G01*
D21*
X30023498Y-8596498D02*
X30023498Y-8497502D01*
X29924502Y-8497502D01*
X29924502Y-8596498D01*
X30023498Y-8596498D01*
X30044000Y-8547000D02*
G75*
G03*
X30044000Y-8547000I-70000J0D01*
G01*
X30341498Y-10502498D02*
X30341498Y-10403502D01*
X30242502Y-10403502D01*
X30242502Y-10502498D01*
X30341498Y-10502498D01*
X30362000Y-10453000D02*
G75*
G03*
X30362000Y-10453000I-70000J0D01*
G01*
X30975498Y-8596498D02*
X30975498Y-8497502D01*
X30876502Y-8497502D01*
X30876502Y-8596498D01*
X30975498Y-8596498D01*
X30996000Y-8547000D02*
G75*
G03*
X30996000Y-8547000I-70000J0D01*
G01*
X30975498Y-10502498D02*
X30975498Y-10403502D01*
X30876502Y-10403502D01*
X30876502Y-10502498D01*
X30975498Y-10502498D01*
X30996000Y-10453000D02*
G75*
G03*
X30996000Y-10453000I-70000J0D01*
G01*
D22*
X20025008Y-5130000D02*
X20160008Y-4995000D01*
X20025008Y-4860000D01*
X19890008Y-4995000D01*
X20025008Y-5130000D01*
X20160008Y-4995000D02*
G75*
G03*
X20160008Y-4995000I-135000J0D01*
G01*
X20025011Y-14145000D02*
X20160011Y-14010000D01*
X20025011Y-13875000D01*
X19890011Y-14010000D01*
X20025011Y-14145000D01*
X20160011Y-14010000D02*
G75*
G03*
X20160011Y-14010000I-135000J0D01*
G01*
X30825007Y-14145000D02*
X30960007Y-14010000D01*
X30825007Y-13875000D01*
X30690007Y-14010000D01*
X30825007Y-14145000D01*
X30960007Y-14010000D02*
G75*
G03*
X30960007Y-14010000I-135000J0D01*
G01*
X30825009Y-5130000D02*
X30960009Y-4995000D01*
X30825009Y-4860000D01*
X30690009Y-4995000D01*
X30825009Y-5130000D01*
X30960009Y-4995000D02*
G75*
G03*
X30960009Y-4995000I-135000J0D01*
G01*
D11*
X19824952Y-14775055D02*
X19824952Y-14575055D01*
X19872571Y-14575055D01*
X19901142Y-14584579D01*
X19920190Y-14603626D01*
X19929714Y-14622674D01*
X19939238Y-14660769D01*
X19939238Y-14689340D01*
X19929714Y-14727436D01*
X19920190Y-14746483D01*
X19901142Y-14765531D01*
X19872571Y-14775055D01*
X19824952Y-14775055D01*
X20024952Y-14775055D02*
X20024952Y-14641721D01*
X20024952Y-14679817D02*
X20034476Y-14660769D01*
X20043999Y-14651245D01*
X20063047Y-14641721D01*
X20082095Y-14641721D01*
X20148761Y-14775055D02*
X20148761Y-14641721D01*
X20148761Y-14575055D02*
X20139238Y-14584579D01*
X20148761Y-14594102D01*
X20158285Y-14584579D01*
X20148761Y-14575055D01*
X20148761Y-14594102D01*
X20272571Y-14775055D02*
X20253523Y-14765531D01*
X20243999Y-14746483D01*
X20243999Y-14575055D01*
X20377333Y-14775055D02*
X20358285Y-14765531D01*
X20348761Y-14746483D01*
X20348761Y-14575055D01*
X20605904Y-14775055D02*
X20605904Y-14575055D01*
X20672571Y-14717912D01*
X20739238Y-14575055D01*
X20739238Y-14775055D01*
X20920190Y-14775055D02*
X20920190Y-14670293D01*
X20910666Y-14651245D01*
X20891619Y-14641721D01*
X20853523Y-14641721D01*
X20834476Y-14651245D01*
X20920190Y-14765531D02*
X20901142Y-14775055D01*
X20853523Y-14775055D01*
X20834476Y-14765531D01*
X20824952Y-14746483D01*
X20824952Y-14727436D01*
X20834476Y-14708388D01*
X20853523Y-14698864D01*
X20901142Y-14698864D01*
X20920190Y-14689340D01*
X21015428Y-14641721D02*
X21015428Y-14841721D01*
X21015428Y-14651245D02*
X21034476Y-14641721D01*
X21072571Y-14641721D01*
X21091619Y-14651245D01*
X21101142Y-14660769D01*
X21110666Y-14679817D01*
X21110666Y-14736959D01*
X21101142Y-14756007D01*
X21091619Y-14765531D01*
X21072571Y-14775055D01*
X21034476Y-14775055D01*
X21015428Y-14765531D01*
X21196380Y-14756007D02*
X21205904Y-14765531D01*
X21196380Y-14775055D01*
X21186857Y-14765531D01*
X21196380Y-14756007D01*
X21196380Y-14775055D01*
X21196380Y-14651245D02*
X21205904Y-14660769D01*
X21196380Y-14670293D01*
X21186857Y-14660769D01*
X21196380Y-14651245D01*
X21196380Y-14670293D01*
D12*
X19547333Y-15094579D02*
X19567333Y-15114579D01*
X19567333Y-15094579D02*
X19547333Y-15114579D01*
D11*
X19863047Y-14995055D02*
X19882095Y-14995055D01*
X19901142Y-15004579D01*
X19910666Y-15014102D01*
X19920190Y-15033150D01*
X19929714Y-15071245D01*
X19929714Y-15118864D01*
X19920190Y-15156959D01*
X19910666Y-15176007D01*
X19901142Y-15185531D01*
X19882095Y-15195055D01*
X19863047Y-15195055D01*
X19843999Y-15185531D01*
X19834476Y-15176007D01*
X19824952Y-15156959D01*
X19815428Y-15118864D01*
X19815428Y-15071245D01*
X19824952Y-15033150D01*
X19834476Y-15014102D01*
X19843999Y-15004579D01*
X19863047Y-14995055D01*
X20015428Y-15176007D02*
X20024952Y-15185531D01*
X20015428Y-15195055D01*
X20005904Y-15185531D01*
X20015428Y-15176007D01*
X20015428Y-15195055D01*
X20101142Y-15014102D02*
X20110666Y-15004579D01*
X20129714Y-14995055D01*
X20177333Y-14995055D01*
X20196380Y-15004579D01*
X20205904Y-15014102D01*
X20215428Y-15033150D01*
X20215428Y-15052198D01*
X20205904Y-15080769D01*
X20091619Y-15195055D01*
X20215428Y-15195055D01*
X20339238Y-14995055D02*
X20358285Y-14995055D01*
X20377333Y-15004579D01*
X20386857Y-15014102D01*
X20396380Y-15033150D01*
X20405904Y-15071245D01*
X20405904Y-15118864D01*
X20396380Y-15156959D01*
X20386857Y-15176007D01*
X20377333Y-15185531D01*
X20358285Y-15195055D01*
X20339238Y-15195055D01*
X20320190Y-15185531D01*
X20310666Y-15176007D01*
X20301142Y-15156959D01*
X20291619Y-15118864D01*
X20291619Y-15071245D01*
X20301142Y-15033150D01*
X20310666Y-15014102D01*
X20320190Y-15004579D01*
X20339238Y-14995055D01*
X20529714Y-14995055D02*
X20548761Y-14995055D01*
X20567809Y-15004579D01*
X20577333Y-15014102D01*
X20586857Y-15033150D01*
X20596380Y-15071245D01*
X20596380Y-15118864D01*
X20586857Y-15156959D01*
X20577333Y-15176007D01*
X20567809Y-15185531D01*
X20548761Y-15195055D01*
X20529714Y-15195055D01*
X20510666Y-15185531D01*
X20501142Y-15176007D01*
X20491619Y-15156959D01*
X20482095Y-15118864D01*
X20482095Y-15071245D01*
X20491619Y-15033150D01*
X20501142Y-15014102D01*
X20510666Y-15004579D01*
X20529714Y-14995055D01*
X20682095Y-15195055D02*
X20682095Y-15061721D01*
X20682095Y-15080769D02*
X20691619Y-15071245D01*
X20710666Y-15061721D01*
X20739238Y-15061721D01*
X20758285Y-15071245D01*
X20767809Y-15090293D01*
X20767809Y-15195055D01*
X20767809Y-15090293D02*
X20777333Y-15071245D01*
X20796380Y-15061721D01*
X20824952Y-15061721D01*
X20843999Y-15071245D01*
X20853523Y-15090293D01*
X20853523Y-15195055D01*
X20948761Y-15195055D02*
X20948761Y-15061721D01*
X20948761Y-15080769D02*
X20958285Y-15071245D01*
X20977333Y-15061721D01*
X21005904Y-15061721D01*
X21024952Y-15071245D01*
X21034476Y-15090293D01*
X21034476Y-15195055D01*
X21034476Y-15090293D02*
X21043999Y-15071245D01*
X21063047Y-15061721D01*
X21091619Y-15061721D01*
X21110666Y-15071245D01*
X21120190Y-15090293D01*
X21120190Y-15195055D01*
X21510666Y-14985531D02*
X21339238Y-15242674D01*
X21767809Y-14995055D02*
X21786857Y-14995055D01*
X21805904Y-15004579D01*
X21815428Y-15014102D01*
X21824952Y-15033150D01*
X21834476Y-15071245D01*
X21834476Y-15118864D01*
X21824952Y-15156959D01*
X21815428Y-15176007D01*
X21805904Y-15185531D01*
X21786857Y-15195055D01*
X21767809Y-15195055D01*
X21748761Y-15185531D01*
X21739238Y-15176007D01*
X21729714Y-15156959D01*
X21720190Y-15118864D01*
X21720190Y-15071245D01*
X21729714Y-15033150D01*
X21739238Y-15014102D01*
X21748761Y-15004579D01*
X21767809Y-14995055D01*
X21920190Y-15176007D02*
X21929714Y-15185531D01*
X21920190Y-15195055D01*
X21910666Y-15185531D01*
X21920190Y-15176007D01*
X21920190Y-15195055D01*
X22053523Y-14995055D02*
X22072571Y-14995055D01*
X22091619Y-15004579D01*
X22101142Y-15014102D01*
X22110666Y-15033150D01*
X22120190Y-15071245D01*
X22120190Y-15118864D01*
X22110666Y-15156959D01*
X22101142Y-15176007D01*
X22091619Y-15185531D01*
X22072571Y-15195055D01*
X22053523Y-15195055D01*
X22034476Y-15185531D01*
X22024952Y-15176007D01*
X22015428Y-15156959D01*
X22005904Y-15118864D01*
X22005904Y-15071245D01*
X22015428Y-15033150D01*
X22024952Y-15014102D01*
X22034476Y-15004579D01*
X22053523Y-14995055D01*
X22243999Y-14995055D02*
X22263047Y-14995055D01*
X22282095Y-15004579D01*
X22291619Y-15014102D01*
X22301142Y-15033150D01*
X22310666Y-15071245D01*
X22310666Y-15118864D01*
X22301142Y-15156959D01*
X22291619Y-15176007D01*
X22282095Y-15185531D01*
X22263047Y-15195055D01*
X22243999Y-15195055D01*
X22224952Y-15185531D01*
X22215428Y-15176007D01*
X22205904Y-15156959D01*
X22196380Y-15118864D01*
X22196380Y-15071245D01*
X22205904Y-15033150D01*
X22215428Y-15014102D01*
X22224952Y-15004579D01*
X22243999Y-14995055D01*
X22377333Y-14995055D02*
X22510666Y-14995055D01*
X22424952Y-15195055D01*
X22596380Y-15195055D02*
X22634476Y-15195055D01*
X22653523Y-15185531D01*
X22663047Y-15176007D01*
X22682095Y-15147436D01*
X22691618Y-15109340D01*
X22691618Y-15033150D01*
X22682095Y-15014102D01*
X22672571Y-15004579D01*
X22653523Y-14995055D01*
X22615428Y-14995055D01*
X22596380Y-15004579D01*
X22586857Y-15014102D01*
X22577333Y-15033150D01*
X22577333Y-15080769D01*
X22586857Y-15099817D01*
X22596380Y-15109340D01*
X22615428Y-15118864D01*
X22653523Y-15118864D01*
X22672571Y-15109340D01*
X22682095Y-15099817D01*
X22691618Y-15080769D01*
X22767809Y-14995055D02*
X22767809Y-15033150D01*
X22843999Y-14995055D02*
X22843999Y-15033150D01*
X23139237Y-15271245D02*
X23129714Y-15261721D01*
X23110666Y-15233150D01*
X23101142Y-15214102D01*
X23091618Y-15185531D01*
X23082095Y-15137912D01*
X23082095Y-15099817D01*
X23091618Y-15052198D01*
X23101142Y-15023626D01*
X23110666Y-15004579D01*
X23129714Y-14976007D01*
X23139237Y-14966483D01*
X23320190Y-15195055D02*
X23205904Y-15195055D01*
X23263047Y-15195055D02*
X23263047Y-14995055D01*
X23243999Y-15023626D01*
X23224952Y-15042674D01*
X23205904Y-15052198D01*
X23396380Y-15014102D02*
X23405904Y-15004579D01*
X23424952Y-14995055D01*
X23472571Y-14995055D01*
X23491618Y-15004579D01*
X23501142Y-15014102D01*
X23510666Y-15033150D01*
X23510666Y-15052198D01*
X23501142Y-15080769D01*
X23386857Y-15195055D01*
X23510666Y-15195055D01*
X23624952Y-15080769D02*
X23605904Y-15071245D01*
X23596380Y-15061721D01*
X23586857Y-15042674D01*
X23586857Y-15033150D01*
X23596380Y-15014102D01*
X23605904Y-15004579D01*
X23624952Y-14995055D01*
X23663047Y-14995055D01*
X23682095Y-15004579D01*
X23691618Y-15014102D01*
X23701142Y-15033150D01*
X23701142Y-15042674D01*
X23691618Y-15061721D01*
X23682095Y-15071245D01*
X23663047Y-15080769D01*
X23624952Y-15080769D01*
X23605904Y-15090293D01*
X23596380Y-15099817D01*
X23586857Y-15118864D01*
X23586857Y-15156959D01*
X23596380Y-15176007D01*
X23605904Y-15185531D01*
X23624952Y-15195055D01*
X23663047Y-15195055D01*
X23682095Y-15185531D01*
X23691618Y-15176007D01*
X23701142Y-15156959D01*
X23701142Y-15118864D01*
X23691618Y-15099817D01*
X23682095Y-15090293D01*
X23663047Y-15080769D01*
X23939237Y-15195055D02*
X23939237Y-14995055D01*
X24024952Y-15195055D02*
X24024952Y-15090293D01*
X24015428Y-15071245D01*
X23996380Y-15061721D01*
X23967809Y-15061721D01*
X23948761Y-15071245D01*
X23939237Y-15080769D01*
X24148761Y-15195055D02*
X24129714Y-15185531D01*
X24120190Y-15176007D01*
X24110666Y-15156959D01*
X24110666Y-15099817D01*
X24120190Y-15080769D01*
X24129714Y-15071245D01*
X24148761Y-15061721D01*
X24177333Y-15061721D01*
X24196380Y-15071245D01*
X24205904Y-15080769D01*
X24215428Y-15099817D01*
X24215428Y-15156959D01*
X24205904Y-15176007D01*
X24196380Y-15185531D01*
X24177333Y-15195055D01*
X24148761Y-15195055D01*
X24329714Y-15195055D02*
X24310666Y-15185531D01*
X24301142Y-15166483D01*
X24301142Y-14995055D01*
X24482095Y-15185531D02*
X24463047Y-15195055D01*
X24424952Y-15195055D01*
X24405904Y-15185531D01*
X24396380Y-15166483D01*
X24396380Y-15090293D01*
X24405904Y-15071245D01*
X24424952Y-15061721D01*
X24463047Y-15061721D01*
X24482095Y-15071245D01*
X24491618Y-15090293D01*
X24491618Y-15109340D01*
X24396380Y-15128388D01*
X24567809Y-15185531D02*
X24586857Y-15195055D01*
X24624952Y-15195055D01*
X24643999Y-15185531D01*
X24653523Y-15166483D01*
X24653523Y-15156959D01*
X24643999Y-15137912D01*
X24624952Y-15128388D01*
X24596380Y-15128388D01*
X24577333Y-15118864D01*
X24567809Y-15099817D01*
X24567809Y-15090293D01*
X24577333Y-15071245D01*
X24596380Y-15061721D01*
X24624952Y-15061721D01*
X24643999Y-15071245D01*
X24720190Y-15271245D02*
X24729714Y-15261721D01*
X24748761Y-15233150D01*
X24758285Y-15214102D01*
X24767809Y-15185531D01*
X24777333Y-15137912D01*
X24777333Y-15099817D01*
X24767809Y-15052198D01*
X24758285Y-15023626D01*
X24748761Y-15004579D01*
X24729714Y-14976007D01*
X24720190Y-14966483D01*
D13*
X19567333Y-15368579D02*
G75*
G03*
X19567333Y-15368579I-10160J0D01*
G01*
D11*
X19863047Y-15259055D02*
X19882095Y-15259055D01*
X19901142Y-15268579D01*
X19910666Y-15278102D01*
X19920190Y-15297150D01*
X19929714Y-15335245D01*
X19929714Y-15382864D01*
X19920190Y-15420959D01*
X19910666Y-15440007D01*
X19901142Y-15449531D01*
X19882095Y-15459055D01*
X19863047Y-15459055D01*
X19843999Y-15449531D01*
X19834476Y-15440007D01*
X19824952Y-15420959D01*
X19815428Y-15382864D01*
X19815428Y-15335245D01*
X19824952Y-15297150D01*
X19834476Y-15278102D01*
X19843999Y-15268579D01*
X19863047Y-15259055D01*
X20015428Y-15440007D02*
X20024952Y-15449531D01*
X20015428Y-15459055D01*
X20005904Y-15449531D01*
X20015428Y-15440007D01*
X20015428Y-15459055D01*
X20101142Y-15278102D02*
X20110666Y-15268579D01*
X20129714Y-15259055D01*
X20177333Y-15259055D01*
X20196380Y-15268579D01*
X20205904Y-15278102D01*
X20215428Y-15297150D01*
X20215428Y-15316198D01*
X20205904Y-15344769D01*
X20091619Y-15459055D01*
X20215428Y-15459055D01*
X20339238Y-15259055D02*
X20358285Y-15259055D01*
X20377333Y-15268579D01*
X20386857Y-15278102D01*
X20396380Y-15297150D01*
X20405904Y-15335245D01*
X20405904Y-15382864D01*
X20396380Y-15420959D01*
X20386857Y-15440007D01*
X20377333Y-15449531D01*
X20358285Y-15459055D01*
X20339238Y-15459055D01*
X20320190Y-15449531D01*
X20310666Y-15440007D01*
X20301142Y-15420959D01*
X20291619Y-15382864D01*
X20291619Y-15335245D01*
X20301142Y-15297150D01*
X20310666Y-15278102D01*
X20320190Y-15268579D01*
X20339238Y-15259055D01*
X20472571Y-15259055D02*
X20596380Y-15259055D01*
X20529714Y-15335245D01*
X20558285Y-15335245D01*
X20577333Y-15344769D01*
X20586857Y-15354293D01*
X20596380Y-15373340D01*
X20596380Y-15420959D01*
X20586857Y-15440007D01*
X20577333Y-15449531D01*
X20558285Y-15459055D01*
X20501142Y-15459055D01*
X20482095Y-15449531D01*
X20472571Y-15440007D01*
X20682095Y-15459055D02*
X20682095Y-15325721D01*
X20682095Y-15344769D02*
X20691619Y-15335245D01*
X20710666Y-15325721D01*
X20739238Y-15325721D01*
X20758285Y-15335245D01*
X20767809Y-15354293D01*
X20767809Y-15459055D01*
X20767809Y-15354293D02*
X20777333Y-15335245D01*
X20796380Y-15325721D01*
X20824952Y-15325721D01*
X20843999Y-15335245D01*
X20853523Y-15354293D01*
X20853523Y-15459055D01*
X20948761Y-15459055D02*
X20948761Y-15325721D01*
X20948761Y-15344769D02*
X20958285Y-15335245D01*
X20977333Y-15325721D01*
X21005904Y-15325721D01*
X21024952Y-15335245D01*
X21034476Y-15354293D01*
X21034476Y-15459055D01*
X21034476Y-15354293D02*
X21043999Y-15335245D01*
X21063047Y-15325721D01*
X21091619Y-15325721D01*
X21110666Y-15335245D01*
X21120190Y-15354293D01*
X21120190Y-15459055D01*
X21510666Y-15249531D02*
X21339238Y-15506674D01*
X21767809Y-15259055D02*
X21786857Y-15259055D01*
X21805904Y-15268579D01*
X21815428Y-15278102D01*
X21824952Y-15297150D01*
X21834476Y-15335245D01*
X21834476Y-15382864D01*
X21824952Y-15420959D01*
X21815428Y-15440007D01*
X21805904Y-15449531D01*
X21786857Y-15459055D01*
X21767809Y-15459055D01*
X21748761Y-15449531D01*
X21739238Y-15440007D01*
X21729714Y-15420959D01*
X21720190Y-15382864D01*
X21720190Y-15335245D01*
X21729714Y-15297150D01*
X21739238Y-15278102D01*
X21748761Y-15268579D01*
X21767809Y-15259055D01*
X21920190Y-15440007D02*
X21929714Y-15449531D01*
X21920190Y-15459055D01*
X21910666Y-15449531D01*
X21920190Y-15440007D01*
X21920190Y-15459055D01*
X22053523Y-15259055D02*
X22072571Y-15259055D01*
X22091619Y-15268579D01*
X22101142Y-15278102D01*
X22110666Y-15297150D01*
X22120190Y-15335245D01*
X22120190Y-15382864D01*
X22110666Y-15420959D01*
X22101142Y-15440007D01*
X22091619Y-15449531D01*
X22072571Y-15459055D01*
X22053523Y-15459055D01*
X22034476Y-15449531D01*
X22024952Y-15440007D01*
X22015428Y-15420959D01*
X22005904Y-15382864D01*
X22005904Y-15335245D01*
X22015428Y-15297150D01*
X22024952Y-15278102D01*
X22034476Y-15268579D01*
X22053523Y-15259055D01*
X22243999Y-15259055D02*
X22263047Y-15259055D01*
X22282095Y-15268579D01*
X22291619Y-15278102D01*
X22301142Y-15297150D01*
X22310666Y-15335245D01*
X22310666Y-15382864D01*
X22301142Y-15420959D01*
X22291619Y-15440007D01*
X22282095Y-15449531D01*
X22263047Y-15459055D01*
X22243999Y-15459055D01*
X22224952Y-15449531D01*
X22215428Y-15440007D01*
X22205904Y-15420959D01*
X22196380Y-15382864D01*
X22196380Y-15335245D01*
X22205904Y-15297150D01*
X22215428Y-15278102D01*
X22224952Y-15268579D01*
X22243999Y-15259055D01*
X22424952Y-15344769D02*
X22405904Y-15335245D01*
X22396380Y-15325721D01*
X22386857Y-15306674D01*
X22386857Y-15297150D01*
X22396380Y-15278102D01*
X22405904Y-15268579D01*
X22424952Y-15259055D01*
X22463047Y-15259055D01*
X22482095Y-15268579D01*
X22491618Y-15278102D01*
X22501142Y-15297150D01*
X22501142Y-15306674D01*
X22491618Y-15325721D01*
X22482095Y-15335245D01*
X22463047Y-15344769D01*
X22424952Y-15344769D01*
X22405904Y-15354293D01*
X22396380Y-15363817D01*
X22386857Y-15382864D01*
X22386857Y-15420959D01*
X22396380Y-15440007D01*
X22405904Y-15449531D01*
X22424952Y-15459055D01*
X22463047Y-15459055D01*
X22482095Y-15449531D01*
X22491618Y-15440007D01*
X22501142Y-15420959D01*
X22501142Y-15382864D01*
X22491618Y-15363817D01*
X22482095Y-15354293D01*
X22463047Y-15344769D01*
X22624952Y-15259055D02*
X22643999Y-15259055D01*
X22663047Y-15268579D01*
X22672571Y-15278102D01*
X22682095Y-15297150D01*
X22691618Y-15335245D01*
X22691618Y-15382864D01*
X22682095Y-15420959D01*
X22672571Y-15440007D01*
X22663047Y-15449531D01*
X22643999Y-15459055D01*
X22624952Y-15459055D01*
X22605904Y-15449531D01*
X22596380Y-15440007D01*
X22586857Y-15420959D01*
X22577333Y-15382864D01*
X22577333Y-15335245D01*
X22586857Y-15297150D01*
X22596380Y-15278102D01*
X22605904Y-15268579D01*
X22624952Y-15259055D01*
X22767809Y-15259055D02*
X22767809Y-15297150D01*
X22843999Y-15259055D02*
X22843999Y-15297150D01*
X23139237Y-15535245D02*
X23129714Y-15525721D01*
X23110666Y-15497150D01*
X23101142Y-15478102D01*
X23091618Y-15449531D01*
X23082095Y-15401912D01*
X23082095Y-15363817D01*
X23091618Y-15316198D01*
X23101142Y-15287626D01*
X23110666Y-15268579D01*
X23129714Y-15240007D01*
X23139237Y-15230483D01*
X23310666Y-15259055D02*
X23215428Y-15259055D01*
X23205904Y-15354293D01*
X23215428Y-15344769D01*
X23234476Y-15335245D01*
X23282095Y-15335245D01*
X23301142Y-15344769D01*
X23310666Y-15354293D01*
X23320190Y-15373340D01*
X23320190Y-15420959D01*
X23310666Y-15440007D01*
X23301142Y-15449531D01*
X23282095Y-15459055D01*
X23234476Y-15459055D01*
X23215428Y-15449531D01*
X23205904Y-15440007D01*
X23558285Y-15459055D02*
X23558285Y-15259055D01*
X23643999Y-15459055D02*
X23643999Y-15354293D01*
X23634476Y-15335245D01*
X23615428Y-15325721D01*
X23586857Y-15325721D01*
X23567809Y-15335245D01*
X23558285Y-15344769D01*
X23767809Y-15459055D02*
X23748761Y-15449531D01*
X23739237Y-15440007D01*
X23729714Y-15420959D01*
X23729714Y-15363817D01*
X23739237Y-15344769D01*
X23748761Y-15335245D01*
X23767809Y-15325721D01*
X23796380Y-15325721D01*
X23815428Y-15335245D01*
X23824952Y-15344769D01*
X23834476Y-15363817D01*
X23834476Y-15420959D01*
X23824952Y-15440007D01*
X23815428Y-15449531D01*
X23796380Y-15459055D01*
X23767809Y-15459055D01*
X23948761Y-15459055D02*
X23929714Y-15449531D01*
X23920190Y-15430483D01*
X23920190Y-15259055D01*
X24101142Y-15449531D02*
X24082095Y-15459055D01*
X24043999Y-15459055D01*
X24024952Y-15449531D01*
X24015428Y-15430483D01*
X24015428Y-15354293D01*
X24024952Y-15335245D01*
X24043999Y-15325721D01*
X24082095Y-15325721D01*
X24101142Y-15335245D01*
X24110666Y-15354293D01*
X24110666Y-15373340D01*
X24015428Y-15392388D01*
X24186857Y-15449531D02*
X24205904Y-15459055D01*
X24243999Y-15459055D01*
X24263047Y-15449531D01*
X24272571Y-15430483D01*
X24272571Y-15420959D01*
X24263047Y-15401912D01*
X24243999Y-15392388D01*
X24215428Y-15392388D01*
X24196380Y-15382864D01*
X24186857Y-15363817D01*
X24186857Y-15354293D01*
X24196380Y-15335245D01*
X24215428Y-15325721D01*
X24243999Y-15325721D01*
X24263047Y-15335245D01*
X24339237Y-15535245D02*
X24348761Y-15525721D01*
X24367809Y-15497150D01*
X24377333Y-15478102D01*
X24386857Y-15449531D01*
X24396380Y-15401912D01*
X24396380Y-15363817D01*
X24386857Y-15316198D01*
X24377333Y-15287626D01*
X24367809Y-15268579D01*
X24348761Y-15240007D01*
X24339237Y-15230483D01*
D14*
X19552333Y-15617579D02*
X19552333Y-15647579D01*
X19537333Y-15632579D02*
X19567333Y-15632579D01*
D11*
X19863047Y-15523055D02*
X19882095Y-15523055D01*
X19901142Y-15532579D01*
X19910666Y-15542102D01*
X19920190Y-15561150D01*
X19929714Y-15599245D01*
X19929714Y-15646864D01*
X19920190Y-15684959D01*
X19910666Y-15704007D01*
X19901142Y-15713531D01*
X19882095Y-15723055D01*
X19863047Y-15723055D01*
X19843999Y-15713531D01*
X19834476Y-15704007D01*
X19824952Y-15684959D01*
X19815428Y-15646864D01*
X19815428Y-15599245D01*
X19824952Y-15561150D01*
X19834476Y-15542102D01*
X19843999Y-15532579D01*
X19863047Y-15523055D01*
X20015428Y-15704007D02*
X20024952Y-15713531D01*
X20015428Y-15723055D01*
X20005904Y-15713531D01*
X20015428Y-15704007D01*
X20015428Y-15723055D01*
X20091619Y-15523055D02*
X20215428Y-15523055D01*
X20148761Y-15599245D01*
X20177333Y-15599245D01*
X20196380Y-15608769D01*
X20205904Y-15618293D01*
X20215428Y-15637340D01*
X20215428Y-15684959D01*
X20205904Y-15704007D01*
X20196380Y-15713531D01*
X20177333Y-15723055D01*
X20120190Y-15723055D01*
X20101142Y-15713531D01*
X20091619Y-15704007D01*
X20339238Y-15523055D02*
X20358285Y-15523055D01*
X20377333Y-15532579D01*
X20386857Y-15542102D01*
X20396380Y-15561150D01*
X20405904Y-15599245D01*
X20405904Y-15646864D01*
X20396380Y-15684959D01*
X20386857Y-15704007D01*
X20377333Y-15713531D01*
X20358285Y-15723055D01*
X20339238Y-15723055D01*
X20320190Y-15713531D01*
X20310666Y-15704007D01*
X20301142Y-15684959D01*
X20291619Y-15646864D01*
X20291619Y-15599245D01*
X20301142Y-15561150D01*
X20310666Y-15542102D01*
X20320190Y-15532579D01*
X20339238Y-15523055D01*
X20529714Y-15523055D02*
X20548761Y-15523055D01*
X20567809Y-15532579D01*
X20577333Y-15542102D01*
X20586857Y-15561150D01*
X20596380Y-15599245D01*
X20596380Y-15646864D01*
X20586857Y-15684959D01*
X20577333Y-15704007D01*
X20567809Y-15713531D01*
X20548761Y-15723055D01*
X20529714Y-15723055D01*
X20510666Y-15713531D01*
X20501142Y-15704007D01*
X20491619Y-15684959D01*
X20482095Y-15646864D01*
X20482095Y-15599245D01*
X20491619Y-15561150D01*
X20501142Y-15542102D01*
X20510666Y-15532579D01*
X20529714Y-15523055D01*
X20682095Y-15723055D02*
X20682095Y-15589721D01*
X20682095Y-15608769D02*
X20691619Y-15599245D01*
X20710666Y-15589721D01*
X20739238Y-15589721D01*
X20758285Y-15599245D01*
X20767809Y-15618293D01*
X20767809Y-15723055D01*
X20767809Y-15618293D02*
X20777333Y-15599245D01*
X20796380Y-15589721D01*
X20824952Y-15589721D01*
X20843999Y-15599245D01*
X20853523Y-15618293D01*
X20853523Y-15723055D01*
X20948761Y-15723055D02*
X20948761Y-15589721D01*
X20948761Y-15608769D02*
X20958285Y-15599245D01*
X20977333Y-15589721D01*
X21005904Y-15589721D01*
X21024952Y-15599245D01*
X21034476Y-15618293D01*
X21034476Y-15723055D01*
X21034476Y-15618293D02*
X21043999Y-15599245D01*
X21063047Y-15589721D01*
X21091619Y-15589721D01*
X21110666Y-15599245D01*
X21120190Y-15618293D01*
X21120190Y-15723055D01*
X21510666Y-15513531D02*
X21339238Y-15770674D01*
X21767809Y-15523055D02*
X21786857Y-15523055D01*
X21805904Y-15532579D01*
X21815428Y-15542102D01*
X21824952Y-15561150D01*
X21834476Y-15599245D01*
X21834476Y-15646864D01*
X21824952Y-15684959D01*
X21815428Y-15704007D01*
X21805904Y-15713531D01*
X21786857Y-15723055D01*
X21767809Y-15723055D01*
X21748761Y-15713531D01*
X21739238Y-15704007D01*
X21729714Y-15684959D01*
X21720190Y-15646864D01*
X21720190Y-15599245D01*
X21729714Y-15561150D01*
X21739238Y-15542102D01*
X21748761Y-15532579D01*
X21767809Y-15523055D01*
X21920190Y-15704007D02*
X21929714Y-15713531D01*
X21920190Y-15723055D01*
X21910666Y-15713531D01*
X21920190Y-15704007D01*
X21920190Y-15723055D01*
X22053523Y-15523055D02*
X22072571Y-15523055D01*
X22091619Y-15532579D01*
X22101142Y-15542102D01*
X22110666Y-15561150D01*
X22120190Y-15599245D01*
X22120190Y-15646864D01*
X22110666Y-15684959D01*
X22101142Y-15704007D01*
X22091619Y-15713531D01*
X22072571Y-15723055D01*
X22053523Y-15723055D01*
X22034476Y-15713531D01*
X22024952Y-15704007D01*
X22015428Y-15684959D01*
X22005904Y-15646864D01*
X22005904Y-15599245D01*
X22015428Y-15561150D01*
X22024952Y-15542102D01*
X22034476Y-15532579D01*
X22053523Y-15523055D01*
X22310666Y-15723055D02*
X22196380Y-15723055D01*
X22253523Y-15723055D02*
X22253523Y-15523055D01*
X22234476Y-15551626D01*
X22215428Y-15570674D01*
X22196380Y-15580198D01*
X22501142Y-15723055D02*
X22386857Y-15723055D01*
X22443999Y-15723055D02*
X22443999Y-15523055D01*
X22424952Y-15551626D01*
X22405904Y-15570674D01*
X22386857Y-15580198D01*
X22615428Y-15608769D02*
X22596380Y-15599245D01*
X22586857Y-15589721D01*
X22577333Y-15570674D01*
X22577333Y-15561150D01*
X22586857Y-15542102D01*
X22596380Y-15532579D01*
X22615428Y-15523055D01*
X22653523Y-15523055D01*
X22672571Y-15532579D01*
X22682095Y-15542102D01*
X22691618Y-15561150D01*
X22691618Y-15570674D01*
X22682095Y-15589721D01*
X22672571Y-15599245D01*
X22653523Y-15608769D01*
X22615428Y-15608769D01*
X22596380Y-15618293D01*
X22586857Y-15627817D01*
X22577333Y-15646864D01*
X22577333Y-15684959D01*
X22586857Y-15704007D01*
X22596380Y-15713531D01*
X22615428Y-15723055D01*
X22653523Y-15723055D01*
X22672571Y-15713531D01*
X22682095Y-15704007D01*
X22691618Y-15684959D01*
X22691618Y-15646864D01*
X22682095Y-15627817D01*
X22672571Y-15618293D01*
X22653523Y-15608769D01*
X22767809Y-15523055D02*
X22767809Y-15561150D01*
X22843999Y-15523055D02*
X22843999Y-15561150D01*
X23139237Y-15799245D02*
X23129714Y-15789721D01*
X23110666Y-15761150D01*
X23101142Y-15742102D01*
X23091618Y-15713531D01*
X23082095Y-15665912D01*
X23082095Y-15627817D01*
X23091618Y-15580198D01*
X23101142Y-15551626D01*
X23110666Y-15532579D01*
X23129714Y-15504007D01*
X23139237Y-15494483D01*
X23301142Y-15589721D02*
X23301142Y-15723055D01*
X23253523Y-15513531D02*
X23205904Y-15656388D01*
X23329714Y-15656388D01*
X23501142Y-15523055D02*
X23405904Y-15523055D01*
X23396380Y-15618293D01*
X23405904Y-15608769D01*
X23424952Y-15599245D01*
X23472571Y-15599245D01*
X23491618Y-15608769D01*
X23501142Y-15618293D01*
X23510666Y-15637340D01*
X23510666Y-15684959D01*
X23501142Y-15704007D01*
X23491618Y-15713531D01*
X23472571Y-15723055D01*
X23424952Y-15723055D01*
X23405904Y-15713531D01*
X23396380Y-15704007D01*
X23748761Y-15723055D02*
X23748761Y-15523055D01*
X23834476Y-15723055D02*
X23834476Y-15618293D01*
X23824952Y-15599245D01*
X23805904Y-15589721D01*
X23777333Y-15589721D01*
X23758285Y-15599245D01*
X23748761Y-15608769D01*
X23958285Y-15723055D02*
X23939237Y-15713531D01*
X23929714Y-15704007D01*
X23920190Y-15684959D01*
X23920190Y-15627817D01*
X23929714Y-15608769D01*
X23939237Y-15599245D01*
X23958285Y-15589721D01*
X23986857Y-15589721D01*
X24005904Y-15599245D01*
X24015428Y-15608769D01*
X24024952Y-15627817D01*
X24024952Y-15684959D01*
X24015428Y-15704007D01*
X24005904Y-15713531D01*
X23986857Y-15723055D01*
X23958285Y-15723055D01*
X24139237Y-15723055D02*
X24120190Y-15713531D01*
X24110666Y-15694483D01*
X24110666Y-15523055D01*
X24291618Y-15713531D02*
X24272571Y-15723055D01*
X24234476Y-15723055D01*
X24215428Y-15713531D01*
X24205904Y-15694483D01*
X24205904Y-15618293D01*
X24215428Y-15599245D01*
X24234476Y-15589721D01*
X24272571Y-15589721D01*
X24291618Y-15599245D01*
X24301142Y-15618293D01*
X24301142Y-15637340D01*
X24205904Y-15656388D01*
X24377333Y-15713531D02*
X24396380Y-15723055D01*
X24434476Y-15723055D01*
X24453523Y-15713531D01*
X24463047Y-15694483D01*
X24463047Y-15684959D01*
X24453523Y-15665912D01*
X24434476Y-15656388D01*
X24405904Y-15656388D01*
X24386857Y-15646864D01*
X24377333Y-15627817D01*
X24377333Y-15618293D01*
X24386857Y-15599245D01*
X24405904Y-15589721D01*
X24434476Y-15589721D01*
X24453523Y-15599245D01*
X24529714Y-15799245D02*
X24539237Y-15789721D01*
X24558285Y-15761150D01*
X24567809Y-15742102D01*
X24577333Y-15713531D01*
X24586857Y-15665912D01*
X24586857Y-15627817D01*
X24577333Y-15580198D01*
X24567809Y-15551626D01*
X24558285Y-15532579D01*
X24539237Y-15504007D01*
X24529714Y-15494483D01*
D15*
X19561475Y-15910721D02*
X19561475Y-15882436D01*
X19533191Y-15882436D01*
X19533191Y-15910721D01*
X19561475Y-15910721D01*
D11*
X19863047Y-15787055D02*
X19882095Y-15787055D01*
X19901142Y-15796579D01*
X19910666Y-15806102D01*
X19920190Y-15825150D01*
X19929714Y-15863245D01*
X19929714Y-15910864D01*
X19920190Y-15948959D01*
X19910666Y-15968007D01*
X19901142Y-15977531D01*
X19882095Y-15987055D01*
X19863047Y-15987055D01*
X19843999Y-15977531D01*
X19834476Y-15968007D01*
X19824952Y-15948959D01*
X19815428Y-15910864D01*
X19815428Y-15863245D01*
X19824952Y-15825150D01*
X19834476Y-15806102D01*
X19843999Y-15796579D01*
X19863047Y-15787055D01*
X20015428Y-15968007D02*
X20024952Y-15977531D01*
X20015428Y-15987055D01*
X20005904Y-15977531D01*
X20015428Y-15968007D01*
X20015428Y-15987055D01*
X20196380Y-15853721D02*
X20196380Y-15987055D01*
X20148761Y-15777531D02*
X20101142Y-15920388D01*
X20224952Y-15920388D01*
X20339238Y-15787055D02*
X20358285Y-15787055D01*
X20377333Y-15796579D01*
X20386857Y-15806102D01*
X20396380Y-15825150D01*
X20405904Y-15863245D01*
X20405904Y-15910864D01*
X20396380Y-15948959D01*
X20386857Y-15968007D01*
X20377333Y-15977531D01*
X20358285Y-15987055D01*
X20339238Y-15987055D01*
X20320190Y-15977531D01*
X20310666Y-15968007D01*
X20301142Y-15948959D01*
X20291619Y-15910864D01*
X20291619Y-15863245D01*
X20301142Y-15825150D01*
X20310666Y-15806102D01*
X20320190Y-15796579D01*
X20339238Y-15787055D01*
X20529714Y-15787055D02*
X20548761Y-15787055D01*
X20567809Y-15796579D01*
X20577333Y-15806102D01*
X20586857Y-15825150D01*
X20596380Y-15863245D01*
X20596380Y-15910864D01*
X20586857Y-15948959D01*
X20577333Y-15968007D01*
X20567809Y-15977531D01*
X20548761Y-15987055D01*
X20529714Y-15987055D01*
X20510666Y-15977531D01*
X20501142Y-15968007D01*
X20491619Y-15948959D01*
X20482095Y-15910864D01*
X20482095Y-15863245D01*
X20491619Y-15825150D01*
X20501142Y-15806102D01*
X20510666Y-15796579D01*
X20529714Y-15787055D01*
X20682095Y-15987055D02*
X20682095Y-15853721D01*
X20682095Y-15872769D02*
X20691619Y-15863245D01*
X20710666Y-15853721D01*
X20739238Y-15853721D01*
X20758285Y-15863245D01*
X20767809Y-15882293D01*
X20767809Y-15987055D01*
X20767809Y-15882293D02*
X20777333Y-15863245D01*
X20796380Y-15853721D01*
X20824952Y-15853721D01*
X20843999Y-15863245D01*
X20853523Y-15882293D01*
X20853523Y-15987055D01*
X20948761Y-15987055D02*
X20948761Y-15853721D01*
X20948761Y-15872769D02*
X20958285Y-15863245D01*
X20977333Y-15853721D01*
X21005904Y-15853721D01*
X21024952Y-15863245D01*
X21034476Y-15882293D01*
X21034476Y-15987055D01*
X21034476Y-15882293D02*
X21043999Y-15863245D01*
X21063047Y-15853721D01*
X21091619Y-15853721D01*
X21110666Y-15863245D01*
X21120190Y-15882293D01*
X21120190Y-15987055D01*
X21510666Y-15777531D02*
X21339238Y-16034674D01*
X21767809Y-15787055D02*
X21786857Y-15787055D01*
X21805904Y-15796579D01*
X21815428Y-15806102D01*
X21824952Y-15825150D01*
X21834476Y-15863245D01*
X21834476Y-15910864D01*
X21824952Y-15948959D01*
X21815428Y-15968007D01*
X21805904Y-15977531D01*
X21786857Y-15987055D01*
X21767809Y-15987055D01*
X21748761Y-15977531D01*
X21739238Y-15968007D01*
X21729714Y-15948959D01*
X21720190Y-15910864D01*
X21720190Y-15863245D01*
X21729714Y-15825150D01*
X21739238Y-15806102D01*
X21748761Y-15796579D01*
X21767809Y-15787055D01*
X21920190Y-15968007D02*
X21929714Y-15977531D01*
X21920190Y-15987055D01*
X21910666Y-15977531D01*
X21920190Y-15968007D01*
X21920190Y-15987055D01*
X22053523Y-15787055D02*
X22072571Y-15787055D01*
X22091619Y-15796579D01*
X22101142Y-15806102D01*
X22110666Y-15825150D01*
X22120190Y-15863245D01*
X22120190Y-15910864D01*
X22110666Y-15948959D01*
X22101142Y-15968007D01*
X22091619Y-15977531D01*
X22072571Y-15987055D01*
X22053523Y-15987055D01*
X22034476Y-15977531D01*
X22024952Y-15968007D01*
X22015428Y-15948959D01*
X22005904Y-15910864D01*
X22005904Y-15863245D01*
X22015428Y-15825150D01*
X22024952Y-15806102D01*
X22034476Y-15796579D01*
X22053523Y-15787055D01*
X22310666Y-15987055D02*
X22196380Y-15987055D01*
X22253523Y-15987055D02*
X22253523Y-15787055D01*
X22234476Y-15815626D01*
X22215428Y-15834674D01*
X22196380Y-15844198D01*
X22491618Y-15787055D02*
X22396380Y-15787055D01*
X22386857Y-15882293D01*
X22396380Y-15872769D01*
X22415428Y-15863245D01*
X22463047Y-15863245D01*
X22482095Y-15872769D01*
X22491618Y-15882293D01*
X22501142Y-15901340D01*
X22501142Y-15948959D01*
X22491618Y-15968007D01*
X22482095Y-15977531D01*
X22463047Y-15987055D01*
X22415428Y-15987055D01*
X22396380Y-15977531D01*
X22386857Y-15968007D01*
X22567809Y-15787055D02*
X22701142Y-15787055D01*
X22615428Y-15987055D01*
X22767809Y-15787055D02*
X22767809Y-15825150D01*
X22843999Y-15787055D02*
X22843999Y-15825150D01*
X23139237Y-16063245D02*
X23129714Y-16053721D01*
X23110666Y-16025150D01*
X23101142Y-16006102D01*
X23091618Y-15977531D01*
X23082095Y-15929912D01*
X23082095Y-15891817D01*
X23091618Y-15844198D01*
X23101142Y-15815626D01*
X23110666Y-15796579D01*
X23129714Y-15768007D01*
X23139237Y-15758483D01*
X23320190Y-15987055D02*
X23205904Y-15987055D01*
X23263047Y-15987055D02*
X23263047Y-15787055D01*
X23243999Y-15815626D01*
X23224952Y-15834674D01*
X23205904Y-15844198D01*
X23415428Y-15987055D02*
X23453523Y-15987055D01*
X23472571Y-15977531D01*
X23482095Y-15968007D01*
X23501142Y-15939436D01*
X23510666Y-15901340D01*
X23510666Y-15825150D01*
X23501142Y-15806102D01*
X23491618Y-15796579D01*
X23472571Y-15787055D01*
X23434476Y-15787055D01*
X23415428Y-15796579D01*
X23405904Y-15806102D01*
X23396380Y-15825150D01*
X23396380Y-15872769D01*
X23405904Y-15891817D01*
X23415428Y-15901340D01*
X23434476Y-15910864D01*
X23472571Y-15910864D01*
X23491618Y-15901340D01*
X23501142Y-15891817D01*
X23510666Y-15872769D01*
X23586857Y-15806102D02*
X23596380Y-15796579D01*
X23615428Y-15787055D01*
X23663047Y-15787055D01*
X23682095Y-15796579D01*
X23691618Y-15806102D01*
X23701142Y-15825150D01*
X23701142Y-15844198D01*
X23691618Y-15872769D01*
X23577333Y-15987055D01*
X23701142Y-15987055D01*
X23939237Y-15987055D02*
X23939237Y-15787055D01*
X24024952Y-15987055D02*
X24024952Y-15882293D01*
X24015428Y-15863245D01*
X23996380Y-15853721D01*
X23967809Y-15853721D01*
X23948761Y-15863245D01*
X23939237Y-15872769D01*
X24148761Y-15987055D02*
X24129714Y-15977531D01*
X24120190Y-15968007D01*
X24110666Y-15948959D01*
X24110666Y-15891817D01*
X24120190Y-15872769D01*
X24129714Y-15863245D01*
X24148761Y-15853721D01*
X24177333Y-15853721D01*
X24196380Y-15863245D01*
X24205904Y-15872769D01*
X24215428Y-15891817D01*
X24215428Y-15948959D01*
X24205904Y-15968007D01*
X24196380Y-15977531D01*
X24177333Y-15987055D01*
X24148761Y-15987055D01*
X24329714Y-15987055D02*
X24310666Y-15977531D01*
X24301142Y-15958483D01*
X24301142Y-15787055D01*
X24482095Y-15977531D02*
X24463047Y-15987055D01*
X24424952Y-15987055D01*
X24405904Y-15977531D01*
X24396380Y-15958483D01*
X24396380Y-15882293D01*
X24405904Y-15863245D01*
X24424952Y-15853721D01*
X24463047Y-15853721D01*
X24482095Y-15863245D01*
X24491618Y-15882293D01*
X24491618Y-15901340D01*
X24396380Y-15920388D01*
X24567809Y-15977531D02*
X24586857Y-15987055D01*
X24624952Y-15987055D01*
X24643999Y-15977531D01*
X24653523Y-15958483D01*
X24653523Y-15948959D01*
X24643999Y-15929912D01*
X24624952Y-15920388D01*
X24596380Y-15920388D01*
X24577333Y-15910864D01*
X24567809Y-15891817D01*
X24567809Y-15882293D01*
X24577333Y-15863245D01*
X24596380Y-15853721D01*
X24624952Y-15853721D01*
X24643999Y-15863245D01*
X24720190Y-16063245D02*
X24729714Y-16053721D01*
X24748761Y-16025150D01*
X24758285Y-16006102D01*
X24767809Y-15977531D01*
X24777333Y-15929912D01*
X24777333Y-15891817D01*
X24767809Y-15844198D01*
X24758285Y-15815626D01*
X24748761Y-15796579D01*
X24729714Y-15768007D01*
X24720190Y-15758483D01*
D16*
X19532333Y-16195579D02*
X19567333Y-16160579D01*
X19532333Y-16125579D01*
X19497333Y-16160579D01*
X19532333Y-16195579D01*
D11*
X19863047Y-16051055D02*
X19882095Y-16051055D01*
X19901142Y-16060579D01*
X19910666Y-16070102D01*
X19920190Y-16089150D01*
X19929714Y-16127245D01*
X19929714Y-16174864D01*
X19920190Y-16212959D01*
X19910666Y-16232007D01*
X19901142Y-16241531D01*
X19882095Y-16251055D01*
X19863047Y-16251055D01*
X19843999Y-16241531D01*
X19834476Y-16232007D01*
X19824952Y-16212959D01*
X19815428Y-16174864D01*
X19815428Y-16127245D01*
X19824952Y-16089150D01*
X19834476Y-16070102D01*
X19843999Y-16060579D01*
X19863047Y-16051055D01*
X20015428Y-16232007D02*
X20024952Y-16241531D01*
X20015428Y-16251055D01*
X20005904Y-16241531D01*
X20015428Y-16232007D01*
X20015428Y-16251055D01*
X20091619Y-16051055D02*
X20224952Y-16051055D01*
X20139238Y-16251055D01*
X20339238Y-16051055D02*
X20358285Y-16051055D01*
X20377333Y-16060579D01*
X20386857Y-16070102D01*
X20396380Y-16089150D01*
X20405904Y-16127245D01*
X20405904Y-16174864D01*
X20396380Y-16212959D01*
X20386857Y-16232007D01*
X20377333Y-16241531D01*
X20358285Y-16251055D01*
X20339238Y-16251055D01*
X20320190Y-16241531D01*
X20310666Y-16232007D01*
X20301142Y-16212959D01*
X20291619Y-16174864D01*
X20291619Y-16127245D01*
X20301142Y-16089150D01*
X20310666Y-16070102D01*
X20320190Y-16060579D01*
X20339238Y-16051055D01*
X20529714Y-16051055D02*
X20548761Y-16051055D01*
X20567809Y-16060579D01*
X20577333Y-16070102D01*
X20586857Y-16089150D01*
X20596380Y-16127245D01*
X20596380Y-16174864D01*
X20586857Y-16212959D01*
X20577333Y-16232007D01*
X20567809Y-16241531D01*
X20548761Y-16251055D01*
X20529714Y-16251055D01*
X20510666Y-16241531D01*
X20501142Y-16232007D01*
X20491619Y-16212959D01*
X20482095Y-16174864D01*
X20482095Y-16127245D01*
X20491619Y-16089150D01*
X20501142Y-16070102D01*
X20510666Y-16060579D01*
X20529714Y-16051055D01*
X20682095Y-16251055D02*
X20682095Y-16117721D01*
X20682095Y-16136769D02*
X20691619Y-16127245D01*
X20710666Y-16117721D01*
X20739238Y-16117721D01*
X20758285Y-16127245D01*
X20767809Y-16146293D01*
X20767809Y-16251055D01*
X20767809Y-16146293D02*
X20777333Y-16127245D01*
X20796380Y-16117721D01*
X20824952Y-16117721D01*
X20843999Y-16127245D01*
X20853523Y-16146293D01*
X20853523Y-16251055D01*
X20948761Y-16251055D02*
X20948761Y-16117721D01*
X20948761Y-16136769D02*
X20958285Y-16127245D01*
X20977333Y-16117721D01*
X21005904Y-16117721D01*
X21024952Y-16127245D01*
X21034476Y-16146293D01*
X21034476Y-16251055D01*
X21034476Y-16146293D02*
X21043999Y-16127245D01*
X21063047Y-16117721D01*
X21091619Y-16117721D01*
X21110666Y-16127245D01*
X21120190Y-16146293D01*
X21120190Y-16251055D01*
X21510666Y-16041531D02*
X21339238Y-16298674D01*
X21767809Y-16051055D02*
X21786857Y-16051055D01*
X21805904Y-16060579D01*
X21815428Y-16070102D01*
X21824952Y-16089150D01*
X21834476Y-16127245D01*
X21834476Y-16174864D01*
X21824952Y-16212959D01*
X21815428Y-16232007D01*
X21805904Y-16241531D01*
X21786857Y-16251055D01*
X21767809Y-16251055D01*
X21748761Y-16241531D01*
X21739238Y-16232007D01*
X21729714Y-16212959D01*
X21720190Y-16174864D01*
X21720190Y-16127245D01*
X21729714Y-16089150D01*
X21739238Y-16070102D01*
X21748761Y-16060579D01*
X21767809Y-16051055D01*
X21920190Y-16232007D02*
X21929714Y-16241531D01*
X21920190Y-16251055D01*
X21910666Y-16241531D01*
X21920190Y-16232007D01*
X21920190Y-16251055D01*
X22053523Y-16051055D02*
X22072571Y-16051055D01*
X22091619Y-16060579D01*
X22101142Y-16070102D01*
X22110666Y-16089150D01*
X22120190Y-16127245D01*
X22120190Y-16174864D01*
X22110666Y-16212959D01*
X22101142Y-16232007D01*
X22091619Y-16241531D01*
X22072571Y-16251055D01*
X22053523Y-16251055D01*
X22034476Y-16241531D01*
X22024952Y-16232007D01*
X22015428Y-16212959D01*
X22005904Y-16174864D01*
X22005904Y-16127245D01*
X22015428Y-16089150D01*
X22024952Y-16070102D01*
X22034476Y-16060579D01*
X22053523Y-16051055D01*
X22196380Y-16070102D02*
X22205904Y-16060579D01*
X22224952Y-16051055D01*
X22272571Y-16051055D01*
X22291619Y-16060579D01*
X22301142Y-16070102D01*
X22310666Y-16089150D01*
X22310666Y-16108198D01*
X22301142Y-16136769D01*
X22186857Y-16251055D01*
X22310666Y-16251055D01*
X22377333Y-16051055D02*
X22510666Y-16051055D01*
X22424952Y-16251055D01*
X22672571Y-16051055D02*
X22634476Y-16051055D01*
X22615428Y-16060579D01*
X22605904Y-16070102D01*
X22586857Y-16098674D01*
X22577333Y-16136769D01*
X22577333Y-16212959D01*
X22586857Y-16232007D01*
X22596380Y-16241531D01*
X22615428Y-16251055D01*
X22653523Y-16251055D01*
X22672571Y-16241531D01*
X22682095Y-16232007D01*
X22691618Y-16212959D01*
X22691618Y-16165340D01*
X22682095Y-16146293D01*
X22672571Y-16136769D01*
X22653523Y-16127245D01*
X22615428Y-16127245D01*
X22596380Y-16136769D01*
X22586857Y-16146293D01*
X22577333Y-16165340D01*
X22767809Y-16051055D02*
X22767809Y-16089150D01*
X22843999Y-16051055D02*
X22843999Y-16089150D01*
X23139237Y-16327245D02*
X23129714Y-16317721D01*
X23110666Y-16289150D01*
X23101142Y-16270102D01*
X23091618Y-16241531D01*
X23082095Y-16193912D01*
X23082095Y-16155817D01*
X23091618Y-16108198D01*
X23101142Y-16079626D01*
X23110666Y-16060579D01*
X23129714Y-16032007D01*
X23139237Y-16022483D01*
X23205904Y-16070102D02*
X23215428Y-16060579D01*
X23234476Y-16051055D01*
X23282095Y-16051055D01*
X23301142Y-16060579D01*
X23310666Y-16070102D01*
X23320190Y-16089150D01*
X23320190Y-16108198D01*
X23310666Y-16136769D01*
X23196380Y-16251055D01*
X23320190Y-16251055D01*
X23558285Y-16251055D02*
X23558285Y-16051055D01*
X23643999Y-16251055D02*
X23643999Y-16146293D01*
X23634476Y-16127245D01*
X23615428Y-16117721D01*
X23586857Y-16117721D01*
X23567809Y-16127245D01*
X23558285Y-16136769D01*
X23767809Y-16251055D02*
X23748761Y-16241531D01*
X23739237Y-16232007D01*
X23729714Y-16212959D01*
X23729714Y-16155817D01*
X23739237Y-16136769D01*
X23748761Y-16127245D01*
X23767809Y-16117721D01*
X23796380Y-16117721D01*
X23815428Y-16127245D01*
X23824952Y-16136769D01*
X23834476Y-16155817D01*
X23834476Y-16212959D01*
X23824952Y-16232007D01*
X23815428Y-16241531D01*
X23796380Y-16251055D01*
X23767809Y-16251055D01*
X23948761Y-16251055D02*
X23929714Y-16241531D01*
X23920190Y-16222483D01*
X23920190Y-16051055D01*
X24101142Y-16241531D02*
X24082095Y-16251055D01*
X24043999Y-16251055D01*
X24024952Y-16241531D01*
X24015428Y-16222483D01*
X24015428Y-16146293D01*
X24024952Y-16127245D01*
X24043999Y-16117721D01*
X24082095Y-16117721D01*
X24101142Y-16127245D01*
X24110666Y-16146293D01*
X24110666Y-16165340D01*
X24015428Y-16184388D01*
X24186857Y-16241531D02*
X24205904Y-16251055D01*
X24243999Y-16251055D01*
X24263047Y-16241531D01*
X24272571Y-16222483D01*
X24272571Y-16212959D01*
X24263047Y-16193912D01*
X24243999Y-16184388D01*
X24215428Y-16184388D01*
X24196380Y-16174864D01*
X24186857Y-16155817D01*
X24186857Y-16146293D01*
X24196380Y-16127245D01*
X24215428Y-16117721D01*
X24243999Y-16117721D01*
X24263047Y-16127245D01*
X24339237Y-16327245D02*
X24348761Y-16317721D01*
X24367809Y-16289150D01*
X24377333Y-16270102D01*
X24386857Y-16241531D01*
X24396380Y-16193912D01*
X24396380Y-16155817D01*
X24386857Y-16108198D01*
X24377333Y-16079626D01*
X24367809Y-16060579D01*
X24348761Y-16032007D01*
X24339237Y-16022483D01*
D17*
X19492333Y-16387079D02*
X19567333Y-16462079D01*
X19567333Y-16387079D02*
X19492333Y-16462079D01*
X19567333Y-16424579D02*
G75*
G03*
X19567333Y-16424579I-37500J0D01*
G01*
D11*
X19863047Y-16315055D02*
X19882095Y-16315055D01*
X19901142Y-16324579D01*
X19910666Y-16334102D01*
X19920190Y-16353150D01*
X19929714Y-16391245D01*
X19929714Y-16438864D01*
X19920190Y-16476959D01*
X19910666Y-16496007D01*
X19901142Y-16505531D01*
X19882095Y-16515055D01*
X19863047Y-16515055D01*
X19843999Y-16505531D01*
X19834476Y-16496007D01*
X19824952Y-16476959D01*
X19815428Y-16438864D01*
X19815428Y-16391245D01*
X19824952Y-16353150D01*
X19834476Y-16334102D01*
X19843999Y-16324579D01*
X19863047Y-16315055D01*
X20015428Y-16496007D02*
X20024952Y-16505531D01*
X20015428Y-16515055D01*
X20005904Y-16505531D01*
X20015428Y-16496007D01*
X20015428Y-16515055D01*
X20091619Y-16315055D02*
X20224952Y-16315055D01*
X20139238Y-16515055D01*
X20396380Y-16315055D02*
X20301142Y-16315055D01*
X20291619Y-16410293D01*
X20301142Y-16400769D01*
X20320190Y-16391245D01*
X20367809Y-16391245D01*
X20386857Y-16400769D01*
X20396380Y-16410293D01*
X20405904Y-16429340D01*
X20405904Y-16476959D01*
X20396380Y-16496007D01*
X20386857Y-16505531D01*
X20367809Y-16515055D01*
X20320190Y-16515055D01*
X20301142Y-16505531D01*
X20291619Y-16496007D01*
X20529714Y-16315055D02*
X20548761Y-16315055D01*
X20567809Y-16324579D01*
X20577333Y-16334102D01*
X20586857Y-16353150D01*
X20596380Y-16391245D01*
X20596380Y-16438864D01*
X20586857Y-16476959D01*
X20577333Y-16496007D01*
X20567809Y-16505531D01*
X20548761Y-16515055D01*
X20529714Y-16515055D01*
X20510666Y-16505531D01*
X20501142Y-16496007D01*
X20491619Y-16476959D01*
X20482095Y-16438864D01*
X20482095Y-16391245D01*
X20491619Y-16353150D01*
X20501142Y-16334102D01*
X20510666Y-16324579D01*
X20529714Y-16315055D01*
X20682095Y-16515055D02*
X20682095Y-16381721D01*
X20682095Y-16400769D02*
X20691619Y-16391245D01*
X20710666Y-16381721D01*
X20739238Y-16381721D01*
X20758285Y-16391245D01*
X20767809Y-16410293D01*
X20767809Y-16515055D01*
X20767809Y-16410293D02*
X20777333Y-16391245D01*
X20796380Y-16381721D01*
X20824952Y-16381721D01*
X20843999Y-16391245D01*
X20853523Y-16410293D01*
X20853523Y-16515055D01*
X20948761Y-16515055D02*
X20948761Y-16381721D01*
X20948761Y-16400769D02*
X20958285Y-16391245D01*
X20977333Y-16381721D01*
X21005904Y-16381721D01*
X21024952Y-16391245D01*
X21034476Y-16410293D01*
X21034476Y-16515055D01*
X21034476Y-16410293D02*
X21043999Y-16391245D01*
X21063047Y-16381721D01*
X21091619Y-16381721D01*
X21110666Y-16391245D01*
X21120190Y-16410293D01*
X21120190Y-16515055D01*
X21510666Y-16305531D02*
X21339238Y-16562674D01*
X21767809Y-16315055D02*
X21786857Y-16315055D01*
X21805904Y-16324579D01*
X21815428Y-16334102D01*
X21824952Y-16353150D01*
X21834476Y-16391245D01*
X21834476Y-16438864D01*
X21824952Y-16476959D01*
X21815428Y-16496007D01*
X21805904Y-16505531D01*
X21786857Y-16515055D01*
X21767809Y-16515055D01*
X21748761Y-16505531D01*
X21739238Y-16496007D01*
X21729714Y-16476959D01*
X21720190Y-16438864D01*
X21720190Y-16391245D01*
X21729714Y-16353150D01*
X21739238Y-16334102D01*
X21748761Y-16324579D01*
X21767809Y-16315055D01*
X21920190Y-16496007D02*
X21929714Y-16505531D01*
X21920190Y-16515055D01*
X21910666Y-16505531D01*
X21920190Y-16496007D01*
X21920190Y-16515055D01*
X22053523Y-16315055D02*
X22072571Y-16315055D01*
X22091619Y-16324579D01*
X22101142Y-16334102D01*
X22110666Y-16353150D01*
X22120190Y-16391245D01*
X22120190Y-16438864D01*
X22110666Y-16476959D01*
X22101142Y-16496007D01*
X22091619Y-16505531D01*
X22072571Y-16515055D01*
X22053523Y-16515055D01*
X22034476Y-16505531D01*
X22024952Y-16496007D01*
X22015428Y-16476959D01*
X22005904Y-16438864D01*
X22005904Y-16391245D01*
X22015428Y-16353150D01*
X22024952Y-16334102D01*
X22034476Y-16324579D01*
X22053523Y-16315055D01*
X22196380Y-16334102D02*
X22205904Y-16324579D01*
X22224952Y-16315055D01*
X22272571Y-16315055D01*
X22291619Y-16324579D01*
X22301142Y-16334102D01*
X22310666Y-16353150D01*
X22310666Y-16372198D01*
X22301142Y-16400769D01*
X22186857Y-16515055D01*
X22310666Y-16515055D01*
X22405904Y-16515055D02*
X22443999Y-16515055D01*
X22463047Y-16505531D01*
X22472571Y-16496007D01*
X22491618Y-16467436D01*
X22501142Y-16429340D01*
X22501142Y-16353150D01*
X22491618Y-16334102D01*
X22482095Y-16324579D01*
X22463047Y-16315055D01*
X22424952Y-16315055D01*
X22405904Y-16324579D01*
X22396380Y-16334102D01*
X22386857Y-16353150D01*
X22386857Y-16400769D01*
X22396380Y-16419817D01*
X22405904Y-16429340D01*
X22424952Y-16438864D01*
X22463047Y-16438864D01*
X22482095Y-16429340D01*
X22491618Y-16419817D01*
X22501142Y-16400769D01*
X22682095Y-16315055D02*
X22586857Y-16315055D01*
X22577333Y-16410293D01*
X22586857Y-16400769D01*
X22605904Y-16391245D01*
X22653523Y-16391245D01*
X22672571Y-16400769D01*
X22682095Y-16410293D01*
X22691618Y-16429340D01*
X22691618Y-16476959D01*
X22682095Y-16496007D01*
X22672571Y-16505531D01*
X22653523Y-16515055D01*
X22605904Y-16515055D01*
X22586857Y-16505531D01*
X22577333Y-16496007D01*
X22767809Y-16315055D02*
X22767809Y-16353150D01*
X22843999Y-16315055D02*
X22843999Y-16353150D01*
X23139237Y-16591245D02*
X23129714Y-16581721D01*
X23110666Y-16553150D01*
X23101142Y-16534102D01*
X23091618Y-16505531D01*
X23082095Y-16457912D01*
X23082095Y-16419817D01*
X23091618Y-16372198D01*
X23101142Y-16343626D01*
X23110666Y-16324579D01*
X23129714Y-16296007D01*
X23139237Y-16286483D01*
X23301142Y-16315055D02*
X23263047Y-16315055D01*
X23243999Y-16324579D01*
X23234476Y-16334102D01*
X23215428Y-16362674D01*
X23205904Y-16400769D01*
X23205904Y-16476959D01*
X23215428Y-16496007D01*
X23224952Y-16505531D01*
X23243999Y-16515055D01*
X23282095Y-16515055D01*
X23301142Y-16505531D01*
X23310666Y-16496007D01*
X23320190Y-16476959D01*
X23320190Y-16429340D01*
X23310666Y-16410293D01*
X23301142Y-16400769D01*
X23282095Y-16391245D01*
X23243999Y-16391245D01*
X23224952Y-16400769D01*
X23215428Y-16410293D01*
X23205904Y-16429340D01*
X23558285Y-16515055D02*
X23558285Y-16315055D01*
X23643999Y-16515055D02*
X23643999Y-16410293D01*
X23634476Y-16391245D01*
X23615428Y-16381721D01*
X23586857Y-16381721D01*
X23567809Y-16391245D01*
X23558285Y-16400769D01*
X23767809Y-16515055D02*
X23748761Y-16505531D01*
X23739237Y-16496007D01*
X23729714Y-16476959D01*
X23729714Y-16419817D01*
X23739237Y-16400769D01*
X23748761Y-16391245D01*
X23767809Y-16381721D01*
X23796380Y-16381721D01*
X23815428Y-16391245D01*
X23824952Y-16400769D01*
X23834476Y-16419817D01*
X23834476Y-16476959D01*
X23824952Y-16496007D01*
X23815428Y-16505531D01*
X23796380Y-16515055D01*
X23767809Y-16515055D01*
X23948761Y-16515055D02*
X23929714Y-16505531D01*
X23920190Y-16486483D01*
X23920190Y-16315055D01*
X24101142Y-16505531D02*
X24082095Y-16515055D01*
X24043999Y-16515055D01*
X24024952Y-16505531D01*
X24015428Y-16486483D01*
X24015428Y-16410293D01*
X24024952Y-16391245D01*
X24043999Y-16381721D01*
X24082095Y-16381721D01*
X24101142Y-16391245D01*
X24110666Y-16410293D01*
X24110666Y-16429340D01*
X24015428Y-16448388D01*
X24186857Y-16505531D02*
X24205904Y-16515055D01*
X24243999Y-16515055D01*
X24263047Y-16505531D01*
X24272571Y-16486483D01*
X24272571Y-16476959D01*
X24263047Y-16457912D01*
X24243999Y-16448388D01*
X24215428Y-16448388D01*
X24196380Y-16438864D01*
X24186857Y-16419817D01*
X24186857Y-16410293D01*
X24196380Y-16391245D01*
X24215428Y-16381721D01*
X24243999Y-16381721D01*
X24263047Y-16391245D01*
X24339237Y-16591245D02*
X24348761Y-16581721D01*
X24367809Y-16553150D01*
X24377333Y-16534102D01*
X24386857Y-16505531D01*
X24396380Y-16457912D01*
X24396380Y-16419817D01*
X24386857Y-16372198D01*
X24377333Y-16343626D01*
X24367809Y-16324579D01*
X24348761Y-16296007D01*
X24339237Y-16286483D01*
D18*
X19487333Y-16648579D02*
X19567333Y-16728579D01*
X19567333Y-16648579D02*
X19487333Y-16728579D01*
X19527333Y-16648579D02*
X19527333Y-16728579D01*
X19487333Y-16688579D02*
X19567333Y-16688579D01*
D11*
X19863047Y-16579055D02*
X19882095Y-16579055D01*
X19901142Y-16588579D01*
X19910666Y-16598102D01*
X19920190Y-16617150D01*
X19929714Y-16655245D01*
X19929714Y-16702864D01*
X19920190Y-16740959D01*
X19910666Y-16760007D01*
X19901142Y-16769531D01*
X19882095Y-16779055D01*
X19863047Y-16779055D01*
X19843999Y-16769531D01*
X19834476Y-16760007D01*
X19824952Y-16740959D01*
X19815428Y-16702864D01*
X19815428Y-16655245D01*
X19824952Y-16617150D01*
X19834476Y-16598102D01*
X19843999Y-16588579D01*
X19863047Y-16579055D01*
X20015428Y-16760007D02*
X20024952Y-16769531D01*
X20015428Y-16779055D01*
X20005904Y-16769531D01*
X20015428Y-16760007D01*
X20015428Y-16779055D01*
X20139238Y-16664769D02*
X20120190Y-16655245D01*
X20110666Y-16645721D01*
X20101142Y-16626674D01*
X20101142Y-16617150D01*
X20110666Y-16598102D01*
X20120190Y-16588579D01*
X20139238Y-16579055D01*
X20177333Y-16579055D01*
X20196380Y-16588579D01*
X20205904Y-16598102D01*
X20215428Y-16617150D01*
X20215428Y-16626674D01*
X20205904Y-16645721D01*
X20196380Y-16655245D01*
X20177333Y-16664769D01*
X20139238Y-16664769D01*
X20120190Y-16674293D01*
X20110666Y-16683817D01*
X20101142Y-16702864D01*
X20101142Y-16740959D01*
X20110666Y-16760007D01*
X20120190Y-16769531D01*
X20139238Y-16779055D01*
X20177333Y-16779055D01*
X20196380Y-16769531D01*
X20205904Y-16760007D01*
X20215428Y-16740959D01*
X20215428Y-16702864D01*
X20205904Y-16683817D01*
X20196380Y-16674293D01*
X20177333Y-16664769D01*
X20339238Y-16579055D02*
X20358285Y-16579055D01*
X20377333Y-16588579D01*
X20386857Y-16598102D01*
X20396380Y-16617150D01*
X20405904Y-16655245D01*
X20405904Y-16702864D01*
X20396380Y-16740959D01*
X20386857Y-16760007D01*
X20377333Y-16769531D01*
X20358285Y-16779055D01*
X20339238Y-16779055D01*
X20320190Y-16769531D01*
X20310666Y-16760007D01*
X20301142Y-16740959D01*
X20291619Y-16702864D01*
X20291619Y-16655245D01*
X20301142Y-16617150D01*
X20310666Y-16598102D01*
X20320190Y-16588579D01*
X20339238Y-16579055D01*
X20529714Y-16579055D02*
X20548761Y-16579055D01*
X20567809Y-16588579D01*
X20577333Y-16598102D01*
X20586857Y-16617150D01*
X20596380Y-16655245D01*
X20596380Y-16702864D01*
X20586857Y-16740959D01*
X20577333Y-16760007D01*
X20567809Y-16769531D01*
X20548761Y-16779055D01*
X20529714Y-16779055D01*
X20510666Y-16769531D01*
X20501142Y-16760007D01*
X20491619Y-16740959D01*
X20482095Y-16702864D01*
X20482095Y-16655245D01*
X20491619Y-16617150D01*
X20501142Y-16598102D01*
X20510666Y-16588579D01*
X20529714Y-16579055D01*
X20682095Y-16779055D02*
X20682095Y-16645721D01*
X20682095Y-16664769D02*
X20691619Y-16655245D01*
X20710666Y-16645721D01*
X20739238Y-16645721D01*
X20758285Y-16655245D01*
X20767809Y-16674293D01*
X20767809Y-16779055D01*
X20767809Y-16674293D02*
X20777333Y-16655245D01*
X20796380Y-16645721D01*
X20824952Y-16645721D01*
X20843999Y-16655245D01*
X20853523Y-16674293D01*
X20853523Y-16779055D01*
X20948761Y-16779055D02*
X20948761Y-16645721D01*
X20948761Y-16664769D02*
X20958285Y-16655245D01*
X20977333Y-16645721D01*
X21005904Y-16645721D01*
X21024952Y-16655245D01*
X21034476Y-16674293D01*
X21034476Y-16779055D01*
X21034476Y-16674293D02*
X21043999Y-16655245D01*
X21063047Y-16645721D01*
X21091619Y-16645721D01*
X21110666Y-16655245D01*
X21120190Y-16674293D01*
X21120190Y-16779055D01*
X21510666Y-16569531D02*
X21339238Y-16826674D01*
X21767809Y-16579055D02*
X21786857Y-16579055D01*
X21805904Y-16588579D01*
X21815428Y-16598102D01*
X21824952Y-16617150D01*
X21834476Y-16655245D01*
X21834476Y-16702864D01*
X21824952Y-16740959D01*
X21815428Y-16760007D01*
X21805904Y-16769531D01*
X21786857Y-16779055D01*
X21767809Y-16779055D01*
X21748761Y-16769531D01*
X21739238Y-16760007D01*
X21729714Y-16740959D01*
X21720190Y-16702864D01*
X21720190Y-16655245D01*
X21729714Y-16617150D01*
X21739238Y-16598102D01*
X21748761Y-16588579D01*
X21767809Y-16579055D01*
X21920190Y-16760007D02*
X21929714Y-16769531D01*
X21920190Y-16779055D01*
X21910666Y-16769531D01*
X21920190Y-16760007D01*
X21920190Y-16779055D01*
X22053523Y-16579055D02*
X22072571Y-16579055D01*
X22091619Y-16588579D01*
X22101142Y-16598102D01*
X22110666Y-16617150D01*
X22120190Y-16655245D01*
X22120190Y-16702864D01*
X22110666Y-16740959D01*
X22101142Y-16760007D01*
X22091619Y-16769531D01*
X22072571Y-16779055D01*
X22053523Y-16779055D01*
X22034476Y-16769531D01*
X22024952Y-16760007D01*
X22015428Y-16740959D01*
X22005904Y-16702864D01*
X22005904Y-16655245D01*
X22015428Y-16617150D01*
X22024952Y-16598102D01*
X22034476Y-16588579D01*
X22053523Y-16579055D01*
X22186857Y-16579055D02*
X22310666Y-16579055D01*
X22243999Y-16655245D01*
X22272571Y-16655245D01*
X22291619Y-16664769D01*
X22301142Y-16674293D01*
X22310666Y-16693340D01*
X22310666Y-16740959D01*
X22301142Y-16760007D01*
X22291619Y-16769531D01*
X22272571Y-16779055D01*
X22215428Y-16779055D01*
X22196380Y-16769531D01*
X22186857Y-16760007D01*
X22501142Y-16779055D02*
X22386857Y-16779055D01*
X22443999Y-16779055D02*
X22443999Y-16579055D01*
X22424952Y-16607626D01*
X22405904Y-16626674D01*
X22386857Y-16636198D01*
X22682095Y-16579055D02*
X22586857Y-16579055D01*
X22577333Y-16674293D01*
X22586857Y-16664769D01*
X22605904Y-16655245D01*
X22653523Y-16655245D01*
X22672571Y-16664769D01*
X22682095Y-16674293D01*
X22691618Y-16693340D01*
X22691618Y-16740959D01*
X22682095Y-16760007D01*
X22672571Y-16769531D01*
X22653523Y-16779055D01*
X22605904Y-16779055D01*
X22586857Y-16769531D01*
X22577333Y-16760007D01*
X22767809Y-16579055D02*
X22767809Y-16617150D01*
X22843999Y-16579055D02*
X22843999Y-16617150D01*
X23139237Y-16855245D02*
X23129714Y-16845721D01*
X23110666Y-16817150D01*
X23101142Y-16798102D01*
X23091618Y-16769531D01*
X23082095Y-16721912D01*
X23082095Y-16683817D01*
X23091618Y-16636198D01*
X23101142Y-16607626D01*
X23110666Y-16588579D01*
X23129714Y-16560007D01*
X23139237Y-16550483D01*
X23301142Y-16645721D02*
X23301142Y-16779055D01*
X23253523Y-16569531D02*
X23205904Y-16712388D01*
X23329714Y-16712388D01*
X23558285Y-16779055D02*
X23558285Y-16579055D01*
X23643999Y-16779055D02*
X23643999Y-16674293D01*
X23634476Y-16655245D01*
X23615428Y-16645721D01*
X23586857Y-16645721D01*
X23567809Y-16655245D01*
X23558285Y-16664769D01*
X23767809Y-16779055D02*
X23748761Y-16769531D01*
X23739237Y-16760007D01*
X23729714Y-16740959D01*
X23729714Y-16683817D01*
X23739237Y-16664769D01*
X23748761Y-16655245D01*
X23767809Y-16645721D01*
X23796380Y-16645721D01*
X23815428Y-16655245D01*
X23824952Y-16664769D01*
X23834476Y-16683817D01*
X23834476Y-16740959D01*
X23824952Y-16760007D01*
X23815428Y-16769531D01*
X23796380Y-16779055D01*
X23767809Y-16779055D01*
X23948761Y-16779055D02*
X23929714Y-16769531D01*
X23920190Y-16750483D01*
X23920190Y-16579055D01*
X24101142Y-16769531D02*
X24082095Y-16779055D01*
X24043999Y-16779055D01*
X24024952Y-16769531D01*
X24015428Y-16750483D01*
X24015428Y-16674293D01*
X24024952Y-16655245D01*
X24043999Y-16645721D01*
X24082095Y-16645721D01*
X24101142Y-16655245D01*
X24110666Y-16674293D01*
X24110666Y-16693340D01*
X24015428Y-16712388D01*
X24186857Y-16769531D02*
X24205904Y-16779055D01*
X24243999Y-16779055D01*
X24263047Y-16769531D01*
X24272571Y-16750483D01*
X24272571Y-16740959D01*
X24263047Y-16721912D01*
X24243999Y-16712388D01*
X24215428Y-16712388D01*
X24196380Y-16702864D01*
X24186857Y-16683817D01*
X24186857Y-16674293D01*
X24196380Y-16655245D01*
X24215428Y-16645721D01*
X24243999Y-16645721D01*
X24263047Y-16655245D01*
X24510666Y-16702864D02*
X24663047Y-16702864D01*
X24586857Y-16779055D02*
X24586857Y-16626674D01*
X24901142Y-16598102D02*
X24910666Y-16588579D01*
X24929714Y-16579055D01*
X24977333Y-16579055D01*
X24996380Y-16588579D01*
X25005904Y-16598102D01*
X25015428Y-16617150D01*
X25015428Y-16636198D01*
X25005904Y-16664769D01*
X24891618Y-16779055D01*
X25015428Y-16779055D01*
X25243999Y-16769531D02*
X25263047Y-16779055D01*
X25301142Y-16779055D01*
X25320190Y-16769531D01*
X25329714Y-16750483D01*
X25329714Y-16740959D01*
X25320190Y-16721912D01*
X25301142Y-16712388D01*
X25272571Y-16712388D01*
X25253523Y-16702864D01*
X25243999Y-16683817D01*
X25243999Y-16674293D01*
X25253523Y-16655245D01*
X25272571Y-16645721D01*
X25301142Y-16645721D01*
X25320190Y-16655245D01*
X25443999Y-16779055D02*
X25424952Y-16769531D01*
X25415428Y-16750483D01*
X25415428Y-16579055D01*
X25548761Y-16779055D02*
X25529714Y-16769531D01*
X25520190Y-16760007D01*
X25510666Y-16740959D01*
X25510666Y-16683817D01*
X25520190Y-16664769D01*
X25529714Y-16655245D01*
X25548761Y-16645721D01*
X25577333Y-16645721D01*
X25596380Y-16655245D01*
X25605904Y-16664769D01*
X25615428Y-16683817D01*
X25615428Y-16740959D01*
X25605904Y-16760007D01*
X25596380Y-16769531D01*
X25577333Y-16779055D01*
X25548761Y-16779055D01*
X25672571Y-16645721D02*
X25748761Y-16645721D01*
X25701142Y-16579055D02*
X25701142Y-16750483D01*
X25710666Y-16769531D01*
X25729714Y-16779055D01*
X25748761Y-16779055D01*
X25805904Y-16769531D02*
X25824952Y-16779055D01*
X25863047Y-16779055D01*
X25882095Y-16769531D01*
X25891618Y-16750483D01*
X25891618Y-16740959D01*
X25882095Y-16721912D01*
X25863047Y-16712388D01*
X25834476Y-16712388D01*
X25815428Y-16702864D01*
X25805904Y-16683817D01*
X25805904Y-16674293D01*
X25815428Y-16655245D01*
X25834476Y-16645721D01*
X25863047Y-16645721D01*
X25882095Y-16655245D01*
X25958285Y-16855245D02*
X25967809Y-16845721D01*
X25986857Y-16817150D01*
X25996380Y-16798102D01*
X26005904Y-16769531D01*
X26015428Y-16721912D01*
X26015428Y-16683817D01*
X26005904Y-16636198D01*
X25996380Y-16607626D01*
X25986857Y-16588579D01*
X25967809Y-16560007D01*
X25958285Y-16550483D01*
D19*
X19477333Y-16907579D02*
X19567333Y-16997579D01*
X19567333Y-16907579D02*
X19477333Y-16997579D01*
X19554153Y-16984399D02*
X19554153Y-16920759D01*
X19490513Y-16920759D01*
X19490513Y-16984399D01*
X19554153Y-16984399D01*
D11*
X19863047Y-16843055D02*
X19882095Y-16843055D01*
X19901142Y-16852579D01*
X19910666Y-16862102D01*
X19920190Y-16881150D01*
X19929714Y-16919245D01*
X19929714Y-16966864D01*
X19920190Y-17004960D01*
X19910666Y-17024007D01*
X19901142Y-17033531D01*
X19882095Y-17043055D01*
X19863047Y-17043055D01*
X19843999Y-17033531D01*
X19834476Y-17024007D01*
X19824952Y-17004960D01*
X19815428Y-16966864D01*
X19815428Y-16919245D01*
X19824952Y-16881150D01*
X19834476Y-16862102D01*
X19843999Y-16852579D01*
X19863047Y-16843055D01*
X20015428Y-17024007D02*
X20024952Y-17033531D01*
X20015428Y-17043055D01*
X20005904Y-17033531D01*
X20015428Y-17024007D01*
X20015428Y-17043055D01*
X20120190Y-17043055D02*
X20158285Y-17043055D01*
X20177333Y-17033531D01*
X20186857Y-17024007D01*
X20205904Y-16995436D01*
X20215428Y-16957341D01*
X20215428Y-16881150D01*
X20205904Y-16862102D01*
X20196380Y-16852579D01*
X20177333Y-16843055D01*
X20139238Y-16843055D01*
X20120190Y-16852579D01*
X20110666Y-16862102D01*
X20101142Y-16881150D01*
X20101142Y-16928769D01*
X20110666Y-16947817D01*
X20120190Y-16957341D01*
X20139238Y-16966864D01*
X20177333Y-16966864D01*
X20196380Y-16957341D01*
X20205904Y-16947817D01*
X20215428Y-16928769D01*
X20339238Y-16843055D02*
X20358285Y-16843055D01*
X20377333Y-16852579D01*
X20386857Y-16862102D01*
X20396380Y-16881150D01*
X20405904Y-16919245D01*
X20405904Y-16966864D01*
X20396380Y-17004960D01*
X20386857Y-17024007D01*
X20377333Y-17033531D01*
X20358285Y-17043055D01*
X20339238Y-17043055D01*
X20320190Y-17033531D01*
X20310666Y-17024007D01*
X20301142Y-17004960D01*
X20291619Y-16966864D01*
X20291619Y-16919245D01*
X20301142Y-16881150D01*
X20310666Y-16862102D01*
X20320190Y-16852579D01*
X20339238Y-16843055D01*
X20529714Y-16843055D02*
X20548761Y-16843055D01*
X20567809Y-16852579D01*
X20577333Y-16862102D01*
X20586857Y-16881150D01*
X20596380Y-16919245D01*
X20596380Y-16966864D01*
X20586857Y-17004960D01*
X20577333Y-17024007D01*
X20567809Y-17033531D01*
X20548761Y-17043055D01*
X20529714Y-17043055D01*
X20510666Y-17033531D01*
X20501142Y-17024007D01*
X20491619Y-17004960D01*
X20482095Y-16966864D01*
X20482095Y-16919245D01*
X20491619Y-16881150D01*
X20501142Y-16862102D01*
X20510666Y-16852579D01*
X20529714Y-16843055D01*
X20682095Y-17043055D02*
X20682095Y-16909721D01*
X20682095Y-16928769D02*
X20691619Y-16919245D01*
X20710666Y-16909721D01*
X20739238Y-16909721D01*
X20758285Y-16919245D01*
X20767809Y-16938293D01*
X20767809Y-17043055D01*
X20767809Y-16938293D02*
X20777333Y-16919245D01*
X20796380Y-16909721D01*
X20824952Y-16909721D01*
X20843999Y-16919245D01*
X20853523Y-16938293D01*
X20853523Y-17043055D01*
X20948761Y-17043055D02*
X20948761Y-16909721D01*
X20948761Y-16928769D02*
X20958285Y-16919245D01*
X20977333Y-16909721D01*
X21005904Y-16909721D01*
X21024952Y-16919245D01*
X21034476Y-16938293D01*
X21034476Y-17043055D01*
X21034476Y-16938293D02*
X21043999Y-16919245D01*
X21063047Y-16909721D01*
X21091619Y-16909721D01*
X21110666Y-16919245D01*
X21120190Y-16938293D01*
X21120190Y-17043055D01*
X21510666Y-16833531D02*
X21339238Y-17090674D01*
X21767809Y-16843055D02*
X21786857Y-16843055D01*
X21805904Y-16852579D01*
X21815428Y-16862102D01*
X21824952Y-16881150D01*
X21834476Y-16919245D01*
X21834476Y-16966864D01*
X21824952Y-17004960D01*
X21815428Y-17024007D01*
X21805904Y-17033531D01*
X21786857Y-17043055D01*
X21767809Y-17043055D01*
X21748761Y-17033531D01*
X21739238Y-17024007D01*
X21729714Y-17004960D01*
X21720190Y-16966864D01*
X21720190Y-16919245D01*
X21729714Y-16881150D01*
X21739238Y-16862102D01*
X21748761Y-16852579D01*
X21767809Y-16843055D01*
X21920190Y-17024007D02*
X21929714Y-17033531D01*
X21920190Y-17043055D01*
X21910666Y-17033531D01*
X21920190Y-17024007D01*
X21920190Y-17043055D01*
X22053523Y-16843055D02*
X22072571Y-16843055D01*
X22091619Y-16852579D01*
X22101142Y-16862102D01*
X22110666Y-16881150D01*
X22120190Y-16919245D01*
X22120190Y-16966864D01*
X22110666Y-17004960D01*
X22101142Y-17024007D01*
X22091619Y-17033531D01*
X22072571Y-17043055D01*
X22053523Y-17043055D01*
X22034476Y-17033531D01*
X22024952Y-17024007D01*
X22015428Y-17004960D01*
X22005904Y-16966864D01*
X22005904Y-16919245D01*
X22015428Y-16881150D01*
X22024952Y-16862102D01*
X22034476Y-16852579D01*
X22053523Y-16843055D01*
X22186857Y-16843055D02*
X22310666Y-16843055D01*
X22243999Y-16919245D01*
X22272571Y-16919245D01*
X22291619Y-16928769D01*
X22301142Y-16938293D01*
X22310666Y-16957341D01*
X22310666Y-17004960D01*
X22301142Y-17024007D01*
X22291619Y-17033531D01*
X22272571Y-17043055D01*
X22215428Y-17043055D01*
X22196380Y-17033531D01*
X22186857Y-17024007D01*
X22491618Y-16843055D02*
X22396380Y-16843055D01*
X22386857Y-16938293D01*
X22396380Y-16928769D01*
X22415428Y-16919245D01*
X22463047Y-16919245D01*
X22482095Y-16928769D01*
X22491618Y-16938293D01*
X22501142Y-16957341D01*
X22501142Y-17004960D01*
X22491618Y-17024007D01*
X22482095Y-17033531D01*
X22463047Y-17043055D01*
X22415428Y-17043055D01*
X22396380Y-17033531D01*
X22386857Y-17024007D01*
X22672571Y-16909721D02*
X22672571Y-17043055D01*
X22624952Y-16833531D02*
X22577333Y-16976388D01*
X22701142Y-16976388D01*
X22767809Y-16843055D02*
X22767809Y-16881150D01*
X22843999Y-16843055D02*
X22843999Y-16881150D01*
X23139237Y-17119245D02*
X23129714Y-17109721D01*
X23110666Y-17081150D01*
X23101142Y-17062102D01*
X23091618Y-17033531D01*
X23082095Y-16985912D01*
X23082095Y-16947817D01*
X23091618Y-16900198D01*
X23101142Y-16871626D01*
X23110666Y-16852579D01*
X23129714Y-16824007D01*
X23139237Y-16814483D01*
X23196380Y-16843055D02*
X23320190Y-16843055D01*
X23253523Y-16919245D01*
X23282095Y-16919245D01*
X23301142Y-16928769D01*
X23310666Y-16938293D01*
X23320190Y-16957341D01*
X23320190Y-17004960D01*
X23310666Y-17024007D01*
X23301142Y-17033531D01*
X23282095Y-17043055D01*
X23224952Y-17043055D01*
X23205904Y-17033531D01*
X23196380Y-17024007D01*
X23558285Y-17043055D02*
X23558285Y-16843055D01*
X23643999Y-17043055D02*
X23643999Y-16938293D01*
X23634476Y-16919245D01*
X23615428Y-16909721D01*
X23586857Y-16909721D01*
X23567809Y-16919245D01*
X23558285Y-16928769D01*
X23767809Y-17043055D02*
X23748761Y-17033531D01*
X23739237Y-17024007D01*
X23729714Y-17004960D01*
X23729714Y-16947817D01*
X23739237Y-16928769D01*
X23748761Y-16919245D01*
X23767809Y-16909721D01*
X23796380Y-16909721D01*
X23815428Y-16919245D01*
X23824952Y-16928769D01*
X23834476Y-16947817D01*
X23834476Y-17004960D01*
X23824952Y-17024007D01*
X23815428Y-17033531D01*
X23796380Y-17043055D01*
X23767809Y-17043055D01*
X23948761Y-17043055D02*
X23929714Y-17033531D01*
X23920190Y-17014483D01*
X23920190Y-16843055D01*
X24101142Y-17033531D02*
X24082095Y-17043055D01*
X24043999Y-17043055D01*
X24024952Y-17033531D01*
X24015428Y-17014483D01*
X24015428Y-16938293D01*
X24024952Y-16919245D01*
X24043999Y-16909721D01*
X24082095Y-16909721D01*
X24101142Y-16919245D01*
X24110666Y-16938293D01*
X24110666Y-16957341D01*
X24015428Y-16976388D01*
X24186857Y-17033531D02*
X24205904Y-17043055D01*
X24243999Y-17043055D01*
X24263047Y-17033531D01*
X24272571Y-17014483D01*
X24272571Y-17004960D01*
X24263047Y-16985912D01*
X24243999Y-16976388D01*
X24215428Y-16976388D01*
X24196380Y-16966864D01*
X24186857Y-16947817D01*
X24186857Y-16938293D01*
X24196380Y-16919245D01*
X24215428Y-16909721D01*
X24243999Y-16909721D01*
X24263047Y-16919245D01*
X24339237Y-17119245D02*
X24348761Y-17109721D01*
X24367809Y-17081150D01*
X24377333Y-17062102D01*
X24386857Y-17033531D01*
X24396380Y-16985912D01*
X24396380Y-16947817D01*
X24386857Y-16900198D01*
X24377333Y-16871626D01*
X24367809Y-16852579D01*
X24348761Y-16824007D01*
X24339237Y-16814483D01*
D10*
X19467333Y-17166579D02*
X19567333Y-17266579D01*
X19567333Y-17166579D02*
X19467333Y-17266579D01*
X19517333Y-17266579D02*
X19567333Y-17216579D01*
X19517333Y-17166579D01*
X19467333Y-17216579D01*
X19517333Y-17266579D01*
D11*
X19929714Y-17307055D02*
X19815428Y-17307055D01*
X19872571Y-17307055D02*
X19872571Y-17107055D01*
X19853523Y-17135626D01*
X19834476Y-17154674D01*
X19815428Y-17164198D01*
X20015428Y-17288007D02*
X20024952Y-17297531D01*
X20015428Y-17307055D01*
X20005904Y-17297531D01*
X20015428Y-17288007D01*
X20015428Y-17307055D01*
X20148761Y-17107055D02*
X20167809Y-17107055D01*
X20186857Y-17116579D01*
X20196380Y-17126102D01*
X20205904Y-17145150D01*
X20215428Y-17183245D01*
X20215428Y-17230864D01*
X20205904Y-17268960D01*
X20196380Y-17288007D01*
X20186857Y-17297531D01*
X20167809Y-17307055D01*
X20148761Y-17307055D01*
X20129714Y-17297531D01*
X20120190Y-17288007D01*
X20110666Y-17268960D01*
X20101142Y-17230864D01*
X20101142Y-17183245D01*
X20110666Y-17145150D01*
X20120190Y-17126102D01*
X20129714Y-17116579D01*
X20148761Y-17107055D01*
X20339238Y-17107055D02*
X20358285Y-17107055D01*
X20377333Y-17116579D01*
X20386857Y-17126102D01*
X20396380Y-17145150D01*
X20405904Y-17183245D01*
X20405904Y-17230864D01*
X20396380Y-17268960D01*
X20386857Y-17288007D01*
X20377333Y-17297531D01*
X20358285Y-17307055D01*
X20339238Y-17307055D01*
X20320190Y-17297531D01*
X20310666Y-17288007D01*
X20301142Y-17268960D01*
X20291619Y-17230864D01*
X20291619Y-17183245D01*
X20301142Y-17145150D01*
X20310666Y-17126102D01*
X20320190Y-17116579D01*
X20339238Y-17107055D01*
X20529714Y-17107055D02*
X20548761Y-17107055D01*
X20567809Y-17116579D01*
X20577333Y-17126102D01*
X20586857Y-17145150D01*
X20596380Y-17183245D01*
X20596380Y-17230864D01*
X20586857Y-17268960D01*
X20577333Y-17288007D01*
X20567809Y-17297531D01*
X20548761Y-17307055D01*
X20529714Y-17307055D01*
X20510666Y-17297531D01*
X20501142Y-17288007D01*
X20491619Y-17268960D01*
X20482095Y-17230864D01*
X20482095Y-17183245D01*
X20491619Y-17145150D01*
X20501142Y-17126102D01*
X20510666Y-17116579D01*
X20529714Y-17107055D01*
X20682095Y-17307055D02*
X20682095Y-17173721D01*
X20682095Y-17192769D02*
X20691619Y-17183245D01*
X20710666Y-17173721D01*
X20739238Y-17173721D01*
X20758285Y-17183245D01*
X20767809Y-17202293D01*
X20767809Y-17307055D01*
X20767809Y-17202293D02*
X20777333Y-17183245D01*
X20796380Y-17173721D01*
X20824952Y-17173721D01*
X20843999Y-17183245D01*
X20853523Y-17202293D01*
X20853523Y-17307055D01*
X20948761Y-17307055D02*
X20948761Y-17173721D01*
X20948761Y-17192769D02*
X20958285Y-17183245D01*
X20977333Y-17173721D01*
X21005904Y-17173721D01*
X21024952Y-17183245D01*
X21034476Y-17202293D01*
X21034476Y-17307055D01*
X21034476Y-17202293D02*
X21043999Y-17183245D01*
X21063047Y-17173721D01*
X21091619Y-17173721D01*
X21110666Y-17183245D01*
X21120190Y-17202293D01*
X21120190Y-17307055D01*
X21510666Y-17097531D02*
X21339238Y-17354674D01*
X21767809Y-17107055D02*
X21786857Y-17107055D01*
X21805904Y-17116579D01*
X21815428Y-17126102D01*
X21824952Y-17145150D01*
X21834476Y-17183245D01*
X21834476Y-17230864D01*
X21824952Y-17268960D01*
X21815428Y-17288007D01*
X21805904Y-17297531D01*
X21786857Y-17307055D01*
X21767809Y-17307055D01*
X21748761Y-17297531D01*
X21739238Y-17288007D01*
X21729714Y-17268960D01*
X21720190Y-17230864D01*
X21720190Y-17183245D01*
X21729714Y-17145150D01*
X21739238Y-17126102D01*
X21748761Y-17116579D01*
X21767809Y-17107055D01*
X21920190Y-17288007D02*
X21929714Y-17297531D01*
X21920190Y-17307055D01*
X21910666Y-17297531D01*
X21920190Y-17288007D01*
X21920190Y-17307055D01*
X22053523Y-17107055D02*
X22072571Y-17107055D01*
X22091619Y-17116579D01*
X22101142Y-17126102D01*
X22110666Y-17145150D01*
X22120190Y-17183245D01*
X22120190Y-17230864D01*
X22110666Y-17268960D01*
X22101142Y-17288007D01*
X22091619Y-17297531D01*
X22072571Y-17307055D01*
X22053523Y-17307055D01*
X22034476Y-17297531D01*
X22024952Y-17288007D01*
X22015428Y-17268960D01*
X22005904Y-17230864D01*
X22005904Y-17183245D01*
X22015428Y-17145150D01*
X22024952Y-17126102D01*
X22034476Y-17116579D01*
X22053523Y-17107055D01*
X22186857Y-17107055D02*
X22310666Y-17107055D01*
X22243999Y-17183245D01*
X22272571Y-17183245D01*
X22291619Y-17192769D01*
X22301142Y-17202293D01*
X22310666Y-17221341D01*
X22310666Y-17268960D01*
X22301142Y-17288007D01*
X22291619Y-17297531D01*
X22272571Y-17307055D01*
X22215428Y-17307055D01*
X22196380Y-17297531D01*
X22186857Y-17288007D01*
X22405904Y-17307055D02*
X22443999Y-17307055D01*
X22463047Y-17297531D01*
X22472571Y-17288007D01*
X22491618Y-17259436D01*
X22501142Y-17221341D01*
X22501142Y-17145150D01*
X22491618Y-17126102D01*
X22482095Y-17116579D01*
X22463047Y-17107055D01*
X22424952Y-17107055D01*
X22405904Y-17116579D01*
X22396380Y-17126102D01*
X22386857Y-17145150D01*
X22386857Y-17192769D01*
X22396380Y-17211817D01*
X22405904Y-17221341D01*
X22424952Y-17230864D01*
X22463047Y-17230864D01*
X22482095Y-17221341D01*
X22491618Y-17211817D01*
X22501142Y-17192769D01*
X22672571Y-17173721D02*
X22672571Y-17307055D01*
X22624952Y-17097531D02*
X22577333Y-17240388D01*
X22701142Y-17240388D01*
X22767809Y-17107055D02*
X22767809Y-17145150D01*
X22843999Y-17107055D02*
X22843999Y-17145150D01*
X23139237Y-17383245D02*
X23129714Y-17373721D01*
X23110666Y-17345150D01*
X23101142Y-17326102D01*
X23091618Y-17297531D01*
X23082095Y-17249912D01*
X23082095Y-17211817D01*
X23091618Y-17164198D01*
X23101142Y-17135626D01*
X23110666Y-17116579D01*
X23129714Y-17088007D01*
X23139237Y-17078483D01*
X23320190Y-17307055D02*
X23205904Y-17307055D01*
X23263047Y-17307055D02*
X23263047Y-17107055D01*
X23243999Y-17135626D01*
X23224952Y-17154674D01*
X23205904Y-17164198D01*
X23386857Y-17107055D02*
X23510666Y-17107055D01*
X23443999Y-17183245D01*
X23472571Y-17183245D01*
X23491618Y-17192769D01*
X23501142Y-17202293D01*
X23510666Y-17221341D01*
X23510666Y-17268960D01*
X23501142Y-17288007D01*
X23491618Y-17297531D01*
X23472571Y-17307055D01*
X23415428Y-17307055D01*
X23396380Y-17297531D01*
X23386857Y-17288007D01*
X23624952Y-17192769D02*
X23605904Y-17183245D01*
X23596380Y-17173721D01*
X23586857Y-17154674D01*
X23586857Y-17145150D01*
X23596380Y-17126102D01*
X23605904Y-17116579D01*
X23624952Y-17107055D01*
X23663047Y-17107055D01*
X23682095Y-17116579D01*
X23691618Y-17126102D01*
X23701142Y-17145150D01*
X23701142Y-17154674D01*
X23691618Y-17173721D01*
X23682095Y-17183245D01*
X23663047Y-17192769D01*
X23624952Y-17192769D01*
X23605904Y-17202293D01*
X23596380Y-17211817D01*
X23586857Y-17230864D01*
X23586857Y-17268960D01*
X23596380Y-17288007D01*
X23605904Y-17297531D01*
X23624952Y-17307055D01*
X23663047Y-17307055D01*
X23682095Y-17297531D01*
X23691618Y-17288007D01*
X23701142Y-17268960D01*
X23701142Y-17230864D01*
X23691618Y-17211817D01*
X23682095Y-17202293D01*
X23663047Y-17192769D01*
X23939237Y-17307055D02*
X23939237Y-17107055D01*
X24024952Y-17307055D02*
X24024952Y-17202293D01*
X24015428Y-17183245D01*
X23996380Y-17173721D01*
X23967809Y-17173721D01*
X23948761Y-17183245D01*
X23939237Y-17192769D01*
X24148761Y-17307055D02*
X24129714Y-17297531D01*
X24120190Y-17288007D01*
X24110666Y-17268960D01*
X24110666Y-17211817D01*
X24120190Y-17192769D01*
X24129714Y-17183245D01*
X24148761Y-17173721D01*
X24177333Y-17173721D01*
X24196380Y-17183245D01*
X24205904Y-17192769D01*
X24215428Y-17211817D01*
X24215428Y-17268960D01*
X24205904Y-17288007D01*
X24196380Y-17297531D01*
X24177333Y-17307055D01*
X24148761Y-17307055D01*
X24329714Y-17307055D02*
X24310666Y-17297531D01*
X24301142Y-17278483D01*
X24301142Y-17107055D01*
X24482095Y-17297531D02*
X24463047Y-17307055D01*
X24424952Y-17307055D01*
X24405904Y-17297531D01*
X24396380Y-17278483D01*
X24396380Y-17202293D01*
X24405904Y-17183245D01*
X24424952Y-17173721D01*
X24463047Y-17173721D01*
X24482095Y-17183245D01*
X24491618Y-17202293D01*
X24491618Y-17221341D01*
X24396380Y-17240388D01*
X24567809Y-17297531D02*
X24586857Y-17307055D01*
X24624952Y-17307055D01*
X24643999Y-17297531D01*
X24653523Y-17278483D01*
X24653523Y-17268960D01*
X24643999Y-17249912D01*
X24624952Y-17240388D01*
X24596380Y-17240388D01*
X24577333Y-17230864D01*
X24567809Y-17211817D01*
X24567809Y-17202293D01*
X24577333Y-17183245D01*
X24596380Y-17173721D01*
X24624952Y-17173721D01*
X24643999Y-17183245D01*
X24720190Y-17383245D02*
X24729714Y-17373721D01*
X24748761Y-17345150D01*
X24758285Y-17326102D01*
X24767809Y-17297531D01*
X24777333Y-17249912D01*
X24777333Y-17211817D01*
X24767809Y-17164198D01*
X24758285Y-17135626D01*
X24748761Y-17116579D01*
X24729714Y-17088007D01*
X24720190Y-17078483D01*
D20*
X19507333Y-17420579D02*
X19507333Y-17540579D01*
X19447333Y-17480579D02*
X19567333Y-17480579D01*
X19567333Y-17480579D02*
G75*
G03*
X19567333Y-17480579I-60000J0D01*
G01*
D11*
X19929714Y-17571055D02*
X19815428Y-17571055D01*
X19872571Y-17571055D02*
X19872571Y-17371055D01*
X19853523Y-17399626D01*
X19834476Y-17418674D01*
X19815428Y-17428198D01*
X20015428Y-17552007D02*
X20024952Y-17561531D01*
X20015428Y-17571055D01*
X20005904Y-17561531D01*
X20015428Y-17552007D01*
X20015428Y-17571055D01*
X20101142Y-17390102D02*
X20110666Y-17380579D01*
X20129714Y-17371055D01*
X20177333Y-17371055D01*
X20196380Y-17380579D01*
X20205904Y-17390102D01*
X20215428Y-17409150D01*
X20215428Y-17428198D01*
X20205904Y-17456769D01*
X20091619Y-17571055D01*
X20215428Y-17571055D01*
X20339238Y-17371055D02*
X20358285Y-17371055D01*
X20377333Y-17380579D01*
X20386857Y-17390102D01*
X20396380Y-17409150D01*
X20405904Y-17447245D01*
X20405904Y-17494864D01*
X20396380Y-17532960D01*
X20386857Y-17552007D01*
X20377333Y-17561531D01*
X20358285Y-17571055D01*
X20339238Y-17571055D01*
X20320190Y-17561531D01*
X20310666Y-17552007D01*
X20301142Y-17532960D01*
X20291619Y-17494864D01*
X20291619Y-17447245D01*
X20301142Y-17409150D01*
X20310666Y-17390102D01*
X20320190Y-17380579D01*
X20339238Y-17371055D01*
X20529714Y-17371055D02*
X20548761Y-17371055D01*
X20567809Y-17380579D01*
X20577333Y-17390102D01*
X20586857Y-17409150D01*
X20596380Y-17447245D01*
X20596380Y-17494864D01*
X20586857Y-17532960D01*
X20577333Y-17552007D01*
X20567809Y-17561531D01*
X20548761Y-17571055D01*
X20529714Y-17571055D01*
X20510666Y-17561531D01*
X20501142Y-17552007D01*
X20491619Y-17532960D01*
X20482095Y-17494864D01*
X20482095Y-17447245D01*
X20491619Y-17409150D01*
X20501142Y-17390102D01*
X20510666Y-17380579D01*
X20529714Y-17371055D01*
X20682095Y-17571055D02*
X20682095Y-17437721D01*
X20682095Y-17456769D02*
X20691619Y-17447245D01*
X20710666Y-17437721D01*
X20739238Y-17437721D01*
X20758285Y-17447245D01*
X20767809Y-17466293D01*
X20767809Y-17571055D01*
X20767809Y-17466293D02*
X20777333Y-17447245D01*
X20796380Y-17437721D01*
X20824952Y-17437721D01*
X20843999Y-17447245D01*
X20853523Y-17466293D01*
X20853523Y-17571055D01*
X20948761Y-17571055D02*
X20948761Y-17437721D01*
X20948761Y-17456769D02*
X20958285Y-17447245D01*
X20977333Y-17437721D01*
X21005904Y-17437721D01*
X21024952Y-17447245D01*
X21034476Y-17466293D01*
X21034476Y-17571055D01*
X21034476Y-17466293D02*
X21043999Y-17447245D01*
X21063047Y-17437721D01*
X21091619Y-17437721D01*
X21110666Y-17447245D01*
X21120190Y-17466293D01*
X21120190Y-17571055D01*
X21510666Y-17361531D02*
X21339238Y-17618674D01*
X21767809Y-17371055D02*
X21786857Y-17371055D01*
X21805904Y-17380579D01*
X21815428Y-17390102D01*
X21824952Y-17409150D01*
X21834476Y-17447245D01*
X21834476Y-17494864D01*
X21824952Y-17532960D01*
X21815428Y-17552007D01*
X21805904Y-17561531D01*
X21786857Y-17571055D01*
X21767809Y-17571055D01*
X21748761Y-17561531D01*
X21739238Y-17552007D01*
X21729714Y-17532960D01*
X21720190Y-17494864D01*
X21720190Y-17447245D01*
X21729714Y-17409150D01*
X21739238Y-17390102D01*
X21748761Y-17380579D01*
X21767809Y-17371055D01*
X21920190Y-17552007D02*
X21929714Y-17561531D01*
X21920190Y-17571055D01*
X21910666Y-17561531D01*
X21920190Y-17552007D01*
X21920190Y-17571055D01*
X22053523Y-17371055D02*
X22072571Y-17371055D01*
X22091619Y-17380579D01*
X22101142Y-17390102D01*
X22110666Y-17409150D01*
X22120190Y-17447245D01*
X22120190Y-17494864D01*
X22110666Y-17532960D01*
X22101142Y-17552007D01*
X22091619Y-17561531D01*
X22072571Y-17571055D01*
X22053523Y-17571055D01*
X22034476Y-17561531D01*
X22024952Y-17552007D01*
X22015428Y-17532960D01*
X22005904Y-17494864D01*
X22005904Y-17447245D01*
X22015428Y-17409150D01*
X22024952Y-17390102D01*
X22034476Y-17380579D01*
X22053523Y-17371055D01*
X22291619Y-17437721D02*
X22291619Y-17571055D01*
X22243999Y-17361531D02*
X22196380Y-17504388D01*
X22320190Y-17504388D01*
X22377333Y-17371055D02*
X22510666Y-17371055D01*
X22424952Y-17571055D01*
X22577333Y-17390102D02*
X22586857Y-17380579D01*
X22605904Y-17371055D01*
X22653523Y-17371055D01*
X22672571Y-17380579D01*
X22682095Y-17390102D01*
X22691618Y-17409150D01*
X22691618Y-17428198D01*
X22682095Y-17456769D01*
X22567809Y-17571055D01*
X22691618Y-17571055D01*
X22767809Y-17371055D02*
X22767809Y-17409150D01*
X22843999Y-17371055D02*
X22843999Y-17409150D01*
X23139237Y-17647245D02*
X23129714Y-17637721D01*
X23110666Y-17609150D01*
X23101142Y-17590102D01*
X23091618Y-17561531D01*
X23082095Y-17513912D01*
X23082095Y-17475817D01*
X23091618Y-17428198D01*
X23101142Y-17399626D01*
X23110666Y-17380579D01*
X23129714Y-17352007D01*
X23139237Y-17342483D01*
X23320190Y-17571055D02*
X23205904Y-17571055D01*
X23263047Y-17571055D02*
X23263047Y-17371055D01*
X23243999Y-17399626D01*
X23224952Y-17418674D01*
X23205904Y-17428198D01*
X23396380Y-17390102D02*
X23405904Y-17380579D01*
X23424952Y-17371055D01*
X23472571Y-17371055D01*
X23491618Y-17380579D01*
X23501142Y-17390102D01*
X23510666Y-17409150D01*
X23510666Y-17428198D01*
X23501142Y-17456769D01*
X23386857Y-17571055D01*
X23510666Y-17571055D01*
X23624952Y-17456769D02*
X23605904Y-17447245D01*
X23596380Y-17437721D01*
X23586857Y-17418674D01*
X23586857Y-17409150D01*
X23596380Y-17390102D01*
X23605904Y-17380579D01*
X23624952Y-17371055D01*
X23663047Y-17371055D01*
X23682095Y-17380579D01*
X23691618Y-17390102D01*
X23701142Y-17409150D01*
X23701142Y-17418674D01*
X23691618Y-17437721D01*
X23682095Y-17447245D01*
X23663047Y-17456769D01*
X23624952Y-17456769D01*
X23605904Y-17466293D01*
X23596380Y-17475817D01*
X23586857Y-17494864D01*
X23586857Y-17532960D01*
X23596380Y-17552007D01*
X23605904Y-17561531D01*
X23624952Y-17571055D01*
X23663047Y-17571055D01*
X23682095Y-17561531D01*
X23691618Y-17552007D01*
X23701142Y-17532960D01*
X23701142Y-17494864D01*
X23691618Y-17475817D01*
X23682095Y-17466293D01*
X23663047Y-17456769D01*
X23939237Y-17571055D02*
X23939237Y-17371055D01*
X24024952Y-17571055D02*
X24024952Y-17466293D01*
X24015428Y-17447245D01*
X23996380Y-17437721D01*
X23967809Y-17437721D01*
X23948761Y-17447245D01*
X23939237Y-17456769D01*
X24148761Y-17571055D02*
X24129714Y-17561531D01*
X24120190Y-17552007D01*
X24110666Y-17532960D01*
X24110666Y-17475817D01*
X24120190Y-17456769D01*
X24129714Y-17447245D01*
X24148761Y-17437721D01*
X24177333Y-17437721D01*
X24196380Y-17447245D01*
X24205904Y-17456769D01*
X24215428Y-17475817D01*
X24215428Y-17532960D01*
X24205904Y-17552007D01*
X24196380Y-17561531D01*
X24177333Y-17571055D01*
X24148761Y-17571055D01*
X24329714Y-17571055D02*
X24310666Y-17561531D01*
X24301142Y-17542483D01*
X24301142Y-17371055D01*
X24482095Y-17561531D02*
X24463047Y-17571055D01*
X24424952Y-17571055D01*
X24405904Y-17561531D01*
X24396380Y-17542483D01*
X24396380Y-17466293D01*
X24405904Y-17447245D01*
X24424952Y-17437721D01*
X24463047Y-17437721D01*
X24482095Y-17447245D01*
X24491618Y-17466293D01*
X24491618Y-17485341D01*
X24396380Y-17504388D01*
X24567809Y-17561531D02*
X24586857Y-17571055D01*
X24624952Y-17571055D01*
X24643999Y-17561531D01*
X24653523Y-17542483D01*
X24653523Y-17532960D01*
X24643999Y-17513912D01*
X24624952Y-17504388D01*
X24596380Y-17504388D01*
X24577333Y-17494864D01*
X24567809Y-17475817D01*
X24567809Y-17466293D01*
X24577333Y-17447245D01*
X24596380Y-17437721D01*
X24624952Y-17437721D01*
X24643999Y-17447245D01*
X24720190Y-17647245D02*
X24729714Y-17637721D01*
X24748761Y-17609150D01*
X24758285Y-17590102D01*
X24767809Y-17561531D01*
X24777333Y-17513912D01*
X24777333Y-17475817D01*
X24767809Y-17428198D01*
X24758285Y-17399626D01*
X24748761Y-17380579D01*
X24729714Y-17352007D01*
X24720190Y-17342483D01*
D21*
X19546831Y-17794077D02*
X19546831Y-17695081D01*
X19447835Y-17695081D01*
X19447835Y-17794077D01*
X19546831Y-17794077D01*
X19567333Y-17744579D02*
G75*
G03*
X19567333Y-17744579I-70000J0D01*
G01*
D11*
X19929714Y-17835055D02*
X19815428Y-17835055D01*
X19872571Y-17835055D02*
X19872571Y-17635055D01*
X19853523Y-17663626D01*
X19834476Y-17682674D01*
X19815428Y-17692198D01*
X20015428Y-17816007D02*
X20024952Y-17825531D01*
X20015428Y-17835055D01*
X20005904Y-17825531D01*
X20015428Y-17816007D01*
X20015428Y-17835055D01*
X20196380Y-17701721D02*
X20196380Y-17835055D01*
X20148761Y-17625531D02*
X20101142Y-17768388D01*
X20224952Y-17768388D01*
X20339238Y-17635055D02*
X20358285Y-17635055D01*
X20377333Y-17644579D01*
X20386857Y-17654102D01*
X20396380Y-17673150D01*
X20405904Y-17711245D01*
X20405904Y-17758864D01*
X20396380Y-17796960D01*
X20386857Y-17816007D01*
X20377333Y-17825531D01*
X20358285Y-17835055D01*
X20339238Y-17835055D01*
X20320190Y-17825531D01*
X20310666Y-17816007D01*
X20301142Y-17796960D01*
X20291619Y-17758864D01*
X20291619Y-17711245D01*
X20301142Y-17673150D01*
X20310666Y-17654102D01*
X20320190Y-17644579D01*
X20339238Y-17635055D01*
X20529714Y-17635055D02*
X20548761Y-17635055D01*
X20567809Y-17644579D01*
X20577333Y-17654102D01*
X20586857Y-17673150D01*
X20596380Y-17711245D01*
X20596380Y-17758864D01*
X20586857Y-17796960D01*
X20577333Y-17816007D01*
X20567809Y-17825531D01*
X20548761Y-17835055D01*
X20529714Y-17835055D01*
X20510666Y-17825531D01*
X20501142Y-17816007D01*
X20491619Y-17796960D01*
X20482095Y-17758864D01*
X20482095Y-17711245D01*
X20491619Y-17673150D01*
X20501142Y-17654102D01*
X20510666Y-17644579D01*
X20529714Y-17635055D01*
X20682095Y-17835055D02*
X20682095Y-17701721D01*
X20682095Y-17720769D02*
X20691619Y-17711245D01*
X20710666Y-17701721D01*
X20739238Y-17701721D01*
X20758285Y-17711245D01*
X20767809Y-17730293D01*
X20767809Y-17835055D01*
X20767809Y-17730293D02*
X20777333Y-17711245D01*
X20796380Y-17701721D01*
X20824952Y-17701721D01*
X20843999Y-17711245D01*
X20853523Y-17730293D01*
X20853523Y-17835055D01*
X20948761Y-17835055D02*
X20948761Y-17701721D01*
X20948761Y-17720769D02*
X20958285Y-17711245D01*
X20977333Y-17701721D01*
X21005904Y-17701721D01*
X21024952Y-17711245D01*
X21034476Y-17730293D01*
X21034476Y-17835055D01*
X21034476Y-17730293D02*
X21043999Y-17711245D01*
X21063047Y-17701721D01*
X21091619Y-17701721D01*
X21110666Y-17711245D01*
X21120190Y-17730293D01*
X21120190Y-17835055D01*
X21510666Y-17625531D02*
X21339238Y-17882674D01*
X21767809Y-17635055D02*
X21786857Y-17635055D01*
X21805904Y-17644579D01*
X21815428Y-17654102D01*
X21824952Y-17673150D01*
X21834476Y-17711245D01*
X21834476Y-17758864D01*
X21824952Y-17796960D01*
X21815428Y-17816007D01*
X21805904Y-17825531D01*
X21786857Y-17835055D01*
X21767809Y-17835055D01*
X21748761Y-17825531D01*
X21739238Y-17816007D01*
X21729714Y-17796960D01*
X21720190Y-17758864D01*
X21720190Y-17711245D01*
X21729714Y-17673150D01*
X21739238Y-17654102D01*
X21748761Y-17644579D01*
X21767809Y-17635055D01*
X21920190Y-17816007D02*
X21929714Y-17825531D01*
X21920190Y-17835055D01*
X21910666Y-17825531D01*
X21920190Y-17816007D01*
X21920190Y-17835055D01*
X22053523Y-17635055D02*
X22072571Y-17635055D01*
X22091619Y-17644579D01*
X22101142Y-17654102D01*
X22110666Y-17673150D01*
X22120190Y-17711245D01*
X22120190Y-17758864D01*
X22110666Y-17796960D01*
X22101142Y-17816007D01*
X22091619Y-17825531D01*
X22072571Y-17835055D01*
X22053523Y-17835055D01*
X22034476Y-17825531D01*
X22024952Y-17816007D01*
X22015428Y-17796960D01*
X22005904Y-17758864D01*
X22005904Y-17711245D01*
X22015428Y-17673150D01*
X22024952Y-17654102D01*
X22034476Y-17644579D01*
X22053523Y-17635055D01*
X22301142Y-17635055D02*
X22205904Y-17635055D01*
X22196380Y-17730293D01*
X22205904Y-17720769D01*
X22224952Y-17711245D01*
X22272571Y-17711245D01*
X22291619Y-17720769D01*
X22301142Y-17730293D01*
X22310666Y-17749341D01*
X22310666Y-17796960D01*
X22301142Y-17816007D01*
X22291619Y-17825531D01*
X22272571Y-17835055D01*
X22224952Y-17835055D01*
X22205904Y-17825531D01*
X22196380Y-17816007D01*
X22491618Y-17635055D02*
X22396380Y-17635055D01*
X22386857Y-17730293D01*
X22396380Y-17720769D01*
X22415428Y-17711245D01*
X22463047Y-17711245D01*
X22482095Y-17720769D01*
X22491618Y-17730293D01*
X22501142Y-17749341D01*
X22501142Y-17796960D01*
X22491618Y-17816007D01*
X22482095Y-17825531D01*
X22463047Y-17835055D01*
X22415428Y-17835055D01*
X22396380Y-17825531D01*
X22386857Y-17816007D01*
X22691618Y-17835055D02*
X22577333Y-17835055D01*
X22634476Y-17835055D02*
X22634476Y-17635055D01*
X22615428Y-17663626D01*
X22596380Y-17682674D01*
X22577333Y-17692198D01*
X22767809Y-17635055D02*
X22767809Y-17673150D01*
X22843999Y-17635055D02*
X22843999Y-17673150D01*
X23139237Y-17911245D02*
X23129714Y-17901721D01*
X23110666Y-17873150D01*
X23101142Y-17854102D01*
X23091618Y-17825531D01*
X23082095Y-17777912D01*
X23082095Y-17739817D01*
X23091618Y-17692198D01*
X23101142Y-17663626D01*
X23110666Y-17644579D01*
X23129714Y-17616007D01*
X23139237Y-17606483D01*
X23301142Y-17701721D02*
X23301142Y-17835055D01*
X23253523Y-17625531D02*
X23205904Y-17768388D01*
X23329714Y-17768388D01*
X23558285Y-17835055D02*
X23558285Y-17635055D01*
X23643999Y-17835055D02*
X23643999Y-17730293D01*
X23634476Y-17711245D01*
X23615428Y-17701721D01*
X23586857Y-17701721D01*
X23567809Y-17711245D01*
X23558285Y-17720769D01*
X23767809Y-17835055D02*
X23748761Y-17825531D01*
X23739237Y-17816007D01*
X23729714Y-17796960D01*
X23729714Y-17739817D01*
X23739237Y-17720769D01*
X23748761Y-17711245D01*
X23767809Y-17701721D01*
X23796380Y-17701721D01*
X23815428Y-17711245D01*
X23824952Y-17720769D01*
X23834476Y-17739817D01*
X23834476Y-17796960D01*
X23824952Y-17816007D01*
X23815428Y-17825531D01*
X23796380Y-17835055D01*
X23767809Y-17835055D01*
X23948761Y-17835055D02*
X23929714Y-17825531D01*
X23920190Y-17806483D01*
X23920190Y-17635055D01*
X24101142Y-17825531D02*
X24082095Y-17835055D01*
X24043999Y-17835055D01*
X24024952Y-17825531D01*
X24015428Y-17806483D01*
X24015428Y-17730293D01*
X24024952Y-17711245D01*
X24043999Y-17701721D01*
X24082095Y-17701721D01*
X24101142Y-17711245D01*
X24110666Y-17730293D01*
X24110666Y-17749341D01*
X24015428Y-17768388D01*
X24186857Y-17825531D02*
X24205904Y-17835055D01*
X24243999Y-17835055D01*
X24263047Y-17825531D01*
X24272571Y-17806483D01*
X24272571Y-17796960D01*
X24263047Y-17777912D01*
X24243999Y-17768388D01*
X24215428Y-17768388D01*
X24196380Y-17758864D01*
X24186857Y-17739817D01*
X24186857Y-17730293D01*
X24196380Y-17711245D01*
X24215428Y-17701721D01*
X24243999Y-17701721D01*
X24263047Y-17711245D01*
X24339237Y-17911245D02*
X24348761Y-17901721D01*
X24367809Y-17873150D01*
X24377333Y-17854102D01*
X24386857Y-17825531D01*
X24396380Y-17777912D01*
X24396380Y-17739817D01*
X24386857Y-17692198D01*
X24377333Y-17663626D01*
X24367809Y-17644579D01*
X24348761Y-17616007D01*
X24339237Y-17606483D01*
X19467333Y-18108579D02*
X19567333Y-18008579D01*
X19467333Y-17908579D01*
X19367333Y-18008579D01*
X19467333Y-18108579D01*
X19567333Y-18008579D02*
G75*
G03*
X19567333Y-18008579I-100000J0D01*
G01*
X19815428Y-17918102D02*
X19824952Y-17908579D01*
X19843999Y-17899055D01*
X19891619Y-17899055D01*
X19910666Y-17908579D01*
X19920190Y-17918102D01*
X19929714Y-17937150D01*
X19929714Y-17956198D01*
X19920190Y-17984769D01*
X19805904Y-18099055D01*
X19929714Y-18099055D01*
X20015428Y-18080007D02*
X20024952Y-18089531D01*
X20015428Y-18099055D01*
X20005904Y-18089531D01*
X20015428Y-18080007D01*
X20015428Y-18099055D01*
X20091619Y-17899055D02*
X20224952Y-17899055D01*
X20139238Y-18099055D01*
X20339238Y-17899055D02*
X20358285Y-17899055D01*
X20377333Y-17908579D01*
X20386857Y-17918102D01*
X20396380Y-17937150D01*
X20405904Y-17975245D01*
X20405904Y-18022864D01*
X20396380Y-18060960D01*
X20386857Y-18080007D01*
X20377333Y-18089531D01*
X20358285Y-18099055D01*
X20339238Y-18099055D01*
X20320190Y-18089531D01*
X20310666Y-18080007D01*
X20301142Y-18060960D01*
X20291619Y-18022864D01*
X20291619Y-17975245D01*
X20301142Y-17937150D01*
X20310666Y-17918102D01*
X20320190Y-17908579D01*
X20339238Y-17899055D01*
X20529714Y-17899055D02*
X20548761Y-17899055D01*
X20567809Y-17908579D01*
X20577333Y-17918102D01*
X20586857Y-17937150D01*
X20596380Y-17975245D01*
X20596380Y-18022864D01*
X20586857Y-18060960D01*
X20577333Y-18080007D01*
X20567809Y-18089531D01*
X20548761Y-18099055D01*
X20529714Y-18099055D01*
X20510666Y-18089531D01*
X20501142Y-18080007D01*
X20491619Y-18060960D01*
X20482095Y-18022864D01*
X20482095Y-17975245D01*
X20491619Y-17937150D01*
X20501142Y-17918102D01*
X20510666Y-17908579D01*
X20529714Y-17899055D01*
X20682095Y-18099055D02*
X20682095Y-17965721D01*
X20682095Y-17984769D02*
X20691619Y-17975245D01*
X20710666Y-17965721D01*
X20739238Y-17965721D01*
X20758285Y-17975245D01*
X20767809Y-17994293D01*
X20767809Y-18099055D01*
X20767809Y-17994293D02*
X20777333Y-17975245D01*
X20796380Y-17965721D01*
X20824952Y-17965721D01*
X20843999Y-17975245D01*
X20853523Y-17994293D01*
X20853523Y-18099055D01*
X20948761Y-18099055D02*
X20948761Y-17965721D01*
X20948761Y-17984769D02*
X20958285Y-17975245D01*
X20977333Y-17965721D01*
X21005904Y-17965721D01*
X21024952Y-17975245D01*
X21034476Y-17994293D01*
X21034476Y-18099055D01*
X21034476Y-17994293D02*
X21043999Y-17975245D01*
X21063047Y-17965721D01*
X21091619Y-17965721D01*
X21110666Y-17975245D01*
X21120190Y-17994293D01*
X21120190Y-18099055D01*
X21510666Y-17889531D02*
X21339238Y-18146674D01*
X21767809Y-17899055D02*
X21786857Y-17899055D01*
X21805904Y-17908579D01*
X21815428Y-17918102D01*
X21824952Y-17937150D01*
X21834476Y-17975245D01*
X21834476Y-18022864D01*
X21824952Y-18060960D01*
X21815428Y-18080007D01*
X21805904Y-18089531D01*
X21786857Y-18099055D01*
X21767809Y-18099055D01*
X21748761Y-18089531D01*
X21739238Y-18080007D01*
X21729714Y-18060960D01*
X21720190Y-18022864D01*
X21720190Y-17975245D01*
X21729714Y-17937150D01*
X21739238Y-17918102D01*
X21748761Y-17908579D01*
X21767809Y-17899055D01*
X21920190Y-18080007D02*
X21929714Y-18089531D01*
X21920190Y-18099055D01*
X21910666Y-18089531D01*
X21920190Y-18080007D01*
X21920190Y-18099055D01*
X22120190Y-18099055D02*
X22005904Y-18099055D01*
X22063047Y-18099055D02*
X22063047Y-17899055D01*
X22043999Y-17927626D01*
X22024952Y-17946674D01*
X22005904Y-17956198D01*
X22243999Y-17899055D02*
X22263047Y-17899055D01*
X22282095Y-17908579D01*
X22291619Y-17918102D01*
X22301142Y-17937150D01*
X22310666Y-17975245D01*
X22310666Y-18022864D01*
X22301142Y-18060960D01*
X22291619Y-18080007D01*
X22282095Y-18089531D01*
X22263047Y-18099055D01*
X22243999Y-18099055D01*
X22224952Y-18089531D01*
X22215428Y-18080007D01*
X22205904Y-18060960D01*
X22196380Y-18022864D01*
X22196380Y-17975245D01*
X22205904Y-17937150D01*
X22215428Y-17918102D01*
X22224952Y-17908579D01*
X22243999Y-17899055D01*
X22482095Y-17899055D02*
X22443999Y-17899055D01*
X22424952Y-17908579D01*
X22415428Y-17918102D01*
X22396380Y-17946674D01*
X22386857Y-17984769D01*
X22386857Y-18060960D01*
X22396380Y-18080007D01*
X22405904Y-18089531D01*
X22424952Y-18099055D01*
X22463047Y-18099055D01*
X22482095Y-18089531D01*
X22491618Y-18080007D01*
X22501142Y-18060960D01*
X22501142Y-18013341D01*
X22491618Y-17994293D01*
X22482095Y-17984769D01*
X22463047Y-17975245D01*
X22424952Y-17975245D01*
X22405904Y-17984769D01*
X22396380Y-17994293D01*
X22386857Y-18013341D01*
X22567809Y-17899055D02*
X22691618Y-17899055D01*
X22624952Y-17975245D01*
X22653523Y-17975245D01*
X22672571Y-17984769D01*
X22682095Y-17994293D01*
X22691618Y-18013341D01*
X22691618Y-18060960D01*
X22682095Y-18080007D01*
X22672571Y-18089531D01*
X22653523Y-18099055D01*
X22596380Y-18099055D01*
X22577333Y-18089531D01*
X22567809Y-18080007D01*
X22767809Y-17899055D02*
X22767809Y-17937150D01*
X22843999Y-17899055D02*
X22843999Y-17937150D01*
X23139237Y-18175245D02*
X23129714Y-18165721D01*
X23110666Y-18137150D01*
X23101142Y-18118102D01*
X23091618Y-18089531D01*
X23082095Y-18041912D01*
X23082095Y-18003817D01*
X23091618Y-17956198D01*
X23101142Y-17927626D01*
X23110666Y-17908579D01*
X23129714Y-17880007D01*
X23139237Y-17870483D01*
X23301142Y-17965721D02*
X23301142Y-18099055D01*
X23253523Y-17889531D02*
X23205904Y-18032388D01*
X23329714Y-18032388D01*
X23558285Y-18099055D02*
X23558285Y-17899055D01*
X23643999Y-18099055D02*
X23643999Y-17994293D01*
X23634476Y-17975245D01*
X23615428Y-17965721D01*
X23586857Y-17965721D01*
X23567809Y-17975245D01*
X23558285Y-17984769D01*
X23767809Y-18099055D02*
X23748761Y-18089531D01*
X23739237Y-18080007D01*
X23729714Y-18060960D01*
X23729714Y-18003817D01*
X23739237Y-17984769D01*
X23748761Y-17975245D01*
X23767809Y-17965721D01*
X23796380Y-17965721D01*
X23815428Y-17975245D01*
X23824952Y-17984769D01*
X23834476Y-18003817D01*
X23834476Y-18060960D01*
X23824952Y-18080007D01*
X23815428Y-18089531D01*
X23796380Y-18099055D01*
X23767809Y-18099055D01*
X23948761Y-18099055D02*
X23929714Y-18089531D01*
X23920190Y-18070483D01*
X23920190Y-17899055D01*
X24101142Y-18089531D02*
X24082095Y-18099055D01*
X24043999Y-18099055D01*
X24024952Y-18089531D01*
X24015428Y-18070483D01*
X24015428Y-17994293D01*
X24024952Y-17975245D01*
X24043999Y-17965721D01*
X24082095Y-17965721D01*
X24101142Y-17975245D01*
X24110666Y-17994293D01*
X24110666Y-18013341D01*
X24015428Y-18032388D01*
X24186857Y-18089531D02*
X24205904Y-18099055D01*
X24243999Y-18099055D01*
X24263047Y-18089531D01*
X24272571Y-18070483D01*
X24272571Y-18060960D01*
X24263047Y-18041912D01*
X24243999Y-18032388D01*
X24215428Y-18032388D01*
X24196380Y-18022864D01*
X24186857Y-18003817D01*
X24186857Y-17994293D01*
X24196380Y-17975245D01*
X24215428Y-17965721D01*
X24243999Y-17965721D01*
X24263047Y-17975245D01*
X24339237Y-18175245D02*
X24348761Y-18165721D01*
X24367809Y-18137150D01*
X24377333Y-18118102D01*
X24386857Y-18089531D01*
X24396380Y-18041912D01*
X24396380Y-18003817D01*
X24386857Y-17956198D01*
X24377333Y-17927626D01*
X24367809Y-17908579D01*
X24348761Y-17880007D01*
X24339237Y-17870483D01*
M02*
