G04 #@! TF.GenerationSoftware,KiCad,Pcbnew,(6.0.11)*
G04 #@! TF.CreationDate,2024-03-31T18:21:24-04:00*
G04 #@! TF.ProjectId,Ultrasonic Sound Steering - Driver Rev. C,556c7472-6173-46f6-9e69-6320536f756e,rev?*
G04 #@! TF.SameCoordinates,Original*
G04 #@! TF.FileFunction,Soldermask,Top*
G04 #@! TF.FilePolarity,Negative*
%FSLAX46Y46*%
G04 Gerber Fmt 4.6, Leading zero omitted, Abs format (unit mm)*
G04 Created by KiCad (PCBNEW (6.0.11)) date 2024-03-31 18:21:24*
%MOMM*%
%LPD*%
G01*
G04 APERTURE LIST*
G04 Aperture macros list*
%AMRoundRect*
0 Rectangle with rounded corners*
0 $1 Rounding radius*
0 $2 $3 $4 $5 $6 $7 $8 $9 X,Y pos of 4 corners*
0 Add a 4 corners polygon primitive as box body*
4,1,4,$2,$3,$4,$5,$6,$7,$8,$9,$2,$3,0*
0 Add four circle primitives for the rounded corners*
1,1,$1+$1,$2,$3*
1,1,$1+$1,$4,$5*
1,1,$1+$1,$6,$7*
1,1,$1+$1,$8,$9*
0 Add four rect primitives between the rounded corners*
20,1,$1+$1,$2,$3,$4,$5,0*
20,1,$1+$1,$4,$5,$6,$7,0*
20,1,$1+$1,$6,$7,$8,$9,0*
20,1,$1+$1,$8,$9,$2,$3,0*%
G04 Aperture macros list end*
G04 #@! TA.AperFunction,Profile*
%ADD10C,0.100000*%
G04 #@! TD*
%ADD11RoundRect,0.100000X-0.100000X0.625000X-0.100000X-0.625000X0.100000X-0.625000X0.100000X0.625000X0*%
%ADD12R,2.150000X1.950000*%
%ADD13RoundRect,0.225000X-0.250000X0.225000X-0.250000X-0.225000X0.250000X-0.225000X0.250000X0.225000X0*%
%ADD14RoundRect,0.225000X0.250000X-0.225000X0.250000X0.225000X-0.250000X0.225000X-0.250000X-0.225000X0*%
%ADD15R,1.700000X1.700000*%
%ADD16O,1.700000X1.700000*%
%ADD17RoundRect,0.200000X0.200000X0.275000X-0.200000X0.275000X-0.200000X-0.275000X0.200000X-0.275000X0*%
%ADD18RoundRect,0.200000X-0.275000X0.200000X-0.275000X-0.200000X0.275000X-0.200000X0.275000X0.200000X0*%
%ADD19R,1.600200X0.863600*%
%ADD20RoundRect,0.200000X0.275000X-0.200000X0.275000X0.200000X-0.275000X0.200000X-0.275000X-0.200000X0*%
%ADD21R,0.863600X1.600200*%
%ADD22C,4.700000*%
%ADD23RoundRect,0.250000X-0.625000X0.350000X-0.625000X-0.350000X0.625000X-0.350000X0.625000X0.350000X0*%
%ADD24O,1.750000X1.200000*%
%ADD25RoundRect,0.200000X-0.200000X-0.275000X0.200000X-0.275000X0.200000X0.275000X-0.200000X0.275000X0*%
%ADD26C,1.400000*%
%ADD27O,2.500000X1.724000*%
%ADD28R,1.200000X0.900000*%
%ADD29RoundRect,0.150000X0.150000X-0.512500X0.150000X0.512500X-0.150000X0.512500X-0.150000X-0.512500X0*%
%ADD30RoundRect,0.150000X-0.150000X0.512500X-0.150000X-0.512500X0.150000X-0.512500X0.150000X0.512500X0*%
%ADD31R,0.330200X1.524000*%
%ADD32RoundRect,0.225000X0.225000X0.250000X-0.225000X0.250000X-0.225000X-0.250000X0.225000X-0.250000X0*%
%ADD33C,2.004000*%
%ADD34RoundRect,0.102000X-0.654000X0.654000X-0.654000X-0.654000X0.654000X-0.654000X0.654000X0.654000X0*%
%ADD35C,1.512000*%
%ADD36RoundRect,0.102000X1.050000X-1.050000X1.050000X1.050000X-1.050000X1.050000X-1.050000X-1.050000X0*%
%ADD37C,2.304000*%
%ADD38C,0.499999*%
%ADD39O,1.400000X1.400000*%
G04 APERTURE END LIST*
D10*
X312719114Y-47450000D02*
X312714900Y-142595786D01*
X312719100Y-47450000D02*
G75*
G03*
X310719114Y-45450000I-2000000J0D01*
G01*
X195723314Y-142595786D02*
G75*
G03*
X197723328Y-144595786I1999986J-14D01*
G01*
X195723328Y-142595786D02*
X195723328Y-47454213D01*
X197723328Y-45454213D02*
X310719114Y-45450000D01*
X310714900Y-144595786D02*
X197723328Y-144595786D01*
X310714900Y-144595800D02*
G75*
G03*
X312714900Y-142595786I0J2000000D01*
G01*
X197723328Y-45454228D02*
G75*
G03*
X195723328Y-47454213I-28J-1999972D01*
G01*
D11*
X287675000Y-58900000D03*
X287025000Y-58900000D03*
X286375000Y-58900000D03*
X285725000Y-58900000D03*
X285725000Y-63200000D03*
X286375000Y-63200000D03*
X287025000Y-63200000D03*
X287675000Y-63200000D03*
D12*
X286700000Y-61050000D03*
D13*
X221050000Y-74275000D03*
X221050000Y-75825000D03*
X282600000Y-126325000D03*
X282600000Y-127875000D03*
D14*
X302620000Y-99845000D03*
X302620000Y-98295000D03*
D13*
X222600000Y-91625000D03*
X222600000Y-93175000D03*
D15*
X302090000Y-124255000D03*
D16*
X302090000Y-121715000D03*
X304630000Y-124255000D03*
X304630000Y-121715000D03*
D17*
X304570000Y-129455000D03*
X302920000Y-129455000D03*
D13*
X262600000Y-126325000D03*
X262600000Y-127875000D03*
D18*
X295330000Y-111880000D03*
X295330000Y-113530000D03*
D13*
X286000000Y-65700000D03*
X286000000Y-67250000D03*
X227550000Y-100400000D03*
X227550000Y-101950000D03*
D19*
X206954834Y-99350000D03*
X206954834Y-97449998D03*
X204943834Y-98399999D03*
D13*
X281050000Y-74275000D03*
X281050000Y-75825000D03*
X242600000Y-108975000D03*
X242600000Y-110525000D03*
D11*
X262712020Y-102074487D03*
X262062020Y-102074487D03*
X261412020Y-102074487D03*
X260762020Y-102074487D03*
X260762020Y-106374487D03*
X261412020Y-106374487D03*
X262062020Y-106374487D03*
X262712020Y-106374487D03*
D12*
X261737020Y-104224487D03*
D13*
X247550000Y-100400000D03*
X247550000Y-101950000D03*
D19*
X206955250Y-92350252D03*
X206955250Y-90450250D03*
X204944250Y-91400251D03*
D17*
X306255000Y-90410000D03*
X304605000Y-90410000D03*
D20*
X290090000Y-128650000D03*
X290090000Y-127000000D03*
D13*
X262600000Y-91625000D03*
X262600000Y-93175000D03*
X267550000Y-83050000D03*
X267550000Y-84600000D03*
X282600000Y-91625000D03*
X282600000Y-93175000D03*
D11*
X247677020Y-93391028D03*
X247027020Y-93391028D03*
X246377020Y-93391028D03*
X245727020Y-93391028D03*
X245727020Y-97691028D03*
X246377020Y-97691028D03*
X247027020Y-97691028D03*
X247677020Y-97691028D03*
D12*
X246702020Y-95541028D03*
D11*
X242712020Y-119394995D03*
X242062020Y-119394995D03*
X241412020Y-119394995D03*
X240762020Y-119394995D03*
X240762020Y-123694995D03*
X241412020Y-123694995D03*
X242062020Y-123694995D03*
X242712020Y-123694995D03*
D12*
X241737020Y-121544995D03*
D21*
X291740000Y-122695500D03*
X293640002Y-122695500D03*
X292690001Y-120684500D03*
D14*
X307640000Y-90445000D03*
X307640000Y-88895000D03*
D22*
X200250114Y-140100000D03*
D18*
X202932832Y-90713004D03*
X202932832Y-92363004D03*
D14*
X299550000Y-63965000D03*
X299550000Y-62415000D03*
D21*
X293680001Y-106796000D03*
X291779999Y-106796000D03*
X292730000Y-108807000D03*
D13*
X296975000Y-98275000D03*
X296975000Y-99825000D03*
X226000000Y-83050000D03*
X226000000Y-84600000D03*
X287550000Y-83050000D03*
X287550000Y-84600000D03*
D11*
X242730000Y-67449459D03*
X242080000Y-67449459D03*
X241430000Y-67449459D03*
X240780000Y-67449459D03*
X240780000Y-71749459D03*
X241430000Y-71749459D03*
X242080000Y-71749459D03*
X242730000Y-71749459D03*
D12*
X241755000Y-69599459D03*
D13*
X299650000Y-131055000D03*
X299650000Y-132605000D03*
D11*
X262712020Y-119394995D03*
X262062020Y-119394995D03*
X261412020Y-119394995D03*
X260762020Y-119394995D03*
X260762020Y-123694995D03*
X261412020Y-123694995D03*
X262062020Y-123694995D03*
X262712020Y-123694995D03*
D12*
X261737020Y-121544995D03*
D13*
X226000000Y-65700000D03*
X226000000Y-67250000D03*
X222600000Y-108975000D03*
X222600000Y-110525000D03*
X226000000Y-117750000D03*
X226000000Y-119300000D03*
X221050000Y-126325000D03*
X221050000Y-127875000D03*
X261050000Y-91625000D03*
X261050000Y-93175000D03*
D23*
X206560000Y-113635000D03*
D24*
X206560000Y-115635000D03*
D13*
X241050000Y-126325000D03*
X241050000Y-127875000D03*
D25*
X298085000Y-105210000D03*
X299735000Y-105210000D03*
D13*
X266000000Y-117750000D03*
X266000000Y-119300000D03*
D18*
X304480000Y-53030000D03*
X304480000Y-54680000D03*
D13*
X286000000Y-83050000D03*
X286000000Y-84600000D03*
D26*
X307920000Y-56790000D03*
X307920000Y-58790000D03*
X307920000Y-60790000D03*
D27*
X307920000Y-62890000D03*
X307920000Y-54690000D03*
D22*
X308250089Y-49950000D03*
D15*
X227405000Y-52840000D03*
D16*
X227405000Y-50300000D03*
X224865000Y-52840000D03*
X224865000Y-50300000D03*
X222325000Y-52840000D03*
X222325000Y-50300000D03*
X219785000Y-52840000D03*
X219785000Y-50300000D03*
X217245000Y-52840000D03*
X217245000Y-50300000D03*
X214705000Y-52840000D03*
X214705000Y-50300000D03*
X212165000Y-52840000D03*
X212165000Y-50300000D03*
X209625000Y-52840000D03*
X209625000Y-50300000D03*
D20*
X208999750Y-92375251D03*
X208999750Y-90725251D03*
D11*
X247675000Y-58900000D03*
X247025000Y-58900000D03*
X246375000Y-58900000D03*
X245725000Y-58900000D03*
X245725000Y-63200000D03*
X246375000Y-63200000D03*
X247025000Y-63200000D03*
X247675000Y-63200000D03*
D12*
X246700000Y-61050000D03*
D15*
X299590000Y-66000000D03*
D16*
X302130000Y-66000000D03*
X299590000Y-68540000D03*
X302130000Y-68540000D03*
X299590000Y-71080000D03*
X302130000Y-71080000D03*
D13*
X261050000Y-108975000D03*
X261050000Y-110525000D03*
D23*
X206560000Y-120540000D03*
D24*
X206560000Y-122540000D03*
D11*
X267675000Y-58900000D03*
X267025000Y-58900000D03*
X266375000Y-58900000D03*
X265725000Y-58900000D03*
X265725000Y-63200000D03*
X266375000Y-63200000D03*
X267025000Y-63200000D03*
X267675000Y-63200000D03*
D12*
X266700000Y-61050000D03*
D13*
X266000000Y-65700000D03*
X266000000Y-67250000D03*
X281050000Y-108975000D03*
X281050000Y-110525000D03*
D11*
X282730000Y-84756508D03*
X282080000Y-84756508D03*
X281430000Y-84756508D03*
X280780000Y-84756508D03*
X280780000Y-89056508D03*
X281430000Y-89056508D03*
X282080000Y-89056508D03*
X282730000Y-89056508D03*
D12*
X281755000Y-86906508D03*
D13*
X246000000Y-65700000D03*
X246000000Y-67250000D03*
D11*
X247693274Y-76070681D03*
X247043274Y-76070681D03*
X246393274Y-76070681D03*
X245743274Y-76070681D03*
X245743274Y-80370681D03*
X246393274Y-80370681D03*
X247043274Y-80370681D03*
X247693274Y-80370681D03*
D12*
X246718274Y-78220681D03*
D13*
X261050000Y-74275000D03*
X261050000Y-75825000D03*
X287550000Y-100400000D03*
X287550000Y-101950000D03*
D15*
X298905000Y-52840000D03*
D16*
X298905000Y-50300000D03*
X296365000Y-52840000D03*
X296365000Y-50300000D03*
X293825000Y-52840000D03*
X293825000Y-50300000D03*
X291285000Y-52840000D03*
X291285000Y-50300000D03*
X288745000Y-52840000D03*
X288745000Y-50300000D03*
X286205000Y-52840000D03*
X286205000Y-50300000D03*
X283665000Y-52840000D03*
X283665000Y-50300000D03*
X281125000Y-52840000D03*
X281125000Y-50300000D03*
D11*
X247677020Y-110711536D03*
X247027020Y-110711536D03*
X246377020Y-110711536D03*
X245727020Y-110711536D03*
X245727020Y-115011536D03*
X246377020Y-115011536D03*
X247027020Y-115011536D03*
X247677020Y-115011536D03*
D12*
X246702020Y-112861536D03*
D13*
X266000000Y-100400000D03*
X266000000Y-101950000D03*
D18*
X199880000Y-93730000D03*
X199880000Y-95380000D03*
D15*
X233517500Y-137160000D03*
D16*
X233517500Y-139700000D03*
X236057500Y-137160000D03*
X236057500Y-139700000D03*
X238597500Y-137160000D03*
X238597500Y-139700000D03*
X241137500Y-137160000D03*
X241137500Y-139700000D03*
X243677500Y-137160000D03*
X243677500Y-139700000D03*
X246217500Y-137160000D03*
X246217500Y-139700000D03*
X248757500Y-137160000D03*
X248757500Y-139700000D03*
X251297500Y-137160000D03*
X251297500Y-139700000D03*
D13*
X301110000Y-131055000D03*
X301110000Y-132605000D03*
D28*
X304512500Y-60007500D03*
X304512500Y-56707500D03*
D14*
X304080000Y-99845000D03*
X304080000Y-98295000D03*
D13*
X242600000Y-74275000D03*
X242600000Y-75825000D03*
D11*
X242712020Y-102074487D03*
X242062020Y-102074487D03*
X241412020Y-102074487D03*
X240762020Y-102074487D03*
X240762020Y-106374487D03*
X241412020Y-106374487D03*
X242062020Y-106374487D03*
X242712020Y-106374487D03*
D12*
X241737020Y-104224487D03*
D15*
X281125000Y-137160000D03*
D16*
X281125000Y-139700000D03*
X283665000Y-137160000D03*
X283665000Y-139700000D03*
X286205000Y-137160000D03*
X286205000Y-139700000D03*
X288745000Y-137160000D03*
X288745000Y-139700000D03*
X291285000Y-137160000D03*
X291285000Y-139700000D03*
X293825000Y-137160000D03*
X293825000Y-139700000D03*
X296365000Y-137160000D03*
X296365000Y-139700000D03*
X298905000Y-137160000D03*
X298905000Y-139700000D03*
D11*
X267677020Y-110711536D03*
X267027020Y-110711536D03*
X266377020Y-110711536D03*
X265727020Y-110711536D03*
X265727020Y-115011536D03*
X266377020Y-115011536D03*
X267027020Y-115011536D03*
X267677020Y-115011536D03*
D12*
X266702020Y-112861536D03*
D13*
X267550000Y-100400000D03*
X267550000Y-101950000D03*
D18*
X201410000Y-93725000D03*
X201410000Y-95375000D03*
D25*
X300937500Y-56757500D03*
X302587500Y-56757500D03*
D13*
X221050000Y-91625000D03*
X221050000Y-93175000D03*
D14*
X230470000Y-139305000D03*
X230470000Y-137755000D03*
D11*
X222712020Y-84753979D03*
X222062020Y-84753979D03*
X221412020Y-84753979D03*
X220762020Y-84753979D03*
X220762020Y-89053979D03*
X221412020Y-89053979D03*
X222062020Y-89053979D03*
X222712020Y-89053979D03*
D12*
X221737020Y-86903979D03*
D20*
X295280000Y-128640000D03*
X295280000Y-126990000D03*
D18*
X288630000Y-121490500D03*
X288630000Y-123140500D03*
D13*
X227550000Y-65700000D03*
X227550000Y-67250000D03*
D20*
X290090000Y-123140500D03*
X290090000Y-121490500D03*
D13*
X242600000Y-91625000D03*
X242600000Y-93175000D03*
X261050000Y-126325000D03*
X261050000Y-127875000D03*
D29*
X302590000Y-133537500D03*
X303540000Y-133537500D03*
X304490000Y-133537500D03*
X304490000Y-131262500D03*
X302590000Y-131262500D03*
D11*
X267677020Y-93391028D03*
X267027020Y-93391028D03*
X266377020Y-93391028D03*
X265727020Y-93391028D03*
X265727020Y-97691028D03*
X266377020Y-97691028D03*
X267027020Y-97691028D03*
X267677020Y-97691028D03*
D12*
X266702020Y-95541028D03*
D11*
X287677020Y-93391028D03*
X287027020Y-93391028D03*
X286377020Y-93391028D03*
X285727020Y-93391028D03*
X285727020Y-97691028D03*
X286377020Y-97691028D03*
X287027020Y-97691028D03*
X287677020Y-97691028D03*
D12*
X286702020Y-95541028D03*
D11*
X227677020Y-110711536D03*
X227027020Y-110711536D03*
X226377020Y-110711536D03*
X225727020Y-110711536D03*
X225727020Y-115011536D03*
X226377020Y-115011536D03*
X227027020Y-115011536D03*
X227677020Y-115011536D03*
D12*
X226702020Y-112861536D03*
D18*
X210577750Y-97774999D03*
X210577750Y-99424999D03*
X201410000Y-90705000D03*
X201410000Y-92355000D03*
D11*
X222730000Y-67466000D03*
X222080000Y-67466000D03*
X221430000Y-67466000D03*
X220780000Y-67466000D03*
X220780000Y-71766000D03*
X221430000Y-71766000D03*
X222080000Y-71766000D03*
X222730000Y-71766000D03*
D12*
X221755000Y-69616000D03*
D13*
X286000000Y-100400000D03*
X286000000Y-101950000D03*
D25*
X300940000Y-58217500D03*
X302590000Y-58217500D03*
D30*
X302917500Y-61487500D03*
X301967500Y-61487500D03*
X301017500Y-61487500D03*
X301017500Y-63762500D03*
X302917500Y-63762500D03*
D21*
X293680001Y-111074500D03*
X291779999Y-111074500D03*
X292730000Y-113085500D03*
D13*
X262600000Y-74275000D03*
X262600000Y-75825000D03*
D11*
X287695000Y-76073049D03*
X287045000Y-76073049D03*
X286395000Y-76073049D03*
X285745000Y-76073049D03*
X285745000Y-80373049D03*
X286395000Y-80373049D03*
X287045000Y-80373049D03*
X287695000Y-80373049D03*
D12*
X286720000Y-78223049D03*
D13*
X222600000Y-74275000D03*
X222600000Y-75825000D03*
D11*
X227677020Y-76070520D03*
X227027020Y-76070520D03*
X226377020Y-76070520D03*
X225727020Y-76070520D03*
X225727020Y-80370520D03*
X226377020Y-80370520D03*
X227027020Y-80370520D03*
X227677020Y-80370520D03*
D12*
X226702020Y-78220520D03*
D13*
X267550000Y-65700000D03*
X267550000Y-67250000D03*
X227550000Y-117750000D03*
X227550000Y-119300000D03*
X281050000Y-91625000D03*
X281050000Y-93175000D03*
D11*
X262728274Y-84754140D03*
X262078274Y-84754140D03*
X261428274Y-84754140D03*
X260778274Y-84754140D03*
X260778274Y-89054140D03*
X261428274Y-89054140D03*
X262078274Y-89054140D03*
X262728274Y-89054140D03*
D12*
X261753274Y-86904140D03*
D11*
X282730000Y-67449459D03*
X282080000Y-67449459D03*
X281430000Y-67449459D03*
X280780000Y-67449459D03*
X280780000Y-71749459D03*
X281430000Y-71749459D03*
X282080000Y-71749459D03*
X282730000Y-71749459D03*
D12*
X281755000Y-69599459D03*
D13*
X227550000Y-83050000D03*
X227550000Y-84600000D03*
D20*
X295330000Y-110426500D03*
X295330000Y-108776500D03*
D11*
X222712020Y-119394995D03*
X222062020Y-119394995D03*
X221412020Y-119394995D03*
X220762020Y-119394995D03*
X220762020Y-123694995D03*
X221412020Y-123694995D03*
X222062020Y-123694995D03*
X222712020Y-123694995D03*
D12*
X221737020Y-121544995D03*
D13*
X282600000Y-108975000D03*
X282600000Y-110525000D03*
D18*
X288620000Y-127000000D03*
X288620000Y-128650000D03*
D13*
X281050000Y-126325000D03*
X281050000Y-127875000D03*
X287550000Y-65700000D03*
X287550000Y-67250000D03*
D31*
X300800001Y-98628300D03*
X300299999Y-98628300D03*
X299800000Y-98628300D03*
X299300001Y-98628300D03*
X298799999Y-98628300D03*
X298799999Y-102971700D03*
X299300001Y-102971700D03*
X299800000Y-102971700D03*
X300299999Y-102971700D03*
X300800001Y-102971700D03*
D13*
X247550000Y-65700000D03*
X247550000Y-67250000D03*
D11*
X287677020Y-110711536D03*
X287027020Y-110711536D03*
X286377020Y-110711536D03*
X285727020Y-110711536D03*
X285727020Y-115011536D03*
X286377020Y-115011536D03*
X287027020Y-115011536D03*
X287677020Y-115011536D03*
D12*
X286702020Y-112861536D03*
D13*
X266000000Y-83050000D03*
X266000000Y-84600000D03*
D14*
X298090000Y-63965000D03*
X298090000Y-62415000D03*
D11*
X227675000Y-58900000D03*
X227025000Y-58900000D03*
X226375000Y-58900000D03*
X225725000Y-58900000D03*
X225725000Y-63200000D03*
X226375000Y-63200000D03*
X227025000Y-63200000D03*
X227675000Y-63200000D03*
D12*
X226700000Y-61050000D03*
D13*
X246000000Y-117750000D03*
X246000000Y-119300000D03*
D17*
X306935000Y-103752000D03*
X305285000Y-103752000D03*
D18*
X295330000Y-102645000D03*
X295330000Y-104295000D03*
X295460000Y-95210000D03*
X295460000Y-96860000D03*
D13*
X221050000Y-108975000D03*
X221050000Y-110525000D03*
X241050000Y-108975000D03*
X241050000Y-110525000D03*
X247550000Y-117750000D03*
X247550000Y-119300000D03*
D22*
X308250072Y-140100000D03*
D15*
X251297500Y-52840000D03*
D16*
X251297500Y-50300000D03*
X248757500Y-52840000D03*
X248757500Y-50300000D03*
X246217500Y-52840000D03*
X246217500Y-50300000D03*
X243677500Y-52840000D03*
X243677500Y-50300000D03*
X241137500Y-52840000D03*
X241137500Y-50300000D03*
X238597500Y-52840000D03*
X238597500Y-50300000D03*
X236057500Y-52840000D03*
X236057500Y-50300000D03*
X233517500Y-52840000D03*
X233517500Y-50300000D03*
D13*
X262600000Y-108975000D03*
X262600000Y-110525000D03*
X241050000Y-91625000D03*
X241050000Y-93175000D03*
D11*
X227677020Y-93391028D03*
X227027020Y-93391028D03*
X226377020Y-93391028D03*
X225727020Y-93391028D03*
X225727020Y-97691028D03*
X226377020Y-97691028D03*
X227027020Y-97691028D03*
X227677020Y-97691028D03*
D12*
X226702020Y-95541028D03*
D21*
X291729999Y-128180500D03*
X293630001Y-128180500D03*
X292680000Y-126169500D03*
D22*
X200250077Y-49950000D03*
D13*
X246000000Y-100400000D03*
X246000000Y-101950000D03*
X282600000Y-74275000D03*
X282600000Y-75825000D03*
D18*
X208972250Y-97774999D03*
X208972250Y-99424999D03*
D20*
X199882832Y-92363004D03*
X199882832Y-90713004D03*
D11*
X282712020Y-119394995D03*
X282062020Y-119394995D03*
X281412020Y-119394995D03*
X280762020Y-119394995D03*
X280762020Y-123694995D03*
X281412020Y-123694995D03*
X282062020Y-123694995D03*
X282712020Y-123694995D03*
D12*
X281737020Y-121544995D03*
D17*
X306935000Y-105209500D03*
X305285000Y-105209500D03*
D15*
X275120000Y-52840000D03*
D16*
X275120000Y-50300000D03*
X272580000Y-52840000D03*
X272580000Y-50300000D03*
X270040000Y-52840000D03*
X270040000Y-50300000D03*
X267500000Y-52840000D03*
X267500000Y-50300000D03*
X264960000Y-52840000D03*
X264960000Y-50300000D03*
X262420000Y-52840000D03*
X262420000Y-50300000D03*
X259880000Y-52840000D03*
X259880000Y-50300000D03*
X257340000Y-52840000D03*
X257340000Y-50300000D03*
D13*
X241050000Y-74275000D03*
X241050000Y-75825000D03*
X286000000Y-117750000D03*
X286000000Y-119300000D03*
D15*
X209625000Y-137160000D03*
D16*
X209625000Y-139700000D03*
X212165000Y-137160000D03*
X212165000Y-139700000D03*
X214705000Y-137160000D03*
X214705000Y-139700000D03*
X217245000Y-137160000D03*
X217245000Y-139700000D03*
X219785000Y-137160000D03*
X219785000Y-139700000D03*
X222325000Y-137160000D03*
X222325000Y-139700000D03*
X224865000Y-137160000D03*
X224865000Y-139700000D03*
X227405000Y-137160000D03*
X227405000Y-139700000D03*
D25*
X298085000Y-106670000D03*
X299735000Y-106670000D03*
D13*
X287550000Y-117750000D03*
X287550000Y-119300000D03*
D15*
X257340000Y-137160000D03*
D16*
X257340000Y-139700000D03*
X259880000Y-137160000D03*
X259880000Y-139700000D03*
X262420000Y-137160000D03*
X262420000Y-139700000D03*
X264960000Y-137160000D03*
X264960000Y-139700000D03*
X267500000Y-137160000D03*
X267500000Y-139700000D03*
X270040000Y-137160000D03*
X270040000Y-139700000D03*
X272580000Y-137160000D03*
X272580000Y-139700000D03*
X275120000Y-137160000D03*
X275120000Y-139700000D03*
D13*
X246000000Y-83050000D03*
X246000000Y-84600000D03*
D18*
X202940000Y-93735000D03*
X202940000Y-95385000D03*
D11*
X242728274Y-84754140D03*
X242078274Y-84754140D03*
X241428274Y-84754140D03*
X240778274Y-84754140D03*
X240778274Y-89054140D03*
X241428274Y-89054140D03*
X242078274Y-89054140D03*
X242728274Y-89054140D03*
D12*
X241753274Y-86904140D03*
D11*
X222712020Y-102074487D03*
X222062020Y-102074487D03*
X221412020Y-102074487D03*
X220762020Y-102074487D03*
X220762020Y-106374487D03*
X221412020Y-106374487D03*
X222062020Y-106374487D03*
X222712020Y-106374487D03*
D12*
X221737020Y-104224487D03*
D23*
X206560000Y-106735000D03*
D24*
X206560000Y-108735000D03*
D11*
X262730000Y-67449459D03*
X262080000Y-67449459D03*
X261430000Y-67449459D03*
X260780000Y-67449459D03*
X260780000Y-71749459D03*
X261430000Y-71749459D03*
X262080000Y-71749459D03*
X262730000Y-71749459D03*
D12*
X261755000Y-69599459D03*
D13*
X242600000Y-126325000D03*
X242600000Y-127875000D03*
D11*
X267693274Y-76070681D03*
X267043274Y-76070681D03*
X266393274Y-76070681D03*
X265743274Y-76070681D03*
X265743274Y-80370681D03*
X266393274Y-80370681D03*
X267043274Y-80370681D03*
X267693274Y-80370681D03*
D12*
X266718274Y-78220681D03*
D13*
X267550000Y-117750000D03*
X267550000Y-119300000D03*
D11*
X282712020Y-102074487D03*
X282062020Y-102074487D03*
X281412020Y-102074487D03*
X280762020Y-102074487D03*
X280762020Y-106374487D03*
X281412020Y-106374487D03*
X282062020Y-106374487D03*
X282712020Y-106374487D03*
D12*
X281737020Y-104224487D03*
D25*
X302920000Y-127990000D03*
X304570000Y-127990000D03*
D13*
X226000000Y-100400000D03*
X226000000Y-101950000D03*
X222600000Y-126325000D03*
X222600000Y-127875000D03*
D32*
X302537500Y-59675000D03*
X300987500Y-59675000D03*
D13*
X247550000Y-83050000D03*
X247550000Y-84600000D03*
D20*
X295300001Y-123149500D03*
X295300001Y-121499500D03*
D18*
X295330000Y-105705000D03*
X295330000Y-107355000D03*
D33*
X239220000Y-90702549D03*
X234220000Y-90702549D03*
X289220000Y-82042295D03*
X294220000Y-82042295D03*
X269220000Y-99354721D03*
X274220000Y-99354721D03*
X279220000Y-125335483D03*
X274220000Y-125335483D03*
X284220000Y-99354721D03*
X279220000Y-99354721D03*
X284220000Y-73382041D03*
X289220000Y-73382041D03*
D34*
X306775000Y-131320000D03*
D35*
X306775000Y-133320000D03*
X308775000Y-131320000D03*
X308775000Y-133320000D03*
D33*
X229220000Y-99354721D03*
X234220000Y-99354721D03*
X264220000Y-73382041D03*
X269220000Y-73382041D03*
X249220000Y-99354721D03*
X254220000Y-99354721D03*
D36*
X309260000Y-104530000D03*
D37*
X302920000Y-104530000D03*
X299740000Y-85470000D03*
X309260000Y-85470000D03*
D33*
X239220000Y-125335483D03*
X234220000Y-125335483D03*
X229220000Y-82042295D03*
X234220000Y-82042295D03*
X264220000Y-82042295D03*
X259220000Y-82042295D03*
X284220000Y-108014975D03*
X289220000Y-108014975D03*
X264220000Y-90702549D03*
X269220000Y-90702549D03*
X269220000Y-82042295D03*
X274220000Y-82042295D03*
X224220000Y-125335483D03*
X229220000Y-125335483D03*
X229220000Y-64721787D03*
X234220000Y-64721787D03*
X279220000Y-108014975D03*
X274220000Y-108014975D03*
X284210000Y-125328500D03*
X289210000Y-125328500D03*
X279220000Y-73382041D03*
X274220000Y-73382041D03*
X229220000Y-116675229D03*
X234220000Y-116675229D03*
X249220000Y-82042295D03*
X254220000Y-82042295D03*
X244220000Y-108014975D03*
X249220000Y-108014975D03*
X239220000Y-73382041D03*
X234220000Y-73382041D03*
X244220000Y-116675229D03*
X239220000Y-116675229D03*
X264220000Y-125335483D03*
X269220000Y-125335483D03*
X259220000Y-73382041D03*
X254220000Y-73382041D03*
X249220000Y-116675229D03*
X254220000Y-116675229D03*
X284220000Y-64721787D03*
X279220000Y-64721787D03*
X219220000Y-90702549D03*
X214220000Y-90702549D03*
D38*
X301424998Y-92500001D03*
X300245001Y-92500001D03*
X300245001Y-93679999D03*
X301424998Y-93679999D03*
X300835000Y-93090000D03*
D33*
X259220000Y-108014975D03*
X254220000Y-108014975D03*
X224220000Y-108014975D03*
X229220000Y-108014975D03*
X284220000Y-90702549D03*
X289220000Y-90702549D03*
X264220000Y-64721787D03*
X259220000Y-64721787D03*
X289220000Y-64721787D03*
X294220000Y-64721787D03*
X244220000Y-99354721D03*
X239220000Y-99354721D03*
X264220000Y-116675229D03*
X259220000Y-116675229D03*
X259220000Y-90702549D03*
X254220000Y-90702549D03*
X239220000Y-108014975D03*
X234220000Y-108014975D03*
X289220000Y-99354721D03*
X294220000Y-99354721D03*
X284220000Y-116675229D03*
X279220000Y-116675229D03*
X219220000Y-108014975D03*
X214220000Y-108014975D03*
X244220000Y-125335483D03*
X249220000Y-125335483D03*
X219220000Y-73382041D03*
X214220000Y-73382041D03*
X269220000Y-64721787D03*
X274220000Y-64721787D03*
X224220000Y-82042295D03*
X219220000Y-82042295D03*
X224220000Y-99354721D03*
X219220000Y-99354721D03*
X279220000Y-90702549D03*
X274220000Y-90702549D03*
X289220000Y-116675229D03*
X294220000Y-116675229D03*
X224220000Y-90702549D03*
X229220000Y-90702549D03*
X264220000Y-108014975D03*
X269220000Y-108014975D03*
X244220000Y-73382041D03*
X249220000Y-73382041D03*
X244220000Y-90702549D03*
X249220000Y-90702549D03*
X264220000Y-99354721D03*
X259220000Y-99354721D03*
X219220000Y-125335483D03*
X214220000Y-125335483D03*
D26*
X309740000Y-90350000D03*
D39*
X309740000Y-87810000D03*
D33*
X269220000Y-116675229D03*
X274220000Y-116675229D03*
X244220000Y-64721787D03*
X239220000Y-64721787D03*
X224220000Y-73382041D03*
X229220000Y-73382041D03*
X284220000Y-82042295D03*
X279220000Y-82042295D03*
X259220000Y-125335483D03*
X254220000Y-125335483D03*
X249220000Y-64721787D03*
X254220000Y-64721787D03*
X244220000Y-82042295D03*
X239220000Y-82042295D03*
X224220000Y-64721787D03*
X219220000Y-64721787D03*
X224220000Y-116675229D03*
X219220000Y-116675229D03*
M02*
