%TF.GenerationSoftware,KiCad,Pcbnew,(6.0.11)*%
%TF.CreationDate,2024-03-31T18:21:13-04:00*%
%TF.ProjectId,Ultrasonic Sound Steering - Driver Rev. C,556c7472-6173-46f6-9e69-6320536f756e,rev?*%
%TF.SameCoordinates,Original*%
%TF.FileFunction,Drillmap*%
%TF.FilePolarity,Positive*%
%FSLAX45Y45*%
G04 Gerber Fmt 4.5, Leading zero omitted, Abs format (unit mm)*
G04 Created by KiCad (PCBNEW (6.0.11)) date 2024-03-31 18:21:13*
%MOMM*%
%LPD*%
G01*
G04 APERTURE LIST*
%ADD10C,0.100000*%
%ADD11C,0.200000*%
G04 APERTURE END LIST*
D10*
X31271911Y-4745000D02*
X31271490Y-14259579D01*
X31271910Y-4745000D02*
G75*
G03*
X31071911Y-4545000I-200000J0D01*
G01*
X19572331Y-14259579D02*
G75*
G03*
X19772333Y-14459579I199999J-1D01*
G01*
X19572333Y-14259579D02*
X19572333Y-4745421D01*
X19772333Y-4545421D02*
X31071911Y-4545000D01*
X31071490Y-14459579D02*
X19772333Y-14459579D01*
X31071490Y-14459580D02*
G75*
G03*
X31271490Y-14259579I0J200000D01*
G01*
X19772333Y-4545423D02*
G75*
G03*
X19572333Y-4745421I-3J-199997D01*
G01*
D11*
X19824952Y-14775055D02*
X19824952Y-14575055D01*
X19872571Y-14575055D01*
X19901142Y-14584579D01*
X19920190Y-14603626D01*
X19929714Y-14622674D01*
X19939238Y-14660769D01*
X19939238Y-14689340D01*
X19929714Y-14727436D01*
X19920190Y-14746483D01*
X19901142Y-14765531D01*
X19872571Y-14775055D01*
X19824952Y-14775055D01*
X20024952Y-14775055D02*
X20024952Y-14641721D01*
X20024952Y-14679817D02*
X20034476Y-14660769D01*
X20043999Y-14651245D01*
X20063047Y-14641721D01*
X20082095Y-14641721D01*
X20148761Y-14775055D02*
X20148761Y-14641721D01*
X20148761Y-14575055D02*
X20139238Y-14584579D01*
X20148761Y-14594102D01*
X20158285Y-14584579D01*
X20148761Y-14575055D01*
X20148761Y-14594102D01*
X20272571Y-14775055D02*
X20253523Y-14765531D01*
X20243999Y-14746483D01*
X20243999Y-14575055D01*
X20377333Y-14775055D02*
X20358285Y-14765531D01*
X20348761Y-14746483D01*
X20348761Y-14575055D01*
X20605904Y-14775055D02*
X20605904Y-14575055D01*
X20672571Y-14717912D01*
X20739238Y-14575055D01*
X20739238Y-14775055D01*
X20920190Y-14775055D02*
X20920190Y-14670293D01*
X20910666Y-14651245D01*
X20891619Y-14641721D01*
X20853523Y-14641721D01*
X20834476Y-14651245D01*
X20920190Y-14765531D02*
X20901142Y-14775055D01*
X20853523Y-14775055D01*
X20834476Y-14765531D01*
X20824952Y-14746483D01*
X20824952Y-14727436D01*
X20834476Y-14708388D01*
X20853523Y-14698864D01*
X20901142Y-14698864D01*
X20920190Y-14689340D01*
X21015428Y-14641721D02*
X21015428Y-14841721D01*
X21015428Y-14651245D02*
X21034476Y-14641721D01*
X21072571Y-14641721D01*
X21091619Y-14651245D01*
X21101142Y-14660769D01*
X21110666Y-14679817D01*
X21110666Y-14736959D01*
X21101142Y-14756007D01*
X21091619Y-14765531D01*
X21072571Y-14775055D01*
X21034476Y-14775055D01*
X21015428Y-14765531D01*
X21196380Y-14756007D02*
X21205904Y-14765531D01*
X21196380Y-14775055D01*
X21186857Y-14765531D01*
X21196380Y-14756007D01*
X21196380Y-14775055D01*
X21196380Y-14651245D02*
X21205904Y-14660769D01*
X21196380Y-14670293D01*
X21186857Y-14660769D01*
X21196380Y-14651245D01*
X21196380Y-14670293D01*
M02*
